<svg width="16" height="16" viewBox="0 0 16 16" fill="none" xmlns="http://www.w3.org/2000/svg">
<path d="M0.928879 0.928875C0.53835 1.3194 0.538361 1.95257 0.928879 2.34309L6.58573 7.99994L0.928879 13.6568C0.53835 14.0473 0.538361 14.6805 0.928879 15.071C1.3194 15.4615 1.95256 15.4615 2.34309 15.071L7.99995 9.41416L13.6568 15.071C14.0473 15.4615 14.6805 15.4615 15.071 15.071C15.4615 14.6805 15.4615 14.0473 15.071 13.6568L9.41416 7.99994L15.071 2.34309C15.4615 1.95257 15.4615 1.31939 15.071 0.928875C14.6805 0.538357 14.0473 0.538357 13.6568 0.928875L7.99995 6.58573L2.34309 0.928875C1.95257 0.538357 1.3194 0.538357 0.928879 0.928875Z" fill="#B8B8B8"/>
</svg>
