<svg width="288" height="632" viewBox="0 0 288 632" fill="none" xmlns="http://www.w3.org/2000/svg">
<path d="M0 16C0 7.16346 7.16344 0 16 0H240V632H16C7.16344 632 0 624.837 0 616V16Z" fill="white"/>
<g clip-path="url(#clip0_2877_1111)">
<path d="M-361.654 50.0602C-407.353 97.7567 -424.476 158.152 -420.5 220.968C-419.685 233.69 -417.961 246.389 -415.669 259.187C-404.313 318.175 -375.892 377.184 -336.904 427.846C-334.703 430.748 -332.384 433.533 -330.072 436.546C-300.837 472.552 -266.25 503.87 -228.389 527.255C-199.041 545.395 -167.867 558.824 -136.076 565.866C-122.273 568.928 -108.786 570.974 -95.4976 571.887C-66.2 574.1 -38.1469 571.566 -11.8169 565.208C-6.89539 564.058 -2.19571 562.687 2.62069 561.199C6.63145 560.073 10.648 558.72 14.5536 557.255C20.5259 555.055 26.2704 552.861 32.1375 550.323C64.5846 536.072 93.6558 515.877 118.511 491.465C129.362 480.836 139.32 469.546 148.385 457.597C176.285 420.82 195.795 378.455 204.62 335.679C206.428 327.213 207.67 318.649 208.684 310.09C213.171 267.879 206.839 226.057 187.746 189.452C102.356 26.3095 -228.303 -88.8381 -361.654 50.0602Z" fill="#F2E9E9"/>
<mask id="mask0_2877_1111" style="mask-type:alpha" maskUnits="userSpaceOnUse" x="-422" y="-13" width="633" height="586">
<path d="M-361.654 50.0602C-407.353 97.7567 -424.476 158.152 -420.5 220.968C-419.685 233.69 -417.961 246.389 -415.669 259.187C-404.313 318.175 -375.892 377.184 -336.904 427.846C-334.703 430.748 -332.384 433.533 -330.072 436.546C-300.837 472.552 -266.25 503.87 -228.389 527.255C-199.041 545.395 -167.867 558.824 -136.076 565.866C-122.273 568.928 -108.786 570.974 -95.4976 571.887C-66.2 574.1 -38.1469 571.566 -11.8169 565.208C-6.89539 564.058 -2.19571 562.687 2.62069 561.199C6.63145 560.073 10.648 558.72 14.5536 557.255C20.5259 555.055 26.2704 552.861 32.1375 550.323C64.5846 536.072 93.6558 515.877 118.511 491.465C129.362 480.836 139.32 469.546 148.385 457.597C176.285 420.82 195.795 378.455 204.62 335.679C206.428 327.213 207.67 318.649 208.684 310.09C213.171 267.879 206.839 226.057 187.746 189.452C102.356 26.3095 -228.303 -88.8381 -361.654 50.0602Z" fill="#F2E9E9"/>
</mask>
<g mask="url(#mask0_2877_1111)">
<path d="M34.3698 134.873L26.9307 143.801C26.1476 144.75 27.169 145.919 28.8032 145.919H293.395C289.735 142.514 287.403 139.498 279.3 133.467H37.9617C36.4637 133.467 35.1018 133.992 34.3698 134.873Z" fill="#FFF4F4"/>
<path d="M34.3698 115.204L26.9307 124.132C26.1476 125.081 27.169 126.25 28.8032 126.25H270.09C262.311 120.252 258.532 117.847 252.539 113.797H37.9617C36.4637 113.797 35.1018 114.34 34.3698 115.204Z" fill="#FFF4F4"/>
<path d="M34.3698 173.856L26.9307 182.785C26.1476 183.734 27.169 184.903 28.8032 184.903H327.986C325.075 181.514 321.654 176.499 318.215 172.45H37.9617C36.4637 172.45 35.1018 172.992 34.3698 173.856Z" fill="#FFF4F4"/>
<path d="M34.3698 154.205L26.9307 163.133C26.1476 164.082 27.169 165.251 28.8032 165.251H312.138C308.188 161.354 306.401 158.576 300.375 152.798H37.9617C36.4637 152.798 35.1018 153.34 34.3698 154.205Z" fill="#FFF4F4"/>
<path d="M34.3698 76.4062L26.9307 85.3346C26.1476 86.2834 27.169 87.4524 28.8032 87.4524H201.214C195.733 83.776 173.041 77.643 163.338 75H37.9617C36.4637 75 35.1018 75.5252 34.3698 76.4062Z" fill="#FFF4F4"/>
<path d="M34.3698 95.7368L26.9307 104.665C26.1476 105.614 27.169 106.783 28.8032 106.783H241.032C236.214 103.073 223.157 97.0582 217.131 94.3306H37.9617C36.4637 94.3306 35.1018 94.8727 34.3698 95.7368Z" fill="#FFF4F4"/>
<path d="M34.3698 212.213L26.9307 221.142C26.1476 222.091 27.169 223.26 28.8032 223.26H352.381C349.708 218.905 348.21 214.805 345.146 210.807H37.9617C36.4637 210.807 35.1018 211.349 34.3698 212.213Z" fill="#FFF4F4"/>
<path d="M30.2502 264.191L26.9307 268.173C26.1476 269.122 27.169 270.291 28.8032 270.291H374C372.911 268.241 372.57 266.224 371.583 264.191H30.2502Z" fill="#E6DDDD"/>
<path d="M34.3698 192.56L26.9307 201.489C26.1476 202.438 27.169 203.607 28.8032 203.607H340.754C337.962 199.71 335.272 195.017 332.378 191.154H37.9617C36.4637 191.154 35.1018 191.68 34.3698 192.56Z" fill="#FFF4F4"/>
<path d="M34.3698 253.145L26.9307 262.073C26.1476 263.022 27.169 264.191 28.8032 264.191H30.2502L34.3698 259.244C35.0848 258.38 36.4637 257.838 37.9617 257.838H369.029C368.195 255.89 367.582 253.755 366.306 251.739H37.9617C36.4637 251.739 35.1018 252.281 34.3698 253.145Z" fill="#FFF4F4"/>
<path d="M368.961 257.838H37.9615C36.4635 257.838 35.0846 258.381 34.3696 259.245L30.25 264.192H371.617C370.714 262.04 370.119 260.176 368.961 257.838Z" fill="#FFF4F4"/>
<path d="M34.3698 233.476L26.9307 242.404C26.1476 243.353 27.169 244.522 28.8032 244.522H363.156C360.875 240.1 359.292 236.204 356.977 232.07H37.9617C36.4637 232.07 35.1018 232.612 34.3698 233.476Z" fill="#FFF4F4"/>
<path d="M173.228 269.749V285.047C173.228 291.35 178.369 296.466 184.702 296.466C191.034 296.466 196.175 291.35 196.175 285.047V269.749H173.228ZM184.651 291.807C180.82 291.807 177.722 288.724 177.722 284.912C177.722 281.1 180.82 278.016 184.651 278.016C188.481 278.016 191.579 281.1 191.579 284.912C191.579 288.724 188.481 291.807 184.651 291.807Z" fill="#E6DDDD"/>
</g>
</g>
<g clip-path="url(#clip1_2877_1111)">
<path d="M-11.0079 562.313C-9.41711 557.418 -0.034111 534.852 11.5059 504.594L81.3119 510.646L103.96 511.426L44.8821 710.478C23.366 705.045 9.86797 682.143 24.0773 643.368L33.3377 584.643L3.24126 643.368C0.518044 641.727 -30.5968 615.423 -37.2835 606.762" fill="#FB804A"/>
<path d="M99.27 330.716L97.0591 533.726L6.54569 521.165L60.9292 314.793L99.27 330.716Z" fill="white"/>
<path d="M124.291 233.348C124.291 233.348 156.942 253.628 136.154 278.99C115.366 304.353 114.395 236.387 114.395 236.387" fill="#543732"/>
<path d="M203.051 413.806C203.051 413.806 216.38 389.132 216.672 383.619C216.963 378.106 213.255 362.744 212.616 359.519C211.883 355.838 210.762 351.042 210.447 345.949C210.327 344.13 212.657 343.392 213.819 344.872C216.283 347.993 219.139 353.466 220.734 356.426C223.24 361.005 224.222 363.035 224.222 363.035L233.805 344.945C233.805 344.945 243.147 322.75 247.696 323.054C252.258 323.341 243.086 349.231 243.086 349.231C243.086 349.231 254.47 323.227 258.173 324.155C261.856 325.068 261.355 331.521 254.621 344.766C251.409 351.066 249.878 352.873 249.878 352.873C249.878 352.873 264.488 332.897 267.601 333.407C270.713 333.917 268.946 339.223 266.123 343.375C263.299 347.526 254.168 360.938 254.168 360.938C254.168 360.938 264.938 344.099 269.325 346.833C272.498 348.815 261.783 362.979 257.683 369.103C253.002 376.079 243.002 393.251 240.278 397.89C237.555 402.529 222.777 433.132 222.777 433.132L203.051 413.806Z" fill="#FFCBB6"/>
<path d="M224.191 363.039C224.191 363.039 232.198 370.808 231.74 383.219C231.74 383.219 237.438 367.629 228.147 355.709L224.191 363.039Z" fill="#FFBB9F"/>
<path d="M237.157 352.164C237.157 352.164 249.588 352.407 253.819 364.432L237.157 352.164Z" fill="#FFBB9F"/>
<path d="M130.658 371.38C139.448 391.31 165.979 449.055 165.979 449.055L206.052 381.735L248.95 405.564C248.95 405.564 194.613 510.458 158.51 505.967C122.407 501.475 124.402 436.898 124.402 436.898L140.661 552.631L93.6112 546.499L99.2734 330.713C99.2734 330.713 119.846 346.905 130.658 371.38Z" fill="#5A66FF"/>
<path d="M122.054 226.68C122.054 226.68 156.054 304.49 117.281 309.466C71.7956 315.302 53.7577 249.058 53.7577 249.058" fill="#FFCBB6"/>
<path d="M109.464 297.308L99.272 330.712C99.272 330.712 87.4085 339.426 78.8613 337.329C70.3142 335.231 60.9312 314.763 60.9312 314.763L73.9811 268.395L109.464 297.308Z" fill="#FFCBB6"/>
<path d="M106.236 307.906L103.405 316.647C103.405 316.647 82.1587 313.392 75.6338 289.401C75.6338 289.401 89.5195 307.045 106.236 307.906Z" fill="#DDA692"/>
<path d="M89.5957 237.978C90.0001 238.596 93.2087 257.074 85.2008 265.492C85.2008 265.492 86.6028 307.369 64.7631 303.254C42.9235 299.139 46.5364 247.23 48.5317 242.927C50.5269 238.623 93.8018 212.561 109.818 216.865C125.833 221.168 138.856 242.308 131.037 247.849C120.441 255.353 89.5957 237.978 89.5957 237.978Z" fill="#724D44"/>
<path d="M46.8828 212.829C46.775 208.203 49.4173 203.953 53.5426 202.097L76.3529 191.85C76.9461 191.581 77.5662 191.393 78.1864 191.258C79.939 197.821 84.5496 216.11 86.9492 225.712L47.5569 243.759L46.8828 212.829Z" fill="#BFB2AF"/>
<path d="M79.7776 191.016L95.2002 190.021C98.8941 189.779 102.399 191.608 104.367 194.809C108.466 201.479 115.072 212.237 115.233 212.748L86.9496 225.712C84.55 216.11 79.9663 197.821 78.1868 191.259C78.726 191.151 79.2383 191.043 79.7776 191.016Z" fill="#FB804A"/>
<path d="M120.215 221.76L153.783 210.598C161.36 208.07 161.414 197.096 153.864 194.514C151.842 193.815 149.604 193.949 147.69 194.891L48.2248 243.357L120.215 221.76Z" fill="#BFB2AF"/>
<path d="M115.267 261.457C117.316 263.098 119.662 264.254 121.819 265.734C123.518 266.89 125.189 268.423 125.567 270.467C125.998 272.888 124.407 275.255 122.547 276.842C120.471 278.644 117.936 279.881 115.267 280.446C116.642 278.966 118.044 277.406 118.718 275.47C119.473 273.238 119.096 270.602 117.694 268.719C115.941 266.325 113.191 264.55 111.546 262.076C110.872 261.081 108.958 257.853 110.98 257.315C112.005 257.046 112.247 258.203 112.76 258.902C113.488 259.843 114.323 260.704 115.267 261.457Z" fill="#EDB3A2"/>
<path d="M104.612 248.923C105.043 249.273 106.365 250.994 104.1 251.075C101.835 251.156 95.4178 252.581 95.1213 250.591C94.8516 248.574 102.401 247.041 104.612 248.923Z" fill="#4C3F3B"/>
<path d="M123.408 257.291C123.408 255.381 122.222 253.794 120.55 253.176C120.982 253.041 121.44 252.934 121.952 252.934C124.433 252.934 126.428 254.978 126.428 257.533C126.428 260.088 124.433 262.132 121.952 262.132C121.198 262.132 120.523 261.917 119.903 261.594C121.899 261.218 123.408 259.442 123.408 257.291Z" fill="white"/>
<path d="M117.473 257.531C117.473 255.487 118.768 253.793 120.574 253.201C122.219 253.793 123.432 255.407 123.432 257.316C123.432 259.468 121.922 261.243 119.927 261.62C118.471 260.813 117.473 259.307 117.473 257.531Z" fill="#4C3F3B"/>
<path d="M103.878 257.291C103.878 255.381 102.691 253.794 101.02 253.176C101.451 253.041 101.909 252.934 102.422 252.934C104.902 252.934 106.897 254.978 106.897 257.533C106.897 260.088 104.902 262.132 102.422 262.132C101.667 262.132 100.993 261.917 100.372 261.594C102.368 261.218 103.878 259.442 103.878 257.291Z" fill="white"/>
<path d="M97.9552 257.531C97.9552 255.487 99.2494 253.793 101.056 253.201C102.701 253.793 103.914 255.407 103.914 257.316C103.914 259.468 102.404 261.243 100.409 261.62C98.9529 260.813 97.9552 259.307 97.9552 257.531Z" fill="#4C3F3B"/>
<path d="M114.76 284.721C115.515 284.963 116.27 285.259 116.89 285.77C117.51 286.281 117.995 287.007 118.049 287.814C118.157 289.267 116.971 290.477 115.704 291.123C113.87 292.064 111.74 292.279 109.664 292.145C106.833 291.929 104.056 291.069 101.602 289.616C100.038 288.675 98.5554 287.438 97.8544 285.743C97.1533 284.049 97.423 281.79 98.9059 280.714C99.9575 279.907 101.44 279.853 102.681 280.257C104.568 280.848 106.132 282.247 108.019 282.946C110.203 283.753 112.549 284.022 114.76 284.721Z" fill="white"/>
<path d="M117.985 288.702L98.0061 281.736C98.0061 281.736 97.7904 282.167 97.7365 282.328C97.6826 282.489 97.5478 283.054 97.5478 283.054L117.284 289.94C117.284 289.94 117.662 289.509 117.743 289.348C117.824 289.186 117.985 288.702 117.985 288.702Z" fill="#EAE3E1"/>
<path d="M109.416 283.377L108.688 285.636L107.502 285.152L108.014 282.919L109.416 283.377Z" fill="#EAE3E1"/>
<path d="M111.136 287.758L109.384 292.116L107.901 291.954L109.653 287.301L111.136 287.758Z" fill="#EAE3E1"/>
<path d="M105.527 285.692C105.473 285.826 103.775 290.802 103.775 290.802L102.184 289.995L104.098 285.181L105.527 285.692Z" fill="#EAE3E1"/>
<path d="M67.9856 364.26C66.4645 363.788 61.736 363.33 61.736 363.33L60.0139 376.375L66.7558 377.449C66.7558 377.449 72.0077 377.36 73.0529 372.095C74.0981 366.83 69.5326 364.74 67.9856 364.26ZM66.7356 373.244L64.6323 373.133L65.3328 367.992C65.3328 367.992 66.5175 368.17 67.2614 368.415C68.0053 368.661 69.2888 369.371 69.0218 371.169C68.7622 372.94 66.7356 373.244 66.7356 373.244Z" fill="#000200"/>
<path d="M82.5998 365.891C78.7716 365.332 75.2063 368.041 74.6419 371.935C74.0776 375.829 76.7026 379.479 80.5049 380.03C84.3331 380.589 87.8984 377.88 88.4627 373.986C89.0271 370.092 86.428 366.449 82.5998 365.891ZM80.9964 375.611C79.571 375.391 78.5852 374.039 78.7885 372.559C79.0178 371.086 80.3497 370.076 81.775 370.296C83.2004 370.517 84.1862 371.868 83.9829 373.349C83.7611 374.795 82.4292 375.806 80.9964 375.611Z" fill="#000200"/>
<path d="M59.4668 379.583C59.4668 379.583 63.3901 383.303 72.2689 384.553C81.1478 385.804 85.0445 383.306 85.0445 383.306L84.3451 388.053C84.3451 388.053 77.3854 391.139 71.0125 390.061C64.6656 388.991 58.6642 384.104 58.6642 384.104L59.4668 379.583Z" fill="#FC484C"/>
<path d="M165.987 449.055L151.401 467.962L158.95 433.132L165.987 449.055Z" fill="#4455D3"/>
<path d="M99.27 330.713L74.6531 530.818L93.9314 533.481L99.27 330.713Z" fill="#E4E7F4"/>
<path d="M28.4132 592.624C28.4132 592.624 25.0968 590.527 20.5132 587.46C23.1285 589.155 25.7978 590.822 28.521 592.463L28.4132 592.624Z" fill="#FB804A"/>
<path d="M-61.8538 405.537C-43.6541 376.033 -21.5448 342.628 -8.95325 332.354C15.1243 312.72 60.9338 314.791 60.9338 314.791C64.2501 358.12 22.3796 480.403 0.000663757 539.143L-23.6135 530.786L-40.6073 544.992C-66.3026 516.16 -77.8426 482.298 -89.2208 450.911C-88.4928 449.647 -86.201 446.285 -85.3112 444.752L-61.8538 405.537Z" fill="#5A66FF"/>
<path d="M-20.5236 443.164L23.9917 369.846L-0.247677 459.651L-20.5236 443.164Z" fill="#4455D3"/>
</g>
<defs>
<clipPath id="clip0_2877_1111">
<rect width="280" height="632" fill="white"/>
</clipPath>
<clipPath id="clip1_2877_1111">
<path d="M0 190H288V632H16C7.16345 632 0 624.837 0 616V190Z" fill="white"/>
</clipPath>
</defs>
</svg>
