<svg width="40" height="40" viewBox="0 0 40 40" fill="none" xmlns="http://www.w3.org/2000/svg">
<g clip-path="url(#clip0_1_8469)">
<rect x="0.5" y="0.5" width="39" height="39" rx="6.5" stroke="#D9D9D9"/>
<path d="M15.6494 29.8545H23.7266C25.0801 29.8545 25.9502 29.0371 26.0205 27.6836L26.6094 15.0273H27.5762C28.0244 15.0273 28.3672 14.6758 28.3672 14.2363C28.3672 13.7969 28.0156 13.4629 27.5762 13.4629H23.6738V12.1445C23.6738 10.791 22.8125 10 21.3447 10H18.0049C16.5371 10 15.6758 10.791 15.6758 12.1445V13.4629H11.791C11.3516 13.4629 11 13.8057 11 14.2363C11 14.6846 11.3516 15.0273 11.791 15.0273H12.7578L13.3467 27.6836C13.417 29.0459 14.2783 29.8545 15.6494 29.8545ZM17.3193 12.2236C17.3193 11.7754 17.6357 11.4854 18.1191 11.4854H21.2305C21.7139 11.4854 22.0303 11.7754 22.0303 12.2236V13.4629H17.3193V12.2236ZM15.8252 28.2812C15.3418 28.2812 14.9902 27.9209 14.9639 27.4023L14.375 15.0273H24.9658L24.3945 27.4023C24.377 27.9297 24.0342 28.2812 23.5332 28.2812H15.8252ZM17.0908 26.8662C17.4688 26.8662 17.7061 26.6289 17.6973 26.2773L17.4336 17.084C17.4248 16.7324 17.1787 16.5039 16.8184 16.5039C16.4492 16.5039 16.2119 16.7412 16.2207 17.0928L16.4844 26.2861C16.4932 26.6377 16.7393 26.8662 17.0908 26.8662ZM19.6836 26.8662C20.0527 26.8662 20.3076 26.6377 20.3076 26.2861V17.0928C20.3076 16.7412 20.0527 16.5039 19.6836 16.5039C19.3145 16.5039 19.0684 16.7412 19.0684 17.0928V26.2861C19.0684 26.6377 19.3145 26.8662 19.6836 26.8662ZM22.2764 26.875C22.6279 26.875 22.874 26.6377 22.8828 26.2861L23.1465 17.0928C23.1553 16.7412 22.918 16.5127 22.5488 16.5127C22.1885 16.5127 21.9424 16.7412 21.9336 17.0928L21.6699 26.2861C21.6611 26.6289 21.8984 26.875 22.2764 26.875Z" fill="#828282"/>
</g>
<defs>
<clipPath id="clip0_1_8469">
<rect width="40" height="40" fill="white"/>
</clipPath>
</defs>
</svg>
