<svg width="20" height="20" viewBox="0 0 20 20" fill="none" xmlns="http://www.w3.org/2000/svg">
<path d="M18.4859 0.551746C18.3326 0.586269 18.1604 0.638847 17.9716 0.711798L17.9702 0.712337L1.60433 6.97932C1.6043 6.97933 1.60427 6.97934 1.60424 6.97935C0.836386 7.27401 0.5 7.66433 0.5 8.06984C0.5 8.36667 0.599056 8.53462 0.767917 8.67322C0.968945 8.83823 1.28394 8.97125 1.74097 9.11118L18.4859 0.551746ZM18.4859 0.551746C18.3749 0.585861 18.2667 0.646702 18.1685 0.737898L7.65454 10.4779L7.65453 10.4779L7.65212 10.4802C7.47416 10.6473 7.35464 10.6939 7.24945 10.7075C7.12336 10.7238 6.94692 10.702 6.6341 10.6037L6.63411 10.6037L6.63007 10.6025L1.74145 9.11133L18.4859 0.551746ZM19.2788 2.01895L19.2781 2.02066L13.0493 18.3195C13.0492 18.3197 13.0491 18.32 13.049 18.3202C12.7147 19.1872 12.3233 19.5 11.9207 19.5C11.6278 19.5 11.4588 19.3988 11.3158 19.2168C11.1464 19.0012 11.0119 18.666 10.8714 18.1883L10.8714 18.1883L10.8702 18.1843L9.41709 13.391C9.41703 13.3908 9.41696 13.3906 9.41689 13.3903C9.32672 13.0896 9.30873 12.9015 9.32825 12.7635C9.34562 12.6407 9.3987 12.5149 9.54449 12.351L19.2631 1.82097C19.2631 1.82096 19.2631 1.82095 19.2631 1.82094C19.3433 1.73404 19.4053 1.62727 19.4425 1.5118C19.4061 1.66108 19.352 1.82933 19.2788 2.01895ZM19.5 1.09486C19.5 1.16759 19.4931 1.24731 19.4789 1.33469C19.4983 1.12082 19.431 0.897175 19.2415 0.724886C19.0825 0.580391 18.8679 0.503381 18.6504 0.52041C18.7406 0.506593 18.8225 0.5 18.8957 0.5C19.1301 0.5 19.2702 0.571188 19.3502 0.650777C19.43 0.730091 19.5 0.867083 19.5 1.09486Z" stroke="#A5A6F6"/>
</svg>
