<svg width="384" height="286" viewBox="0 0 384 286" fill="none" xmlns="http://www.w3.org/2000/svg">
<g clip-path="url(#clip0_1270_12901)">
<g clip-path="url(#clip1_1270_12901)">
<path d="M219.857 136.852L231.073 146.983C231.073 146.983 220.597 158.708 206.525 164.507C194.631 169.414 195.057 144.956 195.057 144.956L200.762 136.445L219.857 136.852Z" fill="#CCCFE2"/>
<path d="M131.448 134.341L112.435 153.126C112.435 153.126 125.96 164.291 139.931 168.34L145.113 139.747L131.448 134.341Z" fill="#CCCFE2"/>
<path d="M206.53 164.507C206.53 164.507 186.39 173.683 168.122 171.968L173.576 133.383L196.048 125.505C196.048 125.505 221.671 122.448 224.628 100.539C227.584 78.6307 209.036 70.5468 209.036 70.5468L227.245 52.855C227.245 52.855 251.208 74.457 247.008 101.421C243.069 126.703 222.073 139.828 202.431 145.061L206.53 164.507Z" fill="#D1D4E6"/>
<path d="M128.733 55.0256L144.9 74.8738C144.9 74.8738 131.293 84.0359 135.159 102.403C137.855 115.207 149.952 120.119 149.952 120.119L174.757 127.801L168.123 171.973C168.123 171.973 150.088 172.188 139.931 168.345L144.474 142.272C144.474 142.272 114.845 136.761 109.043 106.457C102.743 73.58 128.733 55.0256 128.733 55.0256Z" fill="#D1D4E6"/>
<path d="M166.689 128.16L160.631 171.958C160.631 171.958 174.359 173.612 185.862 171.067L182.895 129.176L166.689 128.16Z" fill="#E5E4EF"/>
<path d="M128.733 55.0256C128.733 55.0256 128.917 63.1144 133.219 68.2705C137.521 73.4266 142.544 76.5318 144.9 74.869C147.257 73.2062 140.908 65.5104 138.368 62.0937C135.832 58.6819 130.949 53.1807 128.733 55.0256Z" fill="#CCCFE2"/>
<path d="M227.246 52.8502C229.385 55.2222 226.82 59.9039 221.667 64.461C216.513 69.0181 211.853 72.4779 209.037 70.542C206.216 68.606 213.944 59.741 214.747 58.9934C215.55 58.2459 223.665 48.8777 227.246 52.8502Z" fill="#CCCFE2"/>
<path d="M220.015 51.0723C219.653 48.0917 220.727 43.5442 220.969 40.185C221.09 38.4743 220.678 36.4713 220.088 34.9523C219.406 36.8738 218.617 38.7618 217.794 40.5588C217.431 42.2072 216.657 44.4115 216.657 44.4115L216.551 43.18C214.814 46.7164 213.125 49.7641 212.22 51.8534C210.487 55.8451 213.333 59.8942 216.077 64.2932C217.702 64.7053 219.125 65.266 220.127 66.0327C220.127 66.0327 224.835 62.5537 226.887 58.3273C226.882 58.3321 220.378 54.0577 220.015 51.0723Z" fill="#EFEEF4"/>
<path fill-rule="evenodd" clip-rule="evenodd" d="M142.55 28.397C142.366 28.0424 141.882 28.0328 141.674 28.373C141.49 28.6749 141.263 29.0822 141.011 29.5662L141.015 29.5717C140.458 30.6498 139.795 32.1398 139.287 33.946C138.346 37.2796 138.62 41.453 138.699 42.6541L138.699 42.6542C138.709 42.817 138.716 42.9251 138.716 42.9692C138.566 42.2079 138.404 41.6719 138.262 41.2007L138.262 41.2007C138.005 40.3519 137.812 39.713 137.865 38.345C137.957 35.9778 137.153 32.6042 136.558 32.9684C135.963 33.3326 135.136 37.4872 135.136 39.9311C135.136 40.9597 135.557 42.2371 136.037 43.6903C136.697 45.6897 137.467 48.022 137.4 50.4973C137.279 54.7717 129.566 60.522 129.566 60.522C130.819 66.7227 134.371 69.5068 134.371 69.5068C136.316 67.2019 140.347 63.7517 144.668 60.9341C144.668 60.9334 144.667 60.9328 144.667 60.9321C149.05 58.0723 153.737 55.8644 156.843 56.171C159.544 56.4394 161.915 56.861 163.12 57.0958C163.623 57.1965 164.053 56.7365 163.962 56.2141C163.499 53.6233 159.49 52.7901 156.452 52.1585C156.22 52.1102 155.993 52.063 155.774 52.0164C152.333 51.2832 151.496 49.0694 150.427 45.279C149.62 42.4241 150.556 39.6591 151.471 36.9532C151.77 36.0711 152.066 35.1953 152.3 34.3246C152.929 31.9862 151.966 31.1284 151.24 30.8169C150.877 30.6636 150.461 30.8361 150.286 31.1955L148.661 34.5498C146.168 39.313 146.759 43.6737 146.759 43.6737C145.994 40.535 146.478 37.7509 147.78 33.601C148.709 30.6444 148.128 29.0631 147.717 28.4018C147.577 28.1766 147.267 28.1287 147.073 28.306C145.293 29.9017 144.151 32.1299 143.42 34.3678C143.421 34.3709 143.422 34.374 143.423 34.3771C142.026 38.6644 142.138 42.9835 142.138 42.9835C141.663 41.0284 141.896 37.0847 142.965 33.5435C142.98 33.4946 142.992 33.4477 143.003 33.4014C143.01 33.3752 143.016 33.3491 143.023 33.323L143.02 33.3154C143.638 31.0406 143.029 29.3023 142.55 28.397Z" fill="#EFEEF4"/>
<path d="M212.216 51.8583C213.125 49.769 214.814 46.7261 216.547 43.1849L216.121 38.2157C216.135 37.8659 216.097 37.5161 216.019 37.171C215.719 35.8724 214.897 32.4989 213.987 30.6157C213.827 30.2803 213.425 30.1221 213.101 30.285C211.301 31.1907 212.704 35.3884 212.758 37.2046C212.816 39.1693 212.816 44.3637 212.816 44.3637C212.816 44.3637 211.451 38.0384 211.185 36.9506C210.682 34.9092 209.119 32.6043 207.967 30.9415C207.706 30.563 207.149 30.539 206.883 30.9128C205.475 32.8823 208.19 38.0575 208.19 39.2795C208.19 40.6452 208.528 46.1511 208.528 46.1511C208.528 46.1511 205.857 37.0321 202.741 32.5229C202.47 32.1347 201.913 32.0916 201.609 32.4558C200.578 33.6825 200.781 36.1983 201.357 38.0384C202.446 41.5173 205.296 46.2086 206.191 50.5884C206.912 54.1153 206.346 59.3816 202.722 59.1372C199.097 58.8928 193.469 58.8401 193.106 60.7042C195.41 61.5859 197.365 63.4643 201.163 63.3062C203.467 63.2104 210.827 62.9755 216.068 64.3029C213.329 59.8991 210.483 55.8452 212.216 51.8583Z" fill="#FBBB9D"/>
<path d="M212.216 51.8583C213.125 49.769 214.814 46.7261 216.547 43.1849L216.121 38.2157C216.135 37.8659 216.097 37.5161 216.019 37.171C215.719 35.8724 214.897 32.4989 213.987 30.6157C213.827 30.2803 213.425 30.1221 213.101 30.285C211.301 31.1907 212.704 35.3884 212.758 37.2046C212.816 39.1693 212.816 44.3637 212.816 44.3637C212.816 44.3637 211.451 38.0384 211.185 36.9506C210.682 34.9092 209.119 32.6043 207.967 30.9415C207.706 30.563 207.149 30.539 206.883 30.9128C205.475 32.8823 208.19 38.0575 208.19 39.2795C208.19 40.6452 208.528 46.1511 208.528 46.1511C208.528 46.1511 205.857 37.0321 202.741 32.5229C202.47 32.1347 201.913 32.0916 201.609 32.4558C200.578 33.6825 200.781 36.1983 201.357 38.0384C202.446 41.5173 205.296 46.2086 206.191 50.5884C206.912 54.1153 206.346 59.3816 202.722 59.1372C199.097 58.8928 193.469 58.8401 193.106 60.7042C195.41 61.5859 197.365 63.4643 201.163 63.3062C203.467 63.2104 210.827 62.9755 216.068 64.3029C213.329 59.8991 210.483 55.8452 212.216 51.8583Z" fill="#EFEEF4"/>
<path d="M218.192 32.6088C216.982 32.858 218.119 38.316 217.95 39.6913C217.921 39.9501 217.863 40.2472 217.79 40.5634C218.613 38.7665 219.402 36.8784 220.084 34.9569C219.518 33.5001 218.782 32.4842 218.192 32.6088Z" fill="#FBBB9D"/>
<path d="M218.192 32.6088C216.982 32.858 218.119 38.316 217.95 39.6913C217.921 39.9501 217.863 40.2472 217.79 40.5634C218.613 38.7665 219.402 36.8784 220.084 34.9569C219.518 33.5001 218.782 32.4842 218.192 32.6088Z" fill="#EFEEF4"/>
<path d="M164.842 125.41C164.842 125.41 151.419 112.452 147.635 107.382C152.793 108.092 155.14 108.738 159.805 106.098C164.697 103.328 167.451 102.164 172.14 104.133C176.829 106.098 183.085 111.288 187.774 110.032C192.463 108.777 195.28 102.959 197.017 108.144C198.154 111.542 199.969 112.989 203.782 113.904C199.132 117.963 184.474 127.202 184.474 127.202L164.842 125.41Z" fill="#DCDBE8"/>
<path d="M195.085 88.1953C195.085 88.1953 198.361 94.88 195.395 98.6369C195.395 98.6369 196.6 110.962 189.409 110.943C182.218 110.923 188.775 87.558 188.775 87.558L195.085 88.1953Z" fill="#CCCFE2"/>
<path d="M164.348 94.6934C164.348 94.6934 158.503 98.8048 159.5 107.315C160.496 115.826 166.071 119.573 166.071 119.573L166.855 112.04L166.545 97.7027L164.348 94.6934Z" fill="#CCCFE2"/>
<path d="M167.866 87.4097C167.866 87.4097 167.779 92.192 166.439 97.7075C165.099 103.223 163.313 116.094 174.835 117.196C186.356 118.298 188.679 114.163 189.303 110.943C189.928 107.723 191.447 100.372 191.984 97.7938C192.521 95.2157 194.394 84.7406 184.663 83.5426C174.931 82.3446 167.866 87.4097 167.866 87.4097Z" fill="#EFEEF4"/>
<path d="M166.903 111.129C166.903 111.129 165.921 122.16 165.834 123.449C165.747 124.738 165.476 133.1 174.854 133.378C184.232 133.656 186.196 124.183 186.196 124.183L188.161 113.612L166.903 111.129Z" fill="#EFEEF4"/>
<path d="M166.854 112.04C166.854 112.04 169.419 116.827 176.755 117.316C184.342 117.819 188.063 114.048 188.063 114.048C188.063 114.048 184.366 121.514 176.459 121.078C170.517 120.752 166.912 114.954 166.854 112.04Z" fill="#E5E4EF"/>
<path d="M176.663 99.4325C175.956 100.084 175.047 100.559 174.606 101.421C174.132 102.346 174.355 103.549 174.998 104.359C175.647 105.168 176.648 105.609 177.66 105.729C177.297 105.121 176.929 104.512 176.692 103.841C176.455 103.17 176.363 102.427 176.552 101.742C176.75 101.033 177.229 100.448 177.582 99.8063C177.737 99.5283 178.56 97.7553 178.061 97.6403C177.892 97.602 176.91 99.2025 176.663 99.4325Z" fill="#E5E4EF"/>
<path d="M165.94 83.2166C165.94 83.2166 160.322 93.5479 165.829 100.87L167.624 92.6566C167.624 92.6566 176.272 88.4829 178.323 84.5008C182.306 76.7714 165.94 83.2166 165.94 83.2166Z" fill="#CCCFE2"/>
<path d="M175.265 83.9594C175.265 83.9594 180.113 93.3515 192.177 96.2171L195.274 91.0418L195.729 86.2882L175.265 83.9594Z" fill="#CCCFE2"/>
<path d="M156.998 117.623C156.998 117.623 164.75 127.686 169.609 131.912C169.609 131.912 171.418 133.067 173.664 133.422C173.664 133.422 167.194 126.229 166.071 119.568C160.206 112.126 156.998 117.623 156.998 117.623Z" fill="#CCCFE2"/>
<path d="M193.163 94.976L190.507 105.451C187.599 102.523 187.352 92.3357 187.352 92.3357L193.163 94.976Z" fill="#CCCFE2"/>
<path d="M185.688 126.258C185.688 126.052 187.628 116.741 187.628 116.741L192.787 113.502L193.053 116.88L199.145 115.639L185.688 126.258Z" fill="#4458E2"/>
<path d="M173.571 133.383C173.571 133.383 169.414 140.03 162.127 137.686C154.844 135.343 149.899 120.162 149.899 120.162L146.797 118.471C146.797 118.471 155.071 114.259 159.852 118.356C164.633 122.458 173.571 133.383 173.571 133.383Z" fill="#EFEEF4"/>
<path d="M193.846 108.024C193.846 108.024 195.932 120.603 186.694 121.576L188.064 114.048L190.575 105.437L193.846 108.024Z" fill="#CCCFE2"/>
<path d="M147.635 107.382C151.366 115.059 173.572 133.383 173.572 133.383L158.334 113.315C157.516 112.241 156.466 111.384 155.256 110.818C153.664 110.071 151.075 108.882 147.635 107.382Z" fill="#E8EAF9"/>
<path d="M173.572 133.383C173.668 133.033 188.181 119.031 193.174 114.22C194.278 113.156 195.773 112.629 197.278 112.778C198.875 112.941 201.589 113.707 203.782 113.899C200.535 121.993 173.572 133.383 173.572 133.383Z" fill="#E8EAF9"/>
<path d="M173.721 133.383C173.721 133.383 174.113 140.384 180.718 139.21C187.318 138.036 196.183 125.778 196.183 125.778L204.415 123.555C204.415 123.555 199.619 117.301 191.804 122.664C187.599 125.548 182.765 131.361 182.765 131.361C182.765 131.361 180.123 133.393 173.721 133.383Z" fill="#CCCFE2"/>
<path d="M173.572 133.383C173.572 133.383 182.485 136.833 193.934 121.37C193.934 121.37 179.199 131.121 173.572 133.383Z" fill="#CCCFE2"/>
<path d="M172.546 96.2936C171.834 96.2936 171.229 95.8239 170.997 95.1722C170.808 95.4502 170.702 95.7808 170.702 96.145C170.702 97.0842 171.442 97.8461 172.357 97.8461C173.271 97.8461 174.012 97.0842 174.012 96.145C174.012 95.9389 173.973 95.7425 173.905 95.5604C173.605 96.0012 173.112 96.2936 172.546 96.2936Z" fill="white"/>
<path d="M172.545 96.2937C173.107 96.2937 173.605 96.0014 173.9 95.5605C173.668 94.9088 173.068 94.4392 172.352 94.4392C171.79 94.4392 171.292 94.7315 170.997 95.1724C171.234 95.8289 171.834 96.2937 172.545 96.2937Z" fill="#CCCFE2"/>
<path d="M181.996 96.289C181.284 96.3081 180.67 95.8577 180.418 95.2156C180.239 95.4983 180.138 95.8337 180.147 96.1931C180.171 97.1323 180.931 97.8751 181.846 97.8463C182.76 97.8224 183.476 97.0365 183.452 96.0973C183.447 95.8912 183.399 95.6996 183.331 95.5175C183.041 95.9679 182.557 96.2746 181.996 96.289Z" fill="white"/>
<path d="M181.997 96.2891C182.558 96.2747 183.047 95.968 183.332 95.5176C183.081 94.8707 182.466 94.425 181.755 94.4442C181.193 94.4586 180.705 94.7653 180.419 95.2157C180.666 95.8578 181.281 96.3083 181.997 96.2891Z" fill="#CCCFE2"/>
<path d="M170.164 93.1885C169.965 93.3131 169.447 93.9408 170.018 93.9839C170.594 94.0271 174.678 94.4871 174.678 93.6773C174.678 92.7812 172.138 91.9665 170.164 93.1885Z" fill="#CCCFE2"/>
<path d="M179.107 93.8834C179.233 94.6262 184.077 94.3818 184.097 93.9841C184.116 93.5911 183.114 92.5896 181.629 92.5896C180.143 92.5896 179.035 93.4617 179.107 93.8834Z" fill="#CCCFE2"/>
<path d="M172.356 99.0393C174.141 99.0393 175.588 97.6062 175.588 95.8383C175.588 94.0705 174.141 92.6373 172.356 92.6373C170.57 92.6373 169.123 94.0705 169.123 95.8383C169.123 97.6062 170.57 99.0393 172.356 99.0393Z" stroke="#DBDAE7" stroke-miterlimit="10"/>
<path d="M181.556 99.0393C183.341 99.0393 184.788 97.6062 184.788 95.8383C184.788 94.0705 183.341 92.6373 181.556 92.6373C179.771 92.6373 178.323 94.0705 178.323 95.8383C178.323 97.6062 179.771 99.0393 181.556 99.0393Z" stroke="#DBDAE7" stroke-miterlimit="10"/>
<path d="M175.159 94.5209C175.261 94.4155 178.658 94.5928 178.658 94.5928" stroke="#DBDAE7" stroke-miterlimit="10"/>
<path d="M184.701 95.2539C184.836 95.2539 188.301 95.2539 188.301 95.2539" stroke="#DBDAE7" stroke-miterlimit="10"/>
<path d="M169.487 94.5591H166.061" stroke="#DBDAE7" stroke-miterlimit="10"/>
<path d="M216.072 64.298L218.197 67.5326C218.197 67.5326 210.909 72.727 208.789 70.1298C206.67 67.5326 211.141 63.4642 211.141 63.4642L216.072 64.298Z" fill="#CCCFE2"/>
<path d="M168.393 129.023L173.571 133.383L180.684 129.938C180.684 129.938 174.984 135.937 173.082 135.937C171.18 135.937 168.393 129.023 168.393 129.023Z" fill="#DCDBE8"/>
<path d="M181.231 107.656C181.101 107.521 180.927 107.454 180.743 107.416C180.81 107.579 180.83 107.766 180.806 107.943C180.719 108.504 180.298 108.969 179.799 109.222C179.301 109.476 178.739 109.544 178.188 109.572C177.297 109.615 176.407 109.563 175.531 109.409C175.076 109.328 174.621 109.222 174.215 108.997C173.808 108.772 173.455 108.417 173.305 107.972C173.184 107.598 173.194 107.243 173.31 106.942C173.058 107.028 172.841 107.167 172.7 107.378C171.563 109.04 174.191 111.019 176.475 111.202C178.265 111.345 180.186 110.976 181.236 109.232C181.512 108.753 181.614 108.044 181.231 107.656Z" fill="#DCDBE8"/>
<path d="M173.304 107.962C173.454 108.413 173.808 108.767 174.214 108.988C174.62 109.208 175.075 109.318 175.53 109.4C176.406 109.553 177.301 109.611 178.187 109.563C178.738 109.534 179.305 109.467 179.798 109.213C180.297 108.959 180.718 108.499 180.805 107.933C180.829 107.756 180.81 107.569 180.742 107.406C180.664 107.387 180.582 107.378 180.505 107.368C179.295 107.248 178.076 107.718 176.871 107.531C176.096 107.411 175.385 107.018 174.616 106.87C174.248 106.798 173.735 106.783 173.309 106.927C173.193 107.234 173.178 107.588 173.304 107.962Z" fill="white"/>
<path d="M132.663 28.9769L132.716 29.0101C132.721 29.0101 132.696 28.9721 132.663 28.9769Z" fill="#FFB89C"/>
<path d="M165.877 83.3036C166.385 81.7702 180.864 55.4194 184.769 55.6255C188.674 55.8315 195.714 86.3369 195.714 86.3369L165.877 83.3036Z" fill="#E8EAF9"/>
<path d="M168.936 77.514C168.936 77.514 175.072 77.4901 175.013 76.8863C174.955 76.2825 171.713 72.6406 171.713 72.6406C171.713 72.6406 170.121 75.2858 168.936 77.514Z" fill="#DCDBE8"/>
<path d="M180.984 71.0977C180.984 70.9588 181.076 66.8713 181.705 66.6412C182.339 66.4112 184.638 69.7512 184.638 69.7512C184.638 69.7512 188.654 68.3567 189.467 68.9605C190.28 69.5643 186.714 73.048 186.849 73.048C186.985 73.048 189.419 75.6501 189.196 76.158C188.969 76.6707 184.459 75.2763 184.459 75.2763C184.459 75.2763 182.61 79.5028 181.797 79.1769C180.984 78.8511 180.984 74.8594 180.984 74.8594C180.984 74.8594 177.104 73.8818 177.016 73.1391C176.924 72.3963 180.984 71.0977 180.984 71.0977Z" fill="#DCDBE8"/>
<path d="M185.025 85.2531C185.025 85.2531 187.256 81.2662 187.841 81.1272C188.427 80.9883 190.053 85.7706 190.053 85.7706L185.025 85.2531Z" fill="#DCDBE8"/>
<path d="M167.107 80.8064C167.107 80.8064 168.074 81.9373 168.2 82.2871C168.2 82.2871 172.439 80.8926 172.821 81.3048C173.204 81.7216 171.805 83.9211 171.805 83.9211L165.882 83.2934C165.878 83.2934 166.69 81.3287 167.107 80.8064Z" fill="#DCDBE8"/>
<path d="M182.15 57.3977C182.15 57.3977 184.628 59.118 185.151 58.9407C185.673 58.7634 184.996 55.6678 184.996 55.6678C184.996 55.6678 184.168 55.1503 182.15 57.3977Z" fill="#DCDBE8"/>
<path d="M176.577 87.74L175.57 89.8964L176.746 89.628L176.001 91.9329L177.404 89.2159H176.204L176.862 87.7735L176.577 87.74Z" fill="#CCCFE2"/>
<path d="M179.019 43.4944C179.019 43.4944 162.616 37.8591 166.571 25.3034C166.571 25.3034 169.396 32.1514 172.503 30.7273C175.609 29.3032 168.262 16.7419 177.025 5.32654C177.025 5.32654 176.788 21.871 180.913 21.3703C185.039 20.8696 181.552 10.1608 181.552 10.1608C181.552 10.1608 194.358 22.0879 189.875 30.566C185.391 39.044 179.222 43.5 179.222 43.5" fill="#FF6F43"/>
</g>
</g>
<g clip-path="url(#clip2_1270_12901)">
<path d="M64.1844 137.485C64.1844 137.485 27.6426 216.148 -12.4524 243.653L31.9216 285.692C31.9216 285.692 77.0756 226.363 78.1436 181.738" fill="#E8EAF9"/>
<path d="M152.308 210.218C152.308 210.218 150.313 223.875 150.477 225.287C150.642 226.698 172.421 300.503 172.421 300.503C172.421 300.503 48.6619 319.971 49.3846 318.743C50.0965 317.514 62.4772 226.601 62.4772 226.601L152.308 210.218Z" fill="#E8EAF9"/>
<path d="M78.8549 263.115L82.1641 291.788L118.692 295.74L108.438 251.145C108.441 251.134 81.3303 262.306 78.8549 263.115Z" fill="white"/>
<path d="M-12.4524 243.653C-12.4524 243.653 -0.721544 234.39 2.39245 231.415L43.5502 268.856L32.2044 285.995L-12.4524 243.653Z" fill="#CCCFE2"/>
<path d="M-10.5165 289.866L-9.63857 288.804C-10.0137 288.893 -9.1607 288.382 -9.04916 288.005C-8.7127 286.92 -8.37622 285.834 -8.02906 284.751C-7.54202 283.209 -7.06346 281.653 -6.2605 280.254C-5.46824 278.852 -4.31511 277.592 -2.84257 276.942C-1.97106 276.556 -0.942809 276.436 -0.0846588 276.814C0.406108 276.382 0.9308 276.003 1.52114 275.736C2.46561 275.321 3.59888 275.178 4.49689 275.687C5.44613 276.217 4.70227 290.023 -2.71237 289.274C-4.88864 290.522 -8.03972 290.88 -10.5165 289.866Z" fill="#E5E4EF"/>
<path d="M-93.7942 327.288C-93.0078 326.829 135.761 177.212 171.989 153.304C175.464 151.004 180.174 152.058 182.345 155.617C184.415 159.023 183.386 163.452 180.02 165.597L-86.4512 335.696L-93.7942 327.288Z" fill="#DCDBE8"/>
<path d="M39.1921 233.358C39.0905 233.525 33.0326 237.956 27.3144 242.146C26.1445 243.003 25.1468 244.051 24.3409 245.25C22.863 247.431 21.6864 250.042 21.0688 252.268C30.0703 247.781 33.0181 245.716 33.0181 245.716L39.1921 233.358Z" fill="#E5E4EF"/>
<path d="M66.8639 233.353C65.1417 231.496 57.0923 223.43 54.2367 220.373C51.8952 222.364 49.4816 223.896 47.0701 225.795C37.1358 233.598 32.8849 240.013 26.5181 251.365C24.3446 255.235 19.5762 268.395 19.3003 270.748C21.8733 274.147 28.359 267.384 29.7196 263.779C31.0561 260.236 33.7551 252.11 34.8532 250.417C32.9384 253.307 26.099 266.294 30.9775 266.961C34.0787 267.382 36.8084 263.572 37.7516 260.635C37.491 261.57 43.6476 265.967 46.6104 258.773C45.7287 260.445 50.3458 262.857 55.1801 255.563C58.6664 249.556 64.2606 236.822 66.8639 233.353Z" fill="#EFEEF4"/>
<path d="M136.52 203.88L52.3316 215.58L56.6554 269.474C56.6554 269.474 144.681 241.955 162.273 213.294C179.864 184.634 140.622 148.545 118.15 140.355C100.787 134.034 88.9638 134.115 86.6136 134.428L64.1866 137.475C64.1866 137.475 71.0359 218.713 71.8162 218.875" fill="#E8EAF9"/>
<path d="M-4.80033 250.892C-6.68787 253.544 -11.8881 259.107 -13.2566 260.923C-15.426 263.805 -18.437 266.39 -19.704 269.759L-25.0512 282.378C-25.0512 282.378 -12.8751 275.162 -8.39223 272.36C-6.69672 273.699 -6.22253 279.317 -10.8819 283.294C-14.6869 286.536 -17.003 292.331 -15.1042 293.336C-13.4464 295.234 -10.2097 290.108 -5.17822 286.864C2.74317 277.478 5.46339 269.035 6.98225 262.031C4.7962 259.723 -0.360964 255.022 -4.80033 250.892Z" fill="#EFEEF4"/>
<path d="M64.3868 138.982L74.9603 206.988L100.215 196.753L86.6113 134.438L64.3868 138.982Z" fill="white"/>
<path d="M37.5499 94.6813C36.6423 100.135 36.7081 105.679 36.3888 111.199C35.8756 119.967 43.3437 136.752 64.6055 130.398C70.6191 128.602 68.9199 124.429 71.6312 118.772C74.3403 113.125 75.1746 106.735 75.0577 100.469C75.0138 98.2608 74.8607 96.0413 74.2168 93.9309C73.319 91.0016 71.4966 88.3915 69.2256 86.3325C63.6341 81.253 55.0991 79.6169 48.0797 82.3931C41.0603 85.1693 38.7782 87.2506 37.5499 94.6813Z" fill="#EFEEF4"/>
<path d="M59.7499 128.492C59.7499 128.492 62.2345 136.082 65.3909 145.11C66.0911 147.11 75.1568 150.489 81.8468 143.924C86.8136 139.056 86.6007 134.436 86.6007 134.436C86.6007 134.436 73.6462 114.592 73.3786 110.505C73.1132 106.407 65.4962 102.441 65.4962 102.441L59.7499 128.492Z" fill="#EFEEF4"/>
<path d="M60.583 131.464C60.583 131.464 68.957 129.09 72.5793 125.277C79.5653 117.929 80.1674 109.647 80.1674 109.647L85.8045 122.465C85.8045 122.465 81.9735 126.103 76.5597 129.201C69.5843 133.163 60.583 131.464 60.583 131.464Z" fill="#E5E4EF"/>
<path d="M53.0934 87.7859C53.0934 87.7859 56.1844 97.6669 65.5134 100.367C65.5134 100.367 67.1747 116.016 77.4223 120.361L83.3856 129.294C83.3856 129.294 97.6071 124.634 97.4348 110.139C97.2144 92.057 80.4877 91.377 80.4877 91.377C80.4877 91.377 71.2801 74.8083 51.5958 79.468C32.8719 83.9048 37.4023 95.0171 37.4023 95.0171L53.0934 87.7859Z" fill="#CCCFE2"/>
<path d="M47.948 107.821C47.1383 108.93 46.0982 109.914 45.5679 111.181C44.9051 112.765 45.1926 114.713 46.2781 116.037C47.3721 117.375 49.2174 118.046 50.9127 117.72C49.1437 117.164 47.9054 115.286 48.0967 113.449C48.19 112.569 48.5635 111.735 48.8812 110.902C49.2947 109.821 49.5995 108.674 49.6838 107.514C49.715 106.988 49.7878 104.593 49.026 104.557C48.834 105.805 48.7275 106.749 47.948 107.821Z" fill="#DCDBE8"/>
<path d="M60.0891 116.046C60.0891 116.046 58.922 121.568 51.6009 121.605L60.0891 116.046Z" fill="#DCDBE8"/>
<path d="M59.7867 98.0916C60.311 98.4668 60.0489 99.301 59.4043 99.345C57.3827 99.4702 51.6849 99.7438 51.6657 98.707C51.6372 97.4461 52.7851 97.0177 55.287 97.1032C56.9584 97.161 58.913 97.4662 59.7867 98.0916Z" fill="#DCDBE8"/>
<path d="M44.2769 99.2855C42.7628 99.3825 37.8802 99.7031 38.3824 98.1413C38.8845 96.5795 45.871 96.6507 45.9943 98.1533C46.0458 98.8192 44.7866 99.2468 44.2769 99.2855Z" fill="#DCDBE8"/>
<path d="M45.0356 104.929C45.327 103.523 44.4194 102.147 43.0085 101.855C41.7044 101.584 40.4453 102.334 40.0245 103.557C40.4859 103.375 40.9978 103.326 41.5108 103.432C42.9218 103.725 43.8293 105.101 43.538 106.507C43.5159 106.613 43.4724 106.715 43.4397 106.819C44.2294 106.506 44.8524 105.813 45.0356 104.929Z" fill="white"/>
<path d="M41.513 103.421C41 103.315 40.4858 103.375 40.0267 103.546C39.9939 103.651 39.9504 103.753 39.9284 103.859C39.637 105.265 40.5445 106.641 41.9555 106.934C42.4686 107.04 42.9827 106.98 43.4419 106.809C43.4746 106.704 43.5181 106.602 43.5401 106.496C43.8315 105.09 42.924 103.714 41.513 103.421Z" fill="#DCDBE8"/>
<path d="M58.2549 105.426C58.5463 104.021 57.6388 102.644 56.2278 102.352C54.9237 102.081 53.6647 102.831 53.2438 104.054C53.7052 103.872 54.2171 103.823 54.7302 103.929C56.1411 104.222 57.0487 105.598 56.7573 107.004C56.7352 107.11 56.6918 107.212 56.659 107.316C57.4487 107.003 58.0717 106.31 58.2549 105.426Z" fill="white"/>
<path d="M54.7324 103.919C54.2193 103.812 53.7052 103.872 53.246 104.044C53.2133 104.148 53.1698 104.25 53.1477 104.356C52.8563 105.762 53.7639 107.138 55.1748 107.431C55.6879 107.537 56.202 107.477 56.6612 107.306C56.694 107.202 56.7374 107.1 56.7595 106.993C57.0509 105.588 56.1434 104.211 54.7324 103.919Z" fill="#DCDBE8"/>
<path d="M110.946 164.027C111.737 164.191 127.195 184.166 127.195 184.166L110.875 192.333L110.946 164.027Z" fill="#CCCFE2"/>
<path d="M150.477 225.287C150.477 225.287 119.951 246.968 108.438 251.145L111.872 266.039C111.875 266.028 143.655 244.696 150.477 225.287Z" fill="#CCCFE2"/>
<path d="M51.6898 222.333L70.519 210.666L74.8401 264.304L56.666 269.476L51.6898 222.333Z" fill="#CCCFE2"/>
</g>
<g clip-path="url(#clip3_1270_12901)">
<g clip-path="url(#clip4_1270_12901)">
<path d="M229.358 155.603C214.721 192.882 199.952 230.627 194.874 270.349C194.785 270.971 194.741 271.703 195.206 272.125C195.672 272.547 196.67 272.081 196.382 271.526" stroke="#C9C9C9" stroke-miterlimit="10"/>
<path d="M194.875 272.169C192.968 277.898 199.044 284.581 204.921 283.182" stroke="#C9C9C9" stroke-miterlimit="10"/>
<path d="M223.195 229.894C218.982 240.552 216.21 251.764 214.946 263.132C251.049 263.91 287.174 264.687 323.276 265.464C328.222 248.678 333.145 231.892 338.09 215.129C338.667 213.153 338.001 209.889 336.094 210.644" stroke="#C9C9C9" stroke-miterlimit="10"/>
<path d="M271.782 113.971C266.371 118.678 261.514 124.029 257.345 129.869C260.095 129.336 259.03 129.736 261.337 128.159C246.722 131.157 232.441 135.686 218.758 141.636" stroke="#C9C9C9" stroke-miterlimit="10"/>
<path d="M301.675 58.6631C302.096 62.9483 300.788 67.389 298.149 70.7639" stroke="#C9C9C9" stroke-miterlimit="10"/>
<path d="M320.303 60.1948C322.986 64.5023 321.589 70.8302 317.375 73.6278" stroke="#C9C9C9" stroke-miterlimit="10"/>
<path d="M300.855 31.73C297.905 43.8086 294.268 56.9529 284.156 64.1689C283.18 64.8572 282.072 65.5233 280.874 65.4123C279.677 65.3013 278.546 64.0801 278.989 62.97C281.717 65.6566 282.227 70.075 280.941 73.6719C279.654 77.2911 276.86 80.1775 273.778 82.4422C265.573 88.4815 254.706 90.7018 244.793 88.4149" stroke="#C9C9C9" stroke-miterlimit="10"/>
<path d="M284.377 139.86C289.611 141.592 294.867 143.324 300.1 145.034C301.032 145.345 302.007 145.678 302.606 146.455C303.205 147.232 303.116 148.586 302.229 148.964" stroke="#C9C9C9" stroke-miterlimit="10"/>
<path d="M284.799 91.1906C288.658 95.0761 295.111 96.0531 299.946 93.4553" stroke="#C9C9C9" stroke-miterlimit="10"/>
<path d="M308.129 72.8062C307.752 74.4936 309.105 76.0034 310.236 77.3134C311.367 78.6234 312.387 80.5329 311.412 81.9539C310.857 82.7532 309.837 83.0863 308.906 83.3305C306.422 83.9744 303.894 84.4407 301.366 84.7293" stroke="#C9C9C9" stroke-miterlimit="10"/>
<path d="M394.461 181.736C390.358 181.403 386.212 181.58 382.153 182.269C380.335 182.579 378.472 183.023 376.964 184.045C375.434 185.088 374.303 186.865 374.458 188.708C374.702 191.372 377.518 193.082 380.18 193.392C382.819 193.703 385.502 193.037 388.163 193.104C382.663 191.261 376.077 193.392 372.684 198.122C373.105 200.653 375.811 202.029 378.228 202.807C382.353 204.117 386.677 204.783 391.002 204.76C388.385 204.716 385.768 205.471 383.573 206.87C390.403 214.952 402.4 204.805 404.529 197.833C406.569 191.105 406.281 182.935 401.513 177.384C396.634 171.7 387.742 170.634 380.956 173.387C375.611 175.563 373.815 178.849 379.847 181.07C384.681 182.801 389.582 181.336 394.461 181.736Z" stroke="#C9C9C9" stroke-miterlimit="10"/>
<path d="M256.459 116.546C256.237 115.48 218.427 130.534 218.427 130.534L193.057 262.177L281.34 248.345L308.994 145.011L293.072 126.293L256.459 116.546Z" fill="#E8EAF9"/>
<path d="M323.698 65.1017C324.851 72.7618 325.228 80.5329 325.006 88.2819C324.74 98.2733 319.196 111.262 313.43 114.948C304.072 120.943 295.445 118.967 285.976 115.903C277.638 113.194 279.367 106.178 275.686 98.2067C272.005 90.2358 270.963 81.2656 271.251 72.4731C271.34 69.3869 271.606 66.2562 272.559 63.3254C273.868 59.24 276.462 55.6209 279.656 52.7788C287.55 45.7848 299.481 43.6533 309.216 47.6943C318.974 51.6909 322.101 54.6661 323.698 65.1017Z" fill="#EFEEF4"/>
<path d="M259.452 290.376C259.452 290.376 219.934 371.729 172.743 376.081C146.11 378.523 74.1035 359.228 53.8345 349.081L81.9095 304.231C81.9095 304.231 124.333 328.432 152.518 325.457C177.311 322.859 193.611 278.542 193.611 278.542L259.452 290.376Z" fill="#CCCFE2"/>
<path d="M300.122 116.591C300.122 116.591 292.383 129.757 287.06 141.347C285.818 144.034 271.914 145.655 260.981 133.221C254.55 125.916 254.528 119.833 254.528 119.833C254.528 119.833 272.956 92.2783 273.4 86.5498C273.843 80.8214 284.532 75.4038 284.532 75.4038L300.122 116.591Z" fill="#EFEEF4"/>
<path d="M298.747 118.967C298.747 118.967 287.681 116.147 282.337 111.062C271.781 101.026 270.051 89.7915 270.051 89.7915L263.731 105.822C263.731 105.822 269.009 110.996 276.504 115.436C286.151 121.165 298.747 118.967 298.747 118.967Z" fill="#E5E4EF"/>
<path d="M197.404 258.914C197.404 258.914 182.99 276.055 197.848 285.536C212.706 295.016 279.257 292.552 318.642 289.155C331.238 288.067 343.878 283.293 368.671 296.371C393.464 309.449 452.054 355.942 452.963 354.588C453.872 353.233 486.338 311.114 486.338 311.114L371.842 247.635C371.842 247.635 349.755 238.154 335.34 238.62C320.904 239.064 197.404 258.914 197.404 258.914Z" fill="#E5E4EF"/>
<path d="M304.159 53.5557C304.159 53.5557 297.639 68.9203 284.577 72.5173C284.577 72.5173 281.961 94.4097 267.591 100.294L259.053 112.594C259.053 112.594 239.338 105.867 239.848 85.5506C240.491 60.1945 263.821 59.595 263.821 59.595C263.821 59.595 280.963 36.2149 306.088 45.6957C331.214 55.1765 320.459 60.0834 320.459 60.0834L304.159 53.5557Z" fill="#DCDBE8"/>
<path d="M303.117 52.0905C303.117 52.0905 308.861 66.7224 323.918 68.0324C323.918 68.0324 331.813 38.3245 298.128 43.9641" fill="#DCDBE8"/>
<path d="M286.575 18.2753L286.685 18.3417C286.773 18.2311 286.575 18.2753 286.575 18.2753Z" fill="#B2ACAB"/>
<path d="M265.683 39.0795L258.387 61.1274L292.849 61.5492L294.778 24.7584L279.211 27.445C272.89 28.533 267.679 32.9958 265.683 39.0795Z" fill="#DCDBE8"/>
<path d="M324.807 61.9488L322.922 36.9035C322.589 32.374 319.529 28.5107 315.227 27.1341L305.846 24.1366C304.138 23.6037 302.342 23.4705 300.59 23.7814L284.557 26.5346L278.303 61.3493L324.807 61.9488Z" fill="#E8EAF9"/>
<path d="M258.387 61.1274L324.805 61.9489L339.907 57.1752C343.521 56.0206 343.388 50.8695 339.729 49.9147L316.511 43.8755C310.435 42.299 304.003 42.6987 298.171 45.0744L258.387 61.1274Z" fill="#CCCFE2"/>
<path d="M257.057 115.614C216.741 122.875 149.081 169.124 126.484 207.18C120.452 217.349 126.639 230.405 138.326 232.203C184.718 239.331 278.568 231.648 278.568 231.648L288.791 194.414L232.064 194.302C232.064 194.28 254.107 147.72 257.057 115.614Z" fill="#DCDBE8"/>
<path d="M246.235 158.022C245.925 159.599 190 286.5 190 286.5H128.014L170.06 201.941" fill="#DCDBE8"/>
<path d="M294.511 125.761C294.511 125.761 319.26 154.514 323.54 166.216C330.969 186.554 315.157 241.107 315.157 241.107L274.575 246.969L294.711 126.982L294.511 125.761Z" fill="#DCDBE8"/>
<path d="M299.79 29.5324C299.058 29.3992 296.84 29.4436 296.84 29.4436L296.774 35.4607L299.967 35.5717C299.967 35.5717 302.407 35.2609 302.584 32.7963C302.762 30.3318 300.522 29.6657 299.79 29.5324ZM299.723 33.6845L298.748 33.7511L298.77 31.3753C298.77 31.3753 299.324 31.3975 299.679 31.4641C300.034 31.5307 300.677 31.7972 300.655 32.6187C300.655 33.4402 299.723 33.6845 299.723 33.6845Z" fill="#CCCFE2"/>
<path d="M306.688 29.4657C304.892 29.4213 303.384 30.8423 303.339 32.663C303.295 34.4837 304.714 35.9713 306.533 36.0379C308.329 36.0823 309.837 34.6613 309.881 32.8406C309.926 31.02 308.484 29.5323 306.688 29.4657ZM306.488 33.973C305.801 33.9508 305.269 33.3957 305.291 32.7074C305.313 32.0191 305.867 31.4862 306.555 31.5084C307.242 31.5306 307.775 32.0857 307.752 32.774C307.73 33.4623 307.154 33.9952 306.488 33.973Z" fill="#CCCFE2"/>
<path d="M296.708 36.9484C296.708 36.9484 298.749 38.436 302.94 38.5026C307.153 38.5914 308.817 37.237 308.817 37.237L308.772 39.4351C308.772 39.4351 305.712 41.2336 302.696 41.0782C299.68 40.945 296.62 39.0355 296.62 39.0355L296.708 36.9484Z" fill="#CCCFE2"/>
<path d="M276.748 231.116L274.575 246.969L315.157 241.107L319.903 216.062L289.854 209.179L282.336 217.993L276.748 231.116Z" fill="#CCCFE2"/>
<path d="M308.948 83.3083C310.057 84.8847 311.498 86.2835 312.208 88.0597C313.095 90.3023 312.674 93.0111 311.121 94.8539C309.569 96.6968 306.974 97.6072 304.624 97.1187C307.085 96.3638 308.859 93.766 308.637 91.1904C308.527 89.947 308.017 88.7703 307.595 87.6157C307.041 86.0837 306.619 84.485 306.553 82.8642C306.509 82.1315 306.464 78.7566 307.529 78.7344C307.728 80.4662 307.861 81.7984 308.948 83.3083Z" fill="#E5E4EF"/>
<path d="M297.462 80.2444C297.462 79.001 298.171 77.9574 299.192 77.4245C298.726 77.1581 298.194 76.9805 297.617 76.9805C295.865 76.9805 294.446 78.4015 294.446 80.1555C294.446 81.9096 295.865 83.3306 297.617 83.3306C298.127 83.3306 298.615 83.1974 299.036 82.9754C298.105 82.4203 297.462 81.4211 297.462 80.2444Z" fill="white"/>
<path d="M300.788 80.1553C300.788 78.9785 300.145 77.9794 299.191 77.4243C298.171 77.9572 297.461 79.0007 297.461 80.2441C297.461 81.4209 298.105 82.42 299.058 82.9751C300.078 82.4423 300.788 81.3987 300.788 80.1553Z" fill="#3A282D"/>
<path d="M316.245 80.2445C316.245 79.0011 316.954 77.9575 317.975 77.4247C317.509 77.1582 316.977 76.9806 316.4 76.9806C314.648 76.9806 313.229 78.4016 313.229 80.1557C313.229 81.9097 314.648 83.3307 316.4 83.3307C316.91 83.3307 317.398 83.1975 317.819 82.9755C316.888 82.4204 316.245 81.4213 316.245 80.2445Z" fill="white"/>
<path d="M319.593 80.1558C319.593 78.979 318.949 77.9799 317.996 77.4248C316.976 77.9577 316.266 79.0012 316.266 80.2446C316.266 81.4214 316.909 82.4205 317.863 82.9756C318.883 82.4427 319.593 81.3992 319.593 80.1558Z" fill="#3A282D"/>
<path d="M291.85 94.5879C291.85 94.5879 293.38 102.359 303.581 102.559L291.85 94.5879Z" fill="#DCDBE8"/>
<path d="M346.271 151.139C342.257 169.613 330.015 224.344 325.225 245.792C324.205 250.366 327.554 254.718 332.233 254.94L403.529 258.048C407.277 258.204 410.559 255.584 411.247 251.876L428.455 157.068C429.276 152.583 425.949 148.408 421.403 148.209L353.943 145.211C350.284 145.078 347.047 147.565 346.271 151.139Z" fill="#DCDBE8"/>
<path d="M405.705 154.603L339.309 151.672C336.36 151.539 333.765 153.56 333.144 156.424C329.33 174.053 316.046 233.447 311.478 253.985C310.657 257.648 313.363 261.179 317.111 261.334L391.445 264.576L359.312 203.539L405.705 154.603Z" fill="#E8EAF9"/>
<path d="M397.631 259.602L415.372 161.886C416.038 158.289 413.354 154.936 409.695 154.758L405.726 154.581L359.311 203.517L391.444 264.554C394.438 264.709 397.077 262.577 397.631 259.602Z" fill="#CCCFE2"/>
<path d="M288.658 194.658L282.161 218.216L294.047 218.282L298.394 194.125C293.581 194.391 288.658 194.658 288.658 194.658Z" fill="#EFEEF4"/>
<path d="M337.535 220.081L351.395 218.038C352.06 217.949 352.726 217.771 353.369 217.549C355.431 216.839 360.332 215.129 363.392 214.019C364.235 213.708 364.435 212.554 363.703 212.021C360.465 209.734 352.726 211.71 350.175 212.11C349.754 212.176 339.331 213.02 339.331 213.02L354.766 209.134C354.766 209.134 366.785 205.582 371.11 202.207C371.819 201.652 371.62 200.497 370.755 200.275C364.324 198.632 355.586 202.229 355.586 202.229L340.152 205.315C340.152 205.315 364.923 198.677 372.219 193.392C372.995 192.815 372.906 191.594 372.019 191.194C368.648 189.618 361.574 191.594 355.542 194.014C349.843 195.435 344.809 196.434 342.214 196.967C341.615 198.41 341.128 197.189 342.214 196.967C348.867 194.125 367.672 184.866 367.251 184.133C366.719 183.179 364.878 181.736 362.04 182.113C356.097 182.89 339.575 188.707 337.424 189.129C335.273 189.529 325.915 189.662 325.915 189.662L327.445 182.046C327.445 182.046 320.925 184.333 318.641 185.488C313.873 187.864 308.639 193.17 307.553 193.437C307.043 193.57 299.946 193.903 295.578 194.169L290.034 225.831L332.324 220.147C334.053 220.303 335.805 220.28 337.535 220.081Z" fill="white"/>
<path d="M327.622 231.871L323.032 252.719H326.159L330.572 231.315L327.622 231.871Z" fill="#CCCFE2"/>
<path d="M333.52 231.693L329.328 252.297L333.209 252.497L337.157 231.693H333.52Z" fill="#CCCFE2"/>
<path d="M339.775 231.804L336.116 252.497L339.997 252.808L343.545 232.026L339.775 231.804Z" fill="#CCCFE2"/>
<path d="M152.719 233.469L213.105 234.646L205.498 252.009L150.967 237.177L152.719 233.469Z" fill="#CCCFE2"/>
<path d="M204.854 166.571L183.942 189.507L207.338 190.75L204.854 166.571Z" fill="#DCDBE8"/>
<path d="M231.576 234.423C228.849 242.061 227.695 247.768 225.189 254.784L203.102 258.003L211.263 234.579" fill="#CCCFE2"/>
<path d="M244.217 194.325C253.975 157.112 255.793 124.762 255.793 124.762L231.311 194.325H244.217Z" fill="#CCCFE2"/>
<path d="M260.651 72.5845C261.25 72.74 328.71 72.2959 328.71 72.2959C328.71 72.2959 330.129 88.1934 319.906 88.6153C308.108 89.0816 306.201 74.4052 306.201 74.4052C306.201 74.4052 306.046 89.237 295.024 89.6367C284.801 90.0141 283.492 77.1806 283.492 77.1806L263.844 76.3813L260.651 72.5845Z" fill="#CCCFE2"/>
<path d="M292.606 69.4315C291.874 69.9421 292.206 71.1189 293.116 71.1855C295.932 71.4076 303.871 71.9182 303.915 70.4528C303.982 68.6766 302.385 68.0549 298.904 68.1215C296.575 68.1881 293.825 68.5655 292.606 69.4315Z" fill="#DCDBE8"/>
<path d="M314.226 71.4296C316.333 71.6072 323.141 72.1401 322.476 69.942C321.811 67.7439 312.053 67.6995 311.854 69.8088C311.765 70.7413 313.517 71.363 314.226 71.4296Z" fill="#DCDBE8"/>
</g>
</g>
<defs>
<clipPath id="clip0_1270_12901">
<rect width="159" height="174" fill="white" transform="translate(102)"/>
</clipPath>
<clipPath id="clip1_1270_12901">
<rect width="174.437" height="172.49" fill="white" transform="translate(86.8994)"/>
</clipPath>
<clipPath id="clip2_1270_12901">
<rect width="225.141" height="223.241" fill="white" transform="translate(-8.68359 64) rotate(11.7119)"/>
</clipPath>
<clipPath id="clip3_1270_12901">
<rect width="323" height="268" fill="white" transform="translate(121 18)"/>
</clipPath>
<clipPath id="clip4_1270_12901">
<rect width="550.435" height="551.04" fill="white" transform="translate(-0.696777 -39.1426)"/>
</clipPath>
</defs>
</svg>
