<svg width="60" height="60" viewBox="0 0 60 60" fill="none" xmlns="http://www.w3.org/2000/svg">
<rect width="60" height="60" rx="7" fill="#FFA200"/>
<path d="M15.1981 40.7116H35.2189C34.4533 39.446 34.0195 37.9886 34.0195 36.4034C34.0195 31.75 37.8475 27.9531 42.5561 28.0043V23.1207C42.5561 20.3849 41.1014 18.9531 38.3452 18.9531H34.951C33.9557 18.9531 33.6367 18.7869 33.0114 18.1349L32.0034 17.0483C31.3398 16.3452 30.6635 16 29.362 16H24.1175C22.816 16 22.1397 16.3452 21.4762 17.0483L20.4681 18.1349C19.8556 18.7741 19.5238 18.9531 18.5285 18.9531H15.1981C12.4419 18.9531 11 20.3849 11 23.1207V36.544C11 39.2798 12.4419 40.7116 15.1981 40.7116ZM26.7717 36.6974C22.9563 36.6974 19.8939 33.6293 19.8939 29.794C19.8939 25.946 22.9563 22.8778 26.7717 22.8778C30.5997 22.8778 33.6622 25.946 33.6622 29.794C33.6622 33.6293 30.5997 36.6974 26.7717 36.6974ZM34.4788 25.0895C34.4788 24.1818 35.2572 23.3892 36.1887 23.3892C37.1075 23.3892 37.8858 24.1818 37.8858 25.0895C37.8858 26.0355 37.1075 26.777 36.1887 26.7898C35.2572 26.7898 34.4788 26.0483 34.4788 25.0895ZM26.7717 34.3835C29.3109 34.3835 31.3526 32.3381 31.3526 29.794C31.3526 27.2372 29.3109 25.1918 26.7717 25.1918C24.2451 25.1918 22.2035 27.2372 22.2035 29.794C22.2035 32.3381 24.2579 34.3835 26.7717 34.3835ZM42.4157 43C45.9886 43 49 40.0085 49 36.4034C49 32.7983 46.0269 29.8196 42.4157 29.8196C38.8173 29.8196 35.8442 32.7983 35.8442 36.4034C35.8442 40.0341 38.8173 43 42.4157 43ZM45.9503 37.4901C45.3633 37.4901 44.8784 36.9915 44.8784 36.4034C44.8784 35.8281 45.3633 35.3295 45.9503 35.3295C46.5373 35.3295 47.0222 35.8281 47.0222 36.4034C47.0222 36.9915 46.5373 37.4901 45.9503 37.4901ZM38.8811 37.4901C38.3069 37.4901 37.822 36.9915 37.822 36.4034C37.822 35.8281 38.3069 35.3295 38.8811 35.3295C39.4681 35.3295 39.953 35.8281 39.953 36.4034C39.953 36.9915 39.4681 37.4901 38.8811 37.4901ZM42.4285 37.4901C41.8543 37.4901 41.3566 36.9915 41.3566 36.4034C41.3566 35.8281 41.8543 35.3295 42.4285 35.3295C43.0027 35.3295 43.5003 35.8281 43.5003 36.4034C43.5003 36.9915 43.0027 37.4901 42.4285 37.4901Z" fill="white"/>
</svg>
