<svg width="143" height="49" viewBox="0 0 143 49" fill="none" xmlns="http://www.w3.org/2000/svg">
<path d="M135.912 0H6.25452C2.80024 0 0 2.80024 0 6.25452V41.8755C0 45.3297 2.80024 48.13 6.25452 48.13H135.912C139.366 48.13 142.166 45.3297 142.166 41.8755V6.25452C142.166 2.80024 139.366 0 135.912 0Z" fill="#FFFFFF"/>
<path d="M44.3777 15.2492C43.8019 14.9315 43.3552 14.4947 43.0276 13.9337C42.6999 13.3728 42.5361 12.7474 42.5361 12.0524C42.5361 11.3575 42.6999 10.732 43.0276 10.1711C43.3552 9.6102 43.8069 9.17338 44.3827 8.85569C44.9585 8.538 45.6088 8.37915 46.3236 8.37915C46.8597 8.37915 47.3561 8.4685 47.8078 8.6472C48.2595 8.8259 48.6467 9.08899 48.9644 9.43149L48.4779 9.91796C47.912 9.34711 47.2022 9.06417 46.3434 9.06417C45.7726 9.06417 45.2514 9.19323 44.7848 9.45632C44.3182 9.7194 43.9508 10.0768 43.6878 10.5285C43.4247 10.9802 43.2906 11.4915 43.2906 12.0524C43.2906 12.6134 43.4247 13.1246 43.6878 13.5813C43.9508 14.033 44.3182 14.3954 44.7848 14.6535C45.2514 14.9116 45.7726 15.0457 46.3434 15.0457C47.2121 15.0457 47.922 14.7578 48.4779 14.177L48.9644 14.6634C48.6467 15.006 48.2595 15.2691 47.8028 15.4527C47.3462 15.6364 46.8498 15.7257 46.3137 15.7257C45.5989 15.7257 44.9536 15.5669 44.3777 15.2492Z" fill="black"/>
<path d="M52.3349 13.2489H51.0989V15.6614H50.3643V10.2358H51.0989V12.6185H52.3448L54.256 10.2358H55.0502L52.9157 12.8667L55.2041 15.6614H54.3354L52.3349 13.2489Z" fill="black"/>
<path d="M59.7506 10.7271C60.1278 11.0795 60.3165 11.6057 60.3165 12.3007V15.6612H59.6166V14.8173C59.4527 15.1003 59.2095 15.3187 58.8918 15.4776C58.5741 15.6364 58.1919 15.7158 57.7501 15.7158C57.1445 15.7158 56.663 15.5719 56.3056 15.284C55.9482 14.9961 55.7695 14.6138 55.7695 14.1373C55.7695 13.6608 55.9333 13.3034 56.2709 13.0254C56.6035 12.7424 57.1346 12.6035 57.8643 12.6035H59.5868V12.2758C59.5868 11.8092 59.4577 11.4518 59.1946 11.2086C58.9315 10.9654 58.5493 10.8413 58.048 10.8413C57.7055 10.8413 57.3729 10.8959 57.0601 11.01C56.7425 11.1242 56.4694 11.2781 56.2461 11.4816L55.9184 10.9356C56.1915 10.7023 56.524 10.5186 56.9063 10.3945C57.2934 10.2655 57.6955 10.2009 58.1224 10.2009C58.8323 10.2009 59.3733 10.3796 59.7506 10.7321V10.7271ZM58.9266 14.8521C59.2244 14.6635 59.4428 14.3905 59.5868 14.0331V13.1445H57.8841C56.9559 13.1445 56.4893 13.4672 56.4893 14.1125C56.4893 14.4302 56.6084 14.6784 56.8517 14.862C57.0899 15.0457 57.4275 15.135 57.8643 15.135C58.3011 15.135 58.6287 15.0407 58.9266 14.8521Z" fill="black"/>
<path d="M66.363 10.2407V15.6663H65.6333V13.4077C65.0079 13.6807 64.3923 13.8197 63.7867 13.8197C63.1315 13.8197 62.6252 13.6708 62.2628 13.3729C61.8955 13.0751 61.7168 12.6234 61.7168 12.0277V10.2457H62.4465V11.988C62.4465 12.3951 62.5755 12.7028 62.8386 12.9113C63.1017 13.1198 63.4591 13.224 63.9208 13.224C64.4271 13.224 64.9979 13.09 65.6333 12.8219V10.2457H66.363V10.2407Z" fill="black"/>
<path d="M71.942 10.7271C72.3192 11.0795 72.5079 11.6057 72.5079 12.3007V15.6612H71.808V14.8173C71.6442 15.1003 71.4009 15.3187 71.0832 15.4776C70.7655 15.6364 70.3833 15.7158 69.9415 15.7158C69.3359 15.7158 68.8544 15.5719 68.497 15.284C68.1396 14.9961 67.9609 14.6138 67.9609 14.1373C67.9609 13.6608 68.1247 13.3034 68.4623 13.0254C68.7949 12.7424 69.326 12.6035 70.0557 12.6035H71.7782V12.2758C71.7782 11.8092 71.6491 11.4518 71.386 11.2086C71.1229 10.9654 70.7407 10.8413 70.2394 10.8413C69.8969 10.8413 69.5643 10.8959 69.2515 11.01C68.9339 11.1242 68.6608 11.2781 68.4375 11.4816L68.1099 10.9356C68.3829 10.7023 68.7154 10.5186 69.0977 10.3945C69.4849 10.2655 69.8869 10.2009 70.3138 10.2009C71.0237 10.2009 71.5647 10.3796 71.942 10.7321V10.7271ZM71.118 14.8521C71.4158 14.6635 71.6342 14.3905 71.7782 14.0331V13.1445H70.0756C69.1473 13.1445 68.6807 13.4672 68.6807 14.1125C68.6807 14.4302 68.7998 14.6784 69.0431 14.862C69.2813 15.0457 69.6189 15.135 70.0557 15.135C70.4925 15.135 70.8201 15.0407 71.118 14.8521Z" fill="black"/>
<path d="M78.2762 10.8861H76.2212V15.6614H75.4915V10.8861H73.4414V10.2358H78.2812V10.8861H78.2762Z" fill="black"/>
<path d="M83.2206 12.6086C83.5731 12.9064 83.7518 13.3283 83.7518 13.8893C83.7518 14.4502 83.5631 14.9118 83.1809 15.2196C82.7987 15.5274 82.2477 15.6812 81.5279 15.6713L79.3389 15.6614V10.2358H80.0735V12.1321L81.6719 12.1519C82.352 12.1569 82.8682 12.3107 83.2256 12.6036L83.2206 12.6086ZM82.62 14.8126C82.8781 14.6041 83.0072 14.2963 83.0072 13.8893C83.0072 13.4822 82.8781 13.1943 82.625 13.0007C82.3718 12.8071 81.9896 12.7079 81.4783 12.7029L80.0636 12.683V15.0955L81.4783 15.1153C81.9797 15.1203 82.3619 15.021 82.62 14.8126Z" fill="black"/>
<path d="M87.8467 10.2407H88.5813V14.5543L92.2 10.2407H92.8503V15.6663H92.1156V11.3526L88.5069 15.6663H87.8467V10.2407Z" fill="black"/>
<path d="M98.3598 13.3036C98.5683 13.522 98.6725 13.7901 98.6725 14.1078C98.6725 14.4254 98.5633 14.7034 98.3449 14.9516C98.1265 15.1998 97.8336 15.3884 97.4613 15.5225C97.089 15.6565 96.682 15.726 96.2352 15.726C95.8431 15.726 95.4559 15.6714 95.0786 15.5572C94.7014 15.4431 94.3688 15.2792 94.0908 15.0559L94.339 14.5098C94.5872 14.6935 94.8751 14.8374 95.2077 14.9417C95.5403 15.0459 95.8729 15.0956 96.2104 15.0956C96.7118 15.0956 97.1238 15.0013 97.4415 14.8126C97.7591 14.624 97.923 14.3659 97.923 14.0432C97.923 13.7553 97.7939 13.527 97.5308 13.3681C97.2677 13.2093 96.9103 13.1249 96.4586 13.1249H95.5303V12.5888H96.4189C96.8259 12.5888 97.1535 12.5094 97.4017 12.3555C97.6499 12.2016 97.774 11.9931 97.774 11.7301C97.774 11.4421 97.635 11.2138 97.3571 11.05C97.0791 10.8862 96.7167 10.8018 96.27 10.8018C95.6842 10.8018 95.1084 10.9507 94.5376 11.2436L94.3291 10.6777C94.9744 10.3402 95.6445 10.1714 96.3395 10.1714C96.7515 10.1714 97.1238 10.231 97.4563 10.3501C97.7889 10.4692 98.052 10.643 98.2406 10.8614C98.4293 11.0798 98.5236 11.3379 98.5236 11.6258C98.5236 11.9137 98.4293 12.147 98.2406 12.3605C98.052 12.5739 97.7939 12.7328 97.4712 12.837C97.8584 12.9263 98.1513 13.0802 98.3647 13.3036H98.3598Z" fill="black"/>
<path d="M20.2474 9.74432C22.2974 9.74432 24.3525 9.74432 26.4026 9.74432C27.0082 9.74432 27.6187 9.74929 28.2194 9.81382C29.3015 9.93295 30.3588 10.1663 31.3168 10.7123C32.1508 11.1888 32.7862 11.8738 33.2081 12.7475C33.6151 13.5913 33.8137 14.4799 33.9229 15.4032C34.0222 16.2371 34.0371 17.071 34.0371 17.9099C34.0371 21.8513 34.0371 25.7876 34.0371 29.729C34.0371 30.6622 33.9676 31.5954 33.7889 32.5088C33.5853 33.5512 33.2031 34.5191 32.4933 35.3283C31.9274 35.9736 31.2225 36.4005 30.4283 36.7033C29.649 36.9961 28.8349 37.1153 28.0109 37.2195C27.5195 37.2791 27.033 37.284 26.5416 37.284C22.3223 37.284 18.1029 37.284 13.8836 37.284C13.005 37.284 12.1363 37.1798 11.2726 37.0358C10.5826 36.9217 9.90755 36.7231 9.29203 36.3905C8.64672 36.0381 8.10565 35.5616 7.67379 34.956C7.32632 34.4695 7.13273 33.9136 6.89446 33.3774C6.84979 33.2782 6.85971 33.1739 6.83489 33.0697C6.7108 32.4988 6.61648 31.923 6.55195 31.3422C6.4626 30.5083 6.47749 29.6694 6.47749 28.8355C6.47749 25.0034 6.47749 21.1663 6.47749 17.3341C6.47749 16.3612 6.55692 15.3932 6.72073 14.4352C6.82497 13.8296 6.99374 13.2339 7.28661 12.6929C7.55466 12.1965 7.87235 11.7348 8.29925 11.3377C8.92966 10.752 9.66928 10.3996 10.4784 10.1514C11.5059 9.83864 12.5632 9.73936 13.6305 9.73439C15.8344 9.72447 18.0434 9.73439 20.2474 9.73439V9.74432ZM22.2627 25.8274C22.2329 25.7926 22.2131 25.7777 22.2081 25.7628C21.9996 25.1126 21.7911 24.4672 21.5876 23.817C21.4883 23.4943 21.4933 23.4943 21.1607 23.4943C21.0465 23.4943 20.9274 23.4943 20.8132 23.4943C20.709 23.4943 20.6742 23.534 20.714 23.6383C20.8331 23.9312 20.9274 24.2339 21.0316 24.5318C21.3047 25.321 21.5876 26.1053 21.8656 26.8896C21.945 27.118 21.94 27.1229 22.1733 27.1229C22.2329 27.1229 22.2875 27.1229 22.3471 27.1229C22.491 27.1378 22.5705 27.0932 22.6201 26.9442C22.7938 26.4181 22.9775 25.8919 23.1661 25.3707C23.2257 25.2069 23.2505 25.0282 23.3548 24.9041C23.4242 24.9041 23.4292 24.9388 23.4391 24.9636C23.6575 25.6387 23.8958 26.3089 24.1341 26.974C24.1738 27.0882 24.2234 27.1279 24.3376 27.1279C24.9035 27.118 24.7744 27.2073 24.9581 26.701C25.2112 25.9961 25.4545 25.2913 25.7027 24.5864C25.8268 24.2389 25.9409 23.8865 26.075 23.4943C25.8268 23.4943 25.6183 23.4943 25.4098 23.4943C25.3155 23.4943 25.2708 23.534 25.246 23.6234C25.1864 23.8269 25.1219 24.0255 25.0574 24.229C24.8787 24.775 24.7 25.321 24.5113 25.8919C24.4418 25.7728 24.4071 25.6735 24.3724 25.5742C24.1887 24.9984 24.005 24.4226 23.8065 23.8517C23.6575 23.4099 23.7221 23.5142 23.2803 23.4943C23.1115 23.4844 23.0371 23.5539 22.9924 23.7028C22.8186 24.2637 22.6399 24.8197 22.4563 25.3756C22.4066 25.5295 22.362 25.6884 22.2577 25.8323L22.2627 25.8274ZM20.0339 18.9226C20.8629 18.9722 21.6422 18.7935 22.3719 18.4113C23.1264 18.0191 23.727 17.4483 24.1837 16.7236C24.5709 16.0981 24.7695 15.4131 24.8439 14.6884C24.8787 14.326 24.8836 14.326 24.5113 14.326C24.4716 14.326 24.4319 14.326 24.3972 14.326C24.1937 14.326 24.1936 14.331 24.1788 14.5295C24.1639 14.7132 24.1738 14.9018 24.1291 15.0756C23.9355 15.84 23.6079 16.525 23.0321 17.0909C22.0344 18.0737 20.8381 18.4212 19.4928 18.178C18.5199 17.9993 17.7207 17.4731 17.1201 16.669C16.6882 16.0931 16.44 15.4528 16.3606 14.738C16.3457 14.604 16.4202 14.4104 16.2713 14.3459C16.1422 14.2913 15.9685 14.331 15.8146 14.326C15.7004 14.326 15.6557 14.3806 15.6706 14.4848C15.7103 14.7529 15.7004 15.0209 15.76 15.284C15.9834 16.2718 16.4649 17.1008 17.2243 17.766C18.0285 18.4758 18.9716 18.858 20.0488 18.9126L20.0339 18.9226ZM26.6409 25.2863C26.6409 25.8174 26.6409 26.3436 26.6409 26.8747C26.6409 27.1229 26.6409 27.1229 26.899 27.1229C27.5641 27.1229 28.2293 27.1229 28.8895 27.1229C29.2105 27.1229 29.366 26.9658 29.3561 26.6514C29.3511 26.428 29.3511 26.423 29.1327 26.423C28.6115 26.423 28.0953 26.423 27.5741 26.423C27.4351 26.423 27.3557 26.3932 27.3705 26.2344C27.3805 26.0805 27.3805 25.9266 27.3705 25.7728C27.3606 25.6288 27.4053 25.5643 27.5641 25.5742C27.7776 25.5841 27.9861 25.5792 28.1995 25.5742C28.7853 25.5593 28.6909 25.6983 28.7009 25.0431C28.7009 24.919 28.6562 24.8693 28.5321 24.8743C28.3087 24.8743 28.0903 24.8743 27.8669 24.8743C27.3457 24.8743 27.3507 24.8743 27.3705 24.3431C27.3705 24.2091 27.4152 24.1595 27.5542 24.1595C27.996 24.1694 28.4378 24.1694 28.8845 24.1595C29.3958 24.1496 29.3164 24.2687 29.3214 23.6929C29.3214 23.4943 29.3164 23.4894 29.1079 23.4894C28.3584 23.4894 27.6038 23.4894 26.8543 23.4894C26.6458 23.4894 26.6409 23.4943 26.6409 23.7227C26.6409 24.2439 26.6409 24.7601 26.6409 25.2813V25.2863ZM12.6526 25.3012V23.9709C12.6526 23.6432 12.4904 23.4827 12.1661 23.4894C11.9427 23.4943 11.9378 23.4943 11.9378 23.7375C11.9378 24.085 11.9328 24.4325 11.9378 24.775C11.9378 24.914 11.8881 24.9587 11.7541 24.9537C11.3223 24.9487 10.8854 24.9487 10.4536 24.9537C10.3047 24.9537 10.2749 24.8892 10.2798 24.7601C10.2848 24.4921 10.2798 24.2191 10.2798 23.951C10.2798 23.6366 10.1227 23.4811 9.80827 23.4844C9.54518 23.4844 9.54518 23.4844 9.54518 23.7574C9.54518 24.7105 9.54518 25.6636 9.54518 26.6166C9.54518 26.9575 9.7123 27.1246 10.0465 27.118C10.2798 27.118 10.2798 27.118 10.2798 26.8747C10.2798 26.5273 10.2798 26.1798 10.2798 25.8373C10.2798 25.7281 10.2947 25.6536 10.4337 25.6536C10.8854 25.6536 11.3372 25.6536 11.7889 25.6536C11.903 25.6536 11.9378 25.7033 11.9378 25.8125C11.9378 26.0805 11.9378 26.3535 11.9378 26.6216C11.9378 26.9624 12.1049 27.1279 12.4391 27.118C12.6476 27.113 12.6526 27.113 12.6526 26.8847C12.6526 26.3535 12.6526 25.8274 12.6526 25.2962V25.3012ZM14.4297 24.7204C14.4297 24.497 14.4396 24.2786 14.4297 24.0552C14.4197 23.8765 14.514 23.6432 14.385 23.534C14.251 23.4149 14.0177 23.5092 13.8241 23.4943C13.8141 23.4943 13.8042 23.4943 13.7943 23.4943C13.7 23.4943 13.6553 23.534 13.6553 23.6333C13.6652 24.3829 13.6205 25.1374 13.6851 25.882C13.7099 26.1599 13.7992 26.428 13.9829 26.6464C14.4346 27.1875 15.0353 27.2272 15.6657 27.1279C16.038 27.0683 16.3507 26.8747 16.5492 26.5422C16.7031 26.284 16.7974 26.0011 16.8024 25.6983C16.8123 25.1423 16.8123 24.5814 16.8074 24.0255C16.8074 23.8567 16.8868 23.6432 16.7627 23.534C16.6386 23.4298 16.4301 23.4993 16.2564 23.4993C16.0529 23.4993 16.0479 23.4993 16.0479 23.7078C16.0479 24.2737 16.0479 24.8445 16.0479 25.4104C16.0479 25.5444 16.0479 25.6784 16.0231 25.8125C15.9883 26.0259 15.9039 26.2344 15.7103 26.3386C15.1345 26.6514 14.4396 26.3635 14.4396 25.6784C14.4396 25.3607 14.4396 25.0431 14.4396 24.7254L14.4297 24.7204ZM20.9274 27.1229C20.9721 27.0534 20.9572 27.0187 20.9423 26.9839C20.5501 26.1004 20.163 25.2168 19.7708 24.3332C19.6666 24.095 19.5574 23.8616 19.4531 23.6283C19.4085 23.5291 19.3439 23.4794 19.2298 23.4943C19.1751 23.4993 19.1106 23.5043 19.056 23.4943C18.7979 23.4397 18.6887 23.5738 18.5944 23.7971C18.2568 24.5914 17.8994 25.3707 17.552 26.1599C17.4179 26.4727 17.2591 26.7755 17.1548 27.1329C17.3236 27.1329 17.4626 27.1329 17.6066 27.1329C17.9143 27.1329 17.9094 27.1329 18.0186 26.8549C18.0632 26.7506 18.1377 26.6514 18.1625 26.5422C18.1973 26.3982 18.2767 26.3684 18.4107 26.3684C18.8326 26.3734 19.2595 26.3784 19.6815 26.3684C19.8254 26.3684 19.89 26.4181 19.9346 26.5422C19.9942 26.696 20.0538 26.845 20.1233 26.9939C20.153 27.0634 20.1927 27.1329 20.2871 27.1329C20.5055 27.1329 20.7239 27.1329 20.9175 27.1329L20.9274 27.1229ZM30.9594 25.3161V23.956C30.9594 23.6416 30.8006 23.486 30.4829 23.4894C30.2248 23.4894 30.2248 23.4894 30.2248 23.7673C30.2248 24.7204 30.2248 25.6735 30.2248 26.6265C30.2248 26.9641 30.3936 27.1296 30.7311 27.1229C30.9594 27.118 30.9594 27.118 30.9594 26.8747C30.9594 26.3535 30.9594 25.8323 30.9594 25.3161Z" fill="#BD1A2F"/>
<path d="M84.4208 24.3331C84.0981 24.209 83.7953 24.07 83.4826 23.9559C82.4253 23.5836 81.3432 23.395 80.2313 23.5935C78.891 23.8318 77.8933 24.5565 77.2976 25.8024C76.97 26.4875 76.8409 27.2221 76.8062 27.9766C76.7813 28.5673 76.8062 29.1531 76.9253 29.7289C77.1636 30.8805 77.6848 31.8485 78.752 32.4541C79.1938 32.7072 79.6753 32.8313 80.1717 32.8959C81.0999 33.01 82.0133 32.8859 82.9068 32.6229C83.2146 32.5335 83.2096 32.5186 83.2096 32.2158C83.2096 31.5804 83.2096 30.9451 83.2096 30.3097C83.2096 30.0317 83.2096 30.0317 82.9217 30.0317C82.1424 30.0317 81.363 30.0317 80.5787 30.0317C80.3206 30.0317 80.3206 30.0317 80.3206 29.7835C80.3206 29.3765 80.3206 28.9744 80.3206 28.5673C80.3206 28.339 80.3206 28.334 80.5638 28.334C82.0679 28.334 83.572 28.334 85.0711 28.334C85.3093 28.334 85.3093 28.334 85.3093 28.5922C85.3093 29.4311 85.3093 30.27 85.3093 31.1089C85.3093 31.8683 85.3044 32.6328 85.3093 33.3923C85.3093 33.566 85.2498 33.6454 85.1008 33.7149C84.396 34.0276 83.6663 34.256 82.9167 34.4198C82.3161 34.5538 81.7055 34.6183 81.09 34.6431C80.4149 34.668 79.7448 34.6531 79.0846 34.5091C77.7394 34.2163 76.6026 33.5858 75.7588 32.464C75.2177 31.7442 74.8901 30.9351 74.7114 30.0615C74.5327 29.1978 74.5079 28.334 74.5823 27.4554C74.6618 26.5421 74.8851 25.6783 75.317 24.8742C75.8928 23.807 76.7268 22.9978 77.8337 22.4717C79.0201 21.9107 80.271 21.742 81.5666 21.7966C82.3707 21.8313 83.1451 22.0051 83.9045 22.2582C84.1776 22.3476 84.4456 22.4518 84.7087 22.571C84.9321 22.6702 84.9321 22.6802 84.8626 22.9035C84.7484 23.2709 84.6293 23.6332 84.5052 23.9956C84.4655 24.1048 84.4307 24.214 84.4109 24.3381L84.4208 24.3331Z" fill="black"/>
<path d="M42.1436 34.4942C42.1833 34.241 42.2925 34.0375 42.3719 33.829C42.6945 32.9802 43.0371 32.1363 43.3696 31.2925C43.8462 30.0813 44.3277 28.8751 44.7992 27.6589C45.1815 26.6661 45.5686 25.6783 45.9658 24.6905C46.2983 23.8665 46.6061 23.0276 46.9287 22.1986C47.0231 21.9554 47.028 21.9504 47.2762 21.9504C47.8272 21.9504 48.3732 21.9504 48.9242 21.9504C49.0732 21.9504 49.1526 21.9802 49.2171 22.1391C49.7185 23.4148 50.2397 24.6806 50.751 25.9513C51.2821 27.2668 51.8232 28.5772 52.3344 29.8976C52.7564 30.9897 53.2081 32.0669 53.635 33.1539C53.8038 33.5858 53.9775 34.0177 54.1512 34.4495C54.0867 34.524 54.0172 34.4942 53.9576 34.4942C53.3223 34.4942 52.6869 34.4942 52.0515 34.4942C51.8976 34.4942 51.8132 34.4644 51.7586 34.3006C51.5055 33.5759 51.2325 32.8611 50.9644 32.1413C50.8651 31.8733 50.7559 31.6052 50.6566 31.3372C50.607 31.1932 50.5375 31.1287 50.3687 31.1337C49.8029 31.1485 49.232 31.1386 48.6612 31.1386C47.7081 31.1386 46.755 31.1386 45.8019 31.1386C45.6431 31.1386 45.5637 31.1585 45.5041 31.3421C45.251 32.0966 44.9581 32.8363 44.6851 33.5809C44.5908 33.834 44.5014 34.0872 44.417 34.3403C44.3872 34.4297 44.3575 34.4942 44.2433 34.4942C43.5533 34.4942 42.8584 34.4942 42.1485 34.4942H42.1436ZM48.0556 24.2487C47.5195 26.0308 46.8295 27.6837 46.2338 29.3913H49.9121C49.3065 27.6738 48.6115 26.0208 48.0556 24.2487Z" fill="black"/>
<path d="M67.1216 34.4098C67.1216 35.1792 67.1117 35.9486 67.1117 36.718C67.1117 37.1002 67.1117 37.4874 67.1117 37.8696C67.1117 38.1972 67.1117 38.1972 66.799 38.2121C66.7146 38.2121 66.6252 38.2121 66.5458 38.2568C66.511 38.227 66.4813 38.222 66.4465 38.2568C66.0147 38.2965 65.5878 38.3412 65.1559 38.3759C64.9524 38.3908 64.9524 38.3809 64.9474 38.1774C64.9474 38.1079 64.9474 38.0433 64.9474 37.9738C64.9474 34.3254 64.9474 30.6769 64.9474 27.0284C64.9474 26.5122 64.9176 25.991 64.8978 25.4747C64.8912 25.2629 64.9888 25.157 65.1906 25.157C65.692 25.157 66.1934 25.162 66.6947 25.157C66.8436 25.157 66.923 25.1918 66.9429 25.3506C66.9727 25.6187 67.0174 25.8818 67.0521 26.1498C67.0571 26.1846 67.0422 26.2292 67.1117 26.2541C67.2358 26.1399 67.3648 26.0208 67.4989 25.9016C68.308 25.1918 69.2511 24.8741 70.3134 24.9932C71.2863 25.1024 72.0756 25.569 72.6216 26.3931C73.0435 27.0334 73.2768 27.7482 73.3563 28.5176C73.4109 29.0736 73.4258 29.6295 73.391 30.1855C73.3414 30.94 73.1776 31.6647 72.845 32.3448C72.3883 33.278 71.7082 33.963 70.7304 34.3502C69.7475 34.7374 68.7498 34.7374 67.7322 34.5338C67.5535 34.4991 67.3797 34.4346 67.206 34.3949C67.1911 34.3651 67.1663 34.3651 67.1415 34.375C67.1216 34.38 67.1216 34.3998 67.1315 34.4147L67.1216 34.4098ZM67.1117 30.2153C67.1117 30.9747 67.1117 31.7342 67.1117 32.4987C67.1117 32.7419 67.1216 32.7468 67.34 32.8312C67.8712 33.0447 68.4271 33.0844 68.9831 33.0447C69.673 33 70.2191 32.6823 70.6162 32.1065C70.8991 31.6945 71.0629 31.2329 71.1324 30.7464C71.2615 29.8678 71.2665 28.9842 71.0332 28.1155C70.9488 27.7978 70.7949 27.5149 70.5814 27.2617C70.0751 26.671 69.2462 26.5321 68.4718 26.8051C68.0846 26.9441 67.7669 27.1823 67.4443 27.4256C67.1911 27.6191 67.0918 27.8375 67.1067 28.1602C67.1315 28.8452 67.1166 29.5253 67.1166 30.2103L67.1117 30.2153Z" fill="black"/>
<path d="M56.6229 38.2568C56.2407 38.2965 55.8585 38.3412 55.4763 38.366C55.104 38.3908 55.1437 38.4206 55.1437 38.0682C55.1437 35.0998 55.1437 32.1363 55.1437 29.1679C55.1437 28.5921 55.1536 28.0113 55.1437 27.4355C55.1288 26.7455 55.099 26.0506 55.0792 25.3606C55.0742 25.1571 55.0792 25.1521 55.2777 25.1521C55.8287 25.1521 56.3747 25.1571 56.9257 25.1471C57.0796 25.1471 57.1243 25.2067 57.1392 25.3407C57.1739 25.6336 57.2136 25.9265 57.2533 26.2491C57.437 26.1498 57.5462 26.0059 57.6802 25.8917C58.4645 25.2315 59.3531 24.889 60.3856 24.9783C61.3883 25.0627 62.2024 25.5045 62.7782 26.3385C63.215 26.9639 63.4384 27.6638 63.5327 28.4233C63.6369 29.2324 63.622 30.0366 63.5029 30.8358C63.3639 31.7739 63.0115 32.6327 62.3711 33.3425C61.6563 34.1268 60.7529 34.5488 59.6906 34.6381C59.2488 34.6729 58.807 34.653 58.3702 34.6182C58.0426 34.5885 57.7299 34.4892 57.4172 34.3998C57.3278 34.3452 57.3179 34.3452 57.298 34.4098C57.298 35.4869 57.2931 36.5691 57.2881 37.6462C57.2881 37.7803 57.2881 37.9143 57.2881 38.0483C57.2881 38.1525 57.2583 38.2072 57.1441 38.2072C57.02 38.2072 56.891 38.1873 56.7768 38.2568C56.7272 38.227 56.6775 38.222 56.6279 38.2568H56.6229ZM57.2831 30.2103C57.2831 30.9599 57.2831 31.7094 57.2831 32.4589C57.2831 32.7419 57.2831 32.732 57.5611 32.8412C58.0923 33.0546 58.6482 33.0844 59.2042 33.0397C59.9736 32.9752 60.5494 32.588 60.9266 31.908C61.15 31.5009 61.2642 31.0591 61.3287 30.6025C61.4528 29.7536 61.433 28.9197 61.2046 28.0907C60.8919 26.9788 59.9488 26.5023 58.956 26.7207C58.3404 26.8547 57.8589 27.2022 57.4172 27.6241C57.308 27.7284 57.2782 27.8376 57.2782 27.9815C57.2831 28.7211 57.2782 29.4608 57.2782 30.2053L57.2831 30.2103Z" fill="black"/>
<path d="M122.965 25.1519C123.288 25.1519 123.591 25.1519 123.898 25.1519C124.286 25.1519 124.668 25.1569 125.055 25.1519C125.199 25.1519 125.283 25.1867 125.328 25.3306C125.512 25.9164 125.705 26.4971 125.894 27.0779C125.993 27.3807 126.087 27.6786 126.187 27.9814C126.475 28.855 126.763 29.7286 127.045 30.6023C127.219 31.1334 127.373 31.6646 127.477 32.2156C127.482 32.2553 127.492 32.29 127.547 32.3099C127.82 31.2228 128.172 30.1655 128.535 29.1032C128.942 27.9069 129.309 26.6957 129.726 25.4994C129.845 25.1519 129.84 25.1519 130.212 25.1519C130.798 25.1519 131.389 25.1519 131.965 25.1519C132.024 25.2115 131.98 25.2462 131.965 25.2909C131.657 26.1348 131.349 26.9836 131.041 27.8275C130.689 28.7905 130.337 29.7535 129.989 30.7115C129.522 31.9872 129.051 33.2629 128.599 34.5436C128.326 35.3031 128.004 36.0378 127.572 36.7178C127.234 37.249 126.777 37.6709 126.236 37.9836C125.929 38.1623 125.566 38.2417 125.209 38.3112C124.673 38.4155 124.137 38.3857 123.601 38.3609C123.293 38.346 122.99 38.2268 122.687 38.1524C122.578 38.1276 122.588 38.0481 122.603 37.9737C122.647 37.7751 122.687 37.5815 122.742 37.383C122.801 37.1596 122.886 36.9462 122.911 36.7129C122.92 36.5987 122.98 36.5441 123.104 36.5739C123.263 36.6086 123.427 36.6334 123.586 36.6582C123.908 36.7128 124.236 36.7277 124.559 36.6582C125.159 36.5242 125.571 36.142 125.884 35.6357C125.948 35.5314 126.018 35.4222 126.068 35.3081C126.172 35.0599 126.331 34.8166 126.351 34.5585C126.37 34.3153 126.207 34.0721 126.117 33.8288C125.725 32.7517 125.358 31.6596 124.946 30.5874C124.643 29.8031 124.365 29.0039 124.067 28.2196C123.705 27.2616 123.357 26.2986 123.01 25.3356C122.99 25.281 122.985 25.2264 122.965 25.147V25.1519Z" fill="black"/>
<path d="M92.8098 33.3726C92.6311 33.4321 92.5367 33.596 92.3928 33.7052C91.7177 34.2413 90.9781 34.6086 90.0945 34.6384C89.6229 34.6533 89.1563 34.6533 88.6997 34.5043C87.8707 34.2363 87.2849 33.7101 87.007 32.8712C86.863 32.4394 86.8233 31.9876 86.868 31.531C86.9176 31.0495 87.0367 30.5878 87.3346 30.1858C87.7367 29.6397 88.2678 29.2972 88.923 29.1136C90.1144 28.776 91.3156 28.7909 92.5219 28.9398C92.5814 28.9448 92.636 28.9497 92.6956 28.9497C92.7502 28.9497 92.7899 28.92 92.7849 28.8654C92.7651 28.22 92.7452 27.5648 92.2488 27.0635C91.9709 26.7805 91.6135 26.6316 91.2263 26.5869C90.5214 26.5025 89.8314 26.5968 89.1464 26.7954C88.7791 26.9046 88.4117 27.0138 88.0593 27.1727C87.9104 27.2372 87.8856 27.1727 87.8657 27.0684C87.7813 26.6664 87.7019 26.2593 87.6126 25.8572C87.5778 25.6934 87.6324 25.614 87.7913 25.5594C88.2628 25.3857 88.7443 25.2616 89.2308 25.1524C90.1193 24.9488 91.0228 24.9091 91.9262 25.0183C92.5318 25.0928 93.1076 25.2516 93.6139 25.619C94.0011 25.8969 94.2741 26.2543 94.4826 26.6763C94.8102 27.3365 94.9045 28.0463 94.9045 28.771C94.9045 30.1212 94.8996 31.4664 94.9045 32.8166C94.9045 33.2584 94.9492 33.7002 94.9691 34.137C94.9691 34.1966 94.9691 34.2512 94.979 34.3108C94.9889 34.4398 94.9542 34.4994 94.8053 34.4994C94.2443 34.4895 93.6884 34.4944 93.1275 34.4994C93.0034 34.4994 92.9537 34.4448 92.9339 34.3405C92.8842 34.1221 92.8743 33.9037 92.8594 33.6803C92.8544 33.5761 92.8743 33.4669 92.7949 33.3676L92.8098 33.3726ZM92.7949 31.0991C92.7949 30.8658 92.7949 30.6375 92.7949 30.4042C92.7949 30.295 92.775 30.2354 92.641 30.2255C91.8865 30.151 91.132 30.0914 90.3725 30.2255C89.6875 30.3446 89.1911 30.707 89.067 31.4515C88.9677 32.0522 89.1464 32.7124 89.7867 32.9606C89.9605 33.0301 90.1392 33.0499 90.3228 33.0549C91.2263 33.0698 91.9709 32.6925 92.636 32.1118C92.77 31.9976 92.8098 31.8735 92.7998 31.7097C92.7899 31.5062 92.7998 31.3076 92.7998 31.1041L92.7949 31.0991Z" fill="black"/>
<path d="M111.712 30.0962C110.799 30.0962 109.881 30.0962 108.967 30.0962C108.898 30.0962 108.833 30.0962 108.764 30.0962C108.699 30.0962 108.654 30.1259 108.659 30.2004C108.734 30.9648 108.878 31.7045 109.439 32.2852C109.881 32.7419 110.451 32.9405 111.062 32.9951C111.96 33.0695 112.819 32.8859 113.658 32.5781C114.14 32.3994 114.135 32.3994 114.264 32.8958C114.333 33.1638 114.423 33.4269 114.507 33.69C114.571 33.8935 114.576 33.8935 114.378 33.9879C113.976 34.1715 113.554 34.3055 113.127 34.4147C112.586 34.5537 112.035 34.6083 111.474 34.6381C111.067 34.658 110.665 34.6481 110.268 34.6083C109.171 34.5041 108.208 34.102 107.483 33.2333C107.016 32.6774 106.753 32.0221 106.604 31.3173C106.431 30.4982 106.446 29.6693 106.54 28.8502C106.639 28.0361 106.917 27.2618 107.413 26.5916C108.004 25.7924 108.788 25.2762 109.771 25.0727C110.461 24.9287 111.141 24.9287 111.831 25.0777C112.611 25.2514 113.246 25.6584 113.752 26.269C114.259 26.8746 114.492 27.5993 114.661 28.3538C114.775 28.88 114.73 29.4062 114.745 29.9373C114.75 30.1011 114.656 30.0962 114.542 30.0962C113.599 30.0962 112.655 30.0962 111.707 30.0962H111.712ZM108.739 28.6864C108.853 28.7261 108.947 28.7112 109.042 28.7112C110.089 28.7112 111.141 28.7112 112.189 28.7112C112.283 28.7112 112.382 28.7063 112.477 28.7112C112.616 28.7212 112.67 28.6715 112.65 28.5276C112.596 28.1255 112.516 27.7333 112.313 27.3759C112.199 27.1774 112.05 27.0036 111.866 26.8597C111.211 26.3236 109.841 26.3236 109.191 27.3511C108.932 27.7532 108.793 28.195 108.739 28.6864Z" fill="black"/>
<path d="M98.9108 21.037C98.9654 21.1511 98.9405 21.2603 98.9405 21.3646C98.9405 24.8393 98.9405 28.319 98.9405 31.7937C98.9405 31.9476 98.9405 32.1015 98.9554 32.2554C98.9952 32.6624 99.2731 32.9155 99.6802 32.9354C99.8936 32.9453 100.097 32.8957 100.325 32.8361C100.405 33.3127 100.484 33.7743 100.564 34.236C100.584 34.3551 100.544 34.4146 100.43 34.4444C100.251 34.4891 100.082 34.5536 99.9035 34.5785C99.4171 34.6579 98.9257 34.6827 98.4392 34.6083C97.7194 34.499 97.2081 34.1118 96.96 33.402C96.8359 33.0446 96.7812 32.6773 96.7812 32.3C96.7812 28.7161 96.7812 25.1322 96.7812 21.5532C96.7812 21.2305 96.7813 21.2256 97.1089 21.1809C97.3471 21.1511 97.5854 21.1362 97.8237 21.1164C98.186 21.0866 98.5484 21.0915 98.9058 21.032L98.9108 21.037Z" fill="black"/>
<path d="M105.636 32.8361C105.731 33.2034 105.77 33.5558 105.825 33.9033C105.84 33.9976 105.845 34.0969 105.87 34.1862C105.914 34.3302 105.88 34.4195 105.721 34.4592C105.487 34.5188 105.259 34.5933 105.021 34.6131C104.609 34.6479 104.197 34.6777 103.785 34.6181C103.015 34.5089 102.455 34.0522 102.231 33.2778C102.112 32.8758 102.092 32.4637 102.092 32.0517C102.082 28.5373 102.087 25.0229 102.087 21.5035C102.087 21.4538 102.087 21.4092 102.087 21.3595C102.082 21.2553 102.117 21.2056 102.231 21.1957C102.693 21.156 103.149 21.1014 103.611 21.0865C103.81 21.0815 104.013 21.0567 104.207 21.0369C104.261 21.1461 104.237 21.2553 104.237 21.3545C104.237 24.8392 104.237 28.3288 104.237 31.8135C104.237 32.017 104.237 32.2156 104.311 32.4091C104.425 32.7318 104.624 32.8956 104.966 32.9204C105.18 32.9353 105.388 32.9006 105.631 32.8212L105.636 32.8361Z" fill="black"/>
<path d="M116.398 25.152C116.647 25.152 116.895 25.152 117.148 25.152C117.515 25.152 117.878 25.152 118.245 25.152C118.384 25.152 118.429 25.2016 118.434 25.3357C118.449 25.7576 118.538 26.1746 118.543 26.5965C118.543 26.661 118.543 26.7305 118.612 26.795C118.776 26.6362 118.875 26.4327 119.009 26.254C119.248 25.9363 119.511 25.6484 119.828 25.4101C120.464 24.9435 121.174 24.8988 121.918 25.0279C122.013 25.0428 122.077 25.0875 122.057 25.2016C121.968 25.7675 121.918 26.3433 121.794 26.9191C121.531 26.8645 121.273 26.8546 121.015 26.8546C120.221 26.8546 119.635 27.2666 119.134 27.8226C118.597 28.4133 118.602 28.4182 118.602 29.2224C118.602 30.8605 118.602 32.4986 118.602 34.1317C118.602 34.1913 118.597 34.2459 118.602 34.3054C118.622 34.4643 118.543 34.4941 118.404 34.4941C117.828 34.4891 117.247 34.4941 116.671 34.4941C116.463 34.4941 116.458 34.4941 116.458 34.2657C116.458 32.8709 116.458 31.471 116.458 30.0762C116.458 29.2373 116.468 28.3984 116.458 27.5645C116.448 26.7702 116.418 25.971 116.398 25.152Z" fill="black"/>
<path d="M56.623 38.2567C56.6727 38.2269 56.7223 38.2269 56.772 38.2567C56.7223 38.3014 56.6727 38.3014 56.623 38.2567Z" fill="#BD1A2F"/>
<path d="M66.4463 38.2569C66.4813 38.2269 66.5113 38.2269 66.5463 38.2569C66.5113 38.2969 66.4813 38.3019 66.4463 38.2569Z" fill="#BD1A2F"/>
<path d="M57.293 34.4051C57.313 34.3401 57.323 34.3351 57.4129 34.3951C57.3729 34.415 57.338 34.4251 57.293 34.4051Z" fill="#BD1A2F"/>
<path d="M67.1216 34.4102C67.1216 34.4102 67.1067 34.3752 67.1316 34.3702C67.1566 34.3602 67.1816 34.3602 67.1966 34.3902C67.1766 34.4152 67.1566 34.4302 67.1216 34.4102Z" fill="#BD1A2F"/>
<path d="M22.2631 25.8272C22.3624 25.6833 22.407 25.5244 22.4616 25.3705C22.6453 24.8146 22.824 24.2586 22.9978 23.6977C23.0424 23.5488 23.1169 23.4793 23.2857 23.4892C23.7225 23.514 23.6579 23.4048 23.8118 23.8466C24.0054 24.4175 24.1891 24.9933 24.3777 25.5691C24.4125 25.6684 24.4422 25.7677 24.5167 25.8868C24.7053 25.3159 24.884 24.7699 25.0627 24.2239C25.1273 24.0253 25.1918 23.8218 25.2514 23.6183C25.2762 23.5289 25.3209 23.4892 25.4152 23.4892C25.6237 23.4892 25.8321 23.4892 26.0803 23.4892C25.9463 23.8814 25.8321 24.2288 25.708 24.5813C25.4648 25.2861 25.2216 25.996 24.9635 26.6959C24.7798 27.2022 24.9089 27.1079 24.343 27.1228C24.2288 27.1228 24.1841 27.0831 24.1394 26.9689C23.9012 26.2988 23.6629 25.6336 23.4445 24.9585C23.4346 24.9337 23.4296 24.899 23.3601 24.899C23.2559 25.0231 23.2311 25.2067 23.1715 25.3656C22.9829 25.8868 22.7992 26.413 22.6255 26.9391C22.5758 27.088 22.4964 27.1327 22.3524 27.1178C22.2929 27.1129 22.2383 27.1178 22.1787 27.1178C21.9454 27.1178 21.9504 27.1129 21.8709 26.8845C21.593 26.1002 21.3051 25.3159 21.037 24.5267C20.9328 24.2288 20.8385 23.926 20.7193 23.6332C20.6796 23.5289 20.7193 23.4892 20.8186 23.4892C20.9328 23.4892 21.0519 23.4892 21.1661 23.4892C21.5036 23.4892 21.4937 23.4892 21.593 23.8119C21.7965 24.4621 22.005 25.1074 22.2135 25.7577C22.2184 25.7726 22.2383 25.7875 22.2681 25.8223L22.2631 25.8272Z" fill="black"/>
<path d="M20.0343 18.9275C18.9621 18.8729 18.0189 18.4907 17.2098 17.7808C16.4553 17.1157 15.9688 16.2818 15.7454 15.2989C15.6859 15.0358 15.7008 14.7628 15.6561 14.4997C15.6412 14.3955 15.6859 14.3359 15.8 14.3409C15.9539 14.3458 16.1277 14.3061 16.2567 14.3607C16.4007 14.4253 16.3312 14.6189 16.3461 14.7529C16.4255 15.4677 16.6737 16.108 17.1056 16.6838C17.7062 17.488 18.5103 18.0142 19.4783 18.1929C20.8235 18.4361 22.0198 18.0886 23.0176 17.1058C23.5934 16.5349 23.921 15.8549 24.1146 15.0904C24.1593 14.9167 24.1493 14.7281 24.1642 14.5444C24.1791 14.3458 24.1791 14.3458 24.3826 14.3409C24.4223 14.3409 24.4621 14.3409 24.4968 14.3409C24.8691 14.3409 24.8691 14.3409 24.8294 14.7032C24.7549 15.428 24.5613 16.113 24.1692 16.7384C23.7175 17.4632 23.1168 18.034 22.3574 18.4262C21.6277 18.8034 20.8483 18.9821 20.0194 18.9374L20.0343 18.9275Z" fill="black"/>
<path d="M26.6406 25.2864C26.6406 24.7652 26.6406 24.2489 26.6406 23.7277C26.6406 23.4993 26.6406 23.4944 26.8541 23.4944C27.6036 23.4944 28.3581 23.4944 29.1077 23.4944C29.3162 23.4944 29.3261 23.4994 29.3211 23.6979C29.3211 24.2737 29.3906 24.1596 28.8843 24.1645C28.4425 24.1695 28.0007 24.1695 27.554 24.1645C27.415 24.1645 27.3753 24.2092 27.3703 24.3482C27.3505 24.8793 27.3455 24.8793 27.8667 24.8793C28.0901 24.8793 28.3085 24.8793 28.5319 24.8793C28.656 24.8793 28.7056 24.924 28.7006 25.0481C28.6907 25.7033 28.785 25.5643 28.1993 25.5792C27.9858 25.5842 27.7774 25.5892 27.5639 25.5792C27.41 25.5693 27.3604 25.6338 27.3703 25.7778C27.3802 25.9317 27.3802 26.0855 27.3703 26.2394C27.3604 26.3983 27.4349 26.433 27.5738 26.4281C28.0951 26.4231 28.6113 26.4281 29.1325 26.4281C29.3509 26.4281 29.3509 26.433 29.3559 26.6564C29.3625 26.9708 29.207 27.128 28.8893 27.128C28.2241 27.128 27.5589 27.128 26.8987 27.128C26.6456 27.128 26.6406 27.128 26.6406 26.8798C26.6406 26.3486 26.6406 25.8225 26.6406 25.2913V25.2864Z" fill="black"/>
<path d="M12.6474 25.3058C12.6474 25.8369 12.6474 26.3631 12.6474 26.8942C12.6474 27.1226 12.6474 27.1226 12.434 27.1275C12.0998 27.1375 11.9326 26.972 11.9326 26.6311C11.9326 26.3631 11.9326 26.0901 11.9326 25.822C11.9326 25.7178 11.8979 25.6632 11.7837 25.6632C11.332 25.6632 10.8803 25.6632 10.4286 25.6632C10.2896 25.6632 10.2747 25.7376 10.2747 25.8468C10.2747 26.1943 10.2747 26.5418 10.2747 26.8843C10.2747 27.1226 10.2747 27.1226 10.0414 27.1275C9.70716 27.1341 9.54004 26.967 9.54004 26.6262C9.54004 25.6731 9.54004 24.72 9.54004 23.767C9.54004 23.4989 9.54004 23.4989 9.80313 23.4939C10.1175 23.4906 10.2747 23.6462 10.2747 23.9606C10.2747 24.2286 10.2747 24.5016 10.2747 24.7697C10.2747 24.8987 10.3045 24.9633 10.4484 24.9633C10.8803 24.9583 11.3171 24.9583 11.749 24.9633C11.883 24.9633 11.9376 24.9236 11.9326 24.7846C11.9277 24.4371 11.9326 24.0896 11.9326 23.7471C11.9326 23.5039 11.9326 23.5039 12.161 23.4989C12.4853 23.4923 12.6474 23.6528 12.6474 23.9804C12.6474 24.4222 12.6474 24.864 12.6474 25.3107V25.3058Z" fill="black"/>
<path d="M14.4244 24.7205C14.4244 25.0382 14.4244 25.3559 14.4244 25.6736C14.4244 26.3586 15.1193 26.6515 15.6951 26.3338C15.8887 26.2295 15.9731 26.0211 16.0079 25.8076C16.0277 25.6736 16.0327 25.5396 16.0327 25.4055C16.0327 24.8396 16.0327 24.2688 16.0327 23.7029C16.0327 23.4994 16.0377 23.4944 16.2412 23.4944C16.4149 23.4944 16.6234 23.4249 16.7475 23.5292C16.8765 23.6384 16.7922 23.8568 16.7922 24.0206C16.7922 24.5766 16.7922 25.1375 16.7872 25.6934C16.7872 25.9962 16.6879 26.2792 16.534 26.5373C16.3355 26.8699 16.0228 27.0635 15.6505 27.123C15.0201 27.2273 14.4194 27.1826 13.9677 26.6415C13.784 26.4182 13.6947 26.1501 13.6699 25.8771C13.6053 25.1276 13.655 24.378 13.6401 23.6284C13.6401 23.5341 13.6798 23.4845 13.7791 23.4895C13.789 23.4895 13.7989 23.4895 13.8089 23.4895C13.9975 23.5043 14.2308 23.41 14.3698 23.5292C14.4988 23.6433 14.4045 23.8717 14.4145 24.0504C14.4244 24.2738 14.4145 24.4922 14.4145 24.7155L14.4244 24.7205Z" fill="black"/>
<path d="M20.9228 27.1227C20.7242 27.1227 20.5108 27.1227 20.2924 27.1227C20.1981 27.1227 20.1584 27.0533 20.1286 26.9838C20.064 26.8348 19.9995 26.6859 19.9399 26.532C19.8953 26.4079 19.8258 26.3533 19.6868 26.3583C19.2649 26.3682 18.8429 26.3682 18.416 26.3583C18.282 26.3583 18.2026 26.3881 18.1678 26.532C18.138 26.6412 18.0636 26.7356 18.0239 26.8448C17.9147 27.1227 17.9147 27.1227 17.6119 27.1227C17.4679 27.1227 17.3289 27.1227 17.1602 27.1227C17.2644 26.7653 17.4232 26.4625 17.5573 26.1498C17.8998 25.3606 18.2621 24.5812 18.5997 23.787C18.694 23.5636 18.8032 23.4346 19.0613 23.4842C19.1159 23.4941 19.1755 23.4941 19.2351 23.4842C19.3492 23.4693 19.4138 23.519 19.4584 23.6182C19.5627 23.8565 19.6719 24.0898 19.7761 24.3231C20.1683 25.2067 20.5555 26.0903 20.9476 26.9738C20.9625 27.0086 20.9774 27.0433 20.9327 27.1128L20.9228 27.1227ZM19.0415 24.4571C18.8727 24.9039 18.6692 25.2712 18.5451 25.6931C18.9025 25.6832 19.2351 25.708 19.5726 25.6733L19.0415 24.4571Z" fill="black"/>
<path d="M30.9544 25.316C30.9544 25.8372 30.9544 26.3584 30.9544 26.8747C30.9544 27.1179 30.9544 27.1179 30.726 27.1229C30.3885 27.1328 30.2197 26.9674 30.2197 26.6265C30.2197 25.6734 30.2197 24.7204 30.2197 23.7673C30.2197 23.4943 30.2197 23.4943 30.4779 23.4893C30.7955 23.486 30.9544 23.6415 30.9544 23.9559C30.9544 24.4076 30.9544 24.8594 30.9544 25.316Z" fill="black"/>
<path d="M19.0413 24.4573L19.5724 25.6734C19.2299 25.7082 18.9023 25.6834 18.5449 25.6933C18.669 25.2664 18.8725 24.904 19.0413 24.4573Z" fill="#BD1A2F"/>
</svg>
