<svg width="143" height="49" viewBox="0 0 143 49" fill="none" xmlns="http://www.w3.org/2000/svg">
<path d="M136.746 0H7.0885C3.63422 0 0.833984 2.80024 0.833984 6.25451V41.8755C0.833984 45.3297 3.63422 48.13 7.0885 48.13H136.746C140.2 48.13 143 45.3297 143 41.8755V6.25451C143 2.80024 140.2 0 136.746 0Z" fill="#27B83E"/>
<path d="M45.2059 15.2492C44.6301 14.9315 44.1833 14.4947 43.8557 13.9338C43.5281 13.3728 43.3643 12.7474 43.3643 12.0524C43.3643 11.3575 43.5281 10.732 43.8557 10.1711C44.1833 9.6102 44.635 9.17337 45.2108 8.85569C45.7866 8.538 46.4369 8.37915 47.1517 8.37915C47.6878 8.37915 48.1842 8.4685 48.6359 8.6472C49.0876 8.8259 49.4748 9.08899 49.7925 9.4315L49.306 9.91796C48.7402 9.34711 48.0303 9.06417 47.1716 9.06417C46.6007 9.06417 46.0795 9.19323 45.6129 9.45632C45.1463 9.7194 44.779 10.0768 44.5159 10.5285C44.2528 10.9802 44.1188 11.4915 44.1188 12.0524C44.1188 12.6134 44.2528 13.1246 44.5159 13.5813C44.779 14.033 45.1463 14.3954 45.6129 14.6535C46.0795 14.9116 46.6007 15.0457 47.1716 15.0457C48.0403 15.0457 48.7501 14.7578 49.306 14.177L49.7925 14.6634C49.4748 15.006 49.0876 15.269 48.631 15.4527C48.1743 15.6364 47.6779 15.7257 47.1418 15.7257C46.427 15.7257 45.7817 15.5669 45.2059 15.2492Z" fill="white"/>
<path d="M53.1631 13.2487H51.927V15.6611H51.1924V10.2356H51.927V12.6183H53.173L55.0841 10.2356H55.8783L53.7438 12.8665L56.0322 15.6611H55.1635L53.1631 13.2487Z" fill="white"/>
<path d="M60.5787 10.7269C60.956 11.0793 61.1446 11.6055 61.1446 12.3004V15.661H60.4447V14.8171C60.2809 15.1001 60.0376 15.3185 59.7199 15.4773C59.4023 15.6362 59.02 15.7156 58.5782 15.7156C57.9727 15.7156 57.4912 15.5716 57.1338 15.2837C56.7764 14.9958 56.5977 14.6136 56.5977 14.1371C56.5977 13.6605 56.7615 13.3031 57.099 13.0251C57.4316 12.7422 57.9627 12.6032 58.6924 12.6032H60.4149V12.2756C60.4149 11.809 60.2858 11.4516 60.0227 11.2084C59.7597 10.9651 59.3774 10.841 58.8761 10.841C58.5336 10.841 58.201 10.8956 57.8883 11.0098C57.5706 11.124 57.2976 11.2778 57.0742 11.4814L56.7466 10.9353C57.0196 10.702 57.3522 10.5184 57.7344 10.3943C58.1216 10.2652 58.5236 10.2007 58.9505 10.2007C59.6604 10.2007 60.2014 10.3794 60.5787 10.7318V10.7269ZM59.7547 14.8519C60.0525 14.6632 60.2709 14.3902 60.4149 14.0328V13.1443H58.7123C57.784 13.1443 57.3174 13.4669 57.3174 14.1122C57.3174 14.4299 57.4366 14.6781 57.6798 14.8618C57.918 15.0455 58.2556 15.1348 58.6924 15.1348C59.1292 15.1348 59.4569 15.0405 59.7547 14.8519Z" fill="white"/>
<path d="M67.1911 10.2407V15.6663H66.4614V13.4077C65.836 13.6807 65.2205 13.8197 64.6149 13.8197C63.9596 13.8197 63.4533 13.6708 63.091 13.3729C62.7236 13.0751 62.5449 12.6234 62.5449 12.0277V10.2457H63.2746V11.988C63.2746 12.3951 63.4037 12.7028 63.6668 12.9113C63.9298 13.1198 64.2873 13.224 64.7489 13.224C65.2552 13.224 65.8261 13.09 66.4614 12.822V10.2457H67.1911V10.2407Z" fill="white"/>
<path d="M72.7701 10.7269C73.1474 11.0793 73.336 11.6055 73.336 12.3004V15.661H72.6361V14.8171C72.4723 15.1001 72.229 15.3185 71.9114 15.4773C71.5937 15.6362 71.2114 15.7156 70.7697 15.7156C70.1641 15.7156 69.6826 15.5716 69.3252 15.2837C68.9678 14.9958 68.7891 14.6136 68.7891 14.1371C68.7891 13.6605 68.9529 13.3031 69.2904 13.0251C69.623 12.7422 70.1541 12.6032 70.8838 12.6032H72.6063V12.2756C72.6063 11.809 72.4772 11.4516 72.2141 11.2084C71.9511 10.9651 71.5688 10.841 71.0675 10.841C70.725 10.841 70.3924 10.8956 70.0797 11.0098C69.762 11.124 69.489 11.2778 69.2656 11.4814L68.938 10.9353C69.211 10.702 69.5436 10.5184 69.9258 10.3943C70.313 10.2652 70.7151 10.2007 71.142 10.2007C71.8518 10.2007 72.3929 10.3794 72.7701 10.7318V10.7269ZM71.9461 14.8519C72.2439 14.6632 72.4623 14.3902 72.6063 14.0328V13.1443H70.9037C69.9754 13.1443 69.5088 13.4669 69.5088 14.1122C69.5088 14.4299 69.628 14.6781 69.8712 14.8618C70.1095 15.0455 70.447 15.1348 70.8838 15.1348C71.3207 15.1348 71.6483 15.0405 71.9461 14.8519Z" fill="white"/>
<path d="M79.1044 10.891H77.0493V15.6663H76.3196V10.891H74.2695V10.2407H79.1093V10.891H79.1044Z" fill="white"/>
<path d="M84.0488 12.6135C84.4012 12.9113 84.5799 13.3332 84.5799 13.8942C84.5799 14.4551 84.3913 14.9167 84.0091 15.2245C83.6268 15.5322 83.0758 15.6861 82.3561 15.6762L80.167 15.6663V10.2407H80.9016V12.1369L82.5 12.1568C83.1801 12.1618 83.6963 12.3156 84.0537 12.6085L84.0488 12.6135ZM83.4481 14.8174C83.7063 14.609 83.8353 14.3012 83.8353 13.8942C83.8353 13.4871 83.7063 13.1992 83.4531 13.0056C83.1999 12.812 82.8177 12.7127 82.3064 12.7078L80.8917 12.6879V15.1004L82.3064 15.1202C82.8078 15.1252 83.19 15.0259 83.4481 14.8174Z" fill="white"/>
<path d="M88.6748 10.2407H89.4095V14.5544L93.0281 10.2407H93.6784V15.6663H92.9438V11.3526L89.335 15.6663H88.6748V10.2407Z" fill="white"/>
<path d="M99.1928 13.3034C99.4013 13.5218 99.5055 13.7898 99.5055 14.1075C99.5055 14.4252 99.3963 14.7032 99.1779 14.9514C98.9595 15.1996 98.6666 15.3882 98.2943 15.5222C97.922 15.6563 97.515 15.7257 97.0682 15.7257C96.6761 15.7257 96.2889 15.6711 95.9116 15.557C95.5344 15.4428 95.2018 15.279 94.9238 15.0556L95.172 14.5096C95.4202 14.6933 95.7081 14.8372 96.0407 14.9415C96.3733 15.0457 96.7059 15.0953 97.0434 15.0953C97.5448 15.0953 97.9568 15.001 98.2745 14.8124C98.5922 14.6238 98.756 14.3656 98.756 14.043C98.756 13.7551 98.6269 13.5267 98.3638 13.3679C98.1007 13.209 97.7433 13.1247 97.2916 13.1247H96.3634V12.5886H97.2519C97.6589 12.5886 97.9866 12.5091 98.2347 12.3553C98.4829 12.2014 98.607 11.9929 98.607 11.7298C98.607 11.4419 98.4681 11.2136 98.1901 11.0498C97.9121 10.8859 97.5497 10.8016 97.103 10.8016C96.5172 10.8016 95.9414 10.9505 95.3706 11.2433L95.1621 10.6775C95.8074 10.3399 96.4775 10.1711 97.1725 10.1711C97.5845 10.1711 97.9568 10.2307 98.2894 10.3498C98.6219 10.469 98.885 10.6427 99.0736 10.8611C99.2623 11.0795 99.3566 11.3377 99.3566 11.6256C99.3566 11.9135 99.2623 12.1468 99.0736 12.3602C98.885 12.5737 98.6269 12.7325 98.3042 12.8368C98.6914 12.9261 98.9843 13.08 99.1977 13.3034H99.1928Z" fill="white"/>
<path d="M11.1593 25.7433C11.1394 20.8687 12.7775 18.1783 15.8204 17.0217C17.1854 16.5005 18.5753 16.4409 19.851 17.1061C21.5437 17.9896 23.0875 17.7762 24.7653 17.0564C27.1927 16.019 29.4314 16.5799 31.4368 18.2478C32.1417 18.8335 32.3005 19.2058 31.4616 19.9355C28.3989 22.5912 28.801 27.2374 32.2509 29.3619C32.9409 29.7839 32.9309 30.0916 32.6728 30.722C31.9233 32.5686 30.8659 34.2266 29.5158 35.676C28.384 36.8872 26.9991 37.3141 25.4057 36.5546C23.4548 35.6214 21.5239 35.676 19.583 36.6092C18.1484 37.2992 16.8826 36.9517 15.8104 35.8349C12.8321 32.7374 11.3032 29.0343 11.1543 25.7383L11.1593 25.7433Z" fill="#FCFCFC"/>
<path d="M70.0655 35.6657C70.0655 37.2938 70.0159 38.6688 70.0854 40.0389C70.135 40.9671 69.5443 40.8132 69.0331 40.7686C68.5416 40.7239 67.802 41.1309 67.802 40.0687C67.802 35.7947 67.7772 31.5159 67.7325 27.2419C67.7275 26.7207 67.9311 26.5271 68.3877 26.6363C68.8444 26.7505 69.5294 26.2144 69.7379 27.0533C69.8074 27.3313 69.7826 27.6341 69.8124 28.1305C70.6711 27.1476 71.6044 26.5569 72.7957 26.4179C74.9599 26.1598 76.7618 27.5845 77.3277 30.0416C78.0227 33.0547 76.7569 35.899 74.3196 36.7379C72.8056 37.2591 71.4356 36.9364 70.0655 35.6657ZM70.0655 31.7789H70.0854C70.0854 32.1562 70.0457 32.5335 70.0904 32.9058C70.2393 34.1517 71.103 35.0402 72.2447 35.1544C73.4062 35.2735 74.399 34.6183 74.8706 33.4468C75.1287 32.8065 75.1387 32.1413 75.1287 31.4712C75.1039 29.4906 74.1062 28.195 72.617 28.1801C71.0434 28.1603 70.0705 29.436 70.0606 31.5258C70.0606 31.6102 70.0606 31.6946 70.0606 31.7789H70.0655Z" fill="#F4F4F4"/>
<path d="M58.4255 35.7058C58.4255 37.2198 58.3411 38.565 58.4503 39.8954C58.5397 40.9676 57.9043 40.774 57.2888 40.7888C56.6186 40.8087 56.1322 40.8484 56.1471 39.8457C56.1967 35.6909 56.1471 31.5312 56.1123 27.3764C56.1123 26.885 56.157 26.4978 56.7527 26.6368C57.2292 26.746 58.0234 26.1652 58.1128 27.2027C58.1326 27.4459 58.1624 27.6842 58.1971 28.0465C58.8425 27.5104 59.324 26.9247 60.0487 26.6715C62.481 25.8326 64.7495 26.9793 65.509 29.4563C66.1493 31.5411 65.9855 33.5515 64.6651 35.3236C63.171 37.3241 60.6592 37.4879 58.4255 35.7058ZM63.4936 31.5957C63.4936 30.8313 63.4192 30.0916 62.9972 29.4215C62.1732 28.1111 60.7337 27.7934 59.5374 28.6819C57.9887 29.8236 57.9142 33.5018 59.4232 34.6882C60.0239 35.1598 60.7138 35.264 61.4485 35.0853C62.7888 34.7627 63.5036 33.5465 63.4936 31.6007V31.5957Z" fill="#F4F4F4"/>
<path d="M42.3926 36.6139C43.3456 33.6504 44.2838 30.7069 45.2369 27.7633C45.6985 26.3287 46.2247 24.914 46.6218 23.4596C46.8303 22.6902 47.3019 22.5512 47.9124 22.6852C48.5875 22.8391 49.5058 22.1392 49.893 23.3801C51.2035 27.5746 52.5735 31.7542 53.9485 35.9289C54.1521 36.5494 54.0528 36.6834 53.3975 36.733C52.3055 36.8174 51.7098 36.5643 51.3475 35.3729C50.4788 32.5336 50.3894 32.6328 47.4061 32.5236C46.18 32.479 45.629 32.8612 45.5049 34.0327C45.4702 34.3603 45.3064 34.673 45.2021 34.9907C44.7885 36.2317 43.852 36.7711 42.3926 36.6089V36.6139ZM48.1805 24.7154C47.8678 25.8571 47.6394 26.7754 47.3565 27.6789C46.6284 29.9954 47.5286 31.0378 50.0568 30.8061C49.4512 28.8454 48.8506 26.8946 48.1755 24.7154H48.1805Z" fill="#F4F4F4"/>
<path d="M86.9484 22.4867C87.5689 22.5711 88.1894 22.6704 88.8148 22.7349C89.9813 22.859 90.0012 23.4447 89.5842 24.3581C89.3807 24.8098 89.2417 24.9339 88.7751 24.7353C88.0752 24.4425 87.3356 24.2936 86.5662 24.3482C85.5982 24.4226 84.7047 24.646 84.4118 25.7182C84.1091 26.845 84.7097 27.5648 85.6528 28.0463C86.586 28.5178 87.5639 28.905 88.4723 29.4113C89.9317 30.2204 90.6366 31.5111 90.4579 33.174C90.2792 34.8667 89.341 35.9835 87.693 36.5494C85.9804 37.1352 84.3275 36.9962 82.6348 36.475C81.6668 36.1771 81.8753 35.646 82.059 34.9362C82.2972 34.0079 82.7638 34.3852 83.2503 34.6085C84.2828 35.0851 85.3748 35.1 86.4619 34.9411C87.3157 34.817 87.9511 34.3306 88.1447 33.4619C88.3333 32.6329 88.1298 31.8883 87.415 31.3324C86.7101 30.7814 85.8663 30.5133 85.0621 30.1708C82.4015 29.0341 81.3193 26.8549 82.4511 24.7056C83.3893 22.9235 85.0572 22.4768 86.9434 22.4817L86.9484 22.4867Z" fill="#F4F4F4"/>
<path d="M109.142 31.6055C109.127 34.7576 107.012 36.9764 104.039 36.9566C101.195 36.9367 99.1395 34.7079 99.1693 31.67C99.204 28.5676 101.264 26.4232 104.223 26.4083C107.146 26.3934 109.152 28.513 109.142 31.6055ZM106.739 31.9232C106.69 31.1538 106.719 30.4787 106.451 29.8433C106.039 28.8654 105.463 28.1357 104.272 28.0811C103.026 28.0265 102.297 28.6867 101.875 29.7242C101.403 30.8808 101.393 32.1068 101.77 33.2833C102.133 34.4299 102.828 35.2788 104.193 35.249C105.563 35.2192 106.158 34.2959 106.541 33.1741C106.685 32.7472 106.69 32.2706 106.744 31.9232H106.739Z" fill="#F4F4F4"/>
<path d="M123.04 32.1961C122.241 32.1961 121.437 32.2557 120.643 32.1812C119.695 32.0918 119.551 32.4492 119.843 33.2584C120.285 34.4696 121.189 35.0305 122.41 35.1645C123.214 35.2538 124.013 35.1446 124.788 34.9411C125.314 34.8021 125.651 34.7724 125.76 35.4326C125.85 35.9736 125.939 36.3509 125.195 36.5395C124.162 36.7976 123.135 37.0111 122.082 36.9118C120.156 36.7232 118.617 35.924 117.903 33.993C117.079 31.7642 117.362 29.6645 118.905 27.8576C120.146 26.4082 121.804 26.1401 123.621 26.6018C125.899 27.1875 126.684 29.9028 126.44 31.7742C126.376 32.2854 126.019 32.1961 125.691 32.2011C124.807 32.2011 123.924 32.2011 123.04 32.2011V32.1961ZM121.998 30.6176C122.251 30.6176 122.514 30.6672 122.752 30.6076C123.269 30.4786 124.107 30.9948 124.266 30.2651C124.45 29.4113 123.959 28.627 123.149 28.1853C122.117 27.6293 120.811 28.0215 120.201 29.0688C119.958 29.4858 119.541 29.9723 119.824 30.4488C120.042 30.8211 120.593 30.5729 120.995 30.6076C121.328 30.6374 121.67 30.6126 122.003 30.6126L121.998 30.6176Z" fill="#F4F4F4"/>
<path d="M93.2572 31.4961C93.2572 30.7416 93.2224 29.987 93.2671 29.2325C93.3068 28.5773 93.1778 28.1852 92.4034 28.2795C91.6588 28.3688 91.8028 27.8029 91.768 27.3562C91.7283 26.8399 91.8673 26.5272 92.4481 26.6265C93.2919 26.7704 93.277 26.2542 93.2671 25.6585C93.2572 24.9189 94.5478 23.9559 95.2378 24.1644C95.7193 24.3083 95.5108 24.7452 95.4711 25.0083C95.2924 26.2542 95.6548 26.8945 97.0298 26.6315C97.6056 26.5222 97.953 26.6563 97.9431 27.3959C97.9332 28.1107 97.7197 28.4284 97.0049 28.2993C95.7242 28.0561 95.3371 28.5773 95.4612 29.8381C95.5803 31.0394 95.486 32.2655 95.5009 33.4816C95.5108 34.4645 95.893 35.1148 97.0049 35.0155C97.4765 34.9758 97.8438 34.9956 97.7892 35.626C97.7446 36.1324 97.9878 36.6784 97.1588 36.8769C95.1087 37.3684 93.4409 36.2465 93.287 34.1369C93.2224 33.2632 93.277 32.3797 93.277 31.4961H93.2522H93.2572Z" fill="#EFEFEF"/>
<path d="M113.078 28.2948C113.833 27.2226 114.508 26.5624 115.54 26.4283C115.982 26.3737 116.498 26.3439 116.399 26.9694C116.31 27.5105 116.935 28.3692 115.848 28.5578C113.977 28.8805 113.416 29.4563 113.346 31.3575C113.292 32.8665 113.282 34.3855 113.346 35.8945C113.386 36.8674 112.78 36.7086 112.2 36.7185C111.594 36.7284 111.078 36.8178 111.093 35.8647C111.137 33.0105 111.093 30.1513 111.048 27.297C111.043 26.8254 111.137 26.5177 111.644 26.6368C112.1 26.7411 112.785 26.2099 112.984 27.0637C113.048 27.3367 113.034 27.6296 113.078 28.2948Z" fill="#F4F4F4"/>
<path d="M27.3809 10.9454C27.2766 13.4869 25.3804 15.6859 22.9878 16.222C22.1092 16.4206 21.9851 16.083 22.0348 15.3285C22.1936 13.0948 24.2784 10.7022 26.4824 10.2505C27.1674 10.1065 27.5794 10.2008 27.3809 10.9454Z" fill="#F4F4F4"/>
</svg>
