<svg width="143" height="49" viewBox="0 0 143 49" fill="none" xmlns="http://www.w3.org/2000/svg">
<path d="M135.912 0H6.25452C2.80024 0 0 2.80024 0 6.25451V41.8755C0 45.3297 2.80024 48.13 6.25452 48.13H135.912C139.366 48.13 142.166 45.3297 142.166 41.8755V6.25451C142.166 2.80024 139.366 0 135.912 0Z" fill="#FFFFFF"/>
<path d="M44.3719 15.2492C43.7961 14.9315 43.3493 14.4947 43.0217 13.9338C42.6941 13.3728 42.5303 12.7474 42.5303 12.0524C42.5303 11.3575 42.6941 10.732 43.0217 10.1711C43.3493 9.6102 43.801 9.17338 44.3768 8.85569C44.9527 8.538 45.6029 8.37915 46.3177 8.37915C46.8538 8.37915 47.3502 8.4685 47.8019 8.64721C48.2537 8.82591 48.6408 9.08899 48.9585 9.4315L48.4721 9.91796C47.9062 9.34711 47.1963 9.06417 46.3376 9.06417C45.7667 9.06417 45.2455 9.19324 44.7789 9.45632C44.3123 9.71941 43.945 10.0768 43.6819 10.5285C43.4188 10.9802 43.2848 11.4915 43.2848 12.0524C43.2848 12.6134 43.4188 13.1246 43.6819 13.5813C43.945 14.033 44.3123 14.3954 44.7789 14.6535C45.2455 14.9116 45.7667 15.0457 46.3376 15.0457C47.2063 15.0457 47.9161 14.7578 48.4721 14.177L48.9585 14.6634C48.6408 15.006 48.2537 15.269 47.797 15.4527C47.3403 15.6364 46.8439 15.7257 46.3078 15.7257C45.593 15.7257 44.9477 15.5669 44.3719 15.2492Z" fill="black"/>
<path d="M52.334 13.2487H51.0979V15.6611H50.3633V10.2356H51.0979V12.6183H52.3439L54.255 10.2356H55.0492L52.9147 12.8665L55.2031 15.6611H54.3344L52.334 13.2487Z" fill="black"/>
<path d="M59.7496 10.7271C60.1269 11.0795 60.3155 11.6057 60.3155 12.3007V15.6612H59.6156V14.8173C59.4518 15.1003 59.2085 15.3187 58.8908 15.4775C58.5732 15.6364 58.1909 15.7158 57.7491 15.7158C57.1436 15.7158 56.6621 15.5719 56.3047 15.284C55.9473 14.9961 55.7686 14.6138 55.7686 14.1373C55.7686 13.6608 55.9324 13.3034 56.2699 13.0254C56.6025 12.7424 57.1336 12.6035 57.8633 12.6035H59.5858V12.2758C59.5858 11.8092 59.4567 11.4518 59.1936 11.2086C58.9306 10.9654 58.5483 10.8413 58.047 10.8413C57.7045 10.8413 57.3719 10.8959 57.0592 11.01C56.7415 11.1242 56.4685 11.2781 56.2451 11.4816L55.9175 10.9356C56.1905 10.7023 56.5231 10.5186 56.9053 10.3945C57.2925 10.2655 57.6945 10.2009 58.1214 10.2009C58.8313 10.2009 59.3723 10.3796 59.7496 10.7321V10.7271ZM58.9256 14.8521C59.2234 14.6635 59.4418 14.3905 59.5858 14.0331V13.1445H57.8832C56.9549 13.1445 56.4883 13.4672 56.4883 14.1125C56.4883 14.4302 56.6075 14.6784 56.8507 14.862C57.0889 15.0457 57.4265 15.135 57.8633 15.135C58.3001 15.135 58.6278 15.0407 58.9256 14.8521Z" fill="black"/>
<path d="M66.3571 10.2356V15.6611H65.6275V13.4026C65.002 13.6756 64.3865 13.8146 63.7809 13.8146C63.1256 13.8146 62.6193 13.6656 62.257 13.3678C61.8896 13.07 61.7109 12.6183 61.7109 12.0226V10.2406H62.4406V11.9829C62.4406 12.3899 62.5697 12.6977 62.8328 12.9062C63.0959 13.1147 63.4533 13.2189 63.9149 13.2189C64.4212 13.2189 64.9921 13.0849 65.6275 12.8168V10.2406H66.3571V10.2356Z" fill="black"/>
<path d="M71.941 10.7271C72.3183 11.0795 72.5069 11.6057 72.5069 12.3007V15.6612H71.807V14.8173C71.6432 15.1003 71.3999 15.3187 71.0823 15.4775C70.7646 15.6364 70.3823 15.7158 69.9406 15.7158C69.335 15.7158 68.8535 15.5719 68.4961 15.284C68.1387 14.9961 67.96 14.6138 67.96 14.1373C67.96 13.6608 68.1238 13.3034 68.4613 13.0254C68.7939 12.7424 69.325 12.6035 70.0547 12.6035H71.7772V12.2758C71.7772 11.8092 71.6481 11.4518 71.385 11.2086C71.122 10.9654 70.7397 10.8413 70.2384 10.8413C69.8959 10.8413 69.5633 10.8959 69.2506 11.01C68.9329 11.1242 68.6599 11.2781 68.4365 11.4816L68.1089 10.9356C68.3819 10.7023 68.7145 10.5186 69.0967 10.3945C69.4839 10.2655 69.886 10.2009 70.3129 10.2009C71.0227 10.2009 71.5638 10.3796 71.941 10.7321V10.7271ZM71.117 14.8521C71.4148 14.6635 71.6332 14.3905 71.7772 14.0331V13.1445H70.0746C69.1463 13.1445 68.6797 13.4672 68.6797 14.1125C68.6797 14.4302 68.7989 14.6784 69.0421 14.862C69.2804 15.0457 69.6179 15.135 70.0547 15.135C70.4916 15.135 70.8192 15.0407 71.117 14.8521Z" fill="black"/>
<path d="M78.2753 10.8859H76.2202V15.6611H75.4905V10.8859H73.4404V10.2356H78.2802V10.8859H78.2753Z" fill="black"/>
<path d="M83.2197 12.6083C83.5721 12.9062 83.7508 13.3281 83.7508 13.889C83.7508 14.4499 83.5622 14.9116 83.18 15.2193C82.7977 15.5271 82.2467 15.681 81.527 15.6711L79.3379 15.6611V10.2356H80.0725V12.1318L81.6709 12.1517C82.351 12.1566 82.8672 12.3105 83.2246 12.6034L83.2197 12.6083ZM82.619 14.8123C82.8772 14.6038 83.0062 14.2961 83.0062 13.889C83.0062 13.482 82.8771 13.1941 82.624 13.0005C82.3708 12.8069 81.9886 12.7076 81.4773 12.7027L80.0626 12.6828V15.0953L81.4773 15.1151C81.9787 15.1201 82.3609 15.0208 82.619 14.8123Z" fill="black"/>
<path d="M87.8457 10.2356H88.5804V14.5492L92.199 10.2356H92.8493V15.6611H92.1147V11.3475L88.5059 15.6611H87.8457V10.2356Z" fill="black"/>
<path d="M98.3588 13.2985C98.5673 13.5169 98.6715 13.7849 98.6715 14.1026C98.6715 14.4203 98.5623 14.6983 98.3439 14.9465C98.1255 15.1947 97.8326 15.3833 97.4603 15.5173C97.088 15.6514 96.681 15.7209 96.2342 15.7209C95.8421 15.7209 95.4549 15.6663 95.0777 15.5521C94.7004 15.4379 94.3678 15.2741 94.0898 15.0507L94.338 14.5047C94.5862 14.6884 94.8741 14.8323 95.2067 14.9366C95.5393 15.0408 95.8719 15.0904 96.2094 15.0904C96.7108 15.0904 97.1228 14.9961 97.4405 14.8075C97.7582 14.6189 97.922 14.3608 97.922 14.0381C97.922 13.7502 97.7929 13.5219 97.5298 13.363C97.2667 13.2042 96.9093 13.1198 96.4576 13.1198H95.5294V12.5837H96.4179C96.825 12.5837 97.1526 12.5043 97.4008 12.3504C97.649 12.1965 97.7731 11.988 97.7731 11.7249C97.7731 11.437 97.6341 11.2087 97.3561 11.0449C97.0781 10.8811 96.7157 10.7967 96.269 10.7967C95.6833 10.7967 95.1074 10.9456 94.5366 11.2385L94.3281 10.6726C94.9734 10.335 95.6435 10.1663 96.3385 10.1663C96.7505 10.1663 97.1228 10.2258 97.4554 10.345C97.7879 10.4641 98.051 10.6378 98.2397 10.8562C98.4283 11.0747 98.5226 11.3328 98.5226 11.6207C98.5226 11.9086 98.4283 12.1419 98.2397 12.3553C98.051 12.5688 97.7929 12.7276 97.4703 12.8319C97.8574 12.9212 98.1503 13.0751 98.3638 13.2985H98.3588Z" fill="black"/>
<path d="M9.6545 37.4622C9.05387 37.0999 9.04395 36.4744 9.04395 35.9036C9.04395 29.252 9.06876 22.5954 9.08862 15.9437C9.80342 15.8792 10.2353 16.326 10.687 16.7826C13.581 19.6915 16.4898 22.5854 19.3937 25.4844C19.7461 25.8368 20.0489 26.2538 20.5602 26.4076C16.9266 30.0909 13.2881 33.779 9.6545 37.4622Z" fill="#01D3FD"/>
<path d="M52.1207 27.5741C52.7114 27.5741 53.2971 27.5741 53.8878 27.5741C55.372 27.5741 55.506 27.7231 55.377 29.247C55.0692 32.8309 52.7114 35.1441 49.2813 35.2334C45.5187 35.3277 42.3219 32.8508 41.8454 29.4207C41.4284 26.4175 42.5006 24.0051 45.057 22.4067C47.5489 20.8481 50.155 20.8282 52.6717 22.4514C53.034 22.6847 53.9027 22.8833 53.2574 23.6179C52.8404 24.0944 52.5277 24.7993 51.5597 24.1342C49.6189 22.8088 47.3106 23.0322 45.613 24.5064C43.96 25.936 43.4487 28.3336 44.3671 30.3688C45.2606 32.3494 47.261 33.4861 49.5146 33.2231C51.1229 33.0344 52.3639 32.2749 53.039 30.7312C53.3666 29.9866 53.3418 29.5398 52.3291 29.6044C51.4505 29.6639 50.557 29.5696 49.6784 29.6292C48.8842 29.6788 48.7998 29.2718 48.7998 28.6364C48.7998 27.9663 48.8395 27.4848 49.7281 27.5592C50.5223 27.6287 51.3264 27.5741 52.1256 27.5741H52.1207Z" fill="black"/>
<path d="M9.54492 11.4068C10.1753 10.5779 10.9795 10.7764 11.6844 11.1735C16.8419 14.0874 21.9795 17.0409 27.1271 19.9795C25.7521 21.429 24.3771 22.8735 22.9971 24.3229L22.6198 24.4123C18.2615 20.0788 13.9032 15.7403 9.54492 11.4068Z" fill="#04EB76"/>
<path d="M22.625 24.4121C22.7491 24.3823 22.8732 24.3525 23.0022 24.3228C23.1065 24.8539 23.5582 25.1219 23.8858 25.4843C24.9133 26.6161 26.1444 27.5493 27.0279 28.8101C25.1218 30.2496 22.9427 31.2325 20.8926 32.4288C17.9639 34.1364 15.0004 35.7844 12.0419 37.4423C11.2676 37.8792 10.4535 38.3061 9.6543 37.4622C13.2879 33.779 16.9264 30.0908 20.56 26.4076C21.25 25.7424 21.935 25.0773 22.625 24.4121Z" fill="#EF3549"/>
<path d="M82.207 34.5138C80.1469 35.581 78.4493 35.4271 77.0147 34.1018C75.6745 32.8657 75.2029 30.8305 75.8631 29.123C76.5382 27.3707 78.1515 26.229 79.9186 26.2439C80.0874 26.2439 80.2661 26.224 80.42 26.2687C81.3681 26.5417 82.2616 26.9587 83.3139 26.5219C83.9245 26.2687 84.272 26.6311 84.2571 27.3806C84.2124 29.9023 84.2918 32.424 84.2124 34.9407C84.1429 37.1645 83.1005 38.5643 81.3383 39.0756C79.4818 39.6166 77.5608 39.0359 76.4836 37.5517C76.2602 37.2489 75.6199 36.7872 76.29 36.4447C76.7616 36.2015 77.3523 35.4073 78.0075 36.3405C78.7223 37.3531 79.7349 37.6857 80.8915 37.2191C82.0432 36.7574 82.3162 35.7796 82.197 34.5138H82.207ZM82.4006 30.8008C82.4204 29.252 81.4028 28.0855 80.0576 28.1004C78.6876 28.1153 77.6253 29.2719 77.6203 30.7561C77.6203 32.2105 78.7173 33.3969 80.0725 33.4018C81.373 33.4018 82.3857 32.275 82.4006 30.8008Z" fill="black"/>
<path d="M100.941 28.3137C100.941 26.4225 100.96 24.5312 100.931 22.64C100.921 21.9947 101.104 21.7366 101.784 21.7564C103.214 21.7961 104.649 21.7167 106.073 21.7862C108.426 21.9053 110.084 23.6973 110.049 25.9807C110.02 28.1797 108.317 29.8525 106.004 29.9965C105.051 30.0561 103.8 29.5547 103.224 30.2298C102.638 30.9198 103.095 32.1608 103.04 33.1585C103.025 33.4514 103.001 33.7542 103.04 34.0421C103.164 34.876 102.747 35.0051 102.023 35.0001C101.273 34.9951 100.876 34.9058 100.916 33.9875C100.995 32.1012 100.941 30.205 100.941 28.3137ZM103.03 25.9162C103.065 28.3137 102.723 28.0655 104.604 28.0755C106.957 28.0953 108.009 27.4053 108.019 25.8914C108.029 24.3774 106.992 23.6725 104.763 23.6725C103.611 23.6725 103.035 24.4187 103.035 25.9112L103.03 25.9162Z" fill="black"/>
<path d="M22.6252 24.4122C21.9352 25.0774 21.2502 25.7426 20.5602 26.4077C20.0489 26.2538 19.7461 25.8319 19.3937 25.4844C16.4848 22.5905 13.581 19.6916 10.687 16.7827C10.2353 16.331 9.80343 15.8843 9.08863 15.9438C9.15316 14.4199 8.59224 12.8364 9.55028 11.4019C13.9086 15.7353 18.2669 20.0738 22.6252 24.4073V24.4122Z" fill="#01C3F6"/>
<path d="M27.0287 28.8152C26.1451 27.5543 24.9091 26.6211 23.8865 25.4893C23.5589 25.127 23.1072 24.8589 23.0029 24.3278C24.3779 22.8783 25.7529 21.4338 27.1329 19.9844C28.9 20.9672 30.692 21.9004 32.4244 22.9478C33.7398 23.742 33.849 24.9781 32.623 25.7524C30.826 26.8842 29.0341 28.0358 27.0386 28.8201L27.0287 28.8152Z" fill="#F9C302"/>
<path d="M119.898 29.7135C119.371 28.1449 117.897 27.5442 116.78 28.4526C116.085 29.0136 115.624 28.8249 114.993 28.5718C114.328 28.3087 114.447 27.9711 114.785 27.5294C115.668 26.3728 117.689 25.8813 119.426 26.4224C120.955 26.894 121.873 28.0754 121.908 29.6837C121.938 31.0686 121.933 32.4535 121.903 33.8385C121.893 34.2157 122.166 34.8015 121.615 34.9256C121.119 35.0397 120.389 35.2383 120.071 34.7816C119.719 34.2753 119.58 34.4788 119.252 34.6972C118.945 34.9007 118.582 35.0596 118.22 35.144C116.358 35.5709 114.517 34.5185 114.174 32.8606C113.832 31.1977 115.008 29.7582 117.009 29.3859C117.937 29.2121 118.84 29.3015 119.898 29.7184V29.7135ZM118.334 30.9892C117.053 30.9991 116.145 31.5203 116.185 32.25C116.234 33.1832 116.949 33.3619 117.713 33.3719C118.662 33.3818 119.922 32.4684 119.828 31.7387C119.709 30.7708 118.806 31.158 118.329 30.9892H118.334Z" fill="black"/>
<path d="M92.9535 35.2289C90.2631 35.2438 88.347 33.2781 88.4314 30.5877C88.5158 27.9171 90.3872 26.1201 92.9535 26.2492C94.5072 26.3237 95.9914 27.52 96.5474 29.0141C96.7956 29.6842 96.4133 29.8133 95.9666 29.9969C94.4873 30.6025 93.023 31.233 91.5338 31.8137C90.7744 32.1066 90.9084 32.4293 91.3948 32.8562C92.2635 33.6156 93.6236 33.6355 94.5916 32.6824C95.4652 31.8237 95.9219 32.6626 96.3538 33.0299C96.9048 33.4965 96.1999 33.8142 95.9269 34.0822C95.1128 34.8864 94.1002 35.2537 92.9535 35.2239V35.2289ZM90.4567 30.5082C91.6381 30.0317 92.6259 29.6346 93.6087 29.2275C93.8271 29.1382 94.1448 29.0886 94.1299 28.7758C94.1151 28.4433 93.7974 28.3291 93.5392 28.2099C92.2586 27.6192 90.8637 28.5475 90.4567 30.5033V30.5082Z" fill="black"/>
<path d="M60.5647 35.2288C57.9388 35.2387 55.9681 33.3376 55.9532 30.7712C55.9383 28.1999 57.8991 26.2491 60.4952 26.2441C63.0913 26.2441 65.0719 28.2098 65.052 30.7663C65.0272 33.2929 63.0913 35.2139 60.5647 35.2238V35.2288ZM58.0232 30.7365C58.0232 32.2058 59.0954 33.3723 60.4654 33.3971C61.8801 33.417 63.0218 32.1909 62.992 30.6868C62.9622 29.2175 61.8553 28.0758 60.4803 28.1006C59.0954 28.1205 58.0281 29.2672 58.0281 30.7414L58.0232 30.7365Z" fill="black"/>
<path d="M70.3478 35.2287C67.6921 35.2387 65.8009 33.3772 65.7959 30.7563C65.7909 28.1353 67.6872 26.2441 70.318 26.249C72.9141 26.249 74.8798 28.2247 74.8451 30.791C74.8103 33.3276 72.8893 35.2238 70.3478 35.2287ZM70.323 28.0956C68.9381 28.0807 67.851 29.2075 67.8261 30.6818C67.8013 32.1908 68.9331 33.4219 70.3329 33.3971C71.6831 33.3772 72.795 32.171 72.795 30.7314C72.795 29.272 71.7029 28.1105 70.318 28.0956H70.323Z" fill="black"/>
<path d="M126.609 31.8927C127.219 30.3738 127.815 28.8647 128.43 27.3607C128.728 26.631 130.039 26.1743 130.704 26.5267C131.066 26.7203 130.853 26.9487 130.763 27.1472C129.13 30.9148 127.507 34.6824 125.844 38.4351C125.417 39.3932 124.529 38.872 123.834 38.872C123.566 38.872 123.665 38.5543 123.739 38.3656C123.834 38.1323 123.908 37.8841 124.052 37.6806C125.581 35.5163 125.402 33.3968 124.052 31.1978C123.402 30.1355 122.975 28.9293 122.543 27.7478C122.414 27.3954 121.63 26.7948 122.454 26.5764C123.035 26.4175 123.993 26.0353 124.415 27.0579C124.956 28.3733 125.487 29.6987 126.043 31.0091C126.167 31.307 126.182 31.6793 126.609 31.8977V31.8927Z" fill="black"/>
<path d="M111.042 28.3436C111.042 26.4573 111.087 24.571 111.022 22.6897C110.992 21.8161 111.404 21.7664 112.089 21.7615C112.774 21.7615 113.161 21.831 113.152 22.6897C113.107 26.502 113.107 30.3143 113.152 34.1266C113.161 35.0647 112.635 34.9654 112.025 34.9853C111.394 35.0052 111.007 34.9307 111.027 34.1266C111.077 32.2006 111.042 30.2746 111.042 28.3436Z" fill="#F4F4F4"/>
<path d="M87.5329 28.4725C87.5329 30.3191 87.4982 32.1607 87.5478 34.0073C87.5677 34.7916 87.2996 35.0199 86.5402 35.0001C85.8601 34.9802 85.463 34.9405 85.4729 34.0669C85.5176 30.2943 85.5126 26.5217 85.4729 22.7492C85.463 21.9698 85.7211 21.7614 86.4806 21.7465C87.3096 21.7316 87.5727 21.9847 87.5478 22.8137C87.4932 24.7 87.5329 26.5863 87.5329 28.4725Z" fill="black"/>
</svg>
