<svg width="40" height="40" viewBox="0 0 40 40" fill="none" xmlns="http://www.w3.org/2000/svg">
<rect width="40" height="40" rx="7" fill="#FFA200"/>
<path d="M24.6289 19.7168C26.5537 19.7168 28.1797 18.0117 28.1797 15.8057C28.1797 13.6523 26.5449 12 24.6289 12C22.7217 12 21.0781 13.6787 21.0869 15.8232C21.0869 18.0117 22.7041 19.7168 24.6289 19.7168ZM14.4688 19.9189C16.1475 19.9189 17.5625 18.4248 17.5625 16.5088C17.5625 14.6279 16.1299 13.1953 14.4688 13.1953C12.8076 13.1953 11.375 14.6543 11.3838 16.5264C11.3838 18.4248 12.7988 19.9189 14.4688 19.9189ZM9.62598 27.8994H16.2178C15.2773 26.5547 16.2881 23.9004 18.2744 22.3359C17.3076 21.7119 16.0508 21.2549 14.4688 21.2549C10.54 21.2549 8 24.1465 8 26.5283C8 27.3984 8.43945 27.8994 9.62598 27.8994ZM19.1533 27.8906H30.1045C31.5547 27.8906 32.0557 27.4512 32.0557 26.6426C32.0557 24.3838 29.1816 21.2725 24.6289 21.2725C20.0674 21.2725 17.2021 24.3838 17.2021 26.6426C17.2021 27.4512 17.7031 27.8906 19.1533 27.8906Z" fill="white"/>
</svg>
