<svg width="60" height="60" viewBox="0 0 60 60" fill="none" xmlns="http://www.w3.org/2000/svg">
<rect width="60" height="60" rx="7" fill="#FFA200"/>
<path d="M18.569 43H42.431C45.4398 43 47 41.4534 47 38.4855V21.5145C47 18.5466 45.4398 17 42.431 17H18.569C15.5602 17 14 18.5327 14 21.5145V38.4855C14 41.4534 15.5602 43 18.569 43ZM24.7818 30C23.1102 30 21.745 28.5788 21.745 26.6838C21.745 24.8864 23.1102 23.4094 24.7818 23.4094C26.4812 23.4094 27.8324 24.8864 27.8324 26.6838C27.8324 28.5788 26.4812 30.0139 24.7818 30ZM33.9198 25.4577C33.3905 25.4577 33.0004 25.0536 33.0004 24.538C33.0004 24.0504 33.3905 23.6602 33.9198 23.6602H41.233C41.7484 23.6602 42.1385 24.0504 42.1385 24.538C42.1385 25.0536 41.7484 25.4577 41.233 25.4577H33.9198ZM33.9198 30.9057C33.3905 30.9057 33.0004 30.5016 33.0004 30C33.0004 29.4984 33.3905 29.1083 33.9198 29.1083H41.233C41.7484 29.1083 42.1385 29.4984 42.1385 30C42.1385 30.5016 41.7484 30.9057 41.233 30.9057H33.9198ZM19.4745 36.4373C18.9591 36.4373 18.6944 36.075 18.6944 35.6152C18.6944 34.3055 20.6167 30.9475 24.7818 30.9475C28.9607 30.9475 30.897 34.3055 30.897 35.6152C30.897 36.075 30.6323 36.4373 30.1169 36.4373H19.4745ZM33.9198 36.3537C33.3905 36.3537 33.0004 35.9636 33.0004 35.4759C33.0004 34.9603 33.3905 34.5563 33.9198 34.5563H41.233C41.7484 34.5563 42.1385 34.9603 42.1385 35.4759C42.1385 35.9636 41.7484 36.3537 41.233 36.3537H33.9198Z" fill="white"/>
</svg>
