<svg width="16" height="16" xmlns="http://www.w3.org/2000/svg"><g clip-path="url(#clip0)" fill="none"><path fill-rule="evenodd" clip-rule="evenodd" d="M8.068 1.48a.647.647 0 0 1 .686-.348l.316.053a1.48 1.48 0 0 1 1.227 1.62L9.94 6h3.233c.576 0 1.088.37 1.271.916a4.411 4.411 0 0 1-.113 3.087l-1.281 3.074a1.5 1.5 0 0 1-1.385.923h-4.5c-.324 0-.64-.104-.898-.3L5 12.75V7.5h.02c.455 0 .886-.207 1.171-.562L7.453 5.36C7.807 4.916 8 4.365 8 3.798V1.771c0-.101.023-.2.068-.29zM4.618 6.5h.402a.5.5 0 0 0 .39-.188l1.262-1.577A1.5 1.5 0 0 0 7 3.798V1.771A1.648 1.648 0 0 1 8.918.146l.316.052a2.48 2.48 0 0 1 2.057 2.718L11.059 5h2.115c1.008 0 1.9.645 2.22 1.6a5.408 5.408 0 0 1-.138 3.788l-1.281 3.074A2.5 2.5 0 0 1 11.666 15h-4.5a2.497 2.497 0 0 1-1.5-.5L5 14a1.5 1.5 0 0 1-1.5 1.5h-2A1.5 1.5 0 0 1 0 14V7.5A1.5 1.5 0 0 1 1.5 6h2a1.5 1.5 0 0 1 1.117.5zM1 7.5a.5.5 0 0 1 .5-.5h2a.5.5 0 0 1 .5.5V14a.5.5 0 0 1-.5.5h-2A.5.5 0 0 1 1 14V7.5z" fill="#A9A9A9"/></g><defs><clipPath id="clip0"><path fill="#fff" d="M0 0h16v16H0z"/></clipPath></defs></svg>