<svg width="16" height="16" xmlns="http://www.w3.org/2000/svg"><g clip-path="url(#clip0)" fill="none"><path d="M4 9h1.02a1 1 0 0 1 .78.375l1.262 1.577a2 2 0 0 1 .438 1.25v2.027a1.147 1.147 0 0 0 1.336 1.132l.317-.053a1.978 1.978 0 0 0 1.64-2.17L10.5 10.5h2.674a1.84 1.84 0 0 0 1.745-1.258 4.905 4.905 0 0 0-.125-3.437L13.513 2.73a2 2 0 0 0-1.846-1.23h-4.5a2 2 0 0 0-1.2.4L4.5 3m-3 6.5h2a1 1 0 0 0 1-1V2a1 1 0 0 0-1-1h-2a1 1 0 0 0-1 1v6.5a1 1 0 0 0 1 1z" stroke="#A9A9A9"/></g><defs><clipPath id="clip0"><path fill="#fff" d="M0 0h16v16H0z"/></clipPath></defs></svg>