<svg width="42" height="42" viewBox="0 0 42 42" fill="none" xmlns="http://www.w3.org/2000/svg">
<g clip-path="url(#clip0_5_277)">
<path d="M41.9617 20.6995C41.7714 24.3153 41.4713 27.9152 40.0966 31.316C37.9988 36.5021 34.1948 39.7309 28.8438 41.0139C22.6935 42.4869 16.5655 42.4416 10.6481 39.9685C4.82013 37.5339 1.4013 33.0424 0.380345 26.7725C-0.479402 21.4914 0.118391 16.3325 2.19835 11.4044C4.39026 6.21828 8.20315 2.74732 13.5654 1.2019C19.3709 -0.470222 25.2123 -0.526789 30.8566 1.84677C37.289 4.55294 40.7325 9.67114 41.8072 16.5293C42.0244 17.9141 42.0288 19.3034 41.9617 20.6972V20.6995ZM18.9343 32.6465C20.2284 32.5741 21.1732 31.6916 22.0442 30.7662C26.7079 25.7973 30.0909 19.9664 33.044 13.8571C33.615 12.6737 34.0918 11.4428 34.3628 10.1486C34.4456 9.75486 34.5486 9.28649 34.1232 9.0127C33.7515 8.77286 33.4157 9.0308 33.091 9.21861C32.2425 9.70735 31.5216 10.359 30.8208 11.0355C26.7437 14.9704 23.1256 19.3192 19.6015 23.7496C18.959 24.5574 18.5604 24.5958 17.7723 23.9329C15.2849 21.8444 12.7392 19.8216 9.83085 18.3372C9.19276 18.0114 8.43824 17.5634 7.84716 18.068C7.20459 18.6155 7.70163 19.4211 7.95463 20.0524C9.62039 24.1931 12.0765 27.7998 15.3207 30.8341C16.3036 31.7527 17.4275 32.5198 18.9366 32.6442L18.9343 32.6465Z" fill="#27B83E"/>
<path d="M18.9346 32.646C17.4278 32.5216 16.3016 31.7568 15.3187 30.8358C12.0768 27.8016 9.61842 24.1949 7.95266 20.0541C7.69966 19.4229 7.20262 18.6173 7.84519 18.0698C8.43627 17.5652 9.19079 18.0132 9.82888 18.339C12.7372 19.8234 15.2829 21.8462 17.7704 23.9347C18.5585 24.5954 18.9592 24.5569 19.5996 23.7514C23.1236 19.321 26.7417 14.9721 30.8188 11.0373C31.5196 10.3608 32.2405 9.70914 33.0891 9.2204C33.4137 9.03486 33.7496 8.77465 34.1212 9.01449C34.5466 9.28828 34.4414 9.75666 34.3608 10.1504C34.0899 11.4446 33.6152 12.6755 33.0421 13.8589C30.0889 19.9682 26.7059 25.7991 22.0422 30.768C21.1735 31.6934 20.2287 32.5759 18.9324 32.6483L18.9346 32.646Z" fill="white"/>
</g>
<defs>
<clipPath id="clip0_5_277">
<rect width="42" height="42" fill="white"/>
</clipPath>
</defs>
</svg>
