<svg width="60" height="60" viewBox="0 0 60 60" fill="none" xmlns="http://www.w3.org/2000/svg">
<path d="M29.9855 60C46.4282 60 60 46.4217 60 30C60 13.5783 46.3992 0 29.9565 0C13.5428 0 0 13.5783 0 30C0 46.4217 13.5718 60 29.9855 60ZM29.9565 34.7292C24.2726 34.7002 19.8647 29.942 19.8647 23.646C19.8067 17.7273 24.3016 12.795 29.9565 12.795C35.6114 12.795 40.0483 17.7273 40.0483 23.646C40.0483 29.942 35.6404 34.7872 29.9565 34.7292ZM29.9565 55.0387C23.4606 55.0387 16.5587 52.3404 12.1798 47.6402C15.5147 42.6499 22.1266 39.7485 29.9565 39.7485C37.6994 39.7485 44.3693 42.5919 47.7332 47.6402C43.3543 52.3404 36.4524 55.0387 29.9565 55.0387Z" fill="#D9D9D9"/>
</svg>
