<svg width="26" height="16" viewBox="0 0 26 16" fill="none" xmlns="http://www.w3.org/2000/svg">
<path d="M12.0054 15.9883C9.34984 15.9883 6.69427 16.0122 4.0387 15.9803C1.85833 15.9524 1.04768 15.1506 1.02372 12.9686C0.98778 9.7215 0.98778 6.47443 1.02372 3.22736C1.05167 0.905748 1.88628 0.0361392 4.11457 0.0241722C9.42572 -0.00375106 14.7369 -0.00774009 20.048 0.0241722C22.1845 0.0361392 23.4224 1.67164 22.9951 3.75392C22.9272 4.09697 22.8713 4.452 22.46 4.43604C22.0686 4.42008 21.8889 4.05309 21.9289 3.72599C22.2643 0.889792 20.3555 1.09323 18.4906 1.1052C13.8424 1.13711 9.1981 1.16902 4.54984 1.08924C2.75683 1.05733 2.03803 1.67563 2.09394 3.51058C2.19377 6.62203 2.14585 9.74145 2.10991 12.8569C2.09394 14.257 2.63304 14.9152 4.0986 14.9033C9.34186 14.8674 14.5891 14.8554 19.8324 14.9112C21.5974 14.9312 21.9648 13.9977 21.9169 12.5218C21.9009 12.0072 21.6493 11.1256 22.5558 11.1895C23.2627 11.2413 22.9711 12.0431 22.9911 12.5218C23.079 15.0907 22.2044 15.9723 19.5808 15.9843C17.057 15.9962 14.5372 15.9843 12.0134 15.9843L12.0054 15.9883Z" fill="#27B83E"/>
<path d="M25 6.11924C24.7843 6.40246 24.6126 6.68169 24.393 6.90907C22.9075 8.40894 21.398 9.88089 19.9244 11.3927C19.2815 12.0509 18.7544 12.0868 18.1194 11.3768C17.3727 10.5431 16.5461 9.78117 15.7714 8.9714C15.5158 8.70413 15.4559 8.34113 15.7993 8.13769C15.9511 8.04594 16.2665 8.19354 16.4941 8.27332C16.61 8.31321 16.6858 8.44883 16.7857 8.5326C18.3724 9.83835 19.8872 9.77186 21.3301 8.33315C22.1248 7.54332 22.9194 6.7535 23.7141 5.96367C23.9617 5.72034 24.2532 5.54482 24.5966 5.67247C24.7444 5.72832 24.8362 5.93176 25.004 6.12323L25 6.11924Z" fill="#FFA200"/>
<path d="M8.04822 5.14582C7.85254 6.29865 7.14971 6.98077 5.90379 6.97279C4.66985 6.96482 4.07084 6.12313 4.04289 5.05407C4.01094 3.82545 4.83357 3.03562 6.03956 3.02764C7.28149 3.01966 7.90046 3.88528 8.04822 5.14582ZM6.95404 4.90648C6.87018 4.39588 6.57068 4.05681 6.05154 4.12064C5.51244 4.18845 5.04123 4.47167 5.1171 5.12188C5.177 5.6245 5.54439 5.94362 6.03956 5.9516C6.69447 5.96357 6.8582 5.445 6.95803 4.90648H6.95404Z" fill="#27B83E"/>
<path d="M8.29983 11.9511C9.15441 11.9511 10.009 11.9352 10.8676 11.9551C11.2948 11.9631 11.9098 11.8235 11.8938 12.5176C11.8819 13.0042 11.4067 13.0481 10.9913 13.0481C9.01864 13.0441 7.04193 13.0481 5.06922 13.0321C4.68186 13.0321 4.20266 12.9603 4.23461 12.4338C4.26656 11.8913 4.76972 11.9631 5.14509 11.9591C6.19934 11.9431 7.24959 11.9551 8.30383 11.9511H8.29983Z" fill="#27B83E"/>
<path d="M5.69619 10.0643C5.11316 9.88478 4.22664 10.3515 4.21466 9.45396C4.20667 8.75189 4.99735 8.92342 5.48454 8.93539C6.03163 8.94735 6.88621 8.73992 6.89419 9.54571C6.90218 10.3036 6.0476 9.8409 5.6922 10.0643H5.69619Z" fill="#27B83E"/>
<path d="M9.52982 8.91138C10.0889 8.98318 10.9315 8.78373 10.8596 9.60946C10.7997 10.2836 9.99704 9.98841 9.52583 9.99639C9.05861 10.0084 8.26393 10.2756 8.21601 9.56159C8.15611 8.63613 9.04663 9.03903 9.52982 8.91138Z" fill="#27B83E"/>
</svg>
