<svg width="43" height="32" viewBox="0 0 43 32" fill="none" xmlns="http://www.w3.org/2000/svg">
<g clip-path="url(#clip0_36_226)">
<path d="M23.332 17.4866H23.8501C24.7415 17.4866 25.632 17.4866 26.5234 17.4866C26.8412 17.4866 26.8458 17.4881 26.9163 17.7939C27.3791 19.8195 27.8395 21.8459 28.3008 23.8715C28.5056 24.7736 28.7104 25.675 28.9137 26.5779C28.9334 26.6655 28.9509 26.7516 29.0161 26.8208C29.0943 26.7854 29.1003 26.7055 29.1178 26.6394C29.8324 23.8792 30.5454 21.119 31.2585 18.3587C31.3154 18.1382 31.3822 17.9192 31.4307 17.6963C31.4679 17.5273 31.5582 17.4812 31.7235 17.4827C32.6141 17.4904 33.5055 17.4889 34.3968 17.4835C34.5478 17.4827 34.6122 17.5304 34.6509 17.6864C34.836 18.4371 35.0386 19.1825 35.2328 19.931C35.8169 22.1879 36.3995 24.4455 36.9828 26.7032C36.9957 26.7531 37.0086 26.8015 37.0868 26.8354C37.2081 26.6333 37.2165 26.3935 37.2673 26.173C37.787 23.9138 38.2967 21.6515 38.8103 19.3907C38.9362 18.8344 39.0682 18.2804 39.1919 17.7232C39.2252 17.5726 39.2708 17.4804 39.4574 17.482C40.5991 17.4912 41.7415 17.4881 42.8832 17.4904C42.9181 17.4904 42.953 17.5081 43.0023 17.5211C42.9856 17.8831 42.8468 18.2135 42.7512 18.5501C41.8075 21.8643 40.8539 25.1755 39.9027 28.4875C39.6091 29.5103 39.3072 30.5308 39.0235 31.5566C38.9688 31.7541 38.8831 31.8187 38.6859 31.8164C37.7574 31.8079 36.8289 31.8048 35.9003 31.8179C35.6849 31.821 35.5984 31.7534 35.5385 31.5443C35.0439 29.8277 34.5356 28.1156 34.0334 26.4012C33.7444 25.4168 33.4599 24.4309 33.1679 23.4466C33.1444 23.3674 33.1474 23.266 33.0253 23.1976C32.9616 23.2967 32.9327 23.4104 32.8993 23.5249C32.1233 26.1753 31.3465 28.8256 30.5682 31.4759C30.462 31.8379 30.4574 31.8371 30.0918 31.8371C29.2134 31.8371 28.3349 31.8363 27.4565 31.8371C27.1014 31.8371 27.1432 31.8056 27.0718 31.552C26.801 30.5884 26.5211 29.6279 26.2344 28.6688C26.179 28.4829 26.2162 28.3261 26.2768 28.154C26.5848 27.2787 26.8374 26.3866 26.8792 25.4529C26.9467 23.9537 26.8154 22.4753 26.2548 21.0729C25.7716 19.8641 25.0237 18.8367 24.0117 18.0176C23.8107 17.8554 23.6058 17.6987 23.335 17.4866H23.332Z" fill="#FD7A0F"/>
<path d="M28.6763 8.92547C29.6306 10.7036 30.5902 12.4925 31.5779 14.3337C31.3511 14.3337 31.1918 14.3337 31.0332 14.3337C30.0668 14.3337 29.1003 14.3214 28.1339 14.3422C27.8775 14.3476 27.7478 14.253 27.6385 14.0425C27.1143 13.0312 26.5826 12.0246 26.0538 11.0156C25.8247 10.5784 25.5934 10.1427 25.3711 9.70159C25.2831 9.52792 25.1761 9.43417 24.966 9.44416C24.5905 9.46107 24.2135 9.44723 23.8365 9.44954C23.505 9.45108 23.5034 9.45261 23.5027 9.81301C23.5019 10.8181 23.5027 11.8232 23.5027 12.8276C23.5027 13.2349 23.505 13.6414 23.5019 14.0486C23.4996 14.326 23.4959 14.3314 23.241 14.3322C22.2745 14.3345 21.3081 14.3283 20.3416 14.3376C20.1436 14.3391 20.0647 14.2769 20.086 14.0786C20.0943 14.0033 20.0875 13.9264 20.0875 13.8496C20.0875 9.39728 20.0875 4.94496 20.0875 0.492643C20.0875 0.454221 20.0875 0.416568 20.0875 0.378146C20.086 -0.042189 20.0807 0.00699087 20.4524 0.00699087C22.3602 0.00699087 24.2681 -0.0152938 26.1752 0.0146752C27.4132 0.0338861 28.5792 0.342029 29.5608 1.16733C30.4006 1.87352 30.8527 2.80026 31.0196 3.87761C31.1394 4.64912 31.1212 5.42063 30.9247 6.1783C30.6221 7.34556 29.9416 8.2162 28.8834 8.77793C28.828 8.80713 28.7741 8.8394 28.721 8.87167C28.7112 8.87782 28.7043 8.89012 28.6755 8.9247L28.6763 8.92547ZM23.5034 4.77898C23.5034 5.33763 23.505 5.89629 23.5027 6.45494C23.5027 6.59326 23.5072 6.70622 23.6938 6.70084C24.4433 6.67779 25.1943 6.74772 25.9416 6.62938C26.7388 6.50258 27.307 6.04921 27.4519 5.35147C27.5316 4.96725 27.5278 4.57227 27.4352 4.18191C27.3624 3.87453 27.2099 3.62479 26.9884 3.40732C26.6668 3.0915 26.267 2.9624 25.8422 2.8917C25.1587 2.77797 24.4684 2.85174 23.7818 2.83637C23.5095 2.83023 23.5057 2.84175 23.5042 3.14144C23.5019 3.6878 23.5042 4.23339 23.5042 4.77975L23.5034 4.77898Z" fill="#22305F"/>
<path d="M12.4075 7.19119C12.4075 9.41658 12.4075 11.6427 12.4075 13.8681C12.4075 13.9573 12.4029 14.0464 12.4075 14.1348C12.4166 14.2831 12.3498 14.3346 12.2072 14.3346C11.1907 14.3315 10.1742 14.3315 9.15767 14.3346C9.00899 14.3346 8.9612 14.2693 8.96423 14.1279C8.96954 13.8482 8.96575 13.5684 8.96575 13.2887C8.96575 11.8264 8.96575 10.3633 8.96575 8.90096C8.96575 8.60511 8.98016 8.60819 8.67824 8.60896C7.03437 8.61049 5.39051 8.60896 3.74664 8.61049C3.44775 8.61049 3.44472 8.61433 3.44396 8.92325C3.44244 10.5639 3.44396 12.2045 3.44396 13.8451C3.44396 13.9212 3.43713 13.9988 3.44548 14.0741C3.46672 14.2693 3.39314 14.3438 3.19287 14.3376C2.77943 14.3246 2.36449 14.3338 1.95029 14.3338C1.3859 14.3338 0.820751 14.3269 0.256359 14.3376C0.0591256 14.3415 -0.0205265 14.2731 0.00223126 14.0756C0.0105758 14.0003 0.00374844 13.9235 0.00374844 13.8466C0.00374844 9.39507 0.00374844 4.94351 0.00374844 0.49196C0.00374844 0.441243 0.00374844 0.390527 0.00374844 0.339041C0.00905858 0.0116875 0.00905859 0.00938219 0.336012 0.00861375C1.26453 0.00707688 2.19304 0.00707688 3.12156 0.00861375C3.44169 0.00861375 3.44472 0.0124559 3.44472 0.347494C3.44548 2.00117 3.44472 3.65408 3.44472 5.30775C3.44472 5.39689 3.44775 5.48603 3.44472 5.57517C3.44093 5.68659 3.48872 5.73808 3.59947 5.7327C3.66244 5.72962 3.72464 5.7327 3.7876 5.7327C5.40644 5.7327 7.02527 5.7327 8.64411 5.7327C8.99154 5.7327 8.96575 5.75806 8.96575 5.39996C8.96575 3.77165 8.96575 2.1441 8.96575 0.515782C8.96575 0.439707 8.96423 0.362863 8.96575 0.286788C8.97258 0.0162981 8.97333 0.00938219 9.23505 0.00861375C10.0634 0.00554001 10.8918 0.00707688 11.7194 0.00707688C11.8825 0.00707688 12.0456 0.0124559 12.2087 0.00554001C12.3536 -0.000607486 12.4151 0.0616359 12.406 0.207639C12.4007 0.296009 12.4052 0.385916 12.4052 0.474286C12.4052 2.71274 12.4052 4.9512 12.4052 7.18965L12.4075 7.19119Z" fill="#22305F"/>
<path d="M21.0236 17.6018C21.8338 17.787 22.5491 18.1766 23.2015 18.6807C24.5222 19.7004 25.3415 21.0467 25.6783 22.6935C25.9461 24.0044 25.9651 25.3208 25.6783 26.6286C25.1761 28.9155 23.8607 30.543 21.7048 31.3975C19.6741 32.2029 17.6016 32.2052 15.5754 31.3799C13.2154 30.4178 11.8704 28.5943 11.4517 26.0692C11.259 24.9073 11.281 23.7401 11.5162 22.5828C11.5313 22.5098 11.567 22.4414 11.5936 22.3715C11.7566 22.34 11.8924 22.2447 12.0373 22.1717C14.062 21.1466 16.0859 20.12 18.1091 19.0918C19.0816 18.5977 20.0518 18.0998 21.0228 17.6033L21.0236 17.6018ZM15.1036 24.6968C15.1104 24.9926 15.1202 25.4498 15.2098 25.9009C15.4882 27.3025 16.2407 28.6435 18.0894 28.8832C19.7219 29.0953 21.3377 28.4836 21.9081 26.3628C22.0174 25.9562 22.0743 25.5405 22.0932 25.1217C22.1395 24.1366 22.0689 23.1645 21.6737 22.2455C21.2261 21.205 20.46 20.5541 19.3532 20.3351C18.9822 20.2614 18.606 20.2537 18.229 20.2821C16.8498 20.3843 15.9175 21.0951 15.4252 22.4022C15.1665 23.0892 15.0945 23.8069 15.1028 24.6975L15.1036 24.6968Z" fill="#FD7A0F"/>
<path d="M38.8588 8.58805C38.1867 8.63569 37.5146 8.59727 36.8425 8.60956C36.7431 8.6111 36.643 8.61648 36.5436 8.6088C36.3934 8.5965 36.354 8.66796 36.354 8.80936C36.3547 9.16207 36.3434 9.51478 36.3373 9.86826C36.2015 9.93281 36.0642 9.99429 35.9299 10.0611C34.9324 10.5606 33.9356 11.0616 32.938 11.5619C32.9305 11.4359 32.9176 11.3091 32.9176 11.1831C32.9168 7.59753 32.916 4.01278 32.9176 0.427252C32.9176 -0.0268942 32.8751 0.00845386 33.3128 0.00845386C36.3358 0.00845386 39.3588 0.00845386 42.3825 0.00845386C42.4705 0.00845386 42.5577 0.00999073 42.6457 0.00999073C42.739 0.00999073 42.78 0.0622444 42.7823 0.150615C42.7846 0.239753 42.7846 0.328892 42.7846 0.417262C42.7846 1.07812 42.7876 1.73974 42.7838 2.4006C42.7808 2.89316 42.8475 2.83169 42.3742 2.83246C41.0072 2.83553 39.6394 2.83323 38.2725 2.83323C37.7331 2.83323 37.1937 2.83169 36.6544 2.83323C36.3654 2.83476 36.3608 2.83784 36.36 3.12062C36.357 3.89597 36.3578 4.67133 36.36 5.44745C36.3608 5.72639 36.3646 5.73023 36.6536 5.731C38.1465 5.73254 39.6394 5.731 41.1316 5.731C41.4449 5.731 41.7589 5.73868 42.0722 5.72793C42.2505 5.72178 42.3233 5.78249 42.3104 5.96768C42.2907 6.25892 42.334 6.55169 42.2854 6.84293C41.1445 7.42387 40.0028 8.00557 38.8619 8.58651L38.8588 8.58805Z" fill="#22305F"/>
<path d="M14.5399 7.13261C14.5399 4.94564 14.5399 2.75867 14.5399 0.571698C14.5399 0.507918 14.5399 0.444906 14.5399 0.381126C14.5399 -0.0153874 14.5134 0.00766575 14.9056 0.00766575C15.8212 0.00766575 16.7376 0.00689731 17.6532 0.00766575C17.9771 0.00766575 17.9801 0.0107395 17.9801 0.341936C17.9809 2.92311 17.9801 5.50429 17.9801 8.08547C17.9801 10.0058 17.9801 11.9253 17.9801 13.8457C17.9801 13.9348 17.9741 14.0239 17.9817 14.1123C17.9953 14.276 17.9301 14.3382 17.7655 14.3352C17.3262 14.3275 16.887 14.3329 16.4485 14.3329C15.9213 14.3329 15.3949 14.3344 14.8676 14.3329C14.5437 14.3313 14.5407 14.3298 14.5407 13.9986C14.5399 12.1298 14.5407 10.2601 14.5407 8.39131C14.5407 7.97174 14.5407 7.55218 14.5407 7.13261H14.5399Z" fill="#22305F"/>
<path d="M0.224543 28.1548C0.218474 28.028 0.207096 27.9012 0.207096 27.7752C0.206337 24.4817 0.206337 21.189 0.206337 17.8954C0.206337 17.8701 0.206337 17.8447 0.206337 17.8194C0.21013 17.4912 0.21013 17.4889 0.534807 17.4882C1.28733 17.4866 2.04061 17.4989 2.79313 17.482C3.0594 17.4759 3.22401 17.5558 3.37497 17.7863C4.03343 18.7907 4.71313 19.7812 5.38448 20.7771C6.09149 21.8252 6.79926 22.8726 7.50247 23.9238C7.59274 24.0591 7.7035 24.1835 7.75281 24.3449C6.88118 24.7868 6.00956 25.2294 5.13794 25.6712C4.7283 25.0803 4.32018 24.4886 3.90902 23.8985C3.83847 23.797 3.79372 23.6741 3.63365 23.5742C3.62303 24.5616 3.61241 25.516 3.60179 26.4704C3.47738 26.5273 3.35146 26.5803 3.22932 26.6418C2.22722 27.1459 1.22588 27.6515 0.223785 28.1564L0.224543 28.1548Z" fill="#22305F"/>
<path d="M5.13794 25.6696C6.00956 25.2277 6.88118 24.7851 7.7528 24.3432C8.12148 24.7605 8.35892 25.2784 8.7807 25.7602C8.7898 25.0479 8.7989 24.4124 8.80725 23.7777C9.00751 23.7393 9.17061 23.6148 9.35267 23.5341C9.70542 23.3766 10.0271 23.1514 10.3995 23.0361C10.3821 23.2767 10.3631 23.5172 10.3472 23.7577C10.2782 24.802 10.3176 25.8355 10.5945 26.853C10.7242 27.3294 10.8274 27.8112 11.0261 28.2684C11.3015 28.9008 11.6497 29.4833 12.0851 30.0128C12.2019 30.1542 12.2679 30.3025 12.2611 30.4961C12.2475 30.8642 12.249 31.233 12.2611 31.6011C12.2672 31.7902 12.1913 31.8401 12.0191 31.8393C11.1915 31.834 10.3639 31.8324 9.53701 31.8409C9.36405 31.8424 9.26619 31.7733 9.17289 31.6349C8.40974 30.503 7.63977 29.3773 6.87436 28.2469C6.29327 27.3893 5.7175 26.5287 5.1387 25.6696H5.13794Z" fill="#FD7A0F"/>
<path d="M32.9373 11.5611C33.9348 11.0608 34.9316 10.5598 35.9292 10.0603C36.0634 9.99269 36.2007 9.93121 36.3365 9.86743C36.3434 10.3116 36.3487 10.7557 36.3563 11.1999C36.3616 11.5042 36.3623 11.508 36.6733 11.508C38.5539 11.5096 40.4352 11.508 42.3157 11.508C42.4037 11.508 42.4917 11.5127 42.579 11.508C42.7178 11.4996 42.783 11.5495 42.7823 11.7017C42.7777 12.5147 42.7785 13.3285 42.7823 14.1415C42.7823 14.2929 42.7125 14.3428 42.5752 14.3344C42.5001 14.3297 42.425 14.3344 42.3499 14.3344C39.3527 14.3344 36.3563 14.3344 33.3591 14.3344C33.3211 14.3344 33.284 14.3344 33.246 14.3344C32.9198 14.3297 32.9138 14.3297 32.9168 13.9993C32.9259 13.1871 32.8887 12.3741 32.9373 11.5618V11.5611Z" fill="#FD7A0F"/>
<path d="M21.0236 17.6017C20.0526 18.0981 19.0816 18.5961 18.1099 19.0902C16.0867 20.1184 14.0628 21.145 12.0381 22.1701C11.8932 22.2431 11.7574 22.3384 11.5943 22.3699C11.5731 22.1194 11.6732 21.8958 11.7559 21.6721C12.6131 19.3553 14.2714 17.9644 16.6253 17.4127C17.9756 17.0961 19.3319 17.1215 20.6792 17.4673C20.7998 17.498 20.9242 17.518 21.0244 17.6017H21.0236Z" fill="#22305F"/>
<path d="M0.224547 28.1547C1.22589 27.6498 2.22723 27.1442 3.23009 26.6401C3.35222 26.5786 3.47815 26.5256 3.60255 26.4688C3.60862 26.5318 3.61924 26.5948 3.61924 26.6578C3.62 28.2815 3.62076 29.9044 3.61924 31.5281C3.61924 31.8294 3.61469 31.8355 3.34539 31.8363C2.38198 31.8394 1.41781 31.8355 0.4544 31.8394C0.293579 31.8394 0.200272 31.8178 0.202548 31.6157C0.216202 30.4623 0.21772 29.3081 0.223788 28.1547H0.224547Z" fill="#FD7A0F"/>
<path d="M10.3988 23.0369C10.0263 23.1521 9.70466 23.3773 9.35192 23.5348C9.16985 23.6163 9.00752 23.74 8.80649 23.7784C8.80118 23.3465 8.79208 22.9147 8.79132 22.4828C8.7898 20.9444 8.79132 19.4068 8.79056 17.8684C8.79056 17.428 8.77766 17.488 9.18199 17.4872C10.1097 17.4857 11.0383 17.4849 11.966 17.4872C12.2497 17.4872 12.2497 17.4926 12.2558 17.7831C12.2558 17.7961 12.2558 17.8084 12.2558 17.8215C12.2998 18.4285 12.2884 19.0179 11.7612 19.446C11.0587 20.4495 10.6597 21.5745 10.4633 22.7802C10.4488 22.867 10.4526 22.9592 10.398 23.0353L10.3988 23.0369Z" fill="#22305F"/>
<path d="M38.8588 8.58807C40.0005 8.00713 41.1414 7.42542 42.2824 6.84448C42.3324 7.36241 42.2907 7.8811 42.3059 8.39903C42.3097 8.53658 42.2672 8.61189 42.1162 8.61035C41.0299 8.59652 39.9436 8.63648 38.8581 8.58807H38.8588Z" fill="#FD7A0F"/>
</g>
<defs>
<clipPath id="clip0_36_226">
<rect width="43" height="32" fill="white"/>
</clipPath>
</defs>
</svg>
