<svg width="38" height="28" viewBox="0 0 38 28" fill="none" xmlns="http://www.w3.org/2000/svg">
<g clip-path="url(#clip0_170_10075)">
<path d="M20.619 15.3007H21.0769C21.8646 15.3007 22.6516 15.3007 23.4393 15.3007C23.7202 15.3007 23.7242 15.302 23.7866 15.5696C24.1955 17.342 24.6024 19.1151 25.01 20.8875C25.191 21.6769 25.372 22.4656 25.5517 23.2556C25.5691 23.3323 25.5845 23.4076 25.6422 23.4681C25.7112 23.4372 25.7166 23.3672 25.732 23.3094C26.3635 20.8942 26.9937 18.479 27.6239 16.0638C27.6741 15.8709 27.7331 15.6792 27.776 15.4842C27.8089 15.3363 27.8887 15.296 28.0348 15.2973C28.8218 15.304 29.6095 15.3027 30.3972 15.298C30.5306 15.2973 30.5876 15.339 30.6218 15.4755C30.7854 16.1324 30.9644 16.7846 31.136 17.4395C31.6522 19.4143 32.167 21.3898 32.6826 23.3652C32.694 23.4089 32.7054 23.4513 32.7744 23.4809C32.8817 23.304 32.889 23.0943 32.934 22.9013C33.3932 20.9245 33.8437 18.945 34.2975 16.9668C34.4088 16.48 34.5254 15.9953 34.6347 15.5078C34.6642 15.376 34.7044 15.2953 34.8694 15.2966C35.8783 15.3047 36.8879 15.302 37.8968 15.304C37.9276 15.304 37.9585 15.3195 38.0021 15.3309C37.9873 15.6476 37.8646 15.9368 37.7802 16.2313C36.9462 19.1312 36.1035 22.0285 35.2629 24.9265C35.0034 25.8214 34.7366 26.7144 34.4859 27.612C34.4376 27.7848 34.3619 27.8413 34.1876 27.8393C33.367 27.8319 32.5465 27.8292 31.7259 27.8406C31.5355 27.8433 31.4591 27.7841 31.4062 27.6012C30.9691 26.0991 30.5199 24.6011 30.0761 23.101C29.8207 22.2397 29.5693 21.377 29.3112 20.5157C29.2904 20.4464 29.2931 20.3577 29.1852 20.2978C29.1289 20.3846 29.1034 20.4841 29.0739 20.5843C28.3881 22.9033 27.7016 25.2223 27.0138 27.5414C26.9199 27.8581 26.9159 27.8574 26.5928 27.8574C25.8165 27.8574 25.0402 27.8567 24.2639 27.8574C23.9502 27.8574 23.987 27.8298 23.924 27.608C23.6847 26.7648 23.4373 25.9243 23.1839 25.0852C23.135 24.9225 23.1678 24.7853 23.2214 24.6347C23.4936 23.8688 23.7169 23.0882 23.7537 22.2713C23.8134 20.9594 23.6974 19.6658 23.202 18.4387C22.775 17.381 22.114 16.4821 21.2197 15.7653C21.042 15.6234 20.861 15.4863 20.6217 15.3007H20.619Z" fill="#FFA200"/>
<path d="M25.3418 7.80966C26.1852 9.36555 27.0332 10.9309 27.906 12.5419C27.7056 12.5419 27.5648 12.5419 27.4247 12.5419C26.5706 12.5419 25.7166 12.5311 24.8625 12.5493C24.6359 12.554 24.5213 12.4713 24.4247 12.2871C23.9615 11.4022 23.4916 10.5214 23.0243 9.63854C22.8219 9.25595 22.6174 8.87471 22.421 8.48876C22.3432 8.33681 22.2487 8.25478 22.063 8.26352C21.7311 8.27831 21.398 8.26621 21.0648 8.26822C20.7718 8.26957 20.7705 8.27091 20.7698 8.58626C20.7691 9.46574 20.7698 10.3452 20.7698 11.224C20.7698 11.5804 20.7718 11.9361 20.7691 12.2924C20.7671 12.5352 20.7638 12.5399 20.5385 12.5405C19.6845 12.5426 18.8304 12.5372 17.9763 12.5452C17.8014 12.5466 17.7316 12.4921 17.7504 12.3187C17.7578 12.2528 17.7517 12.1855 17.7517 12.1183C17.7517 8.2225 17.7517 4.32672 17.7517 0.43094C17.7517 0.397321 17.7517 0.364374 17.7517 0.330755C17.7504 -0.0370375 17.7457 0.00599494 18.0742 0.00599494C19.7602 0.00599494 21.4462 -0.0135041 23.1316 0.0127188C24.2256 0.0295283 25.256 0.299153 26.1235 1.02129C26.8656 1.63921 27.2652 2.4501 27.4126 3.39278C27.5186 4.06785 27.5025 4.74293 27.3288 5.40589C27.0614 6.42724 26.46 7.18905 25.5248 7.68056C25.4759 7.70611 25.4283 7.73435 25.3814 7.76259C25.3727 7.76797 25.3666 7.77873 25.3412 7.80899L25.3418 7.80966ZM20.7705 4.18149C20.7705 4.67031 20.7718 5.15913 20.7698 5.64795C20.7698 5.76898 20.7738 5.86782 20.9387 5.86311C21.6011 5.84294 22.2648 5.90413 22.9251 5.80058C23.6297 5.68964 24.1318 5.29293 24.2598 4.68241C24.3302 4.34622 24.3269 4.00062 24.2451 3.65905C24.1807 3.39009 24.046 3.17157 23.8502 2.98128C23.566 2.70494 23.2127 2.59198 22.8373 2.53012C22.2333 2.4306 21.6232 2.49515 21.0165 2.4817C20.7758 2.47633 20.7725 2.48641 20.7711 2.74864C20.7691 3.2267 20.7711 3.7041 20.7711 4.18216L20.7705 4.18149Z" fill="white"/>
<path d="M10.9648 6.2922C10.9648 8.23942 10.9648 10.1873 10.9648 12.1345C10.9648 12.2125 10.9607 12.2905 10.9648 12.3678C10.9728 12.4976 10.9138 12.5427 10.7878 12.5427C9.88947 12.54 8.99116 12.54 8.09284 12.5427C7.96145 12.5427 7.91922 12.4855 7.9219 12.3618C7.92659 12.117 7.92324 11.8723 7.92324 11.6275C7.92324 10.348 7.92324 9.06779 7.92324 7.78825C7.92324 7.52938 7.93598 7.53207 7.66916 7.53274C6.21644 7.53409 4.76372 7.53274 3.311 7.53409C3.04687 7.53409 3.04419 7.53745 3.04352 7.80775C3.04218 9.24328 3.04352 10.6788 3.04352 12.1144C3.04352 12.1809 3.03749 12.2488 3.04486 12.3147C3.06363 12.4855 2.9986 12.5507 2.82162 12.5454C2.45626 12.5339 2.08956 12.542 1.72353 12.542C1.22477 12.542 0.725334 12.5359 0.226569 12.5454C0.0522697 12.5487 -0.0181205 12.4889 0.00199097 12.3161C0.00936519 12.2502 0.00333174 12.1829 0.00333174 12.1157C0.00333174 8.22059 0.00333174 4.32548 0.00333174 0.430374C0.00333174 0.385996 0.00333174 0.341619 0.00333174 0.29657C0.00802442 0.010135 0.00802442 0.00811786 0.29696 0.00744548C1.11751 0.00610072 1.93806 0.00610072 2.75861 0.00744548C3.04151 0.00744548 3.04419 0.0108074 3.04419 0.303966C3.04486 1.75093 3.04419 3.19723 3.04419 4.64419C3.04419 4.72219 3.04687 4.80018 3.04419 4.87818C3.04084 4.97568 3.08307 5.02073 3.18095 5.01602C3.23659 5.01333 3.29156 5.01602 3.3472 5.01602C4.7778 5.01602 6.2084 5.01602 7.639 5.01602C7.94603 5.01602 7.92324 5.03821 7.92324 4.72488C7.92324 3.3001 7.92324 1.87599 7.92324 0.451218C7.92324 0.384652 7.9219 0.317414 7.92324 0.250848C7.92927 0.0141693 7.92994 0.00811786 8.16122 0.00744548C8.89328 0.00475595 9.62534 0.00610072 10.3567 0.00610072C10.5009 0.00610072 10.645 0.0108074 10.7891 0.00475595C10.9172 -0.000623103 10.9715 0.0538398 10.9634 0.181592C10.9587 0.258916 10.9628 0.337585 10.9628 0.414909C10.9628 2.37356 10.9628 4.33221 10.9628 6.29085L10.9648 6.2922Z" fill="white"/>
<path d="M18.579 15.4016C19.295 15.5637 19.9271 15.9046 20.5037 16.3456C21.6708 17.2379 22.3948 18.4159 22.6925 19.8568C22.9291 21.0039 22.9459 22.1557 22.6925 23.3001C22.2487 25.3011 21.0862 26.7252 19.181 27.4729C17.3864 28.1775 15.5549 28.1796 13.7643 27.4574C11.6788 26.6156 10.4902 25.02 10.1201 22.8106C9.94984 21.7939 9.96928 20.7726 10.1771 19.76C10.1905 19.6961 10.222 19.6363 10.2455 19.5751C10.3896 19.5475 10.5096 19.4641 10.6376 19.4003C12.4269 18.5033 14.2155 17.605 16.0034 16.7054C16.8628 16.273 17.7202 15.8373 18.5783 15.403L18.579 15.4016ZM13.3473 21.6097C13.3534 21.8686 13.3621 22.2686 13.4412 22.6633C13.6872 23.8898 14.3522 25.0631 15.986 25.2729C17.4286 25.4584 18.8565 24.9232 19.3607 23.0674C19.4572 22.7117 19.5075 22.348 19.5242 21.9815C19.5651 21.1195 19.5028 20.269 19.1535 19.4648C18.758 18.5544 18.0809 17.9849 17.1028 17.7933C16.775 17.7287 16.4425 17.722 16.1093 17.7469C14.8906 17.8363 14.0667 18.4583 13.6316 19.602C13.403 20.2031 13.3393 20.8311 13.3467 21.6104L13.3473 21.6097Z" fill="#FFA200"/>
<path d="M34.3404 7.51454C33.7465 7.55623 33.1525 7.52261 32.5585 7.53337C32.4707 7.53471 32.3822 7.53942 32.2944 7.5327C32.1617 7.52194 32.1268 7.58447 32.1268 7.70819C32.1275 8.01681 32.1174 8.32543 32.1121 8.63473C31.9921 8.69121 31.8707 8.745 31.7521 8.8035C30.8705 9.24055 29.9896 9.67894 29.1081 10.1167C29.1014 10.0064 29.09 9.89545 29.09 9.78518C29.0893 6.64784 29.0886 3.51118 29.09 0.373845C29.09 -0.0235324 29.0524 0.00739712 29.4393 0.00739712C32.1107 0.00739712 34.7822 0.00739712 37.4544 0.00739712C37.5321 0.00739712 37.6092 0.00874189 37.687 0.00874189C37.7694 0.00874189 37.8056 0.0544639 37.8076 0.131788C37.8097 0.209784 37.8097 0.28778 37.8097 0.365104C37.8097 0.943353 37.8123 1.52227 37.809 2.10052C37.8063 2.53152 37.8653 2.47773 37.447 2.4784C36.2389 2.48109 35.0302 2.47907 33.8222 2.47907C33.3456 2.47907 32.8689 2.47773 32.3923 2.47907C32.1369 2.48042 32.1329 2.48311 32.1322 2.73054C32.1295 3.40898 32.1302 4.08741 32.1322 4.76652C32.1329 5.01059 32.1362 5.01395 32.3916 5.01463C33.7109 5.01597 35.0302 5.01463 36.3489 5.01463C36.6258 5.01463 36.9033 5.02135 37.1802 5.01194C37.3377 5.00656 37.4021 5.05968 37.3907 5.22172C37.3732 5.47655 37.4114 5.73273 37.3685 5.98756C36.3603 6.49588 35.3514 7.00488 34.3431 7.5132L34.3404 7.51454Z" fill="white"/>
<path d="M12.8492 6.24097C12.8492 4.32737 12.8492 2.41377 12.8492 0.500175C12.8492 0.444367 12.8492 0.389232 12.8492 0.333424C12.8492 -0.013525 12.8257 0.00664649 13.1723 0.00664649C13.9815 0.00664649 14.7913 0.00597411 15.6005 0.00664649C15.8867 0.00664649 15.8894 0.009336 15.8894 0.299133C15.8901 2.55766 15.8894 4.81619 15.8894 7.07473C15.8894 8.75501 15.8894 10.4346 15.8894 12.1149C15.8894 12.1929 15.884 12.2709 15.8907 12.3482C15.9028 12.4914 15.8452 12.5459 15.6997 12.5432C15.3115 12.5365 14.9234 12.5412 14.5359 12.5412C14.07 12.5412 13.6047 12.5425 13.1388 12.5412C12.8526 12.5398 12.8499 12.5385 12.8499 12.2487C12.8492 10.6135 12.8499 8.97757 12.8499 7.34233C12.8499 6.97521 12.8499 6.60809 12.8499 6.24097H12.8492Z" fill="white"/>
<path d="M0.198462 24.6354C0.193099 24.5244 0.183043 24.4135 0.183043 24.3032C0.182373 21.4214 0.182373 18.5402 0.182373 15.6584C0.182373 15.6362 0.182373 15.614 0.182373 15.5918C0.185725 15.3047 0.185725 15.3027 0.472649 15.3021C1.13767 15.3007 1.80336 15.3115 2.46838 15.2967C2.70368 15.2913 2.84916 15.3612 2.98256 15.5629C3.56446 16.4417 4.16512 17.3084 4.75841 18.1798C5.38321 19.097 6.00867 20.0134 6.63012 20.9332C6.70989 21.0516 6.80777 21.1605 6.85135 21.3017C6.08107 21.6883 5.3108 22.0756 4.54053 22.4622C4.17853 21.9452 3.81786 21.4275 3.45451 20.9111C3.39217 20.8223 3.35262 20.7147 3.21116 20.6273C3.20178 21.4913 3.19239 22.3264 3.18301 23.1615C3.07307 23.2113 2.96178 23.2577 2.85385 23.3115C1.96827 23.7525 1.08337 24.195 0.197792 24.6367L0.198462 24.6354Z" fill="white"/>
<path d="M4.54053 22.461C5.3108 22.0744 6.08107 21.6871 6.85134 21.3005C7.17714 21.6656 7.38697 22.1187 7.75971 22.5403C7.76775 21.917 7.7758 21.361 7.78317 20.8056C7.96015 20.772 8.10428 20.663 8.26518 20.5924C8.5769 20.4546 8.86115 20.2576 9.1903 20.1567C9.17489 20.3672 9.15813 20.5777 9.14405 20.7881C9.08304 21.7019 9.1179 22.6062 9.36259 23.4965C9.47723 23.9133 9.5684 24.3349 9.74404 24.735C9.98739 25.2884 10.2951 25.798 10.6799 26.2613C10.7831 26.385 10.8415 26.5148 10.8354 26.6842C10.8234 27.0063 10.8247 27.329 10.8354 27.6511C10.8408 27.8165 10.7738 27.8602 10.6216 27.8595C9.89019 27.8548 9.1588 27.8535 8.42808 27.8609C8.27523 27.8622 8.18875 27.8017 8.1063 27.6807C7.43189 26.6903 6.75145 25.7052 6.07503 24.7162C5.56152 23.9658 5.0527 23.2127 4.5412 22.461H4.54053Z" fill="#FFA200"/>
<path d="M29.1073 10.116C29.9889 9.67824 30.8698 9.23985 31.7513 8.8028C31.87 8.74363 31.9913 8.68984 32.1113 8.63403C32.1174 9.02267 32.122 9.41131 32.1287 9.79994C32.1334 10.0662 32.1341 10.0696 32.409 10.0696C34.0708 10.0709 35.7334 10.0696 37.3953 10.0696C37.473 10.0696 37.5508 10.0736 37.6279 10.0696C37.7506 10.0622 37.8082 10.1059 37.8076 10.239C37.8035 10.9504 37.8042 11.6624 37.8076 12.3738C37.8076 12.5063 37.7459 12.55 37.6245 12.5426C37.5582 12.5386 37.4918 12.5426 37.4254 12.5426C34.7768 12.5426 32.1287 12.5426 29.4801 12.5426C29.4465 12.5426 29.4137 12.5426 29.3802 12.5426C29.0919 12.5386 29.0865 12.5386 29.0892 12.2494C29.0973 11.5387 29.0644 10.8273 29.1073 10.1166V10.116Z" fill="#FFA200"/>
<path d="M18.5789 15.4017C17.7209 15.836 16.8628 16.2717 16.004 16.7041C14.2161 17.6037 12.4275 18.502 10.6383 19.399C10.5102 19.4629 10.3902 19.5462 10.2461 19.5738C10.2273 19.3546 10.3158 19.1589 10.3889 18.9633C11.1464 16.936 12.6119 15.719 14.6921 15.2363C15.8853 14.9592 17.084 14.9814 18.2746 15.284C18.3812 15.3109 18.4911 15.3284 18.5796 15.4017H18.5789Z" fill="white"/>
<path d="M0.198432 24.6354C1.08334 24.1936 1.96824 23.7512 2.85449 23.3101C2.96242 23.2563 3.07371 23.2099 3.18365 23.1602C3.18901 23.2153 3.1984 23.2704 3.1984 23.3256C3.19907 24.7463 3.19974 26.1664 3.1984 27.5871C3.1984 27.8507 3.19437 27.8561 2.95639 27.8567C2.105 27.8594 1.25294 27.8561 0.401558 27.8594C0.259437 27.8594 0.17698 27.8406 0.178991 27.6638C0.191058 26.6545 0.192399 25.6446 0.197762 24.6354H0.198432Z" fill="#FFA200"/>
<path d="M9.18956 20.1573C8.86041 20.2582 8.57616 20.4552 8.26444 20.593C8.10354 20.6643 7.96008 20.7725 7.78243 20.8062C7.77774 20.4283 7.76969 20.0504 7.76902 19.6725C7.76768 18.3264 7.76902 16.981 7.76835 15.6349C7.76835 15.2496 7.75696 15.302 8.11427 15.3014C8.93415 15.3 9.7547 15.2994 10.5746 15.3014C10.8253 15.3014 10.8253 15.3061 10.8307 15.5602C10.8307 15.5717 10.8307 15.5824 10.8307 15.5939C10.8695 16.125 10.8595 16.6408 10.3936 17.0153C9.7728 17.8934 9.42018 18.8778 9.24655 19.9327C9.23381 20.0087 9.23716 20.0894 9.18889 20.156L9.18956 20.1573Z" fill="white"/>
<path d="M34.3404 7.51465C35.3493 7.00633 36.3576 6.49733 37.3658 5.98901C37.4101 6.4422 37.3732 6.89606 37.3866 7.34924C37.39 7.4696 37.3524 7.53549 37.219 7.53415C36.259 7.52204 35.299 7.55701 34.3397 7.51465H34.3404Z" fill="#FFA200"/>
</g>
<defs>
<clipPath id="clip0_170_10075">
<rect width="38" height="28" fill="white"/>
</clipPath>
</defs>
</svg>
