<svg width="82" height="60" viewBox="0 0 82 60" fill="none" xmlns="http://www.w3.org/2000/svg">
<g clip-path="url(#clip0_37_620)">
<path d="M44.4937 32.7873H45.4817C47.1815 32.7873 48.8798 32.7873 50.5796 32.7873C51.1857 32.7873 51.1944 32.7901 51.3289 33.3636C52.2113 37.1616 53.0894 40.961 53.969 44.759C54.3596 46.4505 54.7502 48.1406 55.1379 49.8336C55.1755 49.9978 55.2087 50.1592 55.3331 50.2889C55.4821 50.2226 55.4937 50.0728 55.527 49.9488C56.8897 44.7734 58.2495 39.598 59.6093 34.4226C59.7178 34.0091 59.8451 33.5984 59.9377 33.1806C60.0086 32.8636 60.1808 32.7772 60.4961 32.7801C62.1944 32.7945 63.8942 32.7916 65.594 32.7815C65.8819 32.7801 66.0048 32.8694 66.0786 33.1619C66.4316 34.5696 66.8178 35.9671 67.1882 37.3705C68.3021 41.6022 69.4131 45.8353 70.5255 50.0684C70.5501 50.1621 70.5747 50.2529 70.7237 50.3163C70.9552 49.9373 70.9711 49.4878 71.068 49.0743C72.0589 44.8383 73.031 40.5965 74.0104 36.3576C74.2505 35.3145 74.5023 34.2756 74.7381 33.231C74.8017 32.9486 74.8885 32.7757 75.2444 32.7786C77.4215 32.7959 79.6001 32.7901 81.7773 32.7945C81.8438 32.7945 81.9104 32.8276 82.0044 32.8521C81.9726 33.5307 81.7079 34.1503 81.5256 34.7814C79.726 40.9956 77.9076 47.2041 76.0935 53.414C75.5337 55.3317 74.9579 57.2452 74.4169 59.1686C74.3127 59.5389 74.1493 59.66 73.7732 59.6556C72.0025 59.6398 70.2318 59.634 68.4612 59.6585C68.0504 59.6643 67.8854 59.5375 67.7712 59.1456C66.828 55.9268 65.8587 52.7167 64.9011 49.5022C64.3499 47.6565 63.8074 45.8079 63.2505 43.9622C63.2056 43.8138 63.2114 43.6237 62.9785 43.4954C62.857 43.6813 62.802 43.8945 62.7384 44.1092C61.2585 49.0786 59.7772 54.048 58.2929 59.0174C58.0904 59.696 58.0817 59.6945 57.3844 59.6945C55.7093 59.6945 54.0341 59.6931 52.3589 59.6945C51.6819 59.6945 51.7615 59.6355 51.6255 59.16C51.109 57.3532 50.5752 55.5522 50.0284 53.754C49.9228 53.4054 49.9937 53.1114 50.1094 52.7887C50.6967 51.1476 51.1785 49.4748 51.258 47.7242C51.3868 44.9132 51.1365 42.1411 50.0675 39.5116C49.146 37.2452 47.7196 35.3188 45.7898 33.7829C45.4065 33.4789 45.0159 33.1849 44.4994 32.7873H44.4937Z" fill="#FD7A0F"/>
<path d="M54.685 16.7351C56.5048 20.0692 58.3348 23.4234 60.2183 26.8756C59.7858 26.8756 59.482 26.8756 59.1796 26.8756C57.3367 26.8756 55.4937 26.8525 53.6507 26.8914C53.1617 26.9015 52.9143 26.7243 52.706 26.3295C51.7064 24.4334 50.6923 22.5459 49.6841 20.6541C49.2472 19.8343 48.806 19.0174 48.3821 18.1903C48.2143 17.8647 48.0103 17.6889 47.6096 17.7077C46.8935 17.7394 46.1746 17.7134 45.4556 17.7177C44.8234 17.7206 44.8205 17.7235 44.8191 18.3993C44.8176 20.2838 44.8191 22.1684 44.8191 24.0516C44.8191 24.8152 44.8234 25.5774 44.8176 26.341C44.8133 26.8612 44.8061 26.8713 44.32 26.8727C42.477 26.877 40.634 26.8655 38.791 26.8828C38.4135 26.8857 38.263 26.769 38.3035 26.3972C38.3194 26.256 38.3064 26.112 38.3064 25.9679C38.3064 17.6198 38.3064 9.27167 38.3064 0.923568C38.3064 0.851527 38.3064 0.780927 38.3064 0.708886C38.3035 -0.0792418 38.2934 0.0129706 39.0022 0.0129706C42.6405 0.0129706 46.2787 -0.0288132 49.9155 0.0273787C52.2764 0.0633992 54.4998 0.641167 56.3718 2.18861C57.9732 3.51272 58.8353 5.25035 59.1536 7.27037C59.3822 8.71695 59.3474 10.1635 58.9728 11.5842C58.3956 13.7728 57.098 15.4052 55.0799 16.4585C54.9743 16.5132 54.8716 16.5737 54.7704 16.6343C54.7515 16.6458 54.7385 16.6688 54.6836 16.7337L54.685 16.7351ZM44.8205 8.96045C44.8205 10.0079 44.8234 11.0554 44.8191 12.1029C44.8191 12.3622 44.8278 12.574 45.1836 12.5639C46.6129 12.5207 48.045 12.6518 49.47 12.4299C50.9903 12.1922 52.0739 11.3421 52.3502 10.0339C52.5021 9.31345 52.4948 8.57287 52.3183 7.84094C52.1795 7.26461 51.8887 6.79634 51.4663 6.38859C50.8529 5.79642 50.0906 5.55436 49.2804 5.4218C47.977 5.20856 46.6606 5.34688 45.3514 5.31806C44.8321 5.30654 44.8249 5.32815 44.822 5.89007C44.8176 6.91449 44.822 7.93747 44.822 8.96189L44.8205 8.96045Z" fill="white"/>
<path d="M23.6608 13.4836C23.6608 17.6562 23.6608 21.8302 23.6608 26.0028C23.6608 26.17 23.6521 26.3371 23.6608 26.5028C23.6781 26.7809 23.5508 26.8774 23.2789 26.8774C21.3404 26.8716 19.4019 26.8716 17.4635 26.8774C17.1799 26.8774 17.0888 26.7549 17.0946 26.4898C17.1047 25.9654 17.0975 25.4409 17.0975 24.9165C17.0975 22.1746 17.0975 19.4313 17.0975 16.6894C17.0975 16.1347 17.125 16.1404 16.5492 16.1419C13.4144 16.1447 10.2796 16.1419 7.14476 16.1448C6.5748 16.1448 6.56901 16.152 6.56756 16.7312C6.56467 19.8073 6.56756 22.8835 6.56756 25.9596C6.56756 26.1022 6.55454 26.2478 6.57046 26.389C6.61096 26.7549 6.47064 26.8947 6.08873 26.8832C5.30033 26.8587 4.50903 26.876 3.71917 26.876C2.64289 26.876 1.56516 26.863 0.488881 26.8832C0.11276 26.8904 -0.0391343 26.7621 0.00426419 26.3918C0.020177 26.2507 0.00715742 26.1066 0.00715742 25.9625C0.00715742 17.6158 0.00715742 9.26916 0.00715742 0.922502C0.00715742 0.827408 0.00715742 0.732314 0.00715742 0.635779C0.0172837 0.0219903 0.0172837 0.0176679 0.640775 0.0162271C2.41143 0.0133454 4.18209 0.0133454 5.95275 0.0162271C6.56322 0.0162271 6.56901 0.0234311 6.56901 0.651628C6.57046 3.75227 6.56901 6.85147 6.56901 9.95211C6.56901 10.1192 6.5748 10.2864 6.56901 10.4535C6.56178 10.6624 6.65291 10.759 6.86412 10.7489C6.98419 10.7431 7.10281 10.7489 7.22288 10.7489C10.31 10.7489 13.397 10.7489 16.4841 10.7489C17.1467 10.7489 17.0975 10.7964 17.0975 10.125C17.0975 7.07192 17.0975 4.02026 17.0975 0.967167C17.0975 0.824526 17.0946 0.680444 17.0975 0.537803C17.1105 0.0306353 17.1119 0.0176679 17.611 0.0162271C19.1907 0.0104638 20.7704 0.0133454 22.3487 0.0133454C22.6597 0.0133454 22.9707 0.0234312 23.2818 0.0104638C23.5581 -0.00106274 23.6752 0.115644 23.6579 0.389399C23.6478 0.555093 23.6564 0.723669 23.6564 0.889363C23.6564 5.08647 23.6564 9.28357 23.6564 13.4807L23.6608 13.4836Z" fill="white"/>
<path d="M40.0916 33.0034C41.6366 33.3506 43.0007 34.0811 44.2448 35.0263C46.7634 36.9383 48.3257 39.4626 48.968 42.5503C49.4787 45.0083 49.5148 47.4764 48.968 49.9287C48.0104 54.2166 45.5019 57.2682 41.3906 58.8704C37.5181 60.3804 33.5659 60.3847 29.702 58.8373C25.2016 57.0334 22.6367 53.6143 21.8382 48.8798C21.4707 46.7012 21.5127 44.5126 21.9611 42.3428C21.9901 42.2059 22.0581 42.0777 22.1087 41.9465C22.4197 41.8875 22.6787 41.7088 22.955 41.5719C26.816 39.6499 30.6756 37.7249 34.5337 35.7971C36.3882 34.8707 38.2385 33.937 40.0901 33.0063L40.0916 33.0034ZM28.8022 46.3065C28.8152 46.8612 28.834 47.7185 29.0047 48.5642C29.5356 51.1923 30.9707 53.7065 34.4961 54.156C37.6092 54.5537 40.6905 53.4068 41.7783 49.4302C41.9867 48.668 42.0951 47.8885 42.1313 47.1032C42.2196 45.2561 42.085 43.4335 41.3313 41.7103C40.4778 39.7594 39.0167 38.539 36.9061 38.1284C36.1987 37.9901 35.4812 37.9757 34.7622 38.029C32.1323 38.2206 30.3544 39.5533 29.4156 42.0042C28.9223 43.2923 28.7848 44.638 28.8007 46.3079L28.8022 46.3065Z" fill="#FD7A0F"/>
<path d="M74.103 16.1026C72.8213 16.1919 71.5396 16.1199 70.2579 16.1429C70.0684 16.1458 69.8775 16.1559 69.688 16.1415C69.4015 16.1184 69.3263 16.2524 69.3263 16.5175C69.3278 17.1789 69.3061 17.8402 69.2945 18.503C69.0355 18.624 68.7737 18.7393 68.5177 18.8646C66.6154 19.8012 64.7145 20.7406 62.8122 21.6786C62.7977 21.4423 62.7731 21.2045 62.7731 20.9682C62.7717 14.2454 62.7702 7.52396 62.7731 0.801097C62.7731 -0.0504266 62.6921 0.015851 63.5268 0.015851C69.2916 0.015851 75.0564 0.015851 80.8226 0.015851C80.9904 0.015851 81.1567 0.0187326 81.3245 0.0187326C81.5025 0.0187326 81.5806 0.116708 81.5849 0.282402C81.5893 0.449537 81.5893 0.616672 81.5893 0.782366C81.5893 2.02147 81.5951 3.26201 81.5878 4.50112C81.582 5.42468 81.7093 5.30942 80.8067 5.31086C78.1999 5.31662 75.5916 5.3123 72.9848 5.3123C71.9563 5.3123 70.9277 5.30942 69.8992 5.3123C69.348 5.31518 69.3393 5.32094 69.3379 5.85117C69.3321 7.30495 69.3335 8.75874 69.3379 10.214C69.3393 10.737 69.3466 10.7442 69.8977 10.7456C72.7447 10.7485 75.5916 10.7456 78.4371 10.7456C79.0346 10.7456 79.6334 10.76 80.2309 10.7399C80.5709 10.7283 80.7097 10.8422 80.6851 11.1894C80.6475 11.7355 80.73 12.2844 80.6374 12.8305C78.4617 13.9197 76.2845 15.0104 74.1088 16.0997L74.103 16.1026Z" fill="white"/>
<path d="M27.7273 13.3737C27.7273 9.2731 27.7273 5.17253 27.7273 1.07196C27.7273 0.952377 27.7273 0.834229 27.7273 0.714642C27.7273 -0.0288208 27.6767 0.0144038 28.4246 0.0144038C30.1706 0.0144038 31.9181 0.012963 33.6642 0.0144038C34.2819 0.0144038 34.2877 0.020167 34.2877 0.64116C34.2891 5.48087 34.2877 10.3206 34.2877 15.1603C34.2877 18.7609 34.2877 22.3601 34.2877 25.9607C34.2877 26.1278 34.2761 26.2949 34.2906 26.4606C34.3166 26.7675 34.1922 26.8842 33.8783 26.8785C33.0407 26.8641 32.2031 26.8741 31.367 26.8741C30.3616 26.8741 29.3576 26.877 28.3522 26.8741C27.7345 26.8713 27.7287 26.8684 27.7287 26.2474C27.7273 22.7433 27.7287 19.2378 27.7287 15.7337C27.7287 14.947 27.7287 14.1604 27.7287 13.3737H27.7273Z" fill="white"/>
<path d="M0.428273 52.7902C0.416701 52.5524 0.395001 52.3147 0.395001 52.0784C0.393555 45.903 0.393555 39.7291 0.393555 33.5538C0.393555 33.5062 0.393555 33.4587 0.393555 33.4111C0.400788 32.7959 0.400788 32.7916 1.01994 32.7902C2.45498 32.7873 3.89147 32.8103 5.32652 32.7786C5.83428 32.7671 6.14819 32.9169 6.43607 33.3492C7.69173 35.2323 8.9879 37.0896 10.2682 38.9569C11.6164 40.9221 12.9661 42.886 14.3071 44.857C14.4793 45.1106 14.6905 45.344 14.7845 45.6466C13.1223 46.475 11.4602 47.305 9.79801 48.1334C9.01683 47.0254 8.23855 45.916 7.45449 44.8095C7.31995 44.6193 7.2346 44.3887 6.92937 44.2014C6.90911 46.0529 6.88886 47.8424 6.86861 49.6319C6.63136 49.7385 6.39123 49.8379 6.15832 49.9532C4.24734 50.8984 2.33781 51.8464 0.426827 52.793L0.428273 52.7902Z" fill="white"/>
<path d="M9.79785 48.1305C11.46 47.3021 13.1222 46.4722 14.7843 45.6437C15.4874 46.4261 15.9402 47.3972 16.7445 48.3006C16.7619 46.9649 16.7792 45.7734 16.7951 44.5832C17.177 44.5112 17.4881 44.2778 17.8353 44.1265C18.5079 43.8311 19.1213 43.409 19.8316 43.1929C19.7983 43.6438 19.7621 44.0948 19.7318 44.5458C19.6001 46.5039 19.6753 48.4418 20.2034 50.3494C20.4507 51.2427 20.6475 52.1461 21.0265 53.0034C21.5516 54.1892 22.2156 55.2813 23.046 56.274C23.2687 56.5392 23.3946 56.8172 23.3816 57.1803C23.3555 57.8705 23.3584 58.5621 23.3816 59.2522C23.3932 59.6067 23.2485 59.7003 22.9201 59.6989C21.3418 59.6888 19.7636 59.6859 18.1868 59.7018C17.8569 59.7046 17.6703 59.575 17.4924 59.3156C16.0371 57.1933 14.5688 55.0825 13.1092 52.963C12.001 51.3551 10.9031 49.7414 9.7993 48.1305H9.79785Z" fill="#FD7A0F"/>
<path d="M62.8105 21.6771C64.7128 20.7391 66.6137 19.7997 68.516 18.8632C68.772 18.7364 69.0339 18.6211 69.2928 18.5016C69.3058 19.3343 69.3159 20.1671 69.3304 20.9999C69.3405 21.5705 69.342 21.5777 69.9351 21.5777C73.5213 21.5806 77.1089 21.5777 80.695 21.5777C80.8628 21.5777 81.0306 21.5863 81.197 21.5777C81.4617 21.5619 81.5861 21.6555 81.5847 21.9408C81.576 23.4652 81.5775 24.991 81.5847 26.5154C81.5847 26.7992 81.4516 26.8929 81.1898 26.877C81.0466 26.8684 80.9033 26.877 80.7601 26.877C75.0446 26.877 69.3304 26.877 63.6148 26.877C63.5425 26.877 63.4716 26.877 63.3993 26.877C62.7772 26.8684 62.7657 26.8684 62.7715 26.2488C62.7888 24.7259 62.7179 23.2015 62.8105 21.6786V21.6771Z" fill="#FD7A0F"/>
<path d="M40.0914 33.0034C38.2398 33.9341 36.3881 34.8678 34.535 35.7942C30.6769 37.7221 26.8173 39.647 22.9563 41.569C22.68 41.7059 22.421 41.8846 22.11 41.9437C22.0695 41.4739 22.2604 41.0547 22.4181 40.6354C24.0528 36.2913 27.2151 33.6834 31.704 32.6489C34.2789 32.0553 36.8655 32.1029 39.4347 32.7512C39.6647 32.8089 39.9019 32.8463 40.0929 33.0034H40.0914Z" fill="white"/>
<path d="M0.42826 52.7902C2.33779 51.8435 4.24733 50.8955 6.15975 49.9503C6.39266 49.835 6.6328 49.7356 6.87004 49.629C6.88162 49.7471 6.90187 49.8653 6.90187 49.9834C6.90331 53.0279 6.90476 56.0709 6.90187 59.1153C6.90187 59.6801 6.89319 59.6917 6.37964 59.6931C4.54244 59.6989 2.70379 59.6917 0.866585 59.6989C0.559902 59.6989 0.381968 59.6585 0.386308 59.2796C0.412347 57.1169 0.41524 54.9528 0.426813 52.7902H0.42826Z" fill="#FD7A0F"/>
<path d="M19.8301 43.1943C19.1198 43.4104 18.5064 43.8326 17.8338 44.128C17.4866 44.2807 17.177 44.5127 16.7937 44.5847C16.7835 43.775 16.7662 42.9652 16.7647 42.1555C16.7618 39.271 16.7647 36.3879 16.7633 33.5034C16.7633 32.6778 16.7387 32.7902 17.5097 32.7887C19.2789 32.7858 21.0496 32.7844 22.8188 32.7887C23.3598 32.7887 23.3598 32.7988 23.3714 33.3434C23.3714 33.3679 23.3714 33.391 23.3714 33.4155C23.4553 34.5537 23.4336 35.6588 22.4282 36.4614C21.0887 38.3431 20.3277 40.4524 19.9531 42.7131C19.9256 42.8759 19.9328 43.0488 19.8287 43.1914L19.8301 43.1943Z" fill="white"/>
<path d="M74.103 16.1026C76.2802 15.0133 78.4559 13.9226 80.6316 12.8334C80.7271 13.8045 80.6475 14.777 80.6764 15.7482C80.6837 16.0061 80.6027 16.1473 80.3148 16.1444C78.2432 16.1184 76.1717 16.1934 74.1016 16.1026H74.103Z" fill="#FD7A0F"/>
</g>
<defs>
<clipPath id="clip0_37_620">
<rect width="82" height="60" fill="white"/>
</clipPath>
</defs>
</svg>
