<svg width="122" height="90" viewBox="0 0 122 90" fill="none" xmlns="http://www.w3.org/2000/svg">
<g clip-path="url(#clip0_39_233)">
<path d="M66.1978 49.1809H67.6678C70.1967 49.1809 72.7235 49.1809 75.2524 49.1809C76.1542 49.1809 76.1671 49.1852 76.3673 50.0454C77.6802 55.7424 78.9866 61.4415 80.2952 67.1385C80.8763 69.6758 81.4574 72.2109 82.0342 74.7503C82.0902 74.9967 82.1397 75.2388 82.3248 75.4333C82.5465 75.3339 82.5637 75.1091 82.6132 74.9233C84.6407 67.1601 86.6638 59.397 88.687 51.6339C88.8484 51.0136 89.0378 50.3976 89.1755 49.7709C89.281 49.2954 89.5371 49.1657 90.0063 49.1701C92.5331 49.1917 95.062 49.1874 97.5909 49.1722C98.0193 49.1701 98.2022 49.3041 98.312 49.7428C98.8371 51.8543 99.4118 53.9507 99.9628 56.0557C101.62 62.4033 103.273 68.7529 104.928 75.1026C104.965 75.2431 105.001 75.3793 105.223 75.4744C105.567 74.906 105.591 74.2317 105.735 73.6114C107.209 67.2574 108.656 60.8947 110.113 54.5364C110.47 52.9717 110.845 51.4134 111.196 49.8465C111.29 49.4229 111.419 49.1636 111.949 49.1679C115.188 49.1938 118.429 49.1852 121.669 49.1917C121.768 49.1917 121.867 49.2414 122.006 49.2781C121.959 50.2961 121.565 51.2254 121.294 52.172C118.617 61.4934 115.911 70.8061 113.212 80.121C112.379 82.9976 111.523 85.8677 110.718 88.7529C110.563 89.3084 110.32 89.4899 109.76 89.4834C107.126 89.4597 104.491 89.451 101.857 89.4878C101.246 89.4964 101 89.3062 100.83 88.7184C99.4268 83.8902 97.9848 79.075 96.56 74.2533C95.74 71.4847 94.9329 68.7119 94.1043 65.9433C94.0375 65.7207 94.0461 65.4355 93.6996 65.2431C93.5188 65.5219 93.437 65.8418 93.3423 66.1638C91.1406 73.6179 88.9366 81.0719 86.7284 88.526C86.4271 89.5439 86.4141 89.5418 85.3767 89.5418C82.8844 89.5418 80.3921 89.5396 77.8997 89.5418C76.8924 89.5418 77.0108 89.4532 76.8085 88.74C76.0401 86.0298 75.2459 83.3283 74.4324 80.631C74.2753 80.108 74.3807 79.6671 74.5529 79.183C75.4267 76.7214 76.1434 74.2122 76.2618 71.5863C76.4534 67.3698 76.081 63.2116 74.4905 59.2673C73.1195 55.8677 70.9973 52.9781 68.1262 50.6743C67.5558 50.2183 66.9747 49.7774 66.2064 49.1809H66.1978Z" fill="#FD7A0F"/>
<path d="M81.3605 25.1027C84.0681 30.1038 86.7907 35.1351 89.593 40.3134C88.9494 40.3134 88.4975 40.3134 88.0476 40.3134C85.3056 40.3134 82.5636 40.2788 79.8216 40.3372C79.0941 40.3523 78.7261 40.0865 78.4162 39.4943C76.9289 36.6501 75.4202 33.8189 73.9201 30.9812C73.2701 29.7515 72.6136 28.5261 71.983 27.2855C71.7333 26.7971 71.4299 26.5334 70.8337 26.5615C69.7683 26.6091 68.6986 26.5702 67.6289 26.5766C66.6884 26.581 66.6841 26.5853 66.6819 27.5989C66.6798 30.4258 66.6819 33.2527 66.6819 36.0774C66.6819 37.2229 66.6884 38.3661 66.6798 39.5116C66.6733 40.2918 66.6625 40.3069 65.9394 40.3091C63.1974 40.3156 60.4554 40.2983 57.7134 40.3242C57.1516 40.3285 56.9278 40.1535 56.988 39.5959C57.0117 39.3841 56.9923 39.168 56.9923 38.9518C56.9923 26.4297 56.9923 13.9075 56.9923 1.38537C56.9923 1.27731 56.9923 1.17141 56.9923 1.06335C56.988 -0.11884 56.973 0.0194787 58.0276 0.0194787C63.4406 0.0194787 68.8536 -0.0431969 74.2644 0.041091C77.7769 0.0951217 81.085 0.961774 83.8701 3.28293C86.2526 5.2691 87.5354 7.87554 88.0089 10.9056C88.349 13.0755 88.2973 15.2453 87.7399 17.3763C86.8811 20.6592 84.9505 23.1079 81.9481 24.6877C81.7909 24.7699 81.6381 24.8606 81.4875 24.9514C81.4595 24.9687 81.4401 25.0033 81.3583 25.1005L81.3605 25.1027ZM66.6841 13.4407C66.6841 15.0119 66.6884 16.5831 66.6819 18.1543C66.6819 18.5434 66.6948 18.8611 67.2243 18.8459C69.3508 18.7811 71.4815 18.9778 73.6015 18.6449C75.8636 18.2883 77.4756 17.0132 77.8867 15.0508C78.1127 13.9702 78.1019 12.8593 77.8394 11.7614C77.6327 10.8969 77.2001 10.1945 76.5717 9.58291C75.6591 8.69465 74.5248 8.33156 73.3196 8.13273C71.3804 7.81287 69.4218 8.02034 67.474 7.97712C66.7013 7.95983 66.6905 7.99225 66.6862 8.83513C66.6798 10.3718 66.6862 11.9062 66.6862 13.4429L66.6841 13.4407Z" fill="#22305F"/>
<path d="M35.2026 20.2253C35.2026 26.4842 35.2026 32.7453 35.2026 39.0042C35.2026 39.2549 35.1897 39.5056 35.2026 39.7542C35.2284 40.1713 35.039 40.3161 34.6344 40.3161C31.7503 40.3075 28.8663 40.3075 25.9822 40.3161C25.5604 40.3161 25.4248 40.1324 25.4334 39.7347C25.4484 38.9481 25.4377 38.1614 25.4377 37.3747C25.4377 33.2619 25.4377 29.1469 25.4377 25.0341C25.4377 24.202 25.4786 24.2106 24.622 24.2128C19.958 24.2171 15.294 24.2128 10.63 24.2171C9.78198 24.2171 9.77337 24.2279 9.77122 25.0967C9.76691 29.711 9.77122 34.3252 9.77122 38.9394C9.77122 39.1534 9.75184 39.3716 9.77552 39.5834C9.83578 40.1324 9.62701 40.342 9.05881 40.3248C7.88582 40.288 6.70852 40.3139 5.53337 40.3139C3.93207 40.3139 2.32862 40.2945 0.727323 40.3248C0.16773 40.3356 -0.0582599 40.1432 0.00630855 39.5878C0.0299837 39.376 0.0106131 39.1599 0.0106131 38.9437C0.0106131 26.4237 0.0106131 13.9037 0.0106131 1.38375C0.0106131 1.2411 0.0106131 1.09846 0.0106131 0.953661C0.0256791 0.0329778 0.0256791 0.0264942 0.953313 0.024333C3.58771 0.0200105 6.2221 0.0200105 8.8565 0.024333C9.76476 0.024333 9.77337 0.0351391 9.77337 0.977435C9.77552 5.6284 9.77337 10.2772 9.77337 14.9282C9.77337 15.1789 9.78198 15.4296 9.77337 15.6803C9.76261 15.9936 9.8982 16.1384 10.2124 16.1233C10.3911 16.1147 10.5676 16.1233 10.7462 16.1233C15.3392 16.1233 19.9321 16.1233 24.5251 16.1233C25.5109 16.1233 25.4377 16.1946 25.4377 15.1875C25.4377 10.6079 25.4377 6.03039 25.4377 1.45074C25.4377 1.23678 25.4334 1.02066 25.4377 0.806697C25.4571 0.0459453 25.4592 0.0264942 26.2017 0.024333C28.552 0.0156881 30.9023 0.0200105 33.2505 0.0200105C33.7132 0.0200105 34.1759 0.0351391 34.6387 0.0156881C35.0498 -0.00160174 35.2241 0.173458 35.1983 0.584091C35.1832 0.832632 35.1961 1.0855 35.1961 1.33404C35.1961 7.62969 35.1961 13.9254 35.1961 20.221L35.2026 20.2253Z" fill="#22305F"/>
<path d="M59.6485 49.5051C61.9471 50.026 63.9767 51.1217 65.8277 52.5395C69.5748 55.4074 71.8992 59.1939 72.8549 63.8254C73.6146 67.5125 73.6684 71.2147 72.8549 74.8931C71.43 81.3249 67.698 85.9024 61.5812 88.3056C55.8195 90.5706 49.9395 90.5771 44.1908 88.2559C37.495 85.5501 33.679 80.4215 32.4909 73.3197C31.9443 70.0519 32.0067 66.769 32.6739 63.5142C32.7169 63.3089 32.8181 63.1165 32.8934 62.9199C33.3562 62.8313 33.7414 62.5633 34.1525 62.3579C39.8969 59.4749 45.6392 56.5875 51.3794 53.6957C54.1386 52.3061 56.8914 50.9056 59.6463 49.5095L59.6485 49.5051ZM42.852 69.4597C42.8714 70.2918 42.8994 71.5777 43.1534 72.8464C43.9432 76.7885 46.0783 80.5598 51.3234 81.2341C55.9551 81.8306 60.5395 80.1103 62.158 74.1453C62.4679 73.002 62.6294 71.8328 62.6832 70.6549C62.8145 67.8842 62.6143 65.1503 61.493 62.5654C60.2231 59.6391 58.0493 57.8086 54.9091 57.1926C53.8567 56.9851 52.7891 56.9635 51.7194 57.0435C47.8066 57.3309 45.1614 59.3301 43.7646 63.0063C43.0307 64.9385 42.8262 66.957 42.8499 69.4619L42.852 69.4597Z" fill="#FD7A0F"/>
<path d="M110.251 24.1539C108.344 24.2879 106.437 24.1798 104.53 24.2144C104.248 24.2187 103.964 24.2339 103.682 24.2122C103.256 24.1777 103.144 24.3787 103.144 24.7763C103.146 25.7683 103.114 26.7603 103.097 27.7545C102.711 27.936 102.322 28.1089 101.941 28.297C99.1105 29.7018 96.2824 31.1109 93.4522 32.5178C93.4306 32.1634 93.3941 31.8068 93.3941 31.4524C93.3919 21.3681 93.3897 11.2859 93.3941 1.20165C93.3941 -0.0756399 93.2735 0.0237765 94.5154 0.0237765C103.092 0.0237765 111.669 0.0237765 120.248 0.0237765C120.498 0.0237765 120.745 0.0280989 120.995 0.0280989C121.26 0.0280989 121.376 0.175062 121.382 0.423604C121.389 0.674306 121.389 0.925008 121.389 1.17355C121.389 3.03221 121.397 4.89302 121.387 6.75168C121.378 8.13702 121.567 7.96413 120.224 7.96629C116.346 7.97493 112.465 7.96845 108.587 7.96845C107.057 7.96845 105.526 7.96413 103.996 7.96845C103.176 7.97277 103.163 7.98142 103.161 8.77675C103.153 10.9574 103.155 13.1381 103.161 15.3209C103.163 16.1055 103.174 16.1163 103.994 16.1184C108.23 16.1228 112.465 16.1184 116.699 16.1184C117.588 16.1184 118.479 16.1401 119.368 16.1098C119.874 16.0925 120.08 16.2632 120.044 16.7841C119.988 17.6032 120.11 18.4266 119.973 19.2457C116.736 20.8796 113.496 22.5157 110.259 24.1496L110.251 24.1539Z" fill="#22305F"/>
<path d="M41.2528 20.0605C41.2528 13.9096 41.2528 7.75879 41.2528 1.60793C41.2528 1.42855 41.2528 1.25133 41.2528 1.07195C41.2528 -0.0432464 41.1775 0.0215904 42.2902 0.0215904C44.888 0.0215904 47.4879 0.0194292 50.0858 0.0215904C51.0048 0.0215904 51.0134 0.0302353 51.0134 0.961724C51.0155 8.22129 51.0134 15.4809 51.0134 22.7404C51.0134 28.1413 51.0134 33.5401 51.0134 38.941C51.0134 39.1917 50.9962 39.4424 51.0177 39.6909C51.0564 40.1513 50.8713 40.3263 50.4043 40.3177C49.1581 40.2961 47.9119 40.3112 46.6679 40.3112C45.1721 40.3112 43.6784 40.3155 42.1826 40.3112C41.2635 40.3069 41.2549 40.3026 41.2549 39.3711C41.2528 34.115 41.2549 28.8567 41.2549 23.6006C41.2549 22.4206 41.2549 21.2405 41.2549 20.0605H41.2528Z" fill="#22305F"/>
<path d="M0.637104 79.1852C0.619886 78.8286 0.587601 78.472 0.587601 78.1176C0.585449 68.8545 0.585449 59.5937 0.585449 50.3307C0.585449 50.2593 0.585449 50.188 0.585449 50.1167C0.596211 49.1938 0.596211 49.1874 1.51739 49.1852C3.65245 49.1809 5.78967 49.2155 7.92473 49.1679C8.68018 49.1506 9.14723 49.3754 9.57553 50.0238C11.4437 52.8485 13.3722 55.6343 15.2769 58.4353C17.2829 61.3832 19.2909 64.3289 21.2861 67.2855C21.5422 67.6659 21.8565 68.016 21.9964 68.4698C19.5234 69.7125 17.0504 70.9574 14.5774 72.2001C13.4152 70.5381 12.2573 68.874 11.0907 67.2142C10.8906 66.9289 10.7636 66.5831 10.3095 66.3021C10.2793 69.0793 10.2492 71.7635 10.2191 74.4478C9.86609 74.6077 9.50881 74.7568 9.1623 74.9297C6.31913 76.3475 3.47812 77.7696 0.634952 79.1895L0.637104 79.1852Z" fill="#22305F"/>
<path d="M14.5774 72.1958C17.0504 70.9531 19.5233 69.7083 21.9963 68.4656C23.0423 69.6391 23.716 71.0958 24.9127 72.4509C24.9385 70.4474 24.9643 68.6601 24.988 66.8749C25.5562 66.7668 26.0189 66.4167 26.5355 66.1898C27.5363 65.7467 28.4489 65.1135 29.5056 64.7893C29.4561 65.4658 29.4023 66.1422 29.3571 66.8187C29.1613 69.7558 29.2732 72.6627 30.0588 75.5241C30.4268 76.8641 30.7195 78.2192 31.2834 79.5051C32.0647 81.2838 33.0526 82.922 34.288 84.4111C34.6194 84.8088 34.8067 85.2259 34.7873 85.7705C34.7486 86.8057 34.7529 87.8431 34.7873 88.8783C34.8045 89.41 34.5893 89.5505 34.1007 89.5483C31.7526 89.5332 29.4045 89.5289 27.0585 89.5527C26.5678 89.557 26.2901 89.3625 26.0254 88.9734C23.8602 85.79 21.6756 82.6238 19.504 79.4446C17.8553 77.0327 16.2217 74.6121 14.5795 72.1958H14.5774Z" fill="#FD7A0F"/>
<path d="M93.45 32.5157C96.2803 31.1087 99.1084 29.6996 101.939 28.2948C102.32 28.1046 102.709 27.9317 103.094 27.7523C103.114 29.0015 103.129 30.2507 103.15 31.4999C103.165 32.3557 103.168 32.3665 104.05 32.3665C109.386 32.3709 114.723 32.3665 120.059 32.3665C120.308 32.3665 120.558 32.3795 120.806 32.3665C121.199 32.3428 121.385 32.4832 121.382 32.9112C121.369 35.1977 121.372 37.4865 121.382 39.7731C121.382 40.1988 121.184 40.3393 120.795 40.3155C120.582 40.3026 120.369 40.3155 120.156 40.3155C111.652 40.3155 103.15 40.3155 94.6467 40.3155C94.5391 40.3155 94.4336 40.3155 94.326 40.3155C93.4005 40.3026 93.3833 40.3026 93.3919 39.3732C93.4178 37.0888 93.3123 34.8022 93.45 32.5178V32.5157Z" fill="#FD7A0F"/>
<path d="M59.6483 49.5051C56.8934 50.9012 54.1384 52.3017 51.3814 53.6914C45.6412 56.5831 39.8989 59.4705 34.1545 62.3536C33.7434 62.5589 33.3581 62.8269 32.8954 62.9155C32.8351 62.2109 33.1192 61.582 33.3538 60.9531C35.7859 54.437 40.4908 50.5252 47.1693 48.9734C51.0004 48.083 54.8487 48.1543 58.6711 49.1269C59.0134 49.2133 59.3663 49.2695 59.6504 49.5051H59.6483Z" fill="#22305F"/>
<path d="M0.636995 79.1852C3.47801 77.7653 6.31902 76.3432 9.16434 74.9254C9.51086 74.7525 9.86814 74.6034 10.2211 74.4435C10.2383 74.6207 10.2685 74.7979 10.2685 74.9751C10.2706 79.5418 10.2728 84.1063 10.2685 88.673C10.2685 89.5202 10.2555 89.5375 9.49149 89.5397C6.75809 89.5483 4.02254 89.5375 1.28914 89.5483C0.832852 89.5483 0.568121 89.4878 0.574578 88.9194C0.613319 85.6754 0.617624 82.4292 0.634842 79.1852H0.636995Z" fill="#FD7A0F"/>
<path d="M29.5034 64.7914C28.4466 65.1156 27.5341 65.7488 26.5333 66.1919C26.0167 66.421 25.5561 66.7689 24.9858 66.877C24.9707 65.6624 24.9449 64.4478 24.9427 63.2331C24.9384 58.9064 24.9427 54.5818 24.9406 50.255C24.9406 49.0166 24.904 49.1852 26.0511 49.183C28.6834 49.1787 31.3178 49.1765 33.95 49.183C34.755 49.183 34.755 49.1981 34.7722 50.0151C34.7722 50.0518 34.7722 50.0864 34.7722 50.1231C34.897 51.8305 34.8647 53.4882 33.3689 54.692C31.3759 57.5145 30.2438 60.6786 29.6863 64.0695C29.6455 64.3138 29.6562 64.5731 29.5013 64.7871L29.5034 64.7914Z" fill="#22305F"/>
<path d="M110.251 24.1538C113.49 22.5199 116.727 20.8839 119.964 19.25C120.106 20.7067 119.988 22.1655 120.031 23.6222C120.041 24.009 119.921 24.2208 119.493 24.2165C116.411 24.1776 113.328 24.29 110.249 24.1538H110.251Z" fill="#FD7A0F"/>
</g>
<defs>
<clipPath id="clip0_39_233">
<rect width="122" height="90" fill="white"/>
</clipPath>
</defs>
</svg>
