<svg width="28" height="18" viewBox="0 0 28 18" fill="none" xmlns="http://www.w3.org/2000/svg">
<g clip-path="url(#clip0_1_858)">
<rect x="1" y="1" width="26" height="16" rx="4" fill="#292B42" stroke="#FFA200" stroke-width="2"/>
<path d="M9.56809 6.84V8.845H12.0981V9.88H9.56809V11.925H12.7781V13H8.21809V5.77H12.7781V6.84H9.56809ZM16.88 11.915C17.14 11.915 17.3717 11.8717 17.575 11.785C17.7817 11.6983 17.955 11.5767 18.095 11.42C18.235 11.2633 18.3417 11.0733 18.415 10.85C18.4917 10.6267 18.53 10.3767 18.53 10.1V5.77H19.875V10.1C19.875 10.53 19.805 10.9283 19.665 11.295C19.5284 11.6583 19.33 11.9733 19.07 12.24C18.8134 12.5033 18.5 12.71 18.13 12.86C17.76 13.0067 17.3434 13.08 16.88 13.08C16.4134 13.08 15.995 13.0067 15.625 12.86C15.255 12.71 14.94 12.5033 14.68 12.24C14.4234 11.9733 14.225 11.6583 14.085 11.295C13.9484 10.9283 13.88 10.53 13.88 10.1V5.77H15.225V10.095C15.225 10.3717 15.2617 10.6217 15.335 10.845C15.4117 11.0683 15.52 11.26 15.66 11.42C15.8034 11.5767 15.9767 11.6983 16.18 11.785C16.3867 11.8717 16.62 11.915 16.88 11.915Z" fill="#FFA200"/>
</g>
<defs>
<clipPath id="clip0_1_858">
<rect width="28" height="18" fill="white"/>
</clipPath>
</defs>
</svg>
