<svg width="28" height="19" viewBox="0 0 28 19" fill="none" xmlns="http://www.w3.org/2000/svg">
<g clip-path="url(#clip0_69_408)">
<rect x="1" y="1.5" width="26" height="16" rx="4" fill="white" stroke="#828282" stroke-width="2"/>
<path d="M9.99 9.71C10.2433 9.71 10.4633 9.67833 10.65 9.615C10.84 9.55167 10.995 9.465 11.115 9.355C11.2383 9.24167 11.33 9.10833 11.39 8.955C11.45 8.80167 11.48 8.63333 11.48 8.45C11.48 8.08333 11.3583 7.80167 11.115 7.605C10.875 7.40833 10.5067 7.31 10.01 7.31H9.15V9.71H9.99ZM13.45 13.5H12.235C12.005 13.5 11.8383 13.41 11.735 13.23L10.215 10.915C10.1583 10.8283 10.095 10.7667 10.025 10.73C9.95833 10.6933 9.85833 10.675 9.725 10.675H9.15V13.5H7.805V6.27H10.01C10.5 6.27 10.92 6.32167 11.27 6.425C11.6233 6.525 11.9117 6.66667 12.135 6.85C12.3617 7.03333 12.5283 7.25333 12.635 7.51C12.7417 7.76333 12.795 8.04333 12.795 8.35C12.795 8.59333 12.7583 8.82333 12.685 9.04C12.615 9.25667 12.5117 9.45333 12.375 9.63C12.2417 9.80667 12.075 9.96167 11.875 10.095C11.6783 10.2283 11.4533 10.3333 11.2 10.41C11.2867 10.46 11.3667 10.52 11.44 10.59C11.5133 10.6567 11.58 10.7367 11.64 10.83L13.45 13.5ZM17.0822 12.415C17.3422 12.415 17.5739 12.3717 17.7772 12.285C17.9839 12.1983 18.1572 12.0767 18.2972 11.92C18.4372 11.7633 18.5439 11.5733 18.6172 11.35C18.6939 11.1267 18.7322 10.8767 18.7322 10.6V6.27H20.0772V10.6C20.0772 11.03 20.0072 11.4283 19.8672 11.795C19.7305 12.1583 19.5322 12.4733 19.2722 12.74C19.0155 13.0033 18.7022 13.21 18.3322 13.36C17.9622 13.5067 17.5455 13.58 17.0822 13.58C16.6155 13.58 16.1972 13.5067 15.8272 13.36C15.4572 13.21 15.1422 13.0033 14.8822 12.74C14.6255 12.4733 14.4272 12.1583 14.2872 11.795C14.1505 11.4283 14.0822 11.03 14.0822 10.6V6.27H15.4272V10.595C15.4272 10.8717 15.4639 11.1217 15.5372 11.345C15.6139 11.5683 15.7222 11.76 15.8622 11.92C16.0055 12.0767 16.1789 12.1983 16.3822 12.285C16.5889 12.3717 16.8222 12.415 17.0822 12.415Z" fill="#828282"/>
</g>
<defs>
<clipPath id="clip0_69_408">
<rect width="28" height="18" fill="white" transform="translate(0 0.5)"/>
</clipPath>
</defs>
</svg>
