<svg width="43" height="32" viewBox="0 0 43 32" fill="none" xmlns="http://www.w3.org/2000/svg">
<g clip-path="url(#clip0_358_321)">
<path d="M23.332 17.4866H23.8501C24.7415 17.4866 25.6321 17.4866 26.5234 17.4866C26.8413 17.4866 26.8458 17.4881 26.9164 17.7939C27.3791 19.8195 27.8396 21.8459 28.3008 23.8715C28.5056 24.7736 28.7104 25.675 28.9137 26.5779C28.9335 26.6655 28.9509 26.7516 29.0162 26.8208C29.0943 26.7854 29.1004 26.7055 29.1178 26.6394C29.8324 23.8792 30.5455 21.119 31.2586 18.3587C31.3154 18.1382 31.3822 17.9192 31.4308 17.6963C31.4679 17.5273 31.5582 17.4812 31.7236 17.4827C32.6142 17.4904 33.5055 17.4889 34.3968 17.4835C34.5478 17.4827 34.6123 17.5304 34.651 17.6864C34.8361 18.4371 35.0386 19.1825 35.2328 19.931C35.8169 22.1879 36.3995 24.4455 36.9829 26.7032C36.9958 26.7531 37.0087 26.8015 37.0868 26.8354C37.2082 26.6333 37.2165 26.3935 37.2674 26.173C37.787 23.9138 38.2968 21.6515 38.8103 19.3907C38.9363 18.8344 39.0683 18.2804 39.1919 17.7232C39.2253 17.5726 39.2708 17.4804 39.4574 17.482C40.5991 17.4912 41.7415 17.4881 42.8832 17.4904C42.9181 17.4904 42.953 17.5081 43.0023 17.5211C42.9856 17.8831 42.8468 18.2135 42.7512 18.5501C41.8075 21.8643 40.854 25.1755 39.9027 28.4875C39.6091 29.5103 39.3072 30.5308 39.0235 31.5566C38.9689 31.7541 38.8832 31.8187 38.6859 31.8164C37.7574 31.8079 36.8289 31.8048 35.9004 31.8179C35.6849 31.821 35.5985 31.7534 35.5385 31.5443C35.0439 29.8277 34.5357 28.1156 34.0335 26.4012C33.7445 25.4168 33.46 24.4309 33.1679 23.4466C33.1444 23.3674 33.1474 23.266 33.0253 23.1976C32.9616 23.2967 32.9328 23.4104 32.8994 23.5249C32.1233 26.1753 31.3465 28.8256 30.5682 31.4759C30.462 31.8379 30.4575 31.8371 30.0918 31.8371C29.2134 31.8371 28.3349 31.8363 27.4565 31.8371C27.1015 31.8371 27.1432 31.8056 27.0719 31.552C26.8011 30.5884 26.5211 29.6279 26.2344 28.6688C26.179 28.4829 26.2162 28.3261 26.2769 28.154C26.5849 27.2787 26.8375 26.3866 26.8792 25.4529C26.9467 23.9537 26.8155 22.4753 26.2549 21.0729C25.7717 19.8641 25.0237 18.8367 24.0117 18.0176C23.8107 17.8554 23.6059 17.6987 23.3351 17.4866H23.332Z" fill="#FD7A0F"/>
<path d="M28.6762 8.92534C29.6305 10.7035 30.5901 12.4924 31.5778 14.3336C31.351 14.3336 31.1917 14.3336 31.0331 14.3336C30.0667 14.3336 29.1002 14.3213 28.1338 14.3421C27.8774 14.3474 27.7476 14.2529 27.6384 14.0424C27.1142 13.0311 26.5825 12.0244 26.0537 11.0155C25.8246 10.5782 25.5933 10.1425 25.371 9.70146C25.283 9.5278 25.176 9.43405 24.9659 9.44404C24.5904 9.46094 24.2134 9.44711 23.8364 9.44942C23.5048 9.45095 23.5033 9.45249 23.5026 9.81289C23.5018 10.818 23.5026 11.8231 23.5026 12.8275C23.5026 13.2347 23.5048 13.6412 23.5018 14.0485C23.4995 14.3259 23.4957 14.3313 23.2409 14.3321C22.2744 14.3344 21.308 14.3282 20.3415 14.3374C20.1435 14.339 20.0646 14.2767 20.0859 14.0785C20.0942 14.0032 20.0874 13.9263 20.0874 13.8495C20.0874 9.39716 20.0874 4.94484 20.0874 0.492521C20.0874 0.454099 20.0874 0.416445 20.0874 0.378024C20.0859 -0.0423111 20.0806 0.0068688 20.4523 0.0068688C22.3601 0.0068688 24.268 -0.0154159 26.1751 0.0145532C27.4131 0.0337641 28.5791 0.341907 29.5607 1.16721C30.4004 1.8734 30.8526 2.80014 31.0195 3.87748C31.1393 4.64899 31.1211 5.4205 30.9246 6.17818C30.622 7.34544 29.9415 8.21608 28.8833 8.7778C28.8279 8.807 28.774 8.83928 28.7209 8.87155C28.7111 8.8777 28.7042 8.88999 28.6754 8.92457L28.6762 8.92534ZM23.5033 4.77886C23.5033 5.33751 23.5048 5.89617 23.5026 6.45482C23.5026 6.59314 23.5071 6.7061 23.6937 6.70072C24.4432 6.67767 25.1942 6.74759 25.9414 6.62925C26.7387 6.50246 27.3069 6.04909 27.4518 5.35134C27.5315 4.96713 27.5277 4.57215 27.4351 4.18178C27.3623 3.87441 27.2098 3.62467 26.9883 3.4072C26.6667 3.09137 26.2669 2.96228 25.8421 2.89158C25.1586 2.77785 24.4683 2.85162 23.7817 2.83625C23.5094 2.8301 23.5056 2.84163 23.5041 3.14132C23.5018 3.68768 23.5041 4.23327 23.5041 4.77963L23.5033 4.77886Z" fill="#22305F"/>
<path d="M12.4076 7.19119C12.4076 9.41658 12.4076 11.6427 12.4076 13.8681C12.4076 13.9573 12.403 14.0464 12.4076 14.1348C12.4167 14.2831 12.3499 14.3346 12.2073 14.3346C11.1908 14.3315 10.1743 14.3315 9.15775 14.3346C9.00906 14.3346 8.96127 14.2693 8.96431 14.1279C8.96962 13.8482 8.96583 13.5684 8.96583 13.2887C8.96583 11.8264 8.96583 10.3633 8.96583 8.90096C8.96583 8.60511 8.98024 8.60819 8.67832 8.60896C7.03445 8.61049 5.39058 8.60896 3.74672 8.61049C3.44783 8.61049 3.4448 8.61433 3.44404 8.92325C3.44252 10.5639 3.44404 12.2045 3.44404 13.8451C3.44404 13.9212 3.43721 13.9988 3.44555 14.0741C3.46679 14.2693 3.39321 14.3438 3.19294 14.3376C2.77951 14.3246 2.36456 14.3338 1.95037 14.3338C1.38598 14.3338 0.820828 14.3269 0.256436 14.3376C0.0592019 14.3415 -0.0204502 14.2731 0.00230755 14.0756C0.0106521 14.0003 0.00382474 13.9235 0.00382474 13.8466C0.00382474 9.39507 0.00382474 4.94351 0.00382474 0.49196C0.00382474 0.441243 0.00382474 0.390527 0.00382474 0.339041C0.00913488 0.0116875 0.00913488 0.00938219 0.336088 0.00861375C1.2646 0.00707688 2.19312 0.00707688 3.12164 0.00861375C3.44176 0.00861375 3.4448 0.0124559 3.4448 0.347494C3.44555 2.00117 3.4448 3.65408 3.4448 5.30775C3.4448 5.39689 3.44783 5.48603 3.4448 5.57517C3.441 5.68659 3.48879 5.73808 3.59955 5.7327C3.66251 5.72962 3.72472 5.7327 3.78768 5.7327C5.40651 5.7327 7.02535 5.7327 8.64418 5.7327C8.99162 5.7327 8.96583 5.75806 8.96583 5.39996C8.96583 3.77165 8.96583 2.1441 8.96583 0.515782C8.96583 0.439707 8.96431 0.362863 8.96583 0.286788C8.97265 0.0162981 8.97341 0.00938219 9.23512 0.00861375C10.0635 0.00554001 10.8919 0.00707688 11.7195 0.00707688C11.8826 0.00707688 12.0457 0.0124559 12.2088 0.00554001C12.3537 -0.000607486 12.4151 0.0616359 12.406 0.207639C12.4007 0.296009 12.4053 0.385916 12.4053 0.474286C12.4053 2.71274 12.4053 4.9512 12.4053 7.18965L12.4076 7.19119Z" fill="#22305F"/>
<path d="M21.0235 17.6018C21.8337 17.787 22.5491 18.1766 23.2014 18.6807C24.5222 19.7004 25.3414 21.0467 25.6782 22.6935C25.946 24.0044 25.965 25.3208 25.6782 26.6286C25.1761 28.9155 23.8607 30.543 21.7047 31.3975C19.674 32.2029 17.6015 32.2052 15.5753 31.3799C13.2153 30.4178 11.8704 28.5943 11.4516 26.0692C11.2589 24.9073 11.2809 23.7401 11.5161 22.5828C11.5313 22.5098 11.5669 22.4414 11.5935 22.3715C11.7566 22.34 11.8924 22.2447 12.0372 22.1717C14.0619 21.1466 16.0859 20.12 18.109 19.0918C19.0815 18.5977 20.0518 18.0998 21.0228 17.6033L21.0235 17.6018ZM15.1035 24.6968C15.1103 24.9926 15.1202 25.4498 15.2097 25.9009C15.4881 27.3025 16.2406 28.6435 18.0893 28.8832C19.7218 29.0953 21.3376 28.4836 21.908 26.3628C22.0173 25.9562 22.0742 25.5405 22.0931 25.1217C22.1394 24.1366 22.0689 23.1645 21.6736 22.2455C21.2261 21.205 20.4599 20.5541 19.3531 20.3351C18.9822 20.2614 18.6059 20.2537 18.2289 20.2821C16.8498 20.3843 15.9174 21.0951 15.4251 22.4022C15.1664 23.0892 15.0944 23.8069 15.1027 24.6975L15.1035 24.6968Z" fill="#FD7A0F"/>
<path d="M38.8589 8.58805C38.1868 8.63569 37.5147 8.59727 36.8426 8.60956C36.7432 8.6111 36.6431 8.61648 36.5437 8.6088C36.3935 8.5965 36.354 8.66796 36.354 8.80936C36.3548 9.16207 36.3434 9.51478 36.3374 9.86826C36.2016 9.93281 36.0643 9.99429 35.93 10.0611C34.9324 10.5606 33.9357 11.0616 32.9381 11.5619C32.9305 11.4359 32.9176 11.3091 32.9176 11.1831C32.9169 7.59753 32.9161 4.01278 32.9176 0.427252C32.9176 -0.0268942 32.8751 0.00845386 33.3129 0.00845386C36.3358 0.00845386 39.3588 0.00845386 42.3826 0.00845386C42.4706 0.00845386 42.5578 0.00999073 42.6458 0.00999073C42.7391 0.00999073 42.7801 0.0622444 42.7823 0.150615C42.7846 0.239753 42.7846 0.328892 42.7846 0.417262C42.7846 1.07812 42.7877 1.73974 42.7839 2.4006C42.7808 2.89316 42.8476 2.83169 42.3742 2.83246C41.0072 2.83553 39.6395 2.83323 38.2725 2.83323C37.7332 2.83323 37.1938 2.83169 36.6544 2.83323C36.3654 2.83476 36.3609 2.83784 36.3601 3.12062C36.3571 3.89597 36.3578 4.67133 36.3601 5.44745C36.3609 5.72639 36.3647 5.73023 36.6537 5.731C38.1466 5.73254 39.6395 5.731 41.1317 5.731C41.445 5.731 41.759 5.73868 42.0723 5.72793C42.2506 5.72178 42.3234 5.78249 42.3105 5.96768C42.2908 6.25892 42.334 6.55169 42.2855 6.84293C41.1446 7.42387 40.0029 8.00557 38.8619 8.58651L38.8589 8.58805Z" fill="#22305F"/>
<path d="M14.5399 7.13261C14.5399 4.94564 14.5399 2.75867 14.5399 0.571698C14.5399 0.507918 14.5399 0.444906 14.5399 0.381126C14.5399 -0.0153874 14.5134 0.00766575 14.9056 0.00766575C15.8212 0.00766575 16.7376 0.00689731 17.6532 0.00766575C17.9771 0.00766575 17.9801 0.0107395 17.9801 0.341936C17.9809 2.92311 17.9801 5.50429 17.9801 8.08547C17.9801 10.0058 17.9801 11.9253 17.9801 13.8457C17.9801 13.9348 17.9741 14.0239 17.9817 14.1123C17.9953 14.276 17.9301 14.3382 17.7655 14.3352C17.3262 14.3275 16.887 14.3329 16.4485 14.3329C15.9213 14.3329 15.3949 14.3344 14.8676 14.3329C14.5437 14.3313 14.5407 14.3298 14.5407 13.9986C14.5399 12.1298 14.5407 10.2601 14.5407 8.39131C14.5407 7.97174 14.5407 7.55218 14.5407 7.13261H14.5399Z" fill="#22305F"/>
<path d="M0.224749 28.1547C0.21868 28.0279 0.207302 27.9011 0.207302 27.7751C0.206543 24.4816 0.206543 21.1888 0.206543 17.8953C0.206543 17.87 0.206543 17.8446 0.206543 17.8192C0.210336 17.4911 0.210336 17.4888 0.535013 17.488C1.28754 17.4865 2.04082 17.4988 2.79334 17.4819C3.05961 17.4757 3.22422 17.5557 3.37518 17.7862C4.03364 18.7905 4.71334 19.7811 5.38469 20.7769C6.0917 21.8251 6.79946 22.8725 7.50268 23.9237C7.59295 24.0589 7.7037 24.1834 7.75301 24.3448C6.88139 24.7867 6.00977 25.2293 5.13815 25.6711C4.72851 25.0802 4.32038 24.4885 3.90923 23.8983C3.83868 23.7969 3.79392 23.674 3.63386 23.5741C3.62324 24.5615 3.61262 25.5159 3.602 26.4703C3.47759 26.5272 3.35166 26.5802 3.22953 26.6417C2.22743 27.1458 1.22609 27.6514 0.223991 28.1562L0.224749 28.1547Z" fill="#22305F"/>
<path d="M5.13818 25.6696C6.00981 25.2277 6.88143 24.7851 7.75305 24.3432C8.12172 24.7605 8.35916 25.2784 8.78094 25.7602C8.79004 25.0479 8.79915 24.4124 8.80749 23.7777C9.00776 23.7393 9.17086 23.6148 9.35292 23.5341C9.70566 23.3766 10.0273 23.1514 10.3998 23.0361C10.3823 23.2767 10.3634 23.5172 10.3474 23.7577C10.2784 24.802 10.3178 25.8355 10.5947 26.853C10.7245 27.3294 10.8276 27.8112 11.0264 28.2684C11.3017 28.9008 11.6499 29.4833 12.0854 30.0128C12.2022 30.1542 12.2682 30.3025 12.2614 30.4961C12.2477 30.8642 12.2492 31.233 12.2614 31.6011C12.2674 31.7902 12.1916 31.8401 12.0194 31.8393C11.1917 31.834 10.3641 31.8324 9.53726 31.8409C9.3643 31.8424 9.26644 31.7733 9.17313 31.6349C8.40999 30.503 7.64002 29.3773 6.8746 28.2469C6.29352 27.3893 5.71775 26.5287 5.13894 25.6696H5.13818Z" fill="#FD7A0F"/>
<path d="M32.9372 11.5611C33.9348 11.0608 34.9315 10.5598 35.9291 10.0603C36.0634 9.99269 36.2007 9.93121 36.3365 9.86743C36.3433 10.3116 36.3486 10.7557 36.3562 11.1999C36.3615 11.5042 36.3623 11.508 36.6733 11.508C38.5538 11.5096 40.4351 11.508 42.3157 11.508C42.4037 11.508 42.4917 11.5127 42.5789 11.508C42.7177 11.4996 42.783 11.5495 42.7822 11.7017C42.7777 12.5147 42.7784 13.3285 42.7822 14.1415C42.7822 14.2929 42.7124 14.3428 42.5751 14.3344C42.5 14.3297 42.4249 14.3344 42.3498 14.3344C39.3526 14.3344 36.3562 14.3344 33.359 14.3344C33.3211 14.3344 33.2839 14.3344 33.246 14.3344C32.9198 14.3297 32.9137 14.3297 32.9167 13.9993C32.9258 13.1871 32.8887 12.3741 32.9372 11.5618V11.5611Z" fill="#FD7A0F"/>
<path d="M21.0235 17.6019C20.0525 18.0983 19.0815 18.5962 18.1097 19.0903C16.0866 20.1185 14.0627 21.1451 12.038 22.1702C11.8931 22.2432 11.7573 22.3385 11.5942 22.37C11.573 22.1195 11.6731 21.8959 11.7558 21.6723C12.613 19.3554 14.2713 17.9646 16.6252 17.4128C17.9755 17.0962 19.3318 17.1216 20.6791 17.4674C20.7997 17.4981 20.9241 17.5181 21.0242 17.6019H21.0235Z" fill="#22305F"/>
<path d="M0.224677 28.1547C1.22602 27.6498 2.22736 27.1442 3.23022 26.6401C3.35235 26.5786 3.47828 26.5256 3.60268 26.4688C3.60875 26.5318 3.61937 26.5948 3.61937 26.6578C3.62013 28.2815 3.62089 29.9044 3.61937 31.5281C3.61937 31.8294 3.61482 31.8355 3.34552 31.8363C2.38211 31.8394 1.41794 31.8355 0.45453 31.8394C0.293708 31.8394 0.200402 31.8178 0.202677 31.6157C0.216332 30.4623 0.217849 29.3081 0.223918 28.1547H0.224677Z" fill="#FD7A0F"/>
<path d="M10.3988 23.037C10.0263 23.1523 9.70468 23.3774 9.35193 23.5349C9.16987 23.6164 9.00753 23.7401 8.8065 23.7785C8.80119 23.3467 8.79209 22.9148 8.79133 22.4829C8.78982 20.9445 8.79133 19.4069 8.79057 17.8685C8.79057 17.4282 8.77768 17.4881 9.18201 17.4873C10.1098 17.4858 11.0383 17.485 11.966 17.4873C12.2498 17.4873 12.2498 17.4927 12.2558 17.7832C12.2558 17.7962 12.2558 17.8085 12.2558 17.8216C12.2998 18.4287 12.2884 19.0181 11.7612 19.4461C11.0588 20.4497 10.6597 21.5747 10.4633 22.7803C10.4489 22.8672 10.4526 22.9594 10.398 23.0354L10.3988 23.037Z" fill="#22305F"/>
<path d="M38.8587 8.58807C40.0003 8.00713 41.1413 7.42542 42.2822 6.84448C42.3323 7.36241 42.2905 7.8811 42.3057 8.39903C42.3095 8.53658 42.267 8.61189 42.1161 8.61035C41.0298 8.59652 39.9435 8.63648 38.8579 8.58807H38.8587Z" fill="#FD7A0F"/>
</g>
<defs>
<clipPath id="clip0_358_321">
<rect width="43" height="32" fill="white"/>
</clipPath>
</defs>
</svg>
