<svg width="43" height="32" viewBox="0 0 43 32" fill="none" xmlns="http://www.w3.org/2000/svg">
<g clip-path="url(#clip0_770_2)">
<path d="M23.332 17.4865H23.8501C24.7415 17.4865 25.632 17.4865 26.5234 17.4865C26.8412 17.4865 26.8458 17.4881 26.9163 17.7939C27.3791 19.8195 27.8395 21.8459 28.3008 23.8715C28.5056 24.7736 28.7104 25.675 28.9137 26.5779C28.9334 26.6655 28.9509 26.7516 29.0161 26.8207C29.0943 26.7854 29.1003 26.7055 29.1178 26.6394C29.8324 23.8792 30.5454 21.1189 31.2585 18.3587C31.3154 18.1382 31.3822 17.9192 31.4307 17.6963C31.4679 17.5273 31.5582 17.4812 31.7235 17.4827C32.6141 17.4904 33.5055 17.4888 34.3968 17.4835C34.5478 17.4827 34.6122 17.5303 34.6509 17.6863C34.836 18.4371 35.0386 19.1825 35.2328 19.9309C35.8169 22.1878 36.3995 24.4455 36.9828 26.7032C36.9957 26.7531 37.0086 26.8015 37.0868 26.8353C37.2081 26.6332 37.2165 26.3935 37.2673 26.1729C37.787 23.9137 38.2967 21.6515 38.8103 19.3907C38.9362 18.8344 39.0682 18.2803 39.1919 17.7232C39.2252 17.5726 39.2708 17.4804 39.4574 17.4819C40.5991 17.4911 41.7415 17.4881 42.8832 17.4904C42.9181 17.4904 42.953 17.508 43.0023 17.5211C42.9856 17.883 42.8468 18.2135 42.7512 18.55C41.8075 21.8643 40.8539 25.1755 39.9027 28.4875C39.6091 29.5103 39.3072 30.5307 39.0235 31.5566C38.9688 31.7541 38.8831 31.8186 38.6859 31.8163C37.7574 31.8079 36.8289 31.8048 35.9003 31.8179C35.6849 31.8209 35.5984 31.7533 35.5385 31.5443C35.0439 29.8276 34.5356 28.1155 34.0334 26.4012C33.7444 25.4168 33.4599 24.4309 33.1679 23.4465C33.1444 23.3674 33.1474 23.2659 33.0253 23.1976C32.9616 23.2967 32.9327 23.4104 32.8993 23.5249C32.1233 26.1752 31.3465 28.8256 30.5682 31.4759C30.462 31.8378 30.4574 31.8371 30.0918 31.8371C29.2134 31.8371 28.3349 31.8363 27.4565 31.8371C27.1014 31.8371 27.1432 31.8056 27.0718 31.552C26.801 30.5884 26.5211 29.6278 26.2344 28.6688C26.179 28.4829 26.2162 28.3261 26.2768 28.154C26.5848 27.2787 26.8374 26.3866 26.8792 25.4529C26.9467 23.9537 26.8154 22.4752 26.2548 21.0728C25.7716 19.8641 25.0237 18.8367 24.0117 18.0175C23.8107 17.8554 23.6058 17.6986 23.335 17.4865H23.332Z" fill="#FD7A0F"/>
<path d="M28.6763 8.92539C29.6306 10.7036 30.5902 12.4925 31.5779 14.3336C31.3511 14.3336 31.1918 14.3336 31.0332 14.3336C30.0668 14.3336 29.1003 14.3214 28.1339 14.3421C27.8775 14.3475 27.7478 14.253 27.6385 14.0424C27.1143 13.0311 26.5826 12.0245 26.0538 11.0155C25.8247 10.5783 25.5934 10.1426 25.3711 9.70151C25.2831 9.52784 25.1761 9.43409 24.966 9.44408C24.5905 9.46099 24.2135 9.44716 23.8365 9.44946C23.505 9.451 23.5034 9.45254 23.5027 9.81293C23.5019 10.818 23.5027 11.8232 23.5027 12.8275C23.5027 13.2348 23.505 13.6413 23.5019 14.0486C23.4996 14.326 23.4959 14.3313 23.241 14.3321C22.2745 14.3344 21.3081 14.3283 20.3416 14.3375C20.1436 14.339 20.0647 14.2768 20.086 14.0785C20.0943 14.0032 20.0875 13.9264 20.0875 13.8495C20.0875 9.39721 20.0875 4.94489 20.0875 0.492566C20.0875 0.454145 20.0875 0.416491 20.0875 0.378069C20.086 -0.0422653 20.0807 0.00691458 20.4524 0.00691458C22.3602 0.00691458 24.2681 -0.0153701 26.1752 0.0145989C27.4132 0.0338099 28.5792 0.341953 29.5608 1.16725C30.4006 1.87345 30.8527 2.80018 31.0196 3.87753C31.1394 4.64904 31.1212 5.42055 30.9247 6.17823C30.6221 7.34548 29.9416 8.21612 28.8834 8.77785C28.828 8.80705 28.7741 8.83932 28.721 8.8716C28.7112 8.87775 28.7043 8.89004 28.6755 8.92462L28.6763 8.92539ZM23.5034 4.7789C23.5034 5.33756 23.505 5.89621 23.5027 6.45487C23.5027 6.59318 23.5072 6.70614 23.6938 6.70076C24.4433 6.67771 25.1943 6.74764 25.9416 6.6293C26.7388 6.50251 27.307 6.04913 27.4519 5.35139C27.5316 4.96717 27.5278 4.5722 27.4352 4.18183C27.3624 3.87446 27.2099 3.62471 26.9884 3.40725C26.6668 3.09142 26.267 2.96232 25.8422 2.89163C25.1587 2.7779 24.4684 2.85167 23.7818 2.8363C23.5095 2.83015 23.5057 2.84168 23.5042 3.14137C23.5019 3.68773 23.5042 4.23332 23.5042 4.77967L23.5034 4.7789Z" fill="white"/>
<path d="M12.4075 7.19114C12.4075 9.41654 12.4075 11.6427 12.4075 13.8681C12.4075 13.9572 12.4029 14.0464 12.4075 14.1347C12.4166 14.283 12.3498 14.3345 12.2072 14.3345C11.1907 14.3315 10.1742 14.3315 9.15767 14.3345C9.00899 14.3345 8.9612 14.2692 8.96423 14.1278C8.96954 13.8481 8.96575 13.5684 8.96575 13.2887C8.96575 11.8264 8.96575 10.3632 8.96575 8.90092C8.96575 8.60507 8.98016 8.60814 8.67824 8.60891C7.03437 8.61045 5.39051 8.60891 3.74664 8.61045C3.44775 8.61045 3.44472 8.61429 3.44396 8.9232C3.44244 10.5638 3.44396 12.2044 3.44396 13.845C3.44396 13.9211 3.43713 13.9987 3.44548 14.074C3.46672 14.2692 3.39314 14.3438 3.19287 14.3376C2.77943 14.3245 2.36449 14.3338 1.95029 14.3338C1.3859 14.3338 0.820751 14.3268 0.256359 14.3376C0.0591256 14.3414 -0.0205265 14.2731 0.00223126 14.0756C0.0105758 14.0003 0.00374844 13.9234 0.00374844 13.8466C0.00374844 9.39502 0.00374844 4.94347 0.00374844 0.491915C0.00374844 0.441198 0.00374844 0.390481 0.00374844 0.338996C0.00905858 0.0116417 0.00905859 0.00933641 0.336012 0.00856798C1.26453 0.0070311 2.19304 0.0070311 3.12156 0.00856798C3.44169 0.00856798 3.44472 0.0124101 3.44472 0.347448C3.44548 2.00112 3.44472 3.65403 3.44472 5.30771C3.44472 5.39684 3.44775 5.48598 3.44472 5.57512C3.44093 5.68655 3.48872 5.73803 3.59947 5.73265C3.66244 5.72958 3.72464 5.73265 3.7876 5.73265C5.40644 5.73265 7.02527 5.73265 8.64411 5.73265C8.99154 5.73265 8.96575 5.75801 8.96575 5.39992C8.96575 3.7716 8.96575 2.14405 8.96575 0.515736C8.96575 0.439661 8.96423 0.362817 8.96575 0.286742C8.97258 0.0162523 8.97333 0.00933641 9.23505 0.00856798C10.0634 0.00549423 10.8918 0.0070311 11.7194 0.0070311C11.8825 0.0070311 12.0456 0.0124102 12.2087 0.00549423C12.3536 -0.000653262 12.4151 0.0615901 12.406 0.207593C12.4007 0.295963 12.4052 0.38587 12.4052 0.47424C12.4052 2.7127 12.4052 4.95115 12.4052 7.18961L12.4075 7.19114Z" fill="white"/>
<path d="M21.0236 17.6018C21.8338 17.787 22.5491 18.1766 23.2015 18.6807C24.5222 19.7004 25.3415 21.0467 25.6783 22.6935C25.9461 24.0044 25.9651 25.3208 25.6783 26.6286C25.1761 28.9155 23.8607 30.543 21.7048 31.3975C19.6741 32.2029 17.6016 32.2052 15.5754 31.3799C13.2154 30.4178 11.8704 28.5943 11.4517 26.0692C11.259 24.9073 11.281 23.7401 11.5162 22.5828C11.5313 22.5098 11.567 22.4414 11.5936 22.3715C11.7566 22.34 11.8924 22.2447 12.0373 22.1717C14.062 21.1466 16.0859 20.12 18.1091 19.0918C19.0816 18.5977 20.0518 18.0998 21.0228 17.6033L21.0236 17.6018ZM15.1036 24.6968C15.1104 24.9926 15.1202 25.4498 15.2098 25.9009C15.4882 27.3025 16.2407 28.6435 18.0894 28.8832C19.7219 29.0953 21.3377 28.4836 21.9081 26.3628C22.0174 25.9562 22.0743 25.5405 22.0932 25.1217C22.1395 24.1366 22.0689 23.1645 21.6737 22.2455C21.2261 21.205 20.46 20.5541 19.3532 20.3351C18.9822 20.2614 18.606 20.2537 18.229 20.2821C16.8498 20.3843 15.9175 21.0951 15.4252 22.4022C15.1665 23.0892 15.0945 23.8069 15.1028 24.6975L15.1036 24.6968Z" fill="#FD7A0F"/>
<path d="M38.8588 8.58805C38.1867 8.63569 37.5146 8.59727 36.8425 8.60956C36.7431 8.6111 36.643 8.61648 36.5436 8.6088C36.3934 8.5965 36.354 8.66796 36.354 8.80936C36.3547 9.16207 36.3434 9.51478 36.3373 9.86826C36.2015 9.93281 36.0642 9.99429 35.9299 10.0611C34.9324 10.5606 33.9356 11.0616 32.938 11.5619C32.9305 11.4359 32.9176 11.3091 32.9176 11.1831C32.9168 7.59753 32.916 4.01278 32.9176 0.427252C32.9176 -0.0268942 32.8751 0.00845386 33.3128 0.00845386C36.3358 0.00845386 39.3588 0.00845386 42.3825 0.00845386C42.4705 0.00845386 42.5577 0.00999073 42.6457 0.00999073C42.739 0.00999073 42.78 0.0622444 42.7823 0.150615C42.7846 0.239753 42.7846 0.328892 42.7846 0.417262C42.7846 1.07812 42.7876 1.73974 42.7838 2.4006C42.7808 2.89316 42.8475 2.83169 42.3742 2.83246C41.0072 2.83553 39.6394 2.83323 38.2725 2.83323C37.7331 2.83323 37.1937 2.83169 36.6544 2.83323C36.3654 2.83476 36.3608 2.83784 36.36 3.12062C36.357 3.89597 36.3578 4.67133 36.36 5.44745C36.3608 5.72639 36.3646 5.73023 36.6536 5.731C38.1465 5.73254 39.6394 5.731 41.1316 5.731C41.4449 5.731 41.7589 5.73868 42.0722 5.72793C42.2505 5.72178 42.3233 5.78249 42.3104 5.96768C42.2907 6.25892 42.334 6.55169 42.2854 6.84293C41.1445 7.42387 40.0028 8.00557 38.8619 8.58651L38.8588 8.58805Z" fill="white"/>
<path d="M14.5399 7.13262C14.5399 4.94565 14.5399 2.75868 14.5399 0.571713C14.5399 0.507933 14.5399 0.444921 14.5399 0.381141C14.5399 -0.0153721 14.5134 0.007681 14.9056 0.007681C15.8212 0.007681 16.7376 0.00691257 17.6532 0.007681C17.9771 0.007681 17.9801 0.0107547 17.9801 0.341951C17.9809 2.92313 17.9801 5.50431 17.9801 8.08549C17.9801 10.0058 17.9801 11.9254 17.9801 13.8457C17.9801 13.9348 17.9741 14.024 17.9817 14.1123C17.9953 14.276 17.9301 14.3383 17.7655 14.3352C17.3262 14.3275 16.887 14.3329 16.4485 14.3329C15.9213 14.3329 15.3949 14.3344 14.8676 14.3329C14.5437 14.3313 14.5407 14.3298 14.5407 13.9986C14.5399 12.1298 14.5407 10.2602 14.5407 8.39132C14.5407 7.97176 14.5407 7.55219 14.5407 7.13262H14.5399Z" fill="white"/>
<path d="M0.224536 28.1547C0.218467 28.0279 0.207088 27.9012 0.207088 27.7751C0.206329 24.4816 0.206329 21.1889 0.206329 17.8953C0.206329 17.87 0.206329 17.8446 0.206329 17.8193C0.210122 17.4911 0.210122 17.4888 0.534799 17.4881C1.28732 17.4865 2.0406 17.4988 2.79313 17.4819C3.05939 17.4758 3.22401 17.5557 3.37497 17.7862C4.03342 18.7906 4.71312 19.7811 5.38448 20.777C6.09148 21.8251 6.79925 22.8725 7.50246 23.9237C7.59273 24.059 7.70349 24.1835 7.7528 24.3448C6.88118 24.7867 6.00955 25.2293 5.13793 25.6712C4.72829 25.0802 4.32017 24.4885 3.90901 23.8984C3.83847 23.7969 3.79371 23.674 3.63365 23.5741C3.62303 24.5615 3.61241 25.5159 3.60178 26.4703C3.47738 26.5272 3.35145 26.5802 3.22932 26.6417C2.22722 27.1458 1.22588 27.6514 0.223777 28.1563L0.224536 28.1547Z" fill="white"/>
<path d="M5.13794 25.6696C6.00956 25.2278 6.88118 24.7852 7.7528 24.3433C8.12148 24.7606 8.35892 25.2785 8.7807 25.7603C8.7898 25.048 8.7989 24.4125 8.80725 23.7777C9.00751 23.7393 9.17061 23.6148 9.35267 23.5341C9.70542 23.3766 10.0271 23.1515 10.3995 23.0362C10.3821 23.2767 10.3631 23.5172 10.3472 23.7578C10.2782 24.8021 10.3176 25.8356 10.5945 26.853C10.7242 27.3294 10.8274 27.8113 11.0261 28.2685C11.3015 28.9009 11.6497 29.4834 12.0851 30.0128C12.2019 30.1542 12.2679 30.3025 12.2611 30.4962C12.2475 30.8643 12.249 31.2331 12.2611 31.6012C12.2672 31.7902 12.1913 31.8402 12.0191 31.8394C11.1915 31.834 10.3639 31.8325 9.53701 31.8409C9.36405 31.8425 9.26619 31.7733 9.17289 31.635C8.40974 30.5031 7.63977 29.3773 6.87436 28.247C6.29327 27.3894 5.7175 26.5287 5.1387 25.6696H5.13794Z" fill="#FD7A0F"/>
<path d="M32.9373 11.5611C33.9348 11.0609 34.9316 10.5599 35.9292 10.0604C36.0634 9.99275 36.2007 9.93127 36.3365 9.86749C36.3434 10.3116 36.3487 10.7558 36.3563 11.2C36.3616 11.5043 36.3623 11.5081 36.6733 11.5081C38.5539 11.5096 40.4352 11.5081 42.3158 11.5081C42.4037 11.5081 42.4917 11.5127 42.579 11.5081C42.7178 11.4997 42.783 11.5496 42.7823 11.7018C42.7777 12.5148 42.7785 13.3285 42.7823 14.1415C42.7823 14.2929 42.7125 14.3429 42.5752 14.3344C42.5001 14.3298 42.425 14.3344 42.3499 14.3344C39.3527 14.3344 36.3563 14.3344 33.3591 14.3344C33.3211 14.3344 33.284 14.3344 33.246 14.3344C32.9198 14.3298 32.9138 14.3298 32.9168 13.9994C32.9259 13.1871 32.8887 12.3741 32.9373 11.5619V11.5611Z" fill="#FD7A0F"/>
<path d="M21.0236 17.6018C20.0526 18.0982 19.0816 18.5962 18.1099 19.0903C16.0867 20.1184 14.0628 21.1451 12.0381 22.1702C11.8932 22.2432 11.7574 22.3384 11.5943 22.37C11.5731 22.1194 11.6732 21.8958 11.7559 21.6722C12.6131 19.3554 14.2714 17.9645 16.6253 17.4128C17.9756 17.0962 19.332 17.1215 20.6792 17.4673C20.7998 17.4981 20.9242 17.518 21.0244 17.6018H21.0236Z" fill="white"/>
<path d="M0.224539 28.1547C1.22588 27.6499 2.22722 27.1442 3.23008 26.6402C3.35221 26.5787 3.47814 26.5257 3.60255 26.4688C3.60862 26.5318 3.61924 26.5948 3.61924 26.6578C3.61999 28.2815 3.62075 29.9045 3.61924 31.5282C3.61924 31.8294 3.61468 31.8356 3.34538 31.8363C2.38197 31.8394 1.4178 31.8356 0.454392 31.8394C0.293571 31.8394 0.200264 31.8179 0.20254 31.6158C0.216195 30.4624 0.217712 29.3082 0.223781 28.1547H0.224539Z" fill="#FD7A0F"/>
<path d="M10.3988 23.037C10.0263 23.1522 9.70466 23.3774 9.35192 23.5349C9.16985 23.6164 9.00752 23.7401 8.80649 23.7785C8.80118 23.3466 8.79208 22.9148 8.79132 22.4829C8.7898 20.9445 8.79132 19.4069 8.79056 17.8685C8.79056 17.4281 8.77766 17.4881 9.18199 17.4873C10.1097 17.4858 11.0383 17.485 11.966 17.4873C12.2497 17.4873 12.2497 17.4927 12.2558 17.7832C12.2558 17.7962 12.2558 17.8085 12.2558 17.8216C12.2998 18.4286 12.2884 19.018 11.7612 19.4461C11.0587 20.4496 10.6597 21.5746 10.4633 22.7803C10.4488 22.8671 10.4526 22.9593 10.398 23.0354L10.3988 23.037Z" fill="white"/>
<path d="M38.8588 8.58805C40.0005 8.00711 41.1414 7.42541 42.2824 6.84447C42.3324 7.36239 42.2907 7.88109 42.3059 8.39901C42.3097 8.53656 42.2672 8.61187 42.1162 8.61033C41.0299 8.5965 39.9436 8.63646 38.8581 8.58805H38.8588Z" fill="#FD7A0F"/>
</g>
<defs>
<clipPath id="clip0_770_2">
<rect width="43" height="32" fill="white"/>
</clipPath>
</defs>
</svg>
