<svg width="229" height="147" viewBox="0 0 229 147" fill="none" xmlns="http://www.w3.org/2000/svg">
<g clip-path="url(#clip0_388_7071)">
<path d="M80.6312 40.7365C105.525 55.9349 126.947 58.5684 133.119 50.758C138.851 43.5066 130.768 28.0814 128.401 23.8145C112.478 29.4541 96.5545 35.0968 80.6344 40.7365H80.6312Z" fill="black"/>
<path d="M80.7578 21.2896H123.293C126.11 21.2896 128.399 23.5473 128.399 26.3267V35.4756H75.6526V26.3267C75.6526 23.5473 77.9408 21.2896 80.7578 21.2896Z" fill="#E6E6E6"/>
<path d="M75.6487 35.4756V36.3762C75.6487 38.7861 77.6285 40.7363 80.0678 40.7363H123.979C126.418 40.7363 128.398 38.7861 128.398 36.3762V35.4756H75.6487ZM80.1181 38.5842C79.923 38.3451 79.7814 38.0625 79.709 37.755H124.344C124.268 38.0625 124.127 38.3482 123.931 38.5842H80.1181Z" fill="#CCCCCC"/>
<path d="M82.3529 32.5503H121.697C123.189 32.5503 124.4 33.7459 124.4 35.2179V35.5254H79.6492V35.2179C79.6492 33.7459 80.861 32.5503 82.3529 32.5503Z" fill="#B3B3B3"/>
<path d="M80.1181 38.5842H123.928C123.535 39.0718 122.927 39.3855 122.248 39.3855H81.7989C81.119 39.3855 80.5116 39.0718 80.115 38.5842H80.1181Z" fill="#333333"/>
<path d="M124.4 35.5781V37.2644C124.4 37.4352 124.378 37.5998 124.341 37.7551H79.709C79.6712 37.5967 79.6492 37.4321 79.6492 37.2644V35.5781H124.4Z" fill="#333333"/>
<path d="M105.276 30.426H98.7766C98.5437 30.426 98.3549 30.6116 98.3549 30.8406C98.3549 31.0696 98.5437 31.2552 98.7766 31.2552H105.276C105.509 31.2552 105.698 31.0696 105.698 30.8406C105.698 30.6116 105.509 30.426 105.276 30.426Z" fill="#B3B3B3"/>
<path d="M124.4 36.3762H79.6492V37.2054H124.4V36.3762Z" fill="#808080"/>
<path d="M124.341 37.7551C124.265 38.0626 124.123 38.3483 123.928 38.5843H80.1182C79.923 38.3452 79.7814 38.0626 79.709 37.7551H124.344H124.341Z" fill="#808080"/>
<path d="M80.6375 48.0281C80.6596 48.1927 80.7257 48.3293 80.7949 48.4628C80.9743 48.8013 81.1883 49.115 81.3992 49.4349C81.6101 49.7547 81.8241 50.0746 82.0035 50.4131C82.1515 50.6895 82.2679 50.9752 82.3151 51.2858C82.3812 51.7112 82.3183 52.1181 82.0696 52.4814C81.7864 52.8913 81.3929 53.1429 80.8893 53.2112C80.5022 53.264 80.1245 53.2174 79.7814 53.0249C79.303 52.7516 79.0103 52.3479 78.9316 51.8013C78.8875 51.4845 78.941 51.1802 79.0512 50.882C79.1708 50.5498 79.3502 50.2485 79.5422 49.9535C79.7814 49.5808 80.0238 49.2082 80.2598 48.8355C80.3983 48.6119 80.5179 48.379 80.6029 48.1306C80.6123 48.1026 80.6218 48.0716 80.6344 48.0312L80.6375 48.0281Z" fill="#7481F4"/>
<path d="M79.2715 51.5217C79.1393 51.618 79.3092 52.2049 79.731 52.5465C80.1024 52.8478 80.6627 52.9471 80.7413 52.8105C80.8861 52.559 79.5012 51.354 79.2715 51.5248V51.5217Z" fill="#ACB3F8"/>
<path d="M83.7284 43.7487C83.7472 43.8823 83.8008 43.994 83.8574 44.1058C84.0053 44.3822 84.1816 44.6431 84.3547 44.904C84.5278 45.1679 84.7041 45.4288 84.852 45.7083C84.9716 45.935 85.0692 46.171 85.1101 46.4257C85.1636 46.7766 85.1133 47.112 84.9087 47.407C84.6758 47.7424 84.3516 47.9505 83.9392 48.0064C83.6213 48.0499 83.3097 48.0126 83.0296 47.8511C82.6362 47.6275 82.3938 47.2952 82.3309 46.8449C82.2931 46.5841 82.3403 46.3325 82.4284 46.0872C82.5292 45.8139 82.674 45.5654 82.8313 45.3232C83.0296 45.0158 83.2279 44.7114 83.4199 44.404C83.5332 44.2208 83.6308 44.0282 83.7032 43.8264C83.7126 43.8015 83.7189 43.7767 83.7315 43.7456L83.7284 43.7487Z" fill="#7481F4"/>
<path d="M82.6047 46.6183C82.4977 46.699 82.6362 47.1804 82.9824 47.4599C83.2877 47.7083 83.7473 47.7891 83.8134 47.6773C83.933 47.4723 82.7967 46.4786 82.6047 46.6214V46.6183Z" fill="#ACB3F8"/>
<path d="M78.3399 42.376C78.3556 42.494 78.4028 42.5934 78.4532 42.6896C78.5822 42.935 78.7396 43.1648 78.8907 43.3946C79.0449 43.6275 79.1991 43.8604 79.3282 44.1058C79.4352 44.3045 79.5202 44.5126 79.5548 44.7393C79.602 45.0498 79.5579 45.3449 79.3754 45.6057C79.1708 45.9007 78.8844 46.084 78.5224 46.1337C78.2423 46.1709 77.9685 46.1399 77.7198 45.997C77.3736 45.8014 77.1595 45.5063 77.1029 45.1119C77.0714 44.8821 77.1092 44.6616 77.1879 44.4443C77.276 44.2051 77.405 43.9846 77.5435 43.7704C77.7167 43.5002 77.8929 43.23 78.0629 42.9598C78.1636 42.7983 78.2486 42.6306 78.3115 42.4505C78.3178 42.4288 78.3273 42.407 78.3367 42.3791L78.3399 42.376Z" fill="#7481F4"/>
<path d="M77.3516 44.9071C77.2572 44.9785 77.3799 45.404 77.6852 45.6493C77.9559 45.8667 78.3619 45.9381 78.4186 45.8387C78.5225 45.6555 77.5216 44.7829 77.3547 44.9071H77.3516Z" fill="#ACB3F8"/>
<path d="M81.5298 140.376C81.5455 141.289 105.331 142.159 105.413 141.243C105.457 140.761 98.9796 139.615 93.1158 139.448C87.7839 139.295 81.5204 139.907 81.5298 140.376Z" fill="black"/>
<path d="M77.6427 117.768C77.3594 117.771 77.4728 115.575 76.6985 111.181C74.9138 101.069 71.5334 96.9328 68.9021 85.4796C68.5244 83.8306 68.1278 81.8959 68.1278 79.3804C68.1278 75.7594 68.9462 74.2718 69.689 70.2688C70.9071 63.713 70.2839 59.2752 70.9763 59.2131C71.6719 59.151 71.8041 62.1106 74.5833 66.4583C75.9808 68.6415 76.5065 68.8527 77.2871 70.2719C79.4431 74.1817 78.5146 78.5077 78.1872 80.312C75.8581 93.1472 78.5996 117.762 77.6396 117.774L77.6427 117.768Z" fill="#20380B"/>
<path d="M87.0789 90.3461C85.1149 95.1938 84.0196 95.8056 82.3671 99.5757C77.7718 110.051 80.2079 119.022 79.6099 119.069C78.7601 119.134 72.5532 101.203 80.6391 85.9021C83.5506 80.3898 88.4292 75.0141 89.9117 75.7346C91.5327 76.5203 89.3766 84.6816 87.0789 90.3492V90.3461Z" fill="#2A4B0F"/>
<path d="M78.7474 116.97C79.3738 117.302 81.4165 112.476 86.9498 106.361C95.1365 97.3117 100.601 95.5975 102.407 88.6131C103.163 85.6846 102.914 83.0915 102.624 81.458C100.956 83.4642 98.2557 86.697 94.8501 90.6442C88.0105 98.5819 85.908 100.523 83.4593 104.846C80.3464 110.339 78.0424 116.597 78.7474 116.97Z" fill="#386414"/>
<path d="M77.0006 118.529C75.2695 107.681 71.1431 101.591 67.6777 98.0322C64.5459 94.8149 62.3993 93.6969 59.9506 90.141C55.5944 83.8151 55.3835 76.5047 55.8525 71.4116C56.6897 74.4426 58.2415 78.8649 61.2977 83.5294C66.7712 91.877 73.0127 92.9205 75.4772 99.7682C76.7047 103.181 78.4642 109.743 76.9975 118.532L77.0006 118.529Z" fill="#20380B"/>
<path d="M78.4516 117.544C78.0676 111.703 78.6058 103.858 83.475 97.3397C87.0097 92.61 90.346 92.4982 93.994 87.0883C99.5273 78.8835 97.8811 70.685 99.1464 70.6539C100.604 70.6166 105.224 81.7748 100.692 90.3088C97.1163 97.0415 90.7426 96.6875 84.4193 104.796C80.7933 109.445 79.2164 114.271 78.4516 117.547V117.544Z" fill="#556F3F"/>
<path d="M94.8406 106.821C92.8199 108.122 90.5033 109.46 87.8909 110.727C83.8401 112.69 80.041 114.016 76.7582 114.929C79.5122 109.134 84.4664 105.355 89.6032 105.411C90.7929 105.423 92.6625 105.65 94.8406 106.821Z" fill="#2A4B0F"/>
<path d="M77.0005 118.529C77.353 118.535 79.805 107.681 75.5873 95.9452C73.5792 90.3553 70.4663 85.7094 70.1327 85.2187C66.705 80.1598 65.0274 79.7934 62.5377 75.7189C57.977 68.2595 58.7796 61.741 57.9864 61.7782C56.8376 61.8341 53.0134 75.6692 59.6767 85.5293C63.9415 91.8397 68.4645 90.5385 73.0536 97.0601C79.7514 106.579 76.5693 118.519 77.0005 118.529Z" fill="#2A4B0F"/>
<path d="M85.2345 86.4081C86.2826 85.3771 89.4049 82.6815 90.3869 78.2747C90.8276 76.2996 90.4593 75.6692 90.2138 70.1414C89.9022 63.1011 90.3555 61.036 89.3545 60.654C87.9854 60.1323 85.1998 63.2502 83.6859 66.247C82.0492 69.4892 82.4017 71.601 81.6652 75.3742C80.6359 80.6411 78.5334 83.7529 77.5042 85.905C75.2663 90.5757 74.0734 99.1128 78.5334 116.066C78.2375 97.3675 81.7848 89.8024 85.2313 86.4143L85.2345 86.4081Z" fill="#386414"/>
<path d="M75.5653 116.535C75.4488 116.445 75.4646 116.196 76.0122 114.768C76.7991 112.718 77.5608 110.731 78.5302 109.283C80.1166 106.917 81.8981 106.538 86.0874 104.032C90.8118 101.203 90.3649 100.594 93.5974 98.7433C100.579 94.7434 107.906 94.5757 108.155 95.3055C108.378 95.9639 103.304 97.1098 99.0929 102.299C97.6419 104.088 97.9252 104.268 96.8613 105.349C93.6886 108.569 89.4301 107.529 85.011 108.908C78.9929 110.787 76.2105 117.032 75.5653 116.532V116.535Z" fill="#386414"/>
<path d="M77.5451 116.479C77.2084 116.606 76.5977 114.113 74.2623 111.858C71.9489 109.625 70.073 109.684 65.7483 107.74C63.3814 106.678 57.7819 103.892 58.0778 103.013C58.4838 101.805 70.7088 102.113 75.4867 109.153C77.6175 112.293 77.9638 116.321 77.5483 116.479H77.5451Z" fill="#386414"/>
<path d="M77.5451 116.479C78.3981 116.293 78.823 103.731 72.5217 100.514C69.7991 99.1223 68.4079 100.796 63.7653 99.8148C56.4064 98.2589 53.0197 92.6038 52.044 93.3957C51.1847 94.0944 53.2715 98.9111 56.9384 102.038C57.7756 102.75 59.9946 104.6 63.3561 105.293C66.9632 106.035 68.0617 104.663 70.3625 105.287C75.8769 106.787 76.7802 116.647 77.5451 116.479Z" fill="#556F3F"/>
<path d="M74.0954 112.156C72.9277 113.659 68.7541 119.404 69.2703 127.572C69.6732 133.972 72.742 138.385 74.0545 140.072C75.6472 140.438 77.756 140.764 80.2394 140.718C82.2569 140.68 84.0006 140.404 85.3887 140.087C86.7201 138.326 89.6284 133.982 90.069 127.746C90.645 119.569 86.5785 113.746 85.3887 112.156H74.0986H74.0954Z" fill="#E6E6E6"/>
<path d="M82.984 112.156C83.8622 115.364 84.6805 119.609 84.7435 124.622C84.8285 131.339 83.5191 136.848 82.301 140.593C82.8865 140.547 83.5191 140.472 84.1958 140.348C84.6144 140.27 85.011 140.183 85.3856 140.09C86.5816 138.522 90.1666 133.407 90.1194 125.979C90.0722 118.73 86.5942 113.746 85.3856 112.159H82.984V112.156Z" fill="#CCCCCC"/>
<path d="M182.999 128.389C187.421 128.472 194.025 128.553 202.082 128.469C211.065 128.376 218.402 128.299 218.424 127.78C218.45 127.193 209.155 126.081 200.194 125.836C195.202 125.699 191.069 125.82 188.246 125.957C186.496 126.768 184.749 127.578 182.999 128.389Z" fill="black"/>
<path d="M186.417 128.348L153.781 128.392C152.144 128.392 151.348 126.677 151.999 124.556L174.639 51.0548C175.291 48.9369 177.151 47.1978 178.797 47.1729L211.563 46.6388C213.228 46.6108 214.046 48.3189 213.388 50.4524L190.607 124.482C189.949 126.618 188.073 128.351 186.414 128.351L186.417 128.348Z" fill="#000B06"/>
<path d="M182.999 128.389L143.558 128.448C141.638 128.448 140.609 126.737 141.263 124.619L163.884 51.2009C164.536 49.086 166.626 47.3438 168.555 47.3128L208.16 46.6358C210.121 46.6016 211.179 48.3065 210.521 50.44L187.724 124.519C187.066 126.656 184.951 128.392 182.999 128.392V128.389Z" fill="#4D4D4D"/>
<path d="M180.651 124.56H148.118C146.384 124.56 145.484 122.892 146.107 120.836L165.883 55.4773C166.516 53.3841 168.464 51.6264 170.239 51.5519L203.527 50.1296C205.375 50.0519 206.341 51.7227 205.683 53.8655L185.095 120.755C184.447 122.858 182.458 124.56 180.651 124.56Z" fill="#999999"/>
<path d="M183.582 50.9804C186.801 65.2751 190.04 79.6475 193.298 94.1006C191.337 100.476 189.376 106.839 187.421 113.19C182.43 92.4423 177.482 71.8619 172.572 51.4493C176.226 51.2941 179.896 51.1357 183.582 50.9773V50.9804Z" fill="#E6E6E6"/>
<path d="M186.48 50.8127L195.152 88.0852C195.498 86.9734 195.847 85.8647 196.194 84.753C193.49 73.3805 190.799 62.0609 188.12 50.7878C187.573 50.7972 187.028 50.8034 186.48 50.8127Z" fill="#E6E6E6"/>
<path d="M165.414 57.0361C170.45 79.3524 175.53 101.858 180.651 124.56C178.885 124.56 177.123 124.56 175.366 124.56C171.048 105.166 166.761 85.9113 162.503 66.7968C163.472 63.5453 164.441 60.2938 165.414 57.0361Z" fill="#E6E6E6"/>
<path d="M156.211 119.544L178.652 119.417C179.641 119.411 180.661 118.69 180.931 117.808L182.961 111.206C183.232 110.324 182.653 109.613 181.665 109.622L159.207 109.802C158.231 109.811 157.218 110.529 156.95 111.404L154.93 117.966C154.659 118.842 155.232 119.55 156.208 119.544H156.211Z" fill="#B9D0FC"/>
<path d="M177.381 119.423C177.258 119.646 177.132 119.91 177.035 120.209C176.808 120.889 176.817 121.441 176.865 121.805C176.248 121.6 175.332 121.187 174.661 120.327C174.425 120.025 174.262 119.721 174.145 119.441L177.381 119.423Z" fill="#B9D0FC"/>
<path d="M171.709 112.842L179.408 112.786C179.606 112.786 179.807 112.64 179.861 112.467L179.94 112.215C179.993 112.038 179.877 111.898 179.682 111.898L171.983 111.957C171.788 111.957 171.583 112.103 171.53 112.277L171.451 112.529C171.397 112.706 171.511 112.845 171.709 112.845V112.842Z" fill="white"/>
<path d="M166.261 112.883L170.208 112.855C170.403 112.855 170.607 112.709 170.661 112.535L170.74 112.283C170.793 112.106 170.68 111.967 170.481 111.967L166.534 111.995C166.339 111.995 166.138 112.14 166.081 112.314L166.003 112.566C165.949 112.74 166.062 112.883 166.257 112.88L166.261 112.883Z" fill="white"/>
<path d="M165.537 114.867L178.907 114.777C179.043 114.777 179.181 114.678 179.219 114.557L179.273 114.383C179.31 114.262 179.232 114.165 179.096 114.165L165.726 114.258C165.59 114.258 165.452 114.358 165.414 114.479L165.361 114.653C165.323 114.774 165.401 114.87 165.537 114.87V114.867Z" fill="white"/>
<path d="M165.175 116.053L178.542 115.967C178.678 115.967 178.816 115.867 178.854 115.746L178.907 115.572C178.945 115.451 178.866 115.355 178.731 115.355L165.364 115.445C165.228 115.445 165.09 115.544 165.052 115.665L164.998 115.839C164.961 115.96 165.039 116.057 165.175 116.057V116.053Z" fill="white"/>
<path d="M167.759 117.224L178.177 117.159C178.312 117.159 178.451 117.06 178.489 116.938L178.542 116.765C178.58 116.643 178.501 116.547 178.366 116.547L167.948 116.612C167.812 116.612 167.674 116.712 167.636 116.833L167.583 117.007C167.545 117.128 167.623 117.224 167.759 117.224Z" fill="white"/>
<path d="M160.535 116.569C159.859 116.572 159.182 116.578 158.508 116.581C158.304 116.581 158.26 116.529 158.316 116.345C158.691 115.128 159.065 113.908 159.44 112.69C159.493 112.513 159.575 112.454 159.767 112.454C161.13 112.445 162.493 112.432 163.856 112.423C164.029 112.423 164.089 112.495 164.042 112.65C163.667 113.873 163.289 115.097 162.912 116.321C162.858 116.494 162.776 116.553 162.581 116.553C161.898 116.56 161.218 116.563 160.535 116.566V116.569ZM160.702 116.004C161.203 116.001 161.706 115.994 162.207 115.998C162.326 115.998 162.373 115.963 162.395 115.861C162.414 115.768 162.452 115.675 162.48 115.581C162.603 115.175 162.392 114.886 161.942 114.88C161.363 114.876 160.781 114.88 160.199 114.892C159.704 114.901 159.276 115.218 159.188 115.625C159.169 115.715 159.141 115.805 159.106 115.892C159.065 115.994 159.103 116.019 159.21 116.019C159.707 116.01 160.205 116.01 160.699 116.007L160.702 116.004ZM162.282 113.811C162.436 113.401 162.163 112.991 161.627 113.007C161.033 113.026 160.598 113.417 160.469 113.833C160.315 114.327 160.677 114.644 161.14 114.644C161.583 114.644 162.194 114.249 162.282 113.811Z" fill="white"/>
<path d="M160.702 116.007C160.205 116.01 159.711 116.01 159.213 116.019C159.103 116.019 159.065 115.998 159.11 115.892C159.144 115.805 159.172 115.712 159.191 115.625C159.279 115.218 159.711 114.901 160.202 114.892C160.784 114.88 161.366 114.876 161.945 114.88C162.392 114.883 162.606 115.175 162.484 115.581C162.455 115.675 162.421 115.771 162.399 115.861C162.377 115.963 162.329 116.001 162.21 115.998C161.709 115.998 161.206 116.001 160.705 116.004L160.702 116.007Z" fill="#8B9CBD"/>
<path d="M162.282 113.814C162.197 114.252 161.583 114.647 161.14 114.647C160.677 114.647 160.315 114.33 160.469 113.836C160.598 113.42 161.033 113.029 161.627 113.01C162.163 112.994 162.436 113.404 162.282 113.814Z" fill="#8B9CBD"/>
<path d="M160.633 105.175L183.097 104.97C184.085 104.961 185.108 104.237 185.379 103.355L187.409 96.7528C187.68 95.8708 187.097 95.1628 186.109 95.1752L163.629 95.4299C162.651 95.4423 161.64 96.1597 161.37 97.0385L159.349 103.601C159.078 104.476 159.651 105.181 160.63 105.172L160.633 105.175Z" fill="#B9D0FC"/>
<path d="M181.825 104.982C181.702 105.206 181.577 105.47 181.479 105.768C181.252 106.448 181.262 107.001 181.309 107.361C180.692 107.159 179.776 106.749 179.103 105.892C178.867 105.591 178.703 105.287 178.586 105.01L181.825 104.982Z" fill="#B9D0FC"/>
<path d="M176.147 98.4299L183.855 98.3492C184.054 98.3492 184.255 98.2032 184.312 98.0262L184.39 97.7746C184.444 97.5976 184.327 97.4579 184.132 97.461L176.424 97.5448C176.229 97.5448 176.024 97.6908 175.971 97.8678L175.892 98.1194C175.839 98.2964 175.952 98.4361 176.15 98.433L176.147 98.4299Z" fill="white"/>
<path d="M170.689 98.4857L174.643 98.4422C174.838 98.4422 175.042 98.2962 175.096 98.1192L175.174 97.8677C175.228 97.6907 175.115 97.5509 174.916 97.554L170.963 97.5975C170.768 97.5975 170.563 97.7434 170.51 97.9205L170.431 98.172C170.378 98.3459 170.491 98.4888 170.689 98.4857Z" fill="white"/>
<path d="M169.969 100.47L183.355 100.333C183.49 100.333 183.629 100.234 183.667 100.113L183.72 99.9391C183.758 99.818 183.679 99.7217 183.544 99.7217L170.157 99.8583C170.022 99.8583 169.884 99.9577 169.846 100.079L169.792 100.253C169.755 100.374 169.833 100.47 169.969 100.467V100.47Z" fill="white"/>
<path d="M169.603 101.66L182.983 101.526C183.119 101.526 183.257 101.427 183.295 101.306L183.349 101.132C183.386 101.011 183.308 100.914 183.172 100.914L169.789 101.048C169.654 101.048 169.515 101.147 169.478 101.268L169.424 101.442C169.386 101.563 169.465 101.66 169.6 101.657L169.603 101.66Z" fill="white"/>
<path d="M172.191 102.818L182.618 102.718C182.754 102.718 182.892 102.619 182.93 102.498L182.983 102.324C183.021 102.203 182.943 102.107 182.807 102.107L172.376 102.209C172.241 102.209 172.103 102.309 172.065 102.43L172.011 102.604C171.974 102.725 172.052 102.821 172.188 102.818H172.191Z" fill="white"/>
<path d="M164.961 102.191C164.284 102.197 163.607 102.203 162.931 102.209C162.726 102.209 162.682 102.156 162.736 101.973C163.11 100.756 163.485 99.5354 163.859 98.3181C163.913 98.1411 163.995 98.082 164.187 98.082C165.549 98.0665 166.915 98.051 168.278 98.0386C168.451 98.0386 168.511 98.1069 168.464 98.2622C168.089 99.4857 167.712 100.709 167.334 101.933C167.281 102.107 167.199 102.166 167.004 102.166C166.321 102.172 165.638 102.178 164.958 102.188L164.961 102.191ZM165.128 101.625C165.631 101.619 166.135 101.613 166.635 101.613C166.758 101.613 166.802 101.579 166.827 101.473C166.846 101.38 166.884 101.287 166.912 101.194C167.035 100.787 166.824 100.498 166.374 100.495C165.795 100.495 165.213 100.498 164.63 100.514C164.136 100.526 163.708 100.843 163.617 101.25C163.598 101.34 163.57 101.43 163.535 101.517C163.494 101.619 163.532 101.644 163.639 101.641C164.136 101.632 164.634 101.629 165.131 101.625H165.128ZM166.708 99.4299C166.862 99.0199 166.588 98.61 166.053 98.6286C165.458 98.6473 165.024 99.0417 164.895 99.4578C164.741 99.9516 165.103 100.268 165.565 100.265C166.009 100.265 166.623 99.8677 166.708 99.4299Z" fill="white"/>
<path d="M165.128 101.625C164.63 101.631 164.133 101.631 163.636 101.641C163.526 101.641 163.488 101.619 163.532 101.517C163.567 101.427 163.595 101.336 163.614 101.25C163.702 100.843 164.133 100.526 164.627 100.514C165.213 100.501 165.792 100.495 166.371 100.495C166.818 100.495 167.032 100.787 166.909 101.194C166.881 101.287 166.846 101.383 166.824 101.473C166.802 101.576 166.755 101.613 166.632 101.613C166.132 101.613 165.628 101.619 165.125 101.625H165.128Z" fill="#8B9CBD"/>
<path d="M166.708 99.4298C166.623 99.8677 166.009 100.262 165.565 100.265C165.099 100.265 164.737 99.9515 164.895 99.4577C165.024 99.0416 165.458 98.6503 166.053 98.6285C166.588 98.6099 166.862 99.0198 166.708 99.4298Z" fill="#8B9CBD"/>
<path d="M199.719 52.4804C199.977 52.4711 200.213 52.5487 200.395 52.7009C200.443 52.7413 200.468 52.791 200.395 52.8562C200.326 52.9152 200.273 52.8934 200.226 52.8562C199.851 52.5829 199.432 52.6015 198.897 52.9152C198.828 52.9555 198.762 52.9804 198.724 52.9245C198.683 52.8624 198.746 52.8127 198.815 52.7661C199.096 52.5891 199.382 52.4897 199.719 52.4773V52.4804Z" fill="#5D687E"/>
<path d="M199.577 52.85C199.769 52.8407 199.927 52.8904 200.049 52.9897C200.1 53.0301 200.119 53.0829 200.046 53.1481C199.977 53.2102 199.927 53.1854 199.879 53.1481C199.672 52.9897 199.398 53.0022 199.092 53.1823C199.017 53.2258 198.951 53.2537 198.913 53.1916C198.875 53.1264 198.945 53.0767 199.011 53.0332C199.174 52.9276 199.382 52.8624 199.574 52.8531L199.577 52.85Z" fill="#5D687E"/>
<path d="M199.473 53.2164C199.502 53.2164 199.643 53.2102 199.709 53.2941C199.725 53.3127 199.756 53.3531 199.731 53.3934C199.709 53.4276 199.656 53.4493 199.618 53.4493C199.587 53.4493 199.587 53.4307 199.539 53.4058C199.505 53.3872 199.476 53.3717 199.432 53.3717C199.382 53.3717 199.332 53.3934 199.294 53.4121C199.221 53.4462 199.209 53.4711 199.174 53.4711C199.136 53.4711 199.102 53.4493 199.102 53.4183C199.102 53.3779 199.152 53.3406 199.177 53.3189C199.294 53.2257 199.435 53.2164 199.473 53.2164Z" fill="#5D687E"/>
<path d="M199.467 53.6698C199.451 53.7288 199.379 53.7816 199.31 53.7847C199.243 53.7847 199.199 53.7381 199.218 53.6791C199.234 53.6232 199.3 53.5735 199.363 53.5673C199.432 53.558 199.486 53.6077 199.467 53.6698Z" fill="#5D687E"/>
<path d="M197.679 53.2071C197.723 53.0487 197.77 52.8872 197.815 52.7289C197.84 52.6388 197.89 52.5674 198.007 52.555C198.107 52.5456 198.145 52.6015 198.114 52.7164C198.025 53.0394 197.934 53.3624 197.84 53.6854C197.808 53.791 197.739 53.85 197.645 53.8562C197.553 53.8593 197.512 53.8034 197.544 53.6978C197.588 53.5332 197.635 53.3717 197.682 53.2071H197.679Z" fill="#5D687E"/>
<path d="M197.531 53.3904C197.5 53.4991 197.468 53.6078 197.44 53.7165C197.415 53.8065 197.355 53.8686 197.251 53.8718C197.15 53.8718 197.122 53.8159 197.147 53.7258C197.207 53.5115 197.27 53.2972 197.327 53.0829C197.352 52.9929 197.408 52.9339 197.515 52.9215C197.61 52.9121 197.648 52.9649 197.619 53.0736C197.591 53.1792 197.56 53.2848 197.531 53.3904Z" fill="#5D687E"/>
<path d="M197.091 53.5797C197.075 53.6387 197.059 53.6946 197.04 53.7536C197.012 53.8374 196.949 53.884 196.858 53.8871C196.773 53.8871 196.732 53.8468 196.751 53.7722C196.779 53.6542 196.814 53.5331 196.851 53.412C196.88 53.3281 196.949 53.2847 197.037 53.2847C197.119 53.2847 197.157 53.3281 197.138 53.4058C197.122 53.4648 197.106 53.5207 197.091 53.5797Z" fill="#5D687E"/>
<path d="M196.543 53.6481C196.631 53.6512 196.675 53.6916 196.65 53.7723C196.625 53.8562 196.556 53.8997 196.467 53.9028C196.379 53.9028 196.338 53.8624 196.364 53.7786C196.389 53.6947 196.455 53.6543 196.543 53.645V53.6481Z" fill="#5D687E"/>
<path d="M202.681 53.5922L200.905 53.6698C200.723 53.6792 200.616 53.5518 200.66 53.3903L200.789 52.9307C200.836 52.7692 201.019 52.6295 201.201 52.6233L202.976 52.5456C203.159 52.5363 203.269 52.6637 203.222 52.8251L203.093 53.2848C203.046 53.4463 202.863 53.586 202.681 53.5922Z" fill="#5D687E"/>
<path d="M203.093 53.3345L202.951 53.3407L203.109 52.7817L203.25 52.7755C203.342 52.7724 203.398 52.8345 203.376 52.9184L203.304 53.1761C203.282 53.26 203.187 53.3283 203.093 53.3345Z" fill="#5D687E"/>
<path d="M169.16 52.8936L168.842 54.0271L168.552 54.0395L168.81 53.1171L168.558 53.1296L168.618 52.9184L169.16 52.8936Z" fill="#5D687E"/>
<path d="M169.153 53.9617C169.084 53.9182 169.04 53.853 169.018 53.7692C168.996 53.6853 169.002 53.5797 169.037 53.4586C169.071 53.3375 169.125 53.2319 169.194 53.1419C169.263 53.0518 169.348 52.9835 169.443 52.9307C169.537 52.881 169.635 52.853 169.739 52.8499C169.843 52.8468 169.928 52.8655 169.997 52.9089C170.066 52.9524 170.11 53.0176 170.132 53.1015C170.154 53.1853 170.148 53.2909 170.113 53.412C170.079 53.5332 170.025 53.6387 169.956 53.7288C169.887 53.8189 169.802 53.8872 169.707 53.94C169.613 53.9928 169.515 54.0176 169.411 54.0207C169.308 54.0238 169.223 54.0052 169.153 53.9617ZM169.679 53.7009C169.739 53.6387 169.786 53.5456 169.821 53.4214C169.855 53.2971 169.858 53.2071 169.833 53.1481C169.805 53.0891 169.755 53.0642 169.679 53.0673C169.603 53.0704 169.537 53.1015 169.474 53.1636C169.415 53.2257 169.367 53.3189 169.333 53.4431C169.298 53.5673 169.295 53.6574 169.32 53.7164C169.348 53.7754 169.399 53.8002 169.474 53.7971C169.55 53.794 169.619 53.763 169.679 53.7009Z" fill="#5D687E"/>
<path d="M170.459 53.3501C170.434 53.3221 170.428 53.2849 170.441 53.2383C170.453 53.1917 170.482 53.1545 170.522 53.1234C170.563 53.0923 170.607 53.0768 170.658 53.0737C170.708 53.0706 170.743 53.083 170.768 53.111C170.793 53.1389 170.799 53.1762 170.787 53.2228C170.774 53.2694 170.746 53.3066 170.705 53.3377C170.664 53.3687 170.617 53.3874 170.57 53.3874C170.522 53.3874 170.485 53.3749 170.459 53.347V53.3501ZM170.296 53.9308C170.271 53.9029 170.264 53.8656 170.277 53.819C170.29 53.7725 170.318 53.7352 170.359 53.7041C170.4 53.6731 170.444 53.6575 170.494 53.6544C170.544 53.6513 170.579 53.6638 170.604 53.6917C170.629 53.7197 170.636 53.7569 170.623 53.8004C170.611 53.8439 170.582 53.8843 170.541 53.9153C170.5 53.9464 170.453 53.965 170.406 53.965C170.359 53.965 170.321 53.9526 170.296 53.9246V53.9308Z" fill="#5D687E"/>
<path d="M172.08 53.648L171.876 53.6573L171.81 53.8965L171.527 53.9089L171.593 53.6698L170.916 53.6977L170.966 53.5207L171.759 52.7754L172.065 52.7629L171.325 53.4679L171.662 53.4524L171.722 53.2412L171.995 53.2288L171.936 53.4399L172.14 53.4306L172.08 53.6449V53.648Z" fill="#5D687E"/>
<path d="M172.194 53.8313C172.125 53.7879 172.081 53.7227 172.059 53.6388C172.036 53.555 172.043 53.4494 172.077 53.3283C172.112 53.2071 172.166 53.1016 172.235 53.0115C172.304 52.9214 172.389 52.8531 172.483 52.8003C172.578 52.7506 172.675 52.7227 172.782 52.7196C172.889 52.7165 172.971 52.7351 173.041 52.7786C173.11 52.8221 173.154 52.8873 173.176 52.9711C173.198 53.055 173.192 53.1606 173.157 53.2848C173.122 53.409 173.069 53.5115 173 53.6015C172.93 53.6916 172.845 53.763 172.751 53.8127C172.657 53.8624 172.559 53.8904 172.452 53.8935C172.345 53.8966 172.263 53.8779 172.194 53.8345V53.8313ZM172.719 53.5705C172.779 53.5084 172.826 53.4152 172.861 53.291C172.896 53.1668 172.899 53.0767 172.874 53.0177C172.845 52.9587 172.795 52.9339 172.719 52.937C172.644 52.9401 172.578 52.9711 172.515 53.0332C172.455 53.0953 172.408 53.1885 172.373 53.3127C172.339 53.4369 172.335 53.527 172.361 53.586C172.389 53.645 172.439 53.6699 172.515 53.6668C172.59 53.6637 172.66 53.6326 172.719 53.5705Z" fill="#5D687E"/>
<path d="M183.065 64.9304H183.333L184.721 64.9055C184.888 64.9055 184.888 64.9055 184.881 65.039C184.828 65.9365 184.771 66.8371 184.718 67.7377C184.692 68.1384 184.667 68.5421 184.642 68.9427C184.642 68.9831 184.636 69.0203 184.661 69.0514C184.708 69.0359 184.721 68.9986 184.74 68.9706C185.517 67.7346 186.294 66.4955 187.072 65.2564C187.135 65.1571 187.201 65.0577 187.261 64.9583C187.305 64.8838 187.358 64.862 187.446 64.8589C187.915 64.8558 188.384 64.8465 188.857 64.8372C188.935 64.8372 188.964 64.8558 188.96 64.9272C188.948 65.2626 188.945 65.5949 188.938 65.9303C188.916 66.9396 188.894 67.952 188.869 68.9675C188.869 68.9893 188.869 69.011 188.904 69.0265C188.998 68.9365 189.039 68.8278 189.096 68.7284C189.703 67.7098 190.311 66.685 190.915 65.6633C191.063 65.4117 191.217 65.1602 191.365 64.9086C191.406 64.8403 191.444 64.7999 191.541 64.7968C192.152 64.7906 192.766 64.7813 193.38 64.772C193.398 64.772 193.414 64.7782 193.439 64.7844C193.376 64.949 193.254 65.098 193.153 65.2533C192.155 66.7595 191.154 68.2626 190.156 69.7625C189.848 70.2253 189.536 70.688 189.234 71.1507C189.178 71.2408 189.121 71.2687 189.017 71.2687C188.526 71.2687 188.032 71.2687 187.541 71.2718C187.428 71.2718 187.39 71.2439 187.39 71.1507C187.38 70.3805 187.365 69.6135 187.352 68.8433C187.343 68.4023 187.339 67.9613 187.33 67.5204C187.33 67.4862 187.346 67.4396 187.292 67.4086C187.245 67.452 187.214 67.5048 187.179 67.5545C186.383 68.747 185.586 69.9365 184.79 71.1228C184.683 71.2843 184.68 71.2843 184.488 71.2843C184.028 71.2843 183.572 71.2843 183.116 71.2874C182.93 71.2874 182.958 71.2749 182.958 71.16C182.958 70.7315 182.952 70.3029 182.942 69.8775C182.942 69.7936 182.983 69.7253 183.04 69.6476C183.326 69.2563 183.588 68.8588 183.745 68.4427C184 67.775 184.145 67.1166 184.06 66.4955C183.984 65.9614 183.745 65.508 183.339 65.154C183.257 65.0825 183.175 65.0142 183.065 64.9241V64.9304Z" fill="#FFA200"/>
<path d="M187.094 61.07C187.336 61.8526 187.579 62.6414 187.827 63.4551L187.541 63.4613C187.034 63.4706 186.527 63.4737 186.021 63.4923C185.885 63.4985 185.832 63.4551 185.807 63.3619C185.681 62.9178 185.549 62.4737 185.419 62.0296C185.363 61.8371 185.306 61.6476 185.256 61.452C185.234 61.3744 185.193 61.334 185.083 61.3433C184.884 61.3557 184.692 61.3526 184.494 61.3588C184.321 61.3619 184.321 61.365 184.268 61.5234C184.123 61.9706 183.975 62.4147 183.83 62.8619C183.77 63.042 183.714 63.2221 183.654 63.4023C183.613 63.5265 183.61 63.5265 183.477 63.5296C182.977 63.5389 182.48 63.5451 181.979 63.5575C181.879 63.5575 181.847 63.5327 181.885 63.4457C181.901 63.4116 181.907 63.3774 181.919 63.3433L183.852 57.4397L183.868 57.39C183.928 57.2036 183.918 57.2254 184.11 57.2192C185.098 57.1881 186.093 57.1477 187.081 57.1322C187.727 57.1198 188.293 57.2409 188.69 57.5918C189.03 57.8931 189.13 58.303 189.061 58.7812C189.011 59.126 188.888 59.4707 188.674 59.8123C188.344 60.3371 187.859 60.7346 187.22 60.9986C187.185 61.011 187.154 61.0265 187.122 61.0421C187.116 61.0421 187.11 61.0514 187.091 61.0669L187.094 61.07ZM184.998 59.2936C184.916 59.5421 184.837 59.7905 184.755 60.0359C184.736 60.098 184.721 60.1477 184.818 60.1415C185.212 60.1228 185.593 60.1415 185.999 60.0793C186.433 60.0141 186.795 59.803 186.974 59.4893C187.072 59.3185 187.129 59.1415 187.135 58.9676C187.141 58.8309 187.097 58.7222 187.015 58.6291C186.893 58.4924 186.704 58.4427 186.493 58.4179C186.153 58.3775 185.781 58.4179 185.429 58.4241C185.287 58.4241 185.284 58.4303 185.24 58.5639C185.158 58.8061 185.083 59.0483 185.001 59.2905L184.998 59.2936Z" fill="#292B42"/>
<path d="M178.958 60.4987L177.998 63.4272C177.985 63.4676 177.969 63.5049 177.96 63.5452C177.944 63.6105 177.903 63.6322 177.831 63.6353C177.318 63.6446 176.805 63.6539 176.292 63.6633C176.216 63.6633 176.204 63.6353 176.226 63.5732C176.27 63.4521 176.308 63.3279 176.345 63.2067L176.975 61.2875C177.016 61.1571 177.025 61.1602 176.871 61.1633C176.046 61.1819 175.222 61.2006 174.403 61.2223C174.255 61.2254 174.252 61.2285 174.208 61.3621C173.975 62.0763 173.742 62.7875 173.506 63.5018C173.497 63.5359 173.481 63.5701 173.475 63.6011C173.459 63.685 173.412 63.7192 173.311 63.7192C173.107 63.7192 172.902 63.7254 172.694 63.7285C172.414 63.7347 172.137 63.7347 171.857 63.744C171.759 63.7471 171.728 63.7192 171.769 63.6322C171.785 63.598 171.791 63.567 171.803 63.5328L173.698 57.7472L173.72 57.682C173.771 57.5392 173.771 57.5392 173.931 57.5329C174.391 57.5174 174.853 57.505 175.316 57.4895C175.477 57.4833 175.477 57.4864 175.429 57.6323C175.193 58.3497 174.957 59.0702 174.724 59.7876C174.712 59.8248 174.699 59.8652 174.687 59.9025C174.668 59.9522 174.687 59.9739 174.74 59.9677C174.772 59.9677 174.803 59.9677 174.834 59.9677L177.268 59.9056C177.444 59.9025 177.425 59.9118 177.478 59.7565L178.177 57.623C178.187 57.5888 178.199 57.5547 178.209 57.5236C178.25 57.4056 178.253 57.4025 178.385 57.3994C178.804 57.3839 179.222 57.3746 179.644 57.359C179.726 57.359 179.808 57.359 179.893 57.3497C179.968 57.3435 179.99 57.3715 179.965 57.4367C179.949 57.477 179.94 57.5143 179.927 57.5547L178.964 60.4987H178.958Z" fill="#292B42"/>
<path d="M181.857 65.0017C182.247 65.0762 182.558 65.2439 182.823 65.4644C183.358 65.9085 183.588 66.5017 183.522 67.2315C183.471 67.8122 183.289 68.3992 182.949 68.983C182.357 70.0016 181.438 70.7283 180.204 71.1103C179.046 71.4705 177.988 71.4736 177.079 71.1103C176.024 70.691 175.609 69.8929 175.76 68.7873C175.829 68.278 176.008 67.7656 176.292 67.2594C176.311 67.2284 176.339 67.1973 176.361 67.1663C176.449 67.1507 176.531 67.1104 176.613 67.0762C177.784 66.6135 178.961 66.1508 180.141 65.6818C180.711 65.4551 181.281 65.2284 181.85 65.0017H181.857ZM177.806 68.1693C177.768 68.2998 177.705 68.5016 177.686 68.7004C177.626 69.3153 177.815 69.9053 178.722 70.0047C179.524 70.0948 180.443 69.8184 181.041 68.8774C181.158 68.6973 181.246 68.511 181.315 68.3277C181.482 67.8898 181.586 67.4613 181.517 67.0545C181.438 66.5948 181.139 66.3122 180.601 66.2222C180.421 66.1911 180.229 66.1911 180.034 66.2067C179.316 66.2594 178.737 66.5793 178.3 67.1569C178.07 67.4613 177.928 67.778 177.806 68.1693Z" fill="#FFA200"/>
<path d="M192.536 60.7937C192.171 60.8248 191.815 60.8155 191.456 60.8279C191.403 60.8279 191.349 60.8341 191.296 60.831C191.217 60.8279 191.186 60.8589 191.167 60.9242C191.117 61.0825 191.057 61.2409 191.003 61.3993C190.921 61.4304 190.84 61.4583 190.758 61.4894C190.153 61.7254 189.552 61.9614 188.951 62.1974C188.967 62.1415 188.976 62.0856 188.995 62.0266C189.521 60.4211 190.043 58.8155 190.572 57.2099C190.638 57.0081 190.61 57.0236 190.843 57.0174L195.699 56.8683C195.747 56.8683 195.794 56.8683 195.841 56.8652C195.891 56.8652 195.907 56.887 195.894 56.9273C195.882 56.9677 195.869 57.0081 195.857 57.0485C195.759 57.3466 195.662 57.6478 195.564 57.946C195.488 58.1696 195.536 58.1416 195.278 58.1478C194.541 58.1696 193.804 58.1882 193.071 58.2099C192.782 58.2192 192.495 58.2255 192.206 58.2348C192.051 58.241 192.048 58.241 192.007 58.3683C191.891 58.7161 191.778 59.0639 191.664 59.4149C191.623 59.5391 191.626 59.5422 191.778 59.5391C192.574 59.5205 193.376 59.4987 194.176 59.477C194.346 59.4739 194.513 59.4708 194.683 59.4615C194.78 59.4552 194.809 59.4832 194.777 59.567C194.724 59.7006 194.705 59.831 194.635 59.9645C193.934 60.2409 193.235 60.5204 192.539 60.7968L192.536 60.7937Z" fill="#292B42"/>
<path d="M180.05 60.449L180.994 57.564L181.022 57.4802C181.079 57.3063 181.063 57.3156 181.262 57.3094C181.731 57.2938 182.2 57.2814 182.669 57.2659C182.835 57.2597 182.835 57.2628 182.788 57.4087C182.417 58.5485 182.042 59.6851 181.671 60.8248L180.84 63.3651C180.827 63.4055 180.812 63.4428 180.802 63.4831C180.786 63.5546 180.742 63.5825 180.66 63.5825C180.437 63.5825 180.21 63.5887 179.987 63.5949C179.719 63.6012 179.449 63.6043 179.181 63.6105C179.017 63.6105 179.014 63.6105 179.062 63.4676C179.329 62.6446 179.6 61.8248 179.867 61.0018L180.05 60.449Z" fill="#292B42"/>
<path d="M169.877 69.7345C169.893 69.6786 169.905 69.6258 169.921 69.5699C170.39 68.1413 170.856 66.7159 171.325 65.2873L171.334 65.2532C171.382 65.1103 171.385 65.1103 171.542 65.1072C171.914 65.101 172.285 65.101 172.66 65.0886C172.792 65.0824 172.864 65.1165 172.905 65.2159C173.088 65.6476 173.286 66.073 173.478 66.5047C173.679 66.9581 173.884 67.4115 174.085 67.8649C174.111 67.9239 174.148 67.9767 174.151 68.0482C173.654 68.2438 173.154 68.4426 172.66 68.6382C172.54 68.3836 172.423 68.1258 172.301 67.8711C172.279 67.8277 172.276 67.7749 172.209 67.7314C172.065 68.16 171.923 68.5761 171.781 68.9922C171.712 69.0171 171.643 69.0419 171.574 69.0668C171.007 69.2904 170.441 69.5109 169.874 69.7345H169.877Z" fill="#292B42"/>
<path d="M172.659 68.6382C173.157 68.4426 173.654 68.2438 174.151 68.0482C174.277 68.2283 174.321 68.455 174.463 68.6631C174.57 68.3525 174.664 68.073 174.759 67.7966C174.866 67.778 174.963 67.7221 175.067 67.688C175.266 67.6165 175.461 67.5171 175.665 67.4644C175.621 67.5699 175.577 67.6755 175.536 67.7811C175.351 68.2376 175.225 68.691 175.215 69.1351C175.212 69.3432 175.193 69.5544 175.228 69.7531C175.275 70.0295 175.366 70.2842 175.511 70.5171C175.549 70.5792 175.561 70.6444 175.53 70.7283C175.47 70.8897 175.417 71.0512 175.373 71.2127C175.347 71.2966 175.303 71.3183 175.215 71.3183C174.8 71.3183 174.384 71.3183 173.969 71.3214C173.881 71.3214 173.843 71.2935 173.815 71.2314C173.594 70.7376 173.371 70.2469 173.151 69.7562C172.984 69.3836 172.82 69.0109 172.653 68.6382H172.659Z" fill="#FFA200"/>
<path d="M188.951 62.2005C189.552 61.9644 190.153 61.7284 190.758 61.4924C190.84 61.4613 190.921 61.4303 191.003 61.4023C190.94 61.6011 190.88 61.803 190.817 62.0017C190.777 62.1384 190.777 62.1415 190.94 62.1352C191.944 62.1166 192.951 62.0949 193.962 62.0731C194.009 62.0731 194.056 62.0731 194.103 62.0731C194.179 62.0669 194.207 62.0887 194.185 62.1601C194.063 62.5296 193.943 62.8961 193.823 63.2657C193.801 63.334 193.757 63.3588 193.682 63.3557C193.641 63.3557 193.6 63.3557 193.559 63.3557L188.762 63.4427H188.702C188.529 63.4427 188.526 63.4427 188.576 63.2967C188.699 62.9334 188.8 62.57 188.945 62.2036L188.951 62.2005Z" fill="#FFA200"/>
<path d="M181.857 65.0016C181.287 65.2283 180.714 65.455 180.147 65.6817C178.967 66.1476 177.79 66.6134 176.619 67.0761C176.534 67.1103 176.452 67.1507 176.367 67.1662C176.392 67.0575 176.474 66.9581 176.55 66.8587C177.315 65.837 178.357 65.2128 179.634 64.9519C180.371 64.8029 181.06 64.8029 181.702 64.9457C181.759 64.9582 181.822 64.9675 181.86 65.0016H181.857Z" fill="#292B42"/>
<path d="M169.877 69.7344C170.441 69.5139 171.007 69.2903 171.577 69.0667C171.646 69.0388 171.715 69.017 171.785 68.9922C171.778 69.0201 171.775 69.0481 171.766 69.0729C171.536 69.7779 171.303 70.4859 171.07 71.1909C171.026 71.3213 171.023 71.3244 170.891 71.3244C170.415 71.3244 169.94 71.3244 169.465 71.3306C169.386 71.3306 169.342 71.3213 169.374 71.2344C169.543 70.7344 169.71 70.2344 169.877 69.7344Z" fill="#FFA200"/>
<path d="M175.669 67.4614C175.464 67.5142 175.272 67.6136 175.071 67.685C174.967 67.7222 174.869 67.775 174.762 67.7937C174.822 67.6042 174.879 67.4148 174.941 67.2285C175.162 66.5546 175.382 65.8838 175.602 65.2099C175.665 65.0173 175.65 65.0422 175.854 65.0391C176.32 65.0298 176.789 65.0235 177.258 65.0173C177.403 65.0173 177.4 65.0173 177.362 65.1447L177.356 65.1602C177.29 65.4273 177.201 65.685 176.871 65.8776C176.374 66.3217 176.012 66.8185 175.738 67.3465C175.719 67.3837 175.706 67.4241 175.669 67.4583V67.4614Z" fill="#292B42"/>
<path d="M192.536 60.7937C193.235 60.5173 193.933 60.2409 194.632 59.9614C194.582 60.1943 194.484 60.4304 194.415 60.6633C194.396 60.7254 194.362 60.7595 194.283 60.7627C193.701 60.7689 193.112 60.7999 192.536 60.7937Z" fill="#FFA200"/>
<g opacity="0.5">
<path d="M183.575 50.9743C186.795 65.269 190.034 79.6414 193.292 94.0945C191.331 100.47 189.37 106.833 187.415 113.184C182.423 92.4361 177.475 71.8558 172.565 51.4432C176.219 51.288 179.889 51.1296 183.575 50.9712V50.9743Z" fill="#E6E6E6"/>
<path d="M186.474 50.8066L195.145 88.0791C195.492 86.9673 195.841 85.8586 196.187 84.7469C193.483 73.3744 190.792 62.0548 188.114 50.7817C187.566 50.7911 187.022 50.7973 186.474 50.8066Z" fill="#E6E6E6"/>
<path d="M165.408 57.03C170.444 79.3463 175.524 101.852 180.645 124.553C178.879 124.553 177.117 124.553 175.36 124.553C171.042 105.159 166.755 85.9052 162.496 66.7907C163.466 63.5392 164.435 60.2877 165.408 57.03Z" fill="#E6E6E6"/>
</g>
<path d="M192.986 53.2721L176.962 53.5858C175.382 53.6169 174.457 52.4958 174.891 51.0828L175.319 49.6946L197.091 49.2505L196.662 50.6449C196.225 52.0641 194.579 53.2411 192.989 53.2721H192.986Z" fill="#4D4D4D"/>
<path d="M188.617 51.9771L182.165 52.1044C181.803 52.1106 181.589 51.8529 181.687 51.5299C181.787 51.2038 182.162 50.9367 182.527 50.9274L188.983 50.797C189.348 50.7908 189.562 51.0485 189.461 51.3715C189.36 51.6976 188.986 51.9678 188.621 51.974L188.617 51.9771Z" fill="#333333"/>
<path d="M185.391 81.4146C185.391 84.6164 186.543 87.5604 188.457 89.8616C189.489 91.1038 190.745 92.1597 192.162 92.9671C193.021 93.4578 193.94 93.8553 194.903 94.1535C196.168 94.5385 197.509 94.7466 198.9 94.7466C199.983 94.7466 201.05 94.6224 202.086 94.374C202.545 94.2653 202.995 94.1348 203.439 93.9764C203.939 93.8025 204.424 93.5976 204.896 93.3647C205.897 92.874 206.832 92.2622 207.694 91.5324C208.016 91.2622 208.324 90.9765 208.614 90.6784C211.04 88.2033 212.409 84.8928 212.409 81.4146C212.409 79.0296 211.767 76.6942 210.546 74.6539C210.511 74.598 210.477 74.5421 210.445 74.4862C209.262 72.5701 207.594 70.9676 205.627 69.8496C203.593 68.6944 201.267 68.0857 198.903 68.0857C195.296 68.0857 191.903 69.4708 189.354 71.9893C189.285 72.0577 189.215 72.126 189.14 72.2005C189.127 72.2129 189.115 72.2254 189.102 72.2409L189.071 72.275L189.03 72.3154C186.682 74.7874 185.391 78.0203 185.391 81.4115V81.4146Z" fill="white"/>
<path d="M196.804 82.1164C196.823 82.3431 196.889 83.3834 196.131 84.3306C195.359 85.2964 194.289 85.4672 194.066 85.4952C194.349 85.7964 196.017 87.5324 198.762 87.5883C201.481 87.6442 203.216 86.0076 203.515 85.7157C203.222 85.6256 202.082 85.2374 201.403 84.076C200.971 83.3369 200.921 82.6288 200.924 82.2748C199.552 82.222 198.176 82.1661 196.804 82.1133V82.1164Z" fill="#FF7D7A"/>
<path d="M196.763 82.9177C197.726 83.4301 199.051 83.9332 200.647 83.9581C200.88 83.9612 201.107 83.9581 201.324 83.9394C201.239 83.7748 201.154 83.573 201.085 83.3432C200.984 83.0109 200.94 82.7096 200.927 82.4674C199.555 82.4426 198.186 82.4208 196.814 82.396C196.798 82.5699 196.782 82.7438 196.763 82.9146V82.9177Z" fill="#FF6759"/>
<path d="M194.488 76.9053C194.195 76.9022 193.868 77.7127 193.937 78.4146C194.034 79.4301 194.96 80.1847 195.246 80.0481C195.718 79.8214 195.042 76.9146 194.488 76.9053Z" fill="#FF6759"/>
<path d="M203.43 76.9053C203.722 76.9022 204.05 77.7127 203.98 78.4146C203.883 79.4301 202.957 80.1847 202.671 80.0481C202.199 79.8214 202.876 76.9146 203.43 76.9053Z" fill="#FF6759"/>
<path d="M201.783 73.6663C204.493 75.7253 203.26 80.8587 201.012 82.4705C200.742 82.663 199.879 83.2686 198.724 83.2034C197.638 83.1444 196.889 82.5264 196.637 82.3183C194.591 80.6258 193.587 75.6352 196.379 73.6383C197.906 72.5483 200.298 72.539 201.78 73.6663H201.783Z" fill="#FF7D7A"/>
<path d="M188.457 89.8615C189.489 91.1037 190.745 92.1596 192.162 92.9671C193.021 93.4577 193.94 93.8552 194.903 94.1534C196.168 94.5385 197.509 94.7465 198.9 94.7465C199.983 94.7465 201.05 94.6223 202.086 94.3739C202.545 94.2652 202.995 94.1347 203.439 93.9764C203.939 93.8024 204.424 93.5975 204.896 93.3646C205.897 92.8739 206.832 92.2621 207.694 91.5323C208.016 91.2621 208.324 90.9764 208.614 90.6783C208.525 89.846 208.371 89.1752 208.223 88.6721C207.893 87.5324 207.594 87.197 207.408 87.0231C206.813 86.461 206.146 86.4206 205.258 86.2498C204.827 86.1691 204.339 86.0511 203.785 85.8306C203.691 85.7933 203.6 85.7529 203.511 85.7157C203.511 85.7157 203.511 85.7157 203.508 85.7157C203.464 85.6939 203.417 85.6753 203.373 85.6536C202.753 85.3616 202.284 85.0325 201.969 84.7933L201.963 84.7995C201.755 85.0076 200.613 86.1039 198.806 86.0852C197.024 86.0635 195.913 84.9735 195.712 84.7654H195.709C195.149 85.0418 194.635 85.2654 194.185 85.4362C193.855 85.5635 193.559 85.6691 193.307 85.7498C192.967 85.8616 192.656 85.9517 192.372 86.0293C191.063 86.3834 190.323 86.4548 189.628 87.1504C189.143 87.6349 188.964 88.1411 188.731 88.8398C188.643 89.1038 188.542 89.4485 188.46 89.8646L188.457 89.8615Z" fill="#7481F4"/>
<path d="M202.086 94.374C202.545 94.2653 202.995 94.1349 203.439 93.9765C203.939 93.8026 204.424 93.5976 204.896 93.3647C204.94 92.343 204.991 91.315 205.044 90.284C205.113 88.9331 205.189 87.5915 205.268 86.2593C205.268 86.2561 205.265 86.253 205.261 86.2499C205.154 86.1195 204.859 85.7965 204.352 85.6568C203.911 85.5326 203.54 85.6071 203.376 85.6506C203.376 85.6568 203.376 85.663 203.376 85.6723C203.376 85.7251 203.382 85.781 203.382 85.84C203.439 86.9797 203.417 88.3431 203.206 89.8617C202.961 91.638 202.529 93.1566 202.082 94.374H202.086Z" fill="#FFA200"/>
<path d="M192.161 92.964C193.021 93.4547 193.94 93.8522 194.903 94.1503C194.604 93.023 194.34 91.7 194.192 90.2032C194.019 88.4486 194.056 86.8896 194.17 85.6039C194.173 85.5604 194.176 85.5169 194.182 85.4766C194.182 85.461 194.182 85.4486 194.185 85.4362C194.041 85.3958 193.556 85.2778 193.03 85.5076C192.681 85.6598 192.467 85.8989 192.369 86.0263C192.319 87.3834 192.275 88.7498 192.234 90.1255C192.209 91.0789 192.184 92.023 192.161 92.9671V92.964Z" fill="#FFA200"/>
<path d="M198.828 77.1911C198.62 78.0296 198.409 78.8712 198.202 79.7097C198.293 79.7656 198.497 79.8774 198.784 79.8898C199.067 79.9053 199.284 79.8153 199.382 79.7687C199.199 78.9084 199.014 78.0482 198.831 77.188L198.828 77.1911Z" fill="#FF6759"/>
<path d="M197.437 80.4892C197.471 80.4395 197.984 80.955 198.778 80.9737C199.574 80.9923 200.112 80.4985 200.144 80.5482C200.178 80.6041 199.561 81.306 198.756 81.2811C197.966 81.2563 197.402 80.5451 197.44 80.4892H197.437Z" fill="#FF6759"/>
<path d="M199.823 77.7936C200.254 77.7315 200.738 77.6166 201.154 77.5389C201.569 77.4582 202.06 77.3868 202.485 77.2812C201.68 76.6725 200.342 76.9334 199.823 77.7936Z" fill="black"/>
<path d="M199.577 76.6477C199.479 76.3837 200.638 75.4086 201.595 75.6819C201.878 75.7626 202.227 75.9769 202.205 76.1632C202.177 76.4272 201.421 76.5514 200.962 76.626C200.424 76.7129 199.646 76.8402 199.574 76.6446L199.577 76.6477Z" fill="black"/>
<path d="M201.289 77.3557C201.302 77.7719 201.066 78.042 200.893 78.0358C200.745 78.0296 200.581 77.8215 200.534 77.5389C200.786 77.4799 201.038 77.4178 201.292 77.3588L201.289 77.3557Z" fill="black"/>
<path d="M197.969 77.7936C197.452 76.9334 196.115 76.6725 195.306 77.2812C195.728 77.3868 196.222 77.4582 196.637 77.5389C197.053 77.6166 197.537 77.7346 197.969 77.7936Z" fill="black"/>
<path d="M198.214 76.6477C198.312 76.3837 197.153 75.4086 196.197 75.6819C195.913 75.7626 195.564 75.9769 195.586 76.1632C195.614 76.4272 196.37 76.5514 196.829 76.626C197.367 76.7129 198.145 76.8402 198.217 76.6446L198.214 76.6477Z" fill="black"/>
<path d="M196.502 77.3557C196.489 77.7719 196.725 78.042 196.899 78.0358C197.046 78.0296 197.21 77.8215 197.257 77.5389C197.006 77.4799 196.754 77.4178 196.499 77.3588L196.502 77.3557Z" fill="black"/>
<path d="M201.84 77.9458C202.158 77.8651 202.69 77.8464 202.772 78.0514C202.92 78.4148 201.626 79.4737 201.167 79.2191C200.987 79.1197 200.953 78.834 200.984 78.657C201.069 78.1446 201.761 77.9676 201.84 77.9489V77.9458Z" fill="#F67057"/>
<path d="M196.014 77.9458C195.696 77.8651 195.164 77.8464 195.082 78.0514C194.934 78.4148 196.228 79.4737 196.688 79.2191C196.867 79.1197 196.902 78.834 196.87 78.657C196.785 78.1446 196.093 77.9676 196.014 77.9489V77.9458Z" fill="#F67057"/>
<path d="M194.683 77.7097L194.978 77.7594C194.972 78.3308 194.966 78.8991 194.96 79.4705C194.897 79.2532 194.834 79.0109 194.786 78.747C194.717 78.365 194.689 78.0172 194.683 77.7128V77.7097Z" fill="#333333"/>
<path d="M203.064 77.8215C203.023 78.3992 202.986 78.9768 202.945 79.5544C203.017 79.3401 203.086 79.1072 203.149 78.8557C203.225 78.5575 203.278 78.2749 203.316 78.0141L203.064 77.8246V77.8215Z" fill="#333333"/>
<path d="M193.896 75.6475C193.443 76.1289 193.77 76.8556 193.244 77.2065C192.952 77.4022 192.668 77.2935 192.618 77.4488C192.527 77.7189 193.263 78.3556 193.672 78.2034C193.915 78.1133 193.905 77.7966 194.132 77.7655C194.406 77.7251 194.569 78.1723 194.834 78.1195C195.001 78.0854 195.111 77.8711 195.142 77.7189C195.211 77.3866 194.934 77.2531 194.988 76.9488C195.032 76.7065 195.221 76.7096 195.447 76.3587C195.514 76.2562 195.813 75.7966 195.677 75.5451C195.488 75.191 194.38 75.132 193.896 75.6475Z" fill="black"/>
<path d="M203.552 75.1849C204.295 75.0948 204.777 76.101 204.821 76.5575C204.827 76.6227 204.859 76.8059 204.764 76.8743C204.635 76.9674 204.421 76.7563 204.27 76.8432C204.131 76.924 204.091 77.2283 204.21 77.4333C204.396 77.75 204.874 77.632 204.928 77.8246C204.991 78.0513 204.424 78.5761 203.795 78.5481C203.467 78.5326 203.017 78.3618 202.929 78.0513C202.828 77.691 203.297 77.4426 203.184 77.0668C203.096 76.7687 202.759 76.7935 202.649 76.514C202.482 76.0855 202.929 75.2625 203.549 75.188L203.552 75.1849Z" fill="black"/>
<path d="M204.223 75.7905C202.592 75.6259 200.839 75.5079 198.979 75.4551C197.194 75.4054 195.504 75.4241 193.924 75.4924C193.886 74.98 193.871 73.7253 194.654 72.4987C196.112 70.2192 198.944 70.2161 199.143 70.2192C199.41 70.2223 201.994 70.3093 203.433 72.4676C204.364 73.8651 204.273 75.3185 204.226 75.7905H204.223Z" fill="#7481F4"/>
<path d="M193.219 75.7719C193.134 75.1166 196.244 73.7005 199.442 73.834C202.278 73.952 205.019 75.2812 204.918 75.8744C204.849 76.2936 203.354 76.3743 203.058 76.3899C201.145 76.4955 200.707 75.6725 199.017 75.7532C197.701 75.8153 197.648 76.3278 196.153 76.4116C194.931 76.4799 193.282 76.2315 193.219 75.7719Z" fill="#5761B7"/>
<path d="M199.064 69.9552C199.404 69.949 199.709 70.1974 199.678 70.3123C199.624 70.5111 198.529 70.4987 198.482 70.2999C198.453 70.185 198.746 69.9614 199.064 69.9552Z" fill="#5761B7"/>
<path d="M206.785 94.3553C206.933 94.5168 207.096 94.6783 207.241 94.8553C212.284 100.871 217.326 106.886 222.365 112.905C223.146 113.839 223.731 114.041 224.87 113.594C226.535 112.936 227.817 111.818 228.638 110.231C229.223 109.1 229.107 108.52 228.201 107.622C223.624 103.079 219.044 98.5385 214.468 93.992C213.307 92.8429 212.155 91.6846 211.012 90.5417C209.86 92.0417 208.434 93.3398 206.782 94.3522L206.785 94.3553Z" fill="#68758E"/>
<path d="M183.138 84.4642C184.142 89.0293 187.085 92.6876 190.934 94.7714C191.233 94.936 191.538 95.0882 191.847 95.231C194.853 96.6192 198.324 97.0819 201.818 96.3366C203.628 95.9484 205.296 95.2714 206.782 94.3584C208.434 93.346 209.863 92.0479 211.012 90.5479C213.684 87.0697 214.855 82.5015 213.845 77.9022C213.228 75.0917 211.874 72.629 210.03 70.6632C209.986 70.6166 209.942 70.5701 209.895 70.5204C206.24 66.7223 200.726 64.8435 195.161 66.0329C190.918 66.9397 187.453 69.4552 185.278 72.7905C185.218 72.8806 185.158 72.9737 185.099 73.07C185.064 73.1259 185.029 73.1818 184.998 73.2408C183.024 76.4985 182.253 80.4674 183.131 84.4673L183.138 84.4642ZM185.498 83.9611C184.781 80.6972 185.344 77.3246 187.078 74.4613L187.107 74.4147L187.129 74.3743C187.129 74.3743 187.148 74.3433 187.157 74.3277C187.21 74.2408 187.264 74.16 187.318 74.0793C189.241 71.1322 192.209 69.1011 195.68 68.3589C197.953 67.8714 200.32 67.9832 202.52 68.6726C204.651 69.3434 206.593 70.5421 208.135 72.1415C208.179 72.188 208.223 72.2346 208.267 72.2812C209.873 73.9923 210.984 76.1072 211.487 78.4022C212.221 81.75 211.604 85.2157 209.794 88.0976C209.577 88.4424 209.341 88.7809 209.092 89.1069C208.415 89.9858 207.647 90.7684 206.785 91.4454C206.379 91.7653 205.954 92.0603 205.51 92.3336C205.117 92.5758 204.711 92.7963 204.292 92.992C203.348 93.4423 202.35 93.7808 201.308 94.0044C199.97 94.2901 198.636 94.3646 197.336 94.2559C196.345 94.1689 195.375 93.9733 194.447 93.6783C192.914 93.1938 191.485 92.4361 190.226 91.4547C187.897 89.6349 186.169 87.0418 185.492 83.958L185.498 83.9611Z" fill="#8B9CBD"/>
<path d="M139.903 131.094C133.785 130.982 124.685 131.19 124.657 131.876C124.632 132.51 132.28 133.532 139.526 133.712C147.395 133.907 155.534 133.125 155.534 132.469C155.534 131.768 146.198 131.205 139.903 131.091V131.094Z" fill="black"/>
<path d="M140.983 88.6815C141.093 87.9765 141.244 86.9113 141.377 85.5884C141.414 85.2157 141.443 84.8958 141.452 84.7716C141.502 83.8803 141.471 82.4425 140.971 79.9425C140.111 75.6445 139.372 75.3867 138.928 72.2439C138.569 69.7129 138.257 67.5173 139.516 65.6664C140.297 64.5174 141.597 63.623 144.222 62.9584C150.501 61.3653 156.947 62.9491 160.542 64.1199C159.018 67.9086 157.939 71.2315 157.174 73.8619C155.433 79.8463 155.153 82.8493 155.056 84.4455C154.974 85.8182 154.98 86.9672 155.002 87.7809C150.331 88.0821 145.657 88.3802 140.986 88.6815H140.983Z" fill="#FFA200"/>
<path d="M126.313 122.168C125.875 123.448 125.834 123.973 125.422 124.777C125.126 125.355 124.591 126.162 123.577 126.972C114.352 121.749 112.303 119.789 112.608 119.097C112.844 118.557 114.491 118.32 115.743 118.662C116.722 118.929 116.81 119.367 117.997 119.824C118.431 119.991 119.7 120.476 121.125 120.218C123.014 119.873 124.122 118.414 124.443 117.951C125.4 118.547 126.357 119.147 127.313 119.743C127.055 120.271 126.675 121.106 126.309 122.174L126.313 122.168Z" fill="#4D4D4D"/>
<path d="M153.227 103.346C152.276 103.19 150.784 102.939 149.05 102.141C142.872 99.2991 138.821 91.9391 140.593 89.4733C141.773 87.8273 145.575 88.3056 147.596 88.9546C149.954 89.7093 150.57 90.9173 155.562 93.5415C156.825 94.2061 157.454 94.5353 157.873 94.6812C161.593 95.9731 163.938 94.3614 168.052 94.4638C169.496 94.5011 171.599 94.7589 174.152 95.8489L174.158 99.06C170.856 100.162 168.052 100.976 165.965 101.548C158.184 103.678 155.594 103.734 153.224 103.349L153.227 103.346Z" fill="#BF7A00"/>
<path d="M149.9 94.4204C152.383 94.6937 152.446 97.8302 155.584 99.3861C160.611 101.874 167.214 97.1812 168.376 98.9824C168.555 99.2619 168.669 99.7991 168.083 100.917C166.516 101.476 164.312 102.162 161.615 102.681C158.732 103.237 156.305 103.706 153.617 103.389C151.921 103.19 148.068 102.442 143.973 98.6905C145.383 96.6843 147.571 94.1626 149.903 94.4204H149.9Z" fill="#805100"/>
<path d="M155.386 81.3743C154.867 83.8618 154.892 85.84 155.024 87.2251C155.156 88.5884 155.399 89.5232 155.103 90.9082C154.945 91.6536 154.558 92.8492 153.362 94.2933C150.432 97.8304 146.435 98.2745 142.941 100.967C140.382 102.939 140.306 104.25 137.452 109.035C135.513 112.284 132.356 116.734 127.162 121.467C125.79 120.628 124.418 119.79 123.045 118.951C126.051 113.513 128.148 108.948 129.523 105.728C130.688 103.001 131.264 101.411 132.186 99.6161C132.186 99.6161 132.737 98.5789 133.297 97.641C136.608 92.1256 141.666 88.1039 141.666 88.1039C146.913 83.9301 152.257 82.1631 155.383 81.3774L155.386 81.3743Z" fill="#FFA200"/>
<path d="M139.929 66.5857C138.742 67.4677 136.964 68.7347 134.685 70.1167C132.091 71.6912 131.493 71.8154 131.157 71.8589C127.534 72.3061 124.119 66.8714 123.259 65.4304C123.876 64.5329 124.112 63.7162 124.213 63.21C124.311 62.7255 124.308 62.2504 124.308 61.3001C124.308 60.3156 124.301 59.7908 124.106 59.738C123.902 59.6821 123.508 60.1573 123.37 60.6541C123.241 61.1138 123.411 61.3001 123.275 61.856C123.212 62.1168 123.102 62.6199 122.869 62.6572C122.627 62.6976 122.406 62.1976 121.698 60.9026C121.327 60.2194 120.927 59.5548 120.54 58.8778C119.75 57.4865 119.574 57.2101 119.464 57.2443C119.316 57.2909 119.344 57.8747 119.464 58.3312C119.589 58.8063 119.8 59.0703 119.983 59.3622C120.597 60.3498 120.76 61.4367 120.653 61.4802C120.515 61.5392 119.602 59.9616 119.149 59.3405C119.13 59.3125 119.111 59.2877 119.111 59.2877C118.749 58.797 118.45 58.4554 118.327 58.3126C117.503 57.3592 117.367 57.0673 117.257 57.1138C117.097 57.1791 117.175 57.8623 117.396 58.4368C117.613 59.0113 117.874 59.2132 118.302 59.8094C118.913 60.6603 119.397 61.6665 119.287 61.7442C119.168 61.828 118.261 60.8746 117.635 60.0144C117.566 59.9181 117.415 59.7101 117.144 59.3374C116.366 58.2691 116.297 58.207 116.25 58.2256C116.086 58.2846 116.152 59.2039 116.618 59.9896C116.757 60.2225 116.823 60.2659 117.071 60.5827C117.748 61.4429 118.321 62.4771 118.211 62.5578C118.098 62.6417 117.226 61.6883 117.172 61.6293C116.927 61.3622 116.867 61.2628 116.42 60.7256C115.595 59.7349 115.52 59.7411 115.495 59.7535C115.369 59.8156 115.488 60.4895 115.8 61.0299C115.973 61.3311 116.102 61.4119 116.388 61.9243C116.433 62.0019 116.433 62.0081 116.656 62.4243C116.87 62.8249 116.93 62.9336 117.009 63.0764C117.377 63.7628 117.54 64.1168 117.688 64.4087C118.035 65.1012 118.066 65.1975 118.227 65.4211C118.526 65.8435 119.035 66.4056 119.939 66.8993C121.006 69.4366 123.178 73.539 127.169 76.1538C128.777 77.2066 129.847 77.4737 130.647 77.5575C133.007 77.8028 134.861 76.6569 137.197 75.1694C138.695 74.216 140.772 72.6756 142.865 70.3061C141.886 69.0639 140.911 67.8248 139.932 66.5826L139.929 66.5857Z" fill="#FF7D7A"/>
<path d="M130.631 71.8745C130.729 71.8714 130.842 71.862 130.961 71.8403C131.163 71.8061 131.333 71.7502 131.468 71.6943C132.592 73.3154 133.716 74.9396 134.842 76.5607C134.49 76.7657 134.049 76.9861 133.527 77.1725C133.095 77.3278 132.696 77.4271 132.349 77.4955C131.95 77.0638 131.393 76.3526 131.006 75.3526C130.423 73.8527 130.533 72.5204 130.634 71.8713L130.631 71.8745Z" fill="#FF6759"/>
<path d="M139.353 65.6665C138.83 66.0143 138.056 66.5547 137.162 67.2783C135.185 68.8714 134.603 69.7472 133.111 70.4366C132.535 70.7037 131.673 71.0111 130.502 71.1198C130.728 72.0235 131.506 74.629 134.027 76.4986C135.273 77.4209 136.517 77.8495 137.37 78.0575C138.185 77.2812 139 76.5017 139.818 75.7253C139.664 72.3744 139.51 69.0205 139.356 65.6696L139.353 65.6665Z" fill="#5761B7"/>
<path d="M188.624 86.7749L164.803 95.7922C164.508 95.904 164.36 96.2309 164.473 96.5223L165.871 100.118C165.985 100.409 166.316 100.555 166.611 100.443L190.432 91.4257C190.728 91.3138 190.875 90.9869 190.762 90.6955L189.364 87.1002C189.25 86.8087 188.919 86.6631 188.624 86.7749Z" fill="#7D3036"/>
<path d="M191.932 98.6066L170.349 106.774C170.041 106.889 169.698 106.74 169.578 106.436L167.17 100.243L189.864 91.6533L192.272 97.8457C192.388 98.1501 192.237 98.4886 191.929 98.6066H191.932Z" fill="#7D3036"/>
<path d="M173.769 99.3062C174.085 99.1864 174.088 98.4376 173.776 97.6338C173.463 96.8299 172.953 96.2753 172.637 96.3951C172.32 96.5149 172.317 97.2637 172.63 98.0676C172.942 98.8715 173.452 99.426 173.769 99.3062Z" fill="#471B1F"/>
<path d="M175.837 98.5249C176.154 98.4051 176.157 97.6564 175.844 96.8525C175.532 96.0486 175.022 95.4941 174.705 95.6139C174.389 95.7337 174.386 96.4825 174.698 97.2863C175.011 98.0902 175.521 98.6447 175.837 98.5249Z" fill="#471B1F"/>
<path d="M177.787 97.7849C178.104 97.6651 178.107 96.9164 177.794 96.1125C177.482 95.3086 176.972 94.7541 176.655 94.8739C176.339 94.9937 176.336 95.7425 176.648 96.5464C176.961 97.3502 177.471 97.9048 177.787 97.7849Z" fill="#471B1F"/>
<path d="M188.83 93.607C189.147 93.4872 189.15 92.7384 188.837 91.9345C188.525 91.1307 188.015 90.5761 187.698 90.6959C187.382 90.8157 187.379 91.5645 187.691 92.3684C188.004 93.1722 188.514 93.7268 188.83 93.607Z" fill="#471B1F"/>
<path d="M186.816 94.3667C187.133 94.2469 187.136 93.4982 186.823 92.6943C186.511 91.8904 186.001 91.3359 185.684 91.4557C185.368 91.5755 185.365 92.3243 185.677 93.1281C185.99 93.932 186.5 94.4865 186.816 94.3667Z" fill="#471B1F"/>
<path d="M184.879 95.1026C185.195 94.9828 185.198 94.234 184.886 93.4301C184.573 92.6263 184.063 92.0717 183.747 92.1915C183.43 92.3113 183.427 93.0601 183.74 93.864C184.052 94.6678 184.562 95.2224 184.879 95.1026Z" fill="#471B1F"/>
<path d="M173.886 88.7821L172.088 89.4629L173.298 92.5769L175.097 91.8961L173.886 88.7821Z" fill="#5E2429"/>
<path d="M179.947 86.4886L178.148 87.1694L179.359 90.2834L181.158 89.6026L179.947 86.4886Z" fill="#222D24"/>
<path d="M179.947 86.4857L172.086 89.4614L172.653 90.9198L180.514 87.9441L179.947 86.4857Z" fill="#5E2429"/>
<path d="M171.703 98.529L166.61 100.458C166.314 100.569 165.984 100.423 165.87 100.131L164.473 96.5353C164.36 96.2434 164.508 95.9173 164.803 95.8055L169.896 93.877L171.703 98.5259V98.529Z" fill="#5E2429"/>
<path d="M174.255 105.296L170.349 106.774C170.041 106.889 169.698 106.74 169.578 106.436L167.17 100.243L171.7 98.5291L174.293 105.203C174.309 105.24 174.29 105.284 174.252 105.296H174.255Z" fill="#5E2429"/>
<path d="M189.867 91.6544L167.173 100.25L167.331 100.655L190.025 92.0603L189.867 91.6544Z" fill="#471B1F"/>
<path d="M179.947 86.4886L178.148 87.1694L179.359 90.2834L181.158 89.6026L179.947 86.4886Z" fill="#471B1F"/>
<path d="M151.027 62.0111C150.932 62.067 149.381 63.0235 149.321 64.4986C149.198 67.6197 156.072 69.0948 162.846 73.5233C165.779 75.4425 169.843 78.6629 173.824 84.1286C174.048 84.8802 173.994 85.4423 173.897 85.8212C173.73 86.4888 173.399 86.7249 173.236 87.3925C173.078 88.0323 173.185 88.6161 173.305 89.0105C173.73 88.849 174.158 88.6875 174.583 88.5261C174.539 89.6937 175.03 90.1037 175.146 90.1937C175.876 90.7496 177.088 90.2496 178.331 89.7341C179.04 89.4422 179.402 89.2869 179.704 88.9267C180.566 87.905 180.148 86.4423 180.119 86.3491C179.937 85.7466 179.524 85.2963 178.697 84.3895C178.158 83.8026 177.68 83.3554 177.349 83.0603C174.026 76.3617 170.006 72.1009 167.287 69.6507C165.732 68.2501 155.704 59.2099 151.024 62.0049L151.027 62.0111Z" fill="#FF7D7A"/>
<path d="M146.891 55.8343C148.285 56.4119 148.046 57.8187 149.51 59.1882C151.442 60.9987 153.816 60.3776 153.919 61.0267C154.152 62.4614 142.639 66.244 141.569 64.3154C141.27 63.7782 142.088 63.3403 142.648 61.123C143.306 58.5112 142.592 57.4553 143.529 56.4802C144.326 55.651 145.824 55.3933 146.891 55.8343Z" fill="#FF7D7A"/>
<path d="M139.016 90.5137C139.941 89.8274 141.625 88.7591 143.998 88.2001C146.277 87.6629 148.194 87.8244 149.321 88.0076C148.613 87.7436 147.756 87.4889 146.771 87.3306C144.685 86.9921 142.909 87.2157 141.716 87.4765L141.323 85.9766L140.98 88.6846C140.325 89.2964 139.667 89.905 139.013 90.5168L139.016 90.5137Z" fill="#BF7A00"/>
<path d="M147.678 57.561C147.291 58.2474 146.328 59.7194 144.477 60.5734C143.803 60.8839 143.167 61.0423 142.648 61.12C142.717 60.8436 142.783 60.5454 142.834 60.2225C142.872 59.9833 142.9 59.7535 142.922 59.5361C144.508 58.8778 146.091 58.2194 147.678 57.561Z" fill="#FF6759"/>
<path d="M166.387 68.8186C166.544 68.9801 166.698 69.1416 166.856 69.3031C166.664 70.0484 166.204 71.3931 165.027 72.6198C164.47 73.2005 163.897 73.6042 163.422 73.8806C162.726 73.4924 162.034 73.1011 161.338 72.7129C163.022 71.4148 164.703 70.1167 166.387 68.8186Z" fill="#FF6759"/>
<path d="M150.079 59.6479C147.42 62.4057 144.631 63.7193 143.114 62.8622C142.856 62.7162 142.588 62.4802 142.355 62.0889C141.99 62.5858 141.581 63.1044 141.128 63.6323C140.445 64.4242 139.768 65.1168 139.123 65.7161C138.893 67.713 138.824 70.0111 139.11 72.5297C139.18 73.1508 139.268 73.747 139.368 74.3247C140.816 74.9147 143.331 75.7221 146.523 75.629C148.798 75.5638 150.652 75.0607 151.924 74.6042C152.047 74.7222 153.12 75.7408 154.706 75.5296C156.33 75.3153 157.092 74.0017 157.171 73.8619L157.973 71.3092C158.354 71.921 158.735 72.5328 159.116 73.1477C160.032 73.1228 161.867 72.952 163.821 71.8589C166.018 70.6291 167.155 68.9086 167.611 68.1198C165.062 67.0639 163.343 65.8248 162.254 64.8963C160.57 63.4646 160.315 62.7193 158.691 61.8839C157.977 61.5144 157.378 61.328 154.023 60.5454C152.443 60.179 151.099 59.8747 150.086 59.6511L150.079 59.6479Z" fill="#7481F4"/>
<path d="M152.871 76.2748C150.507 72.7811 150.199 68.5048 152.125 65.2782C153.646 62.7285 156.075 61.654 157.061 61.2845C156.796 61.1199 156.381 60.9025 155.833 60.7814C155.38 60.682 154.986 60.6789 154.703 60.7006C153.51 61.446 151.911 62.6851 150.621 64.6353C147.171 69.8371 148.798 75.7127 149.119 76.7872C149.538 76.8959 150.278 77.0295 151.178 76.8835C151.943 76.7593 152.522 76.4798 152.871 76.2748Z" fill="#FFA200"/>
<path d="M143.432 76.8183C142.623 75.986 141.194 74.2842 140.492 71.7253C139.397 67.7409 140.816 64.4366 141.276 63.4739C140.845 63.741 140.287 64.1571 139.765 64.7782C139.491 65.1074 139.28 65.4273 139.12 65.713C138.792 66.9521 138.437 68.8961 138.654 71.2687C138.874 73.6631 139.589 75.5295 140.14 76.691C141.238 76.7314 142.333 76.7748 143.432 76.8152V76.8183Z" fill="#FFA200"/>
<path d="M123.341 119.519C123.004 119.92 124.005 121.96 125.286 121.867C125.762 121.833 126.36 121.498 126.382 121.091C126.426 120.206 123.735 119.057 123.344 119.519H123.341Z" fill="#1A1A1A"/>
<path d="M139.979 52.2475C139.479 52.5705 138.692 52.7879 138.043 52.4649C137.666 52.2755 137.279 51.8749 137.357 51.5954C137.43 51.3501 137.795 51.4432 138.018 51.0892C138.201 50.8035 138.185 50.3408 138.213 50.1234C138.254 49.8283 138.245 49.8221 138.27 49.7414C138.383 49.3811 138.578 49.3843 138.802 49.0085C139.132 48.4557 139.145 48.1669 139.413 48.142C140.143 48.0799 141.197 49.5457 140.926 50.8687C140.832 51.3407 140.52 51.8997 139.976 52.2507L139.979 52.2475Z" fill="black"/>
<path d="M141.103 47.2104C137.13 50.2724 138.418 57.8934 141.273 59.1853C142.456 59.7225 144.385 59.384 145.541 58.9959C145.953 58.8561 146.778 58.5735 147.624 57.9089C147.986 57.6263 149.116 56.6698 149.985 54.1916C150.797 51.8718 151.568 49.6669 150.567 48.0178C149.06 45.5334 143.961 45.0086 141.103 47.2104Z" fill="#FF7D7A"/>
<path d="M146.076 53.3902C145.556 52.9927 143.756 54.0424 143.863 54.5362C143.948 54.9337 145.355 55.3778 145.966 54.6635C146.29 54.2846 146.362 53.6076 146.076 53.3902Z" fill="#F67057"/>
<path d="M138.597 52.9897C139.57 53.2878 140.051 53.9244 139.938 54.2785C139.844 54.5704 139.324 54.7474 138.729 54.7381C138.679 54.4306 138.641 54.0952 138.616 53.7319C138.6 53.471 138.594 53.2226 138.597 52.9866V52.9897Z" fill="#F67057"/>
<path d="M141.323 51.8003C141.474 51.5674 140.819 50.555 139.853 50.496C139.444 50.4712 138.871 50.6109 138.849 50.8345C138.799 51.3003 141.1 52.1419 141.323 51.8003Z" fill="black"/>
<path d="M142.809 52.1263C142.994 52.5393 145.77 51.971 145.774 51.5207C145.774 51.2692 144.905 50.9338 144.109 51.1108C143.353 51.2785 142.708 51.8996 142.809 52.1263Z" fill="black"/>
<path d="M147.124 51.7413C146.831 52.2102 146.834 52.6698 146.837 53.53C146.841 54.2567 146.941 54.8592 147.033 55.2722C147.177 55.0517 147.379 54.7132 147.58 54.2723C147.734 53.9306 147.779 53.7723 147.857 53.7692C147.971 53.7629 148.15 54.1263 148.424 55.8188C148.304 56.03 148.163 56.3343 148.071 56.7194C147.98 57.1045 147.974 57.4399 147.986 57.6821C148.512 57.0765 149.151 56.2505 149.658 55.294C149.891 54.8499 150.026 54.5176 150.111 54.2629C150.271 53.7816 150.341 53.3499 150.426 52.853C150.555 52.1046 149.913 50.9338 148.946 50.7723C148.175 50.645 147.451 51.2195 147.124 51.7381V51.7413Z" fill="#333333"/>
<path d="M153.161 51.7164C153.211 52.145 152.456 52.7506 151.861 52.6605C151.49 52.6046 151.288 52.291 151.172 52.3624C150.995 52.4742 151.515 53.1947 151.294 53.5083C150.983 53.9524 149.293 53.7257 148.134 52.7568C147.096 51.8872 146.375 50.3314 146.885 49.614C147.146 49.2475 147.53 49.378 148.402 49.0954C150.309 48.4743 150.907 47.0333 151.401 47.2942C152.113 47.6668 151.033 50.0395 152.226 51.0425C152.642 51.3904 153.117 51.3935 153.158 51.7195L153.161 51.7164Z" fill="black"/>
<path d="M151.993 50.0643C152.116 49.5394 152.569 47.3749 151.404 45.4463C150.545 44.0209 149.274 43.5054 148.203 43.0675C146.951 42.5582 144.436 41.5334 141.99 42.8222C139.796 43.9774 138.427 46.5892 138.339 49.5022C142.89 49.6885 147.445 49.8748 151.996 50.0612L151.993 50.0643Z" fill="#7481F4"/>
<path d="M150.092 49.9928C149.683 50.6232 148.975 51.4928 147.854 51.9027C145.874 52.6263 144.562 51.1978 141.521 50.822C137.899 50.3748 135.51 51.8748 135.198 51.2568C135.034 50.9276 135.513 50.117 138.525 47.9494C139.381 47.5829 141.679 46.7289 144.606 47.2413C147.552 47.7568 149.415 49.3531 150.089 49.9897L150.092 49.9928Z" fill="#5761B7"/>
<path d="M142.938 53.3469C143.611 52.4773 144.924 52.1016 145.956 52.5146C144.908 52.7258 143.948 52.9991 142.938 53.3469Z" fill="black"/>
<path d="M138.116 51.9339C138.862 51.6451 139.746 51.8625 140.357 52.35C140.558 52.5177 140.738 52.7134 140.854 52.9525C140.609 52.8469 140.391 52.7351 140.171 52.6389C139.538 52.3407 138.792 52.1233 138.119 51.9339H138.116Z" fill="black"/>
<path d="M142.009 52.9927C141.553 53.825 141.096 54.6572 140.64 55.4895C140.823 55.5765 141.241 55.7411 141.591 55.564C142.044 55.3373 142.097 54.6914 142.138 54.2131C142.182 53.6821 142.085 53.2504 142.009 52.9927Z" fill="#FF6759"/>
<path d="M139.337 52.2599C139.224 52.6978 139.475 53.0487 139.702 53.0736C139.9 53.0953 140.168 52.8779 140.247 52.527C139.944 52.437 139.639 52.3469 139.337 52.2568V52.2599Z" fill="black"/>
<path d="M143.58 52.8686C143.614 53.3002 143.872 53.6139 144.102 53.6263C144.367 53.6418 144.735 53.2692 144.707 52.6978C144.332 52.7537 143.957 52.8127 143.583 52.8686H143.58Z" fill="black"/>
<path d="M148.855 52.6108C148.883 52.6046 149.409 52.527 149.736 52.8189C150.271 53.2972 149.976 54.499 149.409 55.1977C149.261 55.381 148.761 56.0021 148.216 55.8841C147.734 55.7785 147.533 55.1667 147.498 55.0456C147.19 54.0394 148.033 53.1357 148.087 53.0798C148.254 52.9059 148.48 52.676 148.855 52.6108Z" fill="#FF7D7A"/>
<path d="M148.087 42.5054C147.643 42.3036 147.052 42.5178 147.039 42.6886C147.026 42.8501 147.524 43.0054 147.939 43.1327C148.295 43.2445 148.518 43.3129 148.587 43.2259C148.682 43.1017 148.452 42.67 148.087 42.5023V42.5054Z" fill="#5761B7"/>
<path d="M149.321 82.014L142.626 81.5326V78.365L149.031 78.1538L149.321 82.014Z" fill="#BF7A00"/>
<path d="M149.031 81.7437L142.399 81.5264V78.1444L149.031 77.896V81.7437Z" fill="#FFB533"/>
<path d="M152.072 74.7377C152.972 74.3899 153.551 73.9427 153.919 73.5886C154.454 73.0731 154.593 72.7067 155.767 71.0359C156.258 70.3402 156.503 69.9893 156.598 69.9179C157.199 69.4676 158.691 69.2875 163.006 72.2595C162.569 72.4551 162.046 72.6508 161.445 72.8091C160.551 73.0452 159.752 73.1259 159.11 73.1445C158.729 72.5327 158.348 71.921 157.967 71.3061L157.164 73.8588C157.083 74.0048 156.311 75.3153 154.7 75.5265C153.243 75.719 152.223 74.8681 152.069 74.7346L152.072 74.7377Z" fill="#5761B7"/>
<path d="M152.072 74.7378C152.742 75.539 153.639 76.8029 154.313 78.5265C154.958 80.1879 155.156 81.6631 155.21 82.6817C155.424 81.1941 155.707 79.6041 156.088 77.9302C156.418 76.4831 156.784 75.1228 157.168 73.8589C157.061 74.0483 156.425 75.1228 155.068 75.4582C153.441 75.8588 152.195 74.8402 152.072 74.7378Z" fill="#BF7A00"/>
<path d="M148.578 53.4804C148.89 53.2817 149.239 53.1885 149.412 53.3189C149.632 53.4835 149.626 54.0549 149.182 54.6233C149.422 54.1761 149.33 53.7133 149.063 53.5394C148.886 53.4245 148.672 53.4587 148.578 53.4804Z" fill="#FF6759"/>
<path d="M180.122 86.3554C180.198 86.5976 180.295 87.02 180.239 87.5386C180.21 87.7777 180.116 88.5479 179.518 89.1224C179.354 89.2808 179.014 89.433 178.331 89.7404C178.149 89.8212 177.283 90.2062 176.298 90.405C176.122 90.4392 175.873 90.4826 175.584 90.4019C175.297 90.3212 175.102 90.1597 174.992 90.0479C175.218 89.9143 175.568 89.7311 176.021 89.5789C176.629 89.3771 176.899 89.4081 177.384 89.2963C177.68 89.228 178.709 88.9951 179.405 88.197C179.952 87.5666 180.091 86.8243 180.122 86.3523V86.3554Z" fill="#FF6759"/>
<path d="M123.307 117.28C123.152 117.361 122.995 117.591 122.687 118.053C122.35 118.553 122.183 118.802 122.174 118.994C122.145 119.603 123.212 119.855 124.811 120.864C126.379 121.855 127.036 122.674 127.584 122.404C127.675 122.358 127.855 122.094 128.204 121.566C128.607 120.963 128.805 120.659 128.808 120.532C128.812 119.985 127.927 119.746 126.498 118.939C124.644 117.889 123.905 116.96 123.303 117.277L123.307 117.28Z" fill="#FFB533"/>
<path d="M112.608 119.097C113.455 120.029 114.588 121.084 116.064 122.047C119.674 124.404 123.31 124.898 125.299 125.01C125.252 125.28 125.139 125.715 124.843 126.174C124.478 126.74 124.018 127.056 123.763 127.205C121.95 126.261 120.005 125.143 117.981 123.82C115.778 122.379 113.836 120.929 112.142 119.541C112.177 119.463 112.253 119.33 112.394 119.218C112.47 119.159 112.545 119.122 112.605 119.097H112.608Z" fill="#1A1A1A"/>
<path d="M114.144 118.873C114.352 118.814 114.793 118.727 115.296 118.88C115.523 118.948 115.699 119.047 115.828 119.134C115.57 119.078 115.296 119.029 115.007 118.982C114.705 118.936 114.418 118.901 114.144 118.873Z" fill="#808080"/>
<path d="M119.426 120.79C119.426 120.929 119.309 121.044 119.168 121.044C119.026 121.044 118.91 120.929 118.91 120.79C118.91 120.65 119.026 120.535 119.168 120.535C119.309 120.535 119.426 120.65 119.426 120.79Z" fill="#1A1A1A"/>
<path d="M120.074 121.178C120.217 121.178 120.332 121.064 120.332 120.923C120.332 120.782 120.217 120.668 120.074 120.668C119.932 120.668 119.816 120.782 119.816 120.923C119.816 121.064 119.932 121.178 120.074 121.178Z" fill="#1A1A1A"/>
<path d="M121.066 121.178C121.208 121.178 121.324 121.064 121.324 120.923C121.324 120.782 121.208 120.668 121.066 120.668C120.923 120.668 120.808 120.782 120.808 120.923C120.808 121.064 120.923 121.178 121.066 121.178Z" fill="#1A1A1A"/>
<path d="M125.714 122.839C125.727 123.109 125.711 123.674 125.371 124.246C125.22 124.501 125.044 124.69 124.896 124.824C125.041 124.522 125.186 124.202 125.324 123.864C125.472 123.51 125.598 123.165 125.711 122.839H125.714Z" fill="#808080"/>
<path d="M143.696 100.42C142.935 100.445 141.817 100.61 140.948 101.383C140.247 102.007 140.092 102.687 139.365 104.687C139.085 105.454 138.663 106.576 138.097 107.936C138.449 107.296 138.937 106.405 139.532 105.343C140.684 103.281 141.068 102.812 141.377 102.448C141.836 101.905 142.576 101.153 143.699 100.424L143.696 100.42Z" fill="#BF7A00"/>
<path d="M140.851 56.8498C141.059 56.9709 141.487 57.1852 142.06 57.1883C143.02 57.1945 143.652 56.6138 143.791 56.4802C143.577 57.2597 142.875 57.7752 142.151 57.7318C141.301 57.6821 140.87 56.8902 140.848 56.8498H140.851Z" fill="#FF6759"/>
<path d="M122.287 62.6974C121.56 62.8869 121.072 63.4862 121.081 64.1105C121.091 64.7129 121.554 65.098 121.632 65.1601C121.566 65.0266 121.308 64.48 121.494 63.7968C121.676 63.126 122.161 62.7813 122.287 62.6943V62.6974Z" fill="#FF6759"/>
<path d="M59.6547 142.168C52.2959 142.177 36.2341 142.382 36.2184 143.087C36.2058 143.689 47.8862 144.689 59.7554 144.602C70.6143 144.525 81.4921 143.537 81.4764 142.963C81.4575 142.273 65.8301 142.162 59.6516 142.168H59.6547Z" fill="black"/>
<path d="M67.4134 137.519C67.9736 139.466 68.537 141.413 69.0973 143.363H67.3536C66.2866 141.416 65.2164 139.469 64.1494 137.519H67.4134Z" fill="#BF7A00"/>
<path d="M36.9864 137.519C36.4261 139.466 35.8627 141.413 35.3025 143.363H37.0462C38.1132 141.416 39.1834 139.469 40.2504 137.519H36.9864Z" fill="#BF7A00"/>
<path d="M70.926 135.826C70.926 136.761 70.158 137.519 69.2106 137.519H35.2206C34.2701 137.519 33.5052 136.761 33.5052 135.826H70.926Z" fill="#7482ED"/>
<path d="M66.6233 119.175H37.7764V123.796H66.6233V119.175Z" fill="#7482ED"/>
<path d="M68.8706 96.5135V108.11C67.5676 108.526 66.6264 109.724 66.6264 111.137V119.171H37.7764V111.137C37.7764 109.721 36.8353 108.523 35.5322 108.11V96.5135C35.5322 94.9515 36.8133 93.6875 38.3933 93.6875H66.0127C67.5927 93.6875 68.8738 94.9515 68.8738 96.5135H68.8706Z" fill="#5A6BCC"/>
<path d="M88.5394 95.9079C90.258 95.8147 91.6806 95.7899 92.7445 95.7868C94.0948 95.7836 94.7684 95.7805 95.2342 95.8364C96.5435 95.9886 96.6191 96.0321 97.2958 95.9886C98.709 95.8954 99.2756 95.3675 99.6848 95.6967C100.053 95.9948 99.946 96.796 99.8106 97.2122C99.5746 97.9451 98.9168 98.6035 98.1079 98.8519C96.7355 99.2743 95.8385 98.2308 94.888 98.8519C94.5354 99.0817 94.5354 99.3053 93.9122 99.7308C93.5156 100.001 93.16 100.243 92.7256 100.29C92.0269 100.361 91.6523 99.8736 90.7207 99.3736C90.2485 99.119 89.5372 98.8115 88.5552 98.6407C88.552 97.7308 88.5489 96.8178 88.5426 95.9079H88.5394Z" fill="#FF7D7A"/>
<path d="M88.3065 95.914L88.8793 95.8674C89.065 96.1407 89.2759 96.5134 89.4365 96.9792C89.7071 97.7773 89.7008 98.4823 89.6568 98.914C89.4302 98.8425 89.1909 98.7773 88.936 98.7152C88.6338 98.6407 88.3411 98.5817 88.0704 98.5351C88.1491 97.6624 88.2278 96.7867 88.3065 95.914Z" fill="#FF6759"/>
<path d="M71.2218 100.336C76.0753 102.072 80.9256 103.808 85.779 105.541C86.5219 104.653 87.891 102.768 88.467 99.9948C88.9958 97.4483 88.6087 95.352 88.3222 94.2527C79.4526 94.5229 73.0128 94.7061 70.9669 94.6285C70.5514 94.6129 69.2956 94.5477 67.939 95.1688C67.0671 95.5694 66.51 96.0881 66.2645 96.321C64.8985 97.6191 60.8351 101.703 55.4151 107.296L55.3584 108.075C60.6462 105.495 65.934 102.914 71.225 100.333L71.2218 100.336Z" fill="#7D3036"/>
<path d="M57.5427 106.529C60.4479 104.218 62.7235 102.15 64.3571 100.588C64.7631 100.2 65.8333 98.7464 67.791 97.529C68.2978 97.2123 68.7006 96.9638 69.1602 96.7868C71.6058 95.8427 73.6894 97.7092 79.3581 99.5849C81.9359 100.439 83.1005 100.582 84.0353 100.613C85.9112 100.675 87.4598 100.312 88.467 99.9979C88.2435 101.044 87.8186 102.42 86.9656 103.864C86.5785 104.516 86.1724 105.075 85.779 105.544C84.1297 105.085 81.6495 104.38 78.5964 103.476C76.2735 102.787 75.7542 102.613 74.8036 102.451C71.6089 101.911 69.0091 102.327 66.7523 102.954C64.3948 103.607 61.1875 104.687 57.5427 106.532V106.529Z" fill="#5E2429"/>
<path d="M84.4099 117.199C86.6132 118.544 87.1136 119.591 87.1451 120.314C87.1545 120.55 87.1294 121.059 87.3717 121.687C87.4724 121.951 87.7589 122.687 88.4135 122.941C88.7188 123.059 88.914 123 89.32 122.988C89.32 122.988 90.4909 122.948 91.5579 123.42C92.6816 123.917 92.5147 124.662 93.3803 125C94.633 125.491 96.5373 124.538 96.5624 123.749C96.5813 123.15 95.4923 123.047 93.7454 121.895C92.5651 121.115 92.3479 120.693 89.0179 117.227C88.0705 116.24 87.293 115.448 86.802 114.951L84.4131 117.199H84.4099Z" fill="#FF7D7A"/>
<path d="M87.4724 115.637L87.7462 115.92C87.6895 116.212 87.5794 116.594 87.3559 117.001C86.9436 117.755 86.3676 118.193 86.0371 118.407C85.9332 118.317 85.8262 118.224 85.7129 118.131C85.4454 117.91 85.181 117.715 84.926 117.538C85.7727 116.904 86.6225 116.271 87.4692 115.637H87.4724Z" fill="#FF6759"/>
<path d="M55.3584 108.078C62.5599 102.957 67.9201 99.2648 69.2609 98.4667C69.5096 98.3177 70.0384 98.0226 70.7749 97.8456C71.9143 97.5723 72.8743 97.7835 73.2835 97.8767C75.7039 98.417 77.7088 100.383 77.8159 100.485C80.0978 102.718 84.5452 106.6 90.4877 111.817C89.981 112.948 88.659 115.479 85.7822 117.463C83.1446 119.283 80.5416 119.718 79.2983 119.845C78.2124 117.724 76.7268 114.929 74.8478 111.693C72.5721 107.774 71.8199 106.824 70.9921 106.886C69.4781 107.001 69.6575 110.501 66.7964 114.895C65.5248 116.851 63.2901 120.317 59.2047 121.401C58.3706 121.622 55.2955 122.451 52.3085 120.774C50.4294 119.718 49.4568 118.159 49.0382 117.367C51.1439 114.274 53.2496 111.178 55.3553 108.085L55.3584 108.078Z" fill="#933A45"/>
<path d="M49.674 116.199C50.5585 116.864 53.7941 119.137 57.6183 118.401C60.7879 117.789 62.7393 115.376 64.3572 113.383C68.2821 108.544 67.7565 104.926 70.435 104.203C72.783 103.569 75.4206 105.737 76.4562 106.591C79.5093 109.103 79.6509 111.063 82.5592 113.196C84.561 114.662 86.6572 115.224 88.0705 115.47C87.1451 116.457 85.4486 117.997 82.8834 118.988C81.5237 119.513 80.2804 119.743 79.2984 119.845C77.2682 115.811 75.3955 112.578 73.9696 110.249C72.868 108.448 71.9647 106.752 70.9921 106.883C70.2084 106.988 69.9723 108.181 68.9147 110.603C68.2317 112.175 67.2277 114.445 65.5564 116.69C63.9102 118.904 62.2641 120.224 60.4039 120.991C60.3315 121.022 60.2748 121.044 60.256 121.05C59.2488 121.445 56.6678 122.41 53.6903 121.376C50.9268 120.417 49.5198 118.327 49.1012 117.646L49.6772 116.199H49.674Z" fill="#7D3036"/>
<path d="M75.4395 107.954H69.8715C69.5222 107.954 69.1854 108.007 68.8706 108.109C67.5676 108.526 66.6265 109.724 66.6265 111.137V123.792H37.7764V111.137C37.7764 109.721 36.8353 108.522 35.5322 108.109C35.2175 108.007 34.8807 107.954 34.5313 107.954H28.9634C26.4391 107.954 24.3964 109.96 24.3964 112.432C24.3964 113.668 24.9094 114.792 25.7341 115.603C26.5618 116.414 27.7012 116.917 28.9634 116.917H29.2939V123.795V132.516C29.2939 134.345 30.7952 135.826 32.6491 135.826H71.7915C73.6423 135.826 75.1436 134.345 75.1436 132.519V123.795H75.1121V116.917H75.4426C76.7048 116.917 77.8442 116.414 78.672 115.603C79.4998 114.792 80.0097 113.668 80.0097 112.432C80.0097 109.96 77.9638 107.954 75.4426 107.954H75.4395Z" fill="#B9D0FC"/>
<path d="M35.6738 132.947H31.0974V114.768H30.0902C29.4607 114.768 28.8689 114.525 28.4188 114.088C27.9373 113.612 27.6855 112.951 27.7327 112.277C27.8145 111.06 28.8847 110.109 30.1688 110.109H34.7013C35.2363 110.109 35.6707 110.538 35.6707 111.066V132.951L35.6738 132.947ZM31.3838 132.665H35.3874V111.063C35.3874 110.69 35.0821 110.389 34.7044 110.389H30.172C29.0357 110.389 28.0915 111.227 28.0191 112.296C27.9782 112.892 28.1985 113.47 28.6203 113.889C29.0137 114.274 29.5362 114.488 30.0902 114.488H31.3838V132.668V132.665Z" fill="#97B8FF"/>
<path d="M73.3055 132.947H68.729V111.063C68.729 110.535 69.1634 110.106 69.6984 110.106H74.2308C75.515 110.106 76.5852 111.06 76.667 112.274C76.7142 112.951 76.4624 113.609 75.9809 114.084C75.5308 114.525 74.939 114.768 74.3095 114.768H73.3023V132.947H73.3055ZM69.0154 132.665H73.0191V114.485H74.3127C74.8666 114.485 75.386 114.271 75.7826 113.886C76.2075 113.466 76.4247 112.889 76.3837 112.292C76.3113 111.224 75.3639 110.386 74.2308 110.386H69.6984C69.3207 110.386 69.0154 110.687 69.0154 111.06V132.662V132.665Z" fill="#97B8FF"/>
<path d="M26.1873 100.603C25.9197 99.6624 25.114 96.5662 25.7687 93.7029C25.9607 92.8613 26.1495 92.0291 26.7884 91.1595C27.5029 90.1844 27.9971 90.2341 28.4409 89.3614C28.913 88.4329 28.5038 87.9173 28.9036 86.523C29.105 85.8273 29.3883 85.2901 29.596 84.9485C27.8586 85.2373 27.2858 84.7932 27.0749 84.5292C26.1086 83.3305 27.4778 79.5324 30.0524 79.1194C31.9976 78.8088 33.5745 80.5976 33.7067 80.7498C33.8105 80.6784 33.927 80.6038 34.056 80.5231C34.2292 80.4144 34.972 79.9951 35.293 79.843C38.9158 78.1132 41.2922 78.8461 41.2922 78.8461C41.8146 79.0076 42.5512 79.2467 43.0862 79.9237C43.8133 80.8492 43.7724 82.0976 43.7661 82.2715C43.7346 82.9951 43.4891 83.5261 43.7032 84.4671C43.7032 84.4671 43.7504 84.7031 43.8448 84.9485C44.3862 86.3304 46.1173 87.8552 46.1173 87.8552C47.0899 88.7092 48.5535 89.9949 49.2711 91.7806C49.5701 92.529 50.1335 93.9234 49.4914 95.1967C48.6825 96.796 46.4635 97.2184 45.9599 97.2805C45.0881 97.3892 44.9244 97.1873 42.5449 97.0134C40.5431 96.8675 40.3794 96.9886 40.0898 96.8271C39.1424 96.2929 38.8717 93.8178 41.5377 85.6379C39.9922 86.1503 38.45 86.6627 36.9045 87.1751C36.6087 87.5291 36.2278 88.085 36.0232 88.8273C35.4756 90.8024 36.5678 92.6408 37.0965 93.5911C38.1572 95.501 39.4288 98.3022 40.6627 102.56C39.4509 103.072 36.2404 104.24 32.2399 103.433C29.2718 102.833 27.2165 101.42 26.1904 100.6L26.1873 100.603Z" fill="black"/>
<path d="M62.5694 98.6903C63.1233 96.9357 63.948 96.1375 64.631 95.7338C65.3171 95.3301 66.1355 95.1624 66.6422 94.3084C66.9035 93.8674 66.8122 93.6966 67.1458 93.1687C67.725 92.2463 68.3954 92.1718 68.3482 91.7929C68.2695 91.1749 66.9192 90.5414 65.997 90.9047C65.2133 91.2122 65.229 92.4078 64.3131 92.8177C63.9763 92.9668 63.7969 92.8985 63.7402 92.8705C63.4601 92.737 63.4129 92.3302 63.4066 92.2743C63.3562 91.8426 63.6206 91.7122 63.7088 91.0973C63.7465 90.8426 63.7623 90.411 63.6458 90.3768C63.5168 90.3364 63.2712 90.7867 63.0415 91.2091C62.7645 91.7153 62.5819 92.0507 62.4686 92.5258C62.3176 93.1531 62.4623 93.2929 62.3742 93.796C62.3018 94.2059 62.1098 94.5599 61.3576 95.4823C60.9138 96.0257 60.2748 96.7462 59.4187 97.5288C60.4668 97.917 61.5149 98.3021 62.5662 98.6903H62.5694Z" fill="#FF7D7A"/>
<path d="M62.0909 94.5042C62.4308 94.8116 62.796 95.1749 63.1579 95.6035C63.3971 95.883 63.608 96.1563 63.7937 96.4203L63.6804 96.5445C62.8684 96.2401 62.0531 95.9389 61.2411 95.6346L62.0909 94.5042Z" fill="#FF6759"/>
<path d="M39.7468 95.4296C39.9073 95.678 40.1937 96.0352 40.6532 96.2494C41.3772 96.5848 42.1168 96.3923 42.8565 96.1718C43.999 95.8333 44.1659 95.619 45.1259 95.4141C45.1259 95.4141 46.0103 95.2246 47.0332 95.2898C48.2765 95.3675 51.0243 97.0972 52.5319 98.0196C54.5023 99.2245 54.7887 99.445 55.3521 99.3953C56.5198 99.2929 57.4704 98.2587 58.6129 97.0165C59.8719 95.647 59.8404 95.2153 60.4353 95.0507C62.2577 94.5445 65.4997 97.7587 64.9268 99.5661C64.6845 100.336 63.9354 100.249 62.2577 101.405C59.6768 103.184 59.9821 104.398 58.2352 105.206C55.6228 106.411 52.6106 104.774 52.469 105.231C52.3934 105.473 53.1866 106.1 54.0585 106.296C54.8265 106.467 55.3678 106.184 55.7739 106.547C56.0981 106.836 56.0949 107.327 56.0918 107.557C56.0603 109.215 54.2505 110.128 53.3094 111.966C52.0441 114.432 53.8791 115.712 52.3022 118.463C51.9559 119.069 51.2383 120.379 49.9289 120.637C49.1358 120.795 48.2891 120.538 47.9806 120.429C47.7194 120.336 47.2221 120.134 46.7185 119.721C45.8655 119.025 45.5382 118.181 45.3556 117.792C44.8426 116.712 44.1847 116.507 41.9217 114.783C40.499 113.696 39.6775 112.951 39.1173 112.392C38.8088 112.081 38.3965 111.591 37.6977 110.945C37.3861 110.659 36.9486 110.252 36.3538 109.805C34.8461 108.675 34.1379 108.634 33.2912 107.594C33.0017 107.237 32.8254 106.926 32.7593 106.799C32.1078 105.547 31.8686 103.721 32.5547 102.228C33.4643 100.249 35.6235 99.8581 36.0044 97.8519C36.1775 96.9482 35.9037 96.147 35.6959 95.678C37.0462 95.5942 38.3996 95.5134 39.7499 95.4296H39.7468Z" fill="#FCFFFD"/>
<path d="M38.6325 105.861C39.1046 107.047 39.8884 107.796 41.1128 108.302C39.7247 108.7 38.2108 107.221 38.6325 105.861Z" fill="#F3F3F5"/>
<path d="M46.9263 99.2307C47.625 99.3549 48.3206 99.6748 48.8463 100.218C49.1138 100.482 49.3152 100.811 49.4663 101.162C49.6079 101.519 49.6677 101.886 49.7307 102.221C49.7842 102.557 49.8597 102.864 49.9919 103.153C50.1147 103.448 50.3004 103.712 50.5144 103.96C50.9519 104.454 51.5342 104.836 52.1543 105.184C51.4555 105.057 50.7599 104.768 50.1965 104.271C49.9133 104.026 49.6803 103.718 49.5041 103.383C49.3278 103.041 49.2334 102.669 49.1704 102.321C49.1138 101.97 49.0634 101.647 48.9627 101.349C48.8651 101.047 48.7078 100.768 48.5126 100.507C48.1192 99.9854 47.5526 99.5785 46.9326 99.2338L46.9263 99.2307Z" fill="#F3F3F5"/>
<path d="M34.6195 94.0663C34.9059 94.3676 36.3727 95.9669 36.0013 97.852C35.9509 98.1128 35.8565 98.4141 35.6897 98.737C36.2688 98.8364 38.1384 99.0786 39.9419 97.9855C40.7634 97.4855 41.3017 96.8737 41.6259 96.4265C41.5251 96.439 40.9303 96.5073 40.4361 96.0911C40.1214 95.8272 40.008 95.498 39.9703 95.3582C38.1888 94.9266 36.4041 94.4949 34.6227 94.0632L34.6195 94.0663Z" fill="#FF8776"/>
<path d="M34.6195 94.0662C35.164 94.6438 36.7 96.1158 39.0134 96.3208C39.6303 96.3767 40.1843 96.3301 40.6533 96.2462C40.5557 96.1966 40.4046 96.1065 40.263 95.945C40.1087 95.768 40.0395 95.5879 40.0049 95.4823C38.2076 95.0102 36.4136 94.5382 34.6163 94.0662H34.6195Z" fill="#FF6759"/>
<path d="M38.2674 83.933C41.9279 84.6535 43.914 92.4825 41.2764 94.7309C39.9387 95.8738 36.9517 95.5694 35.0475 94.3676C34.4904 94.0166 34.119 93.6409 33.949 93.4639C33.8483 93.3583 31.8087 91.144 32.3752 88.436C32.9859 85.523 36.0924 83.5075 38.2674 83.9361V83.933Z" fill="#FF8776"/>
<path d="M37.3232 106.526C38.066 107.929 38.151 108.581 38.8497 109.873C39.8758 111.777 41.0593 113.122 41.8745 113.945C41.4684 113.83 40.8767 113.612 40.263 113.193C39.6051 112.74 39.2306 112.262 39.0354 112.022C38.3965 111.252 37.6316 110.712 36.1019 109.631C33.8767 108.06 32.0133 107.262 31.5223 107.06C31.2202 106.936 31.003 106.852 30.9023 106.811C27.462 105.46 19.5901 96.1966 21.9571 92.9979C23.1405 91.4017 26.6059 91.6874 27.5879 91.7681C29.0389 91.8893 30.1878 92.2961 30.9212 92.6222C31.5318 93.6501 32.1424 94.6749 32.7499 95.7028C32.2494 96.0351 31.4814 96.4326 30.512 96.4699C29.7408 96.501 29.2152 96.2898 29.0767 96.5103C28.8564 96.8612 29.9139 97.8705 30.2476 98.1811C31.2422 99.0941 32.4036 100.162 33.9018 100.038C34.2512 100.01 34.5282 99.9233 34.6919 99.8611C34.4621 100.299 34.1914 100.97 34.2386 101.771C34.3425 103.501 35.976 103.995 37.32 106.529L37.3232 106.526Z" fill="white"/>
<path d="M40.9838 88.9981C40.946 88.849 41.0499 88.7092 41.2356 88.467C41.459 88.1782 41.6888 87.9794 41.8556 87.8552C41.9312 88.0664 42.0004 88.2931 42.0697 88.5291C42.1484 88.8024 42.2144 89.0664 42.268 89.3148C42.1546 89.349 41.9721 89.3925 41.7455 89.3738C41.7046 89.3707 41.0656 89.3117 40.9838 88.9981Z" fill="#F67057"/>
<path d="M36.8447 90.1532C36.5331 89.6874 34.6666 90.1036 34.6194 90.5601C34.5848 90.9079 35.5637 91.6191 36.3033 91.2184C36.7314 90.9855 37.0178 90.411 36.8447 90.1532Z" fill="#F67057"/>
<path d="M35.0728 90.1626C35.6897 90.0415 36.0485 89.8924 36.5961 89.585C37.1942 89.2931 37.9433 89.4918 38.3682 89.9607C37.8174 89.9359 37.3169 89.8645 36.8385 90.0974C36.3695 90.38 35.5795 90.5104 35.0759 90.1626H35.0728Z" fill="black"/>
<path d="M41.8745 87.5571C41.8934 88.0695 41.4118 88.5602 40.9932 88.7341C40.6092 88.9391 40.4046 89.2838 40.1119 89.6378C39.9766 89.1161 40.2126 88.5105 40.7099 88.2434C41.1978 88.023 41.4527 87.8801 41.8745 87.5571Z" fill="black"/>
<path d="M42.8501 85.6813C42.3528 86.7589 41.2984 87.2247 40.9963 87.3551C38.4908 88.4203 36.1302 86.3738 35.0947 87.439C34.6855 87.8613 35.0286 88.2092 34.333 89.8209C33.9175 90.7899 33.757 90.7495 33.6122 91.3271C33.3636 92.324 33.6437 93.2215 33.9521 94.1718C34.4526 95.7152 34.9719 96.0941 34.7359 96.5133C34.4117 97.0816 33.0425 97.0816 32.0668 96.7028C29.8887 95.855 29.3442 93.0103 29.2687 92.6252C28.4251 88.2185 32.3028 83.1968 36.7471 81.6286C37.7795 81.2652 40.351 80.3553 41.9594 81.7124C42.9918 82.5819 43.4702 84.3428 42.8501 85.6844V85.6813Z" fill="black"/>
<path d="M39.4509 89.2868C39.9105 89.8831 40.3731 90.4824 40.8327 91.0787C40.7162 91.1532 40.5274 91.2464 40.3259 91.1998C40.0395 91.1315 39.9042 90.8116 39.7342 90.383C39.6335 90.1315 39.5107 89.7588 39.4509 89.2837V89.2868Z" fill="#FF6759"/>
<path d="M41.3834 92.1501C41.2072 92.3272 40.9396 92.557 40.5651 92.7371C39.8348 93.088 39.1487 93.0445 38.8434 93.0042C39.5075 93.4545 40.3227 93.47 40.8483 93.0694C41.2481 92.765 41.3551 92.3147 41.3866 92.1501H41.3834Z" fill="#FF6759"/>
<path d="M37.7041 87.6907C37.723 87.7528 37.4586 87.8367 36.3979 88.3522C35.356 88.8584 35.1042 89.0199 35.0633 88.9671C35.0004 88.8832 35.4662 88.3335 36.124 87.995C36.8605 87.6162 37.6757 87.5851 37.7072 87.6907H37.7041Z" fill="black"/>
<path d="M21.5793 94.6718C22.2088 96.4482 23.2223 98.4233 24.9251 100.19C26.6468 101.973 27.9908 102.423 30.5025 104.411C31.9063 105.523 33.5682 107.032 35.2647 109.06C34.7957 108.755 34.0561 108.299 33.115 107.802C31.8371 107.128 31.0439 106.833 30.4616 106.569C27.4746 105.221 25.5609 102.7 24.5443 101.358C24.0564 100.715 23.408 99.8487 22.7911 98.5568C22.0641 97.032 21.7399 95.65 21.5793 94.6687V94.6718Z" fill="#F3F3F5"/>
<path d="M48.2419 119.153C48.8619 119.227 49.1515 118.758 50.1493 118.432C51.04 118.14 51.8584 118.174 52.4186 118.249C52.2927 118.516 52.0944 118.879 51.7923 119.268C51.509 119.631 51.1344 120.115 50.5742 120.407C49.6551 120.882 48.6668 120.625 48.2954 120.528C47.0805 120.212 46.0984 119.317 45.62 118.386C45.4154 117.988 45.4186 117.808 45.1322 117.401C44.8143 116.951 44.4523 116.668 43.7473 116.128C43.486 115.926 43.165 115.69 42.7904 115.435C44.7513 115.848 45.8246 116.656 46.4541 117.376C47.1623 118.19 47.4487 119.056 48.245 119.153H48.2419Z" fill="#F3F3F5"/>
<path d="M53.0639 107.091C52.9978 107.004 51.2163 107.715 50.3098 109.224C48.8053 111.721 50.5396 114.991 50.7757 114.954C51.0337 114.911 49.6363 110.926 51.7514 108.349C52.3557 107.613 53.1111 107.153 53.0639 107.094V107.091Z" fill="#F3F3F5"/>
<path d="M71.4138 85.6099L70.885 85.6223H70.8787L66.3148 85.7093C65.9529 85.7155 65.5689 86.0105 65.4619 86.3676L63.0131 94.3271C62.9029 94.6842 63.1012 94.9855 63.4569 95.001L67.9421 95.1687H67.9736L68.4709 95.1873C68.8517 95.2029 69.2546 94.914 69.3679 94.5414L71.9111 86.2652C72.0244 85.8956 71.8009 85.6006 71.4138 85.6068V85.6099ZM68.88 92.147L68.5527 93.2122C67.6557 91.0321 66.7681 88.8707 65.8868 86.7248C66.0158 86.5633 66.2236 86.4484 66.4187 86.4484H66.4533C67.2528 88.3334 68.0617 90.234 68.88 92.147ZM64.9771 89.5322L65.5972 87.5198C66.4817 89.6688 67.3724 91.8427 68.2757 94.029C68.153 94.2246 67.9138 94.3613 67.684 94.3519L66.6453 94.3116C66.0882 92.7091 65.5311 91.116 64.9803 89.5322H64.9771Z" fill="#000B06"/>
<path d="M70.885 85.6192H70.8787L66.3148 85.7061C65.9529 85.7123 65.5689 86.0074 65.4619 86.3645L63.0131 94.324C62.9029 94.6811 63.1012 94.9823 63.4569 94.9979L67.9421 95.1656H67.9736C68.3418 95.1656 68.7258 94.8798 68.836 94.5196L71.3697 86.2713C71.4862 85.9018 71.2659 85.6099 70.885 85.6161V85.6192Z" fill="#4D4D4D"/>
<path d="M65.0779 89.5447C65.6287 91.1285 66.1858 92.7216 66.7429 94.3241L64.1368 94.2185C63.8661 94.2061 63.7118 93.9856 63.7937 93.7216L65.0779 89.5447Z" fill="#999999"/>
<path d="M65.9876 86.7341C66.8689 88.8769 67.7565 91.0415 68.6535 93.2216L68.4458 93.8986C68.4332 93.9514 68.408 93.998 68.3765 94.0414C67.4732 91.8551 66.5824 89.6813 65.698 87.5322L65.8806 86.936C65.9026 86.8646 65.9404 86.7993 65.9907 86.7372L65.9876 86.7341Z" fill="#999999"/>
<path d="M70.5892 86.9205L68.9808 92.1564C68.1656 90.2434 67.3567 88.3397 66.5541 86.4578L70.2178 86.436C70.5042 86.436 70.671 86.6534 70.5892 86.9205Z" fill="#999999"/>
<path d="M68.3733 94.0414C68.2506 94.2371 68.0114 94.3737 67.7816 94.3644L66.7429 94.324C66.1858 92.7216 65.6287 91.1284 65.0779 89.5446L65.6979 87.5322C66.5824 89.6812 67.4731 91.8551 68.3765 94.0414H68.3733Z" fill="#E6E6E6"/>
<path d="M68.9808 92.1564L68.6535 93.2216C67.7564 91.0415 66.8689 88.8801 65.9875 86.7342C66.1166 86.5727 66.3243 86.4578 66.5195 86.4578H66.5541C67.3536 88.3428 68.1625 90.2434 68.9808 92.1564Z" fill="#E6E6E6"/>
<path d="M37.8992 89.6596C37.9684 90.1378 37.7135 90.5074 37.4868 90.5385C37.2476 90.5726 36.8762 90.2559 36.8479 89.731C37.1973 89.7062 37.5498 89.6813 37.8992 89.6565V89.6596Z" fill="black"/>
<path d="M41.5912 88.2092C41.8399 88.6285 41.7297 89.0446 41.5409 89.1347C41.3709 89.2154 41.0436 89.0726 40.8358 88.7403C41.0876 88.5633 41.3394 88.3862 41.5912 88.2092Z" fill="black"/>
<path d="M32.8443 80.5324C32.6397 80.3213 32.133 79.8648 31.3335 79.6846C30.1469 79.4207 29.2121 79.9703 29.0138 80.0915C29.4135 79.9641 30.1721 79.784 31.11 79.9175C31.9064 80.0325 32.4981 80.3244 32.8412 80.5293L32.8443 80.5324Z" fill="#4D4D4D"/>
<path d="M38.8246 79.5976C39.9231 79.1504 41.1852 79.3926 42.0036 80.2032C42.7495 80.9454 43.0202 82.0479 42.7023 83.0665C42.7023 82.8584 42.696 81.4764 41.5377 80.4516C40.4015 79.4485 39.0386 79.5728 38.8246 79.5945V79.5976Z" fill="#4D4D4D"/>
<path d="M45.9851 89.5012C46.325 89.6751 47.798 90.4732 48.3803 92.2186C48.736 93.2806 48.5975 94.2092 48.4968 94.6626C48.459 94.0757 48.3394 93.2837 47.9963 92.408C47.4298 90.9546 46.5359 90.0012 45.9819 89.5012H45.9851Z" fill="#4D4D4D"/>
<path d="M54.1812 99.0166C54.0428 98.9203 54.7383 99.6159 54.6723 100.212C54.6156 100.734 54.0396 100.97 54.112 101.091C54.197 101.237 55.1255 101.063 55.7424 100.433C56.2208 99.942 56.3467 99.3488 56.3845 99.0538C56.2334 99.1594 55.9911 99.2992 55.67 99.3613C54.9178 99.5041 54.3197 99.1159 54.1812 99.0197V99.0166Z" fill="#F3F3F5"/>
<path d="M36.9737 145.711C39.9701 145.711 43.105 146.413 43.0767 146.714C43.0201 147.273 31.9755 146.932 31.9566 146.379C31.9471 146.099 34.7201 145.708 36.9768 145.711H36.9737Z" fill="black"/>
<path d="M35.3119 138.208C35.3119 139.022 33.03 139.596 32.4917 139.73C30.364 140.264 27.4935 140.121 27.1725 139.099C26.949 138.388 28.0034 137.373 28.8753 136.895C31.4499 135.478 35.3088 137.149 35.3119 138.205V138.208Z" fill="black"/>
<path d="M34.6603 146.028C33.2817 146.366 31.4278 146.677 29.2309 146.658C27.2196 146.64 25.5105 146.348 24.2043 146.028C23.9871 143.615 23.7731 141.199 23.5559 138.786H35.3087L34.6603 146.028Z" fill="#E6E6E6"/>
<path d="M30.3388 138.786C30.3609 141.404 30.3829 144.019 30.4049 146.637C30.8834 146.615 31.3901 146.578 31.9157 146.519C32.9229 146.404 33.842 146.23 34.6604 146.028C34.8775 143.615 35.0916 141.199 35.3088 138.786H30.3357H30.3388Z" fill="#CCCCCC"/>
<path d="M44.9086 130.795C45.2107 131.401 45.2485 132.205 44.8866 132.857C44.2602 133.985 42.7337 134.131 41.7926 133.935C41.4904 133.873 40.4108 133.646 39.9953 132.755C39.5043 131.699 40.181 130.227 41.3236 129.659C42.6109 129.019 44.3137 129.609 44.9086 130.798V130.795Z" fill="black"/>
<path d="M38.8214 129.916C38.8497 129.78 39.0638 128.736 38.45 127.975C37.9086 127.308 37.021 127.218 36.7472 127.19C33.927 126.904 29.9926 131.801 30.8425 133.068C31.7238 134.379 38.2737 132.581 38.8214 129.919V129.916Z" fill="black"/>
<path d="M35.3937 117.019C35.6361 116.724 35.9603 116.392 36.3191 116.429C36.9581 116.494 37.3704 117.69 37.4963 118.429C37.8205 120.339 36.7755 122.277 35.4126 123.454C34.7517 124.025 33.8578 124.795 33.3101 124.522C32.1109 123.926 33.8011 118.963 35.3906 117.019H35.3937Z" fill="black"/>
<path d="M20.4777 131.742C20.7798 132.348 20.8176 133.152 20.4556 133.805C19.8482 134.901 18.3468 135.345 17.3616 134.882C15.8666 134.177 15.6872 131.457 16.8927 130.606C17.881 129.907 19.8261 130.441 20.4777 131.746V131.742Z" fill="black"/>
<path d="M38.343 129.656C38.4437 129.767 40.6973 128.432 42.7054 125.823C44.9936 122.851 44.9559 120.833 44.9307 120.324C44.9087 119.926 44.8205 118.258 43.9833 118.007C43.5804 117.886 42.9824 118.084 42.6991 118.466C42.3844 118.892 42.6015 119.364 42.2805 119.569C42.0255 119.733 41.8147 119.46 41.4307 119.581C40.9585 119.727 40.6816 120.317 40.6343 120.774C40.5934 121.168 40.7225 121.482 40.8987 121.845C41.459 123.01 41.9437 123.485 42.0696 123.83C42.8848 126.031 38.195 129.485 38.3461 129.656H38.343Z" fill="#386414"/>
<path d="M26.9899 124.451C27.1378 124.441 25.8977 117.286 28.8249 115.706C29.4386 115.373 30.235 115.286 31.1383 114.429C31.3208 114.258 32.7907 112.836 32.3092 111.805C32.092 111.342 31.516 111.032 30.9809 111.019C29.5677 110.982 28.4975 113.016 28.0034 113.957C25.4035 118.898 26.8608 124.46 26.993 124.454L26.9899 124.451Z" fill="#386414"/>
<path d="M32.1171 137.401C32.8379 137.6 32.8883 137.969 33.7129 138.469C35.2552 139.404 37.8362 139.795 39.775 138.522C40.0268 138.357 41.5188 137.345 41.8492 135.584C42.2616 133.395 40.5084 132.025 41.1568 131.177C41.6919 130.479 42.9509 131.314 45.5192 130.966C46.1267 130.885 49.4631 130.435 50.0391 128.553C50.0768 128.429 50.3129 127.609 49.8785 126.979C48.8524 125.491 44.8079 126.097 41.9437 127.33C40.5053 127.948 39.8632 128.51 38.3303 129.401C37.4018 129.941 36.7125 130.522 35.5165 130.864C34.418 131.177 33.2471 131.233 33.1967 131.047C33.1527 130.882 34.0088 130.652 35.101 130.013C36.061 129.451 37.4648 128.628 38.1509 127.168C38.7332 125.929 38.9252 123.957 37.9621 123.15C37.0021 122.345 35.6549 123.33 34.9436 122.665C33.6437 121.448 36.8447 116.777 36.3128 116.432C35.7746 116.084 31.4593 120.202 31.1949 123.168C31.1823 123.317 31.1037 124.302 30.7795 124.358C30.4773 124.407 30.342 123.575 29.6621 123.255C28.8532 122.876 28.2552 123.684 27.4274 123.516C26.2124 123.271 26.4831 121.323 24.9818 119.948C23.4835 118.575 20.7798 118.289 19.7695 119.317C19.2187 119.879 19.1715 120.833 19.1305 121.678C19.0581 123.171 19.5397 123.705 19.184 124.09C18.6584 124.659 17.412 123.696 15.407 123.777C15.0797 123.789 12.5774 123.892 11.8976 125.193C11.032 126.851 13.1692 131.016 16.4174 132.069C18.0006 132.581 19.7223 132.305 19.7758 132.683C19.8198 133.006 18.542 133.106 17.7456 134.065C16.8706 135.118 16.7573 137.025 17.4812 138.211C18.8284 140.426 24.453 140.916 28.0663 138.842C29.2435 138.165 30.6032 136.991 32.1077 137.404L32.1171 137.401Z" fill="#386414"/>
</g>
<defs>
<clipPath id="clip0_388_7071">
<rect width="229" height="147" fill="white"/>
</clipPath>
</defs>
</svg>
