<svg width="39" height="44" viewBox="0 0 39 44" fill="none" xmlns="http://www.w3.org/2000/svg">
<g clip-path="url(#clip0_531_450)">
<path d="M36.66 33.47C37.01 33.51 37.36 33.45 37.56 33.6C37.81 33.79 38.08 34.14 38.08 34.42C38.08 34.64 37.7 34.9 37.43 35.05C37.24 35.15 36.96 35.08 36.73 35.08C31.46 35.08 26.2 35.08 20.8 35.08C20.96 35.33 21.07 35.53 21.2 35.7C22.58 37.47 23.97 39.24 25.36 41.01C25.43 41.09 25.48 41.18 25.55 41.26C25.92 41.7 26.07 42.17 25.53 42.55C25.04 42.89 24.65 42.65 24.32 42.22C23.19 40.75 22.04 39.3 20.9 37.84C20.71 37.59 20.51 37.35 20.17 36.93C20.17 38.17 20.16 39.2 20.17 40.24C20.17 40.83 20.06 41.37 19.37 41.37C18.68 41.37 18.57 40.83 18.58 40.24C18.6 39.24 18.58 38.24 18.58 37.24L18.36 37.06C18.27 37.23 18.2 37.42 18.08 37.58C16.88 39.13 15.67 40.66 14.47 42.21C14.18 42.59 13.86 42.89 13.34 42.68C12.79 42.46 12.73 41.91 13.2 41.31C14.66 39.43 16.13 37.56 17.59 35.68C17.71 35.52 17.82 35.35 18 35.08H17.03C12.03 35.08 7.03001 35.08 2.02001 35.08C1.78001 35.08 1.49001 35.16 1.32001 35.05C1.04001 34.89 0.660012 34.6 0.650012 34.36C0.640012 34.1 0.970012 33.77 1.24001 33.58C1.43001 33.45 1.75001 33.51 2.12001 33.47C2.12001 33.19 2.12001 32.91 2.12001 32.63C2.12001 24 2.12001 15.38 2.12001 6.74999C2.12001 6.26999 2.06001 5.93999 1.58001 5.65999C0.740012 5.16999 0.450012 4.33999 0.640012 3.39999C0.830012 2.48999 1.43001 1.91999 2.33001 1.70999C2.66001 1.62999 3.01001 1.60999 3.35001 1.60999C14.02 1.60999 24.68 1.60999 35.35 1.60999C37.12 1.60999 38.15 2.49999 38.11 3.94999C38.09 4.75999 37.66 5.30999 37.02 5.77999C36.81 5.92999 36.6 6.25999 36.6 6.49999C36.58 15.37 36.58 24.23 36.59 33.1C36.59 33.2 36.61 33.31 36.63 33.47H36.66ZM3.74001 33.47H35.04V6.16999H3.74001V33.47ZM19.31 4.54999C24.6 4.54999 29.89 4.54999 35.19 4.54999C35.43 4.54999 35.71 4.61999 35.89 4.51999C36.16 4.36999 36.52 4.09999 36.53 3.86999C36.53 3.64999 36.19 3.33999 35.93 3.19999C35.72 3.08999 35.41 3.14999 35.15 3.14999C24.65 3.14999 14.14 3.14999 3.64001 3.14999C3.40001 3.14999 3.12001 3.06999 2.94001 3.17999C2.66001 3.33999 2.45001 3.62999 2.21001 3.86999C2.46001 4.08999 2.69001 4.35999 2.97001 4.51999C3.13001 4.60999 3.38001 4.53999 3.60001 4.53999C8.84001 4.53999 14.08 4.53999 19.32 4.53999L19.31 4.54999Z" fill="#27B83E"/>
<path d="M13.69 43.36C13.52 43.36 13.33 43.33 13.13 43.24C12.72 43.08 12.44 42.77 12.33 42.39C12.21 41.93 12.35 41.41 12.73 40.92C13.67 39.72 14.61 38.51 15.54 37.31L16.82 35.68H2.05001C2.00001 35.68 1.94001 35.68 1.88001 35.69C1.65001 35.71 1.32001 35.74 1.03001 35.57C0.410015 35.2 0.0800147 34.8 0.0600147 34.37C0.0300147 33.73 0.700015 33.21 0.910015 33.07C1.11001 32.93 1.32001 32.89 1.53001 32.87V28.31C1.53001 21.12 1.53001 13.93 1.53001 6.73999C1.53001 6.34999 1.49001 6.29999 1.29001 6.17999C0.270015 5.58999 -0.189985 4.52999 0.0700147 3.27999C0.300015 2.14999 1.06001 1.37999 2.22001 1.10999C2.56001 1.02999 2.93001 0.98999 3.38001 0.98999C14.05 0.98999 24.72 0.98999 35.38 0.98999C36.51 0.98999 37.42 1.30999 38.02 1.92999C38.52 2.44999 38.78 3.14999 38.75 3.95999C38.72 5.16999 37.97 5.85999 37.41 6.26999C37.34 6.31999 37.25 6.45999 37.24 6.51999C37.22 15.3 37.22 24.09 37.23 32.89C37.46 32.91 37.71 32.95 37.93 33.11C38.32 33.39 38.71 33.91 38.71 34.43C38.71 34.97 38.18 35.36 37.74 35.6C37.45 35.76 37.14 35.73 36.91 35.71C36.85 35.71 36.8 35.7 36.74 35.7H21.99L26.03 40.86C26.4 41.3 26.55 41.72 26.5 42.13C26.47 42.38 26.34 42.74 25.89 43.06C25.56 43.29 24.7 43.71 23.84 42.6C22.98 41.49 22.12 40.39 21.26 39.29L20.79 38.69C20.79 39.22 20.79 39.74 20.79 40.25C20.79 40.65 20.76 41.23 20.37 41.63C20.2 41.8 19.89 42.01 19.39 42.01C18.88 42.01 18.58 41.8 18.41 41.63C18.02 41.23 17.98 40.65 17.99 40.25C17.99 39.75 18 39.24 17.99 38.74L14.98 42.6C14.8 42.83 14.37 43.38 13.69 43.38V43.36ZM2.05001 34.46H19.19L18.35 35.68C18.25 35.83 18.18 35.94 18.09 36.05L16.51 38.07C15.57 39.27 14.63 40.47 13.7 41.67C13.52 41.9 13.51 42.04 13.52 42.06C13.69 42.14 13.74 42.16 14.01 41.81L17.62 37.18C17.66 37.13 17.7 37.04 17.75 36.94L18.2 36.09L19.22 36.92V38.08C19.22 38.8 19.22 39.51 19.22 40.23C19.22 40.64 19.28 40.72 19.29 40.73H19.51C19.51 40.73 19.58 40.63 19.58 40.24C19.57 39.52 19.58 38.8 19.58 38.01V35.19L20.99 36.93C21.16 37.13 21.29 37.29 21.41 37.45L22.24 38.51C23.11 39.62 23.97 40.72 24.83 41.83C25.01 42.07 25.11 42.09 25.11 42.09C25.27 42 25.3 41.96 25.31 41.95C25.31 41.95 25.29 41.85 25.12 41.64C25.07 41.58 25.03 41.52 24.98 41.46L20.76 36.07C20.66 35.94 20.57 35.8 20.47 35.64L19.71 34.46H36.77C36.86 34.46 36.95 34.46 37.04 34.48C37.1 34.48 37.2 34.49 37.24 34.48C37.32 34.44 37.4 34.38 37.46 34.33C37.41 34.26 37.33 34.16 37.24 34.09C37.24 34.1 37.1 34.1 37.01 34.09C36.89 34.09 36.75 34.09 36.62 34.07L36.14 34.01L36.06 33.39C36.04 33.27 36.03 33.18 36.03 33.08C36.03 24.21 36.03 15.35 36.04 6.47999C36.04 5.99999 36.38 5.50999 36.71 5.25999C37.28 4.83999 37.53 4.43999 37.55 3.90999C37.56 3.42999 37.43 3.04999 37.16 2.76999C36.8 2.39999 36.19 2.19999 35.4 2.19999C24.74 2.19999 14.07 2.19999 3.40001 2.19999C3.04001 2.19999 2.76001 2.22999 2.52001 2.27999C1.83001 2.43999 1.42001 2.83999 1.29001 3.49999C1.19001 3.99999 1.22001 4.68999 1.94001 5.09999C2.69001 5.52999 2.79001 6.12999 2.79001 6.71999C2.79001 13.91 2.79001 21.1 2.79001 28.29V34L2.24001 34.05C2.00001 34.07 1.68001 34.05 1.59001 34.08C1.52001 34.14 1.45001 34.21 1.39001 34.28C1.46001 34.34 1.55001 34.41 1.69001 34.49C1.65001 34.46 1.74001 34.45 1.80001 34.45C1.90001 34.45 1.99001 34.43 2.08001 34.43L2.05001 34.46ZM35.64 34.08H3.12001V5.54999H35.65V34.07L35.64 34.08ZM4.34001 32.85H34.41V6.77999H4.35001V32.85H4.34001ZM3.19001 5.18999C3.02001 5.18999 2.84001 5.15999 2.66001 5.05999C2.40001 4.90999 2.18001 4.69999 1.99001 4.51999L1.30001 3.89999L1.77001 3.43999C1.83001 3.37999 1.89001 3.30999 1.96001 3.23999C2.14001 3.03999 2.34001 2.81999 2.62001 2.65999C2.91001 2.47999 3.24001 2.50999 3.47001 2.52999C3.53001 2.52999 3.58001 2.53999 3.64001 2.53999H35.33C35.59 2.50999 35.92 2.48999 36.23 2.65999C36.33 2.70999 37.17 3.19999 37.14 3.88999C37.12 4.41999 36.61 4.80999 36.19 5.04999C35.9 5.20999 35.58 5.18999 35.35 5.16999C35.29 5.16999 35.24 5.16999 35.19 5.16999H3.59001C3.59001 5.16999 3.50001 5.16999 3.45001 5.16999C3.37001 5.16999 3.29001 5.18999 3.19001 5.18999ZM3.07001 3.84999C3.14001 3.90999 3.21001 3.95999 3.28001 3.99999C3.23001 3.96999 3.28001 3.95999 3.34001 3.95999C3.43001 3.95999 3.51001 3.93999 3.59001 3.93999H35.18C35.26 3.93999 35.35 3.93999 35.44 3.94999C35.51 3.94999 35.61 3.95999 35.64 3.94999C35.69 3.91999 35.74 3.87999 35.79 3.84999C35.74 3.80999 35.68 3.76999 35.62 3.73999C35.62 3.73999 35.48 3.74999 35.4 3.75999C35.31 3.75999 35.22 3.76999 35.14 3.76999H3.63001C3.54001 3.76999 3.45001 3.76999 3.36001 3.74999C3.30001 3.74999 3.20001 3.72999 3.16001 3.74999C3.14001 3.76999 3.11001 3.79999 3.06001 3.84999H3.07001Z" fill="#27B83E"/>
<path d="M16.27 29.73C16.99 30 16.97 29.58 16.97 29.15C16.97 26.58 16.97 24.02 16.97 21.45C16.97 20.5833 17.3933 20.15 18.24 20.15C18.98 20.15 19.72 20.18 20.46 20.15C21.2 20.11 21.5 20.38 21.49 21.15C21.46 23.72 21.48 26.28 21.48 28.85C21.48 29.01 21.44 29.18 21.49 29.32C21.56 29.5 21.7 29.66 21.8 29.82C21.92 29.66 22.13 29.51 22.14 29.34C22.18 28.63 22.16 27.91 22.16 27.2C22.16 24.21 22.16 21.22 22.16 18.23C22.16 17.2766 22.6233 16.8 23.55 16.8C24.26 16.8 24.98 16.83 25.69 16.8C26.44 16.76 26.72 17.03 26.71 17.8C26.68 21.48 26.7 25.16 26.7 28.84C26.7 29.13 26.7 29.42 26.7 29.83C27.67 29.83 28.61 29.83 29.55 29.83C29.79 29.83 30.07 29.76 30.25 29.86C30.47 29.98 30.7 30.23 30.74 30.45C30.76 30.58 30.44 30.82 30.24 30.93C30.09 31.01 29.88 30.95 29.69 30.95C22.84 30.95 15.98 30.95 9.13001 30.95C8.97001 30.95 8.78001 31.01 8.66001 30.94C8.42001 30.8 8.22001 30.58 8.01001 30.4C8.23001 30.21 8.43001 29.87 8.66001 29.86C9.66001 29.8 10.66 29.83 11.77 29.83C11.77 28.86 11.77 27.95 11.77 27.03C11.77 25.89 11.8 24.75 11.77 23.62C11.75 22.96 12.03 22.71 12.66 22.72C13.56 22.74 14.46 22.74 15.36 22.72C16.03 22.7 16.31 22.98 16.3 23.66C16.28 25.41 16.3 27.15 16.3 28.9C16.3 29.19 16.3 29.47 16.3 29.73H16.27ZM25.51 29.8V17.97H23.37V29.8H25.51ZM18.15 21.31V29.77H20.29V21.31H18.15ZM12.93 23.92V29.76H15.08V23.92H12.93Z" fill="#27B83E"/>
<path d="M22.66 10.66C22.21 10.77 21.95 10.91 21.71 10.87C21.4 10.82 21.12 10.62 20.82 10.48C21.02 10.25 21.17 9.90001 21.42 9.81001C22.11 9.56001 22.83 9.37001 23.56 9.27001C23.8 9.23001 24.26 9.45001 24.33 9.66001C24.6 10.43 24.79 11.23 24.93 12.03C24.97 12.25 24.69 12.53 24.55 12.78C24.32 12.61 24.02 12.49 23.87 12.27C23.72 12.04 23.71 11.72 23.62 11.36C22.95 12.21 22.35 13.03 21.68 13.8C18.6 17.37 14.81 19.77 10.13 20.67C9.95 20.7 9.73 20.8 9.59 20.74C9.34 20.63 9.13 20.42 8.91 20.24C9.08 20.04 9.22 19.74 9.44 19.67C10.01 19.48 10.63 19.43 11.21 19.26C16.07 17.91 19.71 14.94 22.65 10.65L22.66 10.66Z" fill="#27B83E"/>
<path d="M35.24 2.06H2.88C2.16755 2.06 1.59 2.63755 1.59 3.35V3.94C1.59 4.65244 2.16755 5.23 2.88 5.23H35.24C35.9524 5.23 36.53 4.65244 36.53 3.94V3.35C36.53 2.63755 35.9524 2.06 35.24 2.06Z" fill="#27B83E"/>
</g>
<defs>
<clipPath id="clip0_531_450">
<rect width="38.75" height="42.37" fill="white" transform="translate(0 0.98999)"/>
</clipPath>
</defs>
</svg>
