<svg width="38" height="32" viewBox="0 0 38 32" fill="none" xmlns="http://www.w3.org/2000/svg">
<g clip-path="url(#clip0_531_463)">
<path d="M37.485 4.54L37.465 3.48C37.445 2.78 37.235 2.16 36.825 1.66C36.555 1.33 36.275 1.03 35.985 0.79C35.505 0.38 35.035 0.17 34.535 0.12H34.405C34.045 0.08 33.685 0.05 33.325 0.05C31.695 0.03 30.065 0.01 28.435 0.01C22.515 0 16.585 0 10.655 0C9.555 0 8.445 0.02 7.345 0.03C6.455 0.04 5.565 0.04 4.665 0.05C3.715 0.05 2.885 0.39 2.175 1.04C1.735 1.46 1.385 1.99 1.125 2.7C1.065 2.87 0.984998 3.07 0.984998 3.31C0.974998 8.86 0.974998 14.41 0.974998 19.95V22.75C0.974998 22.82 0.964998 22.93 1.015 23.05C1.215 23.64 1.525 24.38 2.155 24.97C2.905 25.67 3.795 26.01 4.885 26.01C7.245 26.01 9.585 26.02 11.925 26.03L15.455 26.05V28.67H12.145V31.86H26.395V28.66H23.025V26.04H26.005C28.605 26.03 31.195 26.02 33.785 26C35.315 25.99 36.465 25.21 37.205 23.7C37.495 23.11 37.495 22.49 37.495 21.9V19.11C37.515 15.09 37.525 11.06 37.525 7.03C37.535 6.2 37.505 5.37 37.485 4.54ZM4.185 7.14V3.67C4.195 3.54 4.425 3.3 4.555 3.3L5.885 3.28C7.265 3.26 8.635 3.24 10.005 3.24H19.845C24.445 3.23 29.035 3.22 33.625 3.21H33.635C33.845 3.21 33.975 3.27 34.145 3.43C34.255 3.54 34.285 3.62 34.285 3.75C34.275 8.92 34.275 14.08 34.275 19.24V22.33C34.275 22.44 34.245 22.69 33.955 22.71C33.335 22.75 32.705 22.79 32.085 22.79H22.385L16.295 22.82C12.485 22.82 8.675 22.82 4.875 22.83H4.865C4.605 22.83 4.435 22.72 4.235 22.44C4.185 22.38 4.155 22.31 4.155 22.14C4.175 17.14 4.175 12.14 4.185 7.14Z" fill="#27B83E"/>
<path d="M18.135 5.71001H20.405C20.455 5.72001 20.515 5.74001 20.565 5.75001C21.085 5.89001 21.475 6.37001 21.535 6.93001C21.545 7.09001 21.535 7.25001 21.545 7.41001C21.545 7.44001 21.565 7.48001 21.585 7.49001C21.595 7.49001 21.645 7.48001 21.665 7.46001C21.755 7.38001 21.835 7.30001 21.915 7.22001C22.425 6.72001 23.225 6.72001 23.735 7.22001C24.195 7.68001 24.665 8.14001 25.125 8.60001C25.465 8.94001 25.595 9.35001 25.495 9.82001C25.435 10.12 25.255 10.35 25.035 10.55C24.985 10.6 24.935 10.64 24.875 10.71C24.935 10.71 24.975 10.71 25.005 10.71C25.175 10.71 25.345 10.71 25.505 10.74C26.105 10.86 26.555 11.43 26.555 12.08C26.555 12.75 26.555 13.43 26.555 14.1C26.555 14.27 26.525 14.43 26.455 14.59C26.265 15.02 25.915 15.24 25.455 15.3C25.265 15.32 25.065 15.3 24.875 15.31C24.855 15.31 24.825 15.33 24.805 15.34C24.815 15.36 24.825 15.38 24.835 15.4C24.945 15.52 25.055 15.63 25.155 15.75C25.635 16.27 25.635 17.05 25.135 17.56C24.665 18.04 24.185 18.51 23.705 18.98C23.315 19.37 22.755 19.46 22.255 19.24C22.075 19.16 21.925 19.03 21.785 18.89C21.705 18.81 21.625 18.73 21.545 18.65H21.525C21.525 18.85 21.525 19.04 21.525 19.23C21.505 19.55 21.365 19.81 21.125 20.02C20.875 20.24 20.585 20.32 20.265 20.32C19.615 20.32 18.955 20.32 18.305 20.32C18.185 20.32 18.065 20.32 17.955 20.29C17.485 20.19 17.145 19.93 16.995 19.46C16.955 19.34 16.945 19.2 16.935 19.07C16.935 18.94 16.935 18.81 16.935 18.67C16.855 18.75 16.775 18.82 16.705 18.89C16.175 19.49 15.295 19.48 14.755 18.93C14.315 18.47 13.855 18.02 13.405 17.57C12.895 17.06 12.865 16.3 13.325 15.77C13.415 15.67 13.515 15.57 13.605 15.47C13.635 15.44 13.665 15.42 13.645 15.36C13.625 15.3 13.585 15.31 13.535 15.31C13.375 15.31 13.225 15.31 13.065 15.3C12.605 15.25 12.235 15.03 12.035 14.6C11.985 14.49 11.955 14.36 11.925 14.24V11.95C11.925 11.95 11.945 11.85 11.955 11.81C12.095 11.27 12.415 10.91 12.955 10.76C13.135 10.71 13.325 10.73 13.515 10.72H13.605V10.69C13.545 10.63 13.485 10.56 13.415 10.5C12.895 10.02 12.855 9.20001 13.335 8.68001C13.815 8.18001 14.305 7.70001 14.795 7.21001C15.295 6.71001 16.105 6.71001 16.605 7.21001C16.675 7.28001 16.745 7.35001 16.815 7.42001C16.835 7.44001 16.875 7.46001 16.895 7.45001C16.915 7.45001 16.925 7.40001 16.925 7.37001C16.925 7.29001 16.925 7.21001 16.925 7.12001C16.935 6.52001 17.215 6.08001 17.755 5.81001C17.865 5.76001 17.995 5.74001 18.115 5.70001L18.135 5.71001ZM19.265 19.23C19.265 19.23 19.315 19.23 19.345 19.23C19.645 19.23 19.955 19.23 20.255 19.23C20.425 19.23 20.455 19.2 20.455 19.04C20.455 18.67 20.455 18.3 20.455 17.93C20.455 17.88 20.475 17.85 20.515 17.84C20.935 17.73 21.335 17.56 21.715 17.35C21.755 17.33 21.785 17.33 21.815 17.37C22.075 17.63 22.345 17.9 22.605 18.16C22.745 18.3 22.855 18.3 22.995 18.16C23.435 17.72 23.885 17.27 24.325 16.83C24.465 16.69 24.465 16.6 24.325 16.46C24.065 16.18 23.795 15.9 23.535 15.61C23.505 15.58 23.495 15.55 23.515 15.51C23.725 15.12 23.885 14.71 23.995 14.29C24.005 14.24 24.035 14.22 24.085 14.22C24.335 14.22 24.575 14.22 24.825 14.22C24.985 14.22 25.145 14.22 25.305 14.22C25.405 14.22 25.445 14.18 25.445 14.08C25.445 13.52 25.445 12.96 25.445 12.41C25.445 12.29 25.445 12.16 25.435 12.04C25.415 11.87 25.325 11.81 25.165 11.81C24.815 11.81 24.465 11.81 24.115 11.81C24.055 11.81 24.035 11.79 24.015 11.74C23.975 11.6 23.935 11.45 23.875 11.31C23.765 11.06 23.645 10.81 23.525 10.56C23.505 10.52 23.505 10.49 23.545 10.46C23.805 10.22 24.055 9.97001 24.315 9.72001C24.445 9.60001 24.445 9.50001 24.315 9.37001C23.865 8.93001 23.425 8.48001 22.975 8.04001C22.825 7.89001 22.735 7.89001 22.585 8.04001C22.335 8.28001 22.095 8.53001 21.845 8.77001C21.815 8.80001 21.785 8.82001 21.735 8.79001C21.335 8.57001 20.925 8.40001 20.485 8.27001C20.435 8.25001 20.415 8.23001 20.415 8.17001C20.415 7.92001 20.415 7.67001 20.415 7.42001C20.415 7.30001 20.415 7.18001 20.415 7.06001C20.405 6.88001 20.305 6.79001 20.135 6.79001C19.515 6.79001 18.905 6.79001 18.285 6.79001C18.185 6.79001 18.125 6.83001 18.065 6.90001C18.015 6.97001 17.995 7.04001 17.995 7.13001C17.995 7.47001 17.995 7.80001 17.995 8.14001C17.995 8.19001 17.985 8.22001 17.935 8.23001C17.505 8.36001 17.095 8.53001 16.705 8.74001C16.635 8.78001 16.595 8.78001 16.535 8.72001C16.305 8.48001 16.075 8.25001 15.845 8.02001C15.735 7.91001 15.625 7.91001 15.515 8.02001C15.055 8.48001 14.605 8.94001 14.145 9.40001C14.025 9.52001 14.035 9.63001 14.145 9.74001C14.385 9.96001 14.615 10.18 14.855 10.39C14.905 10.43 14.905 10.46 14.875 10.52C14.665 10.92 14.475 11.32 14.345 11.76C14.335 11.81 14.305 11.82 14.255 11.82C13.925 11.82 13.595 11.82 13.265 11.82C13.165 11.82 13.085 11.85 13.045 11.93C13.005 12 12.975 12.08 12.975 12.16C12.975 12.78 12.975 13.4 12.975 14.03C12.975 14.19 13.015 14.23 13.175 14.24C13.215 14.24 13.245 14.24 13.285 14.24C13.615 14.24 13.935 14.24 14.265 14.24C14.335 14.24 14.365 14.26 14.385 14.32C14.525 14.75 14.675 15.18 14.905 15.58C14.935 15.63 14.915 15.66 14.885 15.69C14.635 15.95 14.385 16.21 14.135 16.47C14.035 16.58 14.035 16.7 14.135 16.81C14.595 17.27 15.055 17.74 15.515 18.2C15.615 18.3 15.745 18.3 15.845 18.2C16.095 17.94 16.345 17.69 16.595 17.43C16.635 17.39 16.655 17.38 16.715 17.41C17.095 17.6 17.475 17.78 17.885 17.88C17.965 17.9 17.985 17.94 17.985 18.02C17.985 18.36 17.985 18.71 17.985 19.05C17.985 19.19 18.015 19.23 18.155 19.25C18.185 19.25 18.215 19.25 18.245 19.25C18.565 19.25 18.885 19.25 19.205 19.25L19.265 19.23Z" fill="#27B83E"/>
<path d="M19.455 20.45C19.075 20.45 18.695 20.45 18.315 20.45C18.175 20.45 18.045 20.44 17.935 20.41C17.395 20.3 17.045 19.99 16.885 19.5C16.845 19.37 16.835 19.24 16.825 19.11V19.08C16.825 19.08 16.825 19.01 16.825 18.97C16.555 19.29 16.175 19.46 15.775 19.47H15.745C15.355 19.47 14.975 19.31 14.695 19.02C14.405 18.71 14.105 18.42 13.805 18.12C13.655 17.97 13.495 17.82 13.345 17.66C12.785 17.1 12.755 16.27 13.255 15.69C13.315 15.62 13.385 15.55 13.455 15.47L13.495 15.43C13.495 15.43 13.445 15.43 13.425 15.43C13.315 15.43 13.195 15.43 13.085 15.42C12.555 15.36 12.175 15.1 11.955 14.65C11.915 14.56 11.885 14.47 11.865 14.38C11.865 14.34 11.845 14.31 11.835 14.27V11.88C11.835 11.88 11.855 11.81 11.865 11.77C12.025 11.17 12.385 10.79 12.955 10.63C13.085 10.59 13.225 10.59 13.365 10.59C13.085 10.33 12.925 9.97002 12.905 9.59002C12.895 9.21002 13.025 8.86002 13.285 8.59002C13.635 8.22002 14.005 7.85002 14.365 7.50002L14.745 7.12002C15.295 6.57002 16.185 6.57002 16.735 7.12002L16.805 7.19002C16.805 7.19002 16.835 7.22002 16.845 7.23002C16.845 7.19002 16.845 7.16002 16.845 7.12002C16.865 6.46002 17.165 5.99002 17.745 5.70002C17.835 5.66002 17.925 5.63002 18.015 5.61002C18.055 5.61002 18.085 5.59002 18.125 5.58002H20.525C20.525 5.58002 20.595 5.61002 20.625 5.62002C21.195 5.77002 21.625 6.30002 21.685 6.91002C21.685 7.01002 21.685 7.11002 21.695 7.21002V7.27002C21.695 7.27002 21.755 7.21002 21.785 7.18002L21.855 7.12002C22.415 6.57002 23.295 6.58002 23.855 7.12002C24.175 7.44002 24.505 7.77002 24.825 8.09002L25.245 8.51002C25.625 8.89002 25.755 9.34002 25.645 9.85002C25.585 10.12 25.445 10.36 25.205 10.59C25.315 10.59 25.435 10.59 25.555 10.62C26.215 10.75 26.705 11.36 26.705 12.08C26.705 12.59 26.705 13.09 26.705 13.6V14.11C26.705 14.3 26.665 14.49 26.595 14.65C26.385 15.11 26.025 15.37 25.495 15.43C25.365 15.45 25.225 15.44 25.095 15.44H25.065C25.135 15.51 25.205 15.59 25.275 15.66C25.805 16.22 25.795 17.09 25.255 17.64C24.785 18.12 24.305 18.59 23.825 19.06C23.395 19.48 22.785 19.59 22.235 19.35C22.025 19.26 21.865 19.11 21.735 18.97L21.685 18.92C21.685 19.02 21.685 19.13 21.685 19.23C21.665 19.58 21.515 19.88 21.245 20.11C20.995 20.33 20.675 20.44 20.305 20.44C20.035 20.44 19.755 20.44 19.485 20.44L19.455 20.45ZM17.075 18.37V18.8C17.075 18.89 17.075 18.97 17.075 19.06V19.1C17.085 19.21 17.095 19.33 17.125 19.43C17.255 19.84 17.535 20.08 17.985 20.18C18.075 20.2 18.185 20.21 18.315 20.21C18.965 20.21 19.625 20.21 20.275 20.21C20.595 20.21 20.845 20.12 21.055 19.94C21.275 19.75 21.395 19.51 21.405 19.23C21.405 19.1 21.405 18.98 21.405 18.85V18.58L21.555 18.52L21.635 18.57L21.705 18.64C21.765 18.7 21.825 18.75 21.875 18.81C21.995 18.93 22.135 19.06 22.305 19.13C22.765 19.33 23.265 19.24 23.615 18.89C24.095 18.42 24.565 17.94 25.035 17.47C25.475 17.02 25.485 16.3 25.055 15.84C24.945 15.72 24.835 15.61 24.725 15.49C24.705 15.46 24.685 15.44 24.685 15.42L24.635 15.3L24.745 15.23C24.745 15.23 24.815 15.2 24.855 15.19C24.925 15.19 24.995 15.19 25.055 15.19C25.185 15.19 25.305 15.19 25.425 15.18C25.855 15.13 26.155 14.92 26.325 14.55C26.385 14.42 26.415 14.27 26.415 14.12V13.61C26.415 13.1 26.415 12.6 26.415 12.09C26.415 11.5 26.005 10.98 25.465 10.88C25.315 10.85 25.145 10.86 24.975 10.85H24.535L24.815 10.58C24.815 10.58 24.895 10.51 24.925 10.48C25.165 10.27 25.295 10.06 25.345 9.82002C25.435 9.39002 25.325 9.02002 25.005 8.71002L24.585 8.29002C24.265 7.97002 23.935 7.64002 23.615 7.32002C23.155 6.87002 22.435 6.86002 21.965 7.32002L21.905 7.38002C21.845 7.44002 21.785 7.50002 21.715 7.56002C21.675 7.59002 21.575 7.66002 21.485 7.60002C21.425 7.56002 21.395 7.48002 21.395 7.42002C21.395 7.36002 21.395 7.29002 21.395 7.23002C21.395 7.14002 21.395 7.05002 21.395 6.95002C21.345 6.45002 20.985 6.01002 20.525 5.88002C20.495 5.88002 20.465 5.86002 20.435 5.86002H18.155C18.155 5.86002 18.085 5.86002 18.055 5.88002C17.975 5.90002 17.895 5.92002 17.835 5.95002C17.335 6.19002 17.085 6.59002 17.075 7.15002V7.25002C17.075 7.25002 17.075 7.35002 17.075 7.40002C17.075 7.42002 17.065 7.54002 16.975 7.58002C16.895 7.62002 16.805 7.58002 16.755 7.53002C16.705 7.49002 16.655 7.44002 16.615 7.39002L16.555 7.32002C16.105 6.87002 15.365 6.87002 14.915 7.32002L14.535 7.70002C14.175 8.05002 13.815 8.42002 13.455 8.79002C13.245 9.01002 13.135 9.30002 13.145 9.61002C13.155 9.92002 13.295 10.22 13.525 10.43L13.785 10.68L13.725 10.83L13.645 10.86H13.555C13.495 10.86 13.435 10.87 13.375 10.87C13.255 10.87 13.135 10.87 13.025 10.9C12.555 11.03 12.245 11.35 12.115 11.86C12.115 11.89 12.095 11.93 12.095 11.96V14.24C12.095 14.24 12.105 14.31 12.115 14.34C12.135 14.42 12.155 14.5 12.185 14.56C12.365 14.93 12.665 15.14 13.115 15.19C13.215 15.2 13.315 15.2 13.425 15.2C13.475 15.2 13.525 15.2 13.575 15.2C13.635 15.2 13.745 15.2 13.795 15.33C13.845 15.46 13.765 15.53 13.735 15.56L13.645 15.65C13.575 15.72 13.515 15.78 13.455 15.85C13.035 16.33 13.065 17.02 13.535 17.48C13.685 17.63 13.835 17.78 13.995 17.94C14.295 18.24 14.595 18.54 14.895 18.85C15.125 19.09 15.435 19.23 15.765 19.23H15.785C16.115 19.23 16.425 19.08 16.655 18.82C16.705 18.77 16.755 18.72 16.815 18.66L17.105 18.38L17.075 18.37ZM13.555 15.42C13.555 15.42 13.575 15.44 13.585 15.44L13.555 15.32V15.43V15.42ZM19.805 19.37H18.305C18.305 19.37 18.235 19.37 18.195 19.37C17.985 19.34 17.915 19.26 17.915 19.05V18.77C17.915 18.52 17.915 18.27 17.915 18.02C17.495 17.9 17.095 17.72 16.735 17.53C16.565 17.71 16.395 17.88 16.225 18.05L15.995 18.29C15.915 18.37 15.825 18.41 15.735 18.41C15.645 18.41 15.555 18.37 15.485 18.29L14.105 16.9C13.945 16.74 13.945 16.55 14.105 16.39C14.355 16.13 14.595 15.87 14.845 15.62C14.605 15.2 14.455 14.75 14.325 14.36C14.005 14.36 13.675 14.36 13.355 14.36C13.315 14.36 13.275 14.36 13.235 14.36C13.005 14.35 12.915 14.25 12.915 14.02V13.6C12.915 13.12 12.915 12.64 12.915 12.16C12.915 12.05 12.965 11.94 13.005 11.87C13.065 11.76 13.185 11.69 13.325 11.69C13.505 11.69 13.685 11.69 13.875 11.69C14.015 11.69 14.155 11.69 14.295 11.69C14.425 11.25 14.625 10.84 14.815 10.47C14.625 10.3 14.455 10.14 14.275 9.97002L14.115 9.82002C14.025 9.74002 13.985 9.65002 13.985 9.56002C13.985 9.47002 14.025 9.38002 14.105 9.30002L15.475 7.92002C15.555 7.84002 15.635 7.80002 15.725 7.80002C15.815 7.80002 15.905 7.84002 15.985 7.92002L16.065 8.00002C16.265 8.21002 16.475 8.41002 16.675 8.62002C17.085 8.41002 17.505 8.24002 17.915 8.11002V7.12002C17.915 7.00002 17.945 6.90002 18.015 6.81002C18.095 6.70002 18.195 6.65002 18.325 6.65002C18.765 6.65002 19.205 6.65002 19.645 6.65002H20.175C20.415 6.65002 20.565 6.79002 20.585 7.03002C20.585 7.12002 20.585 7.22002 20.585 7.31002V7.52002C20.585 7.72002 20.585 7.92002 20.585 8.12002C21.035 8.26002 21.435 8.43002 21.805 8.63002C21.965 8.47002 22.115 8.32002 22.265 8.17002L22.525 7.91002C22.725 7.71002 22.895 7.72002 23.095 7.91002L24.435 9.24002C24.525 9.33002 24.565 9.42002 24.565 9.51002C24.565 9.60002 24.515 9.69002 24.425 9.77002L24.145 10.04C23.995 10.19 23.835 10.34 23.685 10.49L23.735 10.59C23.835 10.8 23.935 11.01 24.025 11.22C24.075 11.34 24.115 11.47 24.145 11.59L24.165 11.65C24.445 11.65 24.715 11.65 24.985 11.65H25.195C25.425 11.65 25.565 11.76 25.595 11.99C25.605 12.1 25.605 12.2 25.605 12.31V12.38C25.605 12.94 25.605 13.5 25.605 14.05C25.605 14.22 25.515 14.31 25.345 14.31C25.215 14.31 25.085 14.31 24.955 14.31H24.855C24.615 14.31 24.375 14.31 24.145 14.31C24.025 14.73 23.875 15.13 23.675 15.5C23.935 15.78 24.195 16.05 24.455 16.33C24.635 16.52 24.625 16.69 24.445 16.88L23.115 18.21C22.925 18.4 22.745 18.4 22.545 18.21L22.315 17.99C22.135 17.81 21.955 17.63 21.765 17.45C21.355 17.67 20.965 17.83 20.595 17.93C20.595 18.21 20.595 18.49 20.595 18.77V19.02C20.595 19.25 20.515 19.33 20.275 19.33C20.125 19.33 19.965 19.33 19.815 19.33L19.805 19.37ZM18.175 19.11C18.175 19.11 18.195 19.11 18.235 19.11C18.255 19.11 18.285 19.11 18.315 19.11H19.585C19.815 19.11 20.045 19.11 20.265 19.11C20.305 19.11 20.325 19.11 20.335 19.11C20.335 19.11 20.335 19.08 20.335 19.05V18.8C20.335 18.51 20.335 18.22 20.335 17.94C20.335 17.83 20.395 17.76 20.495 17.73C20.865 17.63 21.255 17.47 21.665 17.25C21.725 17.22 21.815 17.19 21.915 17.29C22.105 17.48 22.295 17.67 22.485 17.85L22.715 18.07C22.815 18.16 22.835 18.16 22.935 18.07L24.265 16.74C24.355 16.65 24.355 16.63 24.265 16.54C24.005 16.26 23.735 15.97 23.475 15.69C23.405 15.61 23.395 15.53 23.435 15.44C23.635 15.07 23.795 14.67 23.905 14.25C23.925 14.18 23.975 14.09 24.115 14.09C24.355 14.09 24.605 14.09 24.855 14.09H24.955C25.085 14.09 25.215 14.09 25.335 14.09H25.355V14.07C25.355 13.51 25.355 12.96 25.355 12.4V12.33C25.355 12.24 25.355 12.14 25.355 12.05C25.345 11.96 25.325 11.93 25.205 11.93H24.995C24.715 11.93 24.435 11.93 24.155 11.93C24.035 11.93 23.965 11.88 23.935 11.77L23.915 11.69C23.885 11.57 23.855 11.46 23.805 11.35C23.715 11.14 23.615 10.94 23.515 10.73L23.455 10.61C23.415 10.52 23.425 10.43 23.505 10.36C23.665 10.21 23.825 10.05 23.985 9.90002L24.265 9.63002C24.325 9.58002 24.325 9.55002 24.325 9.54002C24.325 9.53002 24.325 9.51002 24.265 9.46002L22.925 8.13002C22.825 8.03002 22.815 8.03002 22.715 8.13002L22.455 8.39002C22.295 8.55002 22.135 8.70002 21.975 8.86002C21.895 8.94002 21.805 8.95002 21.715 8.90002C21.345 8.69002 20.945 8.52002 20.495 8.39002C20.395 8.36002 20.335 8.28002 20.335 8.17002C20.335 7.96002 20.335 7.76002 20.335 7.55002V7.34002C20.335 7.25002 20.335 7.16002 20.335 7.07002C20.335 6.96002 20.295 6.92002 20.175 6.92002H19.645C19.205 6.92002 18.765 6.92002 18.325 6.92002C18.325 6.92002 18.245 6.94002 18.215 6.98002C18.185 7.02002 18.165 7.07002 18.165 7.13002V8.14002C18.165 8.28002 18.085 8.33002 18.015 8.35002C17.605 8.47002 17.205 8.64002 16.815 8.85002C16.735 8.89002 16.625 8.93002 16.495 8.80002C16.295 8.59002 16.095 8.39002 15.895 8.18002L15.815 8.10002C15.815 8.10002 15.755 8.05002 15.735 8.05002C15.735 8.05002 15.675 8.08002 15.655 8.09002L14.285 9.47002C14.285 9.47002 14.235 9.53002 14.235 9.55002C14.235 9.57002 14.255 9.60002 14.285 9.63002L14.445 9.78002C14.625 9.95002 14.815 10.12 14.995 10.28C15.085 10.36 15.095 10.45 15.045 10.56C14.845 10.93 14.645 11.34 14.525 11.77C14.495 11.87 14.415 11.91 14.315 11.93C14.165 11.93 14.025 11.93 13.875 11.93C13.685 11.93 13.505 11.93 13.325 11.93C13.245 11.93 13.225 11.96 13.215 11.98C13.185 12.04 13.165 12.1 13.165 12.15C13.165 12.63 13.165 13.11 13.165 13.59V14.01C13.165 14.07 13.165 14.08 13.165 14.09C13.165 14.09 13.185 14.09 13.245 14.09C13.445 14.09 13.645 14.09 13.835 14.09C13.995 14.09 14.155 14.09 14.325 14.09C14.465 14.09 14.525 14.14 14.565 14.26C14.685 14.64 14.835 15.09 15.075 15.49C15.125 15.58 15.115 15.67 15.035 15.75C14.785 16.01 14.535 16.27 14.285 16.53C14.225 16.59 14.225 16.63 14.285 16.69L15.665 18.08C15.665 18.08 15.715 18.12 15.745 18.12C15.745 18.12 15.805 18.1 15.825 18.08L16.055 17.84C16.225 17.66 16.405 17.49 16.575 17.31C16.605 17.28 16.695 17.19 16.845 17.26C17.255 17.47 17.605 17.63 17.995 17.72C18.175 17.76 18.185 17.89 18.185 17.98C18.185 18.23 18.185 18.48 18.185 18.73V19.01C18.185 19.01 18.185 19.07 18.185 19.08L18.175 19.11Z" fill="#27B83E"/>
<path d="M16.655 13.01C16.655 11.59 17.815 10.43 19.235 10.42C20.685 10.42 21.795 11.58 21.835 12.92C21.885 14.38 20.705 15.6 19.235 15.6C17.815 15.6 16.655 14.44 16.655 13.01ZM17.685 13.01C17.685 13.86 18.385 14.57 19.235 14.57C20.105 14.57 20.805 13.87 20.805 13C20.805 12.15 20.105 11.45 19.245 11.45C18.385 11.45 17.685 12.15 17.685 13.01Z" fill="#27B83E"/>
<path d="M19.245 15.73C17.755 15.73 16.535 14.51 16.535 13.01C16.535 11.52 17.745 10.3 19.245 10.3C20.705 10.3 21.925 11.47 21.965 12.92C21.985 13.66 21.715 14.36 21.195 14.9C20.675 15.44 19.985 15.73 19.235 15.73H19.245ZM19.245 10.55C17.895 10.55 16.785 11.66 16.785 13.01C16.785 14.37 17.885 15.48 19.245 15.48C19.925 15.48 20.555 15.21 21.025 14.73C21.495 14.24 21.745 13.61 21.715 12.93C21.675 11.62 20.565 10.55 19.245 10.55ZM19.245 14.7C18.325 14.7 17.575 13.94 17.565 13.02C17.565 12.09 18.325 11.33 19.255 11.33C20.185 11.33 20.935 12.08 20.935 13.01C20.935 13.46 20.755 13.89 20.435 14.21C20.115 14.53 19.695 14.7 19.245 14.7ZM17.815 13.02C17.815 13.81 18.455 14.45 19.245 14.45C19.625 14.45 19.985 14.3 20.255 14.03C20.525 13.76 20.675 13.4 20.675 13.01C20.675 12.22 20.035 11.58 19.245 11.58C18.455 11.58 17.805 12.22 17.805 13.02H17.815Z" fill="#27B83E"/>
</g>
<defs>
<clipPath id="clip0_531_463">
<rect width="36.55" height="31.86" fill="white" transform="translate(0.974976)"/>
</clipPath>
</defs>
</svg>
