<svg width="41" height="36" viewBox="0 0 41 36" fill="none" xmlns="http://www.w3.org/2000/svg">
<g clip-path="url(#clip0_519_330)">
<path d="M40 7.97997C39.22 6.68997 38.16 6.02997 36.84 6.02997C36.51 6.02997 36.17 6.01997 35.83 6.00997C35.53 5.99997 35.22 5.98997 34.92 5.98997L27.97 5.92997C27.96 5.81997 27.96 5.70997 27.95 5.60997C27.92 5.15997 27.9 4.70997 27.9 4.26997C27.91 2.78997 26.33 0.909968 24.46 0.829968C21.75 0.709968 18.98 0.719968 16.01 0.839968C14.43 0.899968 12.85 2.34997 12.62 3.94997C12.54 4.51997 12.53 5.07997 12.52 5.62997C12.52 5.72997 12.51 5.82997 12.51 5.92997L3.25 5.99997C3.09 5.99997 2.92 6.00997 2.73 6.07997C1.06 6.74997 0 8.21997 0 9.82997V17.34C0.01 17.67 0.17 17.93 0.26 18.05C0.66 18.58 1.21 18.75 1.65 18.86C1.65 22.19 1.66 25.53 1.68 28.86V29.05C1.68 29.88 1.68 30.74 1.74 31.59C1.85 33.22 3.19 34.74 4.8 35.05C5.19 35.13 5.59 35.12 5.93 35.12H6.09L22.99 35.16H29.66C31.12 35.15 32.58 35.13 34.03 35.1H35.05C35.85 35.07 36.47 34.89 37 34.51C38.01 33.78 38.57 32.91 38.7 31.86C38.75 31.45 38.75 31.06 38.75 30.67L38.77 26.53C38.78 24.02 38.79 21.51 38.81 19.01V18.86C38.81 18.86 38.91 18.83 38.97 18.82C39.33 18.7 39.84 18.55 40.2 18.08C40.3 17.95 40.47 17.68 40.48 17.34C40.49 14.9 40.49 12.47 40.5 10.03C40.5 9.49997 40.44 8.70997 40 7.97997ZM15.96 5.59997C15.96 5.23997 15.97 4.87997 16 4.51997C16.01 4.34997 16.12 4.23997 16.29 4.22997C16.93 4.19997 17.57 4.18997 18.2 4.17997C19.92 4.17997 21.64 4.17997 23.36 4.18997C23.62 4.18997 23.88 4.19997 24.15 4.22997C24.3 4.22997 24.48 4.29997 24.49 4.52997C24.51 4.99997 24.5 5.46997 24.5 5.93997H15.95V5.59997H15.96ZM34.99 31.69H32.3C29.52 31.72 26.74 31.74 23.95 31.74C19.66 31.74 15.39 31.74 11.11 31.74H7.6C7.05 31.73 6.49 31.72 5.93 31.71H5.54C5.33 31.69 5.17 31.55 5.15 31.35C5.11 30.88 5.09 30.41 5.09 29.94C5.09 26.56 5.1 23.17 5.11 19.79C5.19 19.81 5.27 19.83 5.35 19.86L7.93 20.54C10.5 21.23 13.07 21.92 15.66 22.6C15.67 22.94 15.69 23.28 15.7 23.62L15.73 24.27C15.81 25.33 16.41 25.9 17.46 25.93C19.09 25.97 20.73 25.96 22.36 25.93H22.97C23.11 25.93 23.26 25.9 23.4 25.88C24.17 25.76 24.67 25.24 24.74 24.5C24.79 23.92 24.81 23.31 24.83 22.6C27.84 21.8 30.84 21 33.85 20.2L35.42 19.78L35.4 30.82C35.4 30.99 35.38 31.16 35.36 31.33C35.34 31.53 35.18 31.68 34.99 31.69ZM19.1 22.55V20.26H21.4V22.55H19.1ZM37.07 15.82L24.82 19.09L24.79 18.76C24.78 18.61 24.76 18.45 24.74 18.29C24.59 17.43 24.02 16.93 23.17 16.91C21.88 16.89 20.59 16.88 19.3 16.87H19.13C18.57 16.87 18 16.88 17.44 16.9C16.41 16.94 15.82 17.5 15.73 18.53C15.71 18.72 15.7 18.9 15.69 19.09L3.42 15.81V9.74997C3.43 9.58997 3.58 9.41997 3.7 9.39997C3.91 9.35997 4.16 9.35997 4.44 9.34997H6.98C9.45 9.31997 11.92 9.30997 14.38 9.30997C19.8 9.30997 25.22 9.31997 30.64 9.33997H36.06C36.26 9.34997 36.47 9.34997 36.67 9.36997C36.87 9.38997 37.05 9.57997 37.05 9.75997C37.06 11.41 37.06 13.05 37.06 14.7V15.82H37.07Z" fill="#27B83E"/>
</g>
<defs>
<clipPath id="clip0_519_330">
<rect width="40.5" height="34.42" fill="white" transform="translate(0 0.73999)"/>
</clipPath>
</defs>
</svg>
