<svg width="24" height="41" viewBox="0 0 24 41" fill="none" xmlns="http://www.w3.org/2000/svg">
<g clip-path="url(#clip0_519_420)">
<path d="M23.712 11.7981C23.3574 8.47495 21.8123 5.64233 19.1019 3.38605C15.5936 0.455329 10.9455 0.0506694 6.96864 2.30695C4.82822 3.5332 3.15642 5.33577 1.99122 7.66563C0.990669 9.67667 0.598047 11.6264 0.813356 13.6006C1.11732 16.4946 2.11787 19.2781 3.84034 22.0985C5.48681 24.7962 7.23461 26.4762 9.42569 27.4817C8.86842 28.6834 9.0204 29.8116 9.8943 30.8293C9.88164 31.6387 10.1856 32.3253 10.4896 32.9017C10.7809 33.4658 11.0848 34.0176 11.3888 34.5694C11.7941 35.2806 11.7561 35.9428 11.2621 36.6662C11.1862 36.7889 11.0975 36.9115 11.0088 37.0341C10.8062 37.3162 10.5909 37.5982 10.4389 37.9293C10.1856 38.4443 10.0083 38.9716 9.9323 39.4743C9.88164 39.7932 9.95763 40.0997 10.1603 40.3572C10.3882 40.627 10.7302 40.8109 11.0975 40.86H11.2241C11.8194 40.86 12.364 40.4431 12.5413 39.8299C12.63 39.5234 12.7693 39.2291 12.9213 38.9348C13.0353 38.7509 13.1619 38.5669 13.2886 38.3952C13.4152 38.2113 13.5419 38.0274 13.6559 37.8312C14.0991 37.0832 14.6311 35.9305 14.2131 34.6675C13.9978 34.0053 13.6939 33.3799 13.3899 32.7791C13.2632 32.5338 13.1493 32.2886 13.0226 32.0311C12.9973 31.9575 12.9593 31.8839 12.9213 31.7981C13.8965 31.5896 14.6184 31.0501 15.0617 30.204C15.5303 29.3211 15.5303 28.3769 15.0744 27.4572C16.9488 26.4639 17.6581 25.9244 18.7346 24.7226C20.6344 22.5767 22.0276 20.0384 22.9901 16.9483C23.4334 15.5626 23.902 13.711 23.712 11.7981ZM19.4692 18.8122C18.3547 21.1543 17.1261 22.8342 15.5936 24.0973C15.1504 24.4529 14.6438 24.784 14.0738 25.066C12.9086 25.6546 11.6801 25.6669 10.4516 25.0783C9.27371 24.5387 8.26049 23.6803 7.24728 22.3928C5.19551 19.7564 3.92899 16.8624 3.51104 13.7846C3.16908 11.3444 3.87833 9.06355 5.68946 6.81952C6.66468 5.60554 7.82988 4.69813 9.17239 4.12179C10.2363 3.65582 11.2875 3.4351 12.3007 3.4351C13.3139 3.4351 14.2891 3.65582 15.239 4.09727C18.7219 5.71591 20.7484 8.56079 21.103 12.3008C21.0143 14.5939 20.5077 16.6049 19.4692 18.8122Z" fill="#27B83E"/>
<path d="M19.2285 13.2818V13.5516C19.2032 13.711 19.1905 13.8827 19.1398 14.0543C18.9752 14.5694 18.4433 14.9372 17.886 14.9372C17.8227 14.9372 17.7467 14.925 17.6833 14.9127C17.0501 14.8146 16.5815 14.2996 16.5561 13.6742C16.4928 11.9697 15.7962 10.5105 14.4157 9.19842C13.4405 8.27874 12.3766 7.81277 11.1481 7.77598C10.3755 7.75145 9.8056 7.18738 9.81826 6.47616C9.84359 5.76494 10.4262 5.21313 11.1861 5.21313H11.2114C12.7693 5.21313 14.2258 5.71589 15.5303 6.70915C17.7213 8.37684 18.9625 10.5841 19.2285 13.2818Z" fill="#27B83E"/>
</g>
<defs>
<clipPath id="clip0_519_420">
<rect width="23" height="40" fill="white" transform="translate(0.75 0.859985)"/>
</clipPath>
</defs>
</svg>
