<svg width="41" height="22" viewBox="0 0 41 22" fill="none" xmlns="http://www.w3.org/2000/svg">
<g clip-path="url(#clip0_519_433)">
<path d="M0.75 9.21C0.78 9.07 0.81 8.93 0.85 8.79C1.12 7.9 1.71 7.32 2.61 7.09C4.18 6.69 5.75 6.3 7.33 5.91C7.5 5.87 7.61 5.78 7.71 5.64C8.42 4.56 9.14 3.48 9.86 2.41C10.54 1.39 11.49 0.879995 12.73 0.879995C16.65 0.879995 20.58 0.879995 24.5 0.879995C25.77 0.879995 26.73 1.4 27.42 2.45C27.96 3.27 28.5 4.08 29.04 4.89C29.08 4.95 29.13 5.01 29.18 5.09C29.23 5.02 29.27 4.97 29.31 4.91C30.11 3.72 30.9 2.53 31.69 1.33C31.9 1.01 32.17 0.869995 32.55 0.869995C34.13 0.869995 35.71 0.869995 37.29 0.869995C37.91 0.869995 38.3 1.49 38.02 2.03C37.86 2.34 37.6 2.47 37.26 2.47C35.86 2.47 34.47 2.47 33.07 2.47C32.92 2.47 32.83 2.52 32.75 2.64C32.06 3.69 31.36 4.73 30.66 5.77999C30.63 5.82999 30.6 5.88 30.55 5.95C30.76 5.99 30.95 6.02 31.14 6.05C33.01 6.36 34.88 6.67 36.75 6.99C37.17 7.06 37.61 7.10999 38.02 7.22999C39.01 7.50999 39.71 8.39999 39.73 9.43999C39.76 10.58 39.75 11.73 39.73 12.87C39.73 13.13 39.64 13.4 39.53 13.64C39.13 14.48 38.7 15.31 38.29 16.14C37.97 16.79 37.44 17.11 36.72 17.1C35.6 17.1 34.47 17.1 33.35 17.1C33.21 17.1 33.15 17.15 33.12 17.28C32.67 19.1 31.05 20.36 29.19 20.36C27.34 20.36 25.72 19.1 25.26 17.29C25.22 17.14 25.17 17.1 25.02 17.1C21.57 17.1 18.11 17.1 14.66 17.1C14.52 17.1 14.46 17.14 14.43 17.28C14 18.94 12.7 20.09 11.01 20.33C9.03 20.61 7.09 19.3 6.59 17.35C6.54 17.14 6.46 17.1 6.26 17.1C5.58 17.11 4.9 17.11 4.22 17.1C2.49 17.07 0.99 15.7 0.79 13.99C0.79 13.93 0.76 13.88 0.75 13.83V9.21999V9.21ZM18.64 2.47C16.68 2.47 14.72 2.47 12.76 2.47C12.08 2.47 11.57 2.74 11.19 3.31C10.4 4.52 9.59 5.72 8.79 6.92C8.64 7.14 8.45 7.27999 8.19 7.34999C6.48 7.76999 4.77 8.2 3.07 8.63C2.6 8.75 2.38 9.03 2.38 9.5C2.38 10.83 2.38 12.17 2.38 13.5C2.38 14.64 3.24 15.49 4.39 15.5C5.04 15.5 5.68 15.5 6.33 15.5C6.49 15.5 6.54 15.45 6.58 15.3C7.05 13.48 8.67 12.23 10.51 12.24C12.38 12.25 13.96 13.49 14.43 15.31C14.47 15.45 14.52 15.5 14.67 15.5C18.12 15.5 21.58 15.5 25.03 15.5C25.17 15.5 25.22 15.46 25.26 15.32C25.71 13.5 27.34 12.24 29.19 12.24C31.06 12.24 32.66 13.5 33.12 15.32C33.15 15.46 33.22 15.5 33.35 15.5C34.44 15.5 35.53 15.5 36.63 15.5C36.77 15.5 36.84 15.45 36.9 15.33C37.27 14.58 37.65 13.85 38.01 13.1C38.08 12.95 38.13 12.76 38.13 12.59C38.14 11.61 38.13 10.64 38.13 9.66C38.13 9.1 37.87 8.80999 37.32 8.71999C36.52 8.58999 35.72 8.45999 34.92 8.31999C33.01 7.99999 31.11 7.69 29.2 7.37C28.91 7.32 28.67 7.22 28.5 6.97C27.69 5.75 26.87 4.53 26.07 3.31C25.7 2.74 25.18 2.47 24.51 2.47C22.56 2.47 20.6 2.47 18.65 2.47H18.64ZM29.2 13.85C27.88 13.85 26.79 14.92 26.74 16.18C26.69 17.56 27.81 18.73 29.17 18.73C30.49 18.73 31.6 17.65 31.63 16.37C31.66 14.94 30.51 13.83 29.2 13.84V13.85ZM8.06 16.27C8.06 17.62 9.13 18.72 10.47 18.73C11.84 18.73 12.95 17.66 12.95 16.31C12.95 14.96 11.88 13.86 10.54 13.85C9.17 13.85 8.07 14.92 8.06 16.27Z" fill="#27B83E"/>
<path d="M10.49 21.1C8.48 21.1 6.61 19.77 5.96 17.84C5.37 17.84 4.79 17.84 4.21 17.84C2.12 17.81 0.29 16.15 0.04 14.07L0 13.82L0.04 8.92999C0.07 8.80999 0.09 8.68999 0.13 8.56999C0.48 7.41999 1.27 6.64999 2.42 6.35999C3.99 5.95999 5.57 5.56999 7.15 5.17999C7.61 4.41999 8.14 3.62999 8.68 2.82999L9.24 1.98999C10.06 0.739985 11.23 0.109985 12.72 0.109985C16.65 0.109985 20.57 0.109985 24.49 0.109985H24.5C26.02 0.109985 27.21 0.749985 28.04 2.01999C28.41 2.58999 28.79 3.14999 29.16 3.70999V3.72999L29.22 3.65999C29.83 2.73999 30.45 1.81999 31.06 0.899985C31.41 0.369985 31.9 0.109985 32.54 0.109985H32.55C33.46 0.109985 34.37 0.109985 35.28 0.109985H37.29C37.85 0.109985 38.35 0.389985 38.64 0.859985C38.92 1.31999 38.94 1.87999 38.69 2.36999C38.41 2.91999 37.86 3.23999 37.26 3.20999H35.5C34.76 3.20999 34.01 3.20999 33.27 3.20999C32.81 3.90999 32.35 4.59999 31.88 5.28999L31.81 5.38999L37.15 6.27999C37.51 6.33999 37.87 6.39999 38.22 6.48999C39.54 6.86999 40.45 8.03999 40.48 9.39999C40.5 10.43 40.5 11.53 40.48 12.86C40.48 13.29 40.33 13.68 40.21 13.93C39.89 14.61 39.55 15.28 39.21 15.95L38.96 16.45C38.5 17.35 37.7 17.81 36.71 17.83H33.73C33.07 19.76 31.26 21.08 29.19 21.08C27.13 21.08 25.31 19.76 24.65 17.82C21.45 17.82 18.25 17.82 15.05 17.82C14.45 19.56 12.98 20.78 11.13 21.04C10.92 21.07 10.71 21.08 10.5 21.08L10.49 21.1ZM6.28 16.34C6.81 16.34 7.18 16.63 7.32 17.15C7.73 18.73 9.3 19.8 10.91 19.57C12.3 19.38 13.35 18.44 13.71 17.07C13.83 16.6 14.18 16.33 14.67 16.33C18.12 16.33 21.58 16.33 25.03 16.33C25.52 16.33 25.87 16.61 25.99 17.09C26.37 18.56 27.68 19.59 29.19 19.59C30.71 19.59 32.03 18.56 32.39 17.08C32.51 16.61 32.91 16.32 33.35 16.33H36.73C37.17 16.33 37.43 16.18 37.62 15.79L37.88 15.28C38.21 14.62 38.55 13.96 38.86 13.3C38.94 13.14 38.98 12.97 38.99 12.84C39.01 11.53 39.01 10.45 38.99 9.43999C38.97 8.73999 38.5 8.12999 37.82 7.93999C37.53 7.85999 37.23 7.80999 36.93 7.75999L29.34 6.47999L30.65 4.44999C31.15 3.69999 31.65 2.94999 32.14 2.20999C32.36 1.86999 32.66 1.70999 33.09 1.69999C33.9 1.69999 34.7 1.69999 35.51 1.69999H37.28L37.38 1.66999L35.3 1.59999C34.39 1.59999 33.48 1.59999 32.57 1.59999C32.45 1.62999 32.41 1.60999 32.34 1.71999C31.73 2.64999 31.11 3.56999 30.5 4.48999L29.23 6.29999L28.44 5.27999L27.94 4.53999C27.56 3.96999 27.18 3.40999 26.81 2.83999C26.26 1.99999 25.53 1.59999 24.52 1.59999C20.6 1.59999 16.67 1.59999 12.75 1.59999C11.77 1.59999 11.05 1.97999 10.51 2.79999L9.95 3.63999C9.42 4.42999 8.89 5.22999 8.36 6.02999C8.16 6.33999 7.88 6.52999 7.53 6.61999C5.96 6.99999 4.38 7.38999 2.82 7.79999C2.18 7.95999 1.79 8.33999 1.59 8.99999C1.57 9.06999 1.55 9.14999 1.54 9.21999V13.71C1.54 13.78 1.56 13.83 1.56 13.89C1.72 15.24 2.9 16.31 4.26 16.33C4.93 16.33 5.6 16.33 6.27 16.33H6.3L6.28 16.34ZM29.17 19.49C28.31 19.49 27.51 19.14 26.9 18.51C26.29 17.88 25.96 17.02 25.99 16.16C26.05 14.47 27.48 13.1 29.18 13.1H29.2C30.03 13.1 30.85 13.45 31.45 14.05C32.07 14.68 32.4 15.51 32.38 16.4C32.35 18.1 30.91 19.49 29.17 19.49ZM29.19 14.6C28.3 14.6 27.53 15.34 27.49 16.21C27.47 16.68 27.65 17.13 27.98 17.47C28.3 17.8 28.73 17.99 29.17 17.99C30.08 17.99 30.86 17.25 30.88 16.37C30.88 15.89 30.71 15.44 30.38 15.11C30.07 14.79 29.64 14.61 29.2 14.61H29.18L29.19 14.6ZM10.48 19.49H10.46C8.71 19.48 7.3 18.03 7.31 16.27C7.31 15.42 7.65 14.62 8.25 14.03C8.86 13.43 9.65 13.08 10.54 13.1C12.28 13.11 13.7 14.55 13.69 16.31C13.69 17.16 13.35 17.96 12.75 18.55C12.14 19.15 11.34 19.48 10.48 19.48V19.49ZM10.52 14.6C10.06 14.6 9.62 14.77 9.3 15.09C8.98 15.4 8.81 15.82 8.8 16.27C8.8 17.2 9.54 17.97 10.46 17.98C10.92 17.95 11.36 17.81 11.69 17.48C12.01 17.17 12.18 16.75 12.19 16.3C12.19 15.36 11.45 14.6 10.53 14.59H10.52V14.6ZM6.33 16.25H6.31C5.93 16.25 5.54 16.25 5.16 16.25H4.38C2.82 16.25 1.64 15.06 1.63 13.51C1.63 12.34 1.63 11.18 1.63 10.01V9.50998C1.63 8.69998 2.09 8.10999 2.89 7.90999C4.6 7.47999 6.31 7.04999 8.02 6.62999C8.09 6.60999 8.13 6.58999 8.18 6.51999L9.18 5.00999C9.65 4.30999 10.11 3.60999 10.58 2.90999C11.09 2.12999 11.83 1.73999 12.76 1.73999H12.77C14.17 1.73999 15.57 1.73999 16.97 1.73999H20.33C21.72 1.73999 23.12 1.73999 24.52 1.73999C25.46 1.73999 26.19 2.13999 26.7 2.91999C27.19 3.66999 27.69 4.41999 28.19 5.16999L29.13 6.57999C29.13 6.57999 29.16 6.62999 29.33 6.64999L35.59 7.68999C36.21 7.78999 36.83 7.89999 37.45 7.99999C38.37 8.14999 38.89 8.75999 38.89 9.67999V10.27C38.89 11.05 38.89 11.84 38.89 12.62C38.89 12.9 38.82 13.19 38.7 13.44C38.49 13.88 38.28 14.31 38.06 14.74L37.59 15.68C37.4 16.06 37.07 16.27 36.65 16.27C35.56 16.27 34.47 16.27 33.38 16.27C32.89 16.27 32.53 15.99 32.42 15.53C32.05 14.05 30.73 13.02 29.22 13.01C27.7 13.01 26.39 14.04 26.02 15.52C25.9 15.99 25.55 16.27 25.06 16.27C21.61 16.27 18.15 16.27 14.7 16.27C14.22 16.27 13.87 16 13.74 15.52C13.36 14.03 12.07 13.03 10.54 13.02C9.05 13 7.73 14.04 7.34 15.52C7.21 16.01 6.86 16.28 6.37 16.28L6.33 16.25ZM10.49 11.49H10.52C12.61 11.5 14.39 12.8 15.05 14.75C18.25 14.75 21.45 14.75 24.65 14.75C25.31 12.81 27.12 11.49 29.19 11.49C31.25 11.49 33.07 12.81 33.73 14.75C34.6 14.75 35.48 14.75 36.35 14.75L36.7 14.04C36.91 13.62 37.12 13.19 37.33 12.77C37.36 12.72 37.37 12.64 37.37 12.58C37.37 11.8 37.37 11.02 37.37 10.24V9.64999C37.37 9.54999 37.35 9.49999 37.35 9.48999C37.35 9.48999 37.3 9.46999 37.19 9.44999C36.57 9.34999 35.94 9.24999 35.32 9.13999L29.07 8.09999C28.87 8.06999 28.26 7.96999 27.86 7.36999L26.93 5.96999C26.43 5.21999 25.93 4.45999 25.43 3.70999C25.2 3.35999 24.93 3.20999 24.5 3.20999C23.1 3.20999 21.71 3.20999 20.31 3.20999H16.95C15.55 3.20999 14.15 3.20999 12.74 3.20999C12.31 3.20999 12.04 3.34999 11.81 3.70999C11.35 4.41999 10.88 5.11999 10.41 5.81999L9.41 7.31999C9.16 7.69999 8.8 7.94999 8.36 8.05999C6.65 8.47999 4.95 8.90998 3.24 9.33998C3.17 9.35998 3.14 9.37999 3.13 9.37999C3.13 9.37999 3.13 9.41999 3.13 9.47999V9.97999C3.13 11.15 3.13 12.31 3.13 13.47C3.13 14.2 3.65 14.72 4.39 14.72H5.16C5.43 14.72 5.7 14.72 5.96 14.72C6.63 12.78 8.43 11.46 10.48 11.46L10.49 11.49Z" fill="#27B83E"/>
</g>
<defs>
<clipPath id="clip0_519_433">
<rect width="40.5" height="20.99" fill="white" transform="translate(0 0.109985)"/>
</clipPath>
</defs>
</svg>
