<svg width="40" height="32" viewBox="0 0 40 32" fill="none" xmlns="http://www.w3.org/2000/svg">
<g clip-path="url(#clip0_519_339)">
<path d="M4.8 4.47004C4.8 3.59004 4.8 2.74004 4.8 1.90004C4.8 0.880038 5.27 0.370038 6.3 0.290038C8.18 0.140038 10.05 0.170038 11.9 0.530038C15.12 1.15004 17.97 2.47004 20.12 5.06004C20.15 5.10004 20.19 5.13004 20.25 5.18004C20.57 4.84004 20.86 4.51004 21.18 4.19004C23.07 2.32004 25.38 1.25004 27.94 0.680038C30.01 0.200038 32.1 0.120038 34.21 0.290038C35.24 0.370038 35.7 0.870038 35.7 1.91004C35.7 2.75004 35.7 3.58004 35.7 4.45004C35.83 4.45004 35.93 4.47004 36.04 4.47004C36.76 4.47004 37.49 4.51004 38.21 4.47004C39.09 4.41004 39.76 5.06004 39.75 6.02004C39.72 8.24004 39.75 10.46 39.74 12.67C39.74 18.51 39.74 24.35 39.74 30.2C39.74 31.03 39.38 31.55 38.66 31.67C38.4 31.71 38.11 31.64 37.85 31.58C36.29 31.23 34.74 30.79 33.16 30.52C31.15 30.18 29.12 30.04 27.07 30.17C25.2 30.29 23.36 30.55 21.64 31.27C20.67 31.68 19.85 31.7 18.87 31.27C17.47 30.65 15.96 30.41 14.43 30.24C11.7 29.95 8.99 30.16 6.31 30.69C5.06 30.94 3.84 31.28 2.61 31.6C1.53 31.89 0.76 31.33 0.76 30.21C0.75 22.13 0.76 14.04 0.75 5.96004C0.75 5.05004 1.39 4.41004 2.26 4.46004C3.09 4.51004 3.93 4.47004 4.8 4.47004ZM7.44 2.88004V23.04C11.66 22.99 15.62 23.76 18.96 26.64C18.96 20.41 18.96 14.26 18.96 8.12004C18.96 7.99004 18.91 7.85004 18.84 7.74004C17.61 5.77004 15.85 4.50004 13.69 3.71004C12.45 3.25004 11.15 3.03004 9.85 2.90004C9.06 2.82004 8.26 2.89004 7.45 2.89004L7.44 2.88004ZM33.08 2.88004C33.01 2.87004 32.94 2.85004 32.88 2.85004C31.11 2.79004 29.37 2.97004 27.67 3.45004C25.49 4.07004 23.6 5.16004 22.2 6.99004C21.92 7.36004 21.55 7.69004 21.55 8.23004C21.55 13.37 21.55 18.52 21.55 23.66C21.55 24.63 21.55 25.6 21.55 26.65C24.91 23.75 28.87 23 33.08 23.03V2.88004ZM24.36 27.81C28.71 27.16 32.93 27.59 37.11 28.63V7.09004H35.71V7.57004C35.71 13.11 35.71 18.64 35.71 24.18C35.71 24.28 35.71 24.38 35.71 24.48C35.68 25.22 35.13 25.76 34.39 25.75C34.02 25.75 33.66 25.69 33.29 25.68C31.37 25.62 29.47 25.75 27.62 26.29C26.48 26.62 25.4 27.09 24.36 27.8V27.81ZM3.39 28.64C7.61 27.57 11.82 27.17 16.1 27.8C16.09 27.78 16.08 27.75 16.07 27.74C16.02 27.7 15.96 27.67 15.91 27.64C14.41 26.7 12.78 26.16 11.03 25.9C9.56 25.68 8.09 25.63 6.6 25.75C5.29 25.86 4.8 25.37 4.8 24.05C4.8 18.54 4.8 13.03 4.8 7.52004V7.09004H3.39V28.64Z" fill="#27B83E"/>
</g>
<defs>
<clipPath id="clip0_519_339">
<rect width="39" height="31.48" fill="white" transform="translate(0.75 0.200012)"/>
</clipPath>
</defs>
</svg>
