<svg width="37" height="32" viewBox="0 0 37 32" fill="none" xmlns="http://www.w3.org/2000/svg">
<g clip-path="url(#clip0_519_381)">
<g clip-path="url(#clip1_519_381)">
<path d="M26.3128 7.06688C25.8787 6.597 25.3844 6.10302 24.7574 5.51266C24.2631 5.04278 23.6603 4.82591 22.9369 4.85001C22.2617 4.87411 21.6709 5.13917 21.2007 5.6211L13.5688 13.2356L13.5085 13.2958C12.9177 13.8862 12.3149 14.5006 11.8085 15.2356C11.5191 15.6693 11.1816 16.1874 11.0489 16.838C10.856 17.7657 10.639 18.6934 10.4099 19.6331C10.3617 19.9223 10.3014 20.2356 10.2411 20.5368L10 21.85L12.0738 21.4283L12.2667 21.3922C13.1589 21.1874 14.0631 20.9825 14.9433 20.7657C15.1723 20.7175 15.3411 20.6572 15.4617 20.585C15.9199 20.3078 16.366 20.0307 16.8 19.7536L17.0773 19.585C17.3184 19.4163 17.5716 19.2356 17.8007 19.0187C18.3191 18.5247 18.8255 18.0307 19.356 17.5006L26.2043 10.6452C26.7348 10.1151 27 9.45242 27 8.78977C27 8.17531 26.7709 7.56085 26.3128 7.06688ZM24.673 9.06688L23.7447 10.0187L21.8277 8.09098L22.7681 7.15122C22.9248 6.99459 23.166 6.99459 23.3106 7.15122L24.6851 8.52471C24.8539 8.68134 24.8418 8.8982 24.673 9.06688ZM12.7972 19.0307L13.0021 18.103L13.7255 18.8259C13.4121 18.8862 13.1106 18.9584 12.7972 19.0307ZM16.9326 16.8139C16.7518 16.9825 16.583 17.1512 16.4142 17.3319C16.2454 17.5006 16.0404 17.6452 15.8113 17.7898L13.9908 15.9584C14.256 15.6331 14.5695 15.3199 14.895 15.0066L20.2603 9.64519L22.1773 11.5729L16.9326 16.8139Z" fill="#27B83E"/>
</g>
<path d="M36.51 4.67L36.49 3.61C36.47 2.91 36.26 2.29 35.85 1.79C35.58 1.46 35.3 1.16 35.01 0.920005C34.53 0.510005 34.06 0.300005 33.56 0.250005H33.43C33.07 0.210005 32.71 0.180005 32.35 0.180005C30.72 0.160005 29.09 0.140005 27.46 0.140005C21.54 0.130005 15.61 0.130005 9.67999 0.130005C8.57999 0.130005 7.46999 0.150005 6.36999 0.160005C5.47999 0.170005 4.58999 0.170005 3.68999 0.180005C2.73999 0.180005 1.90999 0.520005 1.19999 1.17C0.759992 1.59 0.409992 2.12 0.149992 2.83C0.0899924 3 0.00999235 3.2 0.00999235 3.44C-7.64802e-06 8.99001 -7.64779e-06 14.54 -7.64779e-06 20.08V22.88C-7.64779e-06 22.95 -0.0100076 23.06 0.0399924 23.18C0.239992 23.77 0.549992 24.51 1.17999 25.1C1.92999 25.8 2.81999 26.14 3.90999 26.14C6.26999 26.14 8.60999 26.15 10.95 26.16L14.48 26.18V28.8H11.17V31.99H25.42V28.79H22.05V26.17H25.03C27.63 26.16 30.22 26.15 32.81 26.13C34.34 26.12 35.49 25.34 36.23 23.83C36.52 23.24 36.52 22.62 36.52 22.03V19.24C36.54 15.22 36.55 11.19 36.55 7.16001C36.56 6.33001 36.53 5.5 36.51 4.67ZM3.20999 7.27V3.8C3.21999 3.67 3.44999 3.43 3.57999 3.43L4.90999 3.41C6.28999 3.39 7.65999 3.37 9.02999 3.37H18.87C23.47 3.36 28.06 3.35 32.65 3.34H32.66C32.87 3.34 33 3.4 33.17 3.56C33.28 3.67 33.31 3.75 33.31 3.88C33.3 9.05 33.3 14.21 33.3 19.37V22.46C33.3 22.57 33.27 22.82 32.98 22.84C32.36 22.88 31.73 22.92 31.11 22.92H21.41L15.32 22.95C11.51 22.95 7.69999 22.95 3.89999 22.96H3.88999C3.62999 22.96 3.45999 22.85 3.25999 22.57C3.20999 22.51 3.17999 22.44 3.17999 22.27C3.19999 17.27 3.19999 12.27 3.20999 7.27Z" fill="#27B83E"/>
</g>
<defs>
<clipPath id="clip0_519_381">
<rect width="36.55" height="31.86" fill="white" transform="translate(0 0.130005)"/>
</clipPath>
<clipPath id="clip1_519_381">
<rect width="17" height="17" fill="white" transform="translate(10 4.85004)"/>
</clipPath>
</defs>
</svg>
