<svg width="41" height="44" viewBox="0 0 41 44" fill="none" xmlns="http://www.w3.org/2000/svg">
<g clip-path="url(#clip0_519_436)">
<path d="M11.39 43.12C10.96 43.02 10.53 42.94 10.11 42.8C8.97996 42.42 7.98996 41.79 7.08996 41.02C4.21996 38.58 2.11996 35.59 0.78996 32.06C0.42996 31.1 0.23996 30.09 0.18996 29.07C0.12996 27.95 0.0699596 26.83 0.0999596 25.72C0.19996 21.84 1.27996 18.23 3.30996 14.92C5.77996 10.9 9.18996 7.95996 13.51 6.07996C15.5 5.21996 17.58 4.68996 19.73 4.43996C22.06 4.16996 24.36 4.36996 26.66 4.80996C26.8 4.83996 26.94 4.86996 27.11 4.89996C26.97 5.34996 26.84 5.78996 26.71 6.21996C26.7 6.26996 26.64 6.29996 26.59 6.32996C26.25 6.53996 25.92 6.74996 25.57 6.94996C25.49 6.98996 25.38 7.00996 25.3 6.99996C22.84 6.57996 20.38 6.65996 17.94 7.18996C10.9 8.71996 5.14996 14.16 3.21996 21.11C2.61996 23.26 2.37996 25.45 2.53996 27.67C2.75996 30.7 3.68996 33.5 5.24996 36.09C6.88996 38.82 9.03996 41.08 11.6 42.96C11.66 43 11.71 43.06 11.76 43.11H11.38L11.39 43.12Z" fill="#27B83E"/>
<path d="M40.4 10.45C40.32 10.7 40.27 10.96 40.16 11.2C39.95 11.65 39.6 11.81 39.11 11.72C38.63 11.64 38.21 11.43 37.79 11.21C36.84 10.7 35.88 10.18 34.91 9.65998C34.86 9.72998 34.8 9.79998 34.74 9.87998C33.66 11.18 32.59 12.48 31.51 13.77C31.36 13.95 31.18 14.11 31.01 14.27C30.72 14.55 30.39 14.59 30.04 14.41C29.81 14.29 29.61 14.11 29.39 13.96L32.91 8.05998C32.91 8.05998 32.83 7.97998 32.78 7.94998C31.93 7.35998 31.08 6.76998 30.23 6.17998C30.12 6.10998 30.05 6.09998 29.93 6.16998C29.28 6.52998 28.61 6.87998 27.96 7.23998C27.84 7.30998 27.76 7.30998 27.66 7.19998C27.42 6.94998 27.15 6.71998 26.88 6.45998C26.98 6.38998 27.03 6.33998 27.08 6.29998C27.51 5.96998 27.93 5.63998 28.36 5.31998C28.91 4.90998 29.24 4.36998 29.36 3.69998C29.48 3.04998 29.59 2.40998 29.7 1.75998C29.71 1.69998 29.72 1.63998 29.74 1.54998C30.07 1.84998 30.39 2.11998 30.69 2.40998C30.74 2.44998 30.75 2.54998 30.75 2.61998C30.76 3.24998 30.77 3.87998 30.78 4.50998C30.78 4.61998 30.81 4.67998 30.92 4.72998C31.97 5.17998 33.01 5.62998 34.05 6.08998C34.07 6.09998 34.1 6.10998 34.15 6.11998L37.41 0.0999756C38.15 0.339976 38.56 0.979976 38.36 1.72998C38.04 2.97998 37.67 4.21998 37.31 5.45998C37.13 6.05998 36.93 6.63998 36.72 7.22998C36.65 7.42998 36.7 7.51998 36.87 7.61998C37.77 8.15998 38.66 8.70998 39.56 9.24998C39.99 9.49998 40.33 9.80998 40.4 10.33V10.46V10.45Z" fill="#27B83E"/>
<path d="M26.0499 13.89C27.6099 15.45 28.5799 17.35 29.2999 19.43C30.2999 19.06 31.2499 18.61 32.1899 18L30.6799 16.49L31.5499 15.71C36.4599 19.76 38.5899 27.98 34.2199 34.78C29.8199 41.63 20.8499 43.62 13.9699 39.39C7.07994 35.15 4.84994 26.13 9.02994 19.19C13.2899 12.11 21.8199 10.31 28.1499 13.42L27.5199 14.44L26.0899 13.86L26.0599 13.9L26.0499 13.89ZM21.1199 26.63V21.96C20.0699 21.85 19.0199 21.78 17.9899 21.62C16.9599 21.46 15.9499 21.21 14.9199 20.99C14.5299 22.08 14.0699 25.77 14.2199 26.63H21.1199ZM28.4999 21.01C27.4699 21.22 26.4699 21.47 25.4499 21.62C24.4299 21.78 23.3899 21.84 22.3599 21.95V26.62H29.2099C29.1899 24.7 28.9699 22.82 28.4999 21.01ZM29.6299 20.57C30.1699 22.57 30.4099 24.58 30.4399 26.63H35.3499C35.2999 23.81 34.4699 21.27 32.8599 18.95C31.8499 19.62 30.7799 20.14 29.6299 20.57ZM10.5699 19.01C8.99994 21.27 8.16994 23.82 8.12994 26.63H12.9699C12.9699 24.56 13.2399 22.54 13.7599 20.61L10.5699 19V19.01ZM15.2199 19.76C16.4599 20.24 20.1699 20.8 21.1099 20.66V13.21C21.1099 13.21 21.0499 13.21 21.0199 13.21C20.1299 13.35 19.3499 13.75 18.6599 14.32C17.5699 15.21 16.7799 16.33 16.1699 17.58C15.8199 18.29 15.5399 19.02 15.2199 19.76ZM15.2699 33.75C15.2699 33.75 15.2699 33.83 15.2899 33.87C15.8399 35.47 16.5599 36.97 17.6699 38.26C18.4099 39.11 19.2699 39.81 20.3599 40.16C20.5999 40.24 20.8499 40.29 21.1099 40.35V32.85C19.1199 32.91 17.1799 33.18 15.2699 33.75ZM22.3499 32.85V40.33C22.4299 40.32 22.4999 40.31 22.5699 40.29C23.4699 40.1 24.2399 39.66 24.9199 39.06C26.0299 38.1 26.7999 36.89 27.4099 35.57C27.6799 34.98 27.9099 34.36 28.1699 33.74C26.2399 33.17 24.3199 32.91 22.3399 32.85H22.3499ZM22.3499 20.69C24.3299 20.64 26.2499 20.37 28.1299 19.82C28.1299 19.78 28.1299 19.75 28.1199 19.74C27.6699 18.42 27.0999 17.17 26.2899 16.03C25.5499 15 24.6899 14.11 23.5099 13.58C23.1499 13.42 22.7499 13.32 22.3499 13.18V20.69ZM14.2099 27.88C14.2799 29.5 14.4999 31.06 14.9199 32.62C16.9599 32 19.0199 31.71 21.1099 31.64V27.88H14.2099ZM22.3499 31.64C24.4399 31.7 26.4899 32 28.4799 32.59C28.8199 31.53 29.2499 28.53 29.1599 27.89H22.3499V31.65V31.64ZM32.8599 34.6C34.2699 32.56 35.0899 30.34 35.2999 27.88H30.4099C30.3299 29.61 30.0799 31.3 29.6299 32.97C30.7699 33.4 31.8399 33.91 32.8599 34.6ZM13.7499 32.94C13.3099 31.32 13.0599 29.62 12.9799 27.89H8.15994C8.36994 30.36 9.18994 32.58 10.5599 34.55L13.7499 32.95V32.94ZM26.0399 39.67C28.4599 38.86 30.4799 37.47 32.1399 35.53C31.2199 34.94 30.2799 34.49 29.2799 34.13C28.5499 36.21 27.5799 38.11 26.0299 39.68L26.0399 39.67ZM11.3399 18.01C12.2299 18.59 13.1599 19.04 14.1399 19.4C14.8499 17.35 15.8099 15.47 17.3299 13.91C14.9599 14.72 12.9799 16.09 11.3399 18.01ZM11.3399 35.51C12.9799 37.43 14.9599 38.81 17.3399 39.62C15.8099 38.06 14.8499 36.17 14.1299 34.13C13.1499 34.5 12.2199 34.94 11.3399 35.52V35.51Z" fill="#27B83E"/>
<path d="M21.8 42.36C19 42.36 16.1599 41.6 13.5799 40.01C6.34995 35.56 4.01995 26.04 8.38995 18.78C13.0299 11.08 22.2499 9.65996 28.4799 12.72L29.22 13.09L28 15.06C28.67 16.03 29.24 17.14 29.74 18.44C30.17 18.26 30.5799 18.06 30.9799 17.84L29.59 16.45L31.53 14.71L32.03 15.12C37.07 19.28 39.51 27.92 34.85 35.17C31.86 39.82 26.9 42.36 21.8 42.36ZM24.17 40.49C24 40.58 23.83 40.66 23.65 40.73C23.76 40.72 23.8699 40.7 23.9799 40.68L24.17 40.49ZM19.3999 40.65C19.4999 40.67 19.6 40.69 19.71 40.7C19.55 40.63 19.3899 40.56 19.2299 40.47L19.3999 40.65ZM16.2399 34.25C16.7799 35.66 17.4399 36.8 18.2599 37.76C18.9399 38.55 19.62 39.06 20.38 39.35V33.62C18.92 33.71 17.5499 33.91 16.2499 34.25H16.2399ZM23.12 33.62V39.33C23.57 39.14 24.01 38.86 24.45 38.48C25.36 37.69 26.12 36.63 26.76 35.24C26.91 34.91 27.05 34.57 27.19 34.22C25.89 33.89 24.55 33.69 23.13 33.61L23.12 33.62ZM29.74 35.08C29.36 36.05 28.9499 36.92 28.4799 37.7C29.3799 37.14 30.2099 36.47 30.9799 35.68C30.5799 35.46 30.1599 35.26 29.7299 35.08H29.74ZM12.51 35.68C13.25 36.44 14.04 37.09 14.9 37.63C14.45 36.87 14.06 36.03 13.69 35.1C13.27 35.28 12.88 35.47 12.51 35.68ZM30.53 32.5C31.3 32.82 32 33.17 32.65 33.55C33.61 32.01 34.2099 30.38 34.4699 28.61H31.13C31.03 29.95 30.83 31.24 30.53 32.5ZM9.02995 28.61C9.28995 30.38 9.89995 32.03 10.84 33.55L12.89 32.52C12.59 31.28 12.3899 29.98 12.2899 28.61H9.01995H9.02995ZM15.03 28.61C15.11 29.68 15.2599 30.69 15.4799 31.66C17.0299 31.25 18.65 31 20.38 30.9V28.61H15.03ZM23.12 30.9C24.8 30.99 26.42 31.24 27.97 31.64C28.17 30.71 28.35 29.41 28.42 28.61H23.12V30.9ZM14.9599 25.87H20.38V22.63C20.28 22.63 20.1799 22.61 20.0899 22.6C19.3699 22.53 18.62 22.46 17.89 22.35C17.15 22.23 16.41 22.07 15.7 21.91C15.62 21.89 15.5499 21.88 15.4699 21.86C15.2199 22.97 14.9999 24.84 14.9599 25.87ZM31.19 25.87H34.58C34.43 23.73 33.79 21.79 32.65 19.97C31.99 20.36 31.29 20.7 30.53 21.02C30.9 22.56 31.12 24.16 31.18 25.87H31.19ZM8.92995 25.87H12.2499C12.2999 24.22 12.52 22.58 12.9 21L10.85 19.96C9.71995 21.76 9.07995 23.74 8.92995 25.86V25.87ZM23.13 25.87H28.46C28.41 24.49 28.24 23.15 27.96 21.89L27.74 21.94C27.04 22.09 26.31 22.25 25.58 22.36C24.84 22.47 24.09 22.54 23.37 22.61C23.29 22.61 23.21 22.62 23.13 22.63V25.87ZM16.2599 19.28C17.4599 19.58 19.34 19.86 20.39 19.92V14.17C19.97 14.34 19.5599 14.58 19.1599 14.9C18.2499 15.64 17.5 16.62 16.87 17.91C16.65 18.36 16.4599 18.82 16.2599 19.28ZM23.13 14.2V19.9C24.54 19.82 25.89 19.62 27.2 19.29C26.79 18.21 26.29 17.26 25.71 16.45C24.93 15.35 24.1399 14.65 23.2299 14.25C23.1999 14.23 23.16 14.22 23.13 14.21V14.2ZM12.52 17.84C12.9 18.05 13.2899 18.24 13.7099 18.42C14.0699 17.49 14.47 16.65 14.91 15.89C14.05 16.43 13.25 17.08 12.52 17.84ZM25.47 13.44L26.07 13.89L25.49 13.42L25.62 13.24C25.03 13.07 24.42 12.95 23.8 12.86C23.82 12.86 23.84 12.87 23.85 12.88C24.35 13.1 24.81 13.38 25.25 13.74L25.47 13.44ZM19.3399 12.93L19.21 13.06C19.32 13 19.43 12.94 19.54 12.89C19.47 12.9 19.4099 12.91 19.3399 12.92V12.93Z" fill="#27B83E"/>
</g>
<defs>
<clipPath id="clip0_519_436">
<rect width="40.3" height="43.02" fill="white" transform="translate(0.0999756 0.0999756)"/>
</clipPath>
</defs>
</svg>
