<svg width="41" height="41" viewBox="0 0 41 41" fill="none" xmlns="http://www.w3.org/2000/svg">
<g clip-path="url(#clip0_519_341)">
<path d="M40.12 3.49008C39.99 2.89008 39.73 2.40008 39.34 1.98008C38.89 1.50008 38.32 1.35008 37.83 1.25008C36.88 1.06008 35.94 0.870079 34.99 0.710079C34.11 0.550079 32.65 1.07008 32.31 2.41008C32.15 3.06008 32.01 3.71008 31.87 4.37008L31.75 4.90008C31.65 5.37008 31.55 5.86008 31.45 6.35008L30.32 6.22008L29.89 6.14008C29.52 5.15008 28.61 4.58008 27.53 4.60008C26.46 4.64008 25.93 5.34008 25.64 5.86008L24.13 5.83008C22.42 5.79008 20.7 5.76008 18.99 5.75008C17.99 5.75008 16.99 5.78008 15.99 5.82008L14.88 5.87008C14.52 5.05008 13.72 4.59008 12.74 4.66008C11.74 4.72008 11.04 5.24008 10.74 6.18008C10.24 6.22008 9.74 6.27008 9.23 6.32008L9.03 6.34008L9.01 6.26008C8.95 5.94008 8.89 5.64008 8.83 5.34008L8.67 4.57008C8.54 3.89008 8.4 3.21008 8.23 2.53008C7.9 1.28008 6.69 0.510079 5.4 0.730079C4.12 0.960079 3.15 1.15008 2.25 1.36008C1.33 1.57008 0.720003 2.24008 0.430003 3.33008L0.370003 3.91008L0.660003 5.41008C0.820003 6.30008 0.980003 7.20008 1.15 8.09008C1.54 10.1401 1.93 12.2001 2.34 14.2501C2.6 15.5301 3.73 16.4001 4.96 16.2401C6.13 16.1001 7.29 15.8901 8.43 15.6201C9.62 15.3301 10.44 14.0501 10.22 12.8201C9.97 11.4401 9.72 10.0701 9.47 8.67008L9.88 8.62008C10.13 8.59008 10.38 8.56008 10.64 8.53008L10.72 9.64008C10.79 10.5801 10.86 11.5401 10.98 12.4901C11.11 13.5701 11.31 14.7501 11.58 16.0801C12.06 18.4401 13.02 20.4801 14.42 22.1701C14.53 22.3001 14.62 22.4701 14.67 22.6401C14.83 23.2301 14.98 23.8201 15.13 24.4101C15.24 24.8701 15.36 25.3301 15.49 25.8001C14.5 26.7401 13.51 27.6901 12.52 28.6301L9.64 31.4001C8.15 32.8201 6.66 34.2501 5.16 35.6601C4.34 36.4301 4.04 37.3201 4.23 38.3801C4.41 39.3701 5.36 40.3801 6.53 40.3101C6.66 40.3001 6.78 40.3001 6.91 40.3101C7.44 40.3301 7.93 40.1801 8.39 39.8301L16.67 33.5701C17.53 32.9201 18.39 32.2601 19.25 31.6001L21.3 29.9901L23.74 30.4501C24.68 30.6201 25.61 30.8001 26.58 30.9801C26.54 31.5001 26.5 32.0101 26.47 32.5301L26.3 34.8001C26.24 35.6201 26.17 36.4401 26.13 37.2701C26.08 38.2101 26.35 39.0301 26.95 39.6901C27.25 40.0201 27.57 40.2201 27.92 40.2901C28.21 40.3501 28.47 40.3801 28.72 40.3801C29.01 40.3801 29.29 40.3401 29.55 40.2601C30.47 39.9901 31.09 39.3001 31.4 38.2001C31.56 37.6201 31.66 37.0201 31.77 36.4001C31.98 35.1401 32.18 33.8701 32.37 32.6001C32.6 31.0801 32.82 29.5701 33.03 28.0501C33.16 27.1301 32.63 26.1901 31.78 25.8201C31.26 25.6001 30.74 25.3801 30.22 25.1901C28.93 24.7001 27.63 24.2201 26.32 23.7401L26.34 23.5401C26.41 23.1001 26.47 22.6601 26.51 22.2201C26.55 21.7901 26.66 21.3901 26.85 20.9801L27 20.6501C27.32 19.9601 27.66 19.2501 27.93 18.5201C29.06 15.5401 29.5 12.3801 29.78 9.68008L29.91 8.53008L31.03 8.67008L30.88 9.52008C30.72 10.3601 30.57 11.1901 30.42 12.0301L30.36 12.3101C30.3 12.6201 30.24 12.9401 30.24 13.2701C30.25 14.3401 31.04 15.3501 32.06 15.6201C33.44 15.9901 34.58 16.1901 35.65 16.2501C36.78 16.3401 37.87 15.5101 38.12 14.4001C38.3 13.5901 38.46 12.7701 38.62 11.9501C38.94 10.2701 39.25 8.60008 39.57 6.92008L40.13 3.94008V3.49008H40.12ZM7.9 13.3401C7.9 13.3401 7.87 13.3801 7.68 13.4201C6.8 13.6101 5.92 13.7801 5.03 13.9501C4.68 14.0101 4.63 13.9901 4.55 13.6001C4.1 11.2101 3.64 8.81008 3.19 6.41008C3.04 5.61008 2.9 4.80008 2.75 3.99008C2.71 3.74341 2.79667 3.59675 3.01 3.55008C3.65 3.40008 4.3 3.27008 4.95 3.14008L5.38 3.05008H5.7C5.93 3.03008 5.98 3.06008 5.99 3.06008C5.99 3.06008 6.03 3.10008 6.07 3.32008C6.5 5.52008 6.92 7.72008 7.33 9.92008C7.53 10.9701 7.72 12.0201 7.9 13.0701C7.93 13.2901 7.9 13.3401 7.9 13.3401ZM15.56 8.12008C16.27 8.11008 16.97 8.09008 17.67 8.09008C19.79 8.08008 21.89 8.09008 24 8.10008C24.23 8.11008 24.46 8.12008 24.7 8.14008C24.83 8.15008 24.97 8.15008 25.12 8.16008C25.09 8.36008 25.07 8.56008 25.04 8.76008C24.98 9.23008 24.92 9.69008 24.83 10.1501C24.61 11.3801 24.36 12.6001 24.12 13.8201L24.1 13.9301C23.27 12.3601 21.99 11.5701 20.28 11.5601H20.26C18.58 11.5601 17.3 12.3201 16.44 13.8201C16.39 13.6101 16.34 13.4001 16.29 13.1901C16.07 12.0301 15.86 10.8801 15.66 9.73008L15.49 8.79008C15.45 8.59008 15.42 8.39008 15.4 8.13008H15.56V8.12008ZM22.12 15.8601C22.13 16.3701 21.9 16.8901 21.51 17.2501C21.16 17.5701 20.74 17.7201 20.3 17.6901H20.22C19.78 17.7401 19.35 17.5801 19 17.2601C18.6 16.8901 18.37 16.3701 18.38 15.8601C18.4 14.7901 19.2 13.9801 20.25 13.9801C21.3 13.9801 22.1 14.7901 22.12 15.8601ZM27.62 8.06008C27.49 9.23008 27.36 10.4001 27.21 11.5601C26.75 14.9301 26.05 17.4301 24.93 19.6401L24.89 19.7201C24.63 20.2401 24.36 20.7701 24.27 21.3901L24.13 22.3301C24.04 22.9501 23.96 23.5601 23.87 24.1801C23.77 24.8801 23.98 25.2501 24.63 25.5201C25.17 25.7501 25.73 25.9601 26.28 26.1601L30.59 27.7701C30.59 27.7701 30.66 27.8001 30.69 27.8101C30.69 27.8401 30.69 27.8701 30.68 27.9101C30.62 28.5501 30.54 29.1801 30.45 29.8201C30.24 31.2601 30.02 32.7001 29.79 34.1401C29.65 35.0601 29.48 35.9701 29.31 36.8801L29.2 37.4901C29.18 37.5901 29.15 37.7001 29.09 37.8101C29.02 37.9601 28.92 38.0401 28.76 38.0601C28.59 38.0901 28.58 38.0401 28.56 37.9801C28.51 37.7801 28.48 37.5601 28.46 37.3701L28.43 37.1601L28.54 35.8001C28.63 34.7401 28.71 33.6901 28.79 32.6501C28.85 31.7601 28.9 30.8701 28.93 29.9801C28.95 29.4101 28.7 29.0901 28.14 28.9701C26.59 28.6501 25.05 28.3401 23.5 28.0301C23.1 27.9501 22.7 27.8801 22.31 27.8101L21.5 27.6701C21 27.5801 20.58 27.6701 20.17 27.9901C16.89 30.5001 13.6 33.0001 10.31 35.4901L7.84 37.3701C7.56 37.5801 7.28 37.7901 7 37.9901C6.87 38.0801 6.73 38.1001 6.62 38.0401C6.53 38.0001 6.48 37.9101 6.48 37.7901C6.48 37.7301 6.51 37.6401 6.53 37.6101C6.91 37.2001 7.3 36.8001 7.7 36.4201C8.92 35.2501 10.15 34.0801 11.38 32.9001L13.87 30.5301C14.92 29.5301 15.96 28.5301 16.99 27.5301C17.19 27.3401 17.37 27.1401 17.56 26.9401L17.63 26.8501C17.85 26.6201 17.93 26.3201 17.85 26.0001L17.61 24.9501C17.38 23.9201 17.14 22.8501 16.86 21.8101C16.72 21.3201 16.38 20.8901 16.08 20.5301C15.23 19.5201 14.61 18.3101 14.12 16.7001C13.73 15.3901 13.51 14.0401 13.37 13.0101C13.1 11.0801 12.96 9.37008 12.95 7.77008V7.62008C12.97 7.72008 12.98 7.82008 13 7.92008L13.33 9.73008C13.57 11.1001 13.81 12.4601 14.08 13.8101C14.32 15.0601 14.74 16.2101 15.3 17.2401C15.97 18.4401 16.8 19.2901 17.84 19.8101C18.64 20.2101 19.49 20.3801 20.45 20.3301C21.63 20.2701 22.53 20.0201 23.29 19.5401C24.19 18.9701 24.89 18.1401 25.47 16.9201C26.03 15.7501 26.43 14.4401 26.71 12.7901C26.9 11.7101 27.08 10.6401 27.26 9.56008L27.62 7.47008C27.63 7.39008 27.65 7.31008 27.66 7.24008C27.66 7.51008 27.66 7.79008 27.62 8.06008ZM35.92 13.7001C35.86 13.9701 35.79 13.9801 35.6 13.9501C34.62 13.7801 33.65 13.5801 32.69 13.3701C32.6 13.3501 32.56 13.3501 32.59 13.1301C32.71 12.4001 32.84 11.6601 32.97 10.9301C33.3 9.16008 33.63 7.39008 33.97 5.62008C34.12 4.81008 34.28 4.00008 34.45 3.20008C34.48 3.06008 34.5 3.04008 34.5 3.04008C34.51 3.03008 34.54 3.01008 34.74 2.99008L35.31 3.10008C35.92 3.21008 36.52 3.32008 37.12 3.44008C37.29 3.47008 37.45 3.52008 37.61 3.58008C37.73 3.62008 37.7833 3.69675 37.77 3.81008C37.66 4.50008 37.54 5.18008 37.42 5.86008C37.07 7.73008 36.72 9.60008 36.37 11.4701C36.23 12.2201 36.08 12.9601 35.92 13.7001Z" fill="#27B83E"/>
</g>
<defs>
<clipPath id="clip0_519_341">
<rect width="39.76" height="39.7" fill="white" transform="translate(0.370003 0.680054)"/>
</clipPath>
</defs>
</svg>
