<svg width="40" height="44" viewBox="0 0 40 44" fill="none" xmlns="http://www.w3.org/2000/svg">
<g clip-path="url(#clip0_519_332)">
<path d="M16.9 35.13H15.56C15.56 35.25 15.56 35.37 15.56 35.49C15.56 37.59 15.56 39.7 15.56 41.8C15.56 42.41 15.22 42.9 14.67 43.1C14.16 43.29 13.53 43.17 13.22 42.71C13.03 42.43 12.89 42.06 12.88 41.72C12.85 39.65 12.86 37.59 12.86 35.52V35.13H11.52C11.52 35.3 11.52 35.46 11.52 35.62C11.52 37.69 11.52 39.75 11.52 41.82C11.52 42.49 11.07 43.03 10.44 43.16C9.85 43.28 9.2 42.96 8.97 42.39C8.88 42.18 8.85 41.93 8.85 41.7C8.85 39.68 8.85 37.67 8.85 35.65V35.14H7.5C7.5 35.28 7.5 35.43 7.5 35.57C7.5 37.65 7.5 39.73 7.5 41.81C7.5 42.48 7.09 42.98 6.46 43.14C5.89 43.28 5.27 43.03 5 42.5C4.88 42.27 4.82 41.98 4.82 41.72C4.81 39.68 4.82 37.64 4.82 35.6V35.14H3.48C3.48 35.27 3.48 35.4 3.48 35.53C3.48 37.62 3.48 39.71 3.48 41.8C3.48 42.39 3.2 42.83 2.66 43.07C2.13 43.3 1.6 43.23 1.22 42.8C1 42.55 0.800002 42.17 0.800002 41.85C0.770002 37.74 0.750002 33.64 0.800002 29.53C0.830002 26.72 3.24 24.4 6.06 24.36C6.98 24.35 7.9 24.36 8.85 24.36C8.85 24.02 8.85 23.72 8.85 23.41C8.85 16.14 8.85 8.87003 8.85 1.60003C8.83 0.760034 9.4 0.160034 10.17 0.160034C10.96 0.160034 11.52 0.770034 11.52 1.63003C11.52 9.04003 11.52 16.44 11.52 23.85C11.52 24.01 11.52 24.17 11.52 24.35H14.53L14.29 20.43C13.98 20.31 13.69 20.25 13.46 20.1C12.97 19.8 12.76 19.18 12.92 18.63C13.1 18.02 13.59 17.65 14.26 17.65C16.94 17.65 19.61 17.65 22.29 17.65C22.72 17.65 23.16 17.65 23.6 17.65C23.63 16.06 24.3 14.88 25.78 14.3C27.1 13.78 28.29 14.1 29.36 15.04C30.87 13.75 32.59 13.28 34.52 13.84C36.44 14.4 37.63 15.72 38.23 17.61C39.32 17.84 39.76 18.24 39.75 19.01C39.74 19.75 39.28 20.21 38.33 20.39C38.26 21.6 38.18 22.81 38.11 24.03C37.92 27.26 37.73 30.49 37.54 33.72C37.38 36.42 37.22 39.11 37.07 41.81C37.02 42.67 36.49 43.2 35.64 43.21C29.85 43.21 24.06 43.21 18.28 43.21C17.46 43.21 16.9 42.64 16.9 41.82C16.9 39.78 16.9 37.74 16.9 35.7C16.9 35.54 16.9 35.38 16.9 35.17V35.13ZM19.56 20.35H17.01C17.01 20.41 16.99 20.45 16.99 20.48C17.08 22.03 17.18 23.58 17.28 25.14C17.28 25.25 17.38 25.39 17.47 25.47C18.89 26.62 19.59 28.09 19.58 29.92C19.57 33.3 19.58 36.69 19.58 40.07C19.58 40.2 19.58 40.33 19.58 40.47H34.44L35.62 20.35H33.04C32.91 24.37 29.77 26.93 26.55 27.05C22.92 27.19 19.62 24.33 19.54 20.35H19.56ZM3.47 32.4H16.89C16.89 31.44 16.92 30.5 16.89 29.57C16.84 28.18 15.65 27.06 14.24 27.05C11.53 27.05 8.82 27.05 6.1 27.05C4.76 27.05 3.6 28.06 3.49 29.4C3.41 30.39 3.47 31.38 3.47 32.4ZM22.26 20.34C22.34 21.88 22.99 23.06 24.29 23.81C25.71 24.63 27.16 24.57 28.52 23.68C29.7 22.91 30.28 21.77 30.33 20.34H22.25H22.26ZM35.35 17.62C34.68 16.67 33.85 16.2 32.76 16.31C31.89 16.4 31.21 16.82 30.72 17.62H35.35ZM27.63 17.62C27.69 17.26 27.6 16.95 27.29 16.84C27.09 16.77 26.8 16.79 26.6 16.88C26.32 17.01 26.27 17.31 26.33 17.62H27.63Z" fill="#27B83E"/>
</g>
<defs>
<clipPath id="clip0_519_332">
<rect width="39" height="43.04" fill="white" transform="translate(0.75 0.160034)"/>
</clipPath>
</defs>
</svg>
