<svg width="29" height="37" viewBox="0 0 29 37" fill="none" xmlns="http://www.w3.org/2000/svg">
<g clip-path="url(#clip0_519_368)">
<path d="M28.54 10.38V25.88C28.54 25.99 28.52 26.09 28.52 26.2C28.5 28.33 28.49 30.47 28.48 32.6C28.48 32.78 28.48 32.97 28.46 33.15C28.26 34.22 27.66 34.98 26.68 35.44C26.28 35.63 25.86 35.72 25.41 35.72C24.95 35.72 24.48 35.74 24.02 35.76H8.82999C8.74999 35.76 8.67999 35.74 8.59999 35.74C6.89999 35.72 5.18999 35.71 3.48999 35.68C2.92999 35.68 2.37999 35.62 1.86999 35.31C0.989985 34.77 0.469985 34.02 0.439985 32.98C0.399985 31.68 0.379985 30.37 0.379985 29.07C0.379985 20.79 0.379985 12.51 0.359985 4.23C0.359985 3.74 0.459985 3.3 0.669985 2.87C1.20999 1.79 2.11999 1.19 3.29999 1.15C5.21999 1.08 7.13999 1.09 9.06999 1.09C13.17 1.09 17.28 1.07 21.38 1.09C22.77 1.09 24.15 1.13 25.54 1.16C26.18 1.17 26.76 1.37 27.25 1.77C28.02 2.4 28.48 3.19 28.49 4.22C28.49 6.17 28.52 8.12 28.53 10.08C28.53 10.19 28.54 10.29 28.55 10.4L28.54 10.38ZM2.51999 9.75C2.51999 9.82 2.51999 9.88 2.51999 9.94C2.52999 17.66 2.53999 25.37 2.54999 33.09C2.54999 33.4 2.63999 33.52 2.95999 33.53C3.90999 33.56 4.86999 33.59 5.81999 33.59C12.48 33.59 19.14 33.59 25.79 33.59C26.06 33.59 26.37 33.28 26.37 33.01C26.37 25.32 26.37 17.64 26.37 9.95C26.37 9.88 26.37 9.81 26.37 9.74H2.51999V9.75ZM11.2 7.57H26.35C26.35 7.52 26.36 7.47 26.36 7.43C26.36 6.43 26.36 5.44 26.34 4.44C26.34 4.19 26.32 3.93 26.27 3.68C26.23 3.43 26.08 3.31 25.83 3.3C24.98 3.28 24.13 3.25 23.28 3.24C19.31 3.24 15.34 3.24 11.38 3.23C11.32 3.23 11.25 3.23 11.19 3.23V7.57H11.2ZM9.00999 3.25C9.00999 3.25 8.95999 3.24 8.93999 3.24C6.96999 3.24 4.99999 3.24 3.02999 3.24C2.82999 3.24 2.54999 3.54 2.54999 3.74C2.53999 4.96 2.51999 6.18 2.50999 7.4C2.50999 7.46 2.50999 7.51 2.50999 7.57H8.99999V3.25H9.00999Z" fill="#27B83E" stroke="#27B83E" stroke-width="0.75" stroke-miterlimit="10"/>
<path d="M24.17 21.49C24.11 24.44 23.06 26.78 21.05 28.69C19.82 29.87 18.38 30.71 16.71 31.1C13.56 31.83 10.72 31.12 8.25 29.05C6.6 27.67 5.47 25.93 4.98 23.82C4.28 20.77 4.98 18.02 6.94 15.6C8.35 13.85 10.17 12.71 12.36 12.18C14.44 11.68 16.46 11.91 18.37 12.82C21.46 14.29 23.34 16.74 24.03 20.09C24.13 20.59 24.13 21.12 24.17 21.48V21.49ZM22.01 21.67C21.99 21.22 22.01 20.76 21.94 20.31C21.68 18.76 21.02 17.4 19.91 16.29C18.65 15.03 17.13 14.29 15.34 14.14C14.52 14.07 13.7 14.04 12.89 14.2C10.59 14.67 8.85 15.93 7.73 17.99C6.81 19.66 6.69 21.48 7.03 23.32C7.55 26.12 9.67 28.46 12.9 29.12C13.5 29.24 14.13 29.19 14.75 29.21C15.29 29.22 15.82 29.21 16.35 29.07C18.1 28.61 19.56 27.71 20.62 26.23C21.59 24.87 22.12 23.37 22.03 21.67H22.01Z" fill="#27B83E" stroke="#27B83E" stroke-width="0.75" stroke-miterlimit="10"/>
</g>
<defs>
<clipPath id="clip0_519_368">
<rect width="28.92" height="35.43" fill="white" transform="translate(0 0.700012)"/>
</clipPath>
</defs>
</svg>
