<svg width="41" height="26" viewBox="0 0 41 26" fill="none" xmlns="http://www.w3.org/2000/svg">
<g clip-path="url(#clip0_519_423)">
<path d="M26.91 3.05993H5.71999C5.71999 3.20993 5.71999 3.34993 5.71999 3.49993C5.71999 4.83993 5.71999 6.18993 5.71999 7.52993C5.71999 7.93993 5.64999 8.29993 5.22999 8.47993C5.09999 8.53993 4.94999 8.55993 4.79999 8.55993C3.73999 8.55993 2.68999 8.55993 1.62999 8.55993C1.11999 8.55993 0.74999 8.20993 0.73999 7.73993C0.73999 7.26993 1.08999 6.90993 1.60999 6.89993C2.32999 6.88993 3.03999 6.89993 3.75999 6.89993C3.84999 6.89993 3.93999 6.89993 4.04999 6.89993V6.64993C4.04999 5.21993 4.06999 3.79993 4.04999 2.36993C4.03999 1.72993 4.45999 1.36993 5.05999 1.36993C7.92999 1.38993 10.8 1.37993 13.68 1.37993C17.82 1.37993 21.95 1.37993 26.09 1.37993C26.61 1.37993 27.14 1.37993 27.66 1.37993C28.26 1.37993 28.6 1.70993 28.6 2.30993C28.6 3.36993 28.6 4.41993 28.6 5.47993V5.77993H28.84C30.73 5.77993 32.62 5.77993 34.51 5.77993C34.98 5.77993 35.29 5.97993 35.47 6.40993C36.15 7.98993 36.84 9.55993 37.51 11.1399C37.57 11.2699 37.63 11.3599 37.78 11.3199C37.78 11.3199 37.79 11.3199 37.8 11.3199C38.62 11.2599 38.92 11.6099 38.98 12.4399C39.08 13.6699 39.23 14.8899 39.35 16.1199C39.48 17.3699 39.61 18.6299 39.73 19.8799C39.78 20.3999 39.43 20.7899 38.9 20.8099C38.62 20.8099 38.34 20.8099 38.06 20.8099C37.91 20.8099 37.85 20.8399 37.81 20.9999C37.36 22.7799 36.26 23.9699 34.49 24.4599C31.94 25.1599 29.34 23.5599 28.78 20.9799C28.75 20.8399 28.69 20.8099 28.56 20.8099C25.62 20.8099 22.68 20.8099 19.74 20.8099C18.94 20.8099 18.15 20.8099 17.33 20.8099C17.06 22.1199 16.38 23.1599 15.26 23.8899C14.41 24.4399 13.47 24.6799 12.46 24.6099C10.47 24.4699 8.65999 23.0799 8.20999 20.8099C7.09999 20.8099 5.97999 20.8099 4.86999 20.8099C4.39999 20.8099 4.04999 20.4599 4.04999 19.9799C4.04999 18.8599 4.04999 17.7499 4.04999 16.6299C4.04999 16.1599 4.41999 15.7999 4.86999 15.7899C5.32999 15.7899 5.69999 16.1399 5.70999 16.6099C5.70999 17.3599 5.70999 18.1199 5.70999 18.8699C5.70999 18.9599 5.70999 19.0399 5.70999 19.1499H8.14999C8.34999 18.6699 8.49999 18.1499 8.74999 17.6999C10.35 14.7899 14.49 14.5299 16.47 17.1999C16.87 17.7399 17.15 18.3399 17.29 18.9999C17.32 19.1199 17.36 19.1499 17.47 19.1499C19.15 19.1499 20.82 19.1499 22.5 19.1499C23.89 19.1499 25.28 19.1499 26.67 19.1499C26.74 19.1499 26.81 19.1499 26.9 19.1499V3.05993H26.91ZM37.37 12.9799C37.26 12.9799 37.16 12.9799 37.06 12.9799C36.7 12.9599 36.43 12.7899 36.28 12.4499C35.59 10.8499 34.89 9.24993 34.2 7.63993C34.13 7.47993 34.05 7.43993 33.89 7.43993C32.21 7.43993 30.52 7.43993 28.84 7.43993H28.62V19.1299L28.7 19.1599C28.73 19.0899 28.78 19.0199 28.79 18.9499C29.58 15.5799 33.54 14.2099 36.24 16.3899C37.07 17.0599 37.59 17.9299 37.83 18.9799C37.85 19.0499 37.89 19.0999 37.92 19.1699L38 19.1399L37.37 12.9899V12.9799ZM33.31 22.9399C35 22.9299 36.29 21.5999 36.28 19.8799C36.27 18.3199 34.9 16.9999 33.3 17.0099C31.63 17.0199 30.34 18.3599 30.35 20.0599C30.36 21.6299 31.72 22.9499 33.32 22.9399H33.31ZM12.77 22.9399C14.41 22.9399 15.75 21.6199 15.75 19.9899C15.75 18.3499 14.43 17.0399 12.78 17.0199C11.17 16.9999 9.81999 18.3399 9.80999 19.9699C9.80999 21.6099 11.12 22.9399 12.76 22.9499L12.77 22.9399Z" fill="#27B83E"/>
<path d="M12.83 25.11C12.7 25.11 12.57 25.11 12.44 25.1C10.23 24.94 8.43 23.44 7.83 21.3H7.22C6.44 21.3 5.66 21.3 4.88 21.3C4.13 21.3 3.56 20.73 3.56 19.97C3.56 18.85 3.56 17.74 3.56 16.62C3.56 15.87 4.14 15.29 4.88 15.29C5.62 15.29 6.21 15.87 6.22 16.61C6.22 17.14 6.22 17.68 6.22 18.21V18.66H7.82C7.82 18.66 7.86 18.57 7.87 18.52C8 18.17 8.14 17.81 8.33 17.46C9.16 15.95 10.7 14.98 12.44 14.86C14.19 14.75 15.86 15.51 16.89 16.9C17.28 17.43 17.57 18.02 17.74 18.65H26.42V3.55996H6.22V4.38996C6.22 5.42996 6.22 6.47996 6.22 7.51996C6.22 7.77996 6.22 8.58995 5.43 8.92995C5.2 9.02995 4.96 9.04995 4.81 9.04995C3.75 9.04995 2.7 9.04995 1.64 9.04995C0.86 9.05995 0.27 8.49996 0.25 7.74996C0.25 7.39996 0.37 7.05996 0.61 6.80996C0.86 6.54996 1.22 6.39996 1.61 6.38996C2.11 6.38996 2.62 6.38996 3.12 6.38996H3.56V5.39996C3.56 4.38996 3.57 3.37996 3.56 2.37996C3.56 1.94996 3.69 1.56996 3.96 1.29996C4.23 1.01996 4.64 0.819955 5.07 0.859955C7.32 0.869955 9.56 0.869955 11.8 0.869955H27.67C28.54 0.869955 29.1 1.42996 29.11 2.28996C29.11 3.02996 29.11 3.76996 29.11 4.50996V5.25996H30.43C31.79 5.25996 33.16 5.25996 34.52 5.25996C35.18 5.25996 35.67 5.57996 35.94 6.18996C36.31 7.04996 36.68 7.90996 37.06 8.76996L37.93 10.79C38.89 10.76 39.41 11.28 39.5 12.37C39.57 13.21 39.66 14.05 39.75 14.89L39.87 16.04C40 17.3 40.13 18.55 40.25 19.81C40.29 20.2 40.17 20.57 39.93 20.84C39.68 21.12 39.33 21.27 38.93 21.28C38.71 21.28 38.48 21.28 38.26 21.28C37.72 23.15 36.48 24.4 34.64 24.9C33.28 25.27 31.87 25.08 30.66 24.34C29.53 23.65 28.7 22.54 28.37 21.27H17.75C17.4 22.54 16.66 23.55 15.56 24.27C14.73 24.81 13.81 25.09 12.84 25.09L12.83 25.11ZM8.22 20.3H8.63L8.71 20.7C9.1 22.63 10.59 23.96 12.51 24.1C13.4 24.17 14.25 23.95 15 23.46C16 22.81 16.6 21.91 16.85 20.7L16.93 20.3H28.56C29.08 20.3 29.23 20.65 29.27 20.86C29.51 21.98 30.18 22.92 31.16 23.51C32.13 24.1 33.27 24.26 34.36 23.96C35.92 23.53 36.92 22.49 37.33 20.86C37.43 20.48 37.7 20.29 38.08 20.29C38.35 20.3 38.62 20.3 38.89 20.29C39.01 20.29 39.11 20.25 39.17 20.18C39.24 20.1 39.25 19.99 39.24 19.91C39.12 18.66 38.99 17.4 38.86 16.15L38.74 15.01C38.65 14.16 38.56 13.31 38.49 12.46C38.44 11.83 38.32 11.77 37.84 11.8C37.71 11.82 37.28 11.85 37.05 11.32L36.12 9.17995C35.75 8.31995 35.37 7.45996 35 6.58996C34.89 6.33996 34.77 6.29996 34.5 6.25996C33.13 6.25996 31.77 6.25996 30.4 6.25996H28.08V4.50996C28.08 3.76996 28.08 3.02996 28.08 2.28996C28.08 1.96996 27.96 1.85996 27.64 1.85996H11.8C9.55 1.85996 7.31 1.85996 5.06 1.85996C4.88 1.85996 4.75 1.89996 4.66 1.98996C4.58 2.06996 4.54 2.18996 4.55 2.34996C4.57 3.35996 4.57 4.37996 4.56 5.39996V7.38996H3.12C2.62 7.38996 2.12 7.38996 1.63 7.38996C1.51 7.38996 1.41 7.42996 1.34 7.49996C1.28 7.55996 1.26 7.62996 1.26 7.71996C1.26 7.91996 1.42 8.04996 1.65 8.04996C2.71 8.04996 3.76 8.04996 4.81 8.04996C4.9 8.04996 4.98 8.02996 5.04 8.00996C5.14 7.96996 5.23 7.92996 5.23 7.51996C5.23 6.46996 5.23 5.42996 5.23 4.37996V2.55996H27.41V19.64H17.49C17.14 19.64 16.89 19.44 16.82 19.09C16.69 18.51 16.45 17.97 16.09 17.49C15.26 16.37 13.92 15.76 12.51 15.85C11.11 15.94 9.88 16.72 9.21 17.93C9.05 18.21 8.94 18.52 8.81 18.85C8.75 19.01 8.69 19.17 8.63 19.33L8.5 19.64H5.22V18.19C5.22 17.66 5.22 17.13 5.22 16.6C5.22 16.41 5.08 16.27 4.88 16.27C4.7 16.27 4.56 16.42 4.56 16.61C4.56 17.72 4.56 18.84 4.56 19.95C4.56 20.15 4.68 20.28 4.89 20.28C5.67 20.28 6.44 20.28 7.22 20.28H8.22V20.3ZM33.29 23.44C32.4 23.44 31.55 23.09 30.89 22.45C30.22 21.8 29.85 20.96 29.85 20.06C29.85 19.09 30.2 18.19 30.86 17.52C31.5 16.87 32.37 16.51 33.3 16.5H33.32C35.18 16.5 36.77 18.04 36.78 19.87C36.78 20.83 36.44 21.73 35.8 22.39C35.16 23.05 34.28 23.42 33.32 23.43H33.29V23.44ZM33.32 17.51H33.3C32.64 17.51 32.02 17.77 31.57 18.23C31.1 18.71 30.85 19.35 30.85 20.06C30.85 20.68 31.12 21.28 31.59 21.74C32.06 22.2 32.67 22.44 33.31 22.45C33.99 22.45 34.62 22.18 35.08 21.71C35.54 21.24 35.79 20.59 35.78 19.89C35.77 18.6 34.64 17.51 33.32 17.51ZM12.79 23.44H12.78C11.85 23.44 10.98 23.07 10.33 22.42C9.68 21.76 9.32 20.89 9.33 19.96C9.33 19.03 9.71 18.16 10.37 17.5C11.03 16.85 11.91 16.54 12.8 16.51C14.75 16.53 16.27 18.06 16.26 19.98C16.26 20.9 15.9 21.77 15.24 22.42C14.58 23.07 13.71 23.43 12.78 23.43L12.79 23.44ZM12.76 17.51C12.13 17.51 11.53 17.76 11.07 18.21C10.59 18.68 10.33 19.3 10.33 19.96C10.33 20.62 10.58 21.24 11.04 21.71C11.5 22.18 12.12 22.44 12.79 22.44C13.49 22.42 14.08 22.19 14.55 21.72C15.01 21.26 15.27 20.64 15.27 19.99C15.27 18.62 14.19 17.53 12.79 17.52H12.76V17.51ZM37.77 19.77L37.48 19.39C37.43 19.3 37.37 19.21 37.35 19.09C37.13 18.14 36.66 17.37 35.93 16.78C34.8 15.87 33.32 15.6 31.97 16.06C30.62 16.52 29.61 17.65 29.28 19.06C29.25 19.17 29.21 19.26 29.18 19.32L28.98 19.71L28.54 19.63L28.2 19.51L28.12 19.13V6.94996H30.11C31.37 6.94996 32.63 6.94996 33.9 6.94996C34.31 6.94996 34.53 7.11996 34.67 7.44996C35.26 8.81996 35.85 10.19 36.44 11.56L36.74 12.26C36.8 12.39 36.87 12.47 37.09 12.49C37.15 12.49 37.2 12.49 37.26 12.49H37.82L38.54 19.47L37.76 19.78L37.77 19.77ZM29.12 7.94996V17.01C29.73 16.14 30.61 15.47 31.64 15.12C33.31 14.55 35.15 14.88 36.55 16C36.81 16.21 37.04 16.44 37.25 16.68L36.92 13.47C36.41 13.41 36.02 13.12 35.82 12.65L35.52 11.95C34.94 10.62 34.36 9.27996 33.79 7.94996C32.55 7.94996 31.33 7.94996 30.11 7.94996H29.12Z" fill="#27B83E"/>
<path d="M3.94002 14.63C3.17002 14.63 2.39002 14.63 1.62002 14.63C1.12002 14.63 0.76002 14.29 0.75002 13.82C0.74002 13.35 1.10002 12.97 1.61002 12.97C3.17002 12.97 4.72002 12.97 6.28002 12.97C6.80002 12.97 7.17002 13.34 7.16002 13.82C7.16002 14.28 6.77002 14.64 6.27002 14.64C5.50002 14.64 4.72002 14.64 3.95002 14.64L3.94002 14.63Z" fill="#27B83E"/>
<path d="M4.61 15.14H1.62C0.86 15.14 0.27 14.57 0.25 13.83C0.25 13.47 0.37 13.13 0.62 12.88C0.87 12.62 1.22 12.48 1.6 12.47C3.16 12.47 4.72 12.47 6.27 12.47C6.66 12.47 7.02 12.62 7.28 12.88C7.53 13.13 7.66 13.47 7.65 13.83C7.64 14.56 7.03 15.14 6.26 15.14H4.6H4.61ZM3.95 14.14C4.72 14.14 5.5 14.14 6.27 14.14C6.5 14.14 6.66 14.01 6.66 13.81C6.66 13.72 6.63 13.64 6.57 13.58C6.5 13.51 6.4 13.47 6.27 13.47C4.71 13.47 3.16 13.47 1.6 13.47C1.49 13.47 1.39 13.51 1.33 13.57C1.27 13.63 1.24 13.71 1.24 13.8C1.24 14 1.39 14.13 1.61 14.13H3.94L3.95 14.14Z" fill="#27B83E"/>
<path d="M4.84 9.92999C5.32 9.92999 5.8 9.92999 6.28 9.92999C6.78 9.92999 7.14 10.27 7.15 10.74C7.16 11.21 6.81 11.58 6.32 11.59C5.32 11.6 4.33 11.6 3.33 11.59C2.86 11.59 2.52 11.2 2.53 10.74C2.53 10.29 2.9 9.93999 3.36 9.92999C3.85 9.92999 4.35 9.92999 4.84 9.92999Z" fill="#27B83E"/>
<path d="M4.83003 12.1C4.33003 12.1 3.83003 12.1 3.33003 12.1C2.98003 12.1 2.65003 11.96 2.41003 11.71C2.16003 11.45 2.03003 11.11 2.03003 10.74C2.04003 10.02 2.63003 9.45 3.36003 9.44C3.70003 9.44 4.05003 9.44 4.39003 9.44H6.29003C7.06003 9.44 7.64003 9.99 7.66003 10.74C7.66003 11.1 7.54003 11.44 7.30003 11.7C7.05003 11.96 6.71003 12.1 6.34003 12.11C5.84003 12.11 5.34003 12.11 4.84003 12.11L4.83003 12.1ZM3.93003 10.43C3.74003 10.43 3.55003 10.43 3.36003 10.43C3.17003 10.43 3.03003 10.56 3.03003 10.75C3.03003 10.85 3.06003 10.94 3.12003 11C3.16003 11.04 3.23003 11.09 3.34003 11.09C4.33003 11.1 5.32003 11.1 6.32003 11.09C6.42003 11.09 6.51003 11.05 6.57003 10.99C6.63003 10.93 6.66003 10.85 6.65003 10.75C6.65003 10.55 6.50003 10.43 6.28003 10.43H4.38003C4.23003 10.43 4.08003 10.43 3.92003 10.43H3.93003Z" fill="#27B83E"/>
</g>
<defs>
<clipPath id="clip0_519_423">
<rect width="40" height="24.25" fill="white" transform="translate(0.25 0.859985)"/>
</clipPath>
</defs>
</svg>
