<svg width="40" height="34" viewBox="0 0 40 34" fill="none" xmlns="http://www.w3.org/2000/svg">
<g clip-path="url(#clip0_519_334)">
<path d="M9.479 30.7443C9.20972 30.464 8.94045 30.1724 8.67117 29.8697C8.54775 29.7239 8.35702 29.5557 8.0092 29.5557H3.30811C2.792 29.5557 2.35443 29.8809 2.19735 30.3743C2.09637 30.6882 2.16369 31.0471 2.37687 31.3386C2.59004 31.6301 2.9042 31.7983 3.22957 31.7983H10.4439L9.479 30.7443ZM2.60126 30.5088C2.70224 30.1837 2.97152 29.9818 3.30811 29.9818C4.87888 29.9818 6.43843 29.9818 8.0092 29.9706C8.16628 29.9706 8.25604 30.0267 8.35702 30.15C8.72727 30.5649 9.10874 30.9686 9.49022 31.3722H3.22957C2.82566 31.3722 2.47785 30.8901 2.60126 30.5088Z" fill="#27B83E"/>
<path d="M39.7276 5.68335L39.649 5.60486C39.3461 4.84237 38.7627 4.41628 37.9548 4.38264C37.2929 4.36021 36.6309 4.33778 35.9802 4.25929C35.2733 4.19201 34.746 3.97897 34.3421 3.59772C33.9718 3.23891 33.5903 2.8913 33.2089 2.5437C32.861 2.22973 32.5132 1.90455 32.1654 1.57937C31.1556 0.637478 30.0449 0.16653 28.8331 0.20017C27.7112 0.211383 26.5892 0.211383 25.4672 0.20017H23.9862C22.7857 0.20017 21.8432 0.514135 21.1027 1.1757C19.8124 2.30822 18.5334 3.5753 17.1982 5.05542C16.5138 5.80669 16.1772 6.64767 16.1772 7.55593V8.78936C16.1997 9.96673 16.6036 11.0208 17.3777 11.9402C18.0509 12.7364 18.87 13.2522 19.8124 13.4764C19.3636 13.7567 18.9261 14.0259 18.4661 14.295C17.9163 14.6201 17.3665 14.9453 16.8167 15.2593C15.8182 15.8424 14.8196 16.4254 13.8323 17.031C12.3961 17.9168 10.9039 18.825 9.49022 19.823C7.4931 21.2246 6.44966 23.1757 6.39356 25.6314C6.38234 26.3938 6.39356 27.2797 6.75259 28.1319C6.75259 28.1319 6.76381 28.1543 6.76381 28.1655H6.14672L3.21835 28.1991C2.48907 28.1991 1.90564 28.457 1.45685 28.9504C1.13147 29.3205 0.907077 29.7578 0.77244 30.296L0.75 30.3521V31.0248C0.895857 31.821 1.40075 32.3368 1.8271 32.7068C2.33199 33.1441 2.93786 33.1441 3.33055 33.1441C5.9672 33.1665 8.60386 33.189 11.2405 33.2002H14.3035C15.7957 33.2002 17.2992 33.2002 18.8026 33.189C19.4422 33.189 20.2724 33.1665 21.1251 33.0768C21.63 33.0208 22.0676 32.7516 22.3369 32.3256C22.6174 31.877 22.6623 31.3164 22.4715 30.8118C22.2359 30.139 21.7422 29.6681 21.3495 29.3205C21.1139 29.1186 20.8559 28.9504 20.5978 28.771L20.5529 28.7374C20.7325 28.401 20.9232 28.0982 21.2037 27.874C21.3495 27.7506 21.5066 27.6721 21.6188 27.6609C22.0788 27.6273 22.5501 27.6049 23.0325 27.5936H23.1784L23.2232 31.3724C23.2232 31.7537 23.2906 32.3143 23.7955 32.7404C23.9862 32.8974 24.2891 33.1105 24.7155 33.1105L26.4209 33.1329C27.7224 33.1441 29.0127 33.1553 30.3029 33.1441C30.9312 33.1441 31.481 32.8189 31.7727 32.3031C32.1093 31.72 32.0869 31.0024 31.7279 30.3745C31.3015 29.6456 30.6732 29.1859 30.1683 28.8719C29.6971 28.5692 29.2483 28.3786 28.777 28.2889C28.8107 28.0534 28.8331 27.8067 28.8668 27.56C28.9117 27.1451 28.9678 26.7302 29.0688 26.3378C30.7742 25.1716 31.8288 23.6242 32.2215 21.7404C32.7825 19.0493 32.042 16.717 30.0224 14.7996C29.6746 14.4744 29.5736 14.2389 29.5961 13.8801C29.641 13.4204 29.6297 12.9718 29.6185 12.5121V12.1981H31.4361C32.0308 12.1757 32.6367 12.1757 33.2313 12.1869C34.3196 12.1533 35.3743 11.8505 36.5075 11.0993C37.0909 10.7068 37.5958 10.1686 38.0334 9.46215C38.527 8.68845 38.9758 7.88111 39.4358 7.08498C39.5256 6.928 39.5929 6.7598 39.649 6.59161L39.75 6.33371L39.7276 5.68335ZM19.9022 11.1553C19.0719 10.8189 18.6007 10.1798 18.4885 9.27153C18.4212 8.71087 18.4324 8.11658 18.4436 7.5335V7.35409C18.4548 7.10741 18.5783 6.86072 18.8587 6.55797C20.1939 5.08906 21.3495 3.94533 22.4827 2.95858C22.6847 2.79038 22.8979 2.65583 23.1671 2.56612V4.40506C23.1671 6.13187 23.1447 7.86989 23.1223 9.5967C23.1223 9.64156 23.0549 9.7649 23.0101 9.83218L22.9652 9.9331C22.3481 11.1105 21.0578 11.6263 19.9022 11.1553ZM3.22957 31.7985C2.9042 31.7985 2.59005 31.6303 2.37687 31.3388C2.16369 31.0473 2.09638 30.6884 2.19735 30.3745C2.35443 29.8811 2.792 29.5559 3.30811 29.5559H8.00921C8.35702 29.5559 8.54776 29.7241 8.67117 29.8699C8.94045 30.1726 9.20972 30.4642 9.479 30.7445L10.4439 31.7985H3.22957ZM36.5075 7.72412C36.1372 8.34084 35.7894 8.92392 35.206 9.29395C34.9367 9.46215 34.6562 9.60792 34.3757 9.75369L34.0503 9.91067L29.8654 9.94431C29.3156 9.98916 28.8892 9.73126 28.4517 9.26031C28.2385 8.52025 27.5541 8.54268 27.296 8.55389H27.0268C26.8921 8.55389 26.7575 8.55389 26.6341 8.5651C26.4882 8.5651 26.2302 8.58753 26.0843 8.80058C25.9384 9.02484 26.017 9.26031 26.0731 9.39487C26.3087 10.1013 26.7014 10.7068 27.2287 11.189C27.3521 11.2899 27.3858 11.3796 27.3858 11.5478C27.3746 12.2542 27.3746 12.9606 27.3746 13.667V15.0687C27.3746 15.3826 27.4868 15.6181 27.7224 15.8087C28.4292 16.3694 28.9453 16.8852 29.3268 17.4346C30.6395 19.2848 30.4039 21.9871 28.7883 23.6018C28.4517 23.9382 28.0702 24.2297 27.6663 24.5325C27.5092 24.6446 27.3521 24.768 27.1951 24.8913C27.0492 25.0146 26.8921 25.1716 26.8585 25.4744C26.735 26.4948 26.6116 27.5039 26.4882 28.5243L26.4433 28.9392C26.4209 29.1298 26.3872 29.3317 26.3536 29.5223C26.3087 29.7241 26.3423 29.8923 26.4321 30.0269C26.5331 30.1614 26.6789 30.2511 26.8697 30.2736L27.139 30.3184C27.4755 30.3633 27.8121 30.4193 28.1487 30.4866C28.5751 30.5651 28.9341 30.6997 29.2258 30.9127H25.4111V23.9718H23.1784V25.3622H22.8193C22.292 25.3622 21.7422 25.3622 21.1812 25.4744L21.0915 24.7904C20.8895 23.2878 20.2837 21.9423 19.2627 20.7761C19.2066 20.7088 19.0158 20.507 18.7465 20.4958C18.5222 20.507 18.3875 20.5743 18.2304 20.7313C18.1519 20.8098 18.0621 20.8882 17.9836 20.9667C17.8938 21.0452 17.8041 21.1349 17.7143 21.2134C17.3441 21.5835 17.3216 21.8077 17.5909 22.2226L17.9387 21.9983L17.6694 22.3459C17.9499 22.7832 18.2304 23.2206 18.4773 23.6803C18.9036 24.454 18.9373 25.3174 18.8812 26.3826C18.8251 27.2236 18.4436 27.9637 18.0509 28.7486L17.8826 29.0738L17.6021 29.8363L17.9163 29.982C18.1182 30.0829 18.3426 30.1839 18.5558 30.2736C19.0046 30.4642 19.4422 30.6548 19.8124 30.9463H18.567C16.8841 30.9463 15.2123 30.9463 13.5293 30.9127C11.3639 30.8791 9.41168 29.3092 8.78337 27.1003C8.21116 25.0595 9.10875 22.6599 10.8703 21.5386C12.542 20.4734 14.3933 19.3408 16.5138 18.0738C18.0173 17.1655 19.5432 16.2909 21.069 15.4163L22.2022 14.7659C22.494 14.5865 22.6398 14.3398 22.6174 13.9922C22.6062 13.8464 22.6174 13.6895 22.6174 13.5325V13.1961C23.2681 12.8933 23.8628 12.4448 24.3789 11.8393C25.0409 11.0656 25.3662 10.1013 25.3774 8.90149L25.4111 2.40914H25.4448C25.7589 2.39793 26.0619 2.39793 26.376 2.40914L29.2707 2.47642C29.5961 2.47642 29.8878 2.59976 30.1459 2.83524L30.6507 3.28376C31.122 3.69864 31.6044 4.12474 32.042 4.58447C33.1079 5.68335 34.3982 6.34492 35.8904 6.54675C35.9241 6.54675 35.9689 6.54675 36.0699 6.69252C36.2382 6.928 36.4289 7.15226 36.6197 7.38773L36.6758 7.4438C36.6197 7.5335 36.5636 7.63442 36.5075 7.72412Z" fill="#27B83E"/>
<path d="M9.479 30.7443C9.20972 30.464 8.94045 30.1724 8.67117 29.8697C8.54775 29.7239 8.35702 29.5557 8.0092 29.5557H3.30811C2.792 29.5557 2.35443 29.8809 2.19735 30.3743C2.09637 30.6882 2.16369 31.0471 2.37687 31.3386C2.59004 31.6301 2.9042 31.7983 3.22957 31.7983H10.4439L9.479 30.7443ZM2.99396 30.6322C3.05006 30.4864 3.16225 30.3967 3.30811 30.3967H4.35155C5.57451 30.3967 6.79747 30.3967 8.04286 30.4191L8.5141 30.9574H3.22957C3.22957 30.9574 3.11738 30.9237 3.06128 30.8452C3.00518 30.7667 2.98274 30.6882 2.99396 30.6322ZM9.479 30.7443C9.20972 30.464 8.94045 30.1724 8.67117 29.8697C8.54775 29.7239 8.35702 29.5557 8.0092 29.5557H3.30811C2.792 29.5557 2.35443 29.8809 2.19735 30.3743C2.09637 30.6882 2.16369 31.0471 2.37687 31.3386C2.59004 31.6301 2.9042 31.7983 3.22957 31.7983H10.4439L9.479 30.7443ZM2.99396 30.6322C3.05006 30.4864 3.16225 30.3967 3.30811 30.3967H4.35155C5.57451 30.3967 6.79747 30.3967 8.04286 30.4191L8.5141 30.9574H3.22957C3.22957 30.9574 3.11738 30.9237 3.06128 30.8452C3.00518 30.7667 2.98274 30.6882 2.99396 30.6322ZM9.479 30.7443C9.20972 30.464 8.94045 30.1724 8.67117 29.8697C8.54775 29.7239 8.35702 29.5557 8.0092 29.5557H3.30811C2.792 29.5557 2.35443 29.8809 2.19735 30.3743C2.09637 30.6882 2.16369 31.0471 2.37687 31.3386C2.59004 31.6301 2.9042 31.7983 3.22957 31.7983H10.4439L9.479 30.7443ZM2.99396 30.6322C3.05006 30.4864 3.16225 30.3967 3.30811 30.3967H4.35155C5.57451 30.3967 6.79747 30.3967 8.04286 30.4191L8.5141 30.9574H3.22957C3.22957 30.9574 3.11738 30.9237 3.06128 30.8452C3.00518 30.7667 2.98274 30.6882 2.99396 30.6322ZM9.479 30.7443C9.20972 30.464 8.94045 30.1724 8.67117 29.8697C8.54775 29.7239 8.35702 29.5557 8.0092 29.5557H3.30811C2.792 29.5557 2.35443 29.8809 2.19735 30.3743C2.09637 30.6882 2.16369 31.0471 2.37687 31.3386C2.59004 31.6301 2.9042 31.7983 3.22957 31.7983H10.4439L9.479 30.7443ZM2.99396 30.6322C3.05006 30.4864 3.16225 30.3967 3.30811 30.3967H4.35155C5.57451 30.3967 6.79747 30.3967 8.04286 30.4191L8.5141 30.9574H3.22957C3.22957 30.9574 3.11738 30.9237 3.06128 30.8452C3.00518 30.7667 2.98274 30.6882 2.99396 30.6322ZM9.479 30.7443C9.20972 30.464 8.94045 30.1724 8.67117 29.8697C8.54775 29.7239 8.35702 29.5557 8.0092 29.5557H3.30811C2.792 29.5557 2.35443 29.8809 2.19735 30.3743C2.09637 30.6882 2.16369 31.0471 2.37687 31.3386C2.59004 31.6301 2.9042 31.7983 3.22957 31.7983H10.4439L9.479 30.7443ZM2.99396 30.6322C3.05006 30.4864 3.16225 30.3967 3.30811 30.3967H4.35155C5.57451 30.3967 6.79747 30.3967 8.04286 30.4191L8.5141 30.9574H3.22957C3.22957 30.9574 3.11738 30.9237 3.06128 30.8452C3.00518 30.7667 2.98274 30.6882 2.99396 30.6322Z" fill="#27B83E"/>
</g>
<defs>
<clipPath id="clip0_519_334">
<rect width="39" height="33" fill="white" transform="translate(0.75 0.200012)"/>
</clipPath>
</defs>
</svg>
