<svg width="31" height="37" viewBox="0 0 31 37" fill="none" xmlns="http://www.w3.org/2000/svg">
<g clip-path="url(#clip0_531_457)">
<path d="M5.27218 17.47C5.33048 17.47 5.38045 17.47 5.43043 17.47C5.8552 17.47 6.2883 17.47 6.71307 17.47C7.00458 17.47 7.22946 17.6488 7.30442 17.9299C7.37938 18.2024 7.2711 18.4749 7.02124 18.6282C6.93795 18.6793 6.94628 18.7475 6.94628 18.8156C6.94628 20.8511 6.94628 22.8781 6.94628 24.9135C6.94628 27.443 6.95461 29.9639 6.94628 32.4934C6.94628 34.6055 5.00566 36.113 3.02339 35.5338C1.72409 35.1591 0.816242 33.9583 0.799584 32.5615C0.782926 30.8326 0.799584 29.1037 0.791255 27.3834C0.791255 24.5303 0.791255 21.6857 0.791255 18.8326C0.791255 18.7304 0.766268 18.6708 0.674651 18.6112C0.441443 18.4579 0.358154 18.1768 0.433114 17.9213C0.508074 17.6573 0.732953 17.4785 1.02446 17.4785C1.44923 17.4785 1.88234 17.4785 2.30711 17.4785C2.35708 17.4785 2.40705 17.4955 2.49034 17.504C2.48201 17.4189 2.46535 17.3678 2.46535 17.3167C2.46535 14.3699 2.46535 11.4231 2.4487 8.47635C2.4487 8.38267 2.42371 8.28899 2.3904 8.20382C2.16552 7.69282 1.92398 7.19885 1.6991 6.68785C1.6408 6.55158 1.60748 6.39828 1.60748 6.2535C1.59915 4.59275 1.59915 2.94051 1.59083 1.27976C1.59083 0.81986 1.83236 0.572876 2.28212 0.572876C3.32323 0.572876 4.356 0.572876 5.39711 0.572876C5.84687 0.572876 6.08841 0.81986 6.08841 1.27124C6.08841 2.932 6.08841 4.58423 6.08841 6.24498C6.08841 6.38977 6.05509 6.54307 5.99679 6.67933C5.77191 7.19885 5.53037 7.70985 5.30549 8.22085C5.27218 8.28899 5.25552 8.36564 5.25552 8.43377C5.25552 11.3976 5.25552 14.3699 5.25552 17.3337C5.25552 17.3763 5.25552 17.4189 5.25552 17.4614L5.27218 17.47ZM1.99894 18.7475C1.99894 18.7475 2.0156 18.8326 2.0156 18.8752C2.0156 21.7028 2.0156 24.5388 2.0156 27.3663C2.0156 29.0867 2.0156 30.7986 2.0156 32.5189C2.0156 33.1747 2.28212 33.7028 2.81517 34.0775C3.42317 34.5033 4.08115 34.5459 4.7308 34.1967C5.38878 33.839 5.72194 33.2599 5.72194 32.5019C5.72194 27.954 5.71361 23.4061 5.70528 18.8582C5.70528 18.8156 5.70528 18.773 5.70528 18.7475H1.99894ZM2.84015 1.84186C2.84015 1.84186 2.84015 1.89296 2.84015 1.92703C2.84015 3.32376 2.84015 4.71198 2.84015 6.10872C2.84015 6.16833 2.85681 6.23647 2.89013 6.29608C3.11501 6.79857 3.35654 7.30105 3.58142 7.81205C3.64805 7.96535 3.6897 8.13569 3.6897 8.2975C3.69803 11.2954 3.69803 14.2932 3.70635 17.2996C3.70635 17.3592 3.6897 17.4103 3.6897 17.4529H4.05617C4.05617 17.4529 4.05617 17.3763 4.05617 17.3337C4.05617 14.3188 4.05617 11.3039 4.05617 8.28899C4.05617 8.13569 4.08948 7.98239 4.14778 7.84612C4.36433 7.33512 4.60587 6.83263 4.83075 6.33015C4.86407 6.2535 4.88905 6.15982 4.88905 6.07465C4.88905 4.71198 4.88905 3.3408 4.88905 1.97813C4.88905 1.93554 4.88905 1.88444 4.88905 1.84186H2.84015Z" fill="#27B83E"/>
<path d="M6.21334 0.445117C6.4049 0.641001 6.51318 0.922051 6.51318 1.27124V2.33582C6.51318 3.63887 6.51318 4.94192 6.51318 6.24498C6.51318 6.44086 6.4632 6.65378 6.38825 6.84966C6.24665 7.17329 6.10506 7.48841 5.95514 7.80353L5.68862 8.39969V17.0441H5.83021C6.13005 17.0441 6.42156 17.0441 6.7214 17.0441C7.19614 17.0441 7.5876 17.3507 7.71253 17.8106C7.82081 18.2194 7.68755 18.6367 7.37105 18.9008V27.3663C7.38771 29.0697 7.38771 30.7815 7.38771 32.4849C7.38771 33.6346 6.87965 34.6822 5.99679 35.3635C5.12226 36.0448 4.00619 36.2492 2.9401 35.9426C1.44923 35.5083 0.433114 34.1456 0.416456 32.57C0.408127 31.3521 0.408127 30.1257 0.408127 28.8993V18.9093C0.074973 18.6538 -0.0582887 18.2109 0.0583153 17.7936C0.191577 17.3507 0.574704 17.0526 1.04112 17.0526C1.3826 17.0526 1.72409 17.0526 2.06557 17.0526L2.04891 8.47634C2.04891 8.47634 2.04058 8.41673 2.03225 8.39118L1.74074 7.75243C1.60748 7.46286 1.47422 7.16478 1.34096 6.86669C1.25767 6.67933 1.21603 6.46641 1.2077 6.26201C1.2077 4.86527 1.19937 3.46002 1.19104 2.06329V1.28827C1.19104 0.862435 1.34929 0.606934 1.49088 0.462151C1.63247 0.317367 1.87401 0.147034 2.29045 0.147034H5.40544C5.74692 0.147034 6.02178 0.249234 6.21334 0.445117ZM4.85574 17.4444V15.9625L4.83908 8.43376C4.83908 8.30601 4.87239 8.16123 4.92237 8.04199L5.19722 7.44583C5.33881 7.13071 5.4804 6.81559 5.62199 6.50048C5.65531 6.41531 5.68029 6.32163 5.68029 6.24498C5.68029 4.94192 5.68029 3.63887 5.68029 2.34434V1.27124C5.68029 1.0498 5.62199 0.990185 5.40544 0.990185H2.29045C2.1905 0.990185 2.10721 1.01573 2.0739 1.0498C2.04058 1.08387 2.0156 1.16904 2.0156 1.27124V2.04625C2.0156 3.44299 2.0156 4.83972 2.03225 6.23646C2.03225 6.32163 2.05724 6.41531 2.09056 6.49196C2.21549 6.78153 2.34875 7.07109 2.48201 7.36066L2.77352 8.00793C2.83182 8.14419 2.86514 8.29749 2.87347 8.45079L2.90678 17.4274L2.99007 17.998L2.14053 17.8873C1.77406 17.8873 1.40759 17.8873 1.03279 17.8873C0.932845 17.8873 0.866214 17.9384 0.832899 18.0235C0.807912 18.1087 0.832899 18.1939 0.907858 18.2365C1.10775 18.3727 1.2077 18.5601 1.2077 18.8156V28.8823C1.2077 30.1002 1.2077 31.3181 1.22435 32.5445C1.23268 33.7453 2.00727 34.7844 3.14832 35.108C3.95622 35.3465 4.80576 35.1846 5.4804 34.6736C6.15504 34.1541 6.53816 33.3536 6.53816 32.4763C6.53816 30.773 6.53816 29.0612 6.53816 27.3578V18.8071C6.52984 18.7049 6.52151 18.4238 6.80469 18.2535C6.88798 18.2024 6.92129 18.1257 6.89631 18.0321C6.87132 17.9384 6.80469 17.8873 6.69641 17.8873C6.4049 17.8873 6.11339 17.8873 5.82188 17.8873L4.91404 17.8702L4.84741 17.4785L5.26385 17.4614L4.84741 17.4444H4.85574ZM5.27218 1.4075L5.28884 2.5828C5.28884 3.74107 5.28884 4.90786 5.28884 6.06612C5.28884 6.20239 5.25552 6.35569 5.19722 6.50048L4.91404 7.11368C4.78078 7.41176 4.63919 7.70984 4.51425 8.00793C4.48094 8.09309 4.45595 8.19529 4.45595 8.28046C4.45595 10.9291 4.45595 13.5864 4.45595 16.235L4.43929 17.8447L3.65638 17.8702L3.19829 17.8532L3.2566 17.3933L3.62307 17.3252V17.3081L3.27325 17.2911V16.9504C3.27325 14.0633 3.27325 11.1846 3.2566 8.29749C3.2566 8.20381 3.23161 8.08458 3.18996 7.98238C3.04837 7.65023 2.89845 7.32659 2.74854 7.00296L2.507 6.46641C2.46535 6.38124 2.42371 6.25349 2.42371 6.10019C2.42371 4.70346 2.42371 3.31524 2.42371 1.9185L2.45703 1.43305L2.84015 1.4075H5.28051H5.27218ZM3.85627 7.41176C3.95622 7.19033 4.05617 6.96038 4.15611 6.73894L4.43096 6.12574C4.45595 4.88231 4.44762 3.72404 4.44762 2.56577V2.24214H3.23994C3.23994 3.54519 3.23994 4.81417 3.23994 6.08316L3.4898 6.61971C3.60641 6.87521 3.73134 7.13923 3.84794 7.40324L3.85627 7.41176ZM6.10506 18.2961L6.12172 18.7049C6.12172 18.756 6.12172 18.7986 6.12172 18.8411V20.8851C6.13005 24.7517 6.13838 28.6183 6.13838 32.4849C6.13838 33.4132 5.72194 34.1286 4.9307 34.5544C4.13945 34.9802 3.33156 34.9291 2.59029 34.4096C1.94897 33.9668 1.61581 33.3025 1.60748 32.5019C1.60748 31.2244 1.60748 29.9554 1.60748 28.6779V18.8582L1.51586 18.3642L2.08223 18.3046H6.11339L6.10506 18.2961ZM2.83182 33.5069C2.89845 33.575 2.97341 33.6431 3.0567 33.7027C3.53978 34.0434 4.03118 34.069 4.53924 33.7964C5.05563 33.5154 5.30549 33.0895 5.30549 32.4763C5.30549 28.6098 5.30549 24.7432 5.29717 20.8766V19.1477H2.43204V28.6779C2.44037 29.9554 2.44037 31.2244 2.4487 32.5019C2.4487 32.9192 2.57363 33.2514 2.84015 33.5154L2.83182 33.5069Z" fill="#27B83E"/>
<path d="M27.1854 36.13H13.6344C11.5355 36.13 9.82806 34.3841 9.82806 32.2379V4.02213C9.82806 1.87592 11.5355 0.130005 13.6344 0.130005H27.1854C29.2843 0.130005 30.9917 1.87592 30.9917 4.02213V32.2379C30.9917 34.3841 29.2843 36.13 27.1854 36.13ZM13.6344 2.68501C12.9097 2.68501 12.3267 3.28969 12.3267 4.02213V32.2379C12.3267 32.9788 12.9181 33.575 13.6344 33.575H27.1854C27.91 33.575 28.493 32.9703 28.493 32.2379V4.02213C28.493 3.28118 27.9017 2.68501 27.1854 2.68501H13.6344Z" fill="#27B83E"/>
<path d="M20.414 32.4934C21.6238 32.4934 22.6045 31.4906 22.6045 30.2535C22.6045 29.0164 21.6238 28.0136 20.414 28.0136C19.2043 28.0136 18.2235 29.0164 18.2235 30.2535C18.2235 31.4906 19.2043 32.4934 20.414 32.4934Z" fill="#27B83E"/>
</g>
<defs>
<clipPath id="clip0_531_457">
<rect width="31" height="36" fill="white" transform="translate(0 0.130005)"/>
</clipPath>
</defs>
</svg>
