<svg width="41" height="40" viewBox="0 0 41 40" fill="none" xmlns="http://www.w3.org/2000/svg">
<g clip-path="url(#clip0_519_327)">
<path d="M39.365 12.3C38.585 11.79 37.795 11.28 37.015 10.76L33.485 8.45C32.275 7.65 31.055 6.85 29.835 6.05L20.665 0H19.745L19.505 0.18C19.415 0.25 19.315 0.32 19.225 0.39L5.325 9.52C3.955 10.42 2.585 11.32 1.155 12.27C0.825 12.49 0.375 12.78 0.375 13.42V15.26C0.375 16.39 0.375 17.51 0.385 18.64C0.385 18.96 0.505 19.39 1.085 19.63C1.655 19.85 2.105 19.59 2.495 19.36C2.555 19.33 2.605 19.29 2.665 19.26V22.56C2.665 27.79 2.665 33.03 2.665 38.26C2.665 38.91 2.905 39.38 3.385 39.68L3.475 39.74H37.035L37.125 39.68C37.605 39.38 37.835 38.91 37.835 38.26V19.25C38.025 19.37 38.215 19.48 38.415 19.58C38.815 19.79 39.235 19.79 39.575 19.58C39.925 19.37 40.115 18.98 40.115 18.53V17.26C40.115 16.06 40.105 14.86 40.125 13.66C40.135 13.08 39.895 12.64 39.365 12.3ZM5.085 37.36V34.93C5.085 29.22 5.095 23.51 5.085 17.81C5.085 17.66 5.105 17.62 5.225 17.54C7.285 16.18 9.335 14.82 11.385 13.45L16.995 9.73C18.065 9.02 19.125 8.32 20.195 7.61H20.305C22.125 8.84 23.965 10.05 25.795 11.27C27.835 12.63 29.865 13.98 31.915 15.33L33.075 16.1C33.825 16.6 34.585 17.09 35.325 17.6C35.355 17.62 35.395 17.68 35.395 17.7C35.405 24.07 35.405 30.45 35.405 36.83V37.36H5.085ZM24.965 7.81C23.815 7.05 22.655 6.29 21.495 5.53L21.195 5.34C20.885 5.13 20.605 4.97 20.255 4.97C19.985 4.97 19.675 5.07 19.295 5.33C16.725 7.05 14.145 8.76 11.565 10.47L9.765 11.67C7.755 13 5.725 14.34 3.705 15.67C3.385 15.88 3.065 16.09 2.725 16.3C2.725 15.56 2.725 14.85 2.725 14.14C2.745 14.12 2.755 14.11 2.775 14.1C5.295 12.43 7.805 10.76 10.335 9.1C11.945 8.04 13.555 6.98 15.175 5.92L16.385 5.12C17.665 4.29 18.935 3.46 20.255 2.64C22.405 4.03 24.545 5.43 26.675 6.84L29.655 8.81C30.765 9.55 31.875 10.28 32.995 11.01L34.935 12.29C35.855 12.89 36.775 13.49 37.695 14.1C37.715 14.11 37.745 14.16 37.745 14.18C37.765 14.86 37.765 15.55 37.755 16.27V16.3L37.595 16.2C37.095 15.87 36.605 15.57 36.125 15.25L24.955 7.81H24.965Z" fill="#27B83E"/>
<path d="M31.325 23.59C30.975 23.24 30.545 22.97 29.995 22.76C30.045 21.6 29.765 20.55 29.155 19.63C28.115 18.04 26.635 17.19 24.875 17.15C22.725 17.11 20.535 17.12 18.415 17.13H16.195C15.865 17.13 15.435 17.15 15.005 17.22C13.005 17.56 11.565 18.74 10.855 20.64C10.665 21.16 10.585 21.69 10.505 22.25C10.485 22.42 10.455 22.6 10.425 22.78C9.205 23.25 8.435 24.18 8.205 25.48C7.905 27.13 8.735 28.71 10.225 29.33C10.535 29.45 10.525 29.5 10.515 29.76C10.455 30.86 10.845 31.78 11.635 32.43C11.975 32.71 12.085 32.98 12.035 33.43C12.015 33.58 12.025 33.73 12.035 33.91C12.065 34.62 12.595 35.15 13.295 35.17C13.765 35.18 14.245 35.18 14.725 35.17C15.455 35.14 15.945 34.65 15.975 33.91C15.975 33.8 15.975 33.69 15.975 33.58H24.505V33.87C24.525 34.6 24.905 35.06 25.555 35.13C25.845 35.16 26.155 35.18 26.465 35.18C26.775 35.18 27.085 35.16 27.415 35.13C28.015 35.07 28.445 34.55 28.455 33.85V33.5C28.455 33.31 28.445 33.12 28.465 32.94C28.465 32.92 28.495 32.84 28.595 32.73C28.685 32.62 28.775 32.52 28.875 32.42C29.025 32.27 29.165 32.12 29.295 31.96C29.825 31.25 30.055 30.4 29.965 29.44C31.145 29.05 31.925 28.21 32.225 27.01C32.545 25.7 32.245 24.55 31.315 23.59H31.325ZM27.645 29.57C27.665 29.98 27.505 30.38 27.215 30.68C26.905 30.99 26.505 31.16 26.065 31.16H26.055C24.265 31.14 22.425 31.13 20.405 31.13C18.575 31.13 16.585 31.13 14.365 31.16H14.345C13.965 31.16 13.585 31 13.295 30.7C13.005 30.41 12.845 30.02 12.855 29.63C12.865 29.2 12.865 28.77 12.855 28.33V27.41L12.145 27.31C11.885 27.28 11.635 27.25 11.385 27.19C10.695 27.04 10.535 26.49 10.535 26.05C10.525 25.57 10.975 25.06 11.505 24.96C11.995 24.87 12.565 25.21 12.715 25.68C12.795 25.94 12.845 26.25 12.865 26.61C12.935 28.34 14.235 29.6 15.965 29.61C18.715 29.62 21.655 29.63 24.575 29.6C26.275 29.58 27.525 28.37 27.635 26.65V26.53C27.675 26.02 27.705 25.59 28.045 25.28C28.405 24.95 28.885 24.88 29.325 25.09C29.625 25.24 30.015 25.53 29.925 26.36C29.885 26.75 29.545 27.1 29.115 27.19C28.865 27.24 28.605 27.28 28.345 27.31L27.645 27.41V28.32C27.635 28.75 27.625 29.16 27.645 29.57ZM12.855 22.35C13.115 20.87 13.885 19.99 15.275 19.58C15.465 19.52 15.695 19.49 15.985 19.49C17.045 19.48 18.115 19.48 19.175 19.48H21.465C22.425 19.48 23.395 19.48 24.355 19.49C25.645 19.5 26.615 20.04 27.235 21.1C27.545 21.63 27.685 22.22 27.675 22.78C26.315 23.24 25.535 24.2 25.355 25.61C25.325 25.88 25.295 26.15 25.285 26.42C25.245 26.93 24.875 27.26 24.325 27.26H23.515C21.075 27.26 18.625 27.28 16.185 27.25C15.515 27.25 15.235 26.96 15.225 26.26C15.195 24.8 14.585 23.7 13.425 23.01C13.345 22.96 13.245 22.91 13.145 22.87C13.075 22.84 12.995 22.82 12.925 22.8C12.895 22.79 12.865 22.78 12.845 22.77C12.825 22.69 12.825 22.55 12.845 22.35H12.855Z" fill="#27B83E"/>
</g>
<defs>
<clipPath id="clip0_519_327">
<rect width="39.75" height="39.74" fill="white" transform="translate(0.375)"/>
</clipPath>
</defs>
</svg>
