<svg width="38" height="34" viewBox="0 0 38 34" fill="none" xmlns="http://www.w3.org/2000/svg">
<g clip-path="url(#clip0_519_352)">
<path d="M21.25 32.99C21.17 32.99 21.09 32.99 21.01 32.99C19.78 32.91 18.81 32.31 18.11 31.2C17.17 29.73 17.23 27.73 18.25 26.34C18.85 25.53 19.6 25.04 20.47 24.88C21.09 24.77 21.67 24.79 22.2 24.93C22.39 24.98 22.56 25.06 22.7 25.14C22.76 25.17 22.82 25.2 22.88 25.23L22.98 25.28C23.03 25.31 23.09 25.33 23.13 25.35C23.2 25.16 23.25 24.98 23.29 24.81C23.36 24.47 23.42 24.12 23.48 23.77C23.56 23.29 23.65 22.81 23.75 22.34C23.99 21.2 24.37 20.14 24.87 19.17C24.26 17.57 23.66 15.98 23.06 14.38L22.05 11.72C21.54 10.37 21.03 9.03001 20.53 7.67001C20.08 6.45001 19.98 5.23001 20.22 4.06001C20.41 3.13001 20.85 2.35001 21.51 1.76001L22.05 1.28001L22.4 1.88001L26.94 13.46L31.6 0.950012L32.32 1.75001C32.45 1.89001 32.58 2.03001 32.7 2.18001C33.36 3.03001 33.68 4.07001 33.65 5.27001C33.63 5.98001 33.48 6.70001 33.17 7.60001C32.42 9.74001 31.67 11.87 30.93 14.01L29.09 19.27C29.68 20.6 30.13 21.95 30.42 23.3C30.5 23.67 30.57 24.05 30.64 24.42L30.75 25.02C30.76 25.08 30.78 25.14 30.8 25.2C31.04 25.22 31.18 25.15 31.33 25.09C31.83 24.89 32.32 24.71 32.87 24.71H32.88C34.22 24.71 35.3 25.32 35.98 26.48C36.66 27.63 36.8 28.91 36.39 30.29C35.98 31.67 34.72 32.67 33.19 32.82C31.48 32.99 29.97 32.07 29.25 30.43C28.86 29.53 28.69 28.55 28.73 27.43V27.29C28.77 26.56 28.79 25.87 28.72 25.18C28.6 24.15 28.28 23.38 27.71 22.77C27.48 22.53 27.21 22.31 26.91 22.13C26.16 22.62 25.68 23.28 25.43 24.16C25.21 24.95 25.2 25.78 25.21 26.41C25.21 26.67 25.23 26.92 25.23 27.18C25.25 27.64 25.26 28.09 25.26 28.55C25.26 29.11 25.22 29.83 24.9 30.55C24.25 32.04 22.79 33.01 21.23 33.01L21.25 32.99ZM21.23 25.81C21.04 25.81 20.84 25.83 20.63 25.86C20.01 25.97 19.49 26.32 19.04 26.92C18.27 27.97 18.23 29.54 18.94 30.65C19.47 31.48 20.16 31.92 21.06 31.97C22.28 32.04 23.48 31.29 24 30.12C24.24 29.58 24.27 28.98 24.27 28.52C24.27 28.08 24.26 27.64 24.24 27.19C24.24 26.93 24.22 26.67 24.22 26.41C24.22 25.96 24.22 25.42 24.28 24.85C24.28 24.89 24.26 24.94 24.25 24.98C24.2 25.25 24.11 25.52 24 25.8C23.82 26.24 23.43 26.43 22.96 26.32C22.8 26.28 22.66 26.22 22.54 26.16C22.38 26.09 22.31 26.05 22.23 26.01C22.12 25.95 22.01 25.9 21.93 25.88C21.71 25.82 21.48 25.79 21.23 25.79V25.81ZM29.66 24.63C29.68 24.77 29.71 24.92 29.72 25.07C29.81 25.83 29.77 26.59 29.74 27.33V27.47C29.7 28.43 29.84 29.27 30.17 30.03C30.72 31.28 31.8 31.95 33.09 31.83C33.95 31.74 35.08 31.21 35.44 30.01C35.77 28.89 35.67 27.91 35.13 26.99C34.62 26.13 33.88 25.66 32.88 25.71C32.5 25.71 32.14 25.84 31.79 25.98C31.52 26.09 31.34 26.16 31.15 26.22C30.55 26.39 30.04 26.12 29.85 25.51C29.82 25.41 29.79 25.31 29.77 25.22L29.66 24.65V24.63ZM26.91 21.07C27.01 21.07 27.12 21.09 27.21 21.14C27.69 21.4 28.1 21.72 28.44 22.08C29.04 22.72 29.43 23.5 29.62 24.45C29.56 24.13 29.5 23.82 29.43 23.5C29.15 22.2 28.72 20.89 28.14 19.61C28.05 19.4 28.04 19.2 28.11 18.99L29.97 13.67C30.72 11.53 31.46 9.39001 32.22 7.26001C32.5 6.47001 32.63 5.84001 32.65 5.24001C32.67 4.30001 32.45 3.51001 31.95 2.85001L26.93 16.25L21.73 2.97001C21.46 3.34001 21.28 3.76001 21.17 4.26001C20.96 5.25001 21.06 6.28001 21.44 7.32001C21.94 8.67001 22.45 10.01 22.96 11.36L23.97 14.03C24.59 15.66 25.2 17.29 25.82 18.92C25.9 19.14 25.89 19.36 25.78 19.56C25.3 20.46 24.94 21.47 24.71 22.55C24.61 23.01 24.53 23.48 24.45 23.95L24.43 24.06C24.44 24.01 24.46 23.95 24.47 23.89C24.8 22.7 25.5 21.79 26.57 21.17C26.67 21.11 26.79 21.08 26.91 21.08V21.07Z" fill="#27B83E"/>
<path d="M21.25 33.49C21.16 33.49 21.07 33.49 20.98 33.49C19.58 33.4 18.48 32.72 17.68 31.47C16.64 29.83 16.7 27.6 17.84 26.05C18.52 25.13 19.37 24.57 20.38 24.4C21.07 24.28 21.72 24.3 22.33 24.46C22.52 24.51 22.68 24.58 22.81 24.65C22.87 24.33 22.93 24.02 22.98 23.7C23.06 23.21 23.15 22.73 23.25 22.25C23.48 21.15 23.84 20.11 24.31 19.16C23.75 17.68 23.19 16.19 22.63 14.71L21.57 11.91C21.06 10.56 20.55 9.21 20.05 7.86C19.57 6.55 19.46 5.24 19.72 3.97C19.93 2.93 20.42 2.06 21.17 1.4L22.16 0.51L22.82 1.64L26.91 12.08L31.42 0L32.69 1.41C32.83 1.56 32.97 1.71 33.09 1.87C33.82 2.82 34.18 3.97 34.15 5.28C34.13 6.05 33.97 6.81 33.64 7.76C32.89 9.9 32.14 12.03 31.4 14.17L29.63 19.24C30.2 20.54 30.63 21.87 30.91 23.19C30.98 23.54 31.05 23.89 31.12 24.24L31.19 24.6C31.7 24.39 32.25 24.2 32.88 24.2C34.42 24.2 35.65 24.9 36.43 26.21C37.18 27.48 37.34 28.9 36.89 30.42C36.42 32 35 33.13 33.26 33.31C31.33 33.51 29.62 32.47 28.81 30.62C28.39 29.65 28.2 28.59 28.25 27.4V27.26C28.28 26.55 28.31 25.88 28.24 25.23C28.14 24.31 27.86 23.64 27.36 23.11C27.23 22.97 27.09 22.85 26.93 22.73C26.43 23.12 26.1 23.63 25.93 24.28C25.73 25.01 25.72 25.79 25.73 26.39C25.73 26.64 25.74 26.9 25.75 27.15C25.77 27.64 25.78 28.09 25.78 28.54C25.78 29.14 25.73 29.94 25.38 30.74C24.65 32.41 23.03 33.49 21.25 33.49ZM18.66 31.13C19.26 31.98 20.04 32.42 21.04 32.48C21.11 32.48 21.18 32.48 21.25 32.48C22.63 32.48 23.89 31.63 24.46 30.32C24.61 29.99 24.68 29.65 24.73 29.32C24.69 29.64 24.61 29.98 24.46 30.32C23.87 31.67 22.46 32.56 21.04 32.47C20.06 32.41 19.26 31.95 18.66 31.12V31.13ZM34.95 31.6C34.46 31.99 33.88 32.21 33.36 32.3C33.97 32.21 34.51 31.96 34.95 31.6ZM21.24 26.31C21.07 26.31 20.9 26.33 20.72 26.36C20.22 26.45 19.82 26.72 19.45 27.23C18.8 28.12 18.77 29.45 19.37 30.4C19.81 31.1 20.36 31.45 21.1 31.49C22.1 31.55 23.12 30.91 23.55 29.94C23.75 29.48 23.78 28.95 23.78 28.54C23.78 28.1 23.77 27.67 23.75 27.23V26.77C23.47 26.88 23.17 26.9 22.86 26.82C22.65 26.77 22.47 26.69 22.34 26.63C22.18 26.55 22.1 26.51 22.02 26.47C21.95 26.44 21.85 26.38 21.82 26.37C21.64 26.32 21.45 26.3 21.25 26.3L21.24 26.31ZM30.28 26.67C30.28 26.89 30.26 27.12 30.26 27.34V27.49C30.22 28.37 30.35 29.14 30.65 29.83C31.11 30.89 31.99 31.44 33.07 31.33C33.77 31.26 34.7 30.83 34.98 29.87C35.27 28.88 35.19 28.05 34.72 27.25C34.28 26.51 33.71 26.18 32.92 26.21C32.61 26.21 32.29 26.32 32 26.44C31.71 26.56 31.51 26.64 31.3 26.69C30.94 26.79 30.59 26.78 30.29 26.67H30.28ZM18.8 26.43C18.75 26.49 18.69 26.56 18.64 26.63C17.78 27.8 17.7 29.47 18.42 30.75C17.72 29.48 17.8 27.78 18.64 26.63C18.69 26.56 18.74 26.49 18.8 26.43ZM24.74 27.08V27.1C24.74 27.22 24.74 27.33 24.75 27.45C24.75 27.38 24.75 27.3 24.75 27.23C24.75 27.18 24.75 27.13 24.75 27.08H24.74ZM29.27 26.68C29.27 26.89 29.26 27.09 29.25 27.3C29.25 27.09 29.27 26.88 29.27 26.67V26.68ZM35.51 26.66C35.51 26.66 35.54 26.71 35.55 26.73C35.54 26.71 35.52 26.68 35.51 26.66ZM24.73 25.39C24.71 25.78 24.71 26.13 24.71 26.42C24.71 26.11 24.71 25.76 24.73 25.39ZM21.87 25.38C21.93 25.39 21.99 25.41 22.06 25.42C22.2 25.46 22.33 25.52 22.46 25.59C22.53 25.63 22.6 25.66 22.75 25.73C22.81 25.76 22.87 25.79 22.94 25.81C22.88 25.79 22.82 25.76 22.76 25.73L22.51 25.61C22.35 25.53 22.22 25.46 22.07 25.42C22.01 25.4 21.95 25.39 21.89 25.38H21.87ZM30.53 25.69C30.65 25.78 30.81 25.8 31 25.74C31.12 25.71 31.23 25.67 31.36 25.62C31.2 25.68 31.01 25.72 30.76 25.71L30.53 25.69ZM23.71 25.12C23.68 25.25 23.63 25.39 23.58 25.53L23.55 25.6C23.61 25.44 23.67 25.28 23.71 25.12ZM31.59 25.52L31.52 25.55H31.5L31.59 25.52ZM29.22 25.13C29.23 25.25 29.24 25.38 29.25 25.5C29.25 25.38 29.23 25.25 29.22 25.13ZM24.57 24.93H24.78C24.81 24.69 24.85 24.43 24.92 24.18L23.94 23.98L23.96 23.87C24.04 23.4 24.13 22.92 24.22 22.45C24.12 22.92 24.04 23.39 23.96 23.87C23.9 24.22 23.84 24.57 23.77 24.92C23.77 24.92 23.77 24.86 23.78 24.82L24.56 24.94L24.57 24.93ZM30.15 24.55L30.22 24.91L30.15 24.53C30.13 24.45 30.12 24.37 30.11 24.3L30.13 24.39L29.15 24.58C29.16 24.63 29.17 24.69 29.18 24.74L30.16 24.56L30.15 24.55ZM28.6 19.41C29.19 20.74 29.64 22.08 29.92 23.41C29.95 23.55 29.98 23.68 30 23.82C29.97 23.68 29.94 23.54 29.92 23.41C29.64 22.1 29.2 20.77 28.62 19.48L28.59 19.41H28.6ZM26.91 20.58C27.1 20.58 27.29 20.62 27.44 20.71C27.74 20.87 28.01 21.05 28.27 21.26C28.1 20.78 27.9 20.3 27.69 19.83C27.54 19.5 27.53 19.17 27.65 18.84L29.51 13.52C30.26 11.38 31 9.24 31.76 7.11C32.02 6.37 32.14 5.79 32.16 5.24C32.17 4.83 32.13 4.45 32.03 4.11L26.95 17.66L21.7 4.25C21.7 4.25 21.68 4.33 21.67 4.37C21.48 5.27 21.57 6.2 21.92 7.16C22.42 8.51 22.92 9.85 23.44 11.19L24.45 13.86C25.07 15.49 25.68 17.12 26.3 18.75C26.43 19.11 26.41 19.47 26.23 19.81C25.99 20.27 25.78 20.75 25.6 21.26C25.82 21.07 26.07 20.9 26.33 20.75C26.51 20.65 26.71 20.59 26.92 20.59L26.91 20.58ZM25.35 19.3L25.3 19.39C25.3 19.39 25.33 19.34 25.34 19.32V19.3H25.35ZM30.74 13.06C30.65 13.32 30.56 13.59 30.46 13.85L28.6 19.17V19.19L30.46 13.85C30.55 13.59 30.64 13.32 30.74 13.06ZM22.99 12.82L23.57 14.34C23.99 15.46 24.42 16.58 24.84 17.7C24.4 16.53 23.96 15.37 23.52 14.2L23 12.82H22.99ZM33.16 5.04C33.16 5.11 33.16 5.19 33.16 5.26C33.14 5.92 33 6.59 32.7 7.43C32.26 8.67 31.83 9.9 31.4 11.14C31.83 9.9 32.27 8.66 32.7 7.43C33 6.58 33.14 5.91 33.16 5.26C33.16 5.18 33.16 5.11 33.16 5.04ZM20.7 4.16C20.48 5.24 20.57 6.37 20.99 7.5C21.42 8.68 21.87 9.86 22.32 11.04C21.87 9.86 21.43 8.68 20.99 7.5C20.57 6.37 20.48 5.25 20.7 4.16ZM21.41 2.59C21.33 2.7 21.25 2.81 21.18 2.92C21.23 2.84 21.29 2.76 21.34 2.68L21.41 2.59ZM32.33 2.53L32.36 2.57C32.36 2.57 32.41 2.64 32.44 2.68C32.4 2.63 32.37 2.58 32.33 2.53Z" fill="#27B83E"/>
<path d="M7.27999 32.26C7.10999 32.18 6.92999 32.12 6.76999 32.03C6.26999 31.72 6.06999 31.24 6.01999 30.67C5.90999 29.5 5.78999 28.33 5.67999 27.24C5.12999 26.98 4.59999 26.8 4.12999 26.51C3.22999 25.94 2.71999 25.08 2.59999 24.02C2.18999 20.28 1.79999 16.54 1.38999 12.8C1.09999 10.14 0.799994 7.48998 0.529994 4.82998C0.469994 4.26998 0.489994 3.68998 0.529994 3.12998C0.599994 2.21998 1.22999 1.66998 2.17999 1.66998C3.34999 1.66998 4.51999 1.66998 5.67999 1.66998C8.65999 1.66998 11.65 1.66998 14.63 1.66998C15.54 1.66998 16.24 2.20998 16.29 3.01998C16.33 3.69998 16.35 4.37998 16.28 5.04998C16.05 7.39998 15.78 9.74998 15.53 12.1C15.28 14.41 15.02 16.72 14.78 19.03C14.61 20.65 14.43 22.26 14.28 23.88C14.15 25.36 13.04 26.68 11.59 27.05C11.46 27.08 11.34 27.11 11.19 27.14C11.13 27.76 11.06 28.38 11 29C10.94 29.63 10.89 30.25 10.81 30.88C10.73 31.51 10.39 31.94 9.79999 32.17C9.73999 32.19 9.67999 32.23 9.61999 32.26H7.27999ZM13.32 23.09L15.25 5.25998H1.59999C1.66999 5.92998 1.74999 6.58998 1.81999 7.23998C2.10999 9.91998 2.38999 12.59 2.67999 15.27C2.94999 17.77 3.22999 20.27 3.48999 22.77C3.51999 23.03 3.57999 23.1 3.83999 23.1C6.88999 23.1 9.94999 23.1 13 23.1H13.31L13.32 23.09ZM1.54999 4.20998H15.31C15.31 3.94998 15.31 3.71998 15.31 3.47998C15.31 2.82998 15.17 2.68998 14.52 2.68998C10.46 2.68998 6.39999 2.68998 2.33999 2.68998C2.23999 2.68998 2.13999 2.68998 2.03999 2.68998C1.75999 2.72998 1.56999 2.88998 1.55999 3.16998C1.53999 3.49998 1.55999 3.83998 1.55999 4.19998L1.54999 4.20998ZM13.19 24.13H3.66999C3.83999 25.27 4.88999 26.13 6.15999 26.14C7.66999 26.16 9.16999 26.16 10.68 26.14C11.95 26.12 12.92 25.33 13.19 24.13ZM6.69999 27.18C6.81999 28.38 6.92999 29.55 7.04999 30.72C7.08999 31.07 7.27999 31.24 7.62999 31.24C8.15999 31.24 8.68999 31.24 9.21999 31.24C9.58999 31.24 9.76999 31.07 9.80999 30.7C9.86999 30.21 9.91999 29.71 9.96999 29.21C10.04 28.54 10.1 27.87 10.17 27.18H6.70999H6.69999Z" fill="#27B83E"/>
<path d="M9.73 32.76L7.07 32.72L6.92 32.66C6.77 32.6 6.63 32.54 6.5 32.46C5.91 32.1 5.59 31.53 5.51 30.72C5.43 29.87 5.35 29.02 5.26 28.2L5.2 27.58C5.12 27.54 5.04 27.51 4.95 27.48C4.58 27.32 4.2 27.16 3.85 26.94C2.84 26.3 2.23 25.31 2.09 24.08C1.82 21.68 1.57 19.27 1.31 16.86L0.580002 10.1C0.410002 8.36998 0.220002 6.62998 0.0400024 4.88998C-0.00999756 4.36998 -0.00999756 3.79998 0.0400024 3.09998C0.120002 1.93998 0.960002 1.17998 2.18 1.16998C2.98 1.16998 3.79 1.16998 4.59 1.16998H14.65C15.83 1.16998 16.74 1.93998 16.81 2.98998C16.86 3.80998 16.86 4.47998 16.8 5.09998C16.63 6.85998 16.43 8.61998 16.24 10.38L15.19 20.02C15.05 21.32 14.91 22.62 14.79 23.93C14.63 25.64 13.37 27.12 11.72 27.54L11.66 27.56L11.45 29.68C11.41 30.1 11.37 30.52 11.32 30.94C11.22 31.76 10.76 32.34 9.99 32.64L9.75 32.76H9.73ZM7.38 31.76H9.49C9.49 31.76 9.57 31.72 9.61 31.71C10.04 31.55 10.26 31.26 10.31 30.82C10.36 30.41 10.4 30 10.44 29.59L10.73 26.73L11.47 26.57C11.9 26.46 12.29 26.26 12.63 25.98C12.11 26.4 11.44 26.64 10.69 26.65C9.18 26.67 7.67 26.67 6.16 26.65C5.82 26.65 5.49 26.59 5.18 26.49C5.24 26.52 5.3 26.54 5.36 26.57C5.53 26.64 5.71 26.72 5.89 26.8L6.15 26.92L6.27 28.11C6.35 28.93 6.44 29.78 6.52 30.64C6.56 31.13 6.72 31.42 7.03 31.61C7.12 31.66 7.21 31.7 7.31 31.74L7.38 31.77V31.76ZM3.5 2.16998C3.06 2.16998 2.63 2.16998 2.19 2.16998C1.79 2.16998 1.1 2.30998 1.04 3.16998C0.990002 3.80998 0.990002 4.32998 1.04 4.78998C1.22 6.52998 1.41 8.25998 1.6 9.99998L2.33 16.76C2.59 19.16 2.84 21.57 3.11 23.97C3.2 24.81 3.57 25.47 4.2 25.95C3.67 25.52 3.29 24.91 3.19 24.21L3.1 23.63H13.81C13.93 22.39 14.06 21.15 14.19 19.91L15.24 10.27C15.43 8.50998 15.63 6.75998 15.8 4.99998C15.86 4.42998 15.86 3.80998 15.8 3.04998C15.77 2.51998 15.3 2.16998 14.64 2.16998H4.59C4.23 2.16998 3.86 2.16998 3.5 2.16998ZM4.36 24.63C4.69 25.23 5.38 25.63 6.17 25.64C7.67 25.66 9.17 25.66 10.68 25.64C11.48 25.64 12.13 25.25 12.48 24.63H4.36ZM13.8 23.69L13.68 24.23C13.56 24.76 13.34 25.22 13.02 25.59C13.45 25.1 13.73 24.48 13.79 23.83C13.79 23.78 13.79 23.73 13.8 23.69ZM8.45 31.74C8.17 31.74 7.9 31.74 7.62 31.74C7.01 31.74 6.62 31.37 6.55 30.77C6.46 29.93 6.38 29.08 6.3 28.23L6.15 26.68H10.71L10.46 29.26C10.41 29.76 10.36 30.26 10.3 30.75C10.23 31.37 9.84 31.72 9.22 31.73C8.96 31.73 8.7 31.73 8.45 31.73V31.74ZM7.25 27.68L7.29 28.13C7.37 28.98 7.46 29.82 7.54 30.66L7.63 30.73C8.15 30.73 8.68 30.73 9.2 30.73C9.27 30.73 9.29 30.71 9.3 30.63C9.36 30.14 9.41 29.64 9.46 29.15L9.6 27.67H7.25V27.68ZM3.84 23.59C3.33 23.59 3.05 23.33 2.99 22.81C2.82 21.14 2.63 19.47 2.45 17.81L1.05 4.76998H15.81L13.77 23.6H10.97C8.59 23.6 6.22 23.6 3.85 23.6L3.84 23.59ZM2.16 5.76998L3.45 17.71C3.63 19.34 3.81 20.97 3.98 22.6C6.34 22.6 8.66 22.6 10.98 22.6H12.88L14.7 5.76998H2.16ZM15.81 4.70998H1.05V3.89998C1.05 3.64998 1.05 3.39998 1.05 3.14998C1.08 2.63998 1.43 2.26998 1.97 2.19998C2.07 2.18998 2.17 2.18998 2.28 2.18998H14.51C15.44 2.18998 15.8 2.54998 15.8 3.47998V4.70998H15.81ZM2.04 3.70998H14.81V3.47998C14.81 3.30998 14.8 3.22998 14.79 3.18998C14.77 3.19998 14.69 3.18998 14.52 3.18998H2.34C2.22 3.18998 2.16 3.18998 2.11 3.18998C2.06 3.36998 2.05 3.53998 2.05 3.69998L2.04 3.70998Z" fill="#27B83E"/>
</g>
<defs>
<clipPath id="clip0_519_352">
<rect width="37.13" height="33.49" fill="white"/>
</clipPath>
</defs>
</svg>
