<svg width="25" height="23" viewBox="0 0 25 23" fill="none" xmlns="http://www.w3.org/2000/svg">
<g clip-path="url(#clip0_535_592)">
<path d="M2.80038 21.8235C2.63604 21.6688 2.47827 21.5075 2.31393 21.3528C2.47827 21.5142 2.63604 21.6688 2.80038 21.8302C2.96473 21.9848 3.12907 22.0991 3.29999 22.1798C3.12907 22.0991 2.96473 21.9781 2.80038 21.8235ZM10.656 1.4455V1.45895C10.6692 1.40516 10.6955 1.35137 10.7415 1.31104C10.6955 1.35137 10.6626 1.39844 10.656 1.4455ZM11.0504 1.51273C11.0504 1.51273 11.057 1.51273 11.057 1.51945C11.0833 1.53962 11.103 1.55307 11.1293 1.57324V1.47911C11.1293 1.47911 11.0767 1.49928 11.0504 1.51273ZM11.4646 1.43878V1.46567L11.5764 1.39844L11.4646 1.43878ZM11.4712 1.70098L11.4514 1.60013V1.69426L11.5698 1.77493C11.5698 1.77493 11.6421 1.822 11.675 1.84889C11.7933 1.92284 11.9116 1.99008 12.0234 2.06403L11.4712 1.70098ZM13.9035 3.87257C13.8509 3.8255 13.7983 3.78517 13.7457 3.7381L13.9035 3.87929L13.9889 3.94652C13.956 3.92635 13.9298 3.89946 13.9035 3.87257ZM18.8732 10.105C18.8995 10.2125 18.9455 10.3201 19.0244 10.4277C18.9521 10.3201 18.8995 10.2125 18.8732 10.105ZM18.5577 8.77377C18.4788 8.83427 18.4065 8.88134 18.3342 8.9284C18.4065 8.88806 18.4854 8.83427 18.5577 8.78049L18.9455 8.47795L18.5577 8.77377ZM19.1099 8.35693L19.1953 8.2897L19.0639 8.27625L19.0244 8.21574L19.0047 8.26953L18.768 8.24936H18.7155C18.8206 8.24936 18.9258 8.27625 19.0178 8.33004C19.1033 8.38382 19.169 8.44433 19.2216 8.51828L19.1099 8.35693ZM20.7073 6.54167L20.589 6.56184L20.7467 6.67613L20.8322 6.92489C20.8322 6.92489 20.8519 6.94506 20.8585 6.94506L20.9045 6.7837C20.8256 6.7232 20.7599 6.64252 20.7073 6.54167ZM20.9045 6.77698C20.9045 6.77698 20.9242 6.79715 20.9308 6.79715L20.9045 6.77698ZM20.4706 12.3034C20.7402 12.3908 21.0228 12.3707 21.2858 12.2429C21.0294 12.3639 20.7467 12.3841 20.4706 12.3034ZM20.9768 6.49461H20.99L21.0426 6.23913L20.9768 6.49461ZM21.0426 6.01054C21.0426 6.01054 21.036 6.02398 21.0294 6.03071L21.1083 6.06432C21.1083 6.06432 21.1149 6.0576 21.1149 6.05088C21.1214 6.03743 21.1214 6.03071 21.128 6.01726H21.0426V6.01054ZM20.99 6.48788V6.50805L21.2726 6.44082L20.99 6.48788ZM23.8693 7.96698C23.6918 7.76529 23.5077 7.57704 23.3171 7.38879L23.1199 7.19382C22.9227 6.99212 22.7386 6.80387 22.5348 6.64924C22.1798 6.38704 21.8446 6.3467 21.4896 6.54839C21.4173 6.58873 21.345 6.60218 21.2989 6.6089L21.0228 6.65596C21.082 6.68958 21.1477 6.71647 21.2135 6.72992C21.2661 6.73664 21.3581 6.71647 21.4567 6.66941C21.8117 6.48788 22.1338 6.42738 22.548 6.75681C22.6466 6.83077 22.732 6.91144 22.8109 6.99212L22.8766 7.05935C23.1659 7.35517 23.4551 7.64427 23.7378 7.94681C24.2045 8.43088 24.2111 9.00235 23.7444 9.48642C23.0147 10.2394 22.2784 10.9924 21.5356 11.7454C21.0754 12.2093 20.5232 12.2093 20.0565 11.7454C19.7147 11.4025 19.3728 11.0529 19.0376 10.7033C18.6037 10.2461 18.5774 9.7688 18.9521 9.24439C19.0441 9.11665 19.1033 8.98891 19.1296 8.88134C19.1493 8.78721 19.1296 8.69309 19.077 8.61913L18.9718 9.00908C18.9324 9.12337 18.8798 9.20405 18.8469 9.25111C18.4985 9.74863 18.5248 10.2596 18.9127 10.6899C19.2939 11.1134 19.6884 11.5101 20.0762 11.8732C20.5167 12.29 21.0951 12.29 21.5159 11.8799C22.2916 11.1134 23.087 10.2999 23.8759 9.46625C24.2768 9.03597 24.2769 8.43761 23.8693 7.97371V7.96698Z" fill="#27B83E"/>
<path d="M7.29027 11.4092C6.3568 12.2967 5.41675 13.1909 4.48328 14.0851C5.41675 13.1909 6.3568 12.3034 7.29027 11.416C7.41517 11.3017 7.54007 11.2143 7.67155 11.1605C7.54007 11.2076 7.41517 11.295 7.29027 11.4092ZM10.5706 14.7641C10.5706 14.7641 10.564 14.7843 10.5377 14.8112L10.5772 14.7708H10.5706V14.7641ZM8.04625 12.2295C8.04625 12.2295 8.05283 12.2228 8.05283 12.216L5.85719 14.2868L8.04625 12.2295ZM11.4712 1.69425L11.4515 1.5934V1.68753L11.5698 1.76821C11.5698 1.76821 11.6421 1.81527 11.675 1.84216C11.7933 1.91612 11.9116 1.98335 12.0234 2.0573L11.4712 1.69425ZM11.9905 1.64046H11.9971C12.1154 1.62702 12.2272 1.60013 12.3455 1.57996L11.9905 1.64046ZM13.9035 3.86584C13.8509 3.81878 13.7983 3.77844 13.7457 3.73137L13.9035 3.87256L13.9889 3.93979C13.9561 3.91962 13.9298 3.89273 13.9035 3.86584ZM14.6069 4.43731C14.6069 4.43731 14.6003 4.45748 14.5937 4.4642L14.6134 4.47765V4.43731H14.6069ZM16.5461 9.00235L16.2963 9.26455L16.5527 9.00235H16.5461ZM18.7089 7.90647C18.6037 7.90647 18.5051 7.91992 18.4065 7.96025C18.5445 7.91319 18.6892 7.89975 18.8272 7.91992C18.7878 7.90647 18.7483 7.90647 18.7089 7.90647ZM19.1033 8.3502L19.1888 8.28297L19.0573 8.26952L19.0179 8.20901L18.9981 8.2628L18.7615 8.24263H18.7089C18.8141 8.24263 18.9192 8.26952 19.0113 8.32331C19.0967 8.37709 19.1625 8.4376 19.2151 8.51155L19.1033 8.3502ZM20.7007 6.53494L20.5824 6.55511L20.7402 6.6694L20.8256 6.91816L20.8454 6.97195V6.93833L20.898 6.77697C20.8191 6.71647 20.7533 6.63579 20.7007 6.53494ZM20.3786 12.6194C20.6547 12.7068 20.944 12.7068 21.2201 12.6194C20.944 12.7001 20.6547 12.7001 20.3786 12.6194ZM20.4641 12.2967C20.7336 12.3841 21.0163 12.3639 21.2792 12.2362C21.0229 12.3572 20.7402 12.3774 20.4641 12.2967ZM20.9834 6.48788V6.50805L21.2661 6.44082L20.9834 6.48788ZM10.564 14.7574C10.564 14.7574 10.5574 14.7776 10.5311 14.8045L10.5706 14.7641H10.564V14.7574ZM8.03968 12.2228C8.03968 12.2228 8.04625 12.216 8.04625 12.2093L5.85062 14.28L8.03968 12.2228ZM11.4712 1.70097L11.4515 1.60013V1.69425L11.5698 1.77493C11.5698 1.77493 11.6421 1.82199 11.675 1.84888C11.7933 1.92284 11.9116 1.99007 12.0234 2.06403L11.4712 1.70097ZM11.9905 1.64719H11.9971C12.1154 1.63374 12.2272 1.60685 12.3455 1.58668L11.9905 1.64719ZM14.6069 4.44403C14.6069 4.44403 14.6003 4.4642 14.5937 4.47092L14.6134 4.48437V4.44403H14.6069ZM18.7089 7.91319C18.6037 7.91319 18.5051 7.92664 18.4065 7.96698C18.5445 7.91992 18.6892 7.90647 18.8272 7.92664C18.7878 7.91319 18.7483 7.91319 18.7089 7.91319ZM19.1033 8.35692L19.1888 8.28969L19.0573 8.27624L19.0179 8.21574L18.9981 8.26952L18.7615 8.24935H18.7089C18.8141 8.24935 18.9192 8.27624 19.0113 8.33003C19.0967 8.38382 19.1625 8.44432 19.2151 8.51828L19.1033 8.35692ZM20.7007 6.54166L20.5824 6.56183L20.7402 6.67613L20.8256 6.92488L20.8454 6.97867V6.94505L20.898 6.7837C20.8191 6.72319 20.7533 6.64251 20.7007 6.54166ZM10.564 14.7641C10.564 14.7641 10.5574 14.7843 10.5311 14.8112L10.5706 14.7708H10.564V14.7641ZM8.03968 12.2295C8.03968 12.2295 8.04625 12.2228 8.04625 12.216L5.85062 14.2868L8.03968 12.2295ZM11.4712 1.70097L11.4515 1.60013V1.69425L11.5698 1.77493C11.5698 1.77493 11.6421 1.82199 11.675 1.84888C11.7933 1.92284 11.9116 1.99007 12.0234 2.06403L11.4712 1.70097ZM11.9905 1.64719H11.9971C12.1154 1.63374 12.2272 1.60685 12.3455 1.58668L11.9905 1.64719ZM14.6069 4.44403C14.6069 4.44403 14.6003 4.4642 14.5937 4.47092L14.6134 4.48437V4.44403H14.6069ZM18.7089 7.91319C18.6037 7.91319 18.5051 7.92664 18.4065 7.96698C18.5445 7.91992 18.6892 7.90647 18.8272 7.92664C18.7878 7.91319 18.7483 7.91319 18.7089 7.91319ZM19.1033 8.35692L19.1888 8.28969L19.0573 8.27624L19.0179 8.21574L18.9981 8.26952L18.7615 8.24935H18.7089C18.8141 8.24935 18.9192 8.27624 19.0113 8.33003C19.0967 8.38382 19.1625 8.44432 19.2151 8.51828L19.1033 8.35692ZM20.7007 6.54166L20.5824 6.56183L20.7402 6.67613L20.8256 6.92488L20.8454 6.97867V6.94505L20.898 6.7837C20.8191 6.72319 20.7533 6.64251 20.7007 6.54166Z" fill="#27B83E"/>
<path d="M1.61053 21.1041C1.94579 21.447 2.25476 21.763 2.57688 22.0722C2.24819 21.7562 1.92607 21.4268 1.61053 21.1041ZM2.80038 21.8235C2.63604 21.6688 2.47827 21.5075 2.31393 21.3528C2.47827 21.5142 2.63604 21.6688 2.80038 21.8302C2.96473 21.9848 3.12907 22.0991 3.29999 22.1798C3.12907 22.0991 2.96473 21.9781 2.80038 21.8235ZM5.0749 22.2537C5.24582 22.1394 5.40359 21.9983 5.54821 21.8436C5.40359 21.9983 5.24582 22.1327 5.0749 22.2537ZM7.29026 11.4093C6.35679 12.2967 5.41674 13.1909 4.48327 14.0851C5.41674 13.1909 6.35679 12.3034 7.29026 11.416C7.41516 11.3017 7.54006 11.2143 7.67154 11.1605C7.54006 11.2076 7.41516 11.295 7.29026 11.4093ZM8.54585 11.2412C8.54585 11.2412 8.61158 11.2748 8.64445 11.295H8.65103L8.54585 11.2412ZM10.656 1.4455V1.45895C10.6692 1.40516 10.6955 1.35137 10.7415 1.31104C10.6955 1.35137 10.6626 1.39844 10.656 1.4455ZM10.5706 14.7641C10.5706 14.7641 10.564 14.7843 10.5377 14.8112L10.5771 14.7708H10.5706V14.7641ZM10.5377 14.7171L10.3339 14.5154L10.564 14.7507C10.564 14.7507 10.5508 14.7305 10.5377 14.7171ZM8.04624 12.2295C8.04624 12.2295 8.05282 12.2228 8.05282 12.216L5.85718 14.2868L8.04624 12.2295ZM3.98366 21.5209C3.77987 21.5007 3.6221 21.4671 3.4972 21.4066C3.63525 21.4873 3.78645 21.5209 3.98366 21.5209ZM11.4646 1.43205V1.45895L11.5764 1.39171L11.4646 1.43205ZM11.4712 1.69426L11.4514 1.59341V1.68753L11.5698 1.76821C11.5698 1.76821 11.6421 1.81527 11.675 1.84217C11.7933 1.91612 11.9116 1.98335 12.0234 2.05731L11.4712 1.69426ZM11.9905 1.64047H11.9971C12.1154 1.62702 12.2272 1.60013 12.3455 1.57996L11.9905 1.64047ZM13.9035 3.86584C13.8509 3.81878 13.7983 3.77844 13.7457 3.73138L13.9035 3.87257L13.9889 3.9398C13.956 3.91963 13.9298 3.89274 13.9035 3.86584ZM14.6069 4.43731C14.6069 4.43731 14.6003 4.45748 14.5937 4.46421L14.6134 4.47765V4.43731H14.6069ZM16.5461 9.00235L16.2963 9.26456L16.5527 9.00235H16.5461ZM17.4796 8.37038C17.5716 8.41744 17.6636 8.41071 17.782 8.34348C17.6636 8.40399 17.5716 8.41744 17.4796 8.37038ZM18.1041 9.79569C18.1172 9.6545 18.1567 9.50659 18.2158 9.35868C18.1172 9.39902 18.0252 9.43264 17.9266 9.45953L18.1764 9.39902L18.1238 9.6545C18.1172 9.70156 18.1041 9.74863 18.1041 9.79569ZM18.7089 7.90648C18.6037 7.90648 18.5051 7.91992 18.4065 7.96026C18.5445 7.9132 18.6892 7.89975 18.8272 7.91992C18.7878 7.90648 18.7483 7.90648 18.7089 7.90648ZM18.8666 10.0982C18.8929 10.2058 18.939 10.3134 19.0178 10.4209C18.9455 10.3134 18.8929 10.2058 18.8666 10.0982ZM18.5511 8.76704C18.4722 8.82755 18.3999 8.87461 18.3276 8.92168C18.3999 8.88134 18.4788 8.82755 18.5511 8.77377L18.939 8.47122L18.5511 8.76704ZM19.1033 8.35021L19.1888 8.28297L19.0573 8.26953L19.0178 8.20902L18.9981 8.2628L18.7615 8.24264H18.7089C18.8141 8.24264 18.9192 8.26953 19.0113 8.32331C19.0967 8.3771 19.1625 8.43761 19.2151 8.51156L19.1033 8.35021ZM18.2093 3.03889L18.3145 3.15319C18.9455 3.77844 19.5766 4.41042 20.2011 5.0424C19.5372 4.37008 18.8732 3.70449 18.2093 3.03889ZM20.7007 6.53495L20.5824 6.55512L20.7402 6.66941L20.8256 6.91817L20.8453 6.97195V6.93834L20.8979 6.77698C20.8191 6.71647 20.7533 6.63579 20.7007 6.53495ZM20.8979 6.77026C20.8979 6.77026 20.9177 6.79043 20.9242 6.79043L20.8979 6.77026ZM20.3786 12.6194C20.6547 12.7068 20.944 12.7068 21.2201 12.6194C20.944 12.7001 20.6547 12.7001 20.3786 12.6194ZM20.4641 12.2967C20.7336 12.3841 21.0163 12.3639 21.2792 12.2362C21.0228 12.3572 20.7402 12.3774 20.4641 12.2967ZM20.9702 6.48788H20.9834L21.036 6.2324L20.9702 6.48788ZM21.036 6.00382C21.036 6.00382 21.0294 6.01726 21.0228 6.02399L21.1017 6.0576C21.1017 6.0576 21.1083 6.05088 21.1083 6.04415C21.1149 6.03071 21.1149 6.02398 21.1214 6.01054H21.036V6.00382ZM20.9834 6.48116V6.50133L21.2661 6.4341L20.9834 6.48116ZM21.5093 5.95675L21.5356 5.7685C21.5224 5.84918 21.5027 5.91641 21.4764 5.99037C21.5487 5.96348 21.6276 5.94331 21.7065 5.92986L21.5093 5.95675ZM21.7328 5.92314H21.7065C21.7065 5.92314 21.7657 5.91641 21.8051 5.91641C21.7788 5.91641 21.7591 5.91641 21.7328 5.92314ZM22.377 5.99037C22.5282 6.05088 22.6729 6.13156 22.8175 6.23913C22.6794 6.12483 22.5282 6.04415 22.377 5.99037ZM10.564 14.7507C10.564 14.7507 10.5574 14.7708 10.5311 14.7977L10.5706 14.7574H10.564V14.7507ZM10.5311 14.7036L10.3273 14.5019L10.5574 14.7372C10.5574 14.7372 10.5443 14.7171 10.5311 14.7036ZM8.03967 12.216C8.03967 12.216 8.04624 12.2093 8.04624 12.2026L5.85061 14.2733L8.03967 12.216ZM3.97709 21.5075C3.7733 21.4873 3.61553 21.4537 3.49063 21.3932C3.62868 21.4739 3.77987 21.5075 3.97709 21.5075ZM10.564 14.744C10.564 14.744 10.5574 14.7641 10.5311 14.791L10.5706 14.7507H10.564V14.744ZM10.5311 14.6969L10.3273 14.4952L10.5574 14.7305C10.5574 14.7305 10.5443 14.7103 10.5311 14.6969ZM8.03967 12.2093C8.03967 12.2093 8.04624 12.2026 8.04624 12.1959L5.85061 14.2666L8.03967 12.2093ZM3.97709 21.5007C3.7733 21.4806 3.61553 21.447 3.49063 21.3865C3.62868 21.4671 3.77987 21.5007 3.97709 21.5007Z" fill="#27B83E"/>
<path d="M7.29027 11.4093C6.3568 12.2967 5.41675 13.1909 4.48328 14.0851C5.41675 13.1909 6.3568 12.3034 7.29027 11.416C7.41517 11.3017 7.54007 11.2143 7.67155 11.1605C7.54007 11.2076 7.41517 11.295 7.29027 11.4093ZM10.5706 14.7641C10.5706 14.7641 10.564 14.7843 10.5377 14.8112L10.5772 14.7709H10.5706V14.7641ZM8.04625 12.2295C8.04625 12.2295 8.05283 12.2228 8.05283 12.216L5.85719 14.2868L8.04625 12.2295ZM10.5706 14.7574C10.5706 14.7574 10.564 14.7776 10.5377 14.8045L10.5772 14.7641H10.5706V14.7574ZM8.04625 12.2228C8.04625 12.2228 8.05283 12.216 8.05283 12.2093L5.85719 14.2801L8.04625 12.2228ZM10.5706 14.7507C10.5706 14.7507 10.564 14.7709 10.5377 14.7977L10.5772 14.7574H10.5706V14.7507ZM8.04625 12.216C8.04625 12.216 8.05283 12.2093 8.05283 12.2026L5.85719 14.2733L8.04625 12.216ZM11.4712 1.68082L11.4515 1.57997V1.6741L11.5698 1.75478C11.5698 1.75478 11.6421 1.80184 11.675 1.82873C11.7933 1.90269 11.9116 1.96992 12.0234 2.04387L11.4712 1.68082ZM11.9905 1.62704H11.9971C12.1154 1.61359 12.2272 1.5867 12.3455 1.56653L11.9905 1.62704ZM13.9035 3.85241C13.8509 3.80535 13.7983 3.76501 13.7457 3.71795L13.9035 3.85913L13.9889 3.92636C13.9561 3.9062 13.9298 3.8793 13.9035 3.85241ZM14.6069 4.42388C14.6069 4.42388 14.6003 4.44405 14.5937 4.45077L14.6134 4.46422V4.42388H14.6069ZM16.5461 8.98892L16.2963 9.25112L16.5527 8.98892H16.5461ZM18.7089 7.89304C18.6037 7.89304 18.5051 7.90649 18.4065 7.94683C18.5445 7.89976 18.6892 7.88632 18.8272 7.90649C18.7878 7.89304 18.7483 7.89304 18.7089 7.89304ZM19.1033 8.33677L19.1888 8.26954L19.0573 8.25609L19.0179 8.19558L18.9981 8.24937L18.7615 8.2292H18.7089C18.8141 8.2292 18.9192 8.25609 19.0113 8.30988C19.0967 8.36366 19.1625 8.42417 19.2151 8.49813L19.1033 8.33677ZM20.7007 6.52151L20.5824 6.54168L20.7402 6.65598L20.8256 6.90473L20.8454 6.95852V6.9249L20.898 6.76355C20.8191 6.70304 20.7533 6.62236 20.7007 6.52151ZM20.3786 12.606C20.6547 12.6934 20.944 12.6934 21.2201 12.606C20.944 12.6867 20.6547 12.6867 20.3786 12.606ZM20.4641 12.2833C20.7336 12.3707 21.0163 12.3505 21.2792 12.2228C21.0229 12.3438 20.7402 12.364 20.4641 12.2833ZM20.9834 6.47445V6.49462L21.2661 6.42739L20.9834 6.47445ZM23.8627 7.95355C23.6852 7.75185 23.5012 7.56361 23.3105 7.37536L23.1133 7.18038C22.9161 6.97869 22.732 6.79044 22.5282 6.63581C22.1733 6.3736 21.838 6.33326 21.483 6.53496C21.4107 6.5753 21.3384 6.58874 21.2924 6.59547L21.0163 6.64253C21.0754 6.67615 21.1412 6.70304 21.2069 6.71648C21.2595 6.72321 21.3515 6.70304 21.4501 6.65598C21.8051 6.47445 22.1272 6.41394 22.5414 6.74338C22.64 6.81733 22.7255 6.89801 22.8043 6.97869L22.8701 7.04592C23.1593 7.34174 23.4486 7.63084 23.7312 7.93338C24.198 8.41745 24.2046 8.98892 23.7378 9.47299C23.0081 10.226 22.2719 10.979 21.529 11.732C21.0689 12.1959 20.5167 12.1959 20.0499 11.732C19.7081 11.3891 19.3663 11.0395 19.031 10.6899C18.5971 10.2327 18.5708 9.75536 18.9455 9.23095C19.0376 9.10321 19.0967 8.97547 19.123 8.8679C19.1428 8.77378 19.123 8.67965 19.0704 8.6057L18.9653 8.99564C18.9258 9.10994 18.8732 9.19061 18.8404 9.23768C18.492 9.73519 18.5183 10.2462 18.9061 10.6764C19.2874 11.1 19.6818 11.4967 20.0697 11.8597C20.5101 12.2766 21.0886 12.2766 21.5093 11.8664C22.285 11.1 23.0804 10.2865 23.8693 9.45282C24.2703 9.02254 24.2703 8.42417 23.8627 7.96027V7.95355ZM10.564 14.744C10.564 14.744 10.5574 14.7641 10.5311 14.791L10.5706 14.7507H10.564V14.744ZM8.03968 12.2093C8.03968 12.2093 8.04625 12.2026 8.04625 12.1959L5.85062 14.2666L8.03968 12.2093ZM10.564 14.7372C10.564 14.7372 10.5574 14.7574 10.5311 14.7843L10.5706 14.744H10.564V14.7372ZM8.03968 12.2026C8.03968 12.2026 8.04625 12.1959 8.04625 12.1892L5.85062 14.2599L8.03968 12.2026ZM10.564 14.7305C10.564 14.7305 10.5574 14.7507 10.5311 14.7776L10.5706 14.7372H10.564V14.7305ZM8.03968 12.1959C8.03968 12.1959 8.04625 12.1892 8.04625 12.1824L5.85062 14.2532L8.03968 12.1959ZM11.4712 1.70099L11.4515 1.60014V1.69427L11.5698 1.77495C11.5698 1.77495 11.6421 1.82201 11.675 1.8489C11.7933 1.92286 11.9116 1.99009 12.0234 2.06404L11.4712 1.70099ZM11.9905 1.64721H11.9971C12.1154 1.63376 12.2272 1.60687 12.3455 1.5867L11.9905 1.64721ZM13.9035 3.87258C13.8509 3.82552 13.7983 3.78518 13.7457 3.73812L13.9035 3.8793L13.9889 3.94653C13.9561 3.92636 13.9298 3.89947 13.9035 3.87258ZM14.6069 4.44405C14.6069 4.44405 14.6003 4.46422 14.5937 4.47094L14.6134 4.48439V4.44405H14.6069ZM18.7089 7.91321C18.6037 7.91321 18.5051 7.92666 18.4065 7.967C18.5445 7.91993 18.6892 7.90649 18.8272 7.92666C18.7878 7.91321 18.7483 7.91321 18.7089 7.91321ZM19.1033 8.35694L19.1888 8.28971L19.0573 8.27626L19.0179 8.21575L18.9981 8.26954L18.7615 8.24937H18.7089C18.8141 8.24937 18.9192 8.27626 19.0113 8.33005C19.0967 8.38383 19.1625 8.44434 19.2151 8.5183L19.1033 8.35694ZM20.7007 6.54168L20.5824 6.56185L20.7402 6.67615L20.8256 6.9249L20.8454 6.97869V6.94507L20.898 6.78372C20.8191 6.72321 20.7533 6.64253 20.7007 6.54168ZM20.4641 12.3034C20.7336 12.3908 21.0163 12.3707 21.2792 12.2429C21.0229 12.364 20.7402 12.3841 20.4641 12.3034ZM20.9834 6.49462V6.51479L21.2661 6.44756L20.9834 6.49462ZM23.8627 7.97372C23.6852 7.77202 23.5012 7.58378 23.3105 7.39553L23.1133 7.20055C22.9161 6.99886 22.732 6.81061 22.5282 6.65598C22.1733 6.39377 21.838 6.35343 21.483 6.55513C21.4107 6.59547 21.3384 6.60891 21.2924 6.61564L21.0163 6.6627C21.0754 6.69631 21.1412 6.72321 21.2069 6.73665C21.2595 6.74338 21.3515 6.72321 21.4501 6.67615C21.8051 6.49462 22.1272 6.43411 22.5414 6.76355C22.64 6.8375 22.7255 6.91818 22.8043 6.99886L22.8701 7.06609C23.1593 7.36191 23.4486 7.65101 23.7312 7.95355C24.198 8.43762 24.2046 9.00909 23.7378 9.49316C23.0081 10.2462 22.2719 10.9992 21.529 11.7521C21.0689 12.216 20.5167 12.216 20.0499 11.7521C19.7081 11.4093 19.3663 11.0597 19.031 10.7101C18.5971 10.2529 18.5708 9.77553 18.9455 9.25112C19.0376 9.12338 19.0967 8.99564 19.123 8.88807C19.1428 8.79395 19.123 8.69982 19.0704 8.62587L18.9653 9.01581C18.9258 9.13011 18.8732 9.21078 18.8404 9.25785C18.492 9.75536 18.5183 10.2663 18.9061 10.6966C19.2874 11.1202 19.6818 11.5168 20.0697 11.8799C20.5101 12.2967 21.0886 12.2967 21.5093 11.8866C22.285 11.1202 23.0804 10.3067 23.8693 9.47299C24.2703 9.04271 24.2703 8.44434 23.8627 7.98044V7.97372ZM10.564 14.7641C10.564 14.7641 10.5574 14.7843 10.5311 14.8112L10.5706 14.7709H10.564V14.7641ZM8.03968 12.2295C8.03968 12.2295 8.04625 12.2228 8.04625 12.216L5.85062 14.2868L8.03968 12.2295ZM10.564 14.7574C10.564 14.7574 10.5574 14.7776 10.5311 14.8045L10.5706 14.7641H10.564V14.7574ZM8.03968 12.2228C8.03968 12.2228 8.04625 12.216 8.04625 12.2093L5.85062 14.2801L8.03968 12.2228ZM10.564 14.7507C10.564 14.7507 10.5574 14.7709 10.5311 14.7977L10.5706 14.7574H10.564V14.7507ZM8.03968 12.216C8.03968 12.216 8.04625 12.2093 8.04625 12.2026L5.85062 14.2733L8.03968 12.216ZM11.4712 1.70099L11.4515 1.60014V1.69427L11.5698 1.77495C11.5698 1.77495 11.6421 1.82201 11.675 1.8489C11.7933 1.92286 11.9116 1.99009 12.0234 2.06404L11.4712 1.70099ZM11.9905 1.64721H11.9971C12.1154 1.63376 12.2272 1.60687 12.3455 1.5867L11.9905 1.64721ZM13.9035 3.87258C13.8509 3.82552 13.7983 3.78518 13.7457 3.73812L13.9035 3.8793L13.9889 3.94653C13.9561 3.92636 13.9298 3.89947 13.9035 3.87258ZM14.6069 4.44405C14.6069 4.44405 14.6003 4.46422 14.5937 4.47094L14.6134 4.48439V4.44405H14.6069ZM18.7089 7.91321C18.6037 7.91321 18.5051 7.92666 18.4065 7.967C18.5445 7.91993 18.6892 7.90649 18.8272 7.92666C18.7878 7.91321 18.7483 7.91321 18.7089 7.91321ZM19.1033 8.35694L19.1888 8.28971L19.0573 8.27626L19.0179 8.21575L18.9981 8.26954L18.7615 8.24937H18.7089C18.8141 8.24937 18.9192 8.27626 19.0113 8.33005C19.0967 8.38383 19.1625 8.44434 19.2151 8.5183L19.1033 8.35694ZM20.7007 6.54168L20.5824 6.56185L20.7402 6.67615L20.8256 6.9249L20.8454 6.97869V6.94507L20.898 6.78372C20.8191 6.72321 20.7533 6.64253 20.7007 6.54168ZM20.4641 12.3034C20.7336 12.3908 21.0163 12.3707 21.2792 12.2429C21.0229 12.364 20.7402 12.3841 20.4641 12.3034ZM20.9834 6.49462V6.51479L21.2661 6.44756L20.9834 6.49462ZM23.8627 7.97372C23.6852 7.77202 23.5012 7.58378 23.3105 7.39553L23.1133 7.20055C22.9161 6.99886 22.732 6.81061 22.5282 6.65598C22.1733 6.39377 21.838 6.35343 21.483 6.55513C21.4107 6.59547 21.3384 6.60891 21.2924 6.61564L21.0163 6.6627C21.0754 6.69631 21.1412 6.72321 21.2069 6.73665C21.2595 6.74338 21.3515 6.72321 21.4501 6.67615C21.8051 6.49462 22.1272 6.43411 22.5414 6.76355C22.64 6.8375 22.7255 6.91818 22.8043 6.99886L22.8701 7.06609C23.1593 7.36191 23.4486 7.65101 23.7312 7.95355C24.198 8.43762 24.2046 9.00909 23.7378 9.49316C23.0081 10.2462 22.2719 10.9992 21.529 11.7521C21.0689 12.216 20.5167 12.216 20.0499 11.7521C19.7081 11.4093 19.3663 11.0597 19.031 10.7101C18.5971 10.2529 18.5708 9.77553 18.9455 9.25112C19.0376 9.12338 19.0967 8.99564 19.123 8.88807C19.1428 8.79395 19.123 8.69982 19.0704 8.62587L18.9653 9.01581C18.9258 9.13011 18.8732 9.21078 18.8404 9.25785C18.492 9.75536 18.5183 10.2663 18.9061 10.6966C19.2874 11.1202 19.6818 11.5168 20.0697 11.8799C20.5101 12.2967 21.0886 12.2967 21.5093 11.8866C22.285 11.1202 23.0804 10.3067 23.8693 9.47299C24.2703 9.04271 24.2703 8.44434 23.8627 7.98044V7.97372ZM10.564 14.7641C10.564 14.7641 10.5574 14.7843 10.5311 14.8112L10.5706 14.7709H10.564V14.7641ZM8.03968 12.2295C8.03968 12.2295 8.04625 12.2228 8.04625 12.216L5.85062 14.2868L8.03968 12.2295ZM11.9905 1.64721H11.9971C12.1154 1.63376 12.2272 1.60687 12.3455 1.5867L11.9905 1.64721ZM18.7155 7.91321C18.6103 7.91321 18.5117 7.92666 18.4131 7.967C18.5511 7.91993 18.6957 7.90649 18.8338 7.92666C18.7943 7.91321 18.7549 7.91321 18.7155 7.91321ZM10.5706 14.7641C10.5706 14.7641 10.564 14.7843 10.5377 14.8112L10.5772 14.7709H10.5706V14.7641ZM8.04625 12.2295C8.04625 12.2295 8.05283 12.2228 8.05283 12.216L5.85719 14.2868L8.04625 12.2295ZM11.9905 1.64721H11.9971C12.1154 1.63376 12.2272 1.60687 12.3455 1.5867L11.9905 1.64721ZM18.7155 7.91321C18.6103 7.91321 18.5117 7.92666 18.4131 7.967C18.5511 7.91993 18.6957 7.90649 18.8338 7.92666C18.7943 7.91321 18.7549 7.91321 18.7155 7.91321Z" fill="#27B83E"/>
<path d="M24.4806 7.41576C24.2768 7.18045 24.0533 6.95859 23.889 6.79051L23.6983 6.60226C23.488 6.38712 23.2776 6.17197 23.0212 5.977C22.6597 5.70807 22.2784 5.59378 21.8971 5.58033C21.9168 5.06265 21.713 4.57858 21.2923 4.14157C20.9439 3.79197 20.5955 3.44236 20.2471 3.08603C19.9184 2.76332 19.5963 2.43389 19.2676 2.10445C18.4064 1.21699 17.3546 0.611903 16.1451 0.282467C14.8172 -0.0671379 13.4038 -0.0940306 11.9379 0.201789C11.5106 0.289191 11.0898 0.416931 10.6888 0.571564C10.1629 0.779983 10.038 1.14303 10.0052 1.34473C9.97231 1.5397 9.99203 1.92965 10.439 2.29942C10.5968 2.42716 10.7612 2.54146 10.9452 2.6692L11.7932 3.22722C12.2665 3.54321 12.7464 3.8592 13.2197 4.17519C13.2395 4.18864 13.2526 4.20208 13.2723 4.21553C13.108 4.50462 13.016 4.787 12.9897 5.09626C12.9502 5.45259 13.0488 5.78875 13.2723 6.0913L8.57867 10.8916C8.0199 10.6563 7.50057 10.7572 7.0667 11.1673C5.19318 12.9489 3.31966 14.7306 1.45272 16.5189C1.1306 16.8282 0.788766 17.1711 0.492947 17.5678C-0.203871 18.5157 -0.157855 19.6318 0.617849 20.5461C0.749324 20.7008 0.893946 20.8487 1.03857 20.9966L1.40013 21.3664C1.71567 21.6891 2.02463 22.0118 2.35332 22.3211C2.82006 22.7648 3.35911 23.0001 3.9113 23.0001C4.37146 23.0001 4.82505 22.8387 5.2655 22.5295C5.44956 22.4017 5.62048 22.2471 5.78482 22.079L6.12666 21.7227C6.69857 21.1243 7.28364 20.5125 7.84898 19.894C8.88106 18.7645 9.90657 17.6215 10.9321 16.4719L11.5763 15.7592C11.9576 15.3357 12.0628 14.7911 11.8721 14.2869C13.0685 13.0632 14.2715 11.8396 15.468 10.616L15.7309 10.3471C15.9939 10.0714 16.2568 9.80249 16.5329 9.50667L16.5724 9.46633C16.9471 9.76215 17.3481 9.88989 17.7819 9.83611C17.7491 10.3471 17.9331 10.8446 18.3144 11.2614C18.7088 11.6984 19.1164 12.1153 19.5174 12.4918C20.2734 13.2044 21.3515 13.2044 22.0812 12.485C22.8634 11.7186 23.6654 10.8984 24.4674 10.0512C25.1774 9.29153 25.184 8.2091 24.4806 7.41576ZM10.656 1.45902V1.44558C10.6625 1.39852 10.6954 1.35145 10.7414 1.31111C10.6954 1.35145 10.6691 1.40524 10.656 1.45902ZM22.824 6.25265C22.6794 6.14508 22.5348 6.0644 22.3836 6.00389C22.5348 6.05768 22.686 6.13836 22.824 6.25265ZM21.5421 5.78203L21.5158 5.97028L21.713 5.94339H21.7393C21.7393 5.94339 21.7853 5.92994 21.8116 5.92994C21.7722 5.92994 21.7459 5.93666 21.713 5.94339C21.6342 5.95683 21.5553 5.977 21.483 6.00389C21.5093 5.92994 21.529 5.86271 21.5421 5.78203ZM21.0425 6.01062H21.128C21.128 6.01062 21.1214 6.03751 21.1148 6.05096C21.1148 6.05768 21.1083 6.05768 21.1083 6.0644L21.0294 6.03079C21.0294 6.03079 21.0359 6.01734 21.0425 6.01062ZM21.0425 6.2392L20.9899 6.49469L21.2726 6.44762L20.9834 6.51485V6.49469L21.0491 6.2392H21.0425ZM20.7073 6.54175C20.7598 6.6426 20.8256 6.72327 20.9045 6.78378L20.9308 6.79723C20.9308 6.79723 20.911 6.79051 20.9045 6.78378L20.8584 6.94514V6.97875L20.8322 6.92497L20.7467 6.67621L20.5889 6.56192L20.7073 6.54175ZM20.2076 5.0492C19.5831 4.41722 18.9521 3.78524 18.321 3.15999L18.2158 3.04569C18.8797 3.71129 19.5437 4.37688 20.2076 5.0492ZM11.4645 1.43885L11.5763 1.39852L11.4645 1.46575V1.43885ZM11.1293 1.57332C11.1293 1.57332 11.0833 1.5397 11.057 1.51953C11.057 1.51953 11.0548 1.51729 11.0504 1.51281C11.0504 1.51281 11.1096 1.49264 11.1359 1.47919V1.57332H11.1293ZM11.6683 1.84897C11.6683 1.84897 11.596 1.80191 11.5632 1.77501L11.4383 1.69434V1.60021L11.4645 1.70106L12.0167 2.06411C11.905 1.99016 11.7867 1.92292 11.6683 1.84897ZM11.9904 1.654H11.9839L12.3389 1.58676C12.2205 1.60693 12.1088 1.63383 11.9904 1.654ZM8.64441 11.2883H8.63783C8.63783 11.2883 8.57209 11.2614 8.53923 11.2413L8.64441 11.2883ZM10.1104 14.7776L4.52266 20.8756C4.35174 21.0638 4.14796 21.1848 4.00333 21.1916C3.68779 21.1714 3.58261 21.0907 3.50373 21.01L3.43799 20.9495C2.94496 20.452 2.43221 19.9343 1.94575 19.4166C1.6565 19.1074 1.64993 18.8855 1.92603 18.5561C2.24157 18.1729 2.59655 17.83 2.86607 17.5745C3.9376 16.5593 5.00912 15.5508 6.08064 14.5423L8.06592 12.6733C8.74301 13.3658 9.42011 14.065 10.1038 14.7575L10.1169 14.7776H10.1104ZM10.3273 14.5222L10.5311 14.7239C10.5311 14.7239 10.5508 14.744 10.5574 14.7575L10.3273 14.5222ZM8.03962 12.2363L5.85056 14.2936L8.04619 12.2228C8.04619 12.2228 8.04619 12.2296 8.03962 12.2363ZM3.97704 21.5277C3.77983 21.5277 3.62863 21.4941 3.49058 21.4134C3.61548 21.4739 3.77325 21.5075 3.97704 21.5277ZM10.5639 14.7642H10.5705L10.5311 14.8113C10.5311 14.8113 10.5639 14.7709 10.5639 14.7642ZM7.28364 11.4093C7.40854 11.295 7.53344 11.2076 7.66492 11.1606C7.53344 11.2144 7.40854 11.3018 7.28364 11.4161C6.35016 12.3035 5.41012 13.191 4.47664 14.0852C5.41012 13.191 6.35016 12.2968 7.28364 11.4093ZM1.61049 21.1042C1.92603 21.4269 2.24814 21.7563 2.57683 22.0723C2.25471 21.763 1.94575 21.447 1.61049 21.1042ZM2.80034 21.8303C2.63599 21.6689 2.47822 21.5143 2.31388 21.3529C2.47822 21.5075 2.63599 21.6689 2.80034 21.8235C2.96468 21.9782 3.12902 22.0992 3.29994 22.1799C3.12902 22.0992 2.96468 21.9849 2.80034 21.8303ZM5.07486 22.2538C5.24577 22.1328 5.40354 21.9983 5.54817 21.8437C5.40354 21.9983 5.24577 22.1395 5.07486 22.2538ZM10.7546 12.8952L9.94601 12.0749L14.4951 7.43593L15.2905 8.25616L10.7546 12.8952ZM13.7456 3.73818C13.7982 3.78524 13.8508 3.82558 13.9034 3.87265C13.9297 3.89954 13.956 3.92643 13.9889 3.9466L13.9034 3.87937L13.7456 3.73818ZM14.5937 4.47101C14.5937 4.47101 14.6068 4.45084 14.6068 4.44412V4.48446L14.5937 4.47101ZM16.3028 9.27136L16.5526 9.00916H16.5592L16.3028 9.27136ZM17.4861 8.37718C17.5781 8.42424 17.6702 8.41079 17.7885 8.35028C17.6702 8.41752 17.5781 8.42424 17.4861 8.37718ZM18.1106 9.80249C18.1106 9.75543 18.1238 9.70837 18.1303 9.6613L18.1829 9.40582L17.9331 9.46633C18.0317 9.43944 18.1238 9.40582 18.2224 9.36548C18.1632 9.51339 18.1238 9.6613 18.1106 9.80249ZM17.9331 7.84605L17.8608 7.89983C17.7885 7.95362 17.7162 8.0074 17.6373 8.05446C17.6307 8.05446 17.6242 8.06119 17.6176 8.06119L14.758 5.1366C14.7974 5.06265 14.8369 5.00214 14.8763 4.94835C15.3694 4.28276 15.3102 3.66423 14.7054 3.16671C14.2255 2.7566 13.7062 2.39355 13.2066 2.03722L13.108 1.96999C13.0423 1.92292 12.9765 1.88258 12.9108 1.83552C14.0875 1.68761 15.1393 1.78174 16.1122 2.12462C16.8287 2.37338 17.4598 2.76332 17.9857 3.28773L18.0909 3.3953C18.722 4.02728 19.3531 4.65253 19.9776 5.28451C20.0499 5.36519 20.1156 5.43915 20.1748 5.52655L20.1551 5.56689C19.9381 5.95011 19.925 6.42073 20.1156 6.83084C20.3063 7.22751 20.6744 7.50316 21.0951 7.56367C21.3975 7.61746 21.6802 7.50316 21.8248 7.42921C21.9234 7.37542 21.9628 7.38215 21.9628 7.3687C21.976 7.3687 22.0023 7.38887 22.0483 7.42921C22.114 7.48299 22.1732 7.53678 22.2324 7.59729L22.2981 7.66452C22.5873 7.95362 22.87 8.24271 23.1527 8.53853C23.3039 8.69989 23.3105 8.74695 23.1527 8.90158C22.423 9.65458 21.6933 10.4076 20.9505 11.1539C20.8124 11.2883 20.773 11.295 20.6284 11.1471C20.2865 10.8042 19.9513 10.4614 19.616 10.1118C19.478 9.97057 19.4582 9.9504 19.6094 9.74198C19.7146 9.58735 19.8592 9.35204 19.925 9.06294C20.0367 8.55198 19.8001 8.02757 19.3465 7.75192C19.1493 7.63763 18.9323 7.57712 18.7088 7.57712C18.4262 7.57712 18.1566 7.67124 17.9266 7.84605H17.9331ZM18.768 8.24944L19.0046 8.26961L19.0244 8.21582L19.0638 8.27633L19.1953 8.28977L19.1098 8.35701L19.2216 8.51836C19.169 8.44441 19.1033 8.3839 19.0178 8.33011C18.9258 8.27633 18.8206 8.24944 18.7154 8.24944H18.768ZM18.413 7.96706C18.5116 7.92672 18.6102 7.91328 18.7154 7.91328C18.7548 7.91328 18.7943 7.91328 18.8337 7.92672C18.6957 7.90655 18.5511 7.92672 18.413 7.96706ZM18.3341 8.92848C18.4064 8.88141 18.4787 8.83435 18.5576 8.77384L18.9455 8.47802L18.5576 8.78057C18.4853 8.83435 18.4064 8.88814 18.3341 8.92848ZM20.3851 12.6262C20.6612 12.7069 20.9505 12.7069 21.2266 12.6262C20.9505 12.7136 20.6612 12.7136 20.3851 12.6262ZM20.4706 12.3035C20.7467 12.3842 21.0294 12.364 21.2857 12.243C21.0228 12.3707 20.7401 12.3909 20.4706 12.3035ZM23.8758 9.46633C23.087 10.3 22.2915 11.1135 21.5158 11.88C21.0951 12.2901 20.5166 12.2901 20.0762 11.8732C19.6883 11.5102 19.2939 11.1135 18.9126 10.6899C18.5248 10.2597 18.4985 9.7487 18.8469 9.25119C18.8797 9.20413 18.9323 9.12345 18.9718 9.00916L19.077 8.61921C19.1296 8.69317 19.1493 8.78729 19.1296 8.88142C19.1033 8.98899 19.0441 9.11673 18.9521 9.24447C18.5774 9.76888 18.6036 10.2462 19.0375 10.7034C19.3728 11.053 19.7146 11.4026 20.0564 11.7455C20.5232 12.2161 21.0754 12.2161 21.5355 11.7455C22.2784 10.9925 23.0146 10.2395 23.7443 9.4865C24.2111 9.00243 24.2045 8.43096 23.7378 7.94689C23.4551 7.64435 23.1658 7.35525 22.8766 7.05943L22.8109 6.9922C22.732 6.91152 22.6465 6.83084 22.5479 6.75689C22.1338 6.42745 21.8116 6.48796 21.4567 6.66949C21.3581 6.71655 21.266 6.73672 21.2134 6.73C21.1477 6.71655 21.082 6.68966 21.0228 6.65604L21.2989 6.60898C21.3449 6.60226 21.4172 6.58881 21.4895 6.54847C21.8445 6.34678 22.1798 6.38712 22.5348 6.64932C22.7385 6.80395 22.9226 6.9922 23.1198 7.1939L23.317 7.38887C23.5077 7.57712 23.6917 7.76537 23.8692 7.96706C24.2768 8.43096 24.2768 9.02932 23.8758 9.45961V9.46633ZM19.0244 10.4277C18.9455 10.3202 18.8995 10.2126 18.8732 10.105C18.8995 10.2126 18.9521 10.3202 19.0244 10.4277Z" fill="#27B83E"/>
</g>
<defs>
<clipPath id="clip0_535_592">
<rect width="25" height="23" fill="white"/>
</clipPath>
</defs>
</svg>
