<svg width="48" height="48" viewBox="0 0 48 48" fill="none" xmlns="http://www.w3.org/2000/svg">
<path d="M30.8818 19.9911L26.0901 15.7745C25.0709 14.8807 23.7624 14.3863 22.4068 14.3828H15.7401C14.3879 14.383 13.0818 14.8746 12.0651 15.7661L9.17344 18.2661C8.58019 18.7869 8.10411 19.4275 7.7766 20.1457C7.44909 20.8639 7.2776 21.6435 7.27344 22.4328V26.2745C7.27344 26.6932 7.35605 27.1079 7.51655 27.4946C7.67705 27.8814 7.91228 28.2327 8.20876 28.5284C8.50524 28.8241 8.85715 29.0584 9.24434 29.2179C9.63152 29.3774 10.0464 29.4589 10.4651 29.4578H11.2568" stroke="#B5ADBE" stroke-width="2" stroke-linecap="round" stroke-linejoin="round"/>
<path d="M37.1818 29.5328H38.0151C38.8601 29.5305 39.6698 29.1933 40.2666 28.595C40.8633 27.9967 41.1984 27.1861 41.1984 26.3411V24.6244C41.2024 23.9475 40.9915 23.2867 40.5962 22.7372C40.2009 22.1876 39.6415 21.7776 38.9984 21.5661C35.5999 20.5434 32.0724 20.013 28.5234 19.9911" stroke="#B5ADBE" stroke-width="2" stroke-linecap="round" stroke-linejoin="round"/>
<path d="M34.0732 32.6415C35.7899 32.6415 37.1815 31.2498 37.1815 29.5331C37.1815 27.8165 35.7899 26.4248 34.0732 26.4248C32.3565 26.4248 30.9648 27.8165 30.9648 29.5331C30.9648 31.2498 32.3565 32.6415 34.0732 32.6415Z" stroke="#B5ADBE" stroke-width="2" stroke-linecap="round" stroke-linejoin="round"/>
<path d="M14.3388 32.6415C16.0555 32.6415 17.4471 31.2498 17.4471 29.5331C17.4471 27.8165 16.0555 26.4248 14.3388 26.4248C12.6221 26.4248 11.2305 27.8165 11.2305 29.5331C11.2305 31.2498 12.6221 32.6415 14.3388 32.6415Z" stroke="#B5ADBE" stroke-width="2" stroke-linecap="round" stroke-linejoin="round"/>
<path d="M30.8828 19.991L38.0578 15.1826" stroke="#B5ADBE" stroke-width="2" stroke-linecap="round" stroke-linejoin="round"/>
<path d="M30.8805 29.5244H17.6055" stroke="#B5ADBE" stroke-width="2" stroke-linecap="round" stroke-linejoin="round"/>
<path d="M8.03906 19.9912H28.4891" stroke="#B5ADBE" stroke-width="2" stroke-linecap="round" stroke-linejoin="round"/>
</svg>
