<svg width="48" height="48" viewBox="0 0 48 48" fill="none" xmlns="http://www.w3.org/2000/svg">
<path d="M34.8334 14.4664C34.8382 15.2918 34.5366 16.0895 33.987 16.7053C33.4374 17.3211 32.679 17.711 31.8584 17.7998C28.9692 18.0683 26.0683 18.1907 23.1667 18.1664C20.2677 18.1849 17.3695 18.057 14.4834 17.7831C13.6613 17.6963 12.9008 17.3072 12.3495 16.6912C11.7982 16.0752 11.4955 15.2764 11.5001 14.4498V13.5914C11.4955 12.7648 11.7982 11.966 12.3495 11.35C12.9008 10.734 13.6613 10.3449 14.4834 10.2581C20.2601 9.66918 26.0817 9.66918 31.8584 10.2581C32.679 10.3468 33.4374 10.7368 33.987 11.3526C34.5366 11.9683 34.8382 12.7661 34.8334 13.5914V14.4664Z" stroke="#27B83E" stroke-width="2" stroke-linecap="round" stroke-linejoin="round"/>
<path d="M24 27.3333V25.6667C23.9998 24.794 24.3418 23.9561 24.9526 23.3329C25.5634 22.7097 26.3942 22.3508 27.2667 22.3333C30.65 22.2583 33.3083 22.0667 35.1583 21.8917C35.9849 21.8107 36.7515 21.4241 37.3079 20.8075C37.8644 20.1909 38.1706 19.3889 38.1667 18.5583V17.3333C38.1667 16.4493 37.8155 15.6014 37.1904 14.9763C36.5652 14.3512 35.7174 14 34.8333 14V14" stroke="#27B83E" stroke-width="2" stroke-linecap="round" stroke-linejoin="round"/>
<path d="M24 38.9998C23.2393 38.9985 22.5057 38.7176 21.9387 38.2105C21.3717 37.7035 21.0109 37.0056 20.925 36.2498C20.8086 35.2261 20.7502 34.1967 20.75 33.1665C20.7492 32.1387 20.8104 31.1118 20.9333 30.0915C21.0154 29.3349 21.3736 28.6351 21.9395 28.1262C22.5053 27.6172 23.239 27.3348 24 27.3331V27.3331C24.7598 27.3346 25.4924 27.6158 26.058 28.123C26.6236 28.6303 26.9827 29.328 27.0667 30.0831C27.1898 31.1174 27.251 32.1582 27.25 33.1998C27.2492 34.2162 27.1908 35.2317 27.075 36.2415C26.9928 36.9995 26.6334 37.7004 26.0658 38.2096C25.4982 38.7187 24.7625 39.0001 24 38.9998V38.9998Z" stroke="#27B83E" stroke-width="2" stroke-linecap="round" stroke-linejoin="round"/>
</svg>
