<svg width="48" height="48" viewBox="0 0 48 48" fill="none" xmlns="http://www.w3.org/2000/svg">
<path d="M18.1685 38.0996H29.8351" stroke="#27B83E" stroke-width="2" stroke-linecap="round" stroke-linejoin="round"/>
<path d="M24 38.133V32.333" stroke="#27B83E" stroke-width="2" stroke-linecap="round" stroke-linejoin="round"/>
<path d="M37.7018 28.8916C37.6117 29.6409 37.27 30.3374 36.7326 30.8672C36.1952 31.397 35.4939 31.7288 34.7435 31.8083C31.1745 32.1705 27.5891 32.3458 24.0018 32.3333C20.3838 32.3463 16.7677 32.1683 13.1685 31.8C12.4193 31.7208 11.719 31.3903 11.1817 30.8621C10.6445 30.3339 10.302 29.6394 10.2101 28.8916C9.93548 26.4376 9.81025 23.9692 9.83512 21.5C9.8404 19.0375 9.99345 16.5775 10.2935 14.1333C10.3836 13.3841 10.7253 12.6876 11.2627 12.1577C11.8001 11.6279 12.5013 11.2961 13.2518 11.2166C16.8231 10.8458 20.4113 10.6622 24.0018 10.6666C27.5891 10.6542 31.1745 10.8294 34.7435 11.1916C35.4939 11.2711 36.1952 11.6029 36.7326 12.1327C37.27 12.6626 37.6117 13.3591 37.7018 14.1083C38.0003 16.5611 38.1561 19.0291 38.1685 21.5C38.1551 23.9708 37.9993 26.4388 37.7018 28.8916V28.8916Z" stroke="#27B83E" stroke-width="2" stroke-linecap="round" stroke-linejoin="round"/>
<path d="M18.1685 18.167H29.8351" stroke="#27B83E" stroke-width="2" stroke-linecap="round" stroke-linejoin="round"/>
<path d="M18.1685 23.167H24.0018" stroke="#27B83E" stroke-width="2" stroke-linecap="round" stroke-linejoin="round"/>
</svg>
