<svg width="48" height="48" viewBox="0 0 48 48" fill="none" xmlns="http://www.w3.org/2000/svg">
<path d="M21.5498 15.5919C23.2113 15.5919 24.5582 14.245 24.5582 12.5835C24.5582 10.9221 23.2113 9.5752 21.5498 9.5752C19.8884 9.5752 18.5415 10.9221 18.5415 12.5835C18.5415 14.245 19.8884 15.5919 21.5498 15.5919Z" stroke="#27B83E" stroke-width="2" stroke-linecap="round" stroke-linejoin="round"/>
<path d="M23.1001 29.5332C26.2784 31.6954 28.4902 35.01 29.2668 38.7749" stroke="#27B83E" stroke-width="2" stroke-linecap="round" stroke-linejoin="round"/>
<path d="M19.9249 29.7002C19.0188 33.3622 16.8349 36.5804 13.7666 38.7752" stroke="#27B83E" stroke-width="2" stroke-linecap="round" stroke-linejoin="round"/>
<path d="M24.5581 21.2168C25.0248 24.2918 29.3748 26.2918 33.2248 24.3085" stroke="#27B83E" stroke-width="2" stroke-linecap="round" stroke-linejoin="round"/>
<path d="M33.7416 14.2666H30.9333C30.0128 14.2666 29.2666 15.0128 29.2666 15.9333V18.7416C29.2666 19.6621 30.0128 20.4083 30.9333 20.4083H33.7416C34.6621 20.4083 35.4083 19.6621 35.4083 18.7416V15.9333C35.4083 15.0128 34.6621 14.2666 33.7416 14.2666Z" stroke="#27B83E" stroke-width="2" stroke-linecap="round" stroke-linejoin="round"/>
<path d="M21.5579 18.7588H21.5496C19.8559 18.7588 18.4829 20.1318 18.4829 21.8255V26.4671C18.4829 28.1608 19.8559 29.5338 21.5496 29.5338H21.5579C23.2516 29.5338 24.6246 28.1608 24.6246 26.4671V21.8255C24.6246 20.1318 23.2516 18.7588 21.5579 18.7588Z" stroke="#27B83E" stroke-width="2" stroke-linecap="round" stroke-linejoin="round"/>
</svg>
