<svg width="48" height="48" viewBox="0 0 48 48" fill="none" xmlns="http://www.w3.org/2000/svg">
<path d="M18.1665 38.1338H29.8332" stroke="#27B83E" stroke-width="2" stroke-linecap="round" stroke-linejoin="round"/>
<path d="M24 38.1584V32.3584" stroke="#27B83E" stroke-width="2" stroke-linecap="round" stroke-linejoin="round"/>
<path d="M37.6998 28.9166C37.6096 29.6659 37.2679 30.3624 36.7305 30.8922C36.1931 31.422 35.4919 31.7538 34.7414 31.8333C31.172 32.1872 27.5866 32.3541 23.9998 32.3333C20.3818 32.3463 16.7656 32.1683 13.1664 31.8C12.4185 31.7212 11.7191 31.3918 11.1821 30.8653C10.645 30.3389 10.3017 29.6462 10.2081 28.9C9.93379 26.4431 9.80856 23.9719 9.83309 21.5C9.83865 19.0375 9.9917 16.5775 10.2914 14.1333C10.3816 13.3841 10.7233 12.6876 11.2607 12.1577C11.798 11.6279 12.4993 11.2961 13.2498 11.2166C16.821 10.8458 20.4093 10.6622 23.9998 10.6666C27.587 10.6542 31.1725 10.8294 34.7414 11.1916C35.4919 11.2711 36.1931 11.6029 36.7305 12.1327C37.2679 12.6626 37.6096 13.3591 37.6998 14.1083C37.9982 16.5611 38.154 19.0291 38.1664 21.5C38.1541 23.9791 37.9983 26.4555 37.6998 28.9166Z" stroke="#27B83E" stroke-width="2" stroke-linecap="round" stroke-linejoin="round"/>
<path d="M18.9998 23.9998L18.1665 27.3331L21.4998 26.4998L29.8332 18.1665L27.3332 15.6748L18.9998 23.9998Z" stroke="#27B83E" stroke-width="2" stroke-linecap="round" stroke-linejoin="round"/>
</svg>
