<svg width="48" height="48" viewBox="0 0 48 48" fill="none" xmlns="http://www.w3.org/2000/svg">
<path d="M34.465 37.3335H26.8567C26.0339 37.3387 25.2383 37.0394 24.6229 36.4933C24.0076 35.9471 23.6159 35.1927 23.5234 34.3751C23.3484 32.5668 23.165 28.3501 23.165 24.8335C23.165 20.8585 23.3567 16.3335 23.5567 14.4585C23.6454 13.6379 24.0354 12.8794 24.6512 12.3298C25.2669 11.7803 26.0647 11.4787 26.89 11.4835H34.4817C35.307 11.4787 36.1048 11.7803 36.7206 12.3298C37.3363 12.8794 37.7263 13.6379 37.815 14.4585C38.015 16.3418 38.2067 20.8668 38.2067 24.8335C38.2067 28.3585 38.0234 32.5835 37.8234 34.3668C37.7323 35.1902 37.3379 35.9502 36.7171 36.4986C36.0962 37.0471 35.2934 37.3447 34.465 37.3335Z" stroke="#27B83E" stroke-width="2" stroke-linecap="round" stroke-linejoin="round"/>
<path d="M14.0078 24.8164V37.3081" stroke="#27B83E" stroke-width="2" stroke-linecap="round" stroke-linejoin="round"/>
<path d="M23.4414 32.3164H37.8831" stroke="#27B83E" stroke-width="2" stroke-linecap="round" stroke-linejoin="round"/>
<path d="M23.4414 16.4834H37.8831" stroke="#27B83E" stroke-width="2" stroke-linecap="round" stroke-linejoin="round"/>
<path d="M16.5984 24.8333H11.415V14.0833C11.4172 13.3989 11.6901 12.7431 12.1741 12.2591C12.6581 11.7751 13.3139 11.5022 13.9984 11.5V11.5C14.6857 11.5 15.3449 11.7731 15.831 12.2591C16.317 12.7451 16.59 13.4043 16.59 14.0917L16.5984 24.8333Z" stroke="#27B83E" stroke-width="2" stroke-linecap="round" stroke-linejoin="round"/>
<path d="M9.83984 24.833H18.1648" stroke="#27B83E" stroke-width="2" stroke-linecap="round" stroke-linejoin="round"/>
</svg>
