<svg width="48" height="48" viewBox="0 0 48 48" fill="none" xmlns="http://www.w3.org/2000/svg">
<path d="M38.5846 32.9834V20.326C38.5846 18.8532 37.3907 17.6593 35.9179 17.6593L10.6455 17.6593V32.9842C10.6455 34.1874 11.4587 35.2123 12.6513 35.3724C14.6923 35.6463 18.4476 35.9809 24.615 35.9809C30.7825 35.9809 34.5378 35.6463 36.5788 35.3724C37.7714 35.2123 38.5846 34.1867 38.5846 32.9834Z" stroke="#27B83E" stroke-width="2" stroke-miterlimit="2" stroke-linecap="round" stroke-linejoin="round"/>
<path d="M35.3113 16.9444V14.5763C35.3113 13.16 34.2051 12.006 32.789 12.0236C30.6116 12.0505 27.0941 12.1977 22.5097 12.7365C17.8936 13.279 14.6679 13.7826 12.7572 14.1133C11.5202 14.3273 10.6455 15.4047 10.6455 16.6601V18.678V20.7252" stroke="#27B83E" stroke-width="2" stroke-miterlimit="2" stroke-linecap="round" stroke-linejoin="round"/>
<path d="M31.9185 26.8203C31.9185 25.4396 33.0377 24.3203 34.4185 24.3203H38.5851V29.3203H34.4185C33.0377 29.3203 31.9185 28.201 31.9185 26.8203V26.8203Z" stroke="#27B83E" stroke-width="2" stroke-miterlimit="2" stroke-linecap="round" stroke-linejoin="round"/>
</svg>
