<svg width="48" height="48" viewBox="0 0 48 48" fill="none" xmlns="http://www.w3.org/2000/svg">
<path d="M19.0915 28.7667H15.1665V35.7334H19.0915V28.7667Z" stroke="#27B83E" stroke-width="2" stroke-linecap="round" stroke-linejoin="round"/>
<path d="M22.2773 11.7773H11.7773L13.5107 26.8273C13.609 27.6906 14.022 28.4874 14.6708 29.0654C15.3195 29.6434 16.1585 29.9622 17.0273 29.9607V29.9607C17.8942 29.9633 18.7322 29.6487 19.3831 29.0761C20.034 28.5035 20.4528 27.7125 20.5607 26.8523L22.2773 11.7773Z" stroke="#27B83E" stroke-width="2" stroke-linecap="round" stroke-linejoin="round"/>
<path d="M37.9998 32.1247C37.9998 30.79 36.9179 29.708 35.5832 29.708C34.2485 29.708 33.1665 30.79 33.1665 32.1247V33.2997C33.1665 34.6344 34.2485 35.7163 35.5832 35.7163C36.9179 35.7163 37.9998 34.6344 37.9998 33.2997V32.1247Z" stroke="#27B83E" stroke-width="2" stroke-linecap="round" stroke-linejoin="round"/>
<path d="M29.8914 32.1247C29.8914 30.79 28.8095 29.708 27.4748 29.708C26.1401 29.708 25.0581 30.79 25.0581 32.1247V33.2997C25.0581 34.6344 26.1401 35.7163 27.4748 35.7163C28.8095 35.7163 29.8914 34.6344 29.8914 33.2997V32.1247Z" stroke="#27B83E" stroke-width="2" stroke-linecap="round" stroke-linejoin="round"/>
<path d="M31.6079 11.5V23.1667L32.7746 26.8333C33.0316 27.6419 33.1637 28.4849 33.1662 29.3333V33.275" stroke="#27B83E" stroke-width="2" stroke-linecap="round" stroke-linejoin="round"/>
<path d="M29.8833 33.3003V29.4837C29.8859 28.5441 30.0465 27.6117 30.3583 26.7253L31.6083 23.167" stroke="#27B83E" stroke-width="2" stroke-linecap="round" stroke-linejoin="round"/>
</svg>
