<svg width="48" height="48" viewBox="0 0 48 48" fill="none" xmlns="http://www.w3.org/2000/svg">
<path d="M24 13.1748V34.8415" stroke="#27B83E" stroke-width="2" stroke-linecap="round" stroke-linejoin="round"/>
<path d="M31.5 35.667H16.5" stroke="#27B83E" stroke-width="2" stroke-linecap="round" stroke-linejoin="round"/>
<path d="M34 19.0002V16.0002C34.0015 15.6518 33.8938 15.3117 33.692 15.0277C33.4902 14.7437 33.2045 14.5301 32.875 14.4168C30.0026 13.5283 27.0062 13.1063 24 13.1668C20.9939 13.1063 17.9975 13.5283 15.125 14.4168C14.7955 14.5301 14.5098 14.7437 14.308 15.0277C14.1062 15.3117 13.9985 15.6518 14 16.0002V19.0002" stroke="#27B83E" stroke-width="2" stroke-linecap="round" stroke-linejoin="round"/>
<path d="M30.75 24.0833C30.75 24.9453 31.0924 25.7719 31.7019 26.3814C32.3114 26.9909 33.138 27.3333 34 27.3333C34.862 27.3333 35.6886 26.9909 36.2981 26.3814C36.9076 25.7719 37.25 24.9453 37.25 24.0833L34 19L30.75 24.0833Z" stroke="#27B83E" stroke-width="2" stroke-linecap="round" stroke-linejoin="round"/>
<path d="M10.75 24.0833C10.75 24.9453 11.0924 25.7719 11.7019 26.3814C12.3114 26.9909 13.138 27.3333 14 27.3333C14.862 27.3333 15.6886 26.9909 16.2981 26.3814C16.9076 25.7719 17.25 24.9453 17.25 24.0833L14 19L10.75 24.0833Z" stroke="#27B83E" stroke-width="2" stroke-linecap="round" stroke-linejoin="round"/>
</svg>
