<svg width="48" height="48" viewBox="0 0 48 48" fill="none" xmlns="http://www.w3.org/2000/svg">
<path d="M24.0026 30.6673C27.6845 30.6673 30.6693 27.6826 30.6693 24.0007C30.6693 20.3188 27.6845 17.334 24.0026 17.334C20.3207 17.334 17.3359 20.3188 17.3359 24.0007C17.3359 27.6826 20.3207 30.6673 24.0026 30.6673Z" stroke="#27B83E" stroke-width="2" stroke-linecap="round" stroke-linejoin="round"/>
<path d="M34.7598 14.4752C34.0348 14.4002 33.1681 14.3169 32.1681 14.2419C31.7404 14.1996 31.3406 14.0104 31.0367 13.7066C30.7328 13.4027 30.5437 13.0029 30.5014 12.5752V12.5752C30.4518 12.1503 30.2602 11.7546 29.9578 11.4522C29.6553 11.1497 29.2596 10.9582 28.8348 10.9085C27.2319 10.7044 25.6172 10.6069 24.0014 10.6169C22.3885 10.6014 20.7764 10.6961 19.1764 10.9002C18.7482 10.9409 18.3475 11.1296 18.0433 11.4337C17.7391 11.7379 17.5505 12.1386 17.5098 12.5669V12.6085C17.4657 13.044 17.2694 13.45 16.9553 13.7549C16.6413 14.0598 16.2297 14.244 15.7931 14.2752C14.8014 14.3502 13.9348 14.4335 13.2098 14.5085C12.4635 14.5912 11.7671 14.9233 11.2332 15.4512C10.6993 15.979 10.3592 16.6716 10.2681 17.4169C9.97641 19.5991 9.83164 21.7985 9.83475 24.0002C9.8113 26.4862 9.93932 28.9714 10.2181 31.4419C10.3183 32.1808 10.6634 32.8648 11.1982 33.3845C11.733 33.9042 12.4266 34.2295 13.1681 34.3085C16.7675 34.6735 20.3836 34.8487 24.0014 34.8335C27.5887 34.8462 31.1742 34.671 34.7431 34.3085C35.4935 34.229 36.1948 33.8972 36.7322 33.3674C37.2696 32.8376 37.6113 32.1411 37.7014 31.3919C37.9992 28.939 38.155 26.471 38.1681 24.0002C38.1628 21.7897 38.0097 19.5819 37.7098 17.3919C37.62 16.6439 37.2795 15.9484 36.7438 15.4187C36.208 14.889 35.5087 14.5565 34.7598 14.4752Z" stroke="#27B83E" stroke-width="2" stroke-linecap="round" stroke-linejoin="round"/>
</svg>
