<svg width="48" height="48" viewBox="0 0 48 48" fill="none" xmlns="http://www.w3.org/2000/svg">
<path d="M25.6648 31.1162C25.3232 34.3162 23.0482 35.7662 19.3398 35.9579C16.0065 36.1329 14.7648 37.3412 14.3398 38.5579" stroke="#27B83E" stroke-width="2" stroke-linecap="round" stroke-linejoin="round"/>
<path d="M30.2667 14.833C30.9643 16.1774 31.2175 17.7084 30.9899 19.2059C30.7623 20.7033 30.0656 22.09 29 23.1663" stroke="#27B83E" stroke-width="2" stroke-linecap="round" stroke-linejoin="round"/>
<path d="M35.6649 18.1664C35.6649 24.1664 31.3482 28.0164 28.3899 29.958C27.5788 30.4852 26.6323 30.7659 25.6649 30.7659C24.6975 30.7659 23.751 30.4852 22.9399 29.958C19.9816 28.0497 15.6649 24.1997 15.6649 18.1664C15.6257 16.8425 15.8576 15.5246 16.3462 14.2936C16.8349 13.0627 17.5701 11.9446 18.5066 11.0081C19.4431 10.0715 20.5612 9.33637 21.7922 8.8477C23.0232 8.35902 24.341 8.12717 25.6649 8.16637C26.9888 8.12717 28.3066 8.35902 29.5376 8.8477C30.7686 9.33637 31.8867 10.0715 32.8232 11.0081C33.7597 11.9446 34.4949 13.0627 34.9836 14.2936C35.4722 15.5246 35.7041 16.8425 35.6649 18.1664V18.1664Z" stroke="#27B83E" stroke-width="2" stroke-linecap="round" stroke-linejoin="round"/>
</svg>
