<svg width="48" height="48" viewBox="0 0 48 48" fill="none" xmlns="http://www.w3.org/2000/svg">
<path d="M16.5983 37.6998C15.8491 37.6096 15.1526 37.2679 14.6228 36.7305C14.0929 36.1931 13.7612 35.4919 13.6817 34.7414C13.3222 31.1723 13.1497 27.5869 13.165 23.9998C13.152 20.3818 13.33 16.7656 13.6983 13.1664C13.7771 12.4185 14.1065 11.7191 14.633 11.1821C15.1594 10.645 15.8521 10.3017 16.5983 10.2081C19.0552 9.93379 21.5263 9.80856 23.9983 9.83309C26.4608 9.83837 28.9208 9.99142 31.365 10.2914C32.1142 10.3816 32.8107 10.7233 33.3405 11.2607C33.8704 11.798 34.2022 12.4993 34.2817 13.2498C34.6525 16.821 34.8361 20.4093 34.8317 23.9998C34.8441 27.587 34.6689 31.1725 34.3067 34.7414C34.2272 35.4919 33.8954 36.1931 33.3655 36.7305C32.8357 37.2679 32.1392 37.6096 31.39 37.6998C28.9372 37.9982 26.4692 38.1541 23.9983 38.1664C21.5247 38.1534 19.054 37.9976 16.5983 37.6998V37.6998Z" stroke="#27B83E" stroke-width="2" stroke-linecap="round" stroke-linejoin="round"/>
<path d="M23.9982 33.1663C27.6801 33.1663 30.6649 30.1816 30.6649 26.4997C30.6649 22.8178 27.6801 19.833 23.9982 19.833C20.3163 19.833 17.3315 22.8178 17.3315 26.4997C17.3315 30.1816 20.3163 33.1663 23.9982 33.1663Z" stroke="#27B83E" stroke-width="2" stroke-linecap="round" stroke-linejoin="round"/>
<path d="M27.14 32.0831C26.4002 31.3421 25.8152 30.4613 25.4192 29.492C25.0232 28.5227 24.824 27.4842 24.8333 26.4372C24.8426 25.3901 25.0602 24.3554 25.4734 23.3933C25.8866 22.4311 26.4871 21.5609 27.24 20.8331" stroke="#27B83E" stroke-width="2" stroke-linecap="round" stroke-linejoin="round"/>
<path d="M31.2055 14.8332C31.2055 15.137 30.9592 15.3832 30.6555 15.3832C30.3517 15.3832 30.1055 15.137 30.1055 14.8332C30.1055 14.5294 30.3517 14.2832 30.6555 14.2832C30.9592 14.2832 31.2055 14.5294 31.2055 14.8332Z" fill="#27B83E" stroke="#27B83E"/>
</svg>
