<svg width="48" height="48" viewBox="0 0 48 48" fill="none" xmlns="http://www.w3.org/2000/svg">
<path d="M18.375 32.0997H28.3599V15.8247C28.3599 14.9606 28.0166 14.1318 27.4056 13.5208C26.7945 12.9097 25.9657 12.5664 25.1016 12.5664H11.3599C10.4957 12.5664 9.66696 12.9097 9.05591 13.5208C8.44485 14.1318 8.10156 14.9606 8.10156 15.8247V28.8414C8.10156 29.7056 8.44485 30.5343 9.05591 31.1454C9.66696 31.7565 10.4957 32.0997 11.3599 32.0997H11.7424" stroke="#27B83E" stroke-width="2" stroke-linecap="round" stroke-linejoin="round"/>
<path d="M28.3565 18.3076H33.7732C34.2067 18.3082 34.6358 18.3954 35.0351 18.5643C35.4343 18.7332 35.7958 18.9803 36.0982 19.291L39.8315 23.0993C40.4298 23.7087 40.765 24.5286 40.7648 25.3826V28.8409C40.7648 29.7051 40.4216 30.5339 39.8105 31.1449C39.1994 31.756 38.3707 32.0993 37.5065 32.0993M28.3398 32.0993H30.874" stroke="#27B83E" stroke-width="2" stroke-linecap="round" stroke-linejoin="round"/>
<path d="M15.1208 35.2827C16.8789 35.2827 18.3042 33.8575 18.3042 32.0994C18.3042 30.3412 16.8789 28.916 15.1208 28.916C13.3627 28.916 11.9375 30.3412 11.9375 32.0994C11.9375 33.8575 13.3627 35.2827 15.1208 35.2827Z" stroke="#27B83E" stroke-width="2" stroke-linecap="round" stroke-linejoin="round"/>
<path d="M34.2771 35.2827C36.0352 35.2827 37.4604 33.8575 37.4604 32.0994C37.4604 30.3412 36.0352 28.916 34.2771 28.916C32.519 28.916 31.0938 30.3412 31.0938 32.0994C31.0938 33.8575 32.519 35.2827 34.2771 35.2827Z" stroke="#27B83E" stroke-width="2" stroke-linecap="round" stroke-linejoin="round"/>
</svg>
