<svg width="48" height="48" viewBox="0 0 48 48" fill="none" xmlns="http://www.w3.org/2000/svg">
<path d="M18.1685 38.1338H29.8351" stroke="#27B83E" stroke-width="2" stroke-linecap="round" stroke-linejoin="round"/>
<path d="M27.21 32.108C27.21 31.6663 27.21 31.1996 27.21 30.708C27.2107 29.6664 27.1495 28.6256 27.0267 27.5913C26.9475 26.8331 26.5903 26.1311 26.0239 25.6208C25.4576 25.1105 24.7223 24.8281 23.96 24.8281C23.1977 24.8281 22.4624 25.1105 21.896 25.6208C21.3297 26.1311 20.9725 26.8331 20.8933 27.5913C20.7842 28.6125 20.7369 29.6394 20.7517 30.6663C20.7517 31.1746 20.7517 31.658 20.7517 32.1163" stroke="#27B83E" stroke-width="2" stroke-linecap="round" stroke-linejoin="round"/>
<path d="M24 21.417C25.7949 21.417 27.25 19.9619 27.25 18.167C27.25 16.3721 25.7949 14.917 24 14.917C22.2051 14.917 20.75 16.3721 20.75 18.167C20.75 19.9619 22.2051 21.417 24 21.417Z" stroke="#27B83E" stroke-width="2" stroke-linecap="round" stroke-linejoin="round"/>
<path d="M24 38.1584V32.3584" stroke="#27B83E" stroke-width="2" stroke-linecap="round" stroke-linejoin="round"/>
<path d="M37.7017 28.9166C37.6116 29.6659 37.2699 30.3624 36.7325 30.8922C36.1951 31.422 35.4938 31.7538 34.7434 31.8333C31.174 32.1872 27.5885 32.3541 24.0017 32.3333C20.3837 32.3463 16.7676 32.1683 13.1684 31.8C12.4204 31.7212 11.7211 31.3918 11.184 30.8653C10.6469 30.3389 10.3037 29.6462 10.21 28.9C9.93574 26.4431 9.81051 23.9719 9.83505 21.5C9.8406 19.0375 9.99365 16.5775 10.2934 14.1333C10.3835 13.3841 10.7252 12.6876 11.2626 12.1577C11.8 11.6279 12.5013 11.2961 13.2517 11.2166C16.823 10.8458 20.4112 10.6622 24.0017 10.6666C27.589 10.6542 31.1744 10.8294 34.7434 11.1916C35.4938 11.2711 36.1951 11.6029 36.7325 12.1327C37.2699 12.6626 37.6116 13.3591 37.7017 14.1083C38.0001 16.5611 38.1559 19.0291 38.1684 21.5C38.156 23.9791 38.0002 26.4555 37.7017 28.9166Z" stroke="#27B83E" stroke-width="2" stroke-linecap="round" stroke-linejoin="round"/>
</svg>
