<svg width="350" height="230" viewBox="0 0 350 230" fill="none" xmlns="http://www.w3.org/2000/svg">
<rect width="350" height="230" rx="20" fill="#828282"/>
<path d="M135.688 52.6456H215.375C214.934 47.0291 211.661 44 205.619 44H145.381C139.402 44 136.066 47.0291 135.688 52.6456ZM122.848 70.8204H228.215C227.334 64.8252 224.313 61.4175 217.641 61.4175H133.422C126.75 61.4175 123.729 64.8252 122.848 70.8204ZM129.646 187H221.354C234.887 187 242 179.932 242 166.49V101.617C242 88.1116 234.887 81.1068 221.354 81.1068H129.646C116.05 81.1068 109 88.1116 109 101.617V166.49C109 179.995 116.05 187 129.646 187ZM130.401 174.631C124.547 174.631 121.337 171.539 121.337 165.417V102.626C121.337 96.5049 124.547 93.4757 130.401 93.4757H220.599C226.39 93.4757 229.663 96.5049 229.663 102.626V165.417C229.663 171.539 226.39 174.631 220.599 174.631H212.228C206.689 162.073 192.589 153.553 175.783 153.553C159.04 153.553 144.941 162.073 139.339 174.631H130.401ZM175.783 144.466C186.735 144.592 195.233 135.252 195.233 123.199C195.233 111.714 186.673 102.248 175.783 102.248C164.957 102.248 156.334 111.714 156.397 123.199C156.397 135.252 164.894 144.34 175.783 144.466Z" fill="#E0E0E0"/>
</svg>
