<svg width="562" height="662" viewBox="0 0 562 662" fill="none" xmlns="http://www.w3.org/2000/svg">
    <g clip-path="url(#clip0_329_2)">
        <path d="M399.516 202.103C397.362 203.801 394.98 205.188 392.439 206.224C388.706 207.748 384.702 208.499 380.67 208.432C381.559 206.431 381.9 204.231 381.658 202.056C383.736 202.994 385.948 203.601 388.214 203.857C392.07 204.266 395.966 203.662 399.516 202.103Z" fill="black"/>
        <path d="M419.142 169.593C419.549 164.427 418.164 159.278 415.218 155.013C412.272 150.748 407.946 147.626 402.967 146.172C397.973 144.625 388.174 144.118 380.397 150.547C379.255 151.494 372.105 157.342 372.466 163.571C372.757 166.195 372.904 168.833 372.907 171.474C372.907 173.341 372.793 174.635 372.753 175.255C372.447 181.864 373.739 188.449 376.518 194.454C378.521 198.415 379.936 201.123 383.08 202.643C387.753 204.931 394.369 203.597 395.33 203.404L395.871 203.283C399.2 202.475 402.311 200.945 404.983 198.802C409.1 195.736 412.425 191.733 414.683 187.125C416.433 187.014 418.088 186.289 419.355 185.078C422.266 182.09 422.079 176.148 419.162 174.368C417.159 173.141 414.536 174.301 414.382 174.368C413.596 174.745 412.902 175.289 412.347 175.962C411.793 176.634 411.391 177.419 411.171 178.262" stroke="black" stroke-miterlimit="10"/>
        <path d="M382.519 194.527C384.621 195.358 386.95 195.412 389.088 194.681C390.208 194.27 391.234 193.64 392.106 192.827" stroke="black" stroke-miterlimit="10"/>
        <path d="M385.557 173.781C386.542 173.221 387.617 172.835 388.734 172.64C391.083 172.273 393.488 172.703 395.564 173.861" stroke="black" stroke-miterlimit="10"/>
        <path d="M390.497 179.596C391.076 179.596 391.545 178.826 391.545 177.876C391.545 176.925 391.076 176.155 390.497 176.155C389.918 176.155 389.449 176.925 389.449 177.876C389.449 178.826 389.918 179.596 390.497 179.596Z" fill="black"/>
        <path d="M376.772 179.596C377.351 179.596 377.82 178.826 377.82 177.876C377.82 176.925 377.351 176.155 376.772 176.155C376.193 176.155 375.724 176.925 375.724 177.876C375.724 178.826 376.193 179.596 376.772 179.596Z" fill="black"/>
        <path d="M383.093 190.019L378.3 188.686C379.254 185.559 379.614 182.281 379.362 179.023C379.142 176.355 378.868 172.634 376.872 171.98C375.33 171.473 373.534 173.021 372.793 173.688" stroke="black" stroke-miterlimit="10"/>
        <path d="M373.08 164.325C374.495 165.845 376.378 165.812 381.378 165.879C392.726 166.039 393.394 166.359 395.397 165.358C397.593 164.258 398.447 163.018 400.684 162.978C402.92 162.938 405.637 164.185 405.871 165.778C406.104 167.372 403.514 167.779 402.86 170.333C402.206 172.887 404.475 173.728 405.457 178.622C406.124 182.057 405.73 183.771 406.492 184.011C407.159 184.218 408.494 183.497 411.572 177.976C412.319 175.248 414.796 173.548 417.179 173.841C419.849 174.181 421.104 176.922 421.185 177.035C421.421 172.422 421.025 167.798 420.01 163.291C419.075 159.163 418.321 155.855 415.811 152.254C413.146 148.517 409.478 145.609 405.23 143.865C395.023 139.684 383 143.285 376.658 150.027C375.283 151.481 371.318 155.422 371.678 160.39C371.68 161.823 372.175 163.212 373.08 164.325Z" fill="black"/>
        <path d="M439.349 321.374C451.198 365.377 454.818 411.187 450.03 456.502L429.456 464.405C427.847 456.576 425.41 444.819 422.339 430.394C418.661 413.142 418.287 411.855 417.413 406.787C413.234 382.553 413.821 365.994 412.74 365.994C411.805 365.994 412.934 378.878 409.275 397.964C408.434 402.339 407.52 406.14 407.687 411.822C407.887 417.943 409.229 423.972 411.645 429.601C414.983 437.737 416.946 455.262 412.626 495.041L391.612 493.707C390.13 485.178 387.887 473.494 384.576 459.737C377.506 430.321 374.342 423.399 371.952 404.226C370.957 396.304 370.664 386.341 370.109 366.748C369.542 346.742 369.442 330.336 369.442 319.233L439.349 321.374Z" fill="white" stroke="black" stroke-miterlimit="10"/>
        <path d="M381.585 201.523C381.902 203.539 381.712 205.603 381.032 207.527C380.351 209.452 379.201 211.177 377.686 212.546" stroke="black" stroke-miterlimit="10"/>
        <path d="M409.889 194.321C409.255 195.881 407.066 201.81 409.723 208.011C410.519 209.849 411.651 211.522 413.06 212.946" stroke="black" stroke-miterlimit="10"/>
        <path d="M378.794 210.139C380.383 211.413 387.86 217.128 398.24 215.994C403.087 215.442 407.682 213.546 411.505 210.519C413.928 211.133 417.513 212.053 421.845 213.187C430.664 215.541 435.083 216.694 435.991 217.094C449.102 222.816 454.863 249.351 447.667 254.893C445.964 256.227 442.713 256.967 435.898 254.119C436.866 263.849 437.66 273.946 438.221 284.402C439.162 301.961 439.356 318.639 439.002 334.331C430.27 331.893 421.231 330.734 412.166 330.89C402.907 331.063 398.321 332.731 386.845 333.864C377.853 334.751 368.805 334.945 359.782 334.444C359.235 316.812 358.892 298.831 358.754 280.501C358.534 248.618 361.705 248.838 358.841 239.922C356.538 232.759 352.986 226.984 355.87 221.843C357.639 218.695 361.111 217.034 366.551 214.434C370.467 212.569 374.571 211.129 378.794 210.139Z" fill="#5358CF" stroke="black" stroke-miterlimit="10"/>
        <path d="M371.959 404.273C373.168 409.453 375.821 414.186 379.609 417.924C381.978 420.224 384.741 422.081 387.766 423.406" stroke="black" stroke-miterlimit="10"/>
        <path d="M400.61 310.437C403.999 315.104 408.662 318.698 414.042 320.787C415.53 321.346 417.065 321.772 418.628 322.061" stroke="black" stroke-miterlimit="10"/>
        <path d="M412.74 301.961C413.96 307.156 416.333 312.011 419.684 316.166C423.035 320.322 427.278 323.672 432.099 325.968" stroke="black" stroke-miterlimit="10"/>
        <path d="M426.765 505.051L434.643 512.693H458.161V86.8271H211.637L215.242 512.42L235.402 512.673L243.052 504.911L243.326 117.83L426.685 118.424L426.765 505.051Z" fill="white"/>
        <path d="M68.7989 281.088L86.2823 281.375V128.814L193.413 139.484V339.886L86.2823 341.64V289.844L68.7989 289.637M211.63 107.74L36.4155 86.8271V536.421L235.402 512.693V110.568L211.63 107.74ZM193.413 483.751L86.2823 494.421V377.678L193.413 373.823V483.751Z" stroke="black" stroke-miterlimit="10"/>
        <path d="M62.5972 280.961L64.867 281.021L68.7989 281.088V262.735C68.7963 260.203 67.8131 257.771 66.0552 255.946C64.3235 254.121 61.9422 253.051 59.4263 252.966C58.1902 252.93 56.9595 253.143 55.8081 253.594C54.6568 254.045 53.6085 254.724 52.7263 255.59C51.8441 256.456 51.1461 257.49 50.6742 258.632C50.2023 259.774 49.9663 261 49.9803 262.235V311.737C49.9803 314.233 50.9727 316.626 52.7392 318.391C54.5056 320.155 56.9015 321.147 59.3996 321.147C61.8978 321.147 64.2936 320.155 66.0601 318.391C67.8265 316.626 68.8189 314.233 68.8189 311.737V289.637L64.887 289.59L62.6173 289.544M59.4463 305.362C58.9836 305.369 58.5294 305.237 58.1416 304.985C57.7538 304.733 57.45 304.371 57.269 303.945C57.0879 303.52 57.0378 303.05 57.1249 302.596C57.2121 302.142 57.4327 301.725 57.7585 301.396C58.0843 301.068 58.5006 300.844 58.9543 300.753C59.408 300.662 59.8785 300.708 60.306 300.885C60.7334 301.062 61.0983 301.363 61.3542 301.748C61.6101 302.133 61.7454 302.586 61.7428 303.048C61.741 303.661 61.4964 304.249 61.0623 304.682C60.6283 305.116 60.0401 305.36 59.4263 305.362H59.4463Z" stroke="black" stroke-miterlimit="10"/>
        <path d="M86.289 289.844L93.3051 289.93L102.23 290.044V281.641L93.3051 281.501L86.289 281.381" stroke="black" stroke-miterlimit="10"/>
        <path d="M187.151 477.549L93.3051 486.532V384.633L187.151 380.879V477.549Z" stroke="black" stroke-miterlimit="10" stroke-linecap="round"/>
        <path d="M93.3051 281.501V135.982L187.151 145.005V333.991L93.3051 335.205V289.931" stroke="black" stroke-miterlimit="10" stroke-linecap="round"/>
        <path d="M59.433 305.362V309.257" stroke="black" stroke-miterlimit="10" stroke-linecap="round"/>
        <path d="M64.8736 289.591V294.225L53.9657 294.132V276.18L64.8736 276.386V281.021" stroke="black" stroke-miterlimit="10" stroke-linecap="round"/>
        <path d="M62.5972 280.961V289.55L56.7628 289.504V280.888L62.5972 280.961Z" stroke="black" stroke-miterlimit="10"/>
        <path d="M36.4155 536.421H24.4728V86.8271H36.4155" stroke="black" stroke-miterlimit="10" stroke-linecap="round"/>
        <path d="M32.9842 267.323H27.9041V321.267H32.9842V267.323Z" stroke="black" stroke-miterlimit="10" stroke-linecap="round"/>
        <path d="M211.63 107.74V86.8271H458.161V512.693H434.389L426.759 505.071" stroke="black" stroke-miterlimit="10"/>
        <path d="M243.032 505.051L235.402 512.693" stroke="black" stroke-miterlimit="10"/>
        <path d="M426.765 118.197H243.039V505.051H426.765V118.197Z" stroke="black" stroke-miterlimit="10"/>
        <path d="M235.409 110.574H434.396V512.673" stroke="black" stroke-miterlimit="10"/>
        <path d="M458.167 86.8271L426.765 118.197" stroke="black" stroke-miterlimit="10"/>
        <path d="M211.637 86.8271L243.039 118.197" stroke="black" stroke-miterlimit="10"/>
        <path d="M101.937 159.683C108.525 163.544 111.182 173.614 111.283 177.516C111.288 179.207 111.167 180.897 110.922 182.57C110.659 184.259 110.257 185.923 109.72 187.545C109.58 189.372 109.807 191.209 110.388 192.947C110.688 193.807 111.056 194.574 111.556 196.135C111.867 197.112 112.126 198.104 112.331 199.109L108.686 200.203C108.278 202.043 107.898 203.71 107.558 205.191C106.763 208.592 106.523 209.485 105.969 210.579C105.29 211.905 104.387 213.103 103.298 214.12L100.561 215.267C98.8947 215.388 97.2215 215.388 95.5548 215.267C94.1793 215.172 92.8107 214.996 91.4559 214.74C91.296 215.191 91.1776 215.655 91.1021 216.128C90.3812 220.882 94.5734 224.95 95.7283 226.011C89.7789 228.696 83.1938 229.656 76.7243 228.782C70.2548 227.908 64.1614 225.236 59.1393 221.069C60.5211 220.209 66.4825 216.288 68.2181 208.692C68.8745 205.723 68.8081 202.64 68.0245 199.702C66.7228 196.481 63.5318 187.345 67.1968 177.742C72.7509 163.184 91.6762 153.661 101.937 159.683Z" fill="white"/>
        <path d="M84.026 449.274C86.44 454.23 87.9802 459.566 88.5787 465.045C88.8421 467.59 88.8421 470.156 88.5787 472.701C88.3149 475.054 87.8527 477.381 87.1969 479.656C85.1074 488.119 85.5347 495.782 85.8084 500.79C85.8618 501.677 85.9085 502.257 86.5627 508.199C88.5988 526.618 88.6121 525.184 88.9926 529.539C89.8938 539.722 89.9272 548.645 89.9673 557.794C89.9673 560.322 89.9673 562.462 89.9673 563.923L107.457 561.729C108.509 558.54 109.276 555.264 109.747 551.939C110.108 549.418 110.128 548.065 110.501 543.623C110.708 541.096 110.969 538.608 111.489 533.62C113.218 517.115 115.234 503.184 115.234 503.184C116.73 492.894 117.477 487.752 118.265 484.571C119.561 479.874 120.602 475.11 121.383 470.3C122.104 465.632 122.271 462.725 121.75 459.41C121.304 456.614 120.44 453.901 119.186 451.361L84.026 449.274Z" fill="white"/>
        <path d="M34.0456 451.107C33.6852 450.607 33.1578 449.987 32.7639 450.1C31.8827 450.347 32.3701 453.955 32.3968 458.336C32.3968 459.67 32.2032 462.218 31.796 467.373C30.6611 481.944 28.6784 485.265 28.8253 495.988C28.872 499.649 29.1457 502.403 29.5529 506.571C30.3407 514.507 31.1417 517.188 32.0897 525.497C32.6638 530.546 32.9108 534.247 33.1578 538.068C33.5116 543.496 33.8253 550.325 33.8253 558.254L48.3715 559.408C49.8468 546.544 51.4156 536.381 52.6506 529.165C53.7854 522.496 55.2874 514.547 55.688 512.453C57.5438 502.59 57.6373 502.764 58.4317 498.322C60.1206 488.913 60.2474 485.205 62.4036 467.439C62.8509 463.718 63.5719 457.923 64.5265 450.767L34.0456 451.107Z" fill="white"/>
        <path d="M30.4074 571.752C29.9668 572.699 28.8253 575.426 30.0403 577.334C31.2552 579.241 33.8387 579.188 37.9175 579.254C41.4622 579.314 43.3381 579.341 45.2607 578.161C47.9309 576.5 47.1499 574.653 49.9336 572.946C52.5371 571.339 54.2127 572.359 56.0885 570.552C57.1232 569.551 57.3569 568.391 57.8108 566.17C58.7588 561.502 58.2781 556.1 55.7614 553.586C55.3464 553.156 54.8493 552.814 54.2995 552.579C53.5934 552.337 52.8457 552.24 52.1012 552.294C51.3567 552.348 50.6308 552.552 49.967 552.893C49.967 554.02 49.8201 556.994 47.8441 558.294C46.6692 559.068 45.0471 558.835 41.8361 558.341C38.2446 557.788 35.4008 557.327 33.6384 557.007C32.5962 558.367 31.7554 559.87 31.1417 561.469C29.9247 564.757 29.67 568.324 30.4074 571.752Z" stroke="black" stroke-miterlimit="10"/>
        <path d="M89.9873 559.501C90.2706 547.477 89.7576 535.447 88.4519 523.49C86.783 508.425 84.6334 500.956 85.9752 487.346C87.0634 476.335 88.9592 476.269 88.8124 468.586C88.552 454.335 81.8764 447.246 77.7309 436.016C74.4464 427.12 71.9297 413.402 76.9097 393.47L118.072 382.653C116.116 412.102 117.771 429.681 119.761 440.438C120.428 443.899 120.902 447.026 121.263 450.367C121.717 454.544 121.94 458.743 121.93 462.945C121.831 469.198 120.908 475.411 119.186 481.424C117.01 489.546 113.899 508.545 109.507 553.633" stroke="black" stroke-miterlimit="10"/>
        <path d="M33.7052 557.374C33.7844 544.961 33.0373 532.556 31.4688 520.242C29.9401 508.405 28.3046 501.99 28.9788 490.44C29.4862 481.697 30.5543 479.636 31.569 469.767C33.0576 455.289 32.0897 444.772 31.6491 437.757C30.8413 424.919 30.6277 405.147 33.3647 375.07L79.6534 371.736C73.3784 405.747 68.6253 431.755 65.915 446.126C64.9537 451.241 63.3049 459.924 61.8763 471.661C61.0218 478.683 61.0151 480.537 60.3142 486.445C58.7521 499.583 56.676 508.419 55.1806 515.628C52.4048 529.199 50.379 542.913 49.1125 556.707" stroke="black" stroke-miterlimit="10"/>
        <path d="M36.2419 344.328C33.8086 352.552 31.911 360.926 30.561 369.395C28.1911 384.287 28.2245 395.017 27.9975 403.073C27.4477 420.919 25.4225 438.689 21.9427 456.202C28.9719 458.484 36.3897 459.326 43.752 458.677C51.8829 458.01 54.433 456.789 60.0271 456.389C64.6541 456.079 69.301 456.509 73.7923 457.663C73.9592 455.989 74.7669 448.573 76.2222 448.52C77.6775 448.467 79.2329 456.823 79.4732 458.223C84.1943 456.98 89.0645 456.395 93.9459 456.483C96.6162 456.529 99.48 456.956 105.121 457.756C116.002 459.31 117.891 460.09 121.81 459.45C125.23 458.861 128.481 457.534 131.336 455.562C128.363 446.283 125.977 436.826 124.193 427.247C119.587 402.492 121.623 390.869 116.496 367.955C114.547 359.25 111.967 350.699 108.779 342.367L36.2419 344.328Z" fill="black" stroke="black" stroke-miterlimit="10"/>
        <path d="M109.146 166.812C110.341 169.767 111.055 172.894 111.262 176.075C111.351 178.247 111.231 180.422 110.902 182.57C110.415 185.691 109.821 186.471 109.62 187.752C109.548 188.235 109.526 188.725 109.554 189.212C109.634 191.453 110.582 193.267 111.363 195.554C111.785 196.779 112.122 198.031 112.371 199.302C111.93 199.456 111.456 199.602 110.955 199.736C110.209 199.938 109.451 200.094 108.686 200.202C108.504 201.715 108.216 203.212 107.825 204.684C106.65 209.005 105.822 212.3 103.305 214.12C101.169 215.654 98.7324 215.487 94.8138 215.18C91.6031 214.922 88.4591 214.124 85.5146 212.82" stroke="black" stroke-miterlimit="10"/>
        <path d="M29.9535 238.921C21.5819 247.462 14.702 257.344 9.59952 268.157C3.29774 281.548 -2.22299 292.498 1.65554 304.615C4.79976 314.445 12.657 320.787 13.4514 321.414C16.7902 324.034 20.5699 326.039 24.613 327.335V299.52C26.9962 294.765 29.6731 289.824 32.6972 284.762C38.2853 275.406 44.5316 266.459 51.3889 257.987L29.9535 238.921Z" fill="white" stroke="black" stroke-miterlimit="10"/>
        <path d="M7.25639 263.216C11.9293 255.613 16.2551 249.084 19.9 243.723C22.9708 239.208 25.2405 236.02 29.3059 232.913C31.2285 231.432 33.6852 230.125 39.5597 227.424C45.8686 224.521 52.4645 222.286 59.2394 220.756C70.2473 226.428 82.8868 228.102 94.994 225.49C100.764 226.855 106.048 229.778 110.268 233.94C116.416 240.182 118.098 247.611 120.448 257.987C121.897 264.373 122.737 270.882 122.958 277.427L99.0394 283.242L113.399 287.03C112.938 297.894 113.059 308.775 113.759 319.626C115.094 339.246 115.728 349.062 116.369 350.503C116.763 351.383 118.265 354.504 116.923 356.571C115.995 357.978 114.126 358.152 112.25 358.465C102.577 360.079 96.9366 361.019 86.4692 360.433C83.9642 360.351 81.4658 360.129 78.9859 359.766C72.3103 358.705 69.3596 356.858 58.8055 356.785C43.6318 356.678 32.2966 360.346 30.3674 356.285C29.88 355.251 30.3073 354.377 30.9148 352.163C31.7425 349.169 31.9695 344.448 32.4301 335.011C32.7839 327.616 32.3033 310.85 29.0923 288.957C25.7216 286.906 22.5874 284.491 19.7465 281.755C14.3477 276.502 10.0952 270.19 7.25639 263.216Z" fill="#5358CF" stroke="black" stroke-miterlimit="10"/>
        <path d="M105.82 189.574C105.832 188.462 105.336 187.555 104.713 187.548C104.09 187.542 103.576 188.438 103.564 189.55C103.552 190.662 104.047 191.569 104.67 191.576C105.293 191.583 105.808 190.686 105.82 189.574Z" fill="black"/>
        <path d="M108.579 185.351C108.094 184.771 107.478 184.313 106.782 184.015C106.086 183.717 105.329 183.588 104.574 183.637C103.746 183.718 102.956 184.022 102.289 184.518C101.622 185.014 101.103 185.683 100.788 186.452" stroke="black" stroke-miterlimit="10"/>
        <path d="M28.9922 284.549C28.2579 279.658 27.4635 274.717 26.609 269.724C25.3985 262.673 24.1212 255.782 22.7772 249.051" stroke="black" stroke-miterlimit="10"/>
        <path d="M78.1514 250.912C80.0785 257.207 81.9543 263.687 83.779 270.351C84.8337 274.241 85.8417 278.085 86.803 281.881" stroke="black" stroke-miterlimit="10"/>
        <path d="M89.9873 559.501C89.5868 559.595 88.3384 560.075 86.8364 567.55C86.2655 570.415 85.8554 573.309 85.6081 576.22C84.9939 577.213 84.4332 578.521 84.8871 579.614C85.775 581.728 89.9606 581.782 93.1182 581.795C102.331 581.795 107.925 581.428 111.523 581.335C122.611 581.048 125.061 583.475 134.887 581.795C138.532 581.168 141.984 580.181 144.147 577.213C145.388 575.526 146.817 572.319 145.602 570.078C144.747 568.511 142.932 568.077 133.319 567.07C126.223 566.303 119.213 565.67 116.383 561.975C116.082 561.582 115.822 561.195 115.822 561.195C114.901 559.521 114.654 556.954 112.17 553.98C111.503 553.186 110.995 552.719 110.435 552.786C109.033 552.953 109.42 556.2 107.03 558.421C105.915 559.455 105.588 558.974 101.937 560.642C98.0581 562.409 98.0514 563.122 96.6629 563.136C93.3051 563.142 92.0367 559.048 89.9873 559.501Z" stroke="black" stroke-miterlimit="10"/>
        <path d="M30.4074 571.752C33.4896 573.27 36.9548 573.837 40.3608 573.379C42.756 573.044 45.0522 572.203 47.0965 570.912C49.4178 570.284 51.5748 569.16 53.4183 567.617C55.2657 566.222 56.6592 564.313 57.4236 562.129C57.971 560.553 58.0749 558.858 57.724 557.227C57.4503 556.014 56.8696 553.486 54.6466 552.559C52.4236 551.632 50.2674 552.913 49.9269 553.113C50.0015 553.861 49.9359 554.616 49.7333 555.34C49.4002 556.48 48.7497 557.503 47.8575 558.288C45.8697 558.619 43.8421 558.634 41.8494 558.334C39.9767 557.93 38.0821 557.634 36.1752 557.447C35.1271 557.374 34.2659 557.374 33.7052 557.381C32.6497 558.614 31.7897 560.002 31.1551 561.495C29.8338 564.751 29.5722 568.339 30.4074 571.752Z" fill="black"/>
        <path d="M89.9873 559.501C89.5868 559.595 88.3384 560.075 86.8364 567.55C86.2655 570.415 85.8554 573.309 85.6081 576.22C93.2336 575.487 100.909 575.422 108.546 576.026C118.265 576.813 124.14 578.414 133.245 576.987C137.643 576.294 141.936 575.05 146.022 573.286C146.233 572.195 146.07 571.065 145.562 570.078C144.227 567.704 140.795 567.877 133.279 567.07C126.182 566.303 119.173 565.67 116.343 561.975C116.042 561.582 115.782 561.195 115.782 561.195C114.861 559.521 114.614 556.954 112.13 553.98C111.463 553.186 110.955 552.719 110.395 552.786C108.993 552.953 109.38 556.2 106.99 558.421C105.875 559.455 105.548 558.974 101.897 560.642C98.0181 562.409 98.0114 563.122 96.6229 563.136C93.3051 563.142 92.0367 559.048 89.9873 559.501Z" fill="black"/>
        <path d="M105.842 206.058C105.203 206.309 104.525 206.447 103.839 206.465C102.265 206.457 100.751 205.863 99.5935 204.797" stroke="black" stroke-miterlimit="10"/>
        <path d="M96.269 194.347C94.1862 194.281 91.5961 193.827 90.1141 191.953C88.6321 190.079 89.5801 188.225 87.9846 185.811C86.6495 183.844 83.8791 181.81 81.3891 182.477C78.5453 183.237 77.0967 187.332 77.5773 190.406C78.1381 194.034 81.5093 197.075 85.9953 197.775C85.6835 199.546 85.8731 201.368 86.5426 203.037C87.584 205.477 89.293 206.198 88.9993 207.198C88.5854 208.598 84.6935 208.958 81.4892 208.532C76.7362 207.865 75.8951 205.244 72.5105 205.604C69.9404 205.878 69.8403 207.291 67.0165 207.705C62.6373 208.372 58.2113 205.564 58.3382 204.05C58.445 203.003 60.6613 203.063 61.8095 200.909C62.2512 199.977 62.4356 198.943 62.3436 197.915C62.2367 193.62 59.413 189.499 59.413 189.499C53.5451 180.976 54.4263 164.225 59.0458 159.857C61.3956 157.629 63.3516 158.336 66.3489 157.256C67.5055 156.743 68.6213 156.144 69.6867 155.462C72.7407 153.566 75.5887 151.358 78.1848 148.873C83.9859 143.938 100.521 146.206 109.14 156.209C113.772 161.544 117.711 170.947 114.133 175.515C111.463 178.929 104.727 179.409 103.966 177.982C103.499 177.109 105.935 175.315 105.481 174.688C105.108 174.181 103.085 174.821 101.543 175.882C99.7956 177.165 98.484 178.952 97.7844 181.003C95.755 186.091 95.9352 191.3 96.269 194.347Z" fill="black"/>
        <path d="M68.9591 203.057C68.9057 205.517 68.425 212.826 62.911 218.061C61.8032 219.103 60.5672 219.999 59.2327 220.729" stroke="black" stroke-miterlimit="10"/>
        <path d="M91.5493 214.927C91.2693 217.665 91.8503 220.423 93.2116 222.816C93.861 223.921 94.676 224.919 95.6282 225.777" stroke="black" stroke-miterlimit="10"/>
        <path d="M84.2997 211.886C85.0486 214.178 86.2291 216.306 87.7777 218.155C89.2473 219.896 91.0233 221.354 93.018 222.456C92.3845 221.301 91.9342 220.055 91.6829 218.762C91.4382 217.499 91.382 216.207 91.516 214.927C89.9228 214.314 88.3006 213.647 86.6495 212.927C85.8751 212.6 85.0807 212.24 84.2997 211.886Z" fill="black"/>
        <path d="M47.5104 398.658C49.5998 399.118 52.6172 399.831 56.1887 400.852C63.4651 402.919 67.1167 403.919 69.0125 405.613C71.6427 407.961 72.1701 410.815 73.592 422.445C74.5199 430.041 75.2409 436.61 75.7883 441.845" stroke="white" stroke-miterlimit="10"/>
        <path d="M128.385 281.561C131.59 276.706 134.52 271.945 137.197 267.317C135.498 263.639 134.447 259.695 134.093 255.66C133.9 253.041 133.999 250.408 134.387 247.811C134.694 245.19 135.001 242.549 135.862 242.436C136.723 242.322 137.798 244.503 138.239 246.35C138.739 248.431 138.152 249.178 138.539 251.979C138.739 253.466 139.033 255.573 139.761 255.68C140.849 255.846 142.665 251.478 143.486 247.731C143.966 245.53 143.719 245.276 144.547 240.555C144.793 238.838 145.207 237.15 145.782 235.513C145.962 235.013 147.598 230.652 148.619 230.845C149.48 231.012 149.52 234.313 149.534 235.513C149.547 237.457 149.345 239.396 148.933 241.295C148.326 244.67 147.958 251.298 148.439 251.392C148.92 251.485 150.709 245.583 151.71 239.575C152.179 236.572 153.078 233.652 154.38 230.905C155.602 228.371 156.129 228.184 156.383 228.238C157.104 228.385 157.157 230.905 157.177 231.952C157.226 234.7 156.866 237.44 156.109 240.082C154.314 246.377 153.606 252.752 154.047 252.872C154.487 252.992 156.55 248.017 157.865 242.982C158.174 241.65 158.553 240.334 159 239.041C159.253 238.334 161.296 232.633 162.511 232.853C163.379 233.006 163.579 236.187 163.459 238.328C163.319 240.815 162.711 242.376 161.737 245.256C160.482 248.984 158.679 254.319 159.127 254.519C159.574 254.719 161.904 251.538 163.179 248.071C163.426 247.404 163.733 246.45 164.367 245.016C164.877 243.818 165.498 242.671 166.223 241.589C167.238 240.068 167.818 239.208 168.279 239.321C169.12 239.528 169.107 242.862 168.76 245.043C168.434 246.83 167.878 248.568 167.104 250.211C167.051 250.331 167.011 250.405 166.97 250.485C165.328 253.866 163.312 258.801 161.49 262.915C160.075 266.096 159.374 267.683 158.82 268.544C157.248 271.069 155.275 273.322 152.978 275.212C147.59 289.28 139.787 302.302 129.921 313.691C122.785 321.847 119.767 323.094 117.237 323.147C103.025 323.421 92.9179 286.603 92.0434 283.342L120.121 277.06L123.185 289.017C124.939 286.634 126.672 284.149 128.385 281.561Z" fill="white" stroke="black" stroke-miterlimit="10"/>
        <path d="M69.6266 157.463C69.146 157.349 70.3343 154.448 69.1594 149.98C68.385 147.026 67.1567 145.545 67.7775 144.879C68.3983 144.212 70.7348 144.732 71.9097 146.099C74.827 149.5 70.4544 157.649 69.6266 157.463Z" fill="black"/>
        <path d="M71.4291 156.676C71.5025 156.262 70.2409 156.102 67.9311 154.375C65.9751 152.914 65.4745 151.974 64.907 152.181C64.146 152.468 63.8256 154.662 64.7268 156.022C66.3289 158.429 71.2822 157.469 71.4291 156.676Z" fill="black"/>
        <path d="M87.8978 147.973C88.8791 146.279 93.9059 147.459 95.8685 147.926C103.652 149.76 104.413 153.875 112.077 155.655C115.628 156.482 118.118 156.229 118.492 157.489C118.866 158.75 116.376 161.004 114.093 162.064C109.26 164.298 104.013 162.284 101.636 161.33C93.3718 158.016 86.516 150.354 87.8978 147.973Z" fill="black"/>
        <path d="M365.737 501.917C363.587 503.831 362.926 507.385 363.841 509.919C366.444 517.182 382.059 516.721 386.792 516.588C389.342 516.569 391.867 516.092 394.248 515.181C396.047 514.437 397.755 513.493 399.342 512.367C400.559 511.528 401.715 510.603 402.8 509.599C407.393 511.726 410.958 511.446 412.713 511.14C414.349 510.86 417.239 510.359 417.633 508.612C418.027 506.865 415.397 504.851 415.263 504.758C412.261 503.842 409.189 503.172 406.078 502.757C396.485 501.51 394.202 503.691 385.196 503.251C373.748 502.69 369.242 498.796 365.737 501.917Z" fill="white"/>
        <path d="M412.66 490.353H412.753C413.207 490.507 414.309 491.374 415.61 497.856C416.144 500.531 416.527 503.234 416.759 505.951C417.333 506.885 417.86 508.112 417.426 509.132C416.759 510.766 412.974 511.36 409.723 511.173C409.015 511.129 408.311 511.047 407.613 510.926C405.504 510.539 404.749 510.139 403.948 510.006C401.431 509.586 399.983 512.38 396.518 514.361C394.462 515.534 392.646 515.848 388.955 516.361C383.447 517.108 371.331 517.368 369.068 511.867C368.62 510.683 368.573 509.385 368.935 508.172C383.387 499.276 387.686 495.895 387.626 495.001C387.626 495.001 387.626 494.881 387.626 494.735C387.619 493.733 387.901 492.751 388.441 491.907C389.302 490.34 389.535 487.906 391.859 485.152C392.266 484.614 392.838 484.223 393.487 484.038C395.537 483.371 398.22 484.738 399.636 486.652C401.458 489.113 400.13 491.053 401.979 492.567C402.947 493.354 404.095 493.481 406.385 493.728C408.321 493.941 409.282 494.048 410.083 493.514C411.552 492.554 411.885 490.233 412.66 490.353Z" stroke="black" stroke-miterlimit="10"/>
        <path d="M412.66 490.353H412.753C413.207 490.506 414.309 491.373 415.61 497.855C416.144 500.53 416.527 503.233 416.759 505.951C410.978 507.005 407.913 505.985 406.171 504.791C405.304 504.045 404.231 503.58 403.094 503.457C402.366 503.457 401.265 503.624 398.421 505.658C397.666 506.205 397.132 506.591 396.565 507.058C395.77 507.725 395.23 508.252 395.156 508.325C394.048 509.399 385.81 514.881 375.717 512.573C373.627 512.093 369.041 511.046 368.748 508.865C368.567 507.465 371.538 505.444 377.499 501.456C377.499 501.456 385.216 496.208 387.913 492.594C388.147 492.287 388.321 492.034 388.434 491.873C389.295 490.306 389.529 487.872 391.852 485.118C392.083 484.828 392.361 484.578 392.673 484.378C392.926 484.221 393.197 484.096 393.481 484.004C394.075 483.811 398.467 482.991 400.984 485.578C402.893 487.539 401.552 489.199 403.654 491.213C404.869 492.284 406.394 492.94 408.007 493.087C409.195 493.241 410.497 493.401 411.271 492.634C412.046 491.867 412.186 490.353 412.66 490.353Z" fill="black"/>
        <path d="M423.815 474.288C419.648 476.37 415.018 477.355 410.363 477.149C410.05 483.738 409.696 490.206 409.442 496.675C409.342 498.942 409.442 501.217 409.409 503.484C409.409 504.818 409.943 505.485 411.218 505.351C414.496 505.091 417.854 505.111 421.031 504.384C425.911 503.264 430.671 501.63 435.47 500.169C436.972 499.716 437.306 498.836 436.485 497.382C432.233 489.726 428.061 482.017 423.815 474.288Z" fill="white" stroke="black" stroke-miterlimit="10"/>
        <path d="M421.752 475.295L364.515 190.693C363.788 190.123 362.948 189.712 362.051 189.488C361.153 189.264 360.219 189.231 359.308 189.393C355.884 190.059 354.635 193.347 354.555 193.534C373.897 288.137 393.238 382.742 412.58 477.349L421.752 475.295Z" fill="black"/>
        <path d="M437.266 498.982C428.751 503.088 419.398 505.165 409.943 505.051C403.374 504.597 397.513 507.852 395.33 512.913C393.06 518.188 396.258 524.917 399.582 528.625C405.857 535.667 415.791 535.961 415.55 537.188C415.404 537.961 411.245 538.148 407.299 537.514C401.071 536.521 398.621 533.987 396.618 535.287C394.736 536.494 394.509 539.915 395.003 542.236C396.638 549.958 408.047 555.44 417.473 554.393C421.932 553.9 425.784 550.832 428.194 549.171C433.348 545.617 435.804 542.103 436.599 542.656C437.393 543.21 436.231 546.957 433.828 549.992C429.976 554.813 424.649 554.8 424.689 556.36C424.743 558.188 432.032 560.061 439.169 560.068C439.169 560.068 451.559 560.068 461.125 552.733C465.317 549.525 465.798 547.017 465.871 546.01C465.921 545.083 465.856 544.154 465.678 543.243C465.077 540.009 463.461 538.435 463.895 537.961C464.329 537.488 466.298 538.348 468.047 539.742C472.72 543.443 471.679 549.812 473.688 550.258C475.444 550.659 478.595 546.364 480.097 541.556C483.208 531.599 479.963 517.128 470.618 511.433C464.609 507.752 460.918 510.733 450.444 506.691C445.667 504.842 441.218 502.239 437.266 498.982Z" fill="black"/>
        <path d="M321.418 143.391C317.866 146.726 316.491 151.301 315.843 153.461C314.735 157.142 314.695 160.17 314.829 164.325C315.229 176.728 315.436 182.93 317.092 186.452C317.639 187.605 323.894 200.329 335.042 200.529C346.912 200.743 353.647 186.525 353.954 185.858C355.29 182.877 355.623 177.189 356.244 165.852C356.585 159.616 356.458 156.449 355.169 152.808C354.054 149.345 352.079 146.22 349.428 143.725C342.005 137.156 328.5 136.796 321.418 143.391Z" stroke="black" stroke-miterlimit="10"/>
        <path d="M330.41 185.851C331.888 186.951 333.655 187.597 335.495 187.709C337.335 187.822 339.168 187.396 340.77 186.485" stroke="black" stroke-miterlimit="10"/>
        <path d="M338.307 178.202C337.627 178.729 336.817 179.06 335.964 179.163C334.774 179.273 333.585 178.941 332.626 178.229" stroke="black" stroke-miterlimit="10"/>
        <path d="M341.798 164.965C343.468 164.083 345.33 163.625 347.219 163.631C348.784 163.635 350.332 163.962 351.765 164.591" stroke="black" stroke-miterlimit="10"/>
        <path d="M332.726 165.958C333.043 166.76 333.197 167.617 333.18 168.479C333.164 169.269 333.001 170.049 332.699 170.78" stroke="black" stroke-miterlimit="10"/>
        <path d="M315.002 168.719C312.706 167.652 311.664 168.052 311.217 168.339C309.168 169.673 309.882 175.268 312.552 178.842C313.451 180.055 314.587 181.074 315.89 181.837" stroke="black" stroke-miterlimit="10"/>
        <path d="M345.109 170.787C345.762 170.787 346.291 169.981 346.291 168.986C346.291 167.992 345.762 167.186 345.109 167.186C344.457 167.186 343.928 167.992 343.928 168.986C343.928 169.981 344.457 170.787 345.109 170.787Z" fill="black"/>
        <path d="M329.135 164.638C327.612 163.823 325.924 163.363 324.197 163.294C322.471 163.224 320.751 163.547 319.168 164.238" stroke="black" stroke-miterlimit="10"/>
        <path d="M323.807 170.453C324.46 170.453 324.989 169.647 324.989 168.653C324.989 167.658 324.46 166.852 323.807 166.852C323.155 166.852 322.626 167.658 322.626 168.653C322.626 169.647 323.155 170.453 323.807 170.453Z" fill="black"/>
        <path d="M356.111 168.719C358.454 167.639 359.448 168.053 359.896 168.339C361.972 169.673 361.371 175.341 358.561 178.843C357.601 180.037 356.391 181.007 355.016 181.683" stroke="black" stroke-miterlimit="10"/>
        <path d="M328.16 160.543C332.165 162.837 336.598 161.564 340.523 160.443C344.064 159.419 347.383 157.743 350.31 155.502C351.6 157.28 352.886 159.058 354.168 160.837C354.569 167.072 355.376 168.626 356.111 168.719C357.693 168.926 360.643 162.497 360.396 156.095C360.282 152.927 359.42 149.831 357.88 147.059C355.209 142.391 351.338 140.197 348.314 138.55C345.016 136.756 337.946 133.075 332.112 135.549C329.635 136.596 330.249 137.616 327.172 139.303C322.212 142.018 319.081 140.23 316.291 141.671C309.775 145.052 312.319 168.613 314.955 168.719C315.737 168.753 316.798 166.765 318.247 159.456C319.996 157.976 321.742 156.493 323.487 155.008C324.403 157.31 326.043 159.253 328.16 160.543Z" fill="black"/>
        <path d="M338.047 135.242C338.494 134.449 341.805 136.896 347.739 136.429C351.878 136.109 353.801 134.642 354.562 135.542C355.623 136.789 353.607 141.544 350.209 142.878C344.562 144.979 337.332 136.523 338.047 135.242Z" fill="black"/>
        <path d="M393.554 242.316C393.828 257.274 393.681 269.738 393.454 279.067C393.22 288.677 392.933 293.478 392.039 299.387C390.817 307.389 388.374 312.057 385.937 323.328C379.495 353.137 375.437 361.093 372.786 360.866C370.136 360.639 368.728 351.783 368.267 348.689C365.991 333.531 371.311 321.1 374.562 314.925C374.268 302.179 373.972 289.435 373.674 276.693L374.575 241.022L393.554 242.316Z" fill="white" stroke="black" stroke-miterlimit="10"/>
        <path d="M322.652 494.828L322.552 512.213L309.101 512.413C309.034 505.989 308.97 499.567 308.907 493.147L322.652 494.828Z" fill="white"/>
        <path d="M354.695 495.221L354.595 510.833L367.159 510.339L366.959 495.121L354.695 495.221Z" fill="white"/>
        <path d="M321.124 192.713C321.954 195.605 321.83 198.687 320.77 201.503C320.036 203.376 318.896 205.063 317.432 206.444" stroke="black" stroke-miterlimit="10"/>
        <path d="M349.141 193.114C348.309 196.005 348.431 199.086 349.488 201.903C350.221 203.777 351.361 205.464 352.826 206.844" stroke="black" stroke-miterlimit="10"/>
        <path d="M321.604 504.691C320.817 504.851 321.604 509.739 320.563 510.066C319.608 510.359 318.754 506.478 315.356 504.951C314.395 504.531 313.355 504.321 312.306 504.336C311.257 504.351 310.223 504.59 309.275 505.038C307.138 506.111 306.791 507.932 305.196 510.759C301.03 518.162 296.257 518.435 293.994 525.337C293.613 526.492 293.351 527.683 293.213 528.892C292.859 529.385 291.758 531.046 292.345 532.446C292.786 533.527 294.041 534.007 296.351 534.447C300.314 535.192 304.374 535.28 308.367 534.707C314.375 533.887 315.189 532.82 315.443 532.406C316.604 530.532 315.169 528.592 316.484 527.285C317.799 525.977 319.715 527.505 322.179 526.118C323.556 525.262 324.574 523.934 325.042 522.383C325.53 520.809 325.042 520.136 324.608 517.008C323.941 512.213 324.508 510.133 322.96 506.545C322.673 506.025 322.038 504.617 321.604 504.691Z" fill="white" stroke="black" stroke-miterlimit="10"/>
        <path d="M321.604 504.691C320.817 504.851 321.604 509.739 320.563 510.066C319.608 510.359 318.754 506.478 315.356 504.951C314.395 504.531 313.355 504.321 312.306 504.336C311.257 504.351 310.223 504.59 309.275 505.038C307.138 506.111 306.791 507.932 305.196 510.759C301.03 518.162 296.257 518.435 293.994 525.337C293.613 526.492 293.351 527.683 293.213 528.892C297.134 530.293 301.3 530.883 305.456 530.626C308.754 530.406 311.658 530.172 313.313 528.071C314.582 526.458 314.128 525.004 315.616 524.037C317.299 522.937 318.534 524.357 321.17 523.43C322.913 522.816 324.682 521.363 325.009 519.582C325.163 518.709 324.895 518.248 324.562 517.008C323.293 512.44 324.608 510.473 322.913 506.545C322.672 506.025 322.038 504.617 321.604 504.691Z" fill="black"/>
        <path d="M353.981 503.47C353.193 503.47 352.386 508.865 352.185 510.239C351.725 513.334 351.518 515.901 351.431 517.642C350.947 518.391 350.68 519.258 350.657 520.149C350.697 521.039 350.951 521.907 351.399 522.678C351.846 523.449 352.473 524.1 353.227 524.577C356.391 526.578 359.535 523.583 362.259 525.444C364.088 526.698 363.1 528.372 364.749 530.419C366.959 533.173 371.852 532.966 381.538 532.42C388.214 532.059 389.936 531.453 390.51 530.165C391.178 528.618 390.043 526.591 389.235 525.191C387.686 522.523 385.71 521.049 384.028 519.756C376.685 514.114 373.02 511.293 370.677 507.912C369.482 506.191 368.674 504.631 366.912 504.197C364.435 503.591 361.671 505.531 360.657 506.278C357.953 508.199 357.392 510.026 356.371 509.806C354.569 509.446 354.802 503.497 353.981 503.47Z" fill="white" stroke="black" stroke-miterlimit="10"/>
        <path d="M353.981 503.47C353.193 503.47 352.386 508.865 352.185 510.239C351.725 513.334 351.518 515.901 351.431 517.642C351.922 519.182 352.95 520.495 354.328 521.343C357.512 523.09 360.53 520.256 363.881 522.09C365.77 523.13 365.336 524.317 367.539 525.897C369.435 527.265 371.545 527.678 374.936 527.818C379.972 527.989 385.01 527.541 389.936 526.484C389.394 525.342 388.722 524.266 387.933 523.277C386.826 521.919 385.518 520.739 384.055 519.776C380.37 517.248 374.509 513.414 370.704 507.932C369.509 506.211 368.701 504.651 366.938 504.217C364.462 503.61 361.698 505.551 360.683 506.298C357.98 508.219 357.419 510.046 356.398 509.826C354.569 509.446 354.802 503.497 353.981 503.47Z" fill="black"/>
        <path d="M322.566 496.235L322.646 505.971" stroke="black" stroke-miterlimit="10"/>
        <path d="M309.074 497.682L308.994 505.604" stroke="black" stroke-miterlimit="10"/>
        <path d="M354.328 496.995C354.328 499.369 354.362 501.75 354.375 504.131" stroke="black" stroke-miterlimit="10"/>
        <path d="M367.439 497.355L367.299 505.104" stroke="black" stroke-miterlimit="10"/>
        <path d="M372.993 313.538C376.32 330.441 377.647 347.675 376.945 364.887C376.451 375.957 375.083 386.127 374.776 406.394C374.602 417.444 374.776 425.2 374.956 429.734C375.623 443.952 375.577 466.092 372.593 500.85L348.467 501.637C342.613 469.067 342.546 446.78 343.714 432.088C344.445 423.076 344.445 414.019 343.714 405.007C342.566 390.569 339.188 371.529 336.191 371.623C332.96 371.723 330.97 393.976 330.436 405.633C330.06 413.389 330.131 421.16 330.65 428.907C331.631 442.765 332.172 464.919 329.855 500.436L303.353 499.256C299.922 479.559 298.595 459.554 299.395 439.577C299.869 428.807 300.897 420.865 300.583 405.567C300.222 387.975 298.487 380.152 297.619 368.028C296.691 355.164 296.671 336.398 301.377 312.678L372.993 313.538Z" fill="#5358CF" stroke="black" stroke-miterlimit="10"/>
        <path d="M318.56 204.03C320.149 205.304 327.626 211.019 338.006 209.892C342.854 209.339 347.449 207.44 351.271 204.41C354.767 205.096 358.22 205.987 361.611 207.078C370.583 209.972 379.328 214.347 383.761 217.688C399.689 229.692 398.754 257.754 398.594 261.255L375.51 255.626C375.559 253.088 375.61 250.549 375.664 248.011C375.39 258.307 375.363 269.057 375.664 280.221C376.104 297.206 377.219 313.238 378.781 328.236C370.049 325.801 361.01 324.642 351.945 324.795C342.205 324.981 337.259 326.629 326.631 327.776C315.941 328.906 305.164 328.968 294.461 327.962C297.206 310.242 298.567 292.336 298.534 274.406C298.534 264.583 298.073 255.28 297.345 246.544L297.866 253.632L272.859 259.974C272.859 256.267 273.266 231.192 288.213 218.628C292.432 215.1 300.516 210.286 309.475 206.884C312.448 205.766 315.481 204.813 318.56 204.03Z" fill="white" stroke="black" stroke-miterlimit="10"/>
        <path d="M319.588 284.489C319.215 295.706 314.666 306.381 306.831 314.425" stroke="black" stroke-miterlimit="10"/>
        <path d="M333.233 299.293C329.998 305.239 325.169 310.166 319.288 313.525" stroke="black" stroke-miterlimit="10"/>
        <path d="M350.143 417.41C350.56 423.062 352.51 428.494 355.784 433.122" stroke="black" stroke-miterlimit="10"/>
        <path d="M325.056 418.457C324.282 424.014 322.302 429.336 319.255 434.049" stroke="black" stroke-miterlimit="10"/>
        <path d="M303.493 412.282C303.909 417.936 305.86 423.37 309.134 428" stroke="black" stroke-miterlimit="10"/>
        <path d="M370.69 409.615C370.301 412.426 369.602 415.185 368.607 417.844C367.636 420.416 366.39 422.875 364.889 425.179" stroke="black" stroke-miterlimit="10"/>
        <path d="M356.391 305.822L336.965 325.075L334.094 322.161L353.674 302.494L356.391 305.822Z" fill="white" stroke="black" stroke-miterlimit="10"/>
        <path d="M310.83 343.787C311.162 343.177 311.616 342.641 312.165 342.214C315.788 338.546 319.419 334.889 323.06 331.243C325.637 328.663 328.233 326.102 330.817 323.528C331.411 322.928 331.998 322.327 332.586 321.72C332.799 321.484 333.079 321.317 333.389 321.242C333.698 321.167 334.023 321.188 334.321 321.3C334.412 321.341 334.514 321.349 334.61 321.324C334.706 321.298 334.79 321.24 334.849 321.16C336.852 319.126 338.934 317.106 340.97 315.072C343.387 312.664 345.79 310.244 348.207 307.829C349.395 306.642 350.55 305.429 351.792 304.302C352.714 303.497 353.405 302.461 353.794 301.301C354.332 299.953 354.419 298.467 354.041 297.066C353.844 296.458 353.525 295.897 353.102 295.418C352.68 294.938 352.163 294.551 351.585 294.279C349.87 293.407 347.974 292.95 346.051 292.945C345.076 292.945 344.095 293.025 343.12 293.052C343 293.052 342.793 292.992 342.773 292.925C342.755 292.852 342.754 292.776 342.769 292.702C342.784 292.628 342.815 292.558 342.86 292.498C343.157 292.234 343.477 291.995 343.814 291.784C345.399 290.789 347.207 290.204 349.075 290.084L349.442 290.024H351.051L352.019 290.124C353.899 290.362 355.729 290.9 357.439 291.718C359.089 292.43 360.607 293.413 361.932 294.625C362.559 295.232 363.207 295.819 363.834 296.426C364.021 296.623 364.197 296.83 364.362 297.046C364.398 297.08 364.427 297.122 364.447 297.168C364.467 297.213 364.477 297.263 364.477 297.313C364.477 297.363 364.467 297.412 364.447 297.458C364.427 297.504 364.398 297.545 364.362 297.58C364.155 297.8 363.961 298.04 363.768 298.246C363.386 298.669 363.159 299.208 363.123 299.777C363.088 300.345 363.247 300.908 363.574 301.374C363.939 301.897 364.35 302.386 364.802 302.835C364.947 302.998 365.127 303.127 365.329 303.211C365.531 303.295 365.75 303.333 365.968 303.32C366.186 303.308 366.399 303.247 366.59 303.141C366.782 303.035 366.946 302.887 367.072 302.708C367.202 302.493 367.38 302.311 367.593 302.177C367.806 302.043 368.047 301.96 368.297 301.936C368.547 301.911 368.8 301.945 369.034 302.035C369.269 302.125 369.479 302.269 369.649 302.454C370.145 302.879 370.52 303.426 370.737 304.042V304.482C370.351 305.027 369.934 305.55 369.489 306.049C368.087 307.489 366.645 308.89 365.223 310.31C364.702 310.83 364.208 311.384 363.661 311.877C363.535 312.016 363.383 312.127 363.214 312.206C363.044 312.284 362.86 312.328 362.674 312.334C362.487 312.341 362.301 312.309 362.126 312.242C361.952 312.175 361.793 312.074 361.658 311.944C361.261 311.635 360.904 311.276 360.597 310.877C360.393 310.565 360.311 310.19 360.365 309.821C360.419 309.453 360.606 309.117 360.89 308.876C361.167 308.641 361.412 308.369 361.618 308.07C361.758 307.869 361.823 307.625 361.801 307.381C361.779 307.137 361.672 306.908 361.498 306.736C361.016 306.066 360.388 305.515 359.662 305.122C359.094 304.831 358.445 304.739 357.818 304.86C357.191 304.981 356.623 305.308 356.204 305.789C354.809 307.123 353.44 308.536 352.059 309.91L342.372 319.58C340.824 321.134 339.288 322.694 337.746 324.248C337.689 324.291 337.648 324.352 337.632 324.422C337.617 324.492 337.626 324.565 337.659 324.628C337.741 324.831 337.797 325.044 337.826 325.262C337.85 325.418 337.836 325.578 337.785 325.728C337.734 325.878 337.647 326.013 337.532 326.122C334.582 329.109 331.638 332.124 328.674 335.091C326.671 337.092 324.669 339.126 322.612 341.14L318.073 345.675C317.552 346.201 317.032 346.748 316.524 347.288C316.143 347.714 315.658 348.034 315.116 348.215H314.802C314.133 348.014 313.54 347.616 313.1 347.075C312.655 346.604 312.194 346.144 311.718 345.695C311.284 345.327 310.968 344.84 310.81 344.294L310.83 343.787Z" stroke="black" stroke-miterlimit="10"/>
        <path d="M370.71 304.075C370.547 303.434 370.161 302.872 369.622 302.488C369.18 302.185 368.662 302.012 368.127 301.988C367.895 302.364 367.578 302.681 367.201 302.913C366.824 303.145 366.398 303.284 365.957 303.321C365.003 303.321 364.362 302.588 363.788 301.948C363.366 301.57 363.066 301.076 362.927 300.527C362.842 299.713 363.082 298.899 363.594 298.26C363.831 297.908 364.125 297.597 364.462 297.34C362.967 295.512 358.133 290.091 351.298 290.004C346.885 289.964 342.76 292.178 342.873 292.671C342.94 292.992 344.842 292.478 347.946 293.058C349.949 293.438 351.885 293.792 353.14 295.392C353.975 296.551 354.366 297.971 354.242 299.394C354.126 301.055 353.415 302.62 352.239 303.802L355.27 306.669C355.664 305.999 356.249 305.461 356.951 305.125C357.652 304.789 358.438 304.669 359.208 304.782C360.677 305.095 361.952 306.536 361.765 307.449C361.672 307.896 361.311 307.976 360.857 308.783C360.607 309.248 360.431 309.75 360.336 310.27C360.564 310.933 361.021 311.494 361.625 311.851C362.009 312.069 362.439 312.196 362.88 312.224C364.215 311.077 365.316 310.064 366.171 309.263C367.31 308.258 368.364 307.161 369.322 305.982C369.821 305.374 370.285 304.737 370.71 304.075Z" fill="black" stroke="black" stroke-miterlimit="10"/>
        <path d="M333.507 321.22C334.613 321.381 335.636 321.901 336.416 322.7C337.197 323.499 337.693 324.533 337.826 325.642C334.061 329.616 330.149 333.635 326.09 337.699C322.499 341.286 318.939 344.756 315.409 348.109C314.393 347.735 313.464 347.159 312.677 346.416C311.89 345.674 311.261 344.779 310.83 343.787C316.11 338.019 321.818 332.177 327.986 326.335C329.829 324.588 331.669 322.883 333.507 321.22Z" fill="black" stroke="black" stroke-miterlimit="10"/>
        <path d="M275.896 259.208C276.304 261.515 276.938 264.876 277.839 268.891C280.509 280.894 282.579 289.957 287.038 299.22C291.611 308.71 294.114 308.85 317.526 333.397C317.713 333.597 321.891 337.972 327.392 339.233C328.727 339.539 330.89 340.006 332.733 338.932C333.787 338.326 333.734 337.792 335.403 336.712C337.072 335.631 337.693 335.771 338.514 334.784C339.335 333.798 338.901 333.504 339.702 332.264C340.817 330.55 341.872 330.93 342.666 329.449C343.26 328.356 342.779 327.996 343.507 326.188C343.994 324.995 344.342 324.821 344.595 324.114C344.956 323.134 344.982 321.58 343.414 319.08C343.128 319.597 342.732 320.044 342.253 320.39C341.774 320.736 341.224 320.972 340.643 321.08C338.968 321.287 337.165 320.16 337.119 319.133C337.119 318.466 337.786 318.073 338.994 317.066C340.271 315.953 341.405 314.687 342.372 313.298C339.635 313.598 336.935 314.177 334.315 315.025C330.43 316.285 329.882 317.119 328.307 317.099C324.034 317.052 321.331 311.037 317.626 305.149C313.777 299.066 309.303 293.402 304.275 288.25C303.387 281.908 302.312 275.313 301.01 268.49C300.027 263.373 298.983 258.423 297.879 253.639L275.896 259.208Z" fill="white" stroke="black" stroke-miterlimit="10"/>
        <path d="M339.355 199.929C336.688 201.744 333.536 202.715 330.309 202.715C327.083 202.715 323.93 201.744 321.264 199.929C321.697 197.734 321.805 195.487 321.584 193.26C323.848 196.449 327.133 198.771 330.897 199.842C333.663 200.592 336.574 200.621 339.355 199.929Z" fill="black"/>
        <path d="M228.286 214.56C226.337 216.286 224.858 218.477 223.987 220.929C220.155 232.212 232.285 245.563 228.733 248.791C227.398 250.018 225.182 248.504 223.987 249.978C222.331 252.012 224.474 257.38 227.992 260.355C231.777 263.549 237.712 264.443 241.918 262.015C243.709 260.872 245.165 259.275 246.137 257.387C251.584 246.61 229.962 216.834 228.286 214.56Z" fill="black"/>
        <path d="M229.014 217.268C230.229 221.776 231.079 226.375 231.557 231.019C232.098 236.414 231.504 238.781 232.785 243.796C233.442 246.522 234.533 249.125 236.016 251.505C236.379 252.087 236.773 252.648 237.198 253.186C238.688 255.001 240.577 256.447 242.719 257.414C242.967 258.992 242.692 260.607 241.938 262.015C240.182 265.09 236.364 265.663 234.528 265.923C232.64 266.189 230.719 266.081 228.873 265.603C229.541 266.37 240.709 278.354 256.39 275.499C267.138 273.539 273.153 265.856 274.588 263.909C273.251 264.336 271.84 264.483 270.443 264.343C269.508 264.243 265.823 263.862 263.66 260.648C261.497 257.434 262.565 253.726 262.726 253.239C265.975 251.353 268.779 248.787 270.943 245.717C277.512 236.281 278.286 220.849 269.842 212.306C260.763 203.124 241.41 203.37 229.014 217.268Z" fill="white"/>
        <path d="M274.595 215.027C273.273 211.434 271.119 208.204 268.307 205.603C265.496 203.002 262.107 201.103 258.42 200.062C256.537 199.536 250.242 197.868 243.44 200.803C234.942 204.47 230.436 213.253 230.042 220.255C229.888 222.923 230.522 222.256 231.57 231.332C232.665 240.782 231.958 241.335 233.052 244.816C233.84 247.317 236.203 254.853 242.699 257.414C247.512 259.314 252.145 257.507 256.938 255.633C260.276 254.299 267.031 251.692 271.13 244.863C273.313 241.222 273.74 237.974 274.595 231.479C275.616 223.523 276.157 219.542 274.595 215.027Z" stroke="black" stroke-miterlimit="10"/>
        <path d="M268.273 228.825C268.34 228.638 269.301 225.99 271.918 225.404C272.612 225.237 273.335 225.234 274.03 225.395C274.725 225.556 275.373 225.876 275.923 226.331C278.34 228.498 277.572 233.806 274.902 236.814C273.835 237.99 272.477 238.865 270.963 239.348" fill="white"/>
        <path d="M268.273 228.825C268.34 228.638 269.301 225.99 271.918 225.404C272.612 225.237 273.335 225.234 274.03 225.395C274.725 225.556 275.373 225.876 275.923 226.331C278.34 228.498 277.572 233.806 274.902 236.814C273.835 237.99 272.477 238.865 270.963 239.348" stroke="black" stroke-miterlimit="10"/>
        <path d="M247.412 227.938C248.934 227.122 250.623 226.663 252.349 226.593C254.075 226.524 255.795 226.847 257.378 227.538" stroke="black" stroke-miterlimit="10"/>
        <path d="M250.723 233.746C251.375 233.746 251.904 232.94 251.904 231.946C251.904 230.951 251.375 230.145 250.723 230.145C250.07 230.145 249.541 230.951 249.541 231.946C249.541 232.94 250.07 233.746 250.723 233.746Z" fill="black"/>
        <path d="M240.769 234.466C241.243 233.017 241.217 231.451 240.696 230.018C240.582 229.725 239.361 226.577 236.076 225.95C234.496 225.683 232.873 226.026 231.537 226.911" stroke="black" stroke-miterlimit="10"/>
        <path d="M236.17 233.126C236.822 233.126 237.351 232.32 237.351 231.325C237.351 230.331 236.822 229.525 236.17 229.525C235.517 229.525 234.988 230.331 234.988 231.325C234.988 232.32 235.517 233.126 236.17 233.126Z" fill="black"/>
        <path d="M239.655 239.188C240.107 239.791 240.733 240.241 241.449 240.479C242.164 240.717 242.936 240.732 243.66 240.522" stroke="black" stroke-miterlimit="10"/>
        <path d="M239.668 246.13C239.848 246.29 242.545 248.571 245.716 247.584C246.925 247.189 247.976 246.42 248.72 245.39" stroke="black" stroke-miterlimit="10"/>
        <path d="M161.636 368.173L159.995 382.954C159.862 384.151 160.726 385.229 161.924 385.362L258.648 396.08C259.846 396.213 260.925 395.35 261.058 394.153L262.699 379.373C262.832 378.176 261.969 377.098 260.77 376.965L164.047 366.246C162.848 366.113 161.769 366.976 161.636 368.173Z" fill="white" stroke="black" stroke-miterlimit="10"/>
        <path d="M251.036 423.332L163.406 413.596C163.109 413.563 162.822 413.472 162.561 413.328C162.3 413.184 162.07 412.99 161.884 412.757C161.698 412.524 161.56 412.257 161.477 411.97C161.395 411.684 161.37 411.384 161.403 411.088L164.233 385.634L256.357 395.85L253.547 421.332C253.513 421.628 253.422 421.914 253.278 422.175C253.134 422.436 252.94 422.666 252.707 422.852C252.473 423.037 252.206 423.175 251.919 423.258C251.633 423.34 251.333 423.366 251.036 423.332Z" fill="white" stroke="black" stroke-miterlimit="10"/>
        <path d="M224.571 359.993L223.149 372.799L230.454 373.608L231.876 360.803L224.571 359.993Z" fill="white" stroke="black" stroke-miterlimit="10"/>
        <path d="M179.26 415.33L163.406 413.569C163.109 413.536 162.822 413.445 162.561 413.301C162.3 413.157 162.07 412.963 161.884 412.73C161.698 412.497 161.56 412.23 161.477 411.944C161.395 411.657 161.37 411.358 161.403 411.062L164.233 385.607L182.625 387.648L179.574 415.083C179.57 415.12 179.559 415.155 179.54 415.188C179.522 415.22 179.498 415.249 179.469 415.272C179.44 415.295 179.406 415.312 179.37 415.322C179.335 415.331 179.297 415.334 179.26 415.33Z" fill="white" stroke="black" stroke-miterlimit="10"/>
        <path d="M224.571 359.993L223.149 372.799L230.454 373.608L231.876 360.803L224.571 359.993Z" fill="white" stroke="black" stroke-miterlimit="10"/>
        <path d="M199.964 357.27L199.299 363.262L231.213 366.798L231.878 360.807L199.964 357.27Z" fill="white" stroke="black" stroke-miterlimit="10"/>
        <path d="M199.965 357.262L198.543 370.067L205.848 370.877L207.27 358.071L199.965 357.262Z" fill="white" stroke="black" stroke-miterlimit="10"/>
        <path d="M199.306 389.417C199.673 386.111 198.93 383.316 197.648 383.174C196.365 383.032 195.028 385.597 194.661 388.902C194.294 392.208 195.036 395.002 196.319 395.145C197.601 395.287 198.938 392.722 199.306 389.417Z" fill="white" stroke="black" stroke-miterlimit="10"/>
        <path d="M207.702 390.351C208.069 387.046 207.327 384.251 206.044 384.109C204.762 383.966 203.424 386.531 203.057 389.836C202.69 393.142 203.432 395.937 204.715 396.079C205.997 396.221 207.335 393.657 207.702 390.351Z" fill="white" stroke="black" stroke-miterlimit="10"/>
        <path d="M215.627 391.223C215.994 387.918 215.252 385.123 213.969 384.981C212.687 384.839 211.349 387.403 210.982 390.709C210.615 394.014 211.357 396.809 212.64 396.951C213.922 397.093 215.26 394.529 215.627 391.223Z" fill="white" stroke="black" stroke-miterlimit="10"/>
        <path d="M252.335 395.041C252.702 391.735 251.96 388.941 250.677 388.798C249.395 388.656 248.057 391.221 247.69 394.526C247.323 397.832 248.065 400.627 249.348 400.769C250.63 400.911 251.968 398.347 252.335 395.041Z" fill="white" stroke="black" stroke-miterlimit="10"/>
        <path d="M244.163 394.131C244.53 390.826 243.788 388.031 242.505 387.889C241.223 387.746 239.886 390.311 239.519 393.616C239.151 396.922 239.894 399.717 241.176 399.859C242.459 400.001 243.796 397.437 244.163 394.131Z" fill="white" stroke="black" stroke-miterlimit="10"/>
        <path d="M236.299 393.253C236.666 389.948 235.923 387.153 234.641 387.011C233.358 386.869 232.021 389.433 231.654 392.738C231.287 396.044 232.029 398.839 233.312 398.981C234.594 399.123 235.931 396.559 236.299 393.253Z" fill="white" stroke="black" stroke-miterlimit="10"/>
        <path d="M190.21 369.156L163.943 366.245C162.818 366.121 161.805 366.931 161.68 368.054L160.009 383.1C159.884 384.224 160.695 385.236 161.82 385.361L188.088 388.272C189.213 388.396 190.226 387.586 190.351 386.462L192.021 371.417C192.146 370.293 191.335 369.281 190.21 369.156Z" fill="white" stroke="black" stroke-miterlimit="10"/>
        <path d="M238.9 191.773C242.906 187.105 252.659 189.139 254.381 189.499C259.721 190.62 259.601 192.287 265.062 193.207C271.397 194.267 273.28 192.313 275.443 194.094C279.301 197.268 274.888 205.531 278.854 208.372C280.449 209.505 281.397 208.372 284.001 209.359C289.114 211.306 291.03 218.028 291.711 220.422C292.038 221.576 295.049 232.853 289.081 239.208C286.411 242.029 284.228 241.522 282.245 244.803C279.982 248.558 281.758 250.805 280.176 254.426C277.899 259.641 269.061 264.429 263.166 261.635C259.481 259.901 256.998 255.206 258.126 253.239C258.947 251.792 261.11 252.859 263.046 251.045C265.109 249.104 263.994 246.644 265.836 243.356C266.82 241.675 268.226 240.279 269.915 239.308C272.28 238.852 274.387 237.524 275.816 235.587C277.432 233.273 278.373 229.432 276.544 227.044C275.871 226.169 274.899 225.57 273.814 225.364C271.858 225.037 269.721 226.244 268.547 228.398C267.652 234.08 266.544 235.16 265.803 235.24C262.739 235.56 261.357 219.935 254.081 218.395C250.676 217.681 249.888 220.876 242.512 221.956C238.481 222.589 234.357 222.232 230.496 220.916C227.732 219.922 224.654 218.822 222.632 215.881C218.9 210.446 220.569 201.323 224.861 199.082C228.586 197.135 232.645 201.243 235.836 198.835C238.133 197.088 236.597 194.461 238.9 191.773Z" fill="black"/>
        <path d="M224.488 266.51C220.823 267.477 219.421 273.092 217.458 281.395C215.294 290.595 214.395 300.047 214.788 309.49C214.821 310.264 214.855 310.824 214.901 311.531C216.337 335.098 221.29 347.542 216.383 351.05C215.048 351.977 213.466 351.957 210.843 354.111C209.461 355.253 208.265 356.603 207.298 358.112L222.712 359.859C225.105 356.39 227.064 352.641 228.546 348.696C231.637 340.426 230.856 336.232 233.293 315.892C234.201 308.336 234.788 305.222 236.063 301.468C238.693 293.758 241.03 292.885 241.604 288.63C243.019 277.954 230.956 264.803 224.488 266.51Z" fill="white" stroke="black" stroke-miterlimit="10"/>
        <path d="M250.396 445.192C250.349 445.926 250.069 449.76 250.102 454.969C250.142 461.344 250.629 466.019 250.723 466.972C251.243 472.514 250.95 486.498 247.525 522.99L234.361 523.05C230.869 508.005 228.771 492.671 228.092 477.242C227.946 473.468 228.473 466.199 227.104 456.296C225.769 446.706 223.893 441.951 222.164 434.762C221.61 432.468 217.565 415.27 219 399.985C220.943 379.245 233.466 356.638 240.456 357.898C252.786 360.086 250.916 436.93 250.396 445.192Z" fill="white" stroke="black" stroke-miterlimit="10"/>
        <path d="M272.278 350.469C285.877 370.536 288.5 387.528 289.141 395.604C289.201 396.364 290.476 414.076 287.071 429.828C286.097 434.282 285.383 438.79 284.501 443.265C284.501 443.265 282.585 452.975 282.752 458.016C282.839 460.637 283.12 463.391 283.12 463.391C283.16 463.745 283.186 463.992 283.2 464.118C283.867 470.58 282.365 486.579 274.361 525.151L263.086 525.497C262.058 512.46 260.93 502.457 260.049 495.488C260.049 495.488 257.599 476.022 258.867 463.772C258.867 463.772 258.907 463.405 258.947 462.965C259.047 461.931 259.207 460.11 259.314 457.843C259.571 452.337 259.406 446.819 258.82 441.338C258.653 439.791 258.5 438.67 258.446 438.297C257.392 430.521 255.376 408.027 255.776 397.037C256.03 389.202 258.073 372.696 272.278 350.469Z" fill="white" stroke="black" stroke-miterlimit="10"/>
        <path d="M207.358 364.167C209.207 363.934 211.65 363.347 212.411 361.62C213.126 360.006 211.537 358.359 212.411 357.372C212.999 356.705 214.654 358.299 215.823 357.565C216.35 357.238 216.23 356.818 216.717 356.631C217.492 356.318 218.219 357.232 219.881 358.065C221.711 358.979 222.191 358.552 222.699 359.146C224.307 361.033 221.303 367.568 218.446 367.642C217.391 367.642 216.864 366.708 214.982 366.655C213.613 366.615 213.139 367.108 212.118 367.148C210.983 367.195 209.387 366.681 207.358 364.167Z" fill="white" stroke="black" stroke-miterlimit="10"/>
        <path d="M296.531 276.693C297.443 272.123 298.235 267.677 298.907 263.356C296.644 261.309 294.754 258.885 293.32 256.193C292.414 254.433 291.702 252.579 291.197 250.665C290.636 248.758 290.069 246.837 290.63 246.504C291.19 246.17 292.586 247.364 293.44 248.504C294.401 249.798 294.214 250.505 295.309 252.319C295.89 253.292 296.718 254.666 297.252 254.526C298.113 254.299 297.699 250.125 297.479 247.917C297.351 246.218 297.097 244.531 296.718 242.869C296.27 240.995 295.903 240.235 295.723 238.461C295.683 238.081 295.369 234.873 296.037 234.7C296.571 234.56 297.546 236.387 298.04 237.661C298.574 239.1 298.889 240.61 298.974 242.142C299.468 245.917 301.023 249.311 301.437 249.231C301.851 249.151 302.038 244.416 300.77 239.835C300.256 238.21 299.962 236.523 299.895 234.82C299.895 234.5 299.795 231.299 300.469 231.172C300.957 231.085 301.631 232.646 302.038 233.6C302.829 235.435 303.381 237.365 303.68 239.341C304.762 247.217 304.829 248.644 305.082 248.678C305.51 248.678 306.731 244.676 306.07 240.408C305.766 239.067 305.623 237.695 305.643 236.32C305.703 234.58 306.097 232.172 306.691 232.139C307.439 232.099 308.193 235.76 308.267 236.14C308.589 237.834 308.73 239.558 308.687 241.282C308.774 248.564 308.954 248.751 309.068 248.771C309.602 248.871 311.21 245.77 311.257 242.382C311.178 241.103 311.178 239.82 311.257 238.541C311.364 237.374 311.705 234.833 312.225 234.813C312.746 234.793 313.393 238.334 313.474 238.848C313.805 241.104 313.89 243.389 313.727 245.663C313.36 253.886 313.774 253.199 313.393 255.073C312.765 258.063 311.532 260.893 309.769 263.389C309.944 272.621 309.231 281.848 307.639 290.944C305.423 303.508 303.313 305.382 301.704 306.162C295.383 309.217 285.316 300.767 280.69 295.245C278.019 292.051 274.615 287.997 274.308 281.908C273.827 272.405 281.25 265.95 282.379 265.003C284.604 268.466 286.829 272.109 289.054 275.933C291.021 279.321 292.868 282.642 294.595 285.896C295.258 282.904 295.903 279.836 296.531 276.693Z" fill="white" stroke="black" stroke-miterlimit="10"/>
        <path d="M233.446 265.283C234.688 266.47 242.191 273.445 253.7 272.872C260.953 272.438 267.749 269.191 272.639 263.822L282.352 264.983C280.249 268.744 274.087 280.908 278.86 292.425C279.44 293.814 280.155 295.143 280.997 296.392C277.138 305.349 273.32 318.506 277.158 332.617C278.213 336.498 279.067 337.585 281.497 343.881C287.011 358.152 289.201 369.595 291.391 381.032C294.005 394.735 295.598 408.613 296.157 422.552C280.276 432.455 268.747 433.015 261.15 431.701C252.559 430.208 247.645 426.08 236.45 425.293C229.007 424.82 221.547 425.894 214.541 428.447C210.442 395.103 214.748 372.816 219.821 358.272C222.919 349.376 226.283 342.934 225.469 332.77C224.134 315.912 212.785 306.682 217.705 294.932C218.94 291.978 220.375 290.604 221.644 287.923C221.644 287.923 222.512 285.923 223.152 283.855C225.275 276.98 224.648 268.384 224.488 266.516L233.446 265.283Z" fill="black" stroke="black" stroke-miterlimit="10"/>
        <path d="M243.046 257.541C243.119 258.745 242.889 259.948 242.378 261.042C240.683 264.569 235.829 266.49 230.202 265.896" stroke="black" stroke-miterlimit="10"/>
        <path d="M262.705 253.239C262.037 255.736 262.372 258.395 263.64 260.648C264.445 261.984 265.599 263.077 266.978 263.809C268.118 264.355 269.36 264.66 270.624 264.702C271.888 264.744 273.147 264.524 274.321 264.056" stroke="black" stroke-miterlimit="10"/>
        <path d="M234.127 519.095C233.56 519.382 232.398 519.956 232.338 520.883C232.354 521.161 232.428 521.433 232.557 521.68C232.686 521.927 232.866 522.144 233.086 522.316C231.672 524.456 230.11 526.495 228.413 528.418C227.291 529.685 226.297 530.679 224.581 532.746C223.62 533.83 222.728 534.972 221.911 536.167C220.669 538.321 221.457 541.783 222.979 543.923C226.176 548.425 232.899 547.484 233.954 547.331C234.621 547.238 239.962 546.417 243.006 541.996C243.8 540.862 243.673 540.562 245.082 536.368C245.082 536.368 249.514 523.03 248.767 520.463C248.767 520.396 248.56 519.796 248.333 518.909C248.179 518.342 248.066 517.868 247.986 517.528C247.785 518.615 247.585 519.702 247.392 520.789C245.829 520.276 237.278 517.535 234.127 519.095Z" fill="black"/>
        <path d="M235.382 523.77C234.018 526.253 232.401 528.588 230.556 530.739C228.399 533.246 226.757 534.52 227.144 535.774C227.492 536.881 229.201 537.254 231.297 537.701C234.201 538.321 236.637 538.848 238.273 537.554C239.661 536.441 239.314 534.887 240.315 530.499C240.775 528.456 241.384 526.45 242.138 524.497L235.382 523.77Z" fill="white"/>
        <path d="M278.954 523.097C278.903 523.271 278.817 523.433 278.703 523.574C278.588 523.715 278.447 523.831 278.286 523.917C277.815 524.183 277.299 524.362 276.764 524.444C276.927 528.992 277.895 533.476 279.621 537.688C280.209 539.088 280.843 540.355 280.516 541.909C279.848 545.297 275.289 547.571 271.597 548.004C266.357 548.618 260.302 545.83 259.334 541.909C258.96 540.415 259.441 539.242 259.908 537.855C261.42 533.115 262.128 528.156 262.005 523.183C261.75 523.044 261.513 522.877 261.297 522.683C261.011 522.438 260.826 522.096 260.776 521.723C260.789 521.495 260.849 521.273 260.952 521.07C261.056 520.866 261.2 520.687 261.377 520.543C263.206 518.775 276.317 519.382 278.366 521.656C278.547 521.87 279.094 522.477 278.954 523.097Z" fill="black"/>
        <path d="M273.834 524.617C274.071 527.218 274.506 529.798 275.135 532.333C275.616 534.253 276.063 535.541 275.382 536.714C274.595 538.048 272.832 538.375 271.644 538.581C271.397 538.621 265.896 539.528 264.408 536.954C263.633 535.621 264.555 534.367 265.469 530.219C265.919 528.161 266.216 526.072 266.357 523.97L273.834 524.617Z" fill="white"/>
        <path d="M265.009 457.536C266.39 458.96 268.252 459.821 270.233 459.951C272.214 460.082 274.173 459.473 275.73 458.243" stroke="black" stroke-miterlimit="10"/>
        <path d="M241.464 459.077C239.977 460.33 238.066 460.968 236.123 460.857C234.904 460.755 233.731 460.347 232.712 459.67" stroke="black" stroke-miterlimit="10"/>
        <path d="M249.474 525.991C249.608 521.636 249.214 520.549 248.807 520.462C247.806 520.262 245.369 525.237 246.53 526.364C247.071 526.911 248.4 526.471 249.474 525.991Z" fill="black"/>
    </g>
    <defs>
        <clipPath id="clip0_329_2">
            <rect width="562" height="662" fill="white"/>
        </clipPath>
    </defs>
</svg>
