<svg width="669" height="435" viewBox="0 0 669 435" fill="none" xmlns="http://www.w3.org/2000/svg">
<g clip-path="url(#clip0_388_5413)">
<path d="M119.895 211.311C115.527 179.753 135.564 140.264 164.032 130.44C208.738 115.01 238.025 185.221 316.873 193.335C392.65 201.137 435.343 143.48 458.809 163.119C483.259 183.576 466.358 270.805 413.725 309.816C322.611 377.343 131.49 295.067 119.895 211.311Z" stroke="#666666" stroke-miterlimit="10"/>
<path d="M317.691 150.042C401.817 162.32 446.69 83.4986 490.155 106.749C529.372 127.72 537.712 215.887 506.219 274.794C456.013 368.714 299.632 397.478 199.056 339.168C137.007 303.19 73.0368 220.721 96.0338 150.933C105.385 122.564 130.525 87.2388 166.404 80.3465C222.356 69.6036 243.422 139.216 317.691 150.051V150.042Z" stroke="#666666" stroke-miterlimit="10"/>
<path d="M390.866 89.0767C469.613 82.2855 494.44 55.2398 525.299 75.7056C576.378 109.579 578.106 229.92 526.522 306.499C461.714 402.725 319.53 420.011 219.524 385.623C144.271 359.744 36.1736 286.364 38.6563 182.877C39.6218 142.745 57.5155 85.1343 102.93 57.6476C174.716 14.1981 239.891 102.09 390.866 89.0767Z" stroke="#666666" stroke-miterlimit="10"/>
<path d="M516.306 22.616C582.722 37.1451 647.162 205.071 585.619 318.592C517.933 443.455 331.833 440.008 242.025 421.252C196.316 411.704 84.9997 388.481 31.2174 287.623C-10.6112 209.169 -14.8501 88.9481 50.4168 33.2303C118.047 -24.5001 234.816 8.77618 283.357 22.6069C327.429 35.1693 339.18 56.3427 379.896 58.7688C451.03 63.0053 476.703 13.95 516.297 22.6069L516.306 22.616Z" stroke="#666666" stroke-miterlimit="10"/>
<path d="M235.556 120.547C308.28 165.522 370.862 173.315 388.894 150.202C405.638 128.744 382.025 83.0982 375.11 70.4714C328.592 87.1601 282.074 103.858 235.565 120.547H235.556Z" fill="black"/>
<path d="M235.924 63H360.187C368.416 63 375.101 69.681 375.101 77.9059V104.979H221.009V77.9059C221.009 69.681 227.694 63 235.924 63Z" fill="#E6E6E6"/>
<path d="M221 104.979V107.644C221 114.775 226.784 120.547 233.91 120.547H362.191C369.317 120.547 375.101 114.775 375.101 107.644V104.979H221ZM234.057 114.178C233.487 113.47 233.073 112.634 232.862 111.724H363.258C363.037 112.634 362.623 113.48 362.053 114.178H234.057Z" fill="#CCCCCC"/>
<path d="M240.586 96.3223H355.525C359.883 96.3223 363.423 99.8603 363.423 104.216V105.126H232.687V104.216C232.687 99.8603 236.227 96.3223 240.586 96.3223Z" fill="#B3B3B3"/>
<path d="M234.057 114.178H362.044C360.895 115.621 359.12 116.549 357.134 116.549H238.967C236.981 116.549 235.206 115.621 234.048 114.178H234.057Z" fill="#333333"/>
<path d="M363.423 105.282V110.272C363.423 110.778 363.359 111.265 363.248 111.724H232.862C232.751 111.256 232.687 110.769 232.687 110.272V105.282H363.423Z" fill="#333333"/>
<path d="M307.554 90.0364H288.566C287.885 90.0364 287.334 90.5857 287.334 91.2632C287.334 91.9408 287.885 92.4901 288.566 92.4901H307.554C308.234 92.4901 308.786 91.9408 308.786 91.2632C308.786 90.5857 308.234 90.0364 307.554 90.0364Z" fill="#B3B3B3"/>
<path d="M363.423 107.644H232.687V110.098H363.423V107.644Z" fill="#808080"/>
<path d="M363.248 111.724C363.028 112.634 362.614 113.48 362.044 114.178H234.057C233.487 113.47 233.073 112.634 232.862 111.724H363.258H363.248Z" fill="#808080"/>
<path d="M235.574 142.124C235.639 142.611 235.832 143.016 236.034 143.411C236.558 144.413 237.183 145.341 237.799 146.287C238.416 147.234 239.041 148.18 239.565 149.182C239.997 150 240.337 150.845 240.475 151.764C240.668 153.023 240.484 154.227 239.758 155.302C238.93 156.516 237.781 157.26 236.31 157.462C235.179 157.618 234.075 157.48 233.073 156.911C231.676 156.102 230.82 154.907 230.59 153.29C230.462 152.353 230.618 151.452 230.94 150.57C231.289 149.586 231.813 148.695 232.374 147.822C233.073 146.719 233.781 145.616 234.471 144.514C234.875 143.852 235.225 143.163 235.473 142.428C235.501 142.345 235.528 142.253 235.565 142.133L235.574 142.124Z" fill="#7481F4"/>
<path d="M231.584 152.463C231.197 152.748 231.694 154.485 232.926 155.495C234.011 156.387 235.648 156.681 235.878 156.277C236.301 155.532 232.255 151.967 231.584 152.472V152.463Z" fill="#ACB3F8"/>
<path d="M244.604 129.461C244.659 129.856 244.815 130.187 244.981 130.518C245.413 131.336 245.928 132.108 246.434 132.879C246.939 133.661 247.454 134.433 247.887 135.26C248.236 135.93 248.521 136.629 248.641 137.382C248.797 138.421 248.65 139.413 248.052 140.286C247.372 141.279 246.425 141.895 245.22 142.06C244.291 142.189 243.381 142.078 242.563 141.601C241.413 140.939 240.705 139.956 240.521 138.623C240.411 137.851 240.549 137.107 240.806 136.381C241.101 135.572 241.524 134.837 241.983 134.12C242.563 133.21 243.142 132.31 243.703 131.4C244.034 130.858 244.319 130.288 244.53 129.691C244.558 129.617 244.576 129.544 244.613 129.452L244.604 129.461Z" fill="#7481F4"/>
<path d="M241.321 137.952C241.009 138.191 241.413 139.616 242.425 140.443C243.317 141.178 244.659 141.417 244.852 141.086C245.202 140.48 241.882 137.539 241.321 137.962V137.952Z" fill="#ACB3F8"/>
<path d="M228.862 125.399C228.908 125.748 229.046 126.042 229.193 126.327C229.57 127.053 230.03 127.733 230.471 128.413C230.921 129.102 231.372 129.792 231.749 130.518C232.062 131.106 232.31 131.722 232.411 132.392C232.549 133.311 232.42 134.184 231.887 134.956C231.289 135.829 230.453 136.372 229.395 136.519C228.577 136.629 227.777 136.537 227.05 136.114C226.039 135.535 225.414 134.662 225.248 133.495C225.156 132.815 225.266 132.163 225.496 131.519C225.754 130.812 226.131 130.159 226.535 129.525C227.041 128.726 227.556 127.926 228.053 127.127C228.347 126.649 228.595 126.152 228.779 125.619C228.797 125.555 228.825 125.491 228.853 125.408L228.862 125.399Z" fill="#7481F4"/>
<path d="M225.975 132.889C225.699 133.1 226.057 134.359 226.949 135.085C227.74 135.728 228.926 135.94 229.092 135.646C229.395 135.103 226.471 132.521 225.984 132.889H225.975Z" fill="#ACB3F8"/>
<path d="M238.181 415.398C238.227 418.1 307.715 420.673 307.954 417.962C308.082 416.538 289.159 413.147 272.028 412.651C256.452 412.2 238.154 414.011 238.181 415.398Z" fill="black"/>
<path d="M226.825 348.496C225.998 348.506 226.329 342.008 224.067 329.005C218.853 299.083 208.977 286.842 201.29 252.95C200.187 248.07 199.028 242.345 199.028 234.901C199.028 224.186 201.419 219.784 203.589 207.938C207.148 188.538 205.327 175.406 207.35 175.222C209.382 175.039 209.768 183.796 217.888 196.662C221.97 203.123 223.506 203.748 225.786 207.947C232.085 219.517 229.372 232.319 228.416 237.658C221.612 275.639 229.62 348.478 226.816 348.515L226.825 348.496Z" fill="#20380B"/>
<path d="M254.392 267.35C248.654 281.696 245.454 283.506 240.627 294.662C227.202 325.66 234.319 352.209 232.572 352.347C230.089 352.54 211.957 299.478 235.579 254.2C244.084 237.888 258.337 221.98 262.668 224.112C267.403 226.437 261.105 250.588 254.392 267.359V267.35Z" fill="#2A4B0F"/>
<path d="M230.053 346.135C231.883 347.118 237.85 332.837 254.015 314.742C277.932 287.963 293.894 282.89 299.172 262.222C301.379 253.556 300.653 245.883 299.807 241.049C294.933 246.986 287.044 256.552 277.095 268.233C257.114 291.722 250.972 297.465 243.818 310.258C234.724 326.514 227.993 345.032 230.053 346.135Z" fill="#386414"/>
<path d="M224.949 350.748C219.892 318.648 207.837 300.626 197.713 290.095C188.564 280.574 182.293 277.266 175.139 266.744C162.413 248.024 161.797 226.391 163.167 211.32C165.613 220.289 170.146 233.375 179.075 247.178C195.065 271.881 213.299 274.969 220.499 295.232C224.085 305.332 229.225 324.75 224.94 350.757L224.949 350.748Z" fill="#20380B"/>
<path d="M229.188 347.835C228.067 330.549 229.639 307.335 243.864 288.046C254.19 274.05 263.937 273.719 274.594 257.71C290.759 233.431 285.95 209.17 289.646 209.078C293.904 208.967 307.402 241.986 294.161 267.24C283.715 287.164 265.095 286.116 246.622 310.111C236.03 323.868 231.423 338.149 229.188 347.844V347.835Z" fill="#556F3F"/>
<path d="M277.067 316.102C271.164 319.953 264.396 323.914 256.764 327.663C244.93 333.471 233.832 337.395 224.241 340.097C232.287 322.949 246.76 311.765 261.767 311.93C265.242 311.967 270.704 312.638 277.067 316.102Z" fill="#2A4B0F"/>
<path d="M224.949 350.748C225.979 350.766 233.142 318.648 220.821 283.92C214.954 267.378 205.86 253.63 204.886 252.178C194.872 237.208 189.971 236.123 182.698 224.066C169.374 201.992 171.719 182.703 169.402 182.813C166.045 182.979 154.873 223.919 174.339 253.097C186.799 271.771 200.012 267.92 213.419 287.219C232.986 315.386 223.69 350.72 224.949 350.748Z" fill="#2A4B0F"/>
<path d="M249.004 255.698C252.066 252.647 261.187 244.67 264.056 231.63C265.344 225.785 264.268 223.919 263.55 207.561C262.64 186.728 263.964 180.617 261.04 179.486C257.04 177.943 248.903 187.169 244.48 196.037C239.698 205.632 240.728 211.881 238.577 223.046C235.57 238.632 229.427 247.84 226.421 254.209C219.883 268.03 216.398 293.293 229.427 343.46C228.563 288.128 238.926 265.742 248.995 255.716L249.004 255.698Z" fill="#386414"/>
<path d="M220.756 344.848C220.416 344.581 220.462 343.846 222.062 339.619C224.361 333.554 226.586 327.672 229.418 323.39C234.053 316.387 239.257 315.266 251.496 307.85C265.298 299.478 263.992 297.677 273.435 292.199C293.83 280.363 315.236 279.867 315.963 282.026C316.616 283.975 301.793 287.366 289.49 302.722C285.251 308.015 286.079 308.548 282.971 311.746C273.702 321.276 261.261 318.197 248.351 322.278C230.77 327.838 222.641 346.318 220.756 344.839V344.848Z" fill="#386414"/>
<path d="M226.54 344.682C225.556 345.059 223.772 337.68 216.95 331.008C210.191 324.401 204.711 324.575 192.077 318.822C185.162 315.679 168.804 307.436 169.668 304.835C170.855 301.261 206.568 302.17 220.527 323.004C226.752 332.295 227.763 344.214 226.549 344.682H226.54Z" fill="#386414"/>
<path d="M226.54 344.683C229.032 344.131 230.273 306.958 211.865 297.438C203.911 293.321 199.847 298.274 186.284 295.37C164.786 290.766 154.892 274.031 152.041 276.375C149.531 278.442 155.627 292.696 166.34 301.95C168.786 304.054 175.268 309.531 185.089 311.581C195.626 313.777 198.835 309.715 205.557 311.562C221.667 316.001 224.306 345.179 226.54 344.683Z" fill="#556F3F"/>
<path d="M216.462 331.89C213.051 336.338 200.858 353.339 202.366 377.509C203.543 396.449 212.508 409.508 216.343 414.498C220.995 415.582 227.156 416.547 234.411 416.409C240.305 416.299 245.399 415.481 249.454 414.544C253.344 409.333 261.84 396.476 263.128 378.023C264.81 353.826 252.93 336.596 249.454 331.89H216.471H216.462Z" fill="#E6E6E6"/>
<path d="M242.429 331.89C244.995 341.383 247.385 353.946 247.569 368.778C247.818 388.656 243.992 404.959 240.434 416.042C242.144 415.904 243.992 415.683 245.969 415.316C247.192 415.086 248.351 414.828 249.445 414.553C252.939 409.912 263.413 394.776 263.275 372.794C263.137 351.345 252.976 336.596 249.445 331.9H242.429V331.89Z" fill="#CCCCCC"/>
<path d="M534.613 379.925C547.532 380.174 566.824 380.412 590.363 380.164C616.606 379.889 638.04 379.659 638.104 378.124C638.178 376.387 611.025 373.097 584.846 372.371C570.263 371.967 558.19 372.325 549.942 372.73C544.829 375.128 539.726 377.527 534.613 379.925Z" fill="black"/>
<path d="M544.599 379.806L449.255 379.935C444.474 379.935 442.147 374.862 444.051 368.585L510.191 151.081C512.095 144.813 517.529 139.667 522.338 139.593L618.059 138.013C622.923 137.93 625.314 142.984 623.392 149.298L556.838 368.365C554.916 374.687 549.436 379.815 544.59 379.815L544.599 379.806Z" fill="#000B06"/>
<path d="M534.613 379.925L419.389 380.1C413.78 380.1 410.774 375.036 412.686 368.769L478.771 151.512C480.675 145.254 486.78 140.099 492.417 140.007L608.119 138.003C613.848 137.902 616.937 142.948 615.015 149.261L548.415 368.475C546.493 374.797 540.314 379.935 534.613 379.935V379.925Z" fill="#4D4D4D"/>
<path d="M527.754 368.594H432.713C427.647 368.594 425.017 363.659 426.837 357.576L484.61 164.167C486.459 157.973 492.15 152.771 497.336 152.551L594.584 148.342C599.981 148.112 602.804 153.056 600.883 159.397L540.737 357.337C538.843 363.558 533.032 368.594 527.754 368.594Z" fill="#999999"/>
<path d="M536.314 150.86C545.721 193.161 555.183 235.691 564.7 278.461C558.971 297.327 553.243 316.157 547.532 334.95C532.949 273.553 518.494 212.652 504.15 152.248C514.825 151.788 525.547 151.32 536.314 150.851V150.86Z" fill="#E6E6E6"/>
<path d="M544.783 150.364L570.116 260.66C571.127 257.37 572.148 254.089 573.159 250.799C565.261 217.146 557.399 183.649 549.574 150.29C547.974 150.318 546.383 150.336 544.783 150.364Z" fill="#E6E6E6"/>
<path d="M483.24 168.78C497.953 234.818 512.793 301.417 527.754 368.594C522.595 368.594 517.446 368.594 512.315 368.594C499.7 311.204 487.176 254.227 474.735 197.664C477.567 188.042 480.399 178.42 483.24 168.78Z" fill="#E6E6E6"/>
<path d="M456.354 353.753L521.915 353.376C524.802 353.358 527.781 351.226 528.572 348.616L534.503 329.078C535.294 326.468 533.602 324.364 530.715 324.391L465.107 324.924C462.257 324.952 459.296 327.075 458.515 329.666L452.611 349.084C451.821 351.676 453.494 353.771 456.344 353.753H456.354Z" fill="#B9D0FC"/>
<path d="M518.2 353.395C517.842 354.056 517.474 354.837 517.189 355.72C516.527 357.732 516.554 359.368 516.692 360.443C514.89 359.837 512.214 358.614 510.256 356.069C509.566 355.177 509.088 354.277 508.748 353.45L518.2 353.395Z" fill="#B9D0FC"/>
<path d="M501.63 333.921L524.122 333.756C524.701 333.756 525.289 333.324 525.446 332.809L525.676 332.065C525.832 331.541 525.492 331.127 524.922 331.127L502.43 331.302C501.86 331.302 501.262 331.734 501.106 332.249L500.876 332.993C500.72 333.517 501.051 333.93 501.63 333.93V333.921Z" fill="white"/>
<path d="M485.714 334.041L497.244 333.958C497.814 333.958 498.412 333.526 498.568 333.012L498.798 332.267C498.955 331.743 498.624 331.33 498.044 331.33L486.514 331.413C485.943 331.413 485.355 331.844 485.189 332.359L484.96 333.103C484.803 333.618 485.134 334.041 485.704 334.032L485.714 334.041Z" fill="white"/>
<path d="M483.599 339.913L522.66 339.647C523.055 339.647 523.46 339.353 523.57 338.994L523.726 338.479C523.837 338.121 523.607 337.836 523.212 337.836L484.151 338.112C483.755 338.112 483.351 338.406 483.24 338.764L483.084 339.279C482.974 339.637 483.204 339.922 483.599 339.922V339.913Z" fill="white"/>
<path d="M482.541 343.423L521.593 343.166C521.988 343.166 522.393 342.872 522.503 342.514L522.66 341.999C522.77 341.641 522.54 341.356 522.145 341.356L483.093 341.622C482.698 341.622 482.293 341.916 482.183 342.275L482.026 342.789C481.916 343.148 482.146 343.433 482.541 343.433V343.423Z" fill="white"/>
<path d="M490.091 346.888L520.527 346.695C520.922 346.695 521.326 346.401 521.437 346.043L521.593 345.528C521.703 345.17 521.474 344.885 521.078 344.885L490.642 345.078C490.247 345.078 489.842 345.372 489.732 345.73L489.576 346.245C489.465 346.603 489.695 346.888 490.091 346.888Z" fill="white"/>
<path d="M468.988 344.949C467.011 344.958 465.034 344.977 463.066 344.986C462.469 344.986 462.34 344.83 462.505 344.287C463.6 340.685 464.694 337.073 465.788 333.471C465.944 332.947 466.183 332.773 466.744 332.773C470.726 332.745 474.707 332.708 478.689 332.681C479.194 332.681 479.369 332.892 479.231 333.352C478.137 336.972 477.034 340.593 475.93 344.214C475.774 344.729 475.535 344.903 474.965 344.903C472.969 344.921 470.983 344.931 468.988 344.94V344.949ZM469.475 343.277C470.937 343.267 472.408 343.249 473.87 343.258C474.22 343.258 474.358 343.157 474.422 342.854C474.477 342.578 474.588 342.302 474.67 342.027C475.029 340.823 474.413 339.968 473.098 339.95C471.406 339.941 469.705 339.95 468.004 339.987C466.56 340.014 465.31 340.951 465.052 342.155C464.997 342.422 464.914 342.688 464.813 342.946C464.694 343.249 464.804 343.322 465.117 343.322C466.57 343.295 468.022 343.295 469.466 343.286L469.475 343.277ZM474.091 336.789C474.542 335.575 473.742 334.362 472.179 334.408C470.441 334.463 469.172 335.621 468.795 336.853C468.344 338.314 469.402 339.251 470.753 339.251C472.05 339.251 473.834 338.084 474.091 336.789Z" fill="white"/>
<path d="M469.475 343.286C468.022 343.295 466.579 343.295 465.126 343.322C464.804 343.322 464.694 343.258 464.822 342.946C464.923 342.688 465.006 342.413 465.061 342.155C465.319 340.952 466.579 340.014 468.013 339.987C469.714 339.95 471.415 339.941 473.107 339.95C474.413 339.959 475.038 340.823 474.679 342.027C474.597 342.302 474.496 342.587 474.431 342.854C474.367 343.157 474.229 343.267 473.879 343.258C472.417 343.258 470.946 343.267 469.484 343.277L469.475 343.286Z" fill="#8B9CBD"/>
<path d="M474.091 336.798C473.843 338.093 472.05 339.261 470.753 339.261C469.402 339.261 468.344 338.323 468.795 336.862C469.172 335.631 470.441 334.473 472.178 334.418C473.742 334.372 474.542 335.585 474.091 336.798Z" fill="#8B9CBD"/>
<path d="M469.273 311.232L534.898 310.625C537.786 310.597 540.774 308.456 541.565 305.846L547.496 286.309C548.286 283.699 546.585 281.604 543.698 281.64L478.027 282.394C475.167 282.431 472.215 284.554 471.424 287.154L465.521 306.572C464.73 309.164 466.404 311.25 469.264 311.222L469.273 311.232Z" fill="#B9D0FC"/>
<path d="M531.183 310.662C530.825 311.324 530.457 312.105 530.172 312.987C529.51 314.999 529.537 316.635 529.675 317.701C527.873 317.104 525.197 315.891 523.23 313.355C522.54 312.463 522.062 311.562 521.722 310.745L531.183 310.662Z" fill="#B9D0FC"/>
<path d="M514.595 291.271L537.114 291.032C537.694 291.032 538.282 290.6 538.448 290.077L538.677 289.332C538.834 288.808 538.494 288.395 537.923 288.404L515.405 288.652C514.835 288.652 514.237 289.084 514.081 289.608L513.851 290.352C513.694 290.876 514.025 291.29 514.605 291.28L514.595 291.271Z" fill="white"/>
<path d="M498.651 291.437L510.2 291.308C510.77 291.308 511.368 290.876 511.524 290.352L511.754 289.608C511.91 289.084 511.579 288.671 511 288.68L499.451 288.808C498.881 288.808 498.283 289.24 498.127 289.764L497.897 290.509C497.741 291.023 498.072 291.446 498.651 291.437Z" fill="white"/>
<path d="M496.545 297.309L535.652 296.905C536.048 296.905 536.452 296.611 536.563 296.252L536.719 295.738C536.829 295.379 536.599 295.094 536.204 295.094L497.097 295.499C496.702 295.499 496.297 295.793 496.187 296.151L496.031 296.666C495.92 297.024 496.15 297.309 496.545 297.3V297.309Z" fill="white"/>
<path d="M495.479 300.829L534.567 300.433C534.963 300.433 535.367 300.139 535.478 299.781L535.634 299.266C535.744 298.908 535.515 298.623 535.119 298.623L496.021 299.018C495.626 299.018 495.222 299.312 495.111 299.671L494.955 300.185C494.845 300.544 495.074 300.829 495.47 300.819L495.479 300.829Z" fill="white"/>
<path d="M503.037 304.257L533.501 303.962C533.896 303.962 534.301 303.668 534.411 303.31L534.567 302.795C534.678 302.437 534.448 302.152 534.052 302.152L503.58 302.455C503.184 302.455 502.78 302.749 502.67 303.108L502.513 303.622C502.403 303.981 502.633 304.266 503.028 304.257H503.037Z" fill="white"/>
<path d="M481.916 302.4C479.939 302.418 477.962 302.437 475.985 302.455C475.388 302.455 475.259 302.299 475.415 301.757C476.509 298.154 477.604 294.543 478.698 290.94C478.854 290.417 479.093 290.242 479.654 290.242C483.636 290.196 487.626 290.15 491.608 290.113C492.113 290.113 492.288 290.315 492.15 290.775C491.056 294.396 489.953 298.017 488.849 301.637C488.693 302.152 488.454 302.327 487.884 302.327C485.888 302.345 483.893 302.363 481.907 302.391L481.916 302.4ZM482.403 300.728C483.875 300.709 485.346 300.691 486.808 300.691C487.166 300.691 487.295 300.59 487.369 300.277C487.424 300.002 487.534 299.726 487.617 299.45C487.976 298.246 487.36 297.392 486.045 297.382C484.353 297.382 482.652 297.392 480.951 297.438C479.507 297.474 478.256 298.412 477.99 299.616C477.935 299.882 477.852 300.149 477.751 300.406C477.631 300.709 477.742 300.783 478.054 300.773C479.507 300.746 480.96 300.737 482.413 300.728H482.403ZM487.019 294.23C487.47 293.017 486.67 291.804 485.107 291.859C483.369 291.914 482.1 293.082 481.723 294.313C481.272 295.774 482.33 296.712 483.682 296.702C484.978 296.702 486.771 295.526 487.019 294.23Z" fill="white"/>
<path d="M482.403 300.728C480.951 300.746 479.498 300.746 478.045 300.774C477.723 300.774 477.613 300.709 477.742 300.406C477.843 300.14 477.925 299.873 477.981 299.616C478.238 298.412 479.498 297.474 480.941 297.438C482.652 297.401 484.344 297.383 486.036 297.383C487.341 297.383 487.966 298.246 487.608 299.45C487.525 299.726 487.424 300.011 487.36 300.277C487.295 300.581 487.157 300.691 486.799 300.691C485.337 300.691 483.865 300.709 482.394 300.728H482.403Z" fill="#8B9CBD"/>
<path d="M487.019 294.23C486.771 295.526 484.978 296.693 483.681 296.703C482.321 296.703 481.263 295.774 481.723 294.313C482.1 293.082 483.369 291.924 485.107 291.859C486.67 291.804 487.47 293.017 487.019 294.23Z" fill="#8B9CBD"/>
<path d="M583.458 155.299C584.212 155.271 584.901 155.501 585.435 155.951C585.573 156.071 585.646 156.218 585.435 156.411C585.232 156.585 585.076 156.521 584.938 156.411C583.844 155.602 582.621 155.657 581.058 156.585C580.855 156.705 580.662 156.778 580.552 156.613C580.432 156.429 580.616 156.282 580.819 156.144C581.637 155.62 582.474 155.326 583.458 155.29V155.299Z" fill="#5D687E"/>
<path d="M583.044 156.392C583.605 156.365 584.065 156.512 584.423 156.806C584.57 156.925 584.626 157.082 584.414 157.275C584.212 157.458 584.065 157.385 583.927 157.275C583.32 156.806 582.52 156.843 581.628 157.376C581.407 157.504 581.214 157.587 581.104 157.403C580.993 157.21 581.196 157.063 581.389 156.935C581.867 156.622 582.474 156.429 583.035 156.402L583.044 156.392Z" fill="#5D687E"/>
<path d="M582.741 157.477C582.823 157.477 583.237 157.458 583.43 157.706C583.476 157.762 583.568 157.881 583.495 158C583.43 158.102 583.274 158.166 583.164 158.166C583.072 158.166 583.072 158.111 582.934 158.037C582.833 157.982 582.75 157.936 582.621 157.936C582.474 157.936 582.327 158 582.216 158.056C582.005 158.157 581.968 158.23 581.867 158.23C581.757 158.23 581.656 158.166 581.656 158.074C581.656 157.954 581.803 157.844 581.876 157.78C582.216 157.504 582.63 157.477 582.741 157.477Z" fill="#5D687E"/>
<path d="M582.722 158.819C582.676 158.993 582.465 159.149 582.262 159.159C582.069 159.159 581.941 159.021 581.996 158.846C582.042 158.681 582.235 158.534 582.419 158.515C582.621 158.488 582.777 158.635 582.722 158.819Z" fill="#5D687E"/>
<path d="M577.499 157.449C577.628 156.981 577.766 156.503 577.895 156.034C577.968 155.767 578.115 155.556 578.456 155.519C578.75 155.492 578.86 155.657 578.768 155.997C578.511 156.953 578.244 157.909 577.968 158.864C577.876 159.177 577.674 159.351 577.398 159.37C577.132 159.379 577.012 159.214 577.104 158.901C577.233 158.414 577.371 157.936 577.509 157.449H577.499Z" fill="#5D687E"/>
<path d="M577.067 157.991C576.975 158.313 576.883 158.635 576.8 158.956C576.727 159.223 576.552 159.407 576.249 159.416C575.954 159.416 575.872 159.25 575.945 158.984C576.12 158.35 576.304 157.716 576.469 157.082C576.543 156.815 576.708 156.64 577.021 156.604C577.297 156.576 577.407 156.732 577.324 157.054C577.242 157.366 577.15 157.679 577.067 157.991Z" fill="#5D687E"/>
<path d="M575.78 158.552C575.734 158.727 575.688 158.892 575.633 159.067C575.55 159.315 575.366 159.453 575.099 159.462C574.851 159.462 574.732 159.342 574.787 159.122C574.869 158.773 574.971 158.414 575.081 158.056C575.164 157.808 575.366 157.679 575.623 157.679C575.863 157.679 575.973 157.808 575.918 158.037C575.872 158.212 575.826 158.377 575.78 158.552Z" fill="#5D687E"/>
<path d="M574.18 158.754C574.437 158.763 574.566 158.883 574.492 159.122C574.419 159.37 574.217 159.498 573.959 159.508C573.702 159.508 573.582 159.388 573.656 159.14C573.729 158.892 573.922 158.772 574.18 158.745V158.754Z" fill="#5D687E"/>
<path d="M592.11 158.589L586.924 158.818C586.391 158.846 586.078 158.469 586.207 157.991L586.584 156.631C586.722 156.153 587.255 155.74 587.789 155.721L592.975 155.492C593.508 155.464 593.83 155.841 593.692 156.319L593.315 157.679C593.177 158.157 592.644 158.57 592.11 158.589Z" fill="#5D687E"/>
<path d="M593.315 157.826L592.901 157.844L593.361 156.19L593.775 156.172C594.041 156.163 594.207 156.346 594.142 156.594L593.931 157.357C593.867 157.605 593.591 157.808 593.315 157.826Z" fill="#5D687E"/>
<path d="M494.182 156.521L493.254 159.875L492.408 159.912L493.162 157.183L492.426 157.219L492.601 156.595L494.182 156.521Z" fill="#5D687E"/>
<path d="M494.164 159.682C493.962 159.554 493.833 159.361 493.769 159.113C493.704 158.864 493.723 158.552 493.824 158.194C493.925 157.835 494.081 157.523 494.283 157.256C494.486 156.99 494.734 156.788 495.01 156.631C495.286 156.484 495.571 156.402 495.874 156.392C496.178 156.383 496.426 156.438 496.628 156.567C496.83 156.696 496.959 156.889 497.024 157.137C497.088 157.385 497.07 157.697 496.968 158.056C496.867 158.414 496.711 158.727 496.509 158.993C496.306 159.26 496.058 159.462 495.782 159.618C495.506 159.774 495.221 159.848 494.918 159.857C494.614 159.866 494.366 159.811 494.164 159.682ZM495.7 158.91C495.874 158.727 496.012 158.451 496.113 158.083C496.214 157.716 496.224 157.449 496.15 157.275C496.067 157.1 495.92 157.026 495.7 157.036C495.479 157.045 495.286 157.137 495.102 157.321C494.927 157.504 494.789 157.78 494.688 158.148C494.587 158.515 494.578 158.782 494.651 158.956C494.734 159.131 494.881 159.204 495.102 159.195C495.322 159.186 495.525 159.094 495.7 158.91Z" fill="#5D687E"/>
<path d="M497.98 157.872C497.906 157.789 497.888 157.679 497.925 157.541C497.962 157.403 498.044 157.293 498.164 157.201C498.283 157.109 498.412 157.063 498.559 157.054C498.706 157.045 498.807 157.082 498.881 157.164C498.955 157.247 498.973 157.357 498.936 157.495C498.899 157.633 498.817 157.743 498.697 157.835C498.578 157.927 498.44 157.982 498.302 157.982C498.164 157.982 498.054 157.946 497.98 157.863V157.872ZM497.502 159.591C497.428 159.508 497.41 159.398 497.447 159.26C497.483 159.122 497.566 159.012 497.686 158.92C497.805 158.828 497.934 158.782 498.081 158.773C498.228 158.763 498.329 158.8 498.403 158.883C498.477 158.966 498.495 159.076 498.458 159.205C498.421 159.333 498.339 159.453 498.219 159.545C498.099 159.636 497.962 159.692 497.824 159.692C497.686 159.692 497.575 159.655 497.502 159.572V159.591Z" fill="#5D687E"/>
<path d="M502.715 158.754L502.118 158.782L501.925 159.489L501.097 159.526L501.29 158.818L499.313 158.901L499.46 158.377L501.778 156.172L502.669 156.135L500.509 158.221L501.492 158.175L501.667 157.55L502.467 157.513L502.292 158.138L502.89 158.111L502.715 158.745V158.754Z" fill="#5D687E"/>
<path d="M503.046 159.296C502.844 159.168 502.715 158.975 502.651 158.727C502.587 158.478 502.605 158.166 502.706 157.808C502.807 157.449 502.964 157.137 503.166 156.87C503.368 156.604 503.617 156.402 503.892 156.245C504.168 156.098 504.453 156.016 504.766 156.006C505.079 155.997 505.318 156.052 505.52 156.181C505.722 156.31 505.851 156.503 505.915 156.751C505.98 156.999 505.961 157.311 505.86 157.679C505.759 158.046 505.603 158.35 505.4 158.616C505.198 158.883 504.95 159.094 504.674 159.241C504.398 159.388 504.113 159.471 503.8 159.48C503.488 159.489 503.249 159.434 503.046 159.306V159.296ZM504.582 158.524C504.757 158.341 504.895 158.065 504.996 157.697C505.097 157.33 505.106 157.063 505.033 156.889C504.95 156.714 504.803 156.64 504.582 156.65C504.361 156.659 504.168 156.751 503.984 156.935C503.81 157.118 503.672 157.394 503.571 157.762C503.469 158.129 503.46 158.396 503.534 158.57C503.617 158.745 503.764 158.818 503.984 158.809C504.205 158.8 504.407 158.708 504.582 158.524Z" fill="#5D687E"/>
<path d="M534.807 192.141H535.588L539.643 192.067C540.131 192.067 540.131 192.067 540.112 192.462C539.956 195.118 539.79 197.783 539.634 200.448C539.56 201.634 539.487 202.828 539.413 204.014C539.413 204.133 539.395 204.244 539.469 204.335C539.606 204.289 539.643 204.179 539.698 204.096C541.97 200.439 544.241 196.772 546.512 193.105C546.696 192.811 546.889 192.517 547.064 192.223C547.192 192.003 547.349 191.938 547.606 191.929C548.976 191.92 550.346 191.892 551.726 191.865C551.956 191.865 552.038 191.92 552.029 192.131C551.992 193.124 551.983 194.107 551.965 195.1C551.9 198.086 551.836 201.082 551.762 204.087C551.762 204.152 551.762 204.216 551.864 204.262C552.139 203.995 552.259 203.674 552.424 203.38C554.199 200.365 555.974 197.333 557.739 194.309C558.171 193.565 558.622 192.821 559.054 192.076C559.174 191.874 559.284 191.755 559.569 191.745C561.353 191.727 563.146 191.699 564.939 191.672C564.994 191.672 565.04 191.69 565.114 191.709C564.93 192.196 564.571 192.637 564.277 193.096C561.362 197.553 558.438 202.001 555.523 206.44C554.622 207.809 553.712 209.178 552.829 210.548C552.664 210.814 552.498 210.897 552.195 210.897C550.76 210.897 549.317 210.897 547.882 210.906C547.551 210.906 547.441 210.823 547.441 210.548C547.413 208.269 547.367 205.999 547.33 203.72C547.303 202.415 547.294 201.11 547.266 199.805C547.266 199.704 547.312 199.566 547.156 199.474C547.018 199.603 546.926 199.759 546.825 199.906C544.498 203.435 542.172 206.955 539.846 210.465C539.533 210.943 539.524 210.943 538.963 210.943C537.62 210.943 536.287 210.943 534.954 210.952C534.411 210.952 534.494 210.915 534.494 210.575C534.494 209.307 534.476 208.039 534.448 206.78C534.448 206.532 534.568 206.33 534.733 206.1C535.57 204.942 536.333 203.766 536.793 202.534C537.538 200.558 537.961 198.61 537.712 196.772C537.492 195.192 536.793 193.85 535.607 192.802C535.368 192.591 535.128 192.389 534.807 192.122V192.141Z" fill="#FD7A0F"/>
<path d="M546.576 180.718C547.284 183.034 547.992 185.368 548.719 187.776L547.882 187.794C546.402 187.821 544.921 187.831 543.441 187.886C543.045 187.904 542.889 187.776 542.816 187.5C542.448 186.186 542.061 184.872 541.684 183.557C541.519 182.988 541.353 182.427 541.206 181.848C541.142 181.618 541.022 181.499 540.701 181.526C540.121 181.563 539.56 181.554 538.981 181.572C538.475 181.582 538.475 181.591 538.319 182.059C537.896 183.383 537.464 184.697 537.041 186.02C536.866 186.553 536.701 187.086 536.526 187.619C536.406 187.987 536.397 187.987 536.011 187.996C534.549 188.024 533.096 188.042 531.634 188.079C531.34 188.079 531.248 188.005 531.358 187.748C531.404 187.647 531.423 187.546 531.46 187.445L537.105 169.975L537.151 169.828C537.326 169.276 537.298 169.341 537.859 169.322C540.747 169.23 543.652 169.111 546.54 169.065C548.425 169.028 550.08 169.387 551.238 170.425C552.231 171.317 552.526 172.53 552.323 173.945C552.176 174.965 551.818 175.985 551.192 176.996C550.227 178.549 548.811 179.725 546.944 180.506C546.843 180.543 546.751 180.589 546.659 180.635C546.641 180.635 546.622 180.663 546.567 180.709L546.576 180.718ZM540.452 175.461C540.213 176.196 539.983 176.932 539.744 177.658C539.689 177.841 539.643 177.988 539.928 177.97C541.078 177.915 542.19 177.97 543.376 177.786C544.645 177.593 545.703 176.968 546.227 176.04C546.512 175.535 546.677 175.011 546.696 174.496C546.714 174.092 546.585 173.77 546.346 173.495C545.988 173.09 545.436 172.943 544.82 172.87C543.827 172.75 542.742 172.87 541.712 172.888C541.298 172.888 541.289 172.906 541.16 173.302C540.921 174.018 540.701 174.735 540.462 175.452L540.452 175.461Z" fill="#292B42"/>
<path d="M522.807 179.027L520.002 187.693C519.966 187.812 519.92 187.923 519.892 188.042C519.846 188.235 519.727 188.299 519.515 188.309C518.016 188.336 516.517 188.364 515.019 188.391C514.798 188.391 514.761 188.309 514.826 188.125C514.954 187.766 515.065 187.399 515.175 187.04L517.014 181.361C517.134 180.975 517.161 180.984 516.711 180.993C514.301 181.049 511.892 181.104 509.502 181.168C509.069 181.177 509.06 181.186 508.931 181.582C508.251 183.695 507.571 185.8 506.881 187.913C506.853 188.014 506.807 188.116 506.789 188.207C506.743 188.456 506.605 188.557 506.311 188.557C505.713 188.557 505.115 188.575 504.509 188.584C503.69 188.603 502.881 188.603 502.063 188.63C501.778 188.639 501.686 188.557 501.805 188.299C501.851 188.198 501.87 188.106 501.906 188.005L507.442 170.885L507.506 170.692C507.653 170.269 507.653 170.269 508.122 170.251C509.465 170.205 510.816 170.168 512.168 170.122C512.637 170.103 512.637 170.113 512.499 170.545C511.81 172.667 511.12 174.799 510.439 176.922C510.403 177.033 510.366 177.152 510.329 177.262C510.274 177.409 510.329 177.474 510.485 177.455C510.577 177.455 510.669 177.455 510.761 177.455L517.869 177.272C518.384 177.262 518.329 177.29 518.485 176.83L520.527 170.517C520.554 170.416 520.591 170.315 520.618 170.223C520.738 169.874 520.747 169.865 521.133 169.855C522.356 169.809 523.579 169.782 524.811 169.736C525.051 169.736 525.29 169.736 525.538 169.708C525.759 169.69 525.823 169.773 525.749 169.966C525.703 170.085 525.676 170.195 525.639 170.315L522.825 179.027H522.807Z" fill="#292B42"/>
<path d="M531.276 192.352C532.416 192.573 533.326 193.069 534.099 193.721C535.662 195.035 536.333 196.791 536.14 198.95C535.993 200.669 535.459 202.406 534.466 204.133C532.738 207.148 530.053 209.298 526.448 210.428C523.064 211.494 519.975 211.504 517.317 210.428C514.237 209.188 513.023 206.826 513.465 203.554C513.667 202.047 514.191 200.531 515.019 199.033C515.074 198.941 515.157 198.849 515.221 198.757C515.478 198.711 515.718 198.592 515.957 198.491C519.377 197.122 522.816 195.752 526.264 194.365C527.929 193.694 529.593 193.023 531.257 192.352H531.276ZM519.442 201.726C519.331 202.112 519.147 202.709 519.092 203.297C518.917 205.117 519.469 206.863 522.117 207.157C524.462 207.423 527.147 206.605 528.894 203.821C529.234 203.288 529.492 202.737 529.694 202.194C530.181 200.899 530.485 199.63 530.283 198.427C530.053 197.066 529.179 196.23 527.607 195.964C527.083 195.872 526.522 195.872 525.952 195.918C523.855 196.074 522.163 197.02 520.885 198.73C520.214 199.63 519.8 200.568 519.442 201.726Z" fill="#FD7A0F"/>
<path d="M562.475 179.9C561.408 179.992 560.369 179.964 559.321 180.001C559.164 180.001 559.008 180.019 558.852 180.01C558.622 180.001 558.53 180.093 558.475 180.286C558.328 180.754 558.153 181.223 557.997 181.692C557.758 181.784 557.519 181.866 557.279 181.958C555.514 182.657 553.758 183.355 552.001 184.054C552.047 183.888 552.075 183.723 552.13 183.548C553.666 178.797 555.192 174.046 556.737 169.295C556.93 168.697 556.847 168.743 557.528 168.725L571.716 168.284C571.854 168.284 571.992 168.284 572.13 168.275C572.277 168.275 572.323 168.339 572.286 168.458C572.249 168.578 572.212 168.697 572.176 168.817C571.891 169.699 571.605 170.59 571.32 171.473C571.1 172.134 571.238 172.052 570.484 172.07C568.332 172.134 566.18 172.19 564.038 172.254C563.192 172.281 562.355 172.3 561.509 172.327C561.059 172.346 561.049 172.346 560.93 172.723C560.59 173.752 560.259 174.781 559.928 175.82C559.808 176.187 559.817 176.196 560.259 176.187C562.585 176.132 564.93 176.068 567.265 176.003C567.762 175.994 568.249 175.985 568.746 175.957C569.031 175.939 569.114 176.022 569.022 176.27C568.865 176.665 568.81 177.051 568.608 177.446C566.557 178.264 564.516 179.091 562.484 179.909L562.475 179.9Z" fill="#292B42"/>
<path d="M525.998 178.88L528.756 170.342L528.839 170.094C529.005 169.58 528.959 169.607 529.538 169.589C530.908 169.543 532.278 169.506 533.648 169.46C534.135 169.442 534.135 169.451 533.997 169.883C532.912 173.256 531.818 176.619 530.733 179.992L528.306 187.509C528.269 187.628 528.223 187.739 528.195 187.858C528.149 188.07 528.021 188.152 527.782 188.152C527.129 188.152 526.467 188.171 525.814 188.189C525.032 188.207 524.241 188.217 523.46 188.235C522.982 188.235 522.973 188.235 523.11 187.812C523.892 185.377 524.683 182.951 525.464 180.516L525.998 178.88Z" fill="#292B42"/>
<path d="M496.279 206.357C496.325 206.192 496.362 206.036 496.408 205.87C497.778 201.643 499.139 197.425 500.509 193.197L500.536 193.096C500.674 192.674 500.683 192.674 501.143 192.664C502.228 192.646 503.313 192.646 504.407 192.609C504.794 192.591 505.005 192.692 505.125 192.986C505.658 194.263 506.237 195.522 506.798 196.8C507.387 198.142 507.984 199.483 508.573 200.825C508.646 201 508.757 201.156 508.766 201.367C507.313 201.946 505.851 202.534 504.407 203.113C504.058 202.36 503.718 201.597 503.359 200.843C503.295 200.715 503.286 200.558 503.093 200.43C502.67 201.698 502.256 202.929 501.842 204.161C501.64 204.234 501.437 204.308 501.235 204.381C499.58 205.043 497.925 205.696 496.27 206.357H496.279Z" fill="#292B42"/>
<path d="M504.408 203.113C505.86 202.534 507.313 201.946 508.766 201.367C509.134 201.9 509.263 202.571 509.676 203.187C509.989 202.268 510.265 201.441 510.541 200.623C510.853 200.568 511.138 200.402 511.442 200.301C512.021 200.09 512.591 199.796 513.189 199.639C513.06 199.952 512.931 200.264 512.812 200.577C512.269 201.928 511.902 203.269 511.874 204.584C511.865 205.199 511.81 205.824 511.911 206.412C512.049 207.23 512.315 207.984 512.738 208.673C512.849 208.857 512.885 209.05 512.794 209.298C512.619 209.776 512.462 210.254 512.334 210.732C512.26 210.98 512.131 211.044 511.874 211.044C510.66 211.044 509.446 211.044 508.233 211.053C507.975 211.053 507.865 210.97 507.782 210.787C507.139 209.325 506.486 207.873 505.842 206.421C505.355 205.319 504.877 204.216 504.389 203.113H504.408Z" fill="#FD7A0F"/>
<path d="M552.001 184.063C553.758 183.364 555.514 182.666 557.279 181.967C557.518 181.876 557.758 181.784 557.997 181.701C557.813 182.289 557.638 182.886 557.454 183.475C557.335 183.879 557.335 183.888 557.813 183.87C560.746 183.815 563.688 183.75 566.64 183.686C566.778 183.686 566.916 183.686 567.054 183.686C567.274 183.668 567.357 183.732 567.293 183.943C566.934 185.037 566.585 186.121 566.235 187.215C566.171 187.417 566.042 187.491 565.822 187.481C565.702 187.481 565.583 187.481 565.463 187.481L551.45 187.739H551.275C550.769 187.739 550.76 187.739 550.907 187.307C551.266 186.232 551.56 185.156 551.983 184.072L552.001 184.063Z" fill="#FD7A0F"/>
<path d="M531.276 192.352C529.611 193.023 527.938 193.694 526.283 194.365C522.834 195.743 519.395 197.122 515.975 198.491C515.727 198.592 515.488 198.711 515.239 198.757C515.313 198.436 515.552 198.142 515.773 197.848C518.007 194.824 521.051 192.977 524.784 192.205C526.935 191.764 528.949 191.764 530.825 192.187C530.99 192.223 531.174 192.251 531.285 192.352H531.276Z" fill="#292B42"/>
<path d="M496.279 206.357C497.925 205.705 499.58 205.043 501.244 204.381C501.447 204.299 501.649 204.234 501.851 204.161C501.833 204.244 501.824 204.326 501.796 204.4C501.125 206.486 500.444 208.581 499.764 210.667C499.635 211.053 499.626 211.062 499.24 211.062C497.851 211.062 496.463 211.062 495.074 211.081C494.845 211.081 494.716 211.053 494.808 210.796C495.304 209.316 495.792 207.837 496.279 206.357Z" fill="#FD7A0F"/>
<path d="M513.198 199.63C512.6 199.787 512.039 200.081 511.451 200.292C511.147 200.402 510.862 200.559 510.55 200.614C510.725 200.053 510.89 199.492 511.074 198.941C511.718 196.947 512.361 194.962 513.005 192.968C513.189 192.398 513.143 192.471 513.741 192.462C515.101 192.435 516.471 192.416 517.842 192.398C518.265 192.398 518.255 192.398 518.145 192.775L518.127 192.821C517.933 193.611 517.676 194.374 516.711 194.944C515.258 196.258 514.2 197.728 513.4 199.29C513.345 199.401 513.308 199.52 513.198 199.621V199.63Z" fill="#292B42"/>
<path d="M562.475 179.9C564.516 179.082 566.557 178.264 568.599 177.437C568.451 178.126 568.166 178.825 567.964 179.514C567.909 179.698 567.808 179.799 567.578 179.808C565.877 179.826 564.157 179.918 562.475 179.9Z" fill="#FD7A0F"/>
<g opacity="0.5">
<path d="M536.296 150.842C545.703 193.142 555.164 235.673 564.681 278.442C558.953 297.309 553.224 316.139 547.514 334.932C532.931 273.535 518.476 212.634 504.132 152.229C514.807 151.77 525.529 151.301 536.296 150.833V150.842Z" fill="#E6E6E6"/>
<path d="M544.765 150.345L570.097 260.642C571.109 257.352 572.129 254.071 573.141 250.781C565.242 217.128 557.38 183.631 549.555 150.272C547.955 150.3 546.365 150.318 544.765 150.345Z" fill="#E6E6E6"/>
<path d="M483.222 168.762C497.934 234.8 512.775 301.399 527.735 368.576C522.577 368.576 517.428 368.576 512.297 368.576C499.681 311.186 487.157 254.209 474.716 197.646C477.548 188.024 480.381 178.402 483.222 168.762Z" fill="#E6E6E6"/>
</g>
<path d="M563.789 157.642L516.977 158.57C512.361 158.662 509.658 155.345 510.927 151.163L512.177 147.055L575.78 145.741L574.529 149.867C573.251 154.067 568.442 157.55 563.799 157.642H563.789Z" fill="#4D4D4D"/>
<path d="M551.027 153.81L532.177 154.187C531.119 154.205 530.494 153.442 530.779 152.486C531.073 151.522 532.167 150.731 533.234 150.704L552.093 150.318C553.16 150.299 553.785 151.062 553.491 152.018C553.197 152.983 552.102 153.782 551.036 153.801L551.027 153.81Z" fill="#333333"/>
<path d="M541.602 240.92C541.602 250.395 544.967 259.107 550.558 265.917C553.574 269.592 557.242 272.717 561.38 275.106C563.891 276.558 566.575 277.735 569.389 278.617C573.086 279.756 577.003 280.372 581.067 280.372C584.23 280.372 587.347 280.005 590.372 279.269C591.715 278.948 593.03 278.562 594.326 278.093C595.788 277.578 597.204 276.972 598.584 276.283C601.508 274.831 604.239 273.02 606.758 270.861C607.696 270.061 608.597 269.216 609.443 268.333C616.533 261.009 620.532 251.213 620.532 240.92C620.532 233.862 618.657 226.952 615.089 220.914C614.988 220.749 614.887 220.583 614.795 220.418C611.337 214.748 606.464 210.006 600.717 206.697C594.777 203.279 587.982 201.478 581.076 201.478C570.539 201.478 560.626 205.576 553.178 213.029C552.976 213.231 552.774 213.433 552.553 213.654C552.516 213.691 552.479 213.728 552.443 213.774L552.351 213.875L552.231 213.994C545.372 221.309 541.602 230.876 541.602 240.911V240.92Z" fill="white"/>
<path d="M574.943 242.997C574.998 243.668 575.191 246.747 572.975 249.55C570.723 252.408 567.596 252.913 566.943 252.996C567.771 253.887 572.644 259.024 580.662 259.19C588.607 259.355 593.674 254.512 594.547 253.648C593.692 253.382 590.363 252.233 588.377 248.796C587.117 246.609 586.97 244.514 586.98 243.466C582.97 243.31 578.952 243.144 574.943 242.988V242.997Z" fill="#FF7D7A"/>
<path d="M574.823 245.368C577.637 246.884 581.508 248.373 586.17 248.447C586.851 248.456 587.513 248.447 588.147 248.392C587.899 247.904 587.651 247.307 587.448 246.627C587.154 245.644 587.025 244.752 586.989 244.036C582.98 243.962 578.98 243.898 574.971 243.824C574.925 244.339 574.879 244.853 574.823 245.359V245.368Z" fill="#FF6759"/>
<path d="M568.175 227.577C567.32 227.567 566.364 229.966 566.566 232.043C566.851 235.048 569.555 237.281 570.391 236.877C571.771 236.206 569.794 227.604 568.175 227.577Z" fill="#FF6759"/>
<path d="M594.299 227.577C595.154 227.567 596.11 229.966 595.908 232.043C595.623 235.048 592.919 237.281 592.083 236.877C590.703 236.206 592.68 227.604 594.299 227.577Z" fill="#FF6759"/>
<path d="M589.49 217.992C597.407 224.085 593.802 239.275 587.237 244.045C586.446 244.615 583.927 246.407 580.552 246.214C577.38 246.039 575.191 244.21 574.456 243.595C568.479 238.586 565.546 223.818 573.702 217.909C578.161 214.683 585.15 214.656 589.48 217.992H589.49Z" fill="#FF7D7A"/>
<path d="M550.558 265.916C553.574 269.592 557.242 272.717 561.38 275.106C563.891 276.558 566.575 277.735 569.389 278.617C573.086 279.756 577.003 280.372 581.067 280.372C584.23 280.372 587.347 280.004 590.372 279.269C591.715 278.948 593.03 278.562 594.326 278.093C595.788 277.578 597.204 276.972 598.584 276.283C601.508 274.831 604.239 273.02 606.758 270.861C607.696 270.061 608.597 269.216 609.443 268.333C609.186 265.87 608.735 263.885 608.303 262.397C607.337 259.024 606.464 258.032 605.921 257.517C604.184 255.854 602.234 255.734 599.641 255.229C598.381 254.99 596.956 254.641 595.338 253.988C595.062 253.878 594.795 253.758 594.538 253.648C594.538 253.648 594.538 253.648 594.529 253.648C594.4 253.584 594.262 253.529 594.133 253.464C592.322 252.6 590.952 251.626 590.032 250.919L590.014 250.937C589.407 251.553 586.069 254.797 580.791 254.742C575.587 254.677 572.341 251.452 571.752 250.836H571.743C570.106 251.654 568.608 252.315 567.293 252.821C566.327 253.198 565.463 253.51 564.727 253.749C563.734 254.08 562.824 254.346 561.996 254.576C558.171 255.624 556.01 255.835 553.978 257.894C552.562 259.327 552.038 260.825 551.358 262.893C551.1 263.674 550.806 264.694 550.567 265.926L550.558 265.916Z" fill="#7481F4"/>
<path d="M590.372 279.269C591.715 278.948 593.03 278.562 594.326 278.093C595.788 277.579 597.204 276.972 598.584 276.283C598.712 273.259 598.86 270.217 599.016 267.166C599.218 263.169 599.439 259.199 599.669 255.256C599.669 255.247 599.66 255.238 599.65 255.229C599.338 254.843 598.473 253.887 596.993 253.474C595.706 253.106 594.621 253.327 594.143 253.455C594.143 253.474 594.143 253.492 594.143 253.52C594.143 253.676 594.161 253.841 594.161 254.016C594.326 257.389 594.262 261.423 593.646 265.917C592.929 271.173 591.669 275.667 590.363 279.269H590.372Z" fill="#FFA200"/>
<path d="M561.38 275.097C563.891 276.549 566.576 277.725 569.389 278.608C568.516 275.272 567.743 271.357 567.311 266.927C566.805 261.735 566.916 257.122 567.247 253.317C567.256 253.189 567.265 253.06 567.284 252.94C567.284 252.895 567.284 252.858 567.293 252.821C566.87 252.702 565.454 252.352 563.918 253.032C562.898 253.483 562.272 254.19 561.987 254.567C561.84 258.583 561.711 262.627 561.592 266.698C561.518 269.519 561.445 272.313 561.38 275.106V275.097Z" fill="#FFA200"/>
<path d="M580.855 228.422C580.249 230.903 579.633 233.394 579.026 235.875C579.292 236.04 579.89 236.371 580.727 236.408C581.554 236.454 582.189 236.187 582.474 236.05C581.94 233.504 581.398 230.958 580.865 228.413L580.855 228.422Z" fill="#FF6759"/>
<path d="M576.791 238.182C576.892 238.035 578.391 239.56 580.708 239.615C583.035 239.67 584.607 238.209 584.699 238.356C584.8 238.522 582.998 240.599 580.644 240.525C578.336 240.452 576.69 238.347 576.8 238.182H576.791Z" fill="#FF6759"/>
<path d="M583.761 230.205C585.021 230.021 586.437 229.681 587.651 229.451C588.865 229.212 590.299 229.001 591.54 228.689C589.186 226.887 585.278 227.659 583.761 230.205Z" fill="black"/>
<path d="M583.044 226.814C582.759 226.033 586.143 223.147 588.938 223.956C589.766 224.195 590.786 224.829 590.722 225.38C590.639 226.161 588.432 226.529 587.09 226.749C585.517 227.007 583.246 227.384 583.035 226.805L583.044 226.814Z" fill="black"/>
<path d="M588.046 228.909C588.083 230.141 587.393 230.94 586.888 230.922C586.455 230.903 585.977 230.288 585.839 229.451C586.575 229.277 587.311 229.093 588.055 228.918L588.046 228.909Z" fill="black"/>
<path d="M578.345 230.205C576.837 227.659 572.929 226.887 570.566 228.689C571.798 229.001 573.242 229.212 574.456 229.451C575.669 229.681 577.085 230.03 578.345 230.205Z" fill="black"/>
<path d="M579.062 226.814C579.347 226.033 575.964 223.147 573.168 223.956C572.341 224.195 571.32 224.829 571.384 225.38C571.467 226.161 573.674 226.529 575.017 226.749C576.589 227.007 578.86 227.384 579.072 226.805L579.062 226.814Z" fill="black"/>
<path d="M574.06 228.909C574.023 230.141 574.713 230.94 575.219 230.922C575.651 230.903 576.129 230.288 576.267 229.451C575.531 229.277 574.796 229.093 574.051 228.918L574.06 228.909Z" fill="black"/>
<path d="M589.655 230.655C590.584 230.416 592.138 230.361 592.377 230.968C592.809 232.043 589.03 235.177 587.688 234.423C587.163 234.129 587.062 233.283 587.154 232.76C587.403 231.243 589.426 230.72 589.655 230.664V230.655Z" fill="#F67057"/>
<path d="M572.635 230.655C571.706 230.416 570.152 230.361 569.913 230.968C569.481 232.043 573.26 235.177 574.603 234.423C575.127 234.129 575.228 233.283 575.136 232.76C574.888 231.243 572.865 230.72 572.635 230.664V230.655Z" fill="#F67057"/>
<path d="M568.746 229.957L569.61 230.104C569.592 231.795 569.573 233.476 569.555 235.167C569.371 234.524 569.187 233.807 569.049 233.026C568.847 231.896 568.764 230.867 568.746 229.966V229.957Z" fill="#333333"/>
<path d="M593.232 230.288C593.113 231.997 593.002 233.706 592.883 235.416C593.094 234.781 593.297 234.092 593.48 233.348C593.701 232.466 593.857 231.629 593.968 230.857L593.232 230.297V230.288Z" fill="#333333"/>
<path d="M566.447 223.855C565.123 225.279 566.079 227.43 564.543 228.468C563.688 229.047 562.861 228.725 562.714 229.185C562.447 229.984 564.599 231.868 565.794 231.418C566.502 231.151 566.474 230.214 567.136 230.122C567.936 230.003 568.415 231.326 569.187 231.17C569.674 231.069 569.996 230.435 570.088 229.984C570.29 229.001 569.481 228.606 569.638 227.705C569.766 226.988 570.318 226.998 570.98 225.959C571.173 225.656 572.047 224.296 571.651 223.551C571.1 222.504 567.863 222.329 566.447 223.855Z" fill="black"/>
<path d="M594.657 222.486C596.827 222.219 598.234 225.197 598.363 226.547C598.381 226.74 598.473 227.283 598.197 227.485C597.82 227.76 597.195 227.136 596.754 227.393C596.349 227.632 596.23 228.532 596.579 229.139C597.122 230.076 598.519 229.727 598.676 230.297C598.86 230.968 597.204 232.521 595.365 232.438C594.409 232.392 593.094 231.887 592.837 230.968C592.542 229.902 593.913 229.167 593.581 228.055C593.324 227.172 592.34 227.246 592.018 226.419C591.531 225.151 592.837 222.715 594.648 222.495L594.657 222.486Z" fill="black"/>
<path d="M596.616 224.277C591.853 223.79 586.731 223.441 581.297 223.285C576.083 223.138 571.146 223.193 566.53 223.395C566.419 221.879 566.373 218.166 568.663 214.536C572.92 207.791 581.196 207.782 581.775 207.791C582.557 207.8 590.106 208.057 594.308 214.444C597.03 218.58 596.763 222.881 596.625 224.277H596.616Z" fill="#7481F4"/>
<path d="M564.47 224.222C564.222 222.283 573.306 218.093 582.649 218.488C590.933 218.837 598.942 222.77 598.648 224.526C598.446 225.766 594.078 226.005 593.214 226.051C587.623 226.363 586.345 223.928 581.407 224.167C577.564 224.351 577.407 225.867 573.04 226.115C569.472 226.318 564.654 225.582 564.47 224.222Z" fill="#5761B7"/>
<path d="M581.545 207.01C582.538 206.991 583.43 207.727 583.338 208.067C583.182 208.655 579.982 208.618 579.844 208.03C579.761 207.69 580.616 207.028 581.545 207.01Z" fill="#5761B7"/>
<path d="M604.101 279.214C604.533 279.692 605.011 280.17 605.434 280.694C620.165 298.494 634.895 316.295 649.617 334.105C651.897 336.871 653.607 337.468 656.936 336.145C661.8 334.197 665.543 330.888 667.942 326.192C669.653 322.847 669.313 321.129 666.664 318.473C653.295 305.028 639.916 291.593 626.546 278.139C623.153 274.739 619.788 271.311 616.45 267.929C613.084 272.368 608.919 276.209 604.092 279.205L604.101 279.214Z" fill="#68758E"/>
<path d="M535.018 249.945C537.951 263.454 546.549 274.279 557.794 280.446C558.668 280.933 559.56 281.383 560.461 281.806C569.242 285.914 579.384 287.283 589.591 285.077C594.878 283.929 599.751 281.925 604.092 279.223C608.919 276.227 613.094 272.386 616.45 267.947C624.256 257.655 627.677 244.137 624.725 230.527C622.923 222.21 618.969 214.922 613.581 209.105C613.452 208.967 613.324 208.829 613.186 208.682C602.51 197.443 586.4 191.883 570.143 195.403C557.748 198.086 547.624 205.53 541.271 215.4C541.096 215.667 540.921 215.942 540.746 216.227C540.645 216.393 540.544 216.558 540.452 216.733C534.687 226.373 532.434 238.117 535 249.954L535.018 249.945ZM541.914 248.456C539.818 238.797 541.464 228.817 546.53 220.344L546.613 220.206L546.677 220.087C546.677 220.087 546.732 219.995 546.76 219.949C546.916 219.692 547.073 219.453 547.229 219.214C552.847 210.493 561.518 204.483 571.66 202.286C578.299 200.843 585.214 201.174 591.641 203.214C597.867 205.199 603.54 208.747 608.046 213.479C608.174 213.617 608.303 213.755 608.432 213.893C613.121 218.957 616.367 225.215 617.838 232.006C619.981 241.913 618.179 252.169 612.891 260.697C612.257 261.717 611.567 262.718 610.841 263.683C608.864 266.284 606.62 268.6 604.101 270.603C602.915 271.55 601.673 272.423 600.377 273.232C599.227 273.948 598.041 274.601 596.818 275.18C594.06 276.512 591.145 277.514 588.101 278.176C584.193 279.021 580.295 279.242 576.497 278.92C573.601 278.663 570.769 278.084 568.056 277.211C563.578 275.777 559.403 273.535 555.725 270.631C548.921 265.246 543.873 257.572 541.896 248.447L541.914 248.456Z" fill="#8B9CBD"/>
<path d="M408.714 387.93C390.838 387.599 364.255 388.215 364.173 390.246C364.099 392.12 386.443 395.144 407.61 395.677C430.598 396.256 454.377 393.94 454.377 392.001C454.377 389.924 427.104 388.261 408.714 387.921V387.93Z" fill="black"/>
<path d="M411.868 262.425C412.189 260.338 412.631 257.186 413.017 253.271C413.127 252.169 413.21 251.222 413.238 250.855C413.385 248.217 413.293 243.962 411.831 236.564C409.321 223.846 407.16 223.083 405.863 213.783C404.815 206.293 403.905 199.796 407.583 194.319C409.863 190.919 413.661 188.272 421.329 186.305C439.674 181.591 458.505 186.278 469.006 189.742C464.556 200.954 461.402 210.787 459.167 218.571C454.082 236.28 453.264 245.166 452.979 249.89C452.74 253.952 452.758 257.352 452.823 259.759C439.177 260.651 425.522 261.533 411.877 262.425H411.868Z" fill="#FFA200"/>
<path d="M369.009 361.518C367.731 365.304 367.612 366.857 366.407 369.238C365.543 370.947 363.979 373.336 361.019 375.735C334.068 360.277 328.082 354.479 328.974 352.429C329.663 350.83 334.472 350.132 338.132 351.143C340.992 351.933 341.249 353.229 344.716 354.58C345.985 355.076 349.69 356.51 353.856 355.747C359.373 354.727 362.609 350.408 363.547 349.038C366.343 350.803 369.138 352.576 371.933 354.341C371.179 355.903 370.067 358.375 369 361.536L369.009 361.518Z" fill="#4D4D4D"/>
<path d="M447.637 305.819C444.86 305.359 440.501 304.615 435.435 302.253C417.385 293.844 405.551 272.065 410.728 264.768C414.176 259.897 425.283 261.313 431.187 263.233C438.074 265.466 439.876 269.041 454.46 276.807C458.147 278.773 459.986 279.747 461.209 280.179C472.077 284.002 478.928 279.233 490.946 279.536C495.166 279.646 501.309 280.409 508.766 283.635L508.784 293.137C499.139 296.399 490.946 298.807 484.849 300.498C462.119 306.802 454.551 306.968 447.628 305.828L447.637 305.819Z" fill="#BF7A00"/>
<path d="M437.917 279.407C445.172 280.216 445.356 289.498 454.524 294.102C469.208 301.463 488.5 287.577 491.893 292.907C492.417 293.734 492.748 295.324 491.038 298.632C486.458 300.286 480.022 302.317 472.142 303.852C463.719 305.497 456.629 306.885 448.777 305.947C443.821 305.359 432.566 303.144 420.603 292.043C424.722 286.106 431.113 278.644 437.927 279.407H437.917Z" fill="#805100"/>
<path d="M453.944 240.801C452.427 248.162 452.501 254.016 452.887 258.114C453.273 262.149 453.981 264.915 453.117 269.014C452.657 271.219 451.526 274.757 448.032 279.03C439.471 289.498 427.794 290.812 417.587 298.779C410.111 304.615 409.891 308.493 401.551 322.654C395.886 332.267 386.664 345.436 371.492 359.441C367.483 356.96 363.474 354.479 359.465 351.998C368.246 335.906 374.37 322.397 378.388 312.867C381.79 304.799 383.473 300.093 386.167 294.782C386.167 294.782 387.776 291.712 389.413 288.937C399.086 272.616 413.863 260.715 413.863 260.715C429.191 248.364 444.805 243.135 453.935 240.81L453.944 240.801Z" fill="#FFA200"/>
<path d="M408.787 197.039C405.321 199.649 400.126 203.398 393.468 207.488C385.892 212.147 384.144 212.515 383.161 212.643C372.577 213.967 362.6 197.884 360.09 193.62C361.892 190.964 362.582 188.548 362.876 187.05C363.161 185.616 363.152 184.21 363.152 181.398C363.152 178.485 363.134 176.932 362.564 176.775C361.966 176.61 360.816 178.016 360.412 179.486C360.035 180.847 360.531 181.398 360.136 183.043C359.952 183.815 359.63 185.304 358.95 185.414C358.242 185.533 357.598 184.054 355.529 180.222C354.444 178.2 353.276 176.233 352.145 174.23C349.837 170.113 349.323 169.295 349.001 169.396C348.569 169.534 348.651 171.262 349.001 172.612C349.369 174.018 349.985 174.8 350.518 175.663C352.311 178.586 352.789 181.802 352.476 181.931C352.072 182.106 349.405 177.437 348.081 175.599C348.026 175.516 347.971 175.443 347.971 175.443C346.913 173.991 346.04 172.98 345.681 172.557C343.272 169.736 342.877 168.872 342.555 169.01C342.086 169.203 342.316 171.225 342.96 172.925C343.594 174.625 344.357 175.222 345.608 176.987C347.392 179.505 348.808 182.482 348.486 182.712C348.136 182.96 345.488 180.139 343.658 177.593C343.456 177.308 343.015 176.693 342.224 175.59C339.953 172.429 339.75 172.245 339.613 172.3C339.134 172.475 339.327 175.195 340.688 177.52C341.093 178.209 341.286 178.338 342.012 179.275C343.989 181.821 345.663 184.881 345.341 185.12C345.01 185.368 342.463 182.547 342.307 182.372C341.589 181.582 341.415 181.288 340.109 179.698C337.7 176.766 337.479 176.785 337.406 176.821C337.038 177.005 337.387 178.999 338.298 180.598C338.803 181.49 339.18 181.729 340.017 183.245C340.146 183.475 340.146 183.493 340.799 184.725C341.424 185.91 341.599 186.232 341.829 186.654C342.904 188.685 343.383 189.733 343.815 190.597C344.826 192.646 344.918 192.931 345.387 193.593C346.261 194.843 347.75 196.506 350.389 197.967C353.506 205.475 359.851 217.615 371.51 225.353C376.209 228.468 379.335 229.258 381.671 229.507C388.567 230.233 393.983 226.842 400.806 222.44C405.183 219.618 411.252 215.06 417.366 208.048C414.507 204.372 411.656 200.706 408.797 197.03L408.787 197.039Z" fill="#FF7D7A"/>
<path d="M381.625 212.689C381.91 212.68 382.241 212.652 382.59 212.588C383.179 212.487 383.675 212.321 384.071 212.156C387.354 216.953 390.636 221.759 393.928 226.556C392.898 227.163 391.611 227.815 390.084 228.367C388.825 228.826 387.657 229.12 386.645 229.323C385.478 228.045 383.85 225.941 382.719 222.982C381.018 218.543 381.34 214.6 381.634 212.68L381.625 212.689Z" fill="#FF6759"/>
<path d="M407.104 194.319C405.578 195.348 403.316 196.947 400.705 199.088C394.93 203.802 393.229 206.394 388.871 208.434C387.188 209.224 384.668 210.134 381.248 210.456C381.91 213.13 384.181 220.84 391.546 226.373C395.188 229.102 398.82 230.37 401.312 230.986C403.693 228.689 406.075 226.382 408.465 224.084C408.015 214.169 407.564 204.244 407.114 194.328L407.104 194.319Z" fill="#5761B7"/>
<path d="M551.045 256.783L481.455 283.466C480.592 283.797 480.161 284.765 480.492 285.627L484.577 296.266C484.908 297.129 485.876 297.56 486.738 297.229L556.328 270.545C557.191 270.214 557.622 269.247 557.291 268.384L553.207 257.745C552.876 256.883 551.908 256.452 551.045 256.783Z" fill="#7D3036"/>
<path d="M560.709 291.795L497.658 315.964C496.757 316.304 495.755 315.863 495.405 314.963L488.371 296.638L554.668 271.219L561.702 289.543C562.042 290.444 561.601 291.446 560.7 291.795H560.709Z" fill="#7D3036"/>
<path d="M507.648 293.865C508.573 293.511 508.582 291.295 507.669 288.916C506.755 286.537 505.266 284.896 504.341 285.251C503.417 285.605 503.407 287.821 504.32 290.2C505.234 292.579 506.723 294.22 507.648 293.865Z" fill="#471B1F"/>
<path d="M513.69 291.553C514.615 291.198 514.624 288.983 513.711 286.604C512.798 284.225 511.308 282.584 510.383 282.939C509.459 283.293 509.45 285.509 510.363 287.888C511.276 290.267 512.766 291.908 513.69 291.553Z" fill="#471B1F"/>
<path d="M519.388 289.363C520.312 289.009 520.322 286.793 519.408 284.414C518.495 282.035 517.005 280.394 516.081 280.749C515.156 281.103 515.147 283.319 516.06 285.698C516.973 288.077 518.463 289.718 519.388 289.363Z" fill="#471B1F"/>
<path d="M551.648 277C552.573 276.645 552.582 274.429 551.669 272.051C550.756 269.672 549.266 268.031 548.341 268.385C547.417 268.74 547.408 270.956 548.321 273.334C549.234 275.713 550.724 277.354 551.648 277Z" fill="#471B1F"/>
<path d="M545.765 279.248C546.689 278.893 546.699 276.678 545.786 274.299C544.872 271.92 543.383 270.279 542.458 270.633C541.533 270.988 541.524 273.204 542.437 275.583C543.351 277.961 544.84 279.602 545.765 279.248Z" fill="#471B1F"/>
<path d="M540.105 281.426C541.029 281.071 541.038 278.855 540.125 276.477C539.212 274.098 537.722 272.457 536.798 272.811C535.873 273.166 535.864 275.382 536.777 277.761C537.69 280.139 539.18 281.78 540.105 281.426Z" fill="#471B1F"/>
<path d="M507.99 262.722L502.736 264.737L506.274 273.952L511.528 271.937L507.99 262.722Z" fill="#5E2429"/>
<path d="M525.696 255.936L520.442 257.95L523.979 267.165L529.233 265.151L525.696 255.936Z" fill="#222D24"/>
<path d="M525.697 255.927L502.733 264.733L504.389 269.048L527.354 260.243L525.697 255.927Z" fill="#5E2429"/>
<path d="M501.612 291.565L486.734 297.272C485.87 297.603 484.904 297.171 484.573 296.307L480.491 285.666C480.16 284.802 480.592 283.837 481.456 283.506L496.334 277.799L501.612 291.556V291.565Z" fill="#5E2429"/>
<path d="M509.069 311.59L497.658 315.964C496.757 316.304 495.755 315.863 495.405 314.963L488.371 296.638L501.603 291.565L509.18 311.314C509.226 311.425 509.17 311.553 509.06 311.59H509.069Z" fill="#5E2429"/>
<path d="M554.677 271.222L488.38 296.657L488.841 297.858L555.138 272.423L554.677 271.222Z" fill="#471B1F"/>
<path d="M525.696 255.936L520.442 257.95L523.979 267.165L529.233 265.151L525.696 255.936Z" fill="#471B1F"/>
<path d="M441.209 183.502C440.933 183.668 436.4 186.498 436.225 190.863C435.867 200.099 455.949 204.464 475.737 217.569C484.307 223.248 496.178 232.778 507.809 248.952C508.462 251.176 508.306 252.839 508.021 253.961C507.534 255.936 506.568 256.635 506.09 258.611C505.63 260.504 505.943 262.231 506.292 263.399C507.534 262.921 508.784 262.443 510.025 261.965C509.897 265.42 511.331 266.633 511.671 266.9C513.805 268.545 517.345 267.065 520.977 265.54C523.046 264.676 524.103 264.216 524.986 263.15C527.505 260.127 526.282 255.799 526.2 255.523C525.666 253.74 524.462 252.407 522.043 249.724C520.471 247.987 519.073 246.664 518.108 245.791C508.398 225.968 496.656 213.36 488.711 206.109C484.169 201.965 454.873 175.213 441.2 183.484L441.209 183.502Z" fill="#FF7D7A"/>
<path d="M429.127 165.224C433.2 166.933 432.502 171.096 436.777 175.149C442.423 180.506 449.356 178.669 449.66 180.589C450.34 184.835 416.704 196.028 413.578 190.321C412.704 188.731 415.095 187.436 416.732 180.874C418.654 173.145 416.566 170.021 419.307 167.135C421.633 164.682 426.01 163.919 429.127 165.224Z" fill="#FF7D7A"/>
<path d="M406.121 267.846C408.824 265.816 413.744 262.654 420.677 261C427.334 259.41 432.934 259.888 436.226 260.43C434.157 259.649 431.656 258.896 428.778 258.427C422.681 257.425 417.495 258.087 414.01 258.859L412.861 254.42L411.859 262.434C409.946 264.244 408.024 266.045 406.112 267.856L406.121 267.846Z" fill="#BF7A00"/>
<path d="M431.426 170.333C430.295 172.364 427.481 176.72 422.074 179.247C420.107 180.166 418.249 180.635 416.732 180.865C416.934 180.047 417.127 179.165 417.274 178.209C417.385 177.501 417.468 176.821 417.532 176.178C422.166 174.23 426.791 172.281 431.426 170.333Z" fill="#FF6759"/>
<path d="M486.081 203.646C486.541 204.124 486.992 204.602 487.452 205.08C486.891 207.285 485.548 211.265 482.109 214.895C480.482 216.613 478.808 217.808 477.42 218.626C475.388 217.477 473.365 216.319 471.333 215.17C476.252 211.329 481.162 207.488 486.081 203.646Z" fill="#FF6759"/>
<path d="M438.442 176.509C430.672 184.669 422.525 188.557 418.093 186.02C417.339 185.588 416.557 184.89 415.877 183.732C414.81 185.202 413.615 186.737 412.291 188.299C410.295 190.643 408.318 192.692 406.433 194.466C405.762 200.375 405.56 207.175 406.397 214.628C406.599 216.466 406.856 218.231 407.151 219.94C411.38 221.686 418.727 224.075 428.051 223.8C434.699 223.607 440.115 222.118 443.83 220.767C444.189 221.116 447.324 224.13 451.958 223.506C456.703 222.871 458.928 218.984 459.158 218.571L461.503 211.017C462.616 212.827 463.728 214.637 464.841 216.457C467.517 216.383 472.877 215.878 478.587 212.643C485.006 209.004 488.325 203.913 489.658 201.579C482.21 198.454 477.19 194.787 474.008 192.04C469.089 187.803 468.344 185.598 463.599 183.125C461.512 182.032 459.765 181.48 449.963 179.165C445.347 178.08 441.421 177.18 438.46 176.518L438.442 176.509Z" fill="#7481F4"/>
<path d="M446.598 225.711C439.692 215.373 438.791 202.718 444.418 193.17C448.86 185.625 455.958 182.445 458.836 181.352C458.064 180.865 456.85 180.221 455.25 179.863C453.926 179.569 452.777 179.56 451.949 179.624C448.464 181.83 443.793 185.496 440.023 191.268C429.945 206.661 434.699 224.048 435.637 227.227C436.86 227.549 439.021 227.944 441.651 227.512C443.885 227.145 445.577 226.318 446.598 225.711Z" fill="#FFA200"/>
<path d="M419.021 227.319C416.658 224.856 412.484 219.82 410.433 212.248C407.233 200.457 411.38 190.679 412.723 187.831C411.463 188.621 409.836 189.852 408.309 191.69C407.509 192.664 406.893 193.611 406.424 194.456C405.468 198.123 404.429 203.876 405.063 210.897C405.707 217.982 407.794 223.505 409.403 226.942C412.612 227.062 415.812 227.191 419.021 227.31V227.319Z" fill="#FFA200"/>
<path d="M360.329 353.679C359.345 354.865 362.269 360.902 366.012 360.627C367.4 360.526 369.147 359.533 369.211 358.329C369.34 355.71 361.478 352.31 360.338 353.679H360.329Z" fill="#1A1A1A"/>
<path d="M408.934 154.609C407.472 155.565 405.174 156.208 403.279 155.253C402.176 154.692 401.045 153.507 401.275 152.68C401.486 151.954 402.553 152.229 403.206 151.182C403.739 150.336 403.693 148.967 403.776 148.324C403.896 147.451 403.868 147.432 403.941 147.193C404.272 146.127 404.843 146.136 405.495 145.024C406.461 143.389 406.498 142.534 407.279 142.46C409.413 142.277 412.493 146.614 411.702 150.529C411.426 151.926 410.516 153.58 408.925 154.619L408.934 154.609Z" fill="black"/>
<path d="M412.217 139.704C400.613 148.765 404.374 171.317 412.714 175.14C416.171 176.729 421.808 175.728 425.182 174.579C426.387 174.165 428.796 173.329 431.269 171.363C432.327 170.526 435.628 167.696 438.166 160.362C440.538 153.498 442.791 146.973 439.867 142.093C435.462 134.741 420.566 133.188 412.217 139.704Z" fill="#FF7D7A"/>
<path d="M426.745 157.991C425.228 156.815 419.969 159.921 420.281 161.382C420.529 162.559 424.64 163.873 426.424 161.759C427.371 160.638 427.582 158.635 426.745 157.991Z" fill="#F67057"/>
<path d="M404.898 156.806C407.739 157.688 409.146 159.572 408.815 160.62C408.539 161.483 407.022 162.007 405.284 161.98C405.137 161.07 405.027 160.077 404.953 159.002C404.907 158.23 404.889 157.495 404.898 156.797V156.806Z" fill="#F67057"/>
<path d="M412.861 153.286C413.302 152.597 411.39 149.601 408.567 149.426C407.371 149.353 405.698 149.766 405.633 150.428C405.486 151.807 412.208 154.297 412.861 153.286Z" fill="black"/>
<path d="M417.201 154.251C417.743 155.473 425.853 153.791 425.863 152.459C425.863 151.715 423.325 150.722 420.998 151.246C418.792 151.742 416.907 153.58 417.201 154.251Z" fill="black"/>
<path d="M429.807 153.111C428.952 154.499 428.961 155.859 428.971 158.405C428.98 160.555 429.274 162.338 429.541 163.56C429.964 162.908 430.552 161.906 431.141 160.601C431.591 159.59 431.72 159.122 431.95 159.112C432.281 159.094 432.805 160.169 433.605 165.178C433.256 165.803 432.842 166.703 432.575 167.843C432.308 168.982 432.29 169.975 432.327 170.692C433.862 168.9 435.729 166.455 437.209 163.625C437.89 162.31 438.285 161.327 438.534 160.574C439.003 159.149 439.205 157.872 439.453 156.401C439.83 154.187 437.954 150.722 435.131 150.244C432.879 149.867 430.764 151.568 429.807 153.102V153.111Z" fill="#333333"/>
<path d="M447.444 153.038C447.591 154.306 445.384 156.098 443.646 155.832C442.561 155.666 441.972 154.738 441.632 154.95C441.117 155.28 442.634 157.412 441.991 158.341C441.081 159.655 436.143 158.984 432.759 156.117C429.725 153.544 427.619 148.939 429.108 146.817C429.872 145.732 430.993 146.118 433.541 145.282C439.113 143.444 440.86 139.18 442.303 139.952C444.382 141.055 441.228 148.076 444.713 151.044C445.926 152.073 447.315 152.082 447.434 153.047L447.444 153.038Z" fill="black"/>
<path d="M444.032 148.149C444.391 146.596 445.715 140.191 442.313 134.484C439.802 130.266 436.088 128.74 432.961 127.444C429.302 125.937 421.955 122.905 414.81 126.718C408.401 130.137 404.401 137.866 404.144 146.486C417.44 147.037 430.745 147.588 444.041 148.14L444.032 148.149Z" fill="#7481F4"/>
<path d="M438.478 147.938C437.283 149.803 435.214 152.376 431.941 153.589C426.157 155.731 422.323 151.503 413.44 150.391C402.857 149.068 395.877 153.507 394.967 151.678C394.489 150.704 395.887 148.305 404.686 141.891C407.187 140.806 413.9 138.279 422.451 139.796C431.058 141.321 436.501 146.045 438.469 147.929L438.478 147.938Z" fill="#5761B7"/>
<path d="M417.578 157.863C419.546 155.289 423.38 154.178 426.396 155.4C423.334 156.025 420.53 156.833 417.578 157.863Z" fill="black"/>
<path d="M403.491 153.681C405.67 152.827 408.254 153.47 410.038 154.913C410.626 155.409 411.151 155.988 411.491 156.696C410.774 156.383 410.139 156.052 409.495 155.768C407.647 154.885 405.468 154.242 403.5 153.681H403.491Z" fill="black"/>
<path d="M414.865 156.815C413.532 159.278 412.199 161.741 410.865 164.204C411.399 164.461 412.622 164.948 413.642 164.424C414.967 163.753 415.123 161.842 415.242 160.427C415.371 158.855 415.086 157.578 414.865 156.815Z" fill="#FF6759"/>
<path d="M407.059 154.646C406.727 155.942 407.463 156.98 408.125 157.054C408.704 157.118 409.486 156.475 409.716 155.436C408.833 155.17 407.941 154.903 407.059 154.637V154.646Z" fill="black"/>
<path d="M419.454 156.447C419.555 157.725 420.309 158.653 420.98 158.69C421.752 158.736 422.828 157.633 422.745 155.942C421.651 156.107 420.557 156.282 419.463 156.447H419.454Z" fill="black"/>
<path d="M434.865 155.685C434.947 155.666 436.483 155.437 437.439 156.3C439.002 157.716 438.138 161.272 436.483 163.34C436.051 163.882 434.589 165.72 432.998 165.371C431.591 165.058 431.003 163.248 430.901 162.89C430 159.912 432.465 157.238 432.621 157.072C433.108 156.558 433.77 155.878 434.865 155.685Z" fill="#FF7D7A"/>
<path d="M432.621 125.781C431.324 125.184 429.596 125.818 429.559 126.323C429.522 126.801 430.975 127.261 432.189 127.637C433.228 127.968 433.881 128.17 434.083 127.913C434.359 127.545 433.688 126.268 432.621 125.772V125.781Z" fill="#5761B7"/>
<path d="M436.225 242.694L416.667 241.27V231.896L435.38 231.271L436.225 242.694Z" fill="#BF7A00"/>
<path d="M435.379 241.894L416.005 241.251V231.243L435.379 230.508V241.894Z" fill="#FFB533"/>
<path d="M444.262 221.162C446.892 220.133 448.584 218.81 449.66 217.762C451.223 216.236 451.627 215.152 455.057 210.208C456.492 208.149 457.209 207.111 457.485 206.9C459.241 205.567 463.599 205.034 476.206 213.829C474.928 214.408 473.401 214.987 471.645 215.455C469.034 216.154 466.698 216.393 464.822 216.448C463.71 214.637 462.597 212.827 461.485 211.007L459.14 218.561C458.901 218.993 456.648 222.871 451.94 223.496C447.683 224.066 444.703 221.548 444.253 221.153L444.262 221.162Z" fill="#5761B7"/>
<path d="M444.262 221.162C446.221 223.533 448.841 227.273 450.809 232.374C452.694 237.29 453.273 241.656 453.429 244.67C454.055 240.268 454.882 235.563 455.995 230.609C456.96 226.327 458.027 222.302 459.149 218.562C458.836 219.122 456.979 222.302 453.016 223.294C448.262 224.48 444.621 221.466 444.262 221.162Z" fill="#BF7A00"/>
<path d="M434.055 158.258C434.966 157.67 435.986 157.394 436.492 157.78C437.136 158.267 437.117 159.958 435.821 161.64C436.52 160.316 436.253 158.947 435.471 158.433C434.957 158.092 434.331 158.194 434.055 158.258Z" fill="#FF6759"/>
<path d="M526.209 255.541C526.43 256.258 526.715 257.508 526.549 259.042C526.466 259.75 526.191 262.029 524.444 263.729C523.965 264.198 522.972 264.648 520.977 265.558C520.444 265.797 517.915 266.937 515.037 267.525C514.522 267.626 513.796 267.754 512.95 267.516C512.113 267.277 511.543 266.799 511.221 266.468C511.883 266.073 512.904 265.531 514.228 265.08C516.002 264.483 516.793 264.575 518.209 264.244C519.074 264.042 522.08 263.353 524.113 260.991C525.712 259.125 526.117 256.929 526.209 255.532V255.541Z" fill="#FF6759"/>
<path d="M360.228 347.053C359.777 347.292 359.318 347.972 358.416 349.342C357.433 350.821 356.945 351.556 356.918 352.126C356.835 353.927 359.952 354.672 364.623 357.658C369.202 360.59 371.124 363.016 372.724 362.217C372.991 362.079 373.515 361.298 374.535 359.735C375.712 357.953 376.292 357.052 376.301 356.675C376.31 355.058 373.726 354.35 369.552 351.961C364.136 348.855 361.975 346.107 360.219 347.044L360.228 347.053Z" fill="#FFB533"/>
<path d="M328.974 352.429C331.447 355.186 334.757 358.311 339.07 361.16C349.617 368.135 360.237 369.596 366.048 369.927C365.91 370.726 365.579 372.013 364.715 373.373C363.648 375.046 362.306 375.983 361.561 376.424C356.265 373.63 350.582 370.322 344.67 366.407C338.233 362.143 332.56 357.851 327.613 353.744C327.714 353.514 327.935 353.119 328.348 352.788C328.569 352.613 328.79 352.503 328.964 352.429H328.974Z" fill="#1A1A1A"/>
<path d="M333.461 351.768C334.068 351.593 335.355 351.336 336.826 351.786C337.488 351.988 338.003 352.282 338.38 352.54C337.626 352.374 336.826 352.227 335.98 352.089C335.098 351.952 334.261 351.851 333.461 351.768Z" fill="#808080"/>
<path d="M348.89 357.438C348.89 357.851 348.55 358.191 348.136 358.191C347.723 358.191 347.382 357.851 347.382 357.438C347.382 357.024 347.723 356.684 348.136 356.684C348.55 356.684 348.89 357.024 348.89 357.438Z" fill="#1A1A1A"/>
<path d="M350.784 358.587C351.201 358.587 351.539 358.249 351.539 357.833C351.539 357.417 351.201 357.08 350.784 357.08C350.368 357.08 350.031 357.417 350.031 357.833C350.031 358.249 350.368 358.587 350.784 358.587Z" fill="#1A1A1A"/>
<path d="M353.681 358.587C354.097 358.587 354.435 358.249 354.435 357.833C354.435 357.417 354.097 357.08 353.681 357.08C353.265 357.08 352.927 357.417 352.927 357.833C352.927 358.249 353.265 358.587 353.681 358.587Z" fill="#1A1A1A"/>
<path d="M367.262 363.503C367.299 364.303 367.253 365.975 366.26 367.666C365.818 368.42 365.304 368.98 364.871 369.375C365.294 368.484 365.717 367.538 366.122 366.536C366.554 365.488 366.922 364.468 367.253 363.503H367.262Z" fill="#808080"/>
<path d="M419.794 297.162C417.569 297.235 414.304 297.722 411.767 300.011C409.716 301.858 409.265 303.87 407.141 309.789C406.323 312.059 405.091 315.376 403.436 319.401C404.466 317.508 405.891 314.871 407.629 311.728C410.994 305.626 412.116 304.238 413.017 303.163C414.36 301.555 416.52 299.331 419.803 297.171L419.794 297.162Z" fill="#BF7A00"/>
<path d="M411.481 168.229C412.088 168.587 413.339 169.221 415.012 169.231C417.817 169.249 419.665 167.53 420.07 167.135C419.444 169.442 417.394 170.967 415.279 170.839C412.796 170.692 411.537 168.348 411.472 168.229H411.481Z" fill="#FF6759"/>
<path d="M357.249 185.533C355.125 186.094 353.699 187.867 353.727 189.714C353.755 191.497 355.106 192.637 355.336 192.821C355.143 192.425 354.389 190.808 354.932 188.786C355.465 186.801 356.881 185.781 357.249 185.524V185.533Z" fill="#FF6759"/>
<path d="M174.275 420.701C152.777 420.728 105.854 421.335 105.808 423.421C105.771 425.204 139.895 428.163 174.569 427.905C206.293 427.676 238.071 424.753 238.025 423.053C237.97 421.013 192.316 420.682 174.266 420.701H174.275Z" fill="black"/>
<path d="M196.941 406.944C198.578 412.706 200.224 418.468 201.86 424.239H196.766C193.649 418.477 190.523 412.715 187.406 406.944H196.941Z" fill="#BF7A00"/>
<path d="M108.052 406.944C106.415 412.706 104.769 418.468 103.132 424.239H108.227C111.344 418.477 114.47 412.715 117.587 406.944H108.052Z" fill="#BF7A00"/>
<path d="M207.203 401.935C207.203 404.701 204.959 406.944 202.191 406.944H102.893C100.116 406.944 97.8821 404.701 97.8821 401.935H207.203Z" fill="#7482ED"/>
<path d="M194.633 352.659H110.36V366.334H194.633V352.659Z" fill="#7482ED"/>
<path d="M201.198 285.601V319.916C197.392 321.147 194.642 324.695 194.642 328.876V352.65H110.36V328.876C110.36 324.686 107.61 321.138 103.804 319.916V285.601C103.804 280.979 107.546 277.239 112.162 277.239H192.849C197.465 277.239 201.208 280.979 201.208 285.601H201.198Z" fill="#5A6BCC"/>
<path d="M258.659 283.809C263.679 283.534 267.835 283.46 270.943 283.451C274.888 283.442 276.856 283.432 278.217 283.598C282.042 284.048 282.263 284.177 284.24 284.048C288.368 283.772 290.023 282.21 291.219 283.184C292.294 284.067 291.982 286.438 291.586 287.669C290.897 289.838 288.975 291.786 286.612 292.521C282.603 293.771 279.982 290.683 277.205 292.521C276.175 293.201 276.175 293.863 274.355 295.122C273.196 295.921 272.157 296.638 270.888 296.776C268.847 296.987 267.753 295.545 265.031 294.065C263.652 293.312 261.574 292.402 258.705 291.896C258.695 289.204 258.686 286.502 258.668 283.809H258.659Z" fill="#FF7D7A"/>
<path d="M257.978 283.828L259.652 283.69C260.194 284.498 260.81 285.601 261.279 286.98C262.07 289.341 262.052 291.428 261.923 292.705C261.261 292.494 260.562 292.301 259.817 292.117C258.935 291.896 258.079 291.722 257.289 291.584C257.519 289.001 257.748 286.41 257.978 283.828Z" fill="#FF6759"/>
<path d="M208.067 296.914C222.246 302.051 236.416 307.188 250.595 312.316C252.765 309.688 256.765 304.11 258.447 295.903C259.992 288.367 258.861 282.164 258.024 278.911C232.112 279.711 213.299 280.253 207.322 280.023C206.109 279.977 202.44 279.784 198.477 281.622C195.93 282.808 194.302 284.342 193.585 285.032C189.594 288.873 177.723 300.958 161.889 317.508L161.724 319.815C177.172 312.178 192.619 304.542 208.076 296.905L208.067 296.914Z" fill="#7D3036"/>
<path d="M168.105 315.238C176.592 308.401 183.24 302.281 188.013 297.658C189.199 296.51 192.325 292.209 198.045 288.606C199.525 287.669 200.702 286.934 202.044 286.41C209.189 283.616 215.276 289.139 231.837 294.69C239.367 297.217 242.77 297.64 245.501 297.732C250.981 297.916 255.505 296.84 258.447 295.912C257.794 299.009 256.553 303.08 254.061 307.354C252.93 309.283 251.744 310.938 250.595 312.325C245.776 310.965 238.531 308.879 229.611 306.205C222.825 304.165 221.308 303.65 218.531 303.172C209.198 301.573 201.603 302.805 195.01 304.661C188.123 306.591 178.753 309.789 168.105 315.248V315.238Z" fill="#5E2429"/>
<path d="M246.595 346.815C253.031 350.794 254.493 353.891 254.585 356.032C254.613 356.73 254.539 358.238 255.247 360.094C255.542 360.875 256.378 363.053 258.291 363.807C259.183 364.156 259.753 363.981 260.939 363.944C260.939 363.944 264.36 363.825 267.477 365.222C270.76 366.692 270.272 368.898 272.801 369.899C276.46 371.351 282.024 368.53 282.097 366.196C282.152 364.422 278.971 364.119 273.867 360.71C270.419 358.403 269.785 357.153 260.056 346.897C257.289 343.975 255.017 341.632 253.583 340.161L246.604 346.815H246.595Z" fill="#FF7D7A"/>
<path d="M255.542 342.192L256.342 343.028C256.176 343.892 255.854 345.023 255.201 346.226C253.997 348.46 252.314 349.755 251.349 350.389C251.045 350.123 250.733 349.847 250.402 349.572C249.62 348.919 248.848 348.34 248.103 347.816C250.576 345.942 253.059 344.067 255.532 342.192H255.542Z" fill="#FF6759"/>
<path d="M161.724 319.824C182.762 304.67 198.422 293.743 202.339 291.381C203.065 290.94 204.61 290.067 206.761 289.544C210.09 288.735 212.895 289.36 214.09 289.635C221.161 291.234 227.018 297.052 227.331 297.355C233.997 303.962 246.99 315.45 264.351 330.889C262.87 334.234 259.008 341.723 250.604 347.596C242.898 352.981 235.294 354.267 231.662 354.644C228.49 348.368 224.149 340.097 218.66 330.521C212.012 318.923 209.814 316.111 207.396 316.295C202.973 316.635 203.497 326.992 195.139 339.996C191.424 345.785 184.896 356.041 172.96 359.248C170.524 359.901 161.54 362.354 152.814 357.392C147.324 354.267 144.483 349.654 143.26 347.311C149.412 338.158 155.563 328.995 161.715 319.842L161.724 319.824Z" fill="#933A45"/>
<path d="M145.117 343.855C147.701 345.822 157.154 352.549 168.326 350.371C177.585 348.561 183.286 341.42 188.013 335.52C199.479 321.202 197.943 310.496 205.768 308.355C212.628 306.48 220.333 312.895 223.359 315.422C232.278 322.857 232.692 328.655 241.188 334.969C247.036 339.306 253.16 340.97 257.289 341.696C254.585 344.618 249.629 349.176 242.135 352.108C238.163 353.661 234.531 354.341 231.662 354.644C225.731 342.707 220.26 333.14 216.094 326.248C212.876 320.918 210.237 315.9 207.396 316.286C205.106 316.598 204.417 320.127 201.327 327.295C199.332 331.945 196.399 338.663 191.516 345.307C186.707 351.86 181.898 355.765 176.464 358.035C176.252 358.127 176.087 358.191 176.031 358.21C173.089 359.377 165.549 362.235 156.85 359.175C148.777 356.335 144.667 350.15 143.444 348.138L145.127 343.855H145.117Z" fill="#7D3036"/>
<path d="M220.389 319.457H204.122C203.102 319.457 202.118 319.613 201.198 319.916C197.392 321.147 194.642 324.695 194.642 328.876V366.325H110.36V328.876C110.36 324.686 107.61 321.138 103.804 319.916C102.884 319.613 101.9 319.457 100.88 319.457H84.6135C77.239 319.457 71.2714 325.393 71.2714 332.708C71.2714 336.366 72.7702 339.693 75.1793 342.091C77.5976 344.49 80.9262 345.978 84.6135 345.978H85.579V366.334V392.139C85.579 397.552 89.965 401.935 95.381 401.935H209.731C215.138 401.935 219.524 397.552 219.524 392.148V366.334H219.432V345.978H220.398C224.085 345.978 227.414 344.49 229.832 342.091C232.25 339.693 233.74 336.366 233.74 332.708C233.74 325.393 227.763 319.457 220.398 319.457H220.389Z" fill="#B9D0FC"/>
<path d="M104.218 393.416H90.8478V339.619H87.9054C86.0664 339.619 84.3377 338.902 83.0228 337.606C81.6159 336.2 80.8803 334.243 81.0183 332.249C81.2573 328.646 84.3837 325.834 88.1353 325.834H101.376C102.939 325.834 104.208 327.102 104.208 328.665V393.425L104.218 393.416ZM91.6846 392.58H103.381V328.656C103.381 327.553 102.489 326.661 101.385 326.661H88.1445C84.825 326.661 82.0665 329.143 81.855 332.304C81.7355 334.068 82.3791 335.778 83.6113 337.018C84.7607 338.158 86.2871 338.792 87.9054 338.792H91.6846V392.589V392.58Z" fill="#97B8FF"/>
<path d="M214.154 393.416H200.785V328.655C200.785 327.093 202.054 325.825 203.617 325.825H216.858C220.609 325.825 223.736 328.646 223.975 332.239C224.113 334.243 223.377 336.191 221.97 337.597C220.655 338.902 218.927 339.619 217.088 339.619H214.145V393.416H214.154ZM201.621 392.58H213.318V338.783H217.097C218.715 338.783 220.232 338.149 221.391 337.009C222.632 335.768 223.267 334.059 223.147 332.295C222.936 329.133 220.168 326.652 216.858 326.652H203.617C202.513 326.652 201.621 327.543 201.621 328.646V392.571V392.58Z" fill="#97B8FF"/>
<path d="M76.5034 297.704C75.7218 294.92 73.3678 285.757 75.2804 277.284C75.8413 274.794 76.393 272.331 78.2596 269.758C80.3469 266.872 81.7906 267.019 83.0871 264.437C84.4664 261.689 83.271 260.164 84.4388 256.038C85.0273 253.979 85.8548 252.389 86.4617 251.378C81.386 252.233 79.7125 250.919 79.0964 250.138C76.2735 246.59 80.2734 235.351 87.795 234.129C93.4776 233.21 98.0843 238.503 98.4705 238.954C98.774 238.742 99.1142 238.522 99.4912 238.283C99.9969 237.961 102.167 236.721 103.105 236.27C113.688 231.152 120.631 233.32 120.631 233.32C122.157 233.798 124.309 234.506 125.872 236.509C127.996 239.248 127.877 242.942 127.858 243.457C127.766 245.598 127.049 247.169 127.674 249.954C127.674 249.954 127.812 250.652 128.088 251.378C129.67 255.468 134.727 259.98 134.727 259.98C137.568 262.507 141.844 266.312 143.94 271.596C144.814 273.811 146.46 277.937 144.584 281.705C142.221 286.437 135.738 287.687 134.267 287.871C131.72 288.193 131.242 287.595 124.29 287.081C118.442 286.649 117.964 287.007 117.118 286.529C114.35 284.949 113.56 277.624 121.348 253.418C116.833 254.935 112.328 256.451 107.813 257.967C106.948 259.015 105.836 260.66 105.238 262.856C103.638 268.701 106.829 274.141 108.374 276.954C111.472 282.605 115.187 290.895 118.792 303.494C115.252 305.01 105.873 308.465 94.1856 306.076C85.5146 304.302 79.5102 300.121 76.5126 297.695L76.5034 297.704Z" fill="black"/>
<path d="M182.79 292.043C184.408 286.851 186.817 284.489 188.813 283.294C190.817 282.1 193.208 281.604 194.688 279.076C195.451 277.771 195.185 277.266 196.159 275.704C197.851 272.974 199.81 272.754 199.672 271.633C199.442 269.804 195.497 267.929 192.803 269.004C190.514 269.914 190.56 273.452 187.884 274.665C186.9 275.106 186.376 274.904 186.21 274.821C185.392 274.426 185.254 273.222 185.236 273.057C185.089 271.78 185.861 271.394 186.118 269.574C186.229 268.821 186.275 267.543 185.934 267.442C185.557 267.323 184.84 268.655 184.169 269.905C183.36 271.403 182.827 272.395 182.496 273.801C182.054 275.658 182.477 276.071 182.22 277.56C182.008 278.773 181.447 279.821 179.25 282.55C177.953 284.158 176.087 286.29 173.585 288.606C176.647 289.755 179.709 290.894 182.781 292.043H182.79Z" fill="#FF7D7A"/>
<path d="M181.392 279.655C182.385 280.565 183.452 281.64 184.509 282.908C185.208 283.736 185.824 284.544 186.367 285.325L186.036 285.693C183.663 284.792 181.282 283.901 178.909 283L181.392 279.655Z" fill="#FF6759"/>
<path d="M116.116 282.394C116.585 283.129 117.422 284.186 118.764 284.82C120.879 285.813 123.04 285.243 125.201 284.59C128.539 283.589 129.026 282.954 131.83 282.348C131.83 282.348 134.414 281.787 137.403 281.98C141.035 282.21 149.062 287.329 153.467 290.058C159.223 293.624 160.06 294.276 161.705 294.129C165.117 293.826 167.894 290.766 171.232 287.09C174.91 283.037 174.818 281.76 176.556 281.273C181.88 279.775 191.35 289.286 189.677 294.635C188.969 296.914 186.781 296.656 181.88 300.075C174.34 305.341 175.231 308.934 170.128 311.323C162.496 314.889 153.696 310.046 153.283 311.397C153.062 312.114 155.379 313.97 157.926 314.549C160.17 315.055 161.751 314.218 162.938 315.293C163.885 316.148 163.875 317.6 163.866 318.28C163.774 323.187 158.487 325.889 155.738 331.33C152.041 338.626 157.402 342.413 152.795 350.555C151.784 352.347 149.687 356.225 145.862 356.988C143.545 357.456 141.072 356.694 140.17 356.372C139.407 356.096 137.954 355.499 136.483 354.277C133.991 352.218 133.035 349.718 132.502 348.57C131.003 345.372 129.081 344.765 122.47 339.665C118.314 336.448 115.914 334.243 114.277 332.589C113.376 331.67 112.171 330.218 110.13 328.306C109.22 327.461 107.942 326.257 106.204 324.934C101.799 321.588 99.7303 321.469 97.2568 318.39C96.4109 317.334 95.896 316.415 95.7029 316.038C93.7995 312.334 93.1007 306.931 95.1052 302.51C97.7626 296.656 104.07 295.499 105.183 289.562C105.689 286.888 104.889 284.517 104.282 283.129C108.227 282.881 112.181 282.642 116.125 282.394H116.116Z" fill="#FCFFFD"/>
<path d="M112.861 313.262C114.24 316.773 116.53 318.988 120.107 320.486C116.052 321.662 111.629 317.288 112.861 313.262Z" fill="#F3F3F5"/>
<path d="M137.09 293.642C139.131 294.01 141.164 294.956 142.699 296.565C143.481 297.346 144.069 298.32 144.511 299.358C144.924 300.415 145.099 301.5 145.283 302.492C145.439 303.485 145.66 304.394 146.046 305.249C146.405 306.122 146.947 306.903 147.573 307.638C148.851 309.1 150.552 310.23 152.363 311.259C150.322 310.882 148.29 310.028 146.644 308.557C145.816 307.831 145.136 306.922 144.621 305.929C144.106 304.918 143.83 303.815 143.646 302.786C143.481 301.748 143.334 300.792 143.039 299.91C142.754 299.018 142.295 298.191 141.724 297.419C140.575 295.875 138.92 294.672 137.108 293.652L137.09 293.642Z" fill="#F3F3F5"/>
<path d="M101.137 278.36C101.974 279.251 106.259 283.984 105.174 289.562C105.027 290.334 104.751 291.225 104.264 292.181C105.955 292.475 111.417 293.192 116.686 289.957C119.086 288.477 120.658 286.667 121.606 285.344C121.311 285.381 119.573 285.583 118.13 284.351C117.21 283.57 116.879 282.596 116.769 282.182C111.564 280.905 106.351 279.628 101.146 278.35L101.137 278.36Z" fill="#FF8776"/>
<path d="M101.137 278.36C102.728 280.069 107.215 284.425 113.974 285.031C115.776 285.197 117.394 285.059 118.764 284.811C118.479 284.664 118.038 284.397 117.624 283.919C117.173 283.396 116.971 282.863 116.87 282.55C111.62 281.153 106.378 279.756 101.128 278.36H101.137Z" fill="#FF6759"/>
<path d="M111.794 248.373C122.488 250.505 128.29 273.673 120.585 280.326C116.677 283.708 107.951 282.807 102.388 279.251C100.76 278.213 99.6752 277.101 99.1786 276.577C98.8844 276.264 92.9259 269.712 94.5811 261.698C96.3649 253.078 105.441 247.114 111.794 248.382V248.373Z" fill="#FF8776"/>
<path d="M109.036 315.229C111.206 319.383 111.454 321.313 113.495 325.136C116.493 330.769 119.95 334.748 122.332 337.184C121.146 336.844 119.417 336.2 117.624 334.96C115.702 333.618 114.608 332.203 114.038 331.495C112.171 329.216 109.937 327.617 105.468 324.419C98.9671 319.769 93.5236 317.407 92.0892 316.81C91.2064 316.442 90.572 316.194 90.2777 316.075C80.2275 312.077 57.2305 284.664 64.1452 275.198C67.6026 270.475 77.7264 271.32 80.5953 271.559C84.8342 271.917 88.1904 273.121 90.3329 274.086C92.1168 277.128 93.9006 280.161 95.6753 283.203C94.2132 284.186 91.9696 285.362 89.1375 285.472C86.8847 285.564 85.3491 284.939 84.9446 285.592C84.3009 286.63 87.3905 289.617 88.3651 290.536C91.2708 293.238 94.6638 296.399 99.0407 296.032C100.061 295.949 100.871 295.692 101.349 295.508C100.677 296.803 99.8866 298.788 100.025 301.159C100.328 306.278 105.1 307.739 109.027 315.238L109.036 315.229Z" fill="white"/>
<path d="M119.73 263.362C119.619 262.921 119.923 262.507 120.465 261.79C121.118 260.936 121.789 260.348 122.277 259.98C122.497 260.605 122.7 261.276 122.902 261.974C123.132 262.783 123.325 263.564 123.481 264.299C123.15 264.4 122.617 264.529 121.955 264.474C121.835 264.465 119.969 264.29 119.73 263.362Z" fill="#F67057"/>
<path d="M107.638 266.78C106.728 265.402 101.275 266.633 101.137 267.984C101.036 269.014 103.896 271.118 106.057 269.933C107.307 269.243 108.144 267.543 107.638 266.78Z" fill="#F67057"/>
<path d="M102.461 266.808C104.264 266.45 105.312 266.009 106.912 265.099C108.659 264.235 110.847 264.823 112.089 266.211C110.479 266.137 109.017 265.926 107.62 266.615C106.25 267.451 103.942 267.837 102.471 266.808H102.461Z" fill="black"/>
<path d="M122.332 259.098C122.387 260.614 120.98 262.066 119.757 262.581C118.635 263.187 118.038 264.207 117.183 265.255C116.787 263.711 117.477 261.919 118.93 261.129C120.355 260.476 121.1 260.053 122.332 259.098Z" fill="black"/>
<path d="M125.182 253.547C123.73 256.736 120.649 258.115 119.766 258.501C112.447 261.653 105.551 255.597 102.526 258.749C101.33 259.998 102.333 261.028 100.3 265.797C99.0866 268.664 98.6177 268.545 98.1947 270.254C97.4683 273.204 98.2867 275.86 99.1878 278.672C100.65 283.239 102.167 284.361 101.477 285.601C100.53 287.283 96.5304 287.283 93.6799 286.162C87.3169 283.653 85.7261 275.235 85.5054 274.096C83.0411 261.055 94.3695 246.195 107.353 241.555C110.369 240.479 117.881 237.787 122.58 241.803C125.596 244.376 126.994 249.586 125.182 253.556V253.547Z" fill="black"/>
<path d="M115.252 264.216C116.594 265.981 117.946 267.755 119.288 269.519C118.948 269.74 118.396 270.015 117.808 269.877C116.971 269.675 116.576 268.729 116.079 267.46C115.785 266.716 115.426 265.613 115.252 264.207V264.216Z" fill="#FF6759"/>
<path d="M120.898 272.689C120.383 273.213 119.601 273.893 118.507 274.426C116.374 275.465 114.369 275.336 113.477 275.217C115.417 276.549 117.799 276.595 119.334 275.41C120.502 274.509 120.815 273.177 120.907 272.689H120.898Z" fill="#FF6759"/>
<path d="M110.148 259.493C110.203 259.677 109.431 259.925 106.332 261.45C103.289 262.948 102.553 263.426 102.434 263.27C102.25 263.022 103.611 261.395 105.532 260.393C107.684 259.272 110.066 259.18 110.158 259.493H110.148Z" fill="black"/>
<path d="M63.0417 280.152C64.8808 285.408 67.8416 291.253 72.8162 296.482C77.8459 301.757 81.7722 303.089 89.1099 308.971C93.2109 312.261 98.066 316.727 103.022 322.728C101.652 321.827 99.4912 320.476 96.7419 319.006C93.0086 317.012 90.6915 316.139 88.9904 315.358C80.2642 311.369 74.6736 303.907 71.7036 299.937C70.2783 298.035 68.3841 295.471 66.5819 291.648C64.4578 287.136 63.5107 283.046 63.0417 280.142V280.152Z" fill="#F3F3F5"/>
<path d="M140.934 352.595C142.745 352.815 143.591 351.428 146.506 350.463C149.108 349.599 151.499 349.7 153.136 349.921C152.768 350.711 152.188 351.786 151.306 352.935C150.478 354.01 149.384 355.444 147.747 356.308C145.062 357.714 142.175 356.951 141.09 356.666C137.541 355.729 134.672 353.082 133.274 350.325C132.676 349.149 132.686 348.616 131.849 347.412C130.92 346.079 129.863 345.243 127.803 343.644C127.04 343.047 126.102 342.348 125.008 341.595C130.736 342.817 133.872 345.206 135.711 347.338C137.78 349.746 138.616 352.31 140.943 352.595H140.934Z" fill="#F3F3F5"/>
<path d="M155.021 316.902C154.827 316.644 149.623 318.749 146.975 323.215C142.58 330.604 147.646 340.281 148.336 340.17C149.09 340.042 145.007 328.251 151.186 320.624C152.952 318.446 155.158 317.085 155.021 316.911V316.902Z" fill="#F3F3F5"/>
<path d="M208.628 253.336L207.083 253.372H207.065L193.732 253.63C192.675 253.648 191.553 254.521 191.24 255.578L184.086 279.131C183.765 280.188 184.344 281.08 185.383 281.126L198.486 281.622H198.578L200.031 281.677C201.143 281.723 202.32 280.868 202.651 279.766L210.081 255.275C210.412 254.181 209.759 253.308 208.628 253.326V253.336ZM201.226 272.68L200.27 275.832C197.649 269.381 195.056 262.985 192.481 256.635C192.858 256.157 193.465 255.817 194.035 255.817H194.137C196.472 261.395 198.835 267.019 201.226 272.68ZM189.824 264.942L191.636 258.987C194.219 265.347 196.822 271.78 199.461 278.249C199.102 278.828 198.403 279.233 197.732 279.205L194.698 279.086C193.07 274.344 191.442 269.629 189.833 264.942H189.824Z" fill="#000B06"/>
<path d="M207.083 253.363H207.065L193.732 253.621C192.675 253.639 191.553 254.512 191.24 255.569L184.086 279.122C183.765 280.179 184.344 281.071 185.383 281.116L198.486 281.613H198.578C199.654 281.613 200.775 280.767 201.097 279.701L208.499 255.293C208.84 254.199 208.196 253.336 207.083 253.354V253.363Z" fill="#4D4D4D"/>
<path d="M190.118 264.979C191.727 269.666 193.355 274.38 194.983 279.122L187.369 278.81C186.578 278.773 186.128 278.121 186.367 277.34L190.118 264.979Z" fill="#999999"/>
<path d="M192.776 256.662C195.35 263.003 197.943 269.409 200.564 275.86L199.957 277.863C199.92 278.019 199.847 278.157 199.755 278.286C197.116 271.816 194.514 265.383 191.93 259.024L192.463 257.26C192.527 257.048 192.638 256.855 192.785 256.672L192.776 256.662Z" fill="#999999"/>
<path d="M206.219 257.214L201.52 272.708C199.139 267.047 196.776 261.414 194.431 255.845L205.134 255.78C205.971 255.78 206.458 256.424 206.219 257.214Z" fill="#999999"/>
<path d="M199.746 278.286C199.387 278.865 198.688 279.269 198.017 279.242L194.983 279.122C193.355 274.38 191.727 269.666 190.118 264.979L191.93 259.024C194.514 265.384 197.116 271.816 199.755 278.286H199.746Z" fill="#E6E6E6"/>
<path d="M201.52 272.708L200.564 275.86C197.943 269.409 195.35 263.013 192.776 256.662C193.153 256.185 193.76 255.844 194.33 255.844H194.431C196.766 261.423 199.129 267.047 201.52 272.708Z" fill="#E6E6E6"/>
<path d="M110.719 265.319C110.921 266.734 110.176 267.828 109.514 267.92C108.815 268.021 107.73 267.084 107.647 265.531C108.668 265.457 109.698 265.384 110.719 265.31V265.319Z" fill="black"/>
<path d="M121.504 261.028C122.231 262.268 121.909 263.5 121.357 263.766C120.861 264.005 119.904 263.582 119.297 262.599C120.033 262.075 120.769 261.551 121.504 261.028Z" fill="black"/>
<path d="M95.9511 238.31C95.3534 237.685 93.873 236.335 91.5374 235.802C88.0709 235.02 85.3399 236.647 84.7606 237.005C85.9284 236.629 88.1444 236.096 90.8846 236.491C93.2109 236.831 94.9396 237.695 95.9419 238.301L95.9511 238.31Z" fill="#4D4D4D"/>
<path d="M113.422 235.544C116.631 234.221 120.318 234.938 122.709 237.336C124.888 239.533 125.679 242.795 124.75 245.809C124.75 245.194 124.732 241.104 121.348 238.071C118.029 235.103 114.047 235.471 113.422 235.535V235.544Z" fill="#4D4D4D"/>
<path d="M134.341 264.851C135.334 265.365 139.637 267.727 141.338 272.892C142.377 276.035 141.973 278.782 141.678 280.124C141.568 278.387 141.219 276.044 140.216 273.452C138.561 269.151 135.95 266.33 134.332 264.851H134.341Z" fill="#4D4D4D"/>
<path d="M158.285 293.008C157.88 292.723 159.912 294.782 159.719 296.546C159.554 298.09 157.871 298.789 158.083 299.147C158.331 299.579 161.043 299.064 162.846 297.199C164.243 295.747 164.611 293.992 164.721 293.119C164.28 293.431 163.572 293.845 162.634 294.028C160.437 294.451 158.689 293.302 158.285 293.017V293.008Z" fill="#F3F3F5"/>
<path d="M108.015 431.186C116.769 431.186 125.927 433.263 125.844 434.155C125.679 435.809 93.4133 434.798 93.3581 433.162C93.3305 432.335 101.431 431.177 108.024 431.186H108.015Z" fill="black"/>
<path d="M103.16 408.984C103.16 411.392 96.4936 413.092 94.9212 413.487C88.7053 415.067 80.3193 414.645 79.3814 411.621C78.7286 409.517 81.8089 406.512 84.356 405.096C91.8776 400.906 103.151 405.85 103.16 408.975V408.984Z" fill="black"/>
<path d="M101.257 432.124C97.2292 433.125 91.8133 434.044 85.3951 433.989C79.5194 433.934 74.5265 433.07 70.7105 432.124C70.076 424.983 69.4507 417.834 68.8163 410.693H103.151L101.257 432.124Z" fill="#E6E6E6"/>
<path d="M88.6318 410.693C88.6961 418.44 88.7605 426.178 88.8249 433.925C90.2225 433.861 91.7029 433.75 93.2385 433.576C96.1809 433.236 98.8659 432.721 101.257 432.124C101.891 424.983 102.516 417.834 103.151 410.693H88.6226H88.6318Z" fill="#CCCCCC"/>
<path d="M131.196 387.048C132.079 388.84 132.189 391.22 131.132 393.15C129.302 396.486 124.842 396.917 122.093 396.339C121.21 396.155 118.056 395.484 116.842 392.846C115.408 389.722 117.385 385.366 120.723 383.684C124.484 381.791 129.458 383.537 131.196 387.057V387.048Z" fill="black"/>
<path d="M113.413 384.447C113.495 384.043 114.121 380.955 112.328 378.703C110.746 376.728 108.153 376.461 107.353 376.378C99.1142 375.533 87.6203 390.025 90.103 393.775C92.6776 397.653 111.813 392.332 113.413 384.456V384.447Z" fill="black"/>
<path d="M103.399 346.282C104.107 345.409 105.054 344.425 106.103 344.536C107.969 344.729 109.174 348.267 109.541 350.454C110.489 356.106 107.436 361.84 103.454 365.323C101.523 367.014 98.9119 369.293 97.312 368.484C93.8086 366.72 98.7464 352.034 103.39 346.282H103.399Z" fill="black"/>
<path d="M59.8235 389.851C60.7062 391.643 60.8166 394.023 59.7591 395.953C57.9845 399.197 53.5984 400.511 50.7203 399.141C46.3527 397.055 45.8285 389.005 49.3503 386.487C52.2375 384.419 57.9201 386 59.8235 389.86V389.851Z" fill="black"/>
<path d="M112.015 383.675C112.309 384.006 118.893 380.054 124.759 372.335C131.444 363.54 131.334 357.567 131.26 356.06C131.196 354.883 130.938 349.948 128.493 349.204C127.316 348.846 125.569 349.434 124.741 350.564C123.821 351.823 124.456 353.22 123.518 353.827C122.773 354.314 122.157 353.505 121.035 353.863C119.656 354.295 118.847 356.041 118.709 357.392C118.589 358.559 118.966 359.487 119.481 360.563C121.118 364.009 122.534 365.415 122.902 366.435C125.283 372.951 111.583 383.17 112.024 383.675H112.015Z" fill="#386414"/>
<path d="M78.8482 368.273C79.2804 368.245 75.6575 347.072 84.209 342.394C86.002 341.411 88.3284 341.154 90.9674 338.617C91.5007 338.112 95.7948 333.903 94.388 330.852C93.7535 329.483 92.0708 328.564 90.5076 328.527C86.379 328.417 83.2527 334.436 81.8091 337.22C74.2139 351.841 78.4712 368.3 78.8574 368.282L78.8482 368.273Z" fill="#386414"/>
<path d="M93.827 406.594C95.9327 407.183 96.0798 408.276 98.489 409.756C102.995 412.522 110.535 413.68 116.199 409.912C116.934 409.425 121.293 406.429 122.258 401.218C123.463 394.74 118.341 390.687 120.235 388.178C121.799 386.11 125.477 388.582 132.98 387.553C134.754 387.314 144.501 385.982 146.184 380.413C146.294 380.045 146.984 377.619 145.715 375.753C142.717 371.351 130.902 373.143 122.534 376.792C118.332 378.621 116.456 380.284 111.978 382.921C109.266 384.52 107.252 386.239 103.758 387.25C100.549 388.178 97.1281 388.343 96.9809 387.792C96.8522 387.305 99.3533 386.625 102.544 384.732C105.349 383.068 109.45 380.633 111.454 376.314C113.155 372.647 113.716 366.812 110.902 364.422C108.098 362.042 104.162 364.955 102.084 362.989C98.2867 359.386 107.638 345.565 106.084 344.545C104.512 343.516 91.9052 355.701 91.1329 364.477C91.0961 364.919 90.8662 367.832 89.9191 367.997C89.0364 368.144 88.641 365.681 86.6548 364.735C84.2917 363.614 82.5446 366.003 80.1263 365.507C76.577 364.781 77.3678 359.019 72.9817 354.948C68.6048 350.886 60.7062 350.04 57.7546 353.082C56.1454 354.745 56.0075 357.567 55.888 360.066C55.6765 364.487 57.0833 366.067 56.0443 367.207C54.5087 368.889 50.8674 366.04 45.0101 366.279C44.0539 366.315 36.7437 366.619 34.7576 370.469C32.2289 375.377 38.4724 387.7 47.9618 390.815C52.5869 392.332 57.6167 391.514 57.773 392.635C57.9017 393.591 54.1685 393.885 51.8421 396.725C49.2859 399.84 48.9548 405.482 51.0697 408.993C55.0052 415.545 71.4369 416.997 81.9929 410.858C85.4319 408.855 89.4042 405.381 93.7994 406.604L93.827 406.594Z" fill="#386414"/>
</g>
<defs>
<clipPath id="clip0_388_5413">
<rect width="669" height="435" fill="white"/>
</clipPath>
</defs>
</svg>
