<svg width="85" height="86" viewBox="0 0 85 86" fill="none" xmlns="http://www.w3.org/2000/svg">
<path d="M42.4795 86C65.7733 86 85 66.5377 85 43C85 19.4623 65.7322 0 42.4384 0C19.1856 0 0 19.4623 0 43C0 66.5377 19.2267 86 42.4795 86ZM42.4384 49.7785C34.3862 49.7369 28.1416 42.9168 28.1416 33.8927C28.0595 25.4091 34.4273 18.3395 42.4384 18.3395C50.4495 18.3395 56.7351 25.4091 56.7351 33.8927C56.7351 42.9168 50.4906 49.8617 42.4384 49.7785ZM42.4384 78.8888C33.2359 78.8888 23.4582 75.0213 17.2547 68.2843C21.9792 61.1315 31.3461 56.9729 42.4384 56.9729C53.4074 56.9729 62.8565 61.0484 67.622 68.2843C61.4186 75.0213 51.6409 78.8888 42.4384 78.8888Z" fill="#D9D9D9"/>
</svg>
