<svg width="12" height="13" viewBox="0 0 12 13" fill="none" xmlns="http://www.w3.org/2000/svg">
<path d="M0 8.76993C0 10.7582 1.24977 12.386 2.85346 12.386H4.67281C5.41935 12.7747 6.30415 13 7.27742 13H8.05161C8.77051 13 9.38433 12.9549 9.78249 12.8536C10.5954 12.6451 11.1097 12.0594 11.1097 11.3215C11.1097 11.1863 11.0931 11.068 11.0544 10.9441C11.4359 10.6456 11.6516 10.2006 11.6516 9.7162C11.6516 9.4909 11.6074 9.27123 11.53 9.08536C11.7843 8.80936 11.9336 8.41508 11.9336 8.0039C11.9336 7.7279 11.8673 7.45754 11.7567 7.2435C11.9115 7.0013 12 6.68024 12 6.33102C12 5.42981 11.3253 4.737 10.4516 4.737H8.39447C8.27834 4.737 8.20092 4.68068 8.20645 4.57366C8.2341 3.98787 9.12995 2.59662 9.12995 1.45321C9.12995 0.613952 8.54931 0 7.74747 0C7.16682 0 6.76866 0.309792 6.3871 1.04766C5.70138 2.39948 4.86636 3.58232 3.63318 5.12565H2.64332C1.13917 5.12565 0 6.74783 0 8.76993ZM3.44516 8.72487C3.44516 7.53076 3.70507 6.76473 4.45714 5.74523C5.29217 4.60182 6.45346 3.2331 7.28848 1.53206C7.46544 1.17721 7.5871 1.08709 7.76406 1.08709C7.97419 1.08709 8.11244 1.2448 8.11244 1.51516C8.11244 2.34879 7.17235 3.74567 7.17235 4.65815C7.17235 5.33969 7.70876 5.7734 8.43871 5.7734H10.424C10.7447 5.7734 10.9825 6.02123 10.9825 6.34792C10.9825 6.57886 10.9106 6.73094 10.7171 6.92244C10.5733 7.06889 10.5512 7.28293 10.6783 7.43501C10.8387 7.66031 10.9051 7.81239 10.9051 8.0039C10.9051 8.23484 10.8 8.43198 10.5788 8.59532C10.3908 8.73614 10.3244 8.96144 10.435 9.18674C10.5512 9.41768 10.612 9.53033 10.612 9.71057C10.612 9.98094 10.4406 10.1837 10.0977 10.3696C9.91521 10.471 9.86544 10.6737 9.94286 10.8484C10.059 11.1356 10.0756 11.1919 10.07 11.3159C10.07 11.5581 9.89862 11.7496 9.52811 11.8453C9.20184 11.9242 8.68203 11.9636 7.99631 11.958L7.28295 11.9523C4.99355 11.9298 3.44516 10.6174 3.44516 8.72487ZM1.00645 8.76993C1.00645 7.33925 1.72535 6.19584 2.55484 6.15641C2.69862 6.15641 2.8424 6.15641 2.98618 6.15641C2.59355 6.93371 2.42212 7.75043 2.42212 8.72487C2.42212 9.76126 2.77604 10.6737 3.42304 11.3834C3.21843 11.3834 3.00276 11.3834 2.79263 11.3834C1.82488 11.344 1.00645 10.1837 1.00645 8.76993Z" fill="#2D9CDB"/>
</svg>
