<svg width="24" height="24" xmlns="http://www.w3.org/2000/svg"><path d="M8.888 7.48c.181-.16.38-.312.596-.456A4.278 4.278 0 0 1 11 6.396a4.65 4.65 0 0 1 .952-.092c.464 0 .887.064 1.268.192s.708.31.98.548c.272.237.483.524.632.86.15.336.224.712.224 1.128 0 .405-.059.756-.176 1.052a2.962 2.962 0 0 1-.44.772c-.176.219-.37.408-.58.568l-.596.452c-.187.141-.348.28-.484.416a.821.821 0 0 0-.244.46l-.184 1.168H11l-.136-1.304a1.06 1.06 0 0 1 .108-.66c.104-.19.243-.363.416-.52a5.44 5.44 0 0 1 .58-.456c.213-.147.413-.307.6-.48s.343-.368.468-.584c.125-.216.188-.473.188-.772 0-.192-.036-.364-.108-.516a1.167 1.167 0 0 0-.3-.392 1.345 1.345 0 0 0-.46-.252 1.849 1.849 0 0 0-.58-.088c-.304 0-.561.033-.772.1-.21.067-.39.141-.536.224a6.57 6.57 0 0 0-.372.224.511.511 0 0 1-.272.1.437.437 0 0 1-.416-.24l-.52-.824zm1.512 9.432a1.23 1.23 0 0 1 .344-.856 1.21 1.21 0 0 1 .864-.352c.17 0 .33.032.476.096.147.064.275.15.384.256.11.107.196.235.26.384.064.15.096.307.096.472a1.177 1.177 0 0 1-.356.856 1.215 1.215 0 0 1-.86.344c-.17 0-.33-.03-.48-.092a1.158 1.158 0 0 1-.384-.252 1.168 1.168 0 0 1-.252-.38 1.221 1.221 0 0 1-.092-.476z" fill="#4099FB" fill-rule="evenodd"/></svg>