<svg width="72" height="72" fill="none" xmlns="http://www.w3.org/2000/svg"><path d="M67.5 27.601c-.002-.355-.245-.678-.62-.836-4.984-2.09-7.722-5.805-8.14-11.044-.321-4.025.91-7.478.921-7.512.133-.357-.002-.745-.338-.99C54.19 3.483 48.129 1.72 43.95.9 39.43.01 36.14 0 36.002 0c-.137 0-3.428.01-7.949.899-4.18.82-10.24 2.583-15.376 6.32-.336.243-.468.632-.338.989.012.034 1.243 3.488.923 7.512-.418 5.24-3.157 8.954-8.14 11.044-.379.158-.619.482-.622.837-.003.312-.023 7.743 3.762 16.961 2.225 5.42 5.312 10.32 9.176 14.565 4.837 5.316 10.907 9.612 18.04 12.765a1.302 1.302 0 0 0 1.044 0c7.135-3.154 13.204-7.449 18.042-12.765 3.862-4.245 6.95-9.145 9.175-14.565 3.783-9.216 3.765-16.648 3.76-16.96z" fill="url(#paint0_linear)"/><path fill-rule="evenodd" clip-rule="evenodd" d="M36 44.752l-9.549 4.594c-.717.346-1.603.09-1.977-.572a1.26 1.26 0 0 1-.145-.856l1.82-9.715-7.703-6.872a1.278 1.278 0 0 1-.034-1.911c.226-.215.523-.355.845-.398l10.655-1.417 4.775-8.855c.36-.668 1.24-.94 1.966-.608.285.13.517.344.66.608l4.775 8.855 10.655 1.417c.801.107 1.357.792 1.242 1.53-.047.297-.198.57-.432.779l-7.703 6.872 1.821 9.715c.138.736-.397 1.435-1.195 1.562-.317.05-.643.004-.928-.134L36 44.752z" fill="#fff"/><defs><linearGradient id="paint0_linear" x1="36" y1="0" x2="36" y2="72" gradientUnits="userSpaceOnUse"><stop stop-color="#589AE4"/><stop offset="1" stop-color="#2776CF"/></linearGradient></defs></svg>