<svg width="60" height="60" viewBox="0 0 60 60" fill="none" xmlns="http://www.w3.org/2000/svg">
<rect width="60" height="60" rx="7" fill="#FFA200"/>
<path d="M32.9282 48C38.6944 48 42.1652 45.9273 42.1652 42.4682V34.8777C44.5865 32.7491 46 29.346 46 25.5787C46 16.8259 40.3318 11 31.8226 11C23.3553 11 17.7151 16.6998 17.7151 25.2706C17.7151 25.7468 17.7291 26.1529 17.7711 26.545L15.7558 30.1582C15.2379 31.0685 15 31.9368 15 32.7491C15 34.2896 15.9657 35.536 17.7151 35.9001V38.743C17.7151 41.6139 19.6885 43.0424 22.4316 42.7483L23.8312 42.5942C23.9151 45.9833 27.316 48 32.9282 48ZM32.9282 45.2971C28.8415 45.2971 26.3923 44.0367 26.3923 42.0061V40.0874C26.3923 39.7653 26.1964 39.6113 25.8885 39.6393L22.1097 40.0454C21.0041 40.1715 20.4163 39.6953 20.4163 38.5329V34.0795C20.4163 33.8554 20.2483 33.7014 20.0104 33.7014H19.2406C18.3449 33.7014 17.8271 33.2532 17.8271 32.553C17.8271 32.1889 17.953 31.7547 18.205 31.3206L20.5562 27.0912C20.4582 26.461 20.4023 25.8448 20.4023 25.2286C20.4023 18.3104 24.9648 13.7029 31.8226 13.7029C38.7084 13.7029 43.2989 18.4504 43.2989 25.5787C43.2989 29.0519 41.8433 32.0628 39.4501 33.5193V42.0061C39.4501 44.0367 37.0009 45.2971 32.9282 45.2971ZM22.5856 22.9739C22.5856 25.6488 24.433 27.4693 27.1901 27.4693C27.5679 27.4693 27.9178 27.4413 28.2537 27.3713C29.0935 28.0995 30.2971 28.5197 31.6126 28.5197C32.1165 28.5197 32.6623 28.4637 33.1941 28.3236C33.726 28.8558 34.5237 29.1639 35.4614 29.1639H35.8113C36.0632 30.5643 36.9729 31.5167 38.1205 31.5167C39.772 31.5167 40.9476 29.6821 40.9476 27.0772C40.9476 26.391 40.9196 25.8588 40.8777 25.3827C41.3535 24.7665 41.6194 23.9542 41.6194 23.0159C41.6194 21.1533 40.3878 19.6968 38.5124 19.2907C38.1065 17.6522 36.693 16.4758 34.9716 16.4758C34.8456 16.4758 34.6777 16.5038 34.5097 16.5318C33.8939 15.8456 32.9702 15.4254 31.9765 15.4254C30.8849 15.4254 29.9332 15.8316 29.2754 16.5038C28.7856 16.3077 28.2817 16.2097 27.7499 16.2097C25.8745 16.2097 24.4609 17.4981 24.4609 19.2487V19.2627C23.2993 20.103 22.5856 21.5034 22.5856 22.9739ZM28.2537 19.0386C28.2397 19.5008 28.5616 19.8369 29.0095 19.8369C29.4573 19.8369 29.7512 19.5428 29.7792 19.0946C29.8212 17.8342 30.7309 16.9519 31.9765 16.9519C32.7043 16.9519 33.3621 17.3441 33.628 17.9463C33.74 18.1563 33.9639 18.1703 34.2858 18.0863C34.4537 18.0443 34.6357 18.0163 34.8316 18.0163C36.1052 18.0303 37.0849 19.0106 37.0849 20.299C37.0849 23.5061 32.4244 23.0299 32.4244 26.461C32.4244 26.6151 32.4384 26.7691 32.4664 26.9232C32.2284 26.9652 31.9765 26.9792 31.7386 26.9792C31.1508 26.9792 30.577 26.8531 30.1011 26.6431C31.1368 25.9428 31.7526 24.8085 31.7526 23.422C31.7526 23.338 31.7386 23.254 31.7386 23.1699C33.2221 22.7078 34.0059 21.6294 33.9919 19.9769C33.9919 19.5708 33.628 19.2067 33.2081 19.2067C32.8023 19.2067 32.4524 19.5568 32.4664 19.9769C32.4804 20.9152 32.1165 21.4614 31.3187 21.6995C31.1648 21.4474 30.9828 21.2233 30.7589 21.0413C30.465 20.7892 30.2691 20.6911 29.9892 20.6911C29.5553 20.6911 29.2474 20.9852 29.2474 21.3914C29.2474 21.8395 29.4853 21.9656 29.8212 22.2737C30.0871 22.5257 30.2271 22.9179 30.2271 23.394C30.2271 24.9205 29.0375 25.9288 27.2181 25.9288C25.3427 25.9288 24.1111 24.7665 24.1111 22.9739C24.1111 22.1896 24.405 21.4474 24.9228 20.9012C25.4406 21.6855 26.3503 22.1476 27.484 22.1476C27.8898 22.1476 28.2537 21.7975 28.2537 21.3914C28.2537 20.9712 27.9038 20.6211 27.484 20.6211C26.5883 20.6211 26.0005 20.0749 26.0005 19.2487C26.0005 18.3664 26.7282 17.7362 27.7359 17.7362C27.9738 17.7362 28.2257 17.7782 28.4637 17.8482C28.3377 18.2123 28.2677 18.6045 28.2537 19.0386ZM36.623 25.9989C36.623 26.405 36.9309 26.7271 37.3648 26.7691C38.1205 26.8251 38.8063 26.7131 39.3941 26.489C39.4081 26.6571 39.4081 26.8531 39.4081 27.0632C39.4081 28.7578 38.8203 29.9902 38.1205 29.9902C37.5047 29.9902 37.0849 29.2059 37.0849 28.0855C37.0849 27.8755 36.9309 27.7634 36.735 27.7634C36.553 27.7634 36.3291 27.7774 36.1192 27.7774C34.7056 27.7774 33.9779 27.3153 33.9779 26.419C33.9779 24.1363 38.2185 24.5844 38.6104 20.8592C39.5201 21.1253 40.0799 21.9235 40.0799 23.0159C40.0799 24.4724 39.0163 25.3687 37.3928 25.2426C36.9729 25.2146 36.623 25.5787 36.623 25.9989Z" fill="white"/>
</svg>
