<svg width="60" height="60" viewBox="0 0 60 60" fill="none" xmlns="http://www.w3.org/2000/svg">
<rect width="60" height="60" rx="7" fill="#FFA200"/>
<path d="M30.492 46C39.5355 46 47 38.5319 47 29.5C47 20.4681 39.5196 13 30.4761 13C21.4485 13 14 20.4681 14 29.5C14 38.5319 21.4645 46 30.492 46ZM22.7724 29.516C22.7724 28.5745 23.4422 27.9202 24.3673 27.9202H28.913V23.3723C28.913 22.4468 29.551 21.7926 30.4601 21.7926C31.4012 21.7926 32.0551 22.4468 32.0551 23.3723V27.9202H36.6167C37.5259 27.9202 38.1957 28.5745 38.1957 29.516C38.1957 30.4255 37.5259 31.0798 36.6167 31.0798H32.0551V35.6277C32.0551 36.5372 31.4012 37.2074 30.4601 37.2074C29.551 37.2074 28.913 36.5372 28.913 35.6277V31.0798H24.3673C23.4422 31.0798 22.7724 30.4255 22.7724 29.516Z" fill="white"/>
</svg>
