<svg width="721" height="243" viewBox="0 0 721 243" fill="none" xmlns="http://www.w3.org/2000/svg">
<g clip-path="url(#clip0_285_44574)">
<g clip-path="url(#clip1_285_44574)">
<path d="M93.738 240.9L101.921 248.295C101.921 248.295 94.2781 256.854 84.0119 261.087C75.3343 264.669 75.6449 246.815 75.6449 246.815L79.8072 240.603L93.738 240.9Z" fill="#CCCFE2"/>
<path d="M29.2384 239.067L15.3677 252.779C15.3677 252.779 25.235 260.929 35.4271 263.885L39.2081 243.013L29.2384 239.067Z" fill="#CCCFE2"/>
<path d="M84.015 261.087C84.015 261.087 69.3217 267.785 55.9946 266.533L59.9733 238.367L76.3683 232.616C76.3683 232.616 95.0615 230.385 97.2185 214.392C99.3756 198.399 85.8437 192.498 85.8437 192.498L99.1285 179.583C99.1285 179.583 116.611 195.352 113.546 215.035C110.673 233.491 95.3545 243.072 81.0248 246.892L84.015 261.087Z" fill="#DCDBE8"/>
<path d="M27.2578 181.168L39.0527 195.657C39.0527 195.657 29.1254 202.345 31.9461 215.753C33.9125 225.099 42.7384 228.685 42.7384 228.685L60.835 234.292L55.9949 266.537C55.9949 266.537 42.8373 266.694 35.427 263.889L38.742 244.856C38.742 244.856 17.1257 240.833 12.8928 218.712C8.29629 194.712 27.2578 181.168 27.2578 181.168Z" fill="#DCDBE8"/>
<path d="M54.9498 234.554L50.5298 266.526C50.5298 266.526 60.5454 267.733 68.937 265.876L66.7729 235.296L54.9498 234.554Z" fill="#E5E4EF"/>
<path d="M27.2578 181.168C27.2578 181.168 27.392 187.072 30.5305 190.836C33.6689 194.6 37.3334 196.867 39.0527 195.653C40.772 194.439 36.1402 188.821 34.2867 186.327C32.4368 183.837 28.8747 179.821 27.2578 181.168Z" fill="#CCCFE2"/>
<path d="M99.1287 179.58C100.689 181.311 98.818 184.729 95.0582 188.055C91.2983 191.382 87.8986 193.907 85.8439 192.494C83.7857 191.081 89.4237 184.61 90.0098 184.064C90.5958 183.518 96.5162 176.68 99.1287 179.58Z" fill="#CCCFE2"/>
<path d="M93.8542 178.282C93.5894 176.106 94.3732 172.786 94.5497 170.334C94.6379 169.085 94.3379 167.623 93.9071 166.514C93.4094 167.917 92.8339 169.295 92.2338 170.607C91.969 171.81 91.4041 173.419 91.4041 173.419L91.3265 172.52C90.0591 175.102 88.827 177.327 88.1668 178.852C86.9029 181.766 88.9788 184.722 90.9805 187.933C92.1667 188.234 93.2046 188.643 93.9354 189.203C93.9354 189.203 97.3704 186.663 98.8673 183.578C98.8638 183.581 94.119 180.461 93.8542 178.282Z" fill="#EFEEF4"/>
<path fill-rule="evenodd" clip-rule="evenodd" d="M37.3367 161.729C37.2026 161.47 36.8495 161.463 36.6977 161.712C36.5636 161.932 36.3976 162.23 36.2141 162.583L36.217 162.587C35.8111 163.374 35.3277 164.462 34.9572 165.78C34.2702 168.213 34.4701 171.26 34.5277 172.137C34.5355 172.256 34.5406 172.335 34.5406 172.367C34.431 171.811 34.3128 171.42 34.2088 171.076C34.0216 170.456 33.8807 169.99 33.9193 168.991C33.9864 167.263 33.4003 164.801 32.9661 165.066C32.5319 165.332 31.9282 168.365 31.9282 170.149C31.9282 170.9 32.2359 171.832 32.586 172.893C33.0676 174.353 33.6295 176.055 33.5804 177.862C33.4921 180.982 27.8647 185.18 27.8647 185.18C28.7791 189.706 31.3704 191.739 31.3704 191.739C32.7896 190.056 35.7304 187.538 38.883 185.481C38.8826 185.48 38.8822 185.48 38.8818 185.479C42.0796 183.392 45.4994 181.78 47.7653 182.004C49.7353 182.2 51.4652 182.508 52.3442 182.679C52.7114 182.752 53.0256 182.417 52.9585 182.035C52.6207 180.144 49.6963 179.536 47.4797 179.075C47.3103 179.04 47.1449 179.005 46.9851 178.971C44.4751 178.436 43.8643 176.82 43.0841 174.053C42.4957 171.969 43.1783 169.95 43.8462 167.975C44.064 167.331 44.2802 166.692 44.4503 166.056C44.9093 164.349 44.2068 163.723 43.6772 163.496C43.4124 163.384 43.1088 163.51 42.9817 163.772L41.7955 166.221C39.9774 169.698 40.4081 172.881 40.4081 172.881C39.8503 170.59 40.2033 168.558 41.153 165.528C41.8308 163.37 41.4072 162.216 41.1071 161.733C41.0047 161.568 40.7788 161.533 40.6376 161.663C39.3384 162.828 38.5052 164.454 37.9722 166.088C37.973 166.09 37.9738 166.092 37.9746 166.095C36.9555 169.224 37.0366 172.377 37.0366 172.377C36.6906 170.95 36.8601 168.071 37.6403 165.486C37.6515 165.451 37.6599 165.416 37.6682 165.383L37.6682 165.383C37.6729 165.363 37.6775 165.344 37.6827 165.325L37.68 165.319C38.1305 163.659 37.686 162.39 37.3367 161.729Z" fill="#EFEEF4"/>
<path d="M88.1635 178.856C88.8272 177.33 90.0593 175.109 91.3232 172.524L91.0125 168.897C91.0231 168.641 90.9949 168.386 90.9384 168.134C90.7195 167.186 90.1193 164.724 89.4556 163.349C89.3391 163.104 89.0461 162.989 88.8096 163.107C87.4963 163.769 88.5201 166.833 88.5589 168.159C88.6013 169.593 88.6013 173.385 88.6013 173.385C88.6013 173.385 87.6057 168.767 87.4116 167.973C87.0444 166.483 85.9041 164.8 85.0639 163.587C84.8732 163.31 84.4672 163.293 84.2731 163.566C83.2457 165.003 85.2263 168.781 85.2263 169.673C85.2263 170.67 85.4734 174.689 85.4734 174.689C85.4734 174.689 83.5246 168.033 81.2511 164.741C81.0534 164.458 80.6474 164.426 80.425 164.692C79.673 165.588 79.8213 167.424 80.2414 168.767C81.0357 171.307 83.1151 174.731 83.7682 177.929C84.2943 180.503 83.8812 184.347 81.237 184.169C78.5927 183.991 74.4869 183.952 74.2222 185.313C75.9026 185.956 77.3289 187.328 80.1002 187.212C81.7807 187.142 87.1503 186.971 90.9737 187.94C88.9755 184.725 86.8997 181.766 88.1635 178.856Z" fill="#FBBB9D"/>
<path d="M88.1635 178.856C88.8272 177.33 90.0593 175.109 91.3232 172.524L91.0125 168.897C91.0231 168.641 90.9949 168.386 90.9384 168.134C90.7195 167.186 90.1193 164.724 89.4556 163.349C89.3391 163.104 89.0461 162.989 88.8096 163.107C87.4963 163.769 88.5201 166.833 88.5589 168.159C88.6013 169.593 88.6013 173.385 88.6013 173.385C88.6013 173.385 87.6057 168.767 87.4116 167.973C87.0444 166.483 85.9041 164.8 85.0639 163.587C84.8732 163.31 84.4672 163.293 84.2731 163.566C83.2457 165.003 85.2263 168.781 85.2263 169.673C85.2263 170.67 85.4734 174.689 85.4734 174.689C85.4734 174.689 83.5246 168.033 81.2511 164.741C81.0534 164.458 80.6474 164.426 80.425 164.692C79.673 165.588 79.8213 167.424 80.2414 168.767C81.0357 171.307 83.1151 174.731 83.7682 177.929C84.2943 180.503 83.8812 184.347 81.237 184.169C78.5927 183.991 74.4869 183.952 74.2222 185.313C75.9026 185.956 77.3289 187.328 80.1002 187.212C81.7807 187.142 87.1503 186.971 90.9737 187.94C88.9755 184.725 86.8997 181.766 88.1635 178.856Z" fill="#EFEEF4"/>
<path d="M92.5232 164.804C91.6406 164.986 92.4702 168.97 92.3467 169.974C92.3255 170.163 92.2831 170.38 92.2302 170.611C92.8303 169.299 93.4058 167.921 93.9036 166.518C93.4905 165.455 92.9539 164.713 92.5232 164.804Z" fill="#FBBB9D"/>
<path d="M92.5232 164.804C91.6406 164.986 92.4702 168.97 92.3467 169.974C92.3255 170.163 92.2831 170.38 92.2302 170.611C92.8303 169.299 93.4058 167.921 93.9036 166.518C93.4905 165.455 92.9539 164.713 92.5232 164.804Z" fill="#EFEEF4"/>
<path d="M53.6013 232.546C53.6013 232.546 43.8081 223.088 41.0474 219.387C44.8107 219.905 46.5229 220.377 49.9262 218.449C53.4954 216.428 55.5042 215.578 58.9251 217.015C62.346 218.449 66.9107 222.238 70.3316 221.321C73.7525 220.405 75.8072 216.158 77.0746 219.943C77.9042 222.423 79.2281 223.48 82.01 224.148C78.6174 227.111 67.9239 233.855 67.9239 233.855L53.6013 232.546Z" fill="#DCDBE8"/>
<path d="M75.6659 205.381C75.6659 205.381 78.0559 210.261 75.8918 213.003C75.8918 213.003 76.7709 222 71.5247 221.986C66.2786 221.972 71.0623 204.916 71.0623 204.916L75.6659 205.381Z" fill="#CCCFE2"/>
<path d="M53.241 210.124C53.241 210.124 48.9763 213.126 49.7036 219.338C50.4308 225.551 54.4978 228.286 54.4978 228.286L55.0697 222.787L54.8438 212.321L53.241 210.124Z" fill="#CCCFE2"/>
<path d="M55.8079 204.807C55.8079 204.807 55.7443 208.298 54.7664 212.325C53.7885 216.351 52.4858 225.746 60.8916 226.551C69.2973 227.356 70.9919 224.337 71.4473 221.986C71.9027 219.635 73.0113 214.269 73.4031 212.388C73.795 210.506 75.1613 202.859 68.0617 201.984C60.9622 201.11 55.8079 204.807 55.8079 204.807Z" fill="#EFEEF4"/>
<path d="M55.1051 222.123C55.1051 222.123 54.3885 230.175 54.3249 231.116C54.2614 232.057 54.0637 238.161 60.9055 238.364C67.7473 238.567 69.1806 231.651 69.1806 231.651L70.614 223.935L55.1051 222.123Z" fill="#EFEEF4"/>
<path d="M55.0698 222.787C55.0698 222.787 56.9409 226.282 62.2929 226.638C67.8285 227.006 70.5434 224.253 70.5434 224.253C70.5434 224.253 67.8462 229.703 62.0776 229.384C57.7423 229.147 55.1122 224.914 55.0698 222.787Z" fill="#E5E4EF"/>
<path d="M62.2259 213.584C61.7105 214.06 61.0468 214.406 60.7255 215.036C60.3795 215.711 60.5419 216.589 61.0114 217.18C61.4845 217.771 62.2153 218.093 62.9531 218.18C62.6884 217.736 62.4201 217.292 62.2471 216.802C62.0741 216.312 62.007 215.77 62.1447 215.27C62.2894 214.752 62.6389 214.325 62.8967 213.857C63.0096 213.654 63.6098 212.36 63.2462 212.276C63.1226 212.248 62.4059 213.416 62.2259 213.584Z" fill="#E5E4EF"/>
<path d="M54.4026 201.747C54.4026 201.747 50.3039 209.288 54.3214 214.633L55.6312 208.638C55.6312 208.638 61.9399 205.591 63.4368 202.684C66.3423 197.042 54.4026 201.747 54.4026 201.747Z" fill="#CCCFE2"/>
<path d="M61.2056 202.289C61.2056 202.289 64.743 209.145 73.5441 211.237L75.8036 207.459L76.1354 203.989L61.2056 202.289Z" fill="#CCCFE2"/>
<path d="M47.8784 226.862C47.8784 226.862 53.534 234.208 57.0785 237.293C57.0785 237.293 58.3989 238.136 60.037 238.395C60.037 238.395 55.3169 233.145 54.4978 228.282C50.219 222.85 47.8784 226.862 47.8784 226.862Z" fill="#CCCFE2"/>
<path d="M74.2644 210.331L72.3262 217.977C70.2045 215.84 70.0244 208.403 70.0244 208.403L74.2644 210.331Z" fill="#CCCFE2"/>
<path d="M68.8101 233.166C68.8101 233.015 70.2257 226.219 70.2257 226.219L73.9891 223.854L74.1833 226.32L78.628 225.414L68.8101 233.166Z" fill="#4458E2"/>
<path d="M59.97 238.367C59.97 238.367 56.9374 243.219 51.6207 241.508C46.3075 239.798 42.6995 228.716 42.6995 228.716L40.4365 227.481C40.4365 227.481 46.4734 224.407 49.9614 227.397C53.4494 230.392 59.97 238.367 59.97 238.367Z" fill="#EFEEF4"/>
<path d="M74.7623 219.856C74.7623 219.856 76.2839 229.038 69.5444 229.748L70.5435 224.253L72.3758 217.967L74.7623 219.856Z" fill="#CCCFE2"/>
<path d="M41.0474 219.387C43.7693 224.991 59.97 238.367 59.97 238.367L48.853 223.718C48.2563 222.934 47.4903 222.308 46.6077 221.895C45.4462 221.349 43.5574 220.482 41.0474 219.387Z" fill="#E8EAF9"/>
<path d="M59.9697 238.367C60.0403 238.112 70.6279 227.891 74.2712 224.379C75.0761 223.602 76.167 223.217 77.2649 223.326C78.4299 223.445 80.4105 224.004 82.0097 224.144C79.6408 230.053 59.9697 238.367 59.9697 238.367Z" fill="#E8EAF9"/>
<path d="M60.0796 238.367C60.0796 238.367 60.3656 243.478 65.1845 242.621C69.9999 241.764 76.4675 232.816 76.4675 232.816L82.4726 231.193C82.4726 231.193 78.974 226.628 73.2725 230.542C70.2046 232.648 66.6778 236.891 66.6778 236.891C66.6778 236.891 64.7502 238.374 60.0796 238.367Z" fill="#CCCFE2"/>
<path d="M59.9697 238.367C59.9697 238.367 66.4726 240.886 74.8255 229.598C74.8255 229.598 64.0755 236.716 59.9697 238.367Z" fill="#CCCFE2"/>
<path d="M59.2215 211.293C58.7026 211.293 58.2613 210.95 58.0918 210.474C57.9541 210.677 57.8765 210.918 57.8765 211.184C57.8765 211.87 58.4166 212.426 59.0839 212.426C59.7511 212.426 60.2912 211.87 60.2912 211.184C60.2912 211.034 60.263 210.89 60.2136 210.757C59.9947 211.079 59.6346 211.293 59.2215 211.293Z" fill="white"/>
<path d="M59.2215 211.293C59.631 211.293 59.9947 211.079 60.21 210.758C60.0406 210.282 59.6028 209.939 59.0803 209.939C58.6708 209.939 58.3071 210.152 58.0918 210.474C58.2648 210.953 58.7026 211.293 59.2215 211.293Z" fill="#CCCFE2"/>
<path d="M66.1161 211.289C65.5972 211.303 65.1488 210.974 64.9653 210.506C64.8346 210.712 64.7605 210.957 64.7676 211.219C64.7852 211.905 65.3395 212.447 66.0067 212.426C66.6739 212.409 67.1964 211.835 67.1788 211.149C67.1753 210.999 67.1399 210.859 67.0905 210.726C66.8787 211.055 66.5257 211.279 66.1161 211.289Z" fill="white"/>
<path d="M66.1162 211.289C66.5258 211.279 66.8823 211.055 67.0906 210.726C66.907 210.254 66.4587 209.928 65.9397 209.942C65.5302 209.953 65.1736 210.177 64.9653 210.506C65.1454 210.974 65.5937 211.303 66.1162 211.289Z" fill="#CCCFE2"/>
<path d="M57.4847 209.026C57.34 209.117 56.9622 209.575 57.3788 209.607C57.7989 209.638 60.7785 209.974 60.7785 209.383C60.7785 208.729 58.9251 208.134 57.4847 209.026Z" fill="#CCCFE2"/>
<path d="M64.0088 209.533C64.1006 210.075 67.6345 209.897 67.6486 209.607C67.6627 209.32 66.9319 208.589 65.8481 208.589C64.7643 208.589 63.9559 209.225 64.0088 209.533Z" fill="#CCCFE2"/>
<path d="M59.0839 213.297C60.3863 213.297 61.4421 212.251 61.4421 210.96C61.4421 209.67 60.3863 208.624 59.0839 208.624C57.7814 208.624 56.7256 209.67 56.7256 210.96C56.7256 212.251 57.7814 213.297 59.0839 213.297Z" stroke="#DBDAE7" stroke-miterlimit="10"/>
<path d="M65.7948 213.297C67.0972 213.297 68.1531 212.251 68.1531 210.96C68.1531 209.67 67.0972 208.624 65.7948 208.624C64.4924 208.624 63.4365 209.67 63.4365 210.96C63.4365 212.251 64.4924 213.297 65.7948 213.297Z" stroke="#DBDAE7" stroke-miterlimit="10"/>
<path d="M61.1279 209.998C61.2021 209.921 63.6804 210.051 63.6804 210.051" stroke="#DBDAE7" stroke-miterlimit="10"/>
<path d="M68.0898 210.533C68.1887 210.533 70.7164 210.533 70.7164 210.533" stroke="#DBDAE7" stroke-miterlimit="10"/>
<path d="M56.9902 210.026H54.4907" stroke="#DBDAE7" stroke-miterlimit="10"/>
<path d="M90.9773 187.936L92.5271 190.297C92.5271 190.297 87.2104 194.089 85.6641 192.193C84.1178 190.297 87.3798 187.328 87.3798 187.328L90.9773 187.936Z" fill="#CCCFE2"/>
<path d="M56.1924 235.184L59.9699 238.367L65.1595 235.852C65.1595 235.852 61.0007 240.232 59.6133 240.232C58.2259 240.232 56.1924 235.184 56.1924 235.184Z" fill="#DCDBE8"/>
<path d="M65.5586 219.586C65.4633 219.488 65.3362 219.439 65.202 219.411C65.2514 219.53 65.2656 219.667 65.2479 219.796C65.1844 220.206 64.8772 220.545 64.5136 220.73C64.15 220.916 63.7405 220.965 63.338 220.986C62.6884 221.017 62.0388 220.979 61.3998 220.867C61.068 220.807 60.7361 220.73 60.4396 220.566C60.143 220.401 59.8853 220.143 59.7759 219.817C59.6876 219.544 59.6947 219.286 59.7794 219.065C59.5958 219.128 59.437 219.23 59.3346 219.384C58.5049 220.597 60.4219 222.042 62.0882 222.175C63.3945 222.28 64.796 222.011 65.5621 220.737C65.7633 220.387 65.8375 219.87 65.5586 219.586Z" fill="#DCDBE8"/>
<path d="M59.776 219.81C59.8854 220.139 60.1431 220.398 60.4397 220.559C60.7362 220.72 61.0681 220.8 61.3999 220.86C62.0389 220.972 62.692 221.014 63.3381 220.979C63.7405 220.958 64.1536 220.909 64.5137 220.723C64.8773 220.538 65.1845 220.202 65.248 219.789C65.2657 219.66 65.2515 219.523 65.2021 219.405C65.1456 219.391 65.0856 219.384 65.0291 219.377C64.1465 219.289 63.2569 219.632 62.3778 219.495C61.813 219.408 61.294 219.121 60.7327 219.013C60.4644 218.96 60.0902 218.95 59.7795 219.055C59.6948 219.279 59.6842 219.537 59.776 219.81Z" fill="white"/>
<path d="M30.1245 162.152L30.1642 162.177C30.1678 162.177 30.1498 162.149 30.1245 162.152Z" fill="#FFB89C"/>
<path d="M54.3564 201.81C54.7271 200.691 65.2899 181.455 68.1389 181.606C70.9879 181.756 76.1246 204.024 76.1246 204.024L54.3564 201.81Z" fill="#E8EAF9"/>
<path d="M56.5874 197.584C56.5874 197.584 61.0639 197.566 61.0215 197.126C60.9792 196.685 58.6138 194.026 58.6138 194.026C58.6138 194.026 57.4523 195.957 56.5874 197.584Z" fill="#DCDBE8"/>
<path d="M65.3784 192.9C65.3784 192.799 65.4455 189.815 65.9045 189.647C66.3669 189.479 68.0439 191.917 68.0439 191.917C68.0439 191.917 70.974 190.899 71.5671 191.34C72.1602 191.781 69.5584 194.324 69.6572 194.324C69.7561 194.324 71.5318 196.223 71.3694 196.594C71.2035 196.968 67.9132 195.95 67.9132 195.95C67.9132 195.95 66.5646 199.036 65.9715 198.798C65.3784 198.56 65.3784 195.646 65.3784 195.646C65.3784 195.646 62.5471 194.932 62.4835 194.39C62.4165 193.848 65.3784 192.9 65.3784 192.9Z" fill="#DCDBE8"/>
<path d="M68.3262 203.233C68.3262 203.233 69.9537 200.323 70.3808 200.221C70.808 200.12 71.9942 203.611 71.9942 203.611L68.3262 203.233Z" fill="#DCDBE8"/>
<path d="M55.2531 199.987C55.2531 199.987 55.9591 200.813 56.0509 201.068C56.0509 201.068 59.1435 200.05 59.4224 200.351C59.7013 200.655 58.681 202.261 58.681 202.261L54.3599 201.803C54.3563 201.803 54.9494 200.368 55.2531 199.987Z" fill="#DCDBE8"/>
<path d="M66.229 182.899C66.229 182.899 68.0365 184.155 68.4178 184.026C68.7991 183.896 68.3049 181.636 68.3049 181.636C68.3049 181.636 67.7012 181.259 66.229 182.899Z" fill="#DCDBE8"/>
<path d="M62.162 205.049L61.4277 206.623L62.2856 206.427L61.7419 208.109L62.7657 206.126H61.8902L62.3703 205.073L62.162 205.049Z" fill="#CCCFE2"/>
</g>
</g>
<path d="M142.975 219.407C142.975 219.407 137.567 208.718 135.824 206.058C133.062 201.839 130.054 193.118 129.667 191.085C129.28 189.052 130.39 182.94 128.195 182.94C126.014 182.94 123.303 186.227 123.303 191.085C123.303 195.944 123.703 201.404 123.703 201.404C123.703 201.404 115.997 201.046 113.596 201.493C110.472 202.094 107 202.913 107 204.741C107 206.557 110.782 208.283 110.782 208.283C110.782 208.283 106.38 210.303 107.374 212.132C108.368 213.947 111.892 215.303 111.892 215.303C111.892 215.303 108.536 216.351 108.923 218.167C109.323 219.983 112.847 220.737 112.847 220.737C112.847 220.737 110.834 221.606 111.066 223.678C111.44 226.926 130.209 226.12 130.209 226.12L142.975 219.407Z" fill="#EFEEF4"/>
<path d="M127.524 183.03C127.524 183.03 126.711 189.219 129.525 189.372C129.525 189.372 130.57 181.598 127.524 183.03Z" fill="white"/>
<path d="M198.364 194.896L199.422 291.407L242.755 285.436L216.719 187.326L198.364 194.896Z" fill="white"/>
<path d="M186.385 148.609C186.385 148.609 170.753 158.25 180.706 170.307C190.658 182.365 191.123 150.054 191.123 150.054" fill="#CCCFE2"/>
<path d="M183.339 214.229C179.131 223.703 166.429 251.156 166.429 251.156L142.975 219.152L122.438 230.48C122.438 230.48 152.721 280.347 170.005 278.212C187.289 276.077 186.333 245.376 186.333 245.376L178.55 300.396L201.075 297.481L198.364 194.896C198.364 194.896 188.515 202.593 183.339 214.229Z" fill="#DCDBE8"/>
<path d="M187.457 145.438C187.457 145.438 171.179 182.429 189.741 184.794C211.517 187.569 220.153 156.076 220.153 156.076" fill="#EFEEF4"/>
<path d="M193.485 179.015L198.364 194.896C198.364 194.896 204.044 199.039 208.136 198.041C212.228 197.044 216.72 187.314 216.72 187.314L210.472 165.27L193.485 179.015Z" fill="#EFEEF4"/>
<path d="M195.034 184.053L196.389 188.208C196.389 188.208 206.561 186.661 209.684 175.256C209.684 175.256 203.037 183.644 195.034 184.053Z" fill="#E5E4EF"/>
<path d="M202.998 150.808C202.805 151.102 201.269 159.887 205.102 163.889C205.102 163.889 204.431 183.797 214.887 181.841C225.342 179.884 223.613 155.207 222.657 153.161C221.702 151.115 200.985 138.725 193.317 140.771C185.65 142.817 179.415 152.867 183.158 155.501C188.231 159.068 202.998 150.808 202.998 150.808Z" fill="#DCDBE8"/>
<path d="M223.445 138.853C223.496 136.654 222.231 134.634 220.256 133.751L209.336 128.88C209.052 128.752 208.755 128.662 208.458 128.598C207.619 131.718 205.412 140.413 204.263 144.978L223.122 153.557L223.445 138.853Z" fill="#CCCFE2"/>
<path d="M207.697 128.483L200.313 128.01C198.545 127.895 196.867 128.765 195.925 130.286C193.963 133.457 190.8 138.572 190.723 138.815L204.263 144.978C205.412 140.413 207.607 131.718 208.459 128.598C208.2 128.547 207.955 128.496 207.697 128.483Z" fill="#E8EAF9"/>
<path d="M188.334 143.098L172.264 137.792C168.637 136.59 168.611 131.373 172.225 130.145C173.193 129.813 174.265 129.877 175.181 130.324L222.799 153.365L188.334 143.098Z" fill="#CCCFE2"/>
<path d="M190.71 161.971C189.729 162.751 188.606 163.301 187.573 164.004C186.76 164.554 185.959 165.283 185.779 166.254C185.572 167.405 186.334 168.53 187.224 169.285C188.218 170.141 189.432 170.73 190.71 170.998C190.051 170.295 189.38 169.553 189.057 168.633C188.696 167.571 188.877 166.318 189.548 165.423C190.387 164.285 191.704 163.441 192.491 162.265C192.814 161.792 193.73 160.258 192.762 160.002C192.272 159.874 192.155 160.424 191.91 160.756C191.562 161.204 191.161 161.613 190.71 161.971Z" fill="#DCDBE8"/>
<path d="M195.809 156.012C195.602 156.178 194.97 156.997 196.054 157.035C197.138 157.074 200.21 157.751 200.352 156.805C200.481 155.846 196.867 155.117 195.809 156.012Z" fill="#DCDBE8"/>
<path d="M186.811 159.989C186.811 159.081 187.379 158.327 188.18 158.033C187.973 157.969 187.754 157.917 187.508 157.917C186.321 157.917 185.366 158.889 185.366 160.104C185.366 161.319 186.321 162.29 187.508 162.29C187.87 162.29 188.193 162.188 188.489 162.035C187.534 161.856 186.811 161.012 186.811 159.989Z" fill="white"/>
<path d="M189.651 160.104C189.651 159.132 189.031 158.327 188.167 158.045C187.379 158.327 186.798 159.094 186.798 160.002C186.798 161.025 187.521 161.869 188.476 162.048C189.173 161.664 189.651 160.948 189.651 160.104Z" fill="#DCDBE8"/>
<path d="M196.157 159.989C196.157 159.081 196.725 158.327 197.525 158.033C197.318 157.969 197.099 157.917 196.854 157.917C195.666 157.917 194.711 158.889 194.711 160.104C194.711 161.319 195.666 162.29 196.854 162.29C197.215 162.29 197.538 162.188 197.835 162.035C196.88 161.856 196.157 161.012 196.157 159.989Z" fill="white"/>
<path d="M198.997 160.104C198.997 159.132 198.377 158.327 197.512 158.045C196.725 158.327 196.144 159.094 196.144 160.002C196.144 161.025 196.867 161.869 197.822 162.048C198.519 161.664 198.997 160.948 198.997 160.104Z" fill="#DCDBE8"/>
<path d="M190.955 173.031C190.593 173.146 190.232 173.287 189.935 173.53C189.638 173.773 189.406 174.118 189.38 174.502C189.328 175.192 189.896 175.767 190.503 176.074C191.38 176.522 192.4 176.624 193.394 176.56C194.75 176.458 196.079 176.049 197.254 175.358C198.002 174.911 198.712 174.323 199.048 173.517C199.384 172.712 199.254 171.637 198.545 171.126C198.041 170.742 197.331 170.717 196.737 170.909C195.834 171.19 195.085 171.855 194.182 172.187C193.136 172.571 192.013 172.699 190.955 173.031Z" fill="white"/>
<path d="M189.406 174.923L198.971 171.612C198.971 171.612 199.074 171.816 199.1 171.893C199.126 171.97 199.19 172.238 199.19 172.238L189.741 175.512C189.741 175.512 189.561 175.307 189.522 175.23C189.483 175.154 189.406 174.923 189.406 174.923Z" fill="#EFEEF4"/>
<path d="M193.511 172.392L193.859 173.466L194.427 173.236L194.182 172.174L193.511 172.392Z" fill="#EFEEF4"/>
<path d="M192.685 174.476L193.524 176.547L194.234 176.471L193.395 174.259L192.685 174.476Z" fill="#EFEEF4"/>
<path d="M195.37 173.491C195.395 173.555 196.209 175.921 196.209 175.921L196.97 175.537L196.054 173.249L195.37 173.491Z" fill="#EFEEF4"/>
<path d="M205.231 211.441C204.469 211.429 202.236 211.851 202.236 211.851L203.179 218.039L206.419 217.63C206.419 217.63 208.82 216.888 208.6 214.344C208.381 211.799 206.006 211.454 205.231 211.441ZM205.851 215.712L204.87 215.942L204.508 213.5C204.508 213.5 205.076 213.423 205.45 213.436C205.825 213.449 206.509 213.602 206.625 214.459C206.741 215.303 205.851 215.712 205.851 215.712Z" fill="#CCCFE2"/>
<path d="M212.163 210.24C210.33 210.495 209.052 212.209 209.31 214.063C209.568 215.917 211.259 217.234 213.079 216.978C214.912 216.722 216.19 215.009 215.932 213.155C215.674 211.301 213.996 209.984 212.163 210.24ZM212.718 214.894C212.034 214.983 211.401 214.497 211.298 213.794C211.208 213.091 211.685 212.452 212.369 212.362C213.053 212.273 213.686 212.758 213.789 213.462C213.88 214.152 213.402 214.791 212.718 214.894Z" fill="#CCCFE2"/>
<path d="M203.359 219.574C203.359 219.574 205.657 220.75 209.904 220.136C214.151 219.523 215.609 217.86 215.609 217.86L215.919 220.124C215.919 220.124 213.131 222.463 210.059 222.821C206.999 223.179 203.592 221.747 203.592 221.747L203.359 219.574Z" fill="#CCCFE2"/>
<path d="M198.364 194.896L210.149 290.026L200.92 291.292L198.364 194.896Z" fill="#E4E7F4"/>
<path d="M275.503 230.467C266.79 216.441 256.206 200.56 250.177 195.676C238.65 186.341 216.719 187.326 216.719 187.326C215.132 207.925 229.666 249.634 240.38 277.56L254.786 276.319L265.332 296.765C277.633 283.058 283.158 266.96 288.605 252.038C288.257 251.437 287.159 249.839 286.733 249.11L275.503 230.467Z" fill="#DCDBE8"/>
<path d="M255.715 248.356L234.404 213.5L246.008 256.194L255.715 248.356Z" fill="#CCCFE2"/>
<path d="M275.503 230.48C279.944 237.922 284.036 244.661 286.746 249.123L288.618 252.038C290.077 248.036 290.942 243.523 292 239.623L283.7 227.476C282.887 226.286 281.26 226.018 280.137 226.9L275.503 230.48Z" fill="#CCCFE2"/>
<path d="M124.517 204.025C124.517 204.025 124.607 207.375 122.09 207.644C122.09 207.644 125.562 208.884 125.123 210.904C124.684 212.937 120.786 213.193 120.786 213.193C120.786 213.193 123.729 214.165 123.394 216.108C123.058 218.052 119.495 219.279 119.495 219.279C119.495 219.279 122.012 219.548 121.922 221.747C121.832 223.959 118.54 225.89 118.54 225.89L125.562 226.069C125.562 226.069 129.551 218.129 129.99 215.124C130.416 212.145 124.517 204.025 124.517 204.025Z" fill="#E5E4EF"/>
<path d="M183.597 264.53L191.768 236.323L190.077 298.938L178.563 300.396L183.597 264.53Z" fill="#CCCFE2"/>
<g clip-path="url(#clip2_285_44574)">
<path d="M340.504 126.583C340.504 126.583 303.864 205.458 263.66 233.037L308.154 275.191C308.154 275.191 353.431 215.7 354.501 170.955" fill="#E8EAF9"/>
<path d="M428.867 199.512C428.867 199.512 426.866 213.206 427.031 214.621C427.196 216.037 449.035 290.042 449.035 290.042C449.035 290.042 324.94 309.562 325.665 308.331C326.379 307.098 338.793 215.94 338.793 215.94L428.867 199.512Z" fill="#E8EAF9"/>
<path d="M355.214 252.552L358.532 281.302L395.16 285.265L384.878 240.549C384.88 240.539 357.696 251.741 355.214 252.552Z" fill="white"/>
<path d="M263.66 233.037C263.66 233.037 275.423 223.75 278.545 220.766L319.814 258.309L308.438 275.494L263.66 233.037Z" fill="#CCCFE2"/>
<path d="M182.098 316.899C182.886 316.439 412.274 166.417 448.6 142.444C452.085 140.137 456.807 141.194 458.985 144.763C461.06 148.178 460.028 152.619 456.653 154.77L189.46 325.33L182.098 316.899Z" fill="#DCDBE8"/>
<path d="M315.444 222.714C315.342 222.882 309.268 227.325 303.534 231.526C302.361 232.385 301.361 233.436 300.553 234.639C299.071 236.826 297.891 239.443 297.272 241.676C306.298 237.177 309.254 235.106 309.254 235.106L315.444 222.714Z" fill="#E5E4EF"/>
<path d="M343.191 222.709C341.464 220.848 333.393 212.76 330.53 209.694C328.182 211.691 325.762 213.227 323.344 215.131C313.382 222.955 309.12 229.388 302.736 240.77C300.557 244.651 295.775 257.847 295.499 260.206C298.079 263.614 304.582 256.833 305.946 253.218C307.286 249.665 309.993 241.518 311.094 239.819C309.174 242.718 302.316 255.739 307.207 256.408C310.317 256.83 313.054 253.01 314 250.066C313.739 251.003 319.912 255.412 322.883 248.199C321.999 249.875 326.628 252.294 331.476 244.98C334.971 238.956 340.581 226.188 343.191 222.709Z" fill="#EFEEF4"/>
<path d="M413.036 193.156L328.62 204.888L332.955 258.929C332.955 258.929 421.219 231.335 438.858 202.597C456.498 173.858 417.149 137.672 394.617 129.459C377.206 123.122 365.351 123.203 362.994 123.516L340.507 126.572C340.507 126.572 347.374 208.03 348.157 208.193" fill="#E8EAF9"/>
<path d="M271.333 240.296C269.44 242.955 264.226 248.534 262.853 250.354C260.678 253.244 257.659 255.836 256.389 259.214L251.027 271.867C251.027 271.867 263.236 264.632 267.731 261.822C269.431 263.165 269.907 268.798 265.235 272.785C261.419 276.037 259.097 281.847 261.001 282.855C262.663 284.758 265.909 279.618 270.954 276.365C278.897 266.954 281.624 258.488 283.147 251.465C280.955 249.151 275.784 244.437 271.333 240.296Z" fill="#EFEEF4"/>
<path d="M340.707 128.083L351.309 196.274L376.633 186.011L362.992 123.527L340.707 128.083Z" fill="white"/>
<path d="M313.798 83.6625C312.888 89.1309 312.954 94.6904 312.634 100.225C312.119 109.016 319.607 125.847 340.927 119.476C346.957 117.675 345.253 113.491 347.972 107.818C350.688 102.157 351.524 95.7486 351.407 89.4658C351.363 87.2517 351.21 85.0261 350.564 82.91C349.664 79.9728 347.837 77.3557 345.559 75.2911C339.953 70.1978 331.395 68.5573 324.356 71.341C317.318 74.1247 315.03 76.2116 313.798 83.6625Z" fill="#EFEEF4"/>
<path d="M336.058 117.565C336.058 117.565 338.549 125.175 341.714 134.228C342.416 136.233 351.506 139.621 358.214 133.038C363.195 128.157 362.981 123.525 362.981 123.525C362.981 123.525 349.992 103.627 349.723 99.529C349.457 95.4203 341.82 91.4427 341.82 91.4427L336.058 117.565Z" fill="#EFEEF4"/>
<path d="M336.893 120.544C336.893 120.544 345.29 118.165 348.922 114.341C355.927 106.973 356.531 98.6683 356.531 98.6683L362.183 111.522C362.183 111.522 358.342 115.169 352.913 118.275C345.919 122.248 336.893 120.544 336.893 120.544Z" fill="#E5E4EF"/>
<path d="M329.383 76.7484C329.383 76.7484 332.483 86.6561 341.837 89.3637C341.837 89.3637 343.503 105.055 353.778 109.412L359.757 118.369C359.757 118.369 374.017 113.697 373.845 99.1618C373.624 81.031 356.852 80.3492 356.852 80.3492C356.852 80.3492 347.619 63.7357 327.882 68.408C309.107 72.8568 313.65 83.9992 313.65 83.9992L329.383 76.7484Z" fill="#CCCFE2"/>
<path d="M324.224 96.8373C323.412 97.9496 322.369 98.9361 321.837 100.207C321.173 101.795 321.461 103.748 322.549 105.076C323.646 106.417 325.497 107.09 327.197 106.763C325.423 106.206 324.181 104.323 324.373 102.481C324.467 101.598 324.841 100.763 325.16 99.9266C325.574 98.8433 325.88 97.6928 325.964 96.5299C325.996 96.0019 326.069 93.6005 325.305 93.5646C325.112 94.8165 325.005 95.7632 324.224 96.8373Z" fill="#DCDBE8"/>
<path d="M336.398 105.085C336.398 105.085 335.227 110.622 327.887 110.659L336.398 105.085Z" fill="#DCDBE8"/>
<path d="M336.095 87.0818C336.62 87.4581 336.357 88.2945 335.711 88.3387C333.684 88.4641 327.971 88.7385 327.952 87.6989C327.923 86.4346 329.074 86.005 331.583 86.0908C333.259 86.1487 335.218 86.4548 336.095 87.0818Z" fill="#DCDBE8"/>
<path d="M320.543 88.279C319.025 88.3763 314.129 88.6977 314.632 87.1317C315.136 85.5657 322.141 85.6371 322.265 87.1438C322.316 87.8115 321.054 88.2402 320.543 88.279Z" fill="#DCDBE8"/>
<path d="M321.304 93.9378C321.596 92.5284 320.686 91.1482 319.271 90.8549C317.964 90.5839 316.701 91.3355 316.279 92.5621C316.742 92.3796 317.255 92.3301 317.769 92.4368C319.184 92.7301 320.094 94.1103 319.802 95.5197C319.78 95.6264 319.736 95.7288 319.704 95.8333C320.495 95.5186 321.12 94.824 321.304 93.9378Z" fill="white"/>
<path d="M317.772 92.4262C317.257 92.3195 316.742 92.3797 316.281 92.5515C316.248 92.656 316.205 92.7584 316.183 92.8651C315.891 94.2745 316.801 95.6547 318.215 95.948C318.73 96.0547 319.245 95.9945 319.706 95.8227C319.739 95.7181 319.782 95.6158 319.804 95.509C320.096 94.0997 319.186 92.7195 317.772 92.4262Z" fill="#DCDBE8"/>
<path d="M334.559 94.4364C334.851 93.027 333.941 91.6468 332.526 91.3535C331.218 91.0824 329.956 91.834 329.534 93.0606C329.997 92.8781 330.51 92.8286 331.024 92.9353C332.439 93.2286 333.349 94.6088 333.057 96.0182C333.035 96.1249 332.991 96.2273 332.958 96.3318C333.75 96.0171 334.375 95.3226 334.559 94.4364Z" fill="white"/>
<path d="M331.027 92.9244C330.512 92.8178 329.997 92.878 329.536 93.0498C329.503 93.1543 329.46 93.2567 329.438 93.3634C329.145 94.7728 330.055 96.153 331.47 96.4463C331.985 96.553 332.5 96.4928 332.961 96.321C332.993 96.2164 333.037 96.1141 333.059 96.0073C333.351 94.598 332.441 93.2177 331.027 92.9244Z" fill="#DCDBE8"/>
<path d="M387.393 153.196C388.186 153.36 403.686 173.389 403.686 173.389L387.322 181.578L387.393 153.196Z" fill="#CCCFE2"/>
<path d="M427.031 214.622C427.031 214.622 396.422 236.361 384.878 240.55L388.322 255.484C388.324 255.474 420.191 234.084 427.031 214.622Z" fill="#CCCFE2"/>
<path d="M327.976 211.66L346.856 199.961L351.189 253.744L332.966 258.931L327.976 211.66Z" fill="#CCCFE2"/>
</g>
<g clip-path="url(#clip3_285_44574)">
<g clip-path="url(#clip4_285_44574)">
<path d="M496.036 134.725C483.084 167.702 470.014 201.093 465.521 236.231C465.442 236.781 465.403 237.429 465.815 237.802C466.227 238.176 467.11 237.763 466.855 237.272" stroke="#C9C9C9" stroke-miterlimit="10"/>
<path d="M465.521 237.842C463.833 242.909 469.21 248.821 474.41 247.584" stroke="#C9C9C9" stroke-miterlimit="10"/>
<path d="M490.58 200.445C486.852 209.872 484.399 219.791 483.28 229.848C515.228 230.535 547.196 231.223 579.144 231.91C583.52 217.061 587.876 202.212 592.252 187.383C592.763 185.635 592.174 182.748 590.486 183.416" stroke="#C9C9C9" stroke-miterlimit="10"/>
<path d="M533.577 97.8972C528.788 102.061 524.491 106.795 520.802 111.96C523.235 111.489 522.293 111.843 524.334 110.448C511.402 113.1 498.764 117.106 486.656 122.37" stroke="#C9C9C9" stroke-miterlimit="10"/>
<path d="M560.03 48.9707C560.403 52.7615 559.245 56.6898 556.91 59.6752" stroke="#C9C9C9" stroke-miterlimit="10"/>
<path d="M576.514 50.3259C578.888 54.1363 577.652 59.7341 573.923 62.2089" stroke="#C9C9C9" stroke-miterlimit="10"/>
<path d="M559.304 25.1458C556.694 35.8306 553.475 47.4583 544.527 53.8418C543.663 54.4506 542.682 55.0399 541.623 54.9417C540.563 54.8435 539.562 53.7632 539.955 52.7811C542.368 55.1577 542.82 59.0664 541.681 62.2483C540.543 65.4498 538.071 68.0032 535.343 70.0066C528.082 75.349 518.466 77.3132 509.694 75.2901" stroke="#C9C9C9" stroke-miterlimit="10"/>
<path d="M544.723 120.799C549.354 122.331 554.005 123.863 558.637 125.375C559.461 125.65 560.324 125.945 560.854 126.633C561.384 127.32 561.305 128.518 560.52 128.852" stroke="#C9C9C9" stroke-miterlimit="10"/>
<path d="M545.096 77.7451C548.51 81.1824 554.221 82.0466 558.499 79.7485" stroke="#C9C9C9" stroke-miterlimit="10"/>
<path d="M565.74 61.4822C565.407 62.9749 566.604 64.3105 567.605 65.4694C568.605 66.6282 569.508 68.3174 568.645 69.5744C568.154 70.2815 567.251 70.5761 566.427 70.7922C564.229 71.3618 561.992 71.7743 559.755 72.0296" stroke="#C9C9C9" stroke-miterlimit="10"/>
<path d="M642.136 157.843C638.506 157.548 634.836 157.705 631.245 158.314C629.636 158.589 627.988 158.982 626.653 159.885C625.299 160.808 624.298 162.38 624.436 164.01C624.652 166.367 627.144 167.879 629.499 168.154C631.834 168.429 634.208 167.84 636.563 167.899C631.697 166.269 625.868 168.154 622.866 172.338C623.239 174.577 625.633 175.795 627.772 176.482C631.422 177.641 635.248 178.23 639.075 178.211C636.76 178.171 634.444 178.839 632.501 180.077C638.545 187.226 649.162 178.25 651.046 172.083C652.851 166.131 652.596 158.903 648.377 153.993C644.06 148.965 636.19 148.022 630.185 150.457C625.456 152.382 623.867 155.289 629.204 157.253C633.482 158.785 637.819 157.489 642.136 157.843Z" stroke="#C9C9C9" stroke-miterlimit="10"/>
<path d="M520.017 100.175C519.82 99.2327 486.361 112.55 486.361 112.55L463.912 229.003L542.035 216.767L566.506 125.356L552.416 108.798L520.017 100.175Z" fill="#E8EAF9"/>
<path d="M579.516 54.6664C580.537 61.4427 580.87 68.3172 580.674 75.172C580.439 84.0106 575.533 95.5008 570.43 98.7613C562.149 104.064 554.515 102.316 546.136 99.6058C538.757 97.2096 540.288 91.0029 537.03 83.9517C533.773 76.9004 532.85 68.9653 533.106 61.1874C533.184 58.4572 533.42 55.6878 534.263 53.0951C535.421 49.4811 537.717 46.2796 540.543 43.7655C547.529 37.5785 558.087 35.6929 566.702 39.2676C575.336 42.8031 578.103 45.435 579.516 54.6664Z" fill="#EFEEF4"/>
<path d="M558.656 100.215C558.656 100.215 551.807 111.862 547.097 122.115C545.999 124.491 533.694 125.925 524.02 114.926C518.329 108.464 518.309 103.082 518.309 103.082C518.309 103.082 534.617 78.7075 535.009 73.64C535.402 68.5725 544.86 63.78 544.86 63.78L558.656 100.215Z" fill="#EFEEF4"/>
<path d="M557.439 102.317C557.439 102.317 547.647 99.8221 542.918 95.3242C533.577 86.4463 532.046 76.5078 532.046 76.5078L526.453 90.6889C526.453 90.6889 531.124 95.2653 537.757 99.1936C546.293 104.261 557.439 102.317 557.439 102.317Z" fill="#E5E4EF"/>
<path d="M467.758 226.116C467.758 226.116 455.002 241.279 468.15 249.666C481.298 258.053 540.19 255.872 575.042 252.867C586.189 251.905 597.374 247.682 619.314 259.251C641.254 270.82 693.1 311.949 693.905 310.75C694.709 309.552 723.439 272.293 723.439 272.293L622.12 216.138C622.12 216.138 602.575 207.751 589.819 208.164C577.044 208.556 467.758 226.116 467.758 226.116Z" fill="#E5E4EF"/>
<path d="M562.228 44.4531C562.228 44.4531 556.458 58.0449 544.9 61.2268C544.9 61.2268 542.584 80.5932 529.868 85.7982L522.313 96.6795C522.313 96.6795 504.867 90.7282 505.318 72.7563C505.887 50.3259 526.532 49.7956 526.532 49.7956C526.532 49.7956 541.701 29.1132 563.935 37.5001C586.169 45.8869 576.651 50.2277 576.651 50.2277L562.228 44.4531Z" fill="#DCDBE8"/>
<path d="M561.305 43.1566C561.305 43.1566 566.388 56.1002 579.712 57.2591C579.712 57.2591 586.698 30.979 556.89 35.9679" fill="#DCDBE8"/>
<path d="M546.666 13.2429L546.764 13.302C546.843 13.2035 546.666 13.2429 546.666 13.2429Z" fill="#B2ACAB"/>
<path d="M528.18 31.6469L521.724 51.1508L552.219 51.524L553.927 18.9783L540.151 21.3549C534.558 22.3173 529.946 26.2652 528.18 31.6469Z" fill="#DCDBE8"/>
<path d="M580.498 51.8776L578.83 29.7221C578.535 25.7153 575.827 22.2977 572.02 21.08L563.719 18.4284C562.208 17.957 560.619 17.8391 559.068 18.1141L544.88 20.5496L539.346 51.3473L580.498 51.8776Z" fill="#E8EAF9"/>
<path d="M521.724 51.1509L580.498 51.8776L593.861 47.6547C597.06 46.6334 596.942 42.0766 593.704 41.232L573.158 35.8895C567.781 34.495 562.09 34.8486 556.929 36.9502L521.724 51.1509Z" fill="#CCCFE2"/>
<path d="M520.546 99.3506C484.87 105.773 424.997 146.686 405 180.352C399.662 189.347 405.137 200.896 415.479 202.487C456.533 208.792 539.581 201.996 539.581 201.996L548.628 169.058L498.43 168.96C498.43 168.94 517.936 127.752 520.546 99.3506Z" fill="#DCDBE8"/>
<path d="M510.97 136.866C510.695 138.26 463.224 246.838 463.224 246.838L406.354 244.029L443.561 175.716" fill="#DCDBE8"/>
<path d="M553.691 108.327C553.691 108.327 575.592 133.762 579.379 144.113C585.953 162.105 571.961 210.363 571.961 210.363L536.049 215.549L553.868 109.407L553.691 108.327Z" fill="#DCDBE8"/>
<path d="M558.362 23.2011C557.714 23.0832 555.752 23.1225 555.752 23.1225L555.693 28.4453L558.519 28.5435C558.519 28.5435 560.677 28.2685 560.834 26.0883C560.991 23.9082 559.009 23.3189 558.362 23.2011ZM558.303 26.874L557.439 26.9329L557.459 24.8313C557.459 24.8313 557.95 24.8509 558.264 24.9099C558.578 24.9688 559.147 25.2045 559.127 25.9312C559.127 26.6579 558.303 26.874 558.303 26.874Z" fill="#CCCFE2"/>
<path d="M564.465 23.1423C562.876 23.103 561.541 24.36 561.502 25.9706C561.463 27.5812 562.719 28.8972 564.328 28.9561C565.917 28.9954 567.252 27.7383 567.291 26.1277C567.33 24.5171 566.055 23.2012 564.465 23.1423ZM564.288 27.1294C563.68 27.1098 563.209 26.6188 563.229 26.0099C563.248 25.401 563.739 24.9296 564.347 24.9493C564.956 24.9689 565.427 25.4599 565.407 26.0688C565.387 26.6777 564.877 27.1491 564.288 27.1294Z" fill="#CCCFE2"/>
<path d="M555.634 29.7612C555.634 29.7612 557.44 31.0772 561.148 31.1361C564.877 31.2147 566.349 30.0166 566.349 30.0166L566.31 31.9611C566.31 31.9611 563.601 33.552 560.933 33.4145C558.264 33.2967 555.556 31.6075 555.556 31.6075L555.634 29.7612Z" fill="#CCCFE2"/>
<path d="M537.972 201.525L536.049 215.549L571.961 210.363L576.161 188.208L549.57 182.119L542.918 189.917L537.972 201.525Z" fill="#CCCFE2"/>
<path d="M566.466 70.7724C567.448 72.167 568.723 73.4044 569.351 74.9757C570.136 76.9595 569.763 79.3557 568.389 80.9859C567.016 82.6162 564.72 83.4215 562.64 82.9894C564.818 82.3216 566.388 80.0235 566.192 77.7451C566.093 76.6452 565.642 75.6042 565.269 74.5829C564.779 73.2276 564.406 71.8134 564.347 70.3796C564.308 69.7314 564.268 66.746 565.21 66.7263C565.387 68.2583 565.505 69.4368 566.466 70.7724Z" fill="#E5E4EF"/>
<path d="M556.301 68.0621C556.301 66.9622 556.929 66.039 557.832 65.5676C557.42 65.3319 556.949 65.1748 556.439 65.1748C554.888 65.1748 553.632 66.4319 553.632 67.9835C553.632 69.5352 554.888 70.7922 556.439 70.7922C556.89 70.7922 557.322 70.6744 557.695 70.478C556.87 69.9869 556.301 69.1031 556.301 68.0621Z" fill="white"/>
<path d="M559.245 67.9835C559.245 66.9425 558.676 66.0587 557.832 65.5676C556.929 66.039 556.301 66.9622 556.301 68.0621C556.301 69.1031 556.87 69.9869 557.714 70.478C558.617 70.0066 559.245 69.0834 559.245 67.9835Z" fill="#3A282D"/>
<path d="M572.923 68.0621C572.923 66.9622 573.551 66.039 574.453 65.5676C574.041 65.3319 573.57 65.1748 573.06 65.1748C571.51 65.1748 570.254 66.4319 570.254 67.9835C570.254 69.5352 571.51 70.7922 573.06 70.7922C573.512 70.7922 573.943 70.6744 574.316 70.478C573.492 69.9869 572.923 69.1031 572.923 68.0621Z" fill="white"/>
<path d="M575.886 67.9835C575.886 66.9425 575.317 66.0587 574.473 65.5676C573.57 66.039 572.942 66.9622 572.942 68.0621C572.942 69.1031 573.511 69.9869 574.355 70.478C575.258 70.0066 575.886 69.0834 575.886 67.9835Z" fill="#3A282D"/>
<path d="M551.336 80.7502C551.336 80.7502 552.69 87.6247 561.718 87.8015L551.336 80.7502Z" fill="#DCDBE8"/>
<path d="M599.494 130.777C595.942 147.118 585.109 195.534 580.871 214.508C579.968 218.554 582.931 222.404 587.072 222.6L650.163 225.35C653.479 225.487 656.384 223.17 656.992 219.89L672.22 136.021C672.946 132.054 670.003 128.361 665.98 128.184L606.284 125.533C603.046 125.415 600.181 127.615 599.494 130.777Z" fill="#DCDBE8"/>
<path d="M652.086 133.841L593.332 131.248C590.722 131.13 588.426 132.918 587.876 135.451C584.501 151.047 572.746 203.587 568.704 221.755C567.978 224.996 570.372 228.119 573.688 228.257L639.468 231.124L611.033 177.13L652.086 133.841Z" fill="#E8EAF9"/>
<path d="M644.943 226.725L660.642 140.283C661.231 137.101 658.856 134.136 655.618 133.978L652.106 133.821L611.033 177.111L639.468 231.105C642.117 231.242 644.452 229.357 644.943 226.725Z" fill="#CCCFE2"/>
<path d="M548.511 169.274L542.761 190.113L553.279 190.172L557.125 168.802C552.867 169.038 548.511 169.274 548.511 169.274Z" fill="#EFEEF4"/>
<path d="M591.762 191.763L604.027 189.956C604.615 189.878 605.204 189.721 605.773 189.524C607.598 188.896 611.935 187.383 614.643 186.401C615.389 186.126 615.566 185.105 614.918 184.633C612.053 182.61 605.204 184.359 602.947 184.712C602.574 184.771 593.351 185.517 593.351 185.517L607.009 182.08C607.009 182.08 617.646 178.937 621.472 175.952C622.1 175.461 621.924 174.44 621.158 174.243C615.467 172.79 607.736 175.972 607.736 175.972L594.077 178.702C594.077 178.702 615.997 172.829 622.454 168.154C623.14 167.644 623.062 166.563 622.277 166.21C619.294 164.815 613.034 166.563 607.696 168.704C602.653 169.961 598.198 170.845 595.902 171.317C595.372 172.593 594.941 171.513 595.902 171.317C601.79 168.803 618.431 160.612 618.058 159.964C617.587 159.119 615.958 157.843 613.446 158.177C608.187 158.864 593.567 164.01 591.664 164.383C589.76 164.737 581.479 164.855 581.479 164.855L582.833 158.118C582.833 158.118 577.063 160.141 575.042 161.162C570.823 163.264 566.192 167.958 565.23 168.194C564.779 168.312 558.499 168.606 554.633 168.842L549.727 196.85L587.15 191.822C588.681 191.96 590.231 191.94 591.762 191.763Z" fill="white"/>
<path d="M668.394 157.135C668.394 157.135 677.695 153.973 679.776 155.21C682.307 156.703 677.617 163.185 666.706 166.445L668.394 157.135Z" fill="white"/>
<path d="M668.707 165.758C668.707 165.758 674.987 164.049 675.732 168.999C676.341 173.025 659.13 177.17 652.674 178.584C651.438 178.859 650.359 177.661 650.79 176.463C651.987 173.222 655.892 167.938 668.707 165.758Z" fill="white"/>
<path d="M666.961 174.027C667.314 174.027 671.573 174.597 672.259 176.797C672.946 178.996 670.866 180.843 667.412 182.001C666.019 182.473 655.559 185.576 650.83 186.715C649.535 187.03 648.475 185.694 649.044 184.476C650.163 182.119 652.184 179.036 655.442 177.955C660.956 176.109 666.961 174.027 666.961 174.027Z" fill="white"/>
<path d="M663.37 182.434C663.743 182.335 669.689 180.548 670.454 184.457C671.22 188.346 656.089 192.392 653.067 191.252C651.556 190.663 652.067 185.183 663.37 182.434Z" fill="white"/>
<path d="M657.973 195.515C658.268 195.436 669.296 194.513 668.237 190.722C667.177 186.931 661.859 188.169 659.111 189.406C656.344 190.624 652.635 196.831 657.973 195.515Z" fill="white"/>
<path d="M582.99 202.193L578.928 220.636H581.695L585.6 201.702L582.99 202.193Z" fill="#CCCFE2"/>
<path d="M588.21 202.036L584.501 220.263L587.935 220.44L591.428 202.036H588.21Z" fill="#CCCFE2"/>
<path d="M593.744 202.134L590.506 220.44L593.94 220.715L597.08 202.33L593.744 202.134Z" fill="#CCCFE2"/>
<path d="M428.215 203.607L481.651 204.648L474.92 220.007L426.665 206.887L428.215 203.607Z" fill="#CCCFE2"/>
<path d="M474.352 144.427L455.846 164.717L476.55 165.817L474.352 144.427Z" fill="#DCDBE8"/>
<path d="M497.998 204.451C495.585 211.208 494.564 216.256 492.347 222.463L472.801 225.311L480.023 204.589" fill="#CCCFE2"/>
<path d="M509.184 168.979C517.818 136.06 519.428 107.443 519.428 107.443L497.763 168.979H509.184Z" fill="#CCCFE2"/>
<path d="M523.726 61.2856C524.255 61.4231 583.952 61.0303 583.952 61.0303C583.952 61.0303 585.208 75.0935 576.161 75.4667C565.721 75.8791 564.033 62.8962 564.033 62.8962C564.033 62.8962 563.896 76.0166 554.143 76.3702C545.096 76.7041 543.938 65.3514 543.938 65.3514L526.551 64.6443L523.726 61.2856Z" fill="#CCCFE2"/>
<path d="M552.003 58.4966C551.356 58.9483 551.65 59.9893 552.455 60.0482C554.947 60.2446 561.972 60.6964 562.012 59.4001C562.07 57.8288 560.658 57.2788 557.577 57.3377C555.516 57.3967 553.083 57.7306 552.003 58.4966Z" fill="#DCDBE8"/>
<path d="M571.137 60.2644C573.001 60.4215 579.026 60.8929 578.437 58.9484C577.848 57.0039 569.214 56.9646 569.037 58.8305C568.959 59.6555 570.509 60.2054 571.137 60.2644Z" fill="#DCDBE8"/>
</g>
</g>
<defs>
<clipPath id="clip0_285_44574">
<rect width="116" height="116" fill="white" transform="translate(8 141)"/>
</clipPath>
<clipPath id="clip1_285_44574">
<rect width="127.262" height="125.915" fill="white" transform="translate(-3.26221 141)"/>
</clipPath>
<clipPath id="clip2_285_44574">
<rect width="225.751" height="223.846" fill="white" transform="translate(267.439 52.8979) rotate(11.7119)"/>
</clipPath>
<clipPath id="clip3_285_44574">
<rect width="336" height="230" fill="white" transform="translate(368 13)"/>
</clipPath>
<clipPath id="clip4_285_44574">
<rect width="487.087" height="487.459" fill="white" transform="translate(292.457 -37.5496)"/>
</clipPath>
</defs>
</svg>
