<svg width="21" height="24" viewBox="0 0 21 24" fill="none" xmlns="http://www.w3.org/2000/svg">
<path d="M6.15968 7.67489C6.15968 6.4209 5.35108 5.34107 4.2333 4.88824V1.06821C4.2333 0.487663 3.71008 0 3.07984 0C2.4496 0 1.93828 0.487663 1.93828 1.06821L1.93828 4.88824C0.808607 5.32946 0 6.40929 0 7.67489C0 8.94049 0.808607 10.0203 1.93828 10.4615L1.93828 22.897C1.93828 23.5123 2.4496 24 3.07984 24C3.71008 24 4.2333 23.5123 4.2333 22.897L4.2333 10.4615C5.35108 10.0087 6.15968 8.92888 6.15968 7.67489ZM4.54247 7.67489C4.54247 8.47605 3.88845 9.10305 3.07984 9.10305C2.24745 9.10305 1.60532 8.47605 1.60532 7.67489C1.60532 6.86212 2.24745 6.24673 3.07984 6.24673C3.88845 6.24673 4.54247 6.86212 4.54247 7.67489ZM9.35844 22.9318C9.35844 23.5123 9.86976 24 10.5 24C11.1183 24 11.6416 23.5123 11.6416 22.9318V18.984C12.7831 18.5312 13.5798 17.4514 13.5798 16.1858C13.5798 14.9318 12.7831 13.852 11.6416 13.3991L11.6416 1.10305C11.6416 0.487663 11.1302 0 10.5 0C9.86976 0 9.35844 0.487663 9.35844 1.10305L9.35844 13.3991C8.22877 13.852 7.43205 14.9318 7.43205 16.1858C7.43205 17.4514 8.22877 18.5312 9.35844 18.984V22.9318ZM11.9745 16.1858C11.9745 16.9869 11.3205 17.6255 10.5 17.6255C9.66761 17.6255 9.03737 16.9869 9.03737 16.1858C9.03737 15.3846 9.66761 14.7576 10.5 14.7576C11.3205 14.7576 11.9745 15.3846 11.9745 16.1858ZM21 7.67489C21 6.40929 20.1914 5.32946 19.0617 4.88824L19.0617 1.06821C19.0617 0.487663 18.5504 0 17.9202 0C17.278 0 16.7786 0.487663 16.7786 1.06821L16.7786 4.88824C15.6489 5.32946 14.8403 6.40929 14.8403 7.67489C14.8403 8.92888 15.6489 10.0203 16.7786 10.4615V22.897C16.7786 23.5123 17.2899 24 17.9202 24C18.5385 24 19.0617 23.5123 19.0617 22.897V10.4615C20.1914 10.0203 21 8.94049 21 7.67489ZM19.3828 7.67489C19.3828 8.47605 18.7288 9.10305 17.9202 9.10305C17.0878 9.10305 16.4575 8.47605 16.4575 7.67489C16.4575 6.86212 17.0878 6.24673 17.9202 6.24673C18.7288 6.24673 19.3828 6.86212 19.3828 7.67489Z" fill="#A5AAB0"/>
</svg>
