<svg width="29" height="40" viewBox="0 0 29 40" fill="none" xmlns="http://www.w3.org/2000/svg">
<path d="M9.63214 22.5181H14.267C18.4616 22.5181 21.025 24.5748 21.025 27.8972C21.025 31.1404 18.3063 33.3817 14.3964 33.3817C10.383 33.3817 7.71607 31.3514 7.48304 28.1345H0C0.336607 35.3065 5.98125 40 14.3188 40C22.8375 40 29 35.1747 29 28.5036C29 23.4937 25.7893 20.0132 20.6625 19.4331V18.9585C24.8313 18.0883 27.55 14.6605 27.55 10.2571C27.55 4.27159 22.0348 0 14.3705 0C6.21429 0 0.958036 4.53527 0.699107 11.7337H7.92321C8.13036 8.43771 10.5384 6.35465 14.1634 6.35465C17.8143 6.35465 20.1446 8.30587 20.1446 11.3645C20.1446 14.4759 17.7366 16.5854 14.1893 16.5854H9.63214V22.5181Z" fill="#5358CF"/>
</svg>
