<svg width="50" height="50" viewBox="0 0 50 50" fill="none" xmlns="http://www.w3.org/2000/svg">
<path d="M24.9879 50C38.6902 50 50 38.6847 50 25C50 11.3153 38.666 0 24.9637 0C11.2856 0 0 11.3153 0 25C0 38.6847 11.3098 50 24.9879 50ZM24.9637 28.941C20.2272 28.9168 16.5539 24.9516 16.5539 19.705C16.5056 14.7727 20.2513 10.6625 24.9637 10.6625C29.6762 10.6625 33.3736 14.7727 33.3736 19.705C33.3736 24.9516 29.7003 28.9894 24.9637 28.941ZM24.9637 45.8656C19.5505 45.8656 13.7989 43.617 10.1498 39.7002C12.929 35.5416 18.4389 33.1238 24.9637 33.1238C31.4161 33.1238 36.9744 35.4932 39.7777 39.7002C36.1286 43.617 30.377 45.8656 24.9637 45.8656Z" fill="#828282"/>
</svg>
