<svg width="90" height="80" viewBox="0 0 90 80" fill="none" xmlns="http://www.w3.org/2000/svg">
<g clip-path="url(#clip0_35_4)">
<path d="M63.4761 53.627C59.8713 58.6976 55.5562 62.9881 49.9467 65.7637C48.5758 66.4441 48.8634 67.2105 49.3444 68.299C51.0164 72.0589 52.6031 75.855 54.3786 79.9958C51.0524 79.7146 48.1712 78.8665 45.2855 78.0592C34.1339 74.9343 23.5126 70.6121 14.46 63.1513C4.71069 55.1237 -0.790979 45.0551 0.0945032 31.8888C0.98448 18.591 10.6034 5.98258 23.535 1.73744C38.5388 -3.18801 54.8236 2.62184 63.4357 15.9786C63.6514 16.3097 63.7638 16.7088 63.9211 17.0716C58.5408 19.3847 55.0168 23.4847 52.7829 28.8274C47.2543 21.5345 40.139 23.2443 35.289 28.9363C34.1384 30.2878 33.0866 31.7255 31.9134 33.0544C30.2144 34.9865 28.6592 37.1 26.1915 38.1658C23.7283 39.2316 21.1528 38.574 19.7369 36.5285C18.4829 34.7189 18.757 31.8979 20.3437 30.2561C22.236 28.2968 25.5802 28.1335 27.9849 30.3967C29.8053 32.111 30.5155 31.3718 31.8325 29.9114C33.1585 28.4419 32.7584 27.6663 31.4594 26.6912C29.9537 25.5619 28.331 24.6684 26.5151 24.2557C22.4248 23.3305 18.8604 24.2784 16.1411 27.6437C13.615 30.7686 13.2149 34.279 14.8915 37.871C16.658 41.6535 19.7369 43.5584 23.9486 43.5085C28.6547 43.4496 31.8235 40.6603 34.7092 37.3903C36.8442 34.9729 38.6107 32.2244 41.0829 30.1109C43.0831 28.3965 45.344 28.3875 47.1958 30.0021C49.2185 31.7754 49.5691 34.3198 48.0948 36.5467C46.3868 39.1273 43.2179 39.4675 40.0536 37.0955C37.4421 35.1362 37.514 38.1522 36.4127 38.896C34.916 39.9074 36.161 40.6059 36.9027 41.268C41.2986 45.1639 47.1194 44.665 52.2076 39.9618C53.0032 40.4199 52.9807 41.3361 53.3043 42.0436C55.5113 46.8647 58.797 50.6654 63.4716 53.1825C63.4716 53.3322 63.4716 53.4819 63.4896 53.627H63.4761Z" fill="#27B83E"/>
<path d="M63.476 53.6267C63.4625 53.477 63.458 53.3319 63.458 53.1822C66.065 49.7535 67.3775 45.7396 68.1866 41.6079C69.8721 33.0133 68.3933 24.8586 64.2491 17.1802C72.7893 13.0757 84.5433 17.9195 88.3594 27.1082C92.4766 37.0271 88.665 47.4404 79.0056 52.2933C77.5448 53.028 77.347 53.731 77.9449 55.0735C78.682 56.738 79.3607 58.4388 79.7383 60.5523C73.7332 59.1508 68.5102 56.6246 63.4805 53.6267H63.476Z" fill="#5358CF"/>
<path d="M64.2536 17.1845C68.3979 24.863 69.8767 33.0176 68.1911 41.6122C67.382 45.744 66.0695 49.7578 63.4625 53.1866C58.7879 50.6694 55.5022 46.8733 53.2952 42.0476C52.9716 41.3446 52.9941 40.4285 52.1985 39.9704C54.4369 36.3648 54.5942 32.6503 52.7783 28.8315C55.0167 23.4887 58.5407 19.3887 63.9165 17.0757C64.0244 17.112 64.1368 17.1528 64.2491 17.1891L64.2536 17.1845Z" fill="#494D98"/>
<path d="M52.7829 28.8269C54.5988 32.6457 54.437 36.3602 52.2031 39.9659C47.1149 44.6691 41.2941 45.168 36.8982 41.272C36.1565 40.6144 34.9114 39.9114 36.4082 38.9C37.5095 38.1562 37.4375 35.1402 40.049 37.0995C43.2134 39.4715 46.3867 39.1313 48.0903 36.5507C49.5646 34.3238 49.214 31.7749 47.1913 30.0061C45.3439 28.387 43.083 28.4006 41.0784 30.115C38.6062 32.2285 36.8397 34.9769 34.7047 37.3943C31.819 40.6643 28.6501 43.4581 23.9441 43.5125C19.7324 43.5624 16.6534 41.6621 14.887 37.875C13.2104 34.283 13.6104 30.7726 16.1365 27.6477C18.8559 24.287 22.4203 23.3391 26.5106 24.2597C28.3265 24.6725 29.9492 25.5659 31.4549 26.6953C32.7539 27.6704 33.154 28.4414 31.828 29.9154C30.5155 31.3758 29.8008 32.1151 27.9804 30.4007C25.5757 28.133 22.227 28.3008 20.3392 30.2601C18.7525 31.9019 18.4783 34.7229 19.7324 36.5326C21.1483 38.578 23.7238 39.2357 26.187 38.1698C28.6501 37.104 30.2054 34.986 31.9089 33.0584C33.082 31.7296 34.1338 30.2918 35.2845 28.9403C40.1344 23.2484 47.2498 21.5385 52.7784 28.8314L52.7829 28.8269Z" fill="#FEFBF8"/>
</g>
<defs>
<clipPath id="clip0_35_4">
<rect width="90" height="80" fill="white"/>
</clipPath>
</defs>
</svg>
