<svg width="95" height="83" viewBox="0 0 95 83" fill="none" xmlns="http://www.w3.org/2000/svg">
<g clip-path="url(#clip0_34_158)">
<path d="M65.9538 75.047C64.7394 77.0127 63.5448 78.9934 62.3106 80.944C60.7839 83.351 59.9264 83.5265 57.5274 82.0823C39.1182 71.0053 20.714 59.9333 2.30487 48.8663C-0.426268 47.2215 -0.574969 46.7401 1.03596 43.9671C6.05213 35.3472 11.1228 26.7523 16.0795 18.0973C17.2047 16.1366 18.3745 15.7305 20.258 16.964C21.631 17.8666 23.118 18.5837 24.5604 19.386C29.983 22.7157 35.3908 26.0754 40.8382 29.3649C52.5955 36.4604 64.3676 43.5308 76.1398 50.5913C77.6813 51.5189 79.0196 52.4667 77.7259 54.5126C75.3715 58.2334 73.3789 62.1697 70.9501 65.8504C69.1459 68.5833 67.3912 71.4115 66.3602 74.5957L66.3801 74.5756C66.0678 74.5756 65.9389 74.7461 65.9538 75.047ZM42.3401 54.0412C45.7156 54.0262 48.2286 52.0605 49.0366 48.9515C49.785 46.0632 48.5161 42.9742 45.9386 41.4248C43.3265 39.8552 39.9857 40.2915 37.7948 42.6082C37.0116 43.4406 36.397 44.4535 35.7973 45.4414C35.252 46.339 34.8357 47.1914 33.542 46.4744C32.9125 46.1284 32.1888 46.364 31.8319 47.026C31.4304 47.7631 31.5791 48.5102 32.273 49.0267C32.8678 49.468 33.2148 49.8591 32.739 50.6464C32.273 51.4187 31.8269 51.7045 30.9496 51.2331C30.0772 50.7618 28.843 51.2331 28.9967 51.9552C29.3734 53.7203 29.8294 55.4603 30.1268 57.2555C30.2061 57.7269 31.4453 57.6216 32.1392 57.2405C32.2086 57.2004 32.278 57.1402 32.3176 57.07C33.081 55.7612 33.8939 56.5134 34.7861 56.9396C35.9311 57.4912 37.2991 59.161 38.3499 57.2455C39.2719 55.5556 37.3289 55.1645 36.3326 54.4324C35.5692 53.8707 34.3995 53.4947 35.2471 52.1658C36.174 50.7066 36.9422 51.9953 37.6957 52.3865C39.2322 53.1838 40.6746 54.2218 42.3401 54.0312V54.0412Z" fill="#27B83E"/>
<path d="M66.3652 74.5907C67.3913 71.4065 69.1509 68.5783 70.9551 65.8454C73.3889 62.1597 75.3765 58.2284 77.7309 54.5076C79.0246 52.4617 77.6913 51.5139 76.1448 50.5863C64.3677 43.5258 52.5955 36.4554 40.8432 29.3599C35.3958 26.0704 29.993 22.7107 24.5654 19.381C27.4354 15.9461 30.3152 12.5162 33.1802 9.07623C34.3599 7.66214 35.4553 7.5819 36.9522 8.82049C40.4962 11.754 40.5557 11.6888 44.1642 8.71017C45.6958 7.44651 47.277 6.233 48.7144 4.87407C50.1271 3.54022 51.3514 3.60039 52.4468 5.11979C53.3787 6.40851 54.1965 6.4035 55.4952 5.53097C58.1024 3.78593 60.8782 2.30164 63.535 0.631808C65.1905 -0.406194 66.3404 -0.240715 67.3863 1.55949C76.3629 16.9991 85.3791 32.4187 94.4251 47.8183C95.4709 49.6034 95.0595 50.8821 93.3842 51.7296C86.4398 55.2247 80.7843 60.4698 74.9701 65.5044C72.1398 67.9565 70.0927 71.1357 67.54 73.8485C67.2029 74.2046 66.9699 74.6859 66.3652 74.5907Z" fill="#22305F"/>
<path d="M65.9538 75.047C65.9389 74.7462 66.0678 74.5757 66.3801 74.5757C66.2363 74.7311 66.0926 74.8916 65.9538 75.047Z" fill="#22305F"/>
<path d="M42.3401 54.0413C40.6697 54.2318 39.2323 53.1938 37.6957 52.3965C36.9423 52.0054 36.179 50.7167 35.2471 52.1759C34.3995 53.5047 35.5743 53.8808 36.3326 54.4424C37.324 55.1745 39.2719 55.5657 38.35 57.2556C37.3041 59.1711 35.9311 57.4963 34.7861 56.9497C33.8989 56.5234 33.086 55.7713 32.3177 57.0801C32.278 57.1503 32.2087 57.2104 32.1393 57.2505C31.4404 57.6316 30.2012 57.737 30.1268 57.2656C29.8294 55.4704 29.3734 53.7304 28.9967 51.9653C28.8431 51.2432 30.0773 50.7718 30.9497 51.2432C31.827 51.7145 32.2731 51.4287 32.739 50.6565C33.2149 49.8692 32.8679 49.4781 32.2731 49.0368C31.5792 48.5253 31.4305 47.7731 31.8319 47.036C32.1938 46.3691 32.9125 46.1384 33.542 46.4844C34.8357 47.1965 35.257 46.349 35.7973 45.4514C36.3971 44.4636 37.0117 43.4506 37.7948 42.6182C39.9807 40.2965 43.3216 39.8603 45.9387 41.4348C48.5162 42.9843 49.7851 46.0682 49.0366 48.9616C48.2287 52.0706 45.7156 54.0413 42.3401 54.0513V54.0413ZM46.3501 47.4723C46.4145 45.3612 44.7937 43.571 42.7367 43.4757C40.754 43.3855 37.78 46.1384 37.6263 48.1994C37.5619 49.097 40.7887 51.0627 42.3996 51.1028C44.5409 51.1579 46.2857 49.5533 46.3501 47.4723Z" fill="#FEFEFE"/>
<path d="M46.3501 47.4722C46.2857 49.5483 44.5409 51.1529 42.3996 51.1027C40.7887 51.0626 37.5619 49.102 37.6263 48.1994C37.78 46.1384 40.754 43.3904 42.7367 43.4757C44.7887 43.566 46.4145 45.3611 46.3501 47.4722Z" fill="#27B83E"/>
</g>
<defs>
<clipPath id="clip0_34_158">
<rect width="95" height="83" fill="white"/>
</clipPath>
</defs>
</svg>
