<svg width="96" height="92" viewBox="0 0 96 92" fill="none" xmlns="http://www.w3.org/2000/svg">
<g clip-path="url(#clip0_34_177)">
<path d="M72.0748 35.0129C77.1503 38.8804 81.582 43.2782 84.0524 49.3522C84.9357 51.5286 85.5246 53.7801 85.8091 56.0816C85.9837 57.5075 86.6026 57.7077 87.7804 57.4175C89.4822 56.9972 91.199 56.6069 92.3219 55.0809C93.1503 53.9602 93.4647 52.8445 92.1073 51.8588C91.8827 51.5887 91.5134 51.4436 91.3187 51.6837C91.0443 52.024 91.5483 52.099 91.708 52.2891C92.0224 53.1597 92.0025 53.9802 91.0892 54.4405C90.3007 54.8358 89.4123 54.7908 88.7286 54.2254C87.8453 53.4899 87.4859 52.4742 87.7305 51.3185C88.3094 48.6117 91.8178 47.6061 94.1634 49.4723C96.4042 51.2585 96.6038 54.6657 94.6375 57.0772C92.8908 59.2236 90.4753 60.1192 87.8902 60.4194C86.4379 60.5895 85.9837 61.0849 85.7691 62.4958C84.6662 69.7155 81.1578 75.6143 75.5783 80.2524C74.4803 81.163 74.4753 81.8884 75.194 82.9441C75.7529 83.7646 76.257 84.6452 76.6512 85.5558C77.6344 87.8023 76.8259 90.2038 74.7698 91.3846C72.7885 92.5204 70.5477 92.01 68.9457 90.2189C67.8777 89.0231 67.8527 86.6565 66.0112 86.5565C64.5589 86.4814 63.0667 87.5471 61.5645 88.0174C51.1191 91.2645 40.7585 90.7792 30.5427 87.0668C28.6063 86.3613 27.5483 86.5865 26.6849 88.5578C25.6818 90.8393 23.985 92.4403 21.2152 91.89C18.1809 91.2846 16.6038 87.8273 18.4005 85.0255C19.9426 82.6289 19.3337 81.5982 17.1179 80.2924C10.8846 76.62 6.0586 71.2765 1.05299 66.1682C0.434148 65.5378 0.0748222 64.8673 0.139701 63.9567C0.194598 63.1262 0.149682 62.2906 0.149682 61.4601C0.149682 59.6289 -0.274523 57.6526 0.269457 55.9965C0.928222 54.0052 3.38362 55.0109 4.94569 54.2604C7.67557 52.9445 9.97127 51.1984 11.3137 48.5267C13.2451 44.6742 15.8702 41.382 18.8247 38.325C19.8477 37.2643 20.1522 36.1736 20.1322 34.7577C20.0623 30.0947 20.1472 25.4266 20.0823 20.7636C20.0623 19.2776 20.3967 18.9724 21.9189 19.3276C27.3986 20.6085 31.426 23.9006 34.7698 28.2134C35.5034 29.164 36.0773 30.0346 37.5745 29.5493C42.3056 28.0283 47.1915 27.8132 52.1123 28.0433C54.907 28.5987 57.7018 29.154 60.4965 29.7094C61.4747 30.0046 62.4529 30.3048 63.436 30.6C66.3106 32.0709 69.1902 33.5369 72.0648 35.0079L72.0748 35.0129Z" fill="#5358CF"/>
<path d="M60.5066 29.7194C57.7118 29.164 54.9171 28.6087 52.1223 28.0533C50.9445 19.3927 57.9714 13.4638 64.7037 14.0042C69.2851 14.3694 72.6838 16.5508 74.7399 20.6735C76.7561 24.7111 76.4717 28.6987 74.1011 32.5112C73.5372 33.4168 72.7536 34.1823 72.0699 35.0129C69.1953 33.5419 66.3157 32.0759 63.4411 30.605C65.9564 30.685 67.8928 29.7995 68.4567 27.1577C68.9657 24.7762 67.9477 23.1451 65.607 22.3496C65.0082 22.1445 64.2646 21.9143 64.6987 20.9587C65.0531 20.1782 65.5871 19.7729 66.4654 20.0381C67.3388 20.2983 68.1922 20.6285 69.0805 20.8186C69.7443 20.9587 70.1685 20.5284 70.3581 19.908C70.5029 19.4277 70.2084 19.2076 69.8291 18.9474C66.5952 16.766 64.549 17.3413 62.6426 20.6785C61.5197 22.6398 61.6345 23.6855 64.055 23.9356C65.2327 24.0557 66.176 24.5911 66.3606 25.8269C66.5004 26.7775 66.0163 27.7031 65.2826 28.2284C64.3344 28.9039 63.2315 28.7488 62.2633 28.0783C61.5646 27.593 60.9907 26.4723 59.9726 27.3829C58.8647 28.3735 60.6613 28.8538 60.5066 29.7194Z" fill="#27B83E"/>
<path d="M52.0474 9.09592C52.0125 14.1342 48.0399 18.0368 42.9744 18.0017C37.9489 17.9667 34.0562 13.9841 34.0861 8.9108C34.121 3.86751 38.0936 -0.0350331 43.1591 -1.02601e-05C48.1897 0.0350126 52.0774 4.01761 52.0474 9.09092V9.09592ZM46.5577 11.3174C44.4816 11.1172 44.2421 9.64128 43.9925 8.09527C43.7929 6.87447 43.4036 5.6887 43.1092 4.48291C42.9844 3.98259 42.8197 3.46225 42.2009 3.49727C40.9033 3.56732 40.6588 4.85816 39.9252 5.58863C39.6357 5.87382 39.4461 6.31411 39.7754 6.69936C39.9052 6.84946 40.1947 6.9145 40.4142 6.9195C40.9482 6.92951 41.6869 5.41852 41.9763 6.99455C42.2458 8.46551 43.3238 9.89144 42.5702 11.4425C42.3806 11.8327 41.2926 11.8677 41.7118 12.6082C42.1161 13.3287 42.8996 12.8884 43.4985 12.6883C44.4666 12.3631 45.6494 12.5532 46.5577 11.3224V11.3174Z" fill="#27B83E"/>
<path d="M60.5064 29.7194C60.6611 28.8538 58.8595 28.3735 59.9724 27.3829C60.9905 26.4773 61.5595 27.598 62.2631 28.0783C63.2313 28.7488 64.3392 28.9039 65.2825 28.2284C66.0161 27.7031 66.5002 26.7775 66.3605 25.8269C66.1758 24.591 65.2326 24.0557 64.0548 23.9356C61.6393 23.6855 61.5245 22.6448 62.6424 20.6785C64.5489 17.3413 66.595 16.7659 69.829 18.9474C70.2132 19.2075 70.5077 19.4227 70.358 19.908C70.1683 20.5284 69.7441 20.9637 69.0804 20.8186C68.192 20.6285 67.3386 20.2982 66.4653 20.0381C65.5819 19.7729 65.0479 20.1782 64.6986 20.9587C64.2694 21.9143 65.013 22.1445 65.6069 22.3496C67.9425 23.1451 68.9656 24.7812 68.4565 27.1577C67.8926 29.7944 65.9562 30.685 63.4409 30.605C62.4628 30.3098 61.4796 30.0146 60.5014 29.7144L60.5064 29.7194Z" fill="#FEFEFE"/>
<path d="M91.7179 52.2841C91.5532 52.0939 91.0542 52.0189 91.3287 51.6787C91.5233 51.4335 91.8926 51.5836 92.1172 51.8538C91.9874 51.9989 91.8527 52.144 91.7229 52.2841H91.7179Z" fill="#FEFEFE"/>
<path d="M46.5578 11.3124C45.6495 12.5382 44.4667 12.3531 43.4985 12.6783C42.8997 12.8784 42.1211 13.3187 41.7119 12.5982C41.2927 11.8577 42.3806 11.8227 42.5703 11.4325C43.3239 9.88146 42.2459 8.45553 41.9764 6.98457C41.6869 5.40854 40.9533 6.92453 40.4143 6.90952C40.1947 6.90952 39.9003 6.83947 39.7755 6.68937C39.4461 6.30412 39.6358 5.86884 39.9252 5.57865C40.6539 4.84817 40.9034 3.56233 42.201 3.48729C42.8248 3.45226 42.9845 3.9676 43.1093 4.47293C43.4087 5.67871 43.793 6.86449 43.9926 8.08528C44.2471 9.63129 44.4817 11.1073 46.5578 11.3074V11.3124Z" fill="#FEFEFE"/>
</g>
<defs>
<clipPath id="clip0_34_177">
<rect width="96" height="92" fill="white"/>
</clipPath>
</defs>
</svg>
