<svg width="95" height="72" viewBox="0 0 95 72" fill="none" xmlns="http://www.w3.org/2000/svg">
<g clip-path="url(#clip0_34_168)">
<path d="M18.6108 17.3737C19.7667 12.3536 21.976 7.92858 26.1263 4.62182C34.3198 -1.90051 46.727 -1.41577 54.6961 5.87925C56.1933 7.25187 56.8956 7.36226 58.5148 5.94164C68.0982 -2.48123 82.0661 -1.90531 90.0449 7.37185C96.0924 14.4029 96.229 22.3747 92.5127 30.4952C89.3572 37.3871 84.1388 42.8295 78.7204 48.0032C72.3754 54.06 65.728 59.8145 59.2951 65.7849C57.5589 67.3975 56.208 67.6566 54.3596 65.9048C51.7942 63.4764 48.9899 61.2975 46.288 59.0082C40.7428 53.8729 34.9538 48.9823 29.8475 43.4007C23.0733 36 17.6354 28.0187 18.6108 17.3689V17.3737ZM46.4197 25.3647C46.4197 25.8974 47.005 26.2621 47.4195 26.7421C49.7946 29.4873 53.1696 31.3783 54.4083 35.1074C54.8034 36.2928 56.2128 36.6671 57.5248 36.48C58.8123 36.2976 60.0559 35.6401 60.2218 34.3875C60.5046 32.2757 62.1336 31.3303 63.4455 30.116C65.9816 27.7595 68.62 25.5134 71.2049 23.2097C72.0876 22.4226 73.4386 21.5972 72.1413 20.3109C70.8586 19.0391 69.9466 20.4405 69.1029 21.1748C66.1279 23.7713 63.2114 26.4253 60.2657 29.0554C58.7782 30.3848 55.2374 30.356 53.8377 28.9978C52.2185 27.4284 50.6189 25.835 49.0046 24.2656C48.5168 23.7905 47.9462 23.4833 47.2537 23.8241C46.7075 24.0928 46.3856 24.5296 46.4148 25.3599L46.4197 25.3647Z" fill="#5358CF"/>
<path d="M18.6108 17.3737C17.6354 28.0235 23.0733 36.0048 29.8476 43.4054C34.9538 48.9871 40.7429 53.8776 46.2881 59.013C42.2157 62.6653 38.1141 66.2936 34.076 69.9891C31.1692 72.6479 31.0132 72.6575 28.1601 70.1043C23.5415 65.972 18.7669 62.003 14.2703 57.7507C9.30055 53.0473 4.50641 48.1472 1.71674 41.764C-4.24789 28.1243 6.36456 16.1067 18.6157 17.3785L18.6108 17.3737Z" fill="#27B83E"/>
<path d="M46.4149 25.3647C46.3808 24.5344 46.7075 24.0976 47.2538 23.8289C47.9463 23.4881 48.5169 23.7953 49.0046 24.2704C50.6238 25.8398 52.2235 27.4332 53.8378 29.0026C55.2375 30.3608 58.7782 30.3896 60.2657 29.0602C63.2066 26.4301 66.1279 23.7761 69.1029 21.1796C69.9467 20.4453 70.8587 19.0439 72.1413 20.3157C73.4338 21.602 72.0877 22.4275 71.2049 23.2146C68.6201 25.5183 65.9767 27.7644 63.4456 30.1208C62.1385 31.3351 60.5047 32.2806 60.2218 34.3923C60.056 35.6449 58.8124 36.3024 57.5248 36.4848C56.2129 36.672 54.8034 36.2976 54.4084 35.1122C53.1696 31.3783 49.7947 29.4873 47.4196 26.7469C47.005 26.267 46.4198 25.9022 46.4198 25.3695L46.4149 25.3647Z" fill="#FEFEFE"/>
</g>
<defs>
<clipPath id="clip0_34_168">
<rect width="95" height="72" fill="white"/>
</clipPath>
</defs>
</svg>
