<svg width="15" height="16" viewBox="0 0 15 16" fill="none" xmlns="http://www.w3.org/2000/svg">
<path d="M9.76262 6.04589C9.83157 6.04589 9.88877 6.04778 9.94559 6.0457C10.888 6.0101 11.83 6.02601 12.7708 6.07902C13.0285 6.0936 13.286 6.14188 13.5395 6.19376C13.8424 6.25586 14.0757 6.44463 14.2868 6.65385C14.6479 7.01208 14.8713 7.44813 14.9853 7.93662C15.0308 8.13183 14.9624 8.31757 14.8763 8.49214C14.8291 8.58794 14.7673 8.67712 14.7089 8.76762C14.6662 8.83408 14.615 8.89542 14.5737 8.96283C14.4747 9.12509 14.4772 9.13513 14.6078 9.2688C15.0254 9.69576 15.0614 10.3096 14.692 10.8291C14.6119 10.9418 14.5123 11.0423 14.4137 11.1408C14.3621 11.1923 14.3395 11.2396 14.3669 11.3074C14.4222 11.4449 14.474 11.5836 14.5323 11.7198C14.6483 11.9905 14.7086 12.2654 14.6198 12.5567C14.5601 12.7524 14.4356 12.9081 14.2993 13.0556C14.1548 13.2118 14.0056 13.3636 13.8615 13.52C13.7702 13.6192 13.7421 13.7305 13.7706 13.8688C13.8372 14.1912 13.7442 14.4862 13.5736 14.7605C13.4014 15.0377 13.1474 15.2348 12.8943 15.4352C12.4677 15.7726 11.9686 15.9259 11.4376 15.9615C10.8853 15.9986 10.3298 16.0045 9.7759 15.9986C9.18 15.9924 8.5841 15.9604 7.98859 15.9325C7.12613 15.892 6.27349 15.7796 5.42856 15.6016C4.88081 15.4863 4.32728 15.3977 3.77567 15.3C3.74582 15.2947 3.6994 15.3077 3.67957 15.3293C3.45269 15.576 3.17438 15.6898 2.83464 15.6855C2.23835 15.6781 1.64206 15.6839 1.04578 15.6832C0.445059 15.6824 0.000154915 15.2475 -3.76845e-05 14.6568C-0.000808081 12.7373 -0.000615482 10.8178 0.000732712 8.89826C0.00111791 8.35411 0.446985 7.90916 1.00032 7.905C1.63821 7.90026 2.27629 7.90311 2.91418 7.90311C3.17688 7.90311 3.40319 7.99815 3.59193 8.1731C3.64933 8.22631 3.70461 8.23615 3.77375 8.22422C3.94035 8.19506 4.08942 8.12122 4.20016 8.00175C4.36772 7.82093 4.52951 7.63216 4.67087 7.43109C5.011 6.94695 5.25118 6.40961 5.4952 5.87492C5.65255 5.53032 5.79411 5.17759 5.97361 4.84435C6.07203 4.66164 6.22303 4.50184 6.37056 4.35056C6.52291 4.19416 6.6922 4.05084 6.86727 3.91906C7.26711 3.61801 7.51787 3.22854 7.6577 2.75501C7.79502 2.28961 7.86879 1.81494 7.92195 1.33573C7.95141 1.06952 7.97838 0.803122 8.00361 0.536534C8.02075 0.354202 8.1184 0.227156 8.27383 0.136463C8.48934 0.010743 8.72162 -0.0159536 8.96795 0.00941765C9.94674 0.110335 10.7125 0.908205 10.8716 1.87837C11.0403 2.90742 10.7726 3.8348 10.284 4.72848C10.0783 5.10488 9.88492 5.48999 9.78149 5.91013C9.77128 5.9516 9.76936 5.99515 9.76242 6.04627L9.76262 6.04589ZM8.80078 0.788164C8.77612 1.02995 8.75475 1.2456 8.73202 1.46107C8.67597 1.99122 8.5841 2.51341 8.42636 3.02576C8.24224 3.6235 7.92002 4.12203 7.41811 4.50865C7.26191 4.62888 7.11804 4.76464 6.96993 4.89509C6.80795 5.03766 6.68045 5.20353 6.59821 5.40441C6.51328 5.61155 6.41544 5.81357 6.32492 6.01862C5.99634 6.76159 5.65217 7.49603 5.15642 8.15095C4.85654 8.54723 4.50639 8.87138 4.00005 8.99312C3.97655 8.9988 3.94978 9.05239 3.94978 9.08382C3.95287 10.8678 3.95903 12.6517 3.96307 14.4355C3.96307 14.4972 3.98021 14.5212 4.04551 14.5328C4.54357 14.6202 5.04298 14.7019 5.53757 14.8058C6.24691 14.955 6.96126 15.0639 7.68466 15.1114C8.72451 15.1795 9.7655 15.2153 10.8078 15.1894C11.0571 15.1831 11.3065 15.1589 11.5547 15.1322C12.1013 15.0733 12.5077 14.774 12.8548 14.3802C12.9436 14.2794 12.9964 14.1586 12.9717 14.0225C12.8964 13.6067 13.0264 13.2502 13.2953 12.9367C13.4274 12.7827 13.5676 12.6343 13.7157 12.4953C13.8507 12.3686 13.8771 12.2399 13.7976 12.0737C13.7201 11.9118 13.6489 11.745 13.5969 11.5738C13.4786 11.1834 13.5468 10.8363 13.8638 10.5482C13.9536 10.4666 14.0268 10.3609 14.0853 10.2545C14.1833 10.0767 14.1585 9.96689 14.0167 9.81977C13.6331 9.42159 13.5865 9.04046 13.8652 8.56636C13.9534 8.4164 14.0456 8.26872 14.131 8.11725C14.1506 8.08222 14.166 8.03053 14.1546 7.9955C14.0427 7.64996 13.8646 7.34323 13.5761 7.10997C13.5035 7.05127 13.418 6.99258 13.3292 6.97175C13.1493 6.92953 12.9638 6.8998 12.7793 6.88882C12.3924 6.86591 12.0047 6.84944 11.6172 6.84736C11.1175 6.84471 10.6179 6.85701 10.1183 6.86648C9.84197 6.87178 9.56771 6.8661 9.29768 6.79794C9.1045 6.74928 8.99742 6.62962 8.96352 6.43952C8.91094 6.14567 8.92962 5.85579 9.01225 5.5697C9.13821 5.13309 9.35642 4.73605 9.57117 4.33901C9.96985 3.60248 10.2212 2.84097 10.0608 1.9916C9.96099 1.46315 9.66824 1.09035 9.16691 0.88094C9.05732 0.83512 8.93425 0.82092 8.80078 0.788164ZM0.818316 11.7953C0.818316 12.7439 0.818316 13.6927 0.818316 14.6413C0.818316 14.8234 0.881488 14.8849 1.06715 14.8849C1.66017 14.8853 2.25318 14.8851 2.84619 14.8849C3.03879 14.8849 3.10004 14.8253 3.10004 14.6365C3.10004 12.7392 3.10023 10.842 3.10004 8.94465C3.10004 8.76175 3.03841 8.7023 2.8512 8.7023C2.26454 8.70211 1.67789 8.7023 1.09123 8.7023C0.871088 8.7023 0.818123 8.7538 0.817931 8.96813C0.817931 9.91047 0.817931 10.8528 0.817931 11.7951L0.818316 11.7953Z" fill="#828282"/>
</svg>
