<svg width="271" height="67" viewBox="0 0 271 67" fill="none" xmlns="http://www.w3.org/2000/svg">
<path d="M205.045 67H204.694L204.7 65.6757H205.045C205.615 65.6757 206.186 65.6704 206.732 65.6572C207.106 65.6492 207.484 65.636 207.859 65.6227L207.909 66.947C207.526 66.9629 207.143 66.9735 206.761 66.9815C206.201 66.9947 205.623 67.0027 205.043 67.0027L205.045 67ZM201.478 66.9126C200.411 66.8596 199.332 66.7828 198.269 66.6822L198.393 65.3632C199.438 65.4638 200.496 65.538 201.541 65.5909L201.475 66.9126H201.478ZM211.126 66.7484L211.017 65.4294C212.06 65.342 213.115 65.2334 214.16 65.1009L214.324 66.4147C213.261 66.5498 212.184 66.661 211.123 66.7484H211.126ZM195.078 66.3061C194.028 66.1578 192.959 65.9856 191.906 65.7869L192.146 64.4838C193.181 64.6772 194.228 64.8493 195.26 64.9924L195.078 66.3034V66.3061ZM217.509 65.9432L217.288 64.6374C218.319 64.4626 219.364 64.2613 220.394 64.0415L220.668 65.3367C219.62 65.5592 218.56 65.7658 217.509 65.9432ZM188.758 65.1301C187.726 64.8891 186.678 64.6215 185.644 64.3355L185.995 63.0588C187.011 63.3422 188.04 63.6045 189.056 63.8402L188.758 65.1301ZM223.801 64.5977L223.473 63.3158C224.484 63.0562 225.511 62.7701 226.521 62.4655L226.899 63.7342C225.872 64.0415 224.83 64.3328 223.801 64.5977ZM182.567 63.4085C181.561 63.0827 180.54 62.7304 179.529 62.3596L179.983 61.1147C180.975 61.4803 181.984 61.8272 182.971 62.1451L182.567 63.4058V63.4085ZM229.96 62.7516L229.532 61.4988C230.522 61.1598 231.522 60.7969 232.509 60.4182L232.982 61.6551C231.981 62.0391 230.965 62.4099 229.96 62.7542V62.7516ZM176.542 61.2021C175.566 60.8022 174.576 60.3758 173.597 59.9334L174.138 58.7257C175.104 59.1627 176.08 59.5812 177.041 59.9758L176.542 61.2021ZM235.961 60.4473L235.444 59.2289C236.402 58.821 237.375 58.3866 238.336 57.9364L238.893 59.1362C237.916 59.5918 236.929 60.0314 235.958 60.4473H235.961ZM170.694 58.5641C169.749 58.0979 168.786 57.6079 167.833 57.1021L168.448 55.9314C169.39 56.4293 170.34 56.9166 171.275 57.3749L170.694 58.5641ZM241.785 57.7271L241.189 56.5458C242.12 56.0717 243.062 55.5738 243.994 55.0652L244.627 56.228C243.685 56.7445 242.73 57.2477 241.785 57.7271ZM165.015 55.5552C164.099 55.0361 163.165 54.4905 162.236 53.9343L162.914 52.798C163.833 53.3489 164.759 53.8893 165.664 54.4004L165.015 55.5552ZM247.419 54.6415L246.752 53.4999C247.654 52.9702 248.567 52.4166 249.465 51.8524L250.164 52.9755C249.256 53.5449 248.332 54.1064 247.419 54.6415ZM159.497 52.2471C158.61 51.6856 157.7 51.1002 156.795 50.5016L157.52 49.3945C158.418 49.9878 159.32 50.5705 160.199 51.1267L159.497 52.2471ZM252.861 51.2327L252.133 50.1282C253.003 49.5481 253.885 48.9469 254.756 48.3351L255.513 49.421C254.634 50.0381 253.742 50.6473 252.864 51.2327H252.861ZM154.127 48.7032C153.269 48.1152 152.382 47.4954 151.49 46.8624L152.253 45.7818C153.14 46.4095 154.021 47.0266 154.871 47.612L154.127 48.7059V48.7032ZM258.115 47.5431L257.331 46.4757C258.17 45.8559 259.023 45.2097 259.865 44.5554L260.672 45.6043C259.822 46.2638 258.962 46.9154 258.115 47.5431ZM148.883 44.9845C148.054 44.3806 147.186 43.7397 146.299 43.0775L147.089 42.0154C147.97 42.6749 148.836 43.3132 149.659 43.9145L148.883 44.9845ZM263.184 43.6072L262.353 42.5769C263.166 41.9147 263.992 41.2314 264.8 40.5454L265.652 41.5572C264.836 42.2511 264.005 42.9398 263.184 43.6072ZM143.737 41.144C142.887 40.4977 142.038 39.8462 141.193 39.1946L141.998 38.1457C142.842 38.7973 143.69 39.4462 144.537 40.0898L143.74 41.144H143.737ZM268.08 39.4595L267.209 38.4662C267.99 37.7776 268.784 37.0598 269.573 36.3367L270.463 37.3141C269.668 38.0424 268.866 38.7655 268.08 39.4595ZM138.66 37.232C137.818 36.5777 136.976 35.9182 136.137 35.2614L136.947 34.2178C137.786 34.8747 138.625 35.5315 139.467 36.1857L138.66 37.232ZM133.619 33.2908C132.78 32.6339 131.944 31.9771 131.102 31.3228L131.912 30.2766C132.751 30.9308 133.59 31.5904 134.429 32.2472L133.617 33.2908H133.619ZM1.3649 30.6845L0.467651 29.7125C1.2567 28.9788 2.05367 28.2504 2.84008 27.5459L3.71886 28.5338C2.94036 29.2304 2.14867 29.9535 1.36754 30.6819L1.3649 30.6845ZM128.579 29.3602C127.737 28.7086 126.895 28.0597 126.053 27.4161L126.853 26.3619C127.697 27.0082 128.542 27.6598 129.386 28.3113L128.581 29.3602H128.579ZM6.1124 26.4361L5.25473 25.4296C6.07017 24.7277 6.89881 24.0338 7.71425 23.361L8.5508 24.3861C7.74328 25.0509 6.92256 25.7395 6.11504 26.4361H6.1124ZM123.517 25.4905C122.67 24.8522 121.818 24.2192 120.965 23.5915L121.747 22.5241C122.604 23.1544 123.457 23.7901 124.309 24.4337L123.517 25.4932V25.4905ZM11.0288 22.389L10.216 21.3454C11.0578 20.6833 11.9181 20.0264 12.7679 19.3907L13.5569 20.4528C12.7151 21.0832 11.8653 21.7321 11.0314 22.389H11.0288ZM118.392 21.7189C117.519 21.0911 116.645 20.474 115.798 19.886L116.55 18.7974C117.403 19.3907 118.279 20.0105 119.16 20.6409L118.392 21.7189ZM16.1246 18.5776L15.362 17.4969C16.2381 16.8745 17.1301 16.26 18.0089 15.672L18.7425 16.7739C17.8743 17.3566 16.9928 17.9631 16.1246 18.5802V18.5776ZM113.17 18.0902C112.275 17.489 111.381 16.901 110.51 16.3448L111.222 15.2297C112.098 15.7912 113.001 16.3845 113.904 16.9911L113.17 18.0929V18.0902ZM21.4078 15.039L20.7059 13.9186C21.6163 13.3439 22.54 12.7797 23.4504 12.242L24.1207 13.3836C23.2208 13.9133 22.3104 14.4722 21.4105 15.039H21.4078ZM107.821 14.655C106.905 14.0934 105.987 13.5478 105.092 13.0287L105.752 11.8818C106.657 12.4036 107.583 12.9572 108.509 13.524L107.823 14.655H107.821ZM26.8784 11.8103L26.2451 10.6502C27.1872 10.1311 28.1425 9.62518 29.0872 9.14313L29.6836 10.3244C28.7521 10.7985 27.8073 11.2991 26.8784 11.8103ZM102.324 11.4792C101.39 10.9733 100.447 10.478 99.5238 10.0119L100.118 8.82794C101.054 9.30205 102.01 9.80264 102.954 10.3138L102.326 11.4792H102.324ZM32.5337 8.93124L31.9769 7.73141C32.9533 7.27319 33.9403 6.83352 34.9141 6.42033L35.4287 7.6387C34.4707 8.04659 33.4969 8.48097 32.5337 8.93124ZM96.6764 8.6293C95.7132 8.18167 94.7394 7.7473 93.7867 7.3447L94.3013 6.12368C95.2672 6.53422 96.2542 6.97125 97.2332 7.42681L96.679 8.6293H96.6764ZM38.3658 6.44946L37.8961 5.21255C38.9042 4.82585 39.9228 4.45769 40.9203 4.11866L41.3426 5.37412C40.3582 5.70784 39.3554 6.07071 38.3632 6.44946H38.3658ZM90.8522 6.16341C89.8573 5.78466 88.8571 5.42444 87.8728 5.09601L88.2924 3.84055C89.2926 4.17693 90.3112 4.54244 91.3193 4.9265L90.8522 6.16606V6.16341ZM44.3589 4.41266L43.9842 3.14396C45.0134 2.83937 46.0558 2.55331 47.085 2.2911L47.4069 3.57569C46.3936 3.83261 45.3696 4.11336 44.3563 4.41266H44.3589ZM84.8485 4.1478C83.8378 3.8538 82.8113 3.57834 81.7979 3.32937L82.1119 2.04213C83.1438 2.29375 84.1888 2.5745 85.218 2.8738L84.8512 4.14515L84.8485 4.1478ZM50.4892 2.8632L50.2201 1.56802C51.2677 1.34818 52.3339 1.14953 53.3815 0.977373L53.5953 2.28315C52.5661 2.45267 51.5211 2.64867 50.4892 2.8632ZM78.7156 2.64602C77.6838 2.44207 76.6387 2.25932 75.6069 2.10305L75.8048 0.794617C76.8551 0.953536 77.9213 1.13894 78.9716 1.34818L78.7156 2.64867V2.64602ZM56.7225 1.83553L56.5668 0.521807C57.6276 0.394673 58.7043 0.288727 59.7652 0.206619L59.8655 1.52829C58.8231 1.60775 57.7675 1.71105 56.7251 1.83553H56.7225ZM72.4771 1.70045C71.4373 1.59186 70.3817 1.50445 69.3341 1.44353L69.4106 0.121863C70.4794 0.18543 71.5561 0.272835 72.6143 0.384078L72.4771 1.70045ZM63.019 1.35878L62.9794 0.0344575H63.1088C64.1406 2.51825e-05 65.1803 -0.00792074 66.1963 0.00532246L66.1779 1.32964C65.1777 1.3164 64.1591 1.32435 63.1431 1.35613H63.019V1.35878Z" fill="#828282"/>
</svg>
