<svg width="119" height="120" viewBox="0 0 119 120" fill="none" xmlns="http://www.w3.org/2000/svg">
<path d="M59.4712 120C92.0826 120 119 92.8433 119 60C119 27.1567 92.0251 0 59.4137 0C26.8598 0 0 27.1567 0 60C0 92.8433 26.9174 120 59.4712 120ZM59.4137 69.4584C48.1406 69.4004 39.3983 59.8839 39.3983 47.2921C39.2832 35.4545 48.1982 25.5899 59.4137 25.5899C70.6293 25.5899 79.4292 35.4545 79.4292 47.2921C79.4292 59.8839 70.6868 69.5745 59.4137 69.4584ZM59.4137 110.077C46.5302 110.077 32.8415 104.681 24.1566 95.2805C30.7709 85.2998 43.8845 79.4971 59.4137 79.4971C74.7704 79.4971 87.999 85.1837 94.6709 95.2805C85.986 104.681 72.2972 110.077 59.4137 110.077Z" fill="#D9D9D9"/>
</svg>
