<svg width="700" height="640" viewBox="0 0 700 640" fill="none" xmlns="http://www.w3.org/2000/svg">
<rect width="700" height="640" rx="20" fill="#828282"/>
<path d="M266.386 187.259H434.747C433.816 175.397 426.901 169 414.134 169H286.866C274.232 169 267.184 175.397 266.386 187.259ZM239.257 225.642H461.876C460.014 212.981 453.631 205.784 439.534 205.784H261.599C247.502 205.784 241.119 212.981 239.257 225.642ZM253.619 471H447.381C475.973 471 491 456.073 491 427.686V290.68C491 262.159 475.973 247.365 447.381 247.365H253.619C224.894 247.365 210 262.159 210 290.68V427.686C210 456.207 224.894 471 253.619 471ZM255.215 444.878C242.848 444.878 236.065 438.348 236.065 425.42V292.812C236.065 279.884 242.848 273.487 255.215 273.487H445.785C458.019 273.487 464.935 279.884 464.935 292.812V425.42C464.935 438.348 458.019 444.878 445.785 444.878H428.098C416.395 418.357 386.606 400.365 351.098 400.365C315.724 400.365 285.935 418.357 274.099 444.878H255.215ZM351.098 381.173C374.238 381.44 392.191 361.715 392.191 336.259C392.191 312.004 374.105 292.012 351.098 292.012C328.225 292.012 310.006 312.004 310.139 336.259C310.139 361.715 328.092 380.906 351.098 381.173Z" fill="#E0E0E0" fill-opacity="0.3"/>
</svg>
