<svg width="92" height="88" viewBox="0 0 92 88" fill="none" xmlns="http://www.w3.org/2000/svg">
<g clip-path="url(#clip0_35_48)">
<path d="M30.1457 59.7977C19.0495 58.7459 10.802 52.9289 4.59913 44.1349C-0.758313 36.5344 -1.42914 28.1748 2.54988 19.7832C7.37893 9.58974 14.8453 2.24993 26.4792 0.36124C35.3929 -1.08386 43.1764 1.89323 49.8479 7.6416C54.9986 12.0821 58.78 17.5332 60.1171 24.3608C61.0406 29.0711 60.5214 33.6625 58.6835 38.0984C58.6054 38.135 58.5273 38.167 58.4446 38.1944C50.9966 38.0206 43.5485 37.8789 36.1051 37.6548C31.106 37.5039 30.5179 38.4734 30.3112 43.4581C30.0906 48.8223 30.2698 54.2048 30.2744 59.5828C30.2514 59.6651 30.2101 59.7383 30.1457 59.7977ZM27.1086 37.2112C32.728 37.2935 38.5035 35.8027 43.8426 32.6839C44.904 32.0619 46.3973 31.4354 45.5794 29.8211C44.7018 28.0879 43.3969 28.8333 42.1655 29.5833C40.1209 30.8226 37.943 31.7784 35.6318 32.4278C29.1717 34.2479 22.7574 34.0786 16.3708 32.039C15.1486 31.6503 13.6829 31.2799 13.228 33.0314C12.8283 34.568 14.0642 34.9795 15.2772 35.3911C18.9346 36.6259 22.6747 37.2387 27.1086 37.2066V37.2112ZM37.9246 24.3608C37.9154 22.559 36.3716 21.1048 34.5291 21.1688C32.8934 21.2283 31.4506 22.806 31.4874 24.4934C31.5288 26.277 32.9164 27.6626 34.6532 27.6535C36.5554 27.6443 37.9292 26.2587 37.92 24.3608H37.9246ZM22.9366 22.6779C21.2504 22.742 19.6698 24.3471 19.8674 25.9706C20.0833 27.7541 21.1815 28.847 22.9964 28.9796C24.6091 29.094 26.254 27.3699 26.1943 25.7968C26.13 24.027 24.6551 22.6185 22.9366 22.6825V22.6779Z" fill="#27B83E"/>
<path d="M58.4448 38.1947C58.5275 38.1672 58.6057 38.1352 58.6838 38.0986C68.4016 38.2861 78.1194 38.4782 87.8326 38.6611C91.7979 38.7343 92 38.9264 92 42.8455C92 53.8758 92 64.9061 92 75.9364C92 78.7717 90.7135 79.8464 87.9016 79.7686C82.8014 79.6223 77.7013 79.6406 72.6012 79.5308C71.1906 79.4988 70.6668 79.979 71.1033 81.3509C71.1263 81.4287 71.1584 81.5019 71.1722 81.5796C71.5122 83.514 72.7712 86.139 71.9579 87.2182C70.8827 88.6496 68.1121 87.6847 66.0813 87.7075C61.2982 87.7624 56.5151 87.6252 51.732 87.703C49.9906 87.7304 49.6827 87.0582 50.0411 85.5673C50.4133 84.0308 50.5465 82.4256 51.0336 80.9302C51.5665 79.2839 50.8957 79.069 49.476 79.0507C44.3023 78.9729 39.1287 78.7946 33.955 78.6665C30.826 78.5888 29.7187 77.569 29.7784 74.5325C29.8703 69.621 29.613 64.7003 30.1598 59.8025C30.2195 59.7431 30.2608 59.6699 30.2838 59.5876C31.8736 59.5739 33.4588 59.5556 35.0485 59.5419C35.0348 63.5845 35.1634 67.6362 34.9245 71.6651C34.8372 73.1148 35.0439 73.4761 36.4178 73.4166C43.659 73.0874 50.8773 73.8831 58.1094 73.8785C64.6431 73.8785 71.1722 73.9059 77.7059 73.8922C80.1687 73.8877 82.5763 74.5873 85.062 74.3724C86.0453 74.2855 86.7161 74.194 86.7575 72.9593C87.047 63.7171 87.3778 54.4795 87.7224 45.2418C87.7683 43.9796 87.4329 43.3531 86.0085 43.3668C82.0387 43.3988 78.0781 43.2205 74.1082 43.0147C68.1489 42.7037 62.162 42.9278 56.1888 42.9278C56.9424 41.3547 57.6959 39.7815 58.4494 38.2084L58.4448 38.1947Z" fill="#494D98"/>
<path d="M35.0394 59.5373C33.4496 59.551 31.8644 59.5693 30.2747 59.583C30.2747 54.2096 30.0909 48.8271 30.3114 43.4583C30.5136 38.4782 31.1063 37.5041 36.1054 37.655C43.5488 37.8791 51.0014 38.0163 58.4449 38.1947C57.6913 39.7678 56.9378 41.3409 56.1797 42.9141L55.9867 42.8821C50.0228 43.0924 44.091 42.0909 38.1179 42.3973C36.6889 42.4705 36.0686 42.6946 35.917 44.3363C35.724 46.3805 35.5356 48.4109 35.5035 50.4688C35.4575 53.3865 35.8343 56.327 35.0945 59.2126C35.0807 59.3223 35.067 59.4321 35.0394 59.5418V59.5373Z" fill="#494D98"/>
<path d="M27.1134 37.2111C22.6795 37.2431 18.9394 36.6303 15.282 35.3956C14.069 34.984 12.8376 34.5724 13.2327 33.0359C13.6876 31.2798 15.1533 31.6502 16.3755 32.0435C22.7668 34.0831 29.1764 34.2477 35.6366 32.4322C37.9431 31.7828 40.1256 30.8271 42.1702 29.5878C43.4016 28.8423 44.7065 28.0924 45.5841 29.8256C46.402 31.4353 44.9087 32.0664 43.8473 32.6883C38.5083 35.8072 32.7281 37.3026 27.1134 37.2157V37.2111Z" fill="#FEFEFE"/>
<path d="M37.9293 24.3611C37.9385 26.2589 36.5647 27.6445 34.6625 27.6537C32.9257 27.6628 31.5381 26.2772 31.4967 24.4937C31.4554 22.8062 32.9027 21.2285 34.5384 21.169C36.3809 21.105 37.9247 22.5547 37.9339 24.3611H37.9293Z" fill="#FEFEFE"/>
<path d="M22.9415 22.6735C24.6599 22.6095 26.1302 24.018 26.1992 25.7878C26.2589 27.3609 24.6186 29.085 23.0012 28.9707C21.1863 28.838 20.0882 27.7451 19.8722 25.9616C19.6747 24.3427 21.2552 22.733 22.9415 22.6689V22.6735Z" fill="#FEFEFE"/>
<path d="M35.0394 59.5372C35.0624 59.4275 35.0808 59.3177 35.0899 59.208C40.4933 58.7689 44.7986 55.9931 48.7638 52.6456C49.9538 51.6395 50.9279 51.4337 52.3799 51.8453C55.5548 52.7416 58.7895 53.4367 62.5342 54.3422C60.1771 50.2173 58.0773 46.5496 55.9821 42.882L56.1751 42.914C62.1482 42.914 68.1351 42.69 74.0945 43.0009C78.0643 43.2067 82.025 43.3851 85.9948 43.3531C87.4192 43.3393 87.7546 43.9704 87.7086 45.228C87.364 54.4657 87.0332 63.7079 86.7437 72.9455C86.707 74.1803 86.0316 74.2717 85.0483 74.3586C82.5626 74.5736 80.1549 73.8739 77.6922 73.8784C71.1585 73.8922 64.6294 73.8601 58.0957 73.8647C50.859 73.8647 43.6407 73.0781 36.404 73.4028C35.0256 73.4669 34.8234 73.101 34.9107 71.6513C35.1497 67.6224 35.021 63.5707 35.0348 59.5281L35.0394 59.5372Z" fill="#6D72E9"/>
<path d="M55.9867 42.8819C58.0819 46.5495 60.1816 50.2171 62.5387 54.342C58.794 53.4366 55.5594 52.7415 52.3844 51.8451C50.9279 51.4336 49.9584 51.6439 48.7684 52.6454C44.8031 55.9929 40.4933 58.7688 35.0945 59.2078C35.8388 56.3222 35.4575 53.3817 35.5034 50.4641C35.5356 48.4062 35.724 46.3757 35.9169 44.3315C36.0686 42.6944 36.6888 42.4657 38.1178 42.3926C44.0909 42.0862 50.0227 43.0922 55.9867 42.8773V42.8819Z" fill="#494D98"/>
</g>
<defs>
<clipPath id="clip0_35_48">
<rect width="92" height="88" fill="white"/>
</clipPath>
</defs>
</svg>
