<svg width="78" height="90" viewBox="0 0 78 90" fill="none" xmlns="http://www.w3.org/2000/svg">
<g clip-path="url(#clip0_34_172)">
<path d="M19.9061 22.903C19.9361 18.9882 20.0411 15.0684 19.9511 11.1586C19.9111 9.48157 20.3159 8.95092 22.1051 8.83077C30.5713 8.26508 38.8826 6.74823 45.7695 1.42673C48.3783 -0.585734 49.7227 -0.390495 52.2216 1.50182C59.0885 6.69817 67.2949 8.24005 75.6711 8.82076C77.5153 8.95092 78.0051 9.39647 77.9951 11.2437C77.9151 24.4098 77.9751 37.5759 77.9401 50.742C77.9201 57.0397 75.2613 61.9857 69.9837 65.4299C63.5066 69.6601 56.9595 73.7802 50.5074 78.0404C49.3279 78.8213 48.5433 78.7462 47.4188 78.0103C43.6655 75.5573 39.8422 73.2245 36.0439 70.8416C33.6949 68.8441 30.9712 67.4124 28.4023 65.7453C22.8098 62.1109 19.9861 57.0147 19.9861 50.3165C19.9861 41.1753 19.9311 32.0341 19.9011 22.893L19.9061 22.903ZM61.4675 30.7125C61.4675 30.0567 61.1576 29.6112 60.5579 29.3609C59.6983 29.0004 59.1485 29.506 58.6038 30.0467C55.6101 33.0454 52.6164 36.044 49.6228 39.0427C47.3005 41.3689 45.0032 41.4073 42.7309 39.1578C42.496 38.9226 42.2661 38.6873 42.0262 38.457C41.2765 37.7411 40.4769 37.0052 39.4673 37.9714C38.4778 38.9175 39.0625 39.7636 39.8222 40.5295C41.4015 42.1215 43.0208 43.6734 44.5551 45.3104C45.6596 46.4868 46.5842 46.4267 47.6937 45.3003C51.9517 40.9801 56.2548 36.7048 60.5329 32.4096C61.0077 31.934 61.4475 31.4384 61.4625 30.7075L61.4675 30.7125Z" fill="#5358CF"/>
<path d="M19.9061 22.903C19.936 32.0441 19.991 41.1853 19.991 50.3265C19.991 57.0247 22.8148 62.1209 28.4072 65.7553C30.9711 67.4224 33.6999 68.8541 36.0488 70.8516C36.0288 75.3521 36.0188 79.8576 35.9788 84.3581C35.9489 88.1477 34.0947 89.9849 30.2614 89.9899C22.1001 90.005 13.9437 90.005 5.7824 89.9899C1.82917 89.9849 0.00998954 88.1477 0.00998954 84.1628C-5.97502e-06 65.7353 -5.97478e-06 47.3078 0.00499178 28.8803C0.00499178 24.7352 1.79419 22.953 5.91734 22.938C10.5802 22.918 15.2432 22.913 19.9061 22.903Z" fill="#27B83E"/>
<path d="M61.4675 30.7126C61.4525 31.4435 61.0077 31.9391 60.5379 32.4147C56.2548 36.7099 51.9518 40.9851 47.6987 45.3054C46.5892 46.4318 45.6646 46.4919 44.5601 45.3154C43.0258 43.6784 41.4065 42.1265 39.8272 40.5346C39.0676 39.7687 38.4828 38.9226 39.4724 37.9765C40.4769 37.0103 41.2816 37.7412 42.0312 38.4621C42.2711 38.6923 42.501 38.9326 42.7359 39.1629C45.0082 41.4157 47.3055 41.3773 49.6278 39.0478C52.6215 36.0491 55.6151 33.0504 58.6088 30.0518C59.1535 29.5061 59.7033 29.0005 60.5629 29.3659C61.1576 29.6162 61.4725 30.0568 61.4725 30.7126H61.4675Z" fill="#FEFEFE"/>
<circle cx="18" cy="83" r="3" fill="white"/>
</g>
<defs>
<clipPath id="clip0_34_172">
<rect width="78" height="90" fill="white"/>
</clipPath>
</defs>
</svg>
