<svg width="620" height="450" viewBox="0 0 620 450" fill="none" xmlns="http://www.w3.org/2000/svg">
<rect width="620" height="450" rx="20" fill="#828282"/>
<path d="M246.54 124.785H373.56C372.858 115.83 367.64 111 358.009 111H261.991C252.46 111 247.142 115.83 246.54 124.785ZM226.073 153.763H394.027C392.623 144.204 387.807 138.771 377.172 138.771H242.929C232.293 138.771 227.478 144.204 226.073 153.763ZM236.909 339H383.091C404.663 339 416 327.731 416 306.299V202.864C416 181.332 404.663 170.163 383.091 170.163H236.909C215.237 170.163 204 181.332 204 202.864V306.299C204 327.831 215.237 339 236.909 339ZM238.113 319.279C228.782 319.279 223.665 314.349 223.665 304.589V204.474C223.665 194.714 228.782 189.884 238.113 189.884H381.887C391.118 189.884 396.335 194.714 396.335 204.474V304.589C396.335 314.349 391.118 319.279 381.887 319.279H368.543C359.714 299.256 337.24 285.673 310.451 285.673C283.763 285.673 261.289 299.256 252.36 319.279H238.113ZM310.451 271.184C327.909 271.385 341.454 256.493 341.454 237.275C341.454 218.963 327.809 203.87 310.451 203.87C293.195 203.87 279.449 218.963 279.549 237.275C279.549 256.493 293.094 270.982 310.451 271.184Z" fill="#E0E0E0"/>
</svg>
