<svg width="57" height="42" viewBox="0 0 57 42" fill="none" xmlns="http://www.w3.org/2000/svg">
<g clip-path="url(#clip0_194_41)">
<path d="M30.9285 22.9511H31.6153C32.7968 22.9511 33.9774 22.9511 35.1589 22.9511C35.5803 22.9511 35.5863 22.9531 35.6798 23.3545C36.2932 26.0131 36.9036 28.6727 37.515 31.3313C37.7865 32.5154 38.058 33.6984 38.3275 34.8835C38.3536 34.9985 38.3768 35.1114 38.4632 35.2022C38.5668 35.1558 38.5749 35.0509 38.598 34.9642C39.5452 31.3414 40.4905 27.7186 41.4357 24.0958C41.5111 23.8064 41.5996 23.5189 41.664 23.2264C41.7133 23.0045 41.8329 22.944 42.0521 22.946C43.2327 22.9561 44.4142 22.9541 45.5958 22.947C45.7959 22.946 45.8814 23.0086 45.9326 23.2133C46.178 24.1987 46.4465 25.177 46.7039 26.1594C47.4782 29.1215 48.2505 32.0847 49.0238 35.0479C49.0409 35.1135 49.058 35.177 49.1615 35.2214C49.3224 34.9561 49.3335 34.6415 49.4009 34.352C50.0897 31.3868 50.7654 28.4175 51.4462 25.4503C51.6131 24.7201 51.7881 23.9929 51.952 23.2617C51.9963 23.064 52.0566 22.943 52.304 22.945C53.8174 22.9571 55.3317 22.9531 56.8451 22.9561C56.8914 22.9561 56.9377 22.9793 57.003 22.9965C56.9809 23.4715 56.7969 23.9052 56.6702 24.3469C55.4192 28.6969 54.1552 33.0429 52.8942 37.3898C52.5051 38.7322 52.1049 40.0716 51.7288 41.4181C51.6564 41.6773 51.5427 41.762 51.2813 41.759C50.0505 41.7479 48.8196 41.7438 47.5888 41.761C47.3032 41.765 47.1886 41.6762 47.1092 41.4019C46.4535 39.1488 45.7798 36.9017 45.1141 34.6515C44.731 33.3596 44.3539 32.0656 43.9667 30.7736C43.9356 30.6697 43.9396 30.5366 43.7777 30.4468C43.6932 30.5769 43.655 30.7262 43.6108 30.8765C42.5821 34.355 41.5524 37.8336 40.5206 41.3122C40.3799 41.7872 40.3738 41.7862 39.8891 41.7862C38.7247 41.7862 37.5602 41.7852 36.3958 41.7862C35.9252 41.7862 35.9805 41.7448 35.8859 41.412C35.527 40.1473 35.1559 38.8865 34.7758 37.6278C34.7024 37.3838 34.7517 37.178 34.8321 36.9521C35.2404 35.8033 35.5752 34.6324 35.6305 33.407C35.72 31.4392 35.5461 29.4987 34.8029 27.6581C34.1624 26.0716 33.1709 24.7231 31.8295 23.648C31.563 23.4352 31.2915 23.2294 30.9325 22.9511H30.9285Z" fill="white"/>
<path d="M38.0127 11.7146C39.2777 14.0484 40.5498 16.3964 41.8591 18.8129C41.5584 18.8129 41.3472 18.8129 41.1371 18.8129C39.856 18.8129 38.5748 18.7968 37.2937 18.824C36.9539 18.8311 36.7819 18.707 36.6371 18.4307C35.9423 17.1034 35.2373 15.7822 34.5365 14.4579C34.2328 13.884 33.9261 13.3122 33.6314 12.7332C33.5148 12.5053 33.373 12.3823 33.0945 12.3954C32.5967 12.4176 32.0969 12.3994 31.5972 12.4024C31.1577 12.4044 31.1557 12.4065 31.1547 12.8795C31.1537 14.1987 31.1547 15.5179 31.1547 16.8361C31.1547 17.3707 31.1577 17.9042 31.1537 18.4387C31.1507 18.8028 31.1457 18.8099 30.8078 18.8109C29.5267 18.8139 28.2456 18.8059 26.9645 18.818C26.702 18.82 26.5974 18.7383 26.6256 18.4781C26.6367 18.3792 26.6276 18.2784 26.6276 18.1775C26.6276 12.3338 26.6276 6.49017 26.6276 0.646502C26.6276 0.596073 26.6276 0.546653 26.6276 0.496225C26.6256 -0.0554647 26.6186 0.00908397 27.1113 0.00908397C29.6403 0.00908397 32.1693 -0.0201646 34.6974 0.0191697C36.3384 0.044384 37.884 0.448822 39.1852 1.53203C40.2984 2.45891 40.8977 3.67525 41.119 5.08927C41.2778 6.10187 41.2537 7.11448 40.9933 8.10893C40.592 9.64096 39.69 10.7837 38.2873 11.5209C38.2138 11.5593 38.1425 11.6016 38.0721 11.644C38.059 11.6521 38.0499 11.6682 38.0117 11.7136L38.0127 11.7146ZM31.1557 6.27232C31.1557 7.00555 31.1577 7.73879 31.1547 8.47202C31.1547 8.65356 31.1607 8.80182 31.4081 8.79476C32.4016 8.76451 33.3971 8.85629 34.3876 8.70097C35.4445 8.53455 36.1977 7.93949 36.3897 7.02371C36.4953 6.51942 36.4903 6.00102 36.3676 5.48866C36.2711 5.08523 36.069 4.75745 35.7753 4.47202C35.349 4.0575 34.819 3.88806 34.2559 3.79527C33.3499 3.646 32.4348 3.74282 31.5248 3.72265C31.1638 3.71458 31.1587 3.72971 31.1567 4.12305C31.1537 4.84015 31.1567 5.55624 31.1567 6.27333L31.1557 6.27232Z" fill="white"/>
<path d="M16.447 9.43848C16.447 12.3593 16.447 15.2811 16.447 18.202C16.447 18.319 16.441 18.436 16.447 18.5519C16.4591 18.7466 16.3706 18.8142 16.1816 18.8142C14.8341 18.8101 13.4866 18.8101 12.1391 18.8142C11.9421 18.8142 11.8787 18.7284 11.8827 18.5429C11.8898 18.1758 11.8847 17.8086 11.8847 17.4415C11.8847 15.5222 11.8847 13.6019 11.8847 11.6826C11.8847 11.2943 11.9038 11.2983 11.5036 11.2993C9.32454 11.3013 7.14546 11.2993 4.96638 11.3013C4.57019 11.3013 4.56616 11.3064 4.56516 11.7118C4.56315 13.8651 4.56516 16.0184 4.56516 18.1717C4.56516 18.2716 4.55611 18.3734 4.56717 18.4723C4.59532 18.7284 4.49778 18.8263 4.23231 18.8182C3.68427 18.8011 3.13422 18.8132 2.58518 18.8132C1.83703 18.8132 1.08788 18.8041 0.339732 18.8182C0.0782825 18.8233 -0.0273029 18.7335 0.00286439 18.4743C0.0139257 18.3754 0.00487554 18.2746 0.00487554 18.1737C0.00487554 12.3311 0.00487554 6.48841 0.00487554 0.645744C0.00487554 0.579178 0.00487554 0.512612 0.00487554 0.445038C0.0119146 0.0153856 0.0119146 0.0123599 0.445317 0.0113513C1.67614 0.00933418 2.90696 0.00933418 4.13779 0.0113513C4.56214 0.0113513 4.56616 0.0163942 4.56616 0.456132C4.56717 2.62658 4.56616 4.79602 4.56616 6.96647C4.56616 7.08347 4.57019 7.20046 4.56616 7.31745C4.56113 7.4637 4.62449 7.53127 4.7713 7.52421C4.85476 7.52018 4.93722 7.52421 5.02068 7.52421C7.16658 7.52421 9.31248 7.52421 11.4584 7.52421C11.9189 7.52421 11.8847 7.55749 11.8847 7.0875C11.8847 4.95033 11.8847 2.81418 11.8847 0.677009C11.8847 0.577161 11.8827 0.476303 11.8847 0.376455C11.8938 0.0214371 11.8948 0.0123599 12.2417 0.0113513C13.3398 0.00731703 14.4379 0.00933418 15.535 0.00933418C15.7512 0.00933418 15.9674 0.0163942 16.1836 0.00731703C16.3756 -0.000751549 16.4571 0.0809429 16.445 0.272572C16.438 0.388558 16.444 0.506561 16.444 0.622547C16.444 3.56052 16.444 6.49849 16.444 9.43647L16.447 9.43848Z" fill="white"/>
<path d="M27.8685 23.1024C28.9425 23.3454 29.8907 23.8568 30.7555 24.5184C32.5062 25.8568 33.5922 27.6238 34.0387 29.7852C34.3937 31.5058 34.4188 33.2335 34.0387 34.9501C33.373 37.9516 31.6294 40.0877 28.7715 41.2093C26.0796 42.2662 23.3324 42.2693 20.6465 41.1861C17.5181 39.9233 15.7352 37.53 15.1802 34.2158C14.9248 32.6909 14.9539 31.1588 15.2656 29.6399C15.2858 29.5441 15.333 29.4543 15.3682 29.3626C15.5844 29.3212 15.7644 29.1962 15.9565 29.1003C18.6404 27.7549 21.3232 26.4074 24.0051 25.058C25.2942 24.4095 26.5804 23.7559 27.8675 23.1044L27.8685 23.1024ZM20.021 32.4145C20.0301 32.8028 20.0431 33.4029 20.1618 33.9949C20.5308 35.8346 21.5284 37.5945 23.979 37.9092C26.1429 38.1876 28.2848 37.3848 29.041 34.6011C29.1858 34.0676 29.2612 33.5219 29.2864 32.9723C29.3477 31.6793 29.2542 30.4034 28.7303 29.1972C28.137 27.8316 27.1214 26.9773 25.6542 26.6899C25.1625 26.593 24.6637 26.5829 24.164 26.6203C22.3358 26.7544 21.1 27.6873 20.4474 29.4029C20.1045 30.3046 20.0089 31.2466 20.02 32.4155L20.021 32.4145Z" fill="white"/>
<path d="M51.5106 11.2718C50.6196 11.3343 49.7287 11.2839 48.8378 11.3001C48.706 11.3021 48.5733 11.3091 48.4416 11.299C48.2425 11.2829 48.1902 11.3767 48.1902 11.5623C48.1912 12.0252 48.1761 12.4881 48.168 12.9521C47.988 13.0368 47.806 13.1175 47.6281 13.2052C46.3057 13.8608 44.9844 14.5184 43.6621 15.175C43.652 15.0096 43.6349 14.8432 43.6349 14.6778C43.6339 9.97176 43.6329 5.26677 43.6349 0.560768C43.6349 -0.0352986 43.5786 0.0110957 44.1588 0.0110957C48.166 0.0110957 52.1732 0.0110957 56.1815 0.0110957C56.2981 0.0110957 56.4138 0.0131128 56.5304 0.0131128C56.6541 0.0131128 56.7084 0.0816958 56.7114 0.197682C56.7144 0.314676 56.7144 0.431671 56.7144 0.547656C56.7144 1.41503 56.7184 2.28341 56.7134 3.15078C56.7094 3.79728 56.7979 3.71659 56.1704 3.7176C54.3584 3.72163 52.5453 3.71861 50.7333 3.71861C50.0183 3.71861 49.3033 3.71659 48.5884 3.71861C48.2052 3.72063 48.1992 3.72466 48.1982 4.09582C48.1942 5.11347 48.1952 6.13111 48.1982 7.14977C48.1992 7.51589 48.2042 7.52093 48.5874 7.52194C50.5663 7.52395 52.5453 7.52194 54.5233 7.52194C54.9386 7.52194 55.3549 7.53202 55.7702 7.5179C56.0065 7.50983 56.103 7.58951 56.0859 7.83258C56.0598 8.21483 56.1171 8.59909 56.0528 8.98134C54.5404 9.74382 53.027 10.5073 51.5146 11.2698L51.5106 11.2718Z" fill="white"/>
<path d="M19.2739 9.36158C19.2739 6.49118 19.2739 3.62078 19.2739 0.750384C19.2739 0.666673 19.2739 0.58397 19.2739 0.500258C19.2739 -0.0201654 19.2387 0.0100918 19.7586 0.0100918C20.9723 0.0100918 22.187 0.00908324 23.4008 0.0100918C23.8301 0.0100918 23.8342 0.0141261 23.8342 0.448821C23.8352 3.83662 23.8342 7.22441 23.8342 10.6122C23.8342 13.1326 23.8342 15.652 23.8342 18.1725C23.8342 18.2895 23.8261 18.4065 23.8362 18.5224C23.8543 18.7373 23.7678 18.819 23.5496 18.8149C22.9674 18.8048 22.3851 18.8119 21.8039 18.8119C21.105 18.8119 20.4072 18.8139 19.7083 18.8119C19.2789 18.8099 19.2749 18.8079 19.2749 18.3732C19.2739 15.9203 19.2749 13.4665 19.2749 11.0136C19.2749 10.4629 19.2749 9.91226 19.2749 9.36158H19.2739Z" fill="white"/>
<path d="M0.297632 36.9531C0.289588 36.7867 0.274504 36.6203 0.274504 36.4549C0.273499 32.1321 0.273499 27.8104 0.273499 23.4877C0.273499 23.4544 0.273499 23.4211 0.273499 23.3878C0.278526 22.9571 0.278526 22.9541 0.708912 22.9531C1.70644 22.9511 2.70498 22.9672 3.70251 22.945C4.05547 22.937 4.27368 23.0419 4.47378 23.3444C5.34662 24.6626 6.24762 25.9627 7.13755 27.2698C8.07475 28.6455 9.01295 30.0202 9.94512 31.3999C10.0648 31.5774 10.2116 31.7408 10.277 31.9526C9.12155 32.5325 7.96615 33.1135 6.81074 33.6934C6.26773 32.9178 5.72673 32.1412 5.18171 31.3666C5.08819 31.2335 5.02886 31.0721 4.81669 30.941C4.80261 32.237 4.78853 33.4897 4.77445 34.7423C4.60954 34.817 4.44261 34.8865 4.28071 34.9672C2.95235 35.6289 1.62499 36.2925 0.296627 36.9551L0.297632 36.9531Z" fill="white"/>
<path d="M6.81073 33.6914C7.96614 33.1114 9.12154 32.5305 10.2769 31.9506C10.7657 32.4982 11.0804 33.178 11.6395 33.8104C11.6516 32.8754 11.6636 32.0413 11.6747 31.2083C11.9402 31.1578 12.1564 30.9944 12.3977 30.8885C12.8653 30.6818 13.2917 30.3863 13.7854 30.235C13.7623 30.5507 13.7371 30.8664 13.716 31.182C13.6245 32.5527 13.6768 33.9092 14.0438 35.2446C14.2158 35.8699 14.3525 36.5023 14.616 37.1024C14.981 37.9324 15.4426 38.6969 16.0198 39.3918C16.1746 39.5774 16.2621 39.772 16.2531 40.0262C16.235 40.5093 16.237 40.9934 16.2531 41.4765C16.2611 41.7246 16.1606 41.7902 15.9323 41.7892C14.8352 41.7821 13.7381 41.7801 12.6421 41.7912C12.4128 41.7932 12.2831 41.7025 12.1594 41.5209C11.1478 40.0353 10.1271 38.5577 9.11249 37.0741C8.34222 35.9486 7.57899 34.8189 6.81174 33.6914H6.81073Z" fill="white"/>
<path d="M43.6611 15.174C44.9834 14.5174 46.3047 13.8598 47.627 13.2042C47.805 13.1155 47.987 13.0348 48.167 12.9511C48.1761 13.534 48.1831 14.117 48.1932 14.6999C48.2002 15.0993 48.2012 15.1044 48.6135 15.1044C51.1063 15.1064 53.6002 15.1044 56.093 15.1044C56.2096 15.1044 56.3263 15.1104 56.4419 15.1044C56.6259 15.0933 56.7124 15.1588 56.7114 15.3585C56.7054 16.4256 56.7064 17.4937 56.7114 18.5608C56.7114 18.7595 56.6189 18.825 56.4369 18.8139C56.3373 18.8079 56.2378 18.8139 56.1382 18.8139C52.1652 18.8139 48.1932 18.8139 44.2202 18.8139C44.1699 18.8139 44.1206 18.8139 44.0703 18.8139C43.6379 18.8079 43.6299 18.8079 43.6339 18.3742C43.646 17.3081 43.5967 16.241 43.6611 15.175V15.174Z" fill="white"/>
<path d="M27.8685 23.1024C26.5813 23.7539 25.2942 24.4075 24.0061 25.056C21.3242 26.4055 18.6413 27.7529 15.9574 29.0983C15.7654 29.1942 15.5854 29.3192 15.3692 29.3606C15.341 29.0318 15.4738 28.7383 15.5834 28.4448C16.7197 25.4039 18.9179 23.5784 22.0382 22.8543C23.8281 22.4387 25.626 22.472 27.4119 22.9259C27.5718 22.9662 27.7367 22.9924 27.8695 23.1024H27.8685Z" fill="white"/>
<path d="M0.297648 36.9531C1.62501 36.2905 2.95237 35.6268 4.28174 34.9652C4.44363 34.8845 4.61056 34.8149 4.77547 34.7403C4.78352 34.823 4.7976 34.9057 4.7976 34.9884C4.7986 37.1195 4.79961 39.2496 4.7976 41.3807C4.7976 41.7761 4.79156 41.7842 4.43458 41.7852C3.1575 41.7892 1.87942 41.7842 0.602337 41.7892C0.389156 41.7892 0.26547 41.761 0.268487 41.4957C0.286587 39.9818 0.288598 38.467 0.296643 36.9531H0.297648Z" fill="white"/>
<path d="M13.7844 30.236C13.2907 30.3873 12.8643 30.6828 12.3967 30.8896C12.1554 30.9965 11.9402 31.1588 11.6737 31.2093C11.6667 30.6425 11.6546 30.0756 11.6536 29.5088C11.6516 27.4897 11.6536 25.4715 11.6526 23.4523C11.6526 22.8744 11.6355 22.9531 12.1715 22.9521C13.4013 22.9501 14.6321 22.9491 15.8619 22.9521C16.238 22.9521 16.238 22.9592 16.2461 23.3404C16.2461 23.3575 16.2461 23.3737 16.2461 23.3908C16.3044 24.1876 16.2893 24.9612 15.5904 25.5229C14.6593 26.8401 14.1303 28.3167 13.8699 29.8991C13.8508 30.0131 13.8558 30.1341 13.7834 30.234L13.7844 30.236Z" fill="white"/>
<path d="M51.5106 11.2718C53.0239 10.5093 54.5363 9.74585 56.0487 8.98337C56.1151 9.66315 56.0598 10.3439 56.0799 11.0237C56.0849 11.2042 56.0286 11.3031 55.8285 11.3011C54.3885 11.2829 52.9485 11.3354 51.5096 11.2718H51.5106Z" fill="white"/>
</g>
<defs>
<clipPath id="clip0_194_41">
<rect width="57" height="42" fill="white"/>
</clipPath>
</defs>
</svg>
