<svg width="48" height="45" viewBox="0 0 48 45" fill="none" xmlns="http://www.w3.org/2000/svg">
<g clip-path="url(#clip0_39_92)">
<path d="M24.1783 5.77868e-07C30.0626 0.0649181 35.4983 1.59454 40.201 5.28672C50.7039 13.5231 50.6037 26.9205 39.8645 34.9053C33.2031 39.8593 25.6364 40.9629 17.641 39.2345C16.5234 38.9911 15.6222 39.0479 14.5927 39.5469C11.0557 41.2754 7.47863 42.9064 3.91358 44.574C3.31273 44.8539 2.67983 45.2921 2.07097 44.6998C1.36197 44.01 1.91074 43.3203 2.22319 42.6792C3.46495 40.1434 4.69469 37.5953 6.00454 35.092C6.48122 34.1791 6.48122 33.5705 5.6921 32.8158C-3.26058 24.2386 -1.28578 11.1334 9.04084 4.35759C13.6434 1.33487 18.7025 -0.0811463 24.1783 5.77868e-07ZM5.26349 41.1739L5.58795 41.5107C8.28778 40.2529 11.0237 39.06 13.6754 37.7049C15.1335 36.9583 16.4834 36.9015 18.0776 37.218C26.4215 38.8815 34.1524 37.5791 40.6296 31.6351C47.7637 25.0906 47.6195 14.225 40.4694 8.11469C30.9799 0.00811569 17.0522 -0.137949 7.65889 8.03354C3.51702 11.6405 1.41404 16.3268 2.21918 22.0801C2.78398 26.0968 4.76278 29.2697 7.65088 31.907C8.78448 32.9416 8.98477 33.8626 8.21167 35.234C7.12613 37.1572 6.23687 39.1899 5.25949 41.1739H5.26349Z" fill="#27B83E"/>
<path d="M25.2117 9.30754C28.6325 9.38869 31.088 11.4823 31.817 14.931C32.4539 17.9416 30.9198 21.017 28.0517 22.4412C26.9702 22.9808 25.7404 23.2283 25.7805 24.9689C25.7965 25.687 24.8552 25.9264 24.2463 25.2854C23.2329 24.2102 24.1782 21.4349 25.6243 21.1104C28.7767 20.4003 30.4832 17.9132 29.7541 15.0852C29.1573 12.7847 27.4348 11.3808 25.1436 11.3403C22.7722 11.2956 20.9697 12.7076 20.2406 15.0243C19.9602 15.9129 20.2967 17.7428 18.6945 17.2112C17.2804 16.7446 18.0776 15.1947 18.394 14.1804C19.3794 11.0319 21.9831 9.22639 25.2077 9.30754H25.2117Z" fill="#27B83E"/>
<path d="M25.2117 26.8272C26.4334 26.9935 27.4388 27.7563 27.4629 29.2332C27.4869 30.8074 26.4815 31.7609 24.9513 31.8015C23.4572 31.838 22.6521 30.8155 22.4798 29.3995C22.3236 28.1012 23.6495 26.8353 25.2157 26.8272H25.2117Z" fill="#27B83E"/>
</g>
<defs>
<clipPath id="clip0_39_92">
<rect width="48" height="45" fill="white"/>
</clipPath>
</defs>
</svg>
