<svg width="419" height="542" viewBox="0 0 419 542" fill="none" xmlns="http://www.w3.org/2000/svg">
<g clip-path="url(#clip0_39_248)">
<path d="M361.376 147.216C359.57 149.343 358.896 152.025 357.797 154.492C348.073 176.338 338.355 198.19 328.677 220.056C323.403 231.963 318.096 243.864 313.057 255.87C311.834 258.795 309.87 259.678 307.181 259.907C296.037 260.843 284.893 261.7 273.756 262.668C268.351 263.139 262.913 263.473 257.586 264.421C252.528 265.324 248.464 263.139 244.231 261.261C216.904 249.144 189.584 237.021 162.271 224.871C137.732 213.951 113.206 202.986 88.6736 192.047C87.0835 191.34 85.5392 190.398 83.8705 190.025C80.2061 189.207 79.8331 187.382 81.5017 184.352C82.7058 182.167 83.6284 179.825 84.5838 177.515C85.2054 175.997 86.1608 175.232 87.8295 175.52C88.811 176.802 90.3488 177.195 91.7099 177.803C106.8 184.522 121.916 191.17 137.012 197.883C154.078 205.466 171.111 213.107 188.171 220.697C208.803 229.876 229.429 239.088 250.12 248.137C253.045 249.419 255.806 251.598 259.255 251.284C267.559 250.538 275.837 249.452 284.147 248.889C293.668 248.248 303.124 246.704 312.697 246.828C313.797 246.841 314.857 246.468 315.917 245.539C304.793 240.606 293.989 235.817 283.192 231.021C267.317 223.968 251.442 216.922 235.573 209.856C220.889 203.313 206.218 196.725 191.534 190.188C176.143 183.338 160.739 176.521 145.342 169.69C149.641 159.83 153.908 149.951 158.259 140.104C166.125 122.302 174.043 104.525 181.935 86.736C187.745 73.6376 193.55 60.5261 199.38 47.4342C200.898 44.0255 202.907 43.2142 206.519 44.791C215.576 48.7493 224.593 52.7992 233.623 56.823C253.876 65.8387 274.122 74.8611 294.375 83.8703C299.636 86.2126 304.91 88.5221 310.171 90.8578C311.264 91.342 312.298 91.9766 313.555 91.9701C313.954 92.3234 314.301 92.801 314.765 93.0104C327.251 98.5585 339.749 104.081 352.247 109.609C350.245 113.953 348.243 118.298 346.247 122.642C334.619 117.486 322.984 112.331 311.356 107.175C294.251 99.5923 277.145 92.0159 260.047 84.4264C245.533 77.9819 230.966 71.6486 216.531 65.034C207.605 60.9448 207.861 64.0853 205.289 69.8167C196.246 89.955 187.399 110.185 178.466 130.375C173.369 141.904 168.284 153.438 163.102 164.921C162.251 166.805 162.323 167.976 164.384 168.722C165.202 169.016 165.948 169.494 166.74 169.847C183.348 177.195 199.975 184.509 216.57 191.89C245.094 204.569 273.599 217.295 302.11 230C305.556 231.536 308.08 230.572 309.681 227.109C310.185 226.023 310.754 224.963 311.245 223.87C320.36 203.287 329.515 182.717 338.558 162.107C342.137 153.949 346.09 145.94 349.133 137.546C352.85 141.236 356.861 144.547 361.383 147.216H361.376Z" fill="#B8C3D8"/>
<path d="M52.8797 0.0719084C67.7274 0.628034 79.6828 2.35529 90.9641 7.38005C105.864 14.0143 114.908 25.1826 117.322 41.5131C118.742 51.1308 117.918 60.5457 115.143 69.8101C114.535 71.8383 114.607 73.4805 115.811 75.3255C119.789 81.4167 123.584 87.6257 127.458 93.7889C127.805 94.3385 128.217 94.8553 128.518 95.4311C129.147 96.648 129.52 98.0024 128.486 99.0884C127.439 100.188 126.071 99.8343 124.847 99.2258C119.769 96.7135 114.652 94.273 109.653 91.6036C107.559 90.4848 105.943 90.4979 103.999 91.9242C94.5239 98.8725 83.537 100.77 72.1313 101.777C61.1837 102.739 50.4717 101.804 39.9625 98.9903C25.5859 95.1367 13.7091 87.5145 6.33436 74.1609C-1.64896 59.7017 -1.97614 44.7909 4.74424 29.8017C11.6282 14.433 24.3361 6.04535 40.0148 1.85151C44.9684 0.523351 50.2295 -0.242139 52.8797 0.0719084ZM54.2539 52.4328C52.6638 47.7024 51.3681 43.6067 49.8893 39.5765C49.176 37.6398 48.1421 35.3957 45.5966 35.9453C42.9595 36.521 42.5799 38.9942 42.9268 41.2252C44.0326 48.3305 45.6817 55.3181 48.3908 62.0047C49.3527 64.3731 50.7727 66.6434 53.6061 66.8724C56.3021 67.0883 57.9707 65.1255 59.2795 63.0646C61.3211 59.8521 63.2711 56.5808 65.1623 53.2768C68.9903 46.5771 72.8119 39.8643 76.5091 33.0927C77.6869 30.9336 77.255 28.696 75.1349 27.3286C73.0278 25.9677 71.2937 27.4006 70.0504 28.9316C67.8583 31.6337 65.8101 34.4601 63.8862 37.3585C60.7322 42.115 57.7221 46.9697 54.2408 52.4328H54.2539Z" fill="#F5F5F5"/>
<path d="M346.293 317.502C347.745 318.137 348.171 316.769 348.897 316.108C353.811 311.614 358.719 307.138 365.302 305.136C370.747 303.488 375.105 305.123 378.736 309.311C382.362 313.498 383.225 318.156 381.21 323.299C379.849 326.779 377.892 329.992 375.366 332.687C364.046 344.746 356.455 359.198 348.583 373.514C341.49 386.409 333.618 398.788 323.737 409.832C317.939 416.309 315.42 424.52 313.175 432.751C312.095 433.647 311.061 434.602 309.929 435.433C302.509 440.877 296.737 447.596 293.295 456.245C291.201 461.499 289.965 466.969 288.675 472.439C286.13 474.081 283.669 475.88 281.019 477.319C278.31 478.791 275.68 480.754 272.27 480.205C272.218 478.929 272.925 477.928 273.448 476.861C275.653 472.38 277.983 467.95 280.057 463.403C287.085 448.008 293.865 432.502 301.684 417.474C312.383 396.91 324.79 377.426 338.218 358.564C339.415 356.882 340.881 355.318 341.621 352.61C339.5 353.997 338.65 355.613 337.616 357.059C327.486 371.178 318.037 385.742 309.308 400.764C301.05 414.974 293.838 429.728 287.151 444.743C284.147 451.482 280.803 458.064 277.61 464.712C277.819 462.664 277.931 460.603 278.251 458.575C279.03 453.668 278.808 448.636 280.077 443.788C284.35 437.442 287.053 430.33 289.925 423.323C296.312 407.732 299.904 391.035 309.288 376.615C312.854 371.132 316.251 365.564 320.537 360.618C328.121 351.851 336.281 343.522 341.895 333.244C344.552 328.376 348.184 323.685 346.306 317.508L346.293 317.502ZM341.673 351.596C341.967 351.812 342.262 352.034 342.563 352.25L354.721 335.848C354.427 335.632 354.132 335.409 353.838 335.193C349.558 340.493 345.324 345.832 341.673 351.589V351.596Z" fill="#65CF0F"/>
<path d="M346.293 317.502C348.171 323.678 344.546 328.369 341.883 333.237C336.268 343.516 328.108 351.851 320.524 360.611C316.238 365.564 312.848 371.126 309.275 376.608C299.892 391.022 296.299 407.725 289.912 423.316C287.04 430.323 284.344 437.442 280.064 443.782C279.979 441.243 280.607 438.803 281.301 436.408C283.846 427.628 284.789 418.697 284.088 409.59C283.689 404.349 282.773 399.2 280.221 394.535C277.486 389.53 274.116 389.36 270.765 394.005C268.174 397.597 266.721 401.752 265.877 406.031C263.293 419.201 260.243 432.162 253.359 443.952C249.152 451.155 247.084 459.006 248.105 467.46C243.066 465.045 241.535 460.439 240.9 455.46C239.761 446.562 242.333 438.194 245.075 429.905C249.152 417.578 255.002 406.26 264.241 396.91C271.976 389.085 274.548 379.009 275.385 368.626C277.205 345.969 289.474 331.68 309.923 323.436C315.4 321.231 320.511 318.51 324.967 314.479C329.09 310.756 334.174 309.605 339.599 311.103C342.877 312.013 345.488 313.871 346.286 317.495L346.293 317.502Z" fill="#50AB05"/>
<path d="M288.669 472.439C289.958 466.969 291.195 461.499 293.289 456.245C296.731 447.596 302.502 440.877 309.923 435.433C311.055 434.602 312.089 433.647 313.169 432.751C333.003 419.515 352.771 406.181 372.697 393.089C382.165 386.867 391.915 381.025 403.249 378.728C408.006 377.766 412.62 378.093 416.467 381.541C419.235 384.015 419.674 386.403 418.045 389.752C415.434 395.111 410.912 398.808 406.475 402.465C396.28 410.866 385.123 417.938 373.868 424.775C363.221 431.246 354.839 439.869 347.431 449.69C342.91 455.683 338.434 461.715 333.5 467.401C328.409 473.276 322.238 477.195 314.68 479.099C306.114 481.252 297.496 482.92 288.623 482.953C294.074 475.324 300.297 468.33 306.644 461.46C329.633 436.578 356.2 416.067 384.665 397.878C386.079 396.976 387.911 396.413 388.683 394.561C387.813 394.228 387.453 394.725 387.021 395C376.119 401.994 365.387 409.23 354.97 416.937C333.964 432.469 314.752 449.919 297.706 469.743C294.473 473.505 291.699 477.673 287.956 480.996C287.648 478.104 288.649 475.317 288.662 472.452L288.669 472.439Z" fill="#ABEF74"/>
<path d="M352.241 109.609C339.743 104.081 327.244 98.5585 314.759 93.0104C314.294 92.801 313.947 92.3234 313.548 91.9701C312.711 84.1058 311.16 76.3331 310.532 68.4296C310.178 63.9479 309.916 59.9634 314.589 57.5165C315.753 56.908 316.153 55.6584 315.996 54.4153C315.655 51.7066 317.173 50.0644 319.195 48.8409C330.935 41.7225 343.662 37.0707 357.083 34.4274C361.86 33.4853 362.698 34.2442 363.778 39.0989C366.997 53.617 369.621 68.2464 371.277 83.0328C369.379 84.8124 367.56 86.6574 365.898 88.6791C360.578 95.1694 356.632 102.543 352.235 109.622L352.241 109.609ZM338.853 92.9842C337.393 92.4412 337.178 91.0476 336.301 90.2886C335.182 89.3269 334.076 87.9006 332.368 89.1044C330.856 90.1643 330.954 91.6822 331.628 93.2001C332.885 96.0265 334.645 98.4997 337.053 100.449C339.481 102.412 340.986 102.085 342.517 99.3306C345.128 94.6199 346.705 89.5493 347.392 84.2236C347.602 82.6075 348.335 80.2457 346.247 79.6176C343.891 78.9109 343.355 81.4822 342.674 83.0263C341.248 86.2649 340.122 89.6344 338.859 92.9842H338.853ZM327.709 72.6104C328.625 71.8514 336.824 68.1156 338.611 67.5333C339.736 67.1669 340.842 66.6762 341.869 66.0873C342.596 65.6686 343.329 65.0536 342.556 63.8236C339.939 65.7406 336.988 66.336 333.801 66.5453C330.038 66.8005 327.794 69.3063 327.709 72.6104ZM329.75 78.5904C330.719 78.7997 330.987 78.309 331.216 77.8183C332.46 75.1489 334.554 74.0105 337.485 74.0563C339.324 74.0825 341.156 73.6834 342.857 72.9113C344.114 72.3421 345.351 71.7075 345.377 69.5353C343.067 71.2102 340.986 72.4468 338.382 72.3225C336.621 72.2374 334.894 72.6889 333.382 73.5591C331.465 74.6648 329.75 76.0322 329.75 78.5969V78.5904Z" fill="#FCD974"/>
<path d="M145.342 169.69C160.74 176.521 176.143 183.338 191.534 190.188C206.225 196.725 220.889 203.313 235.573 209.856C251.442 216.922 267.317 223.968 283.192 231.021C293.989 235.817 304.793 240.606 315.917 245.539C314.857 246.468 313.803 246.841 312.697 246.828C303.124 246.704 293.668 248.248 284.147 248.889C275.837 249.445 267.559 250.531 259.255 251.284C255.807 251.598 253.052 249.419 250.12 248.137C229.429 239.088 208.81 229.876 188.171 220.697C171.111 213.107 154.072 205.466 137.012 197.883C121.916 191.176 106.8 184.522 91.71 177.803C90.3489 177.195 88.8111 176.802 87.8296 175.52C88.713 174.584 89.832 174.309 91.0687 174.29C102.874 174.087 114.534 172.085 126.32 171.496C132.654 171.182 138.988 170.181 145.342 169.69ZM263.796 246.508C274.129 245.664 282.655 244.977 291.188 244.27C292.301 244.178 294.002 244.741 294.166 243.151C294.297 241.908 292.7 241.496 291.64 241.025C268.482 230.792 245.31 220.612 222.165 210.34C199.511 200.284 176.883 190.162 154.268 180.028C150.558 178.366 146.867 177.123 142.666 177.561C135.023 178.359 127.347 178.915 119.684 179.517C118.16 179.635 115.987 179.557 115.673 180.878C115.274 182.553 117.577 182.821 118.807 183.371C140.434 193.002 162.107 202.528 183.747 212.139C206.402 222.202 228.997 232.395 251.677 242.379C256.075 244.316 260.315 247.26 263.796 246.521V246.508Z" fill="#D4DEF2"/>
<path d="M77.301 300.471C79.6044 294.949 83.2623 291.593 89.6621 291.122C103.757 290.082 117.133 292.483 130.096 298.011C136.247 300.635 137.346 306.059 138.099 311.535C139.937 324.993 133.898 337.025 122.152 343.679C115.883 347.232 109.077 346.322 102.37 345.419C99.4711 345.027 96.6115 344.274 93.7781 343.529C82.3724 340.512 76.6205 332.406 74.1011 321.447C74.3956 321.31 74.6705 321.12 74.978 321.041C77.7787 320.348 77.8049 317.947 77.2029 316.148C76.5354 314.152 74.9387 316.396 73.7347 316.193C73.63 316.174 73.5188 316.206 73.4141 316.22C73.4926 312.68 73.8329 309.18 74.8013 305.758C75.4099 305.967 76.0119 306.235 76.6336 306.373C77.3992 306.536 77.9096 307.95 78.8519 307.014C79.6109 306.262 79.3688 305.189 79.1529 304.227C78.8388 302.827 77.3992 301.983 77.2945 300.478L77.301 300.471ZM111.381 309.042C111.152 308.826 111.014 308.257 110.576 308.833L111.394 309.023C117.008 310.429 122.662 309.304 128.303 309.042C122.662 309.042 117.021 309.042 111.381 309.042ZM128.964 307.027C131.463 305.83 131.463 304.397 129.507 302.585C128.113 301.289 126.464 300.556 124.749 299.856C117.27 296.807 109.365 295.591 101.428 294.76C97.4753 294.347 93.3985 294.21 89.4919 295.512C88.1897 295.944 86.4164 296.088 86.1874 297.73C85.9911 299.169 87.5027 299.797 88.5366 300.556C91.0363 302.401 93.9024 303.298 96.9256 303.789C97.7108 305.254 99.2813 305.221 100.577 305.588C109.921 308.251 119.403 308.558 128.97 307.014L128.964 307.027Z" fill="#FEDF02"/>
<path d="M282.047 491.406C286.222 494.788 289.971 498.557 292.576 503.32C294.748 507.291 294.212 509.627 291.097 512.846C282.832 521.371 274.561 529.903 266.545 538.663C263.914 541.535 260.963 542.438 257.495 541.817C244.022 539.396 232.825 532.965 224.214 522.254C222.041 519.552 221.622 516.7 222.728 513.127C226.38 501.396 229.671 489.548 232.923 477.692C233.722 474.781 235.587 473.682 238.191 473.119C242.052 472.281 245.762 473.44 249.525 473.93C249.806 474.323 250.088 474.709 250.362 475.101C250.271 475.337 250.186 475.566 250.094 475.801C247.084 475.428 244.093 474.885 241.031 475.121C237.628 475.376 236.241 477.574 237.432 480.735C238.531 483.666 240.403 486.158 242.588 488.18C249.963 494.991 258.143 500.696 267.369 504.772C272.932 507.226 278.54 509.568 284.743 509.882C286.889 509.993 289.081 509.843 290.24 507.808C291.437 505.695 290.521 503.542 289.343 501.678C287.112 498.145 283.905 495.488 280.856 492.708C280.849 492.538 280.856 492.367 280.856 492.197L280.836 492.217C281.059 491.942 281.281 491.674 281.504 491.399L281.779 491.425L282.054 491.406H282.047Z" fill="#B05E0F"/>
<path d="M250.368 475.101C250.087 474.709 249.806 474.323 249.524 473.93C249.053 471.771 248.582 469.612 248.104 467.46C247.09 459.006 249.158 451.155 253.359 443.952C260.243 432.168 263.292 419.207 265.877 406.031C266.715 401.752 268.174 397.597 270.765 394.005C274.122 389.36 277.486 389.53 280.221 394.535C282.773 399.2 283.682 404.349 284.088 409.59C284.788 418.691 283.846 427.628 281.301 436.408C280.607 438.803 279.979 441.243 280.064 443.782C278.794 448.63 279.023 453.655 278.238 458.568C277.917 460.596 277.806 462.657 277.597 464.705C275.967 469.18 274.07 473.498 270.386 476.744C269.849 477.215 269.705 477.81 269.705 478.477C267.807 478.052 266.453 479.014 265.196 480.231C263.168 480.349 261.218 481.238 259.137 480.833C259.759 476.259 261.984 472.21 263.495 467.937C269.182 451.829 274.685 435.675 277.23 418.704C277.63 416.047 278.016 413.299 277.27 410.571C274.77 435.054 266.302 457.776 257.364 480.355C254.74 480.25 253.032 478.589 251.383 476.829C251.042 476.253 250.702 475.684 250.362 475.108L250.368 475.101Z" fill="#B0EC7F"/>
<path d="M352.241 109.609C356.639 102.53 360.584 95.1564 365.904 88.6661C367.566 86.6378 369.386 84.7993 371.283 83.0197C373.868 81.214 376.636 81.3972 379.384 82.4505C388.69 86.0228 396.614 91.6037 403.328 98.9576C405.69 101.542 406.371 104.342 405.134 107.659C399.905 121.687 393.388 135.014 384.057 146.824C383.383 147.674 382.774 148.597 381.675 148.97C379.528 145.711 377.389 142.421 376.06 138.75C375.497 137.193 374.64 136.768 373.201 136.872C373.174 136.225 373.05 135.557 373.135 134.923C373.907 129.002 375.275 123.538 382.29 121.929C384.161 121.497 385.967 120.627 387.551 119.417C388.775 118.487 389.475 117.572 387.924 116.341C390.031 113.103 393.1 110.466 394.062 106.508C394.599 104.29 394.585 102.301 391.837 101.699C390.574 101.424 390.777 100.548 390.692 99.7297C390.371 96.8509 388.611 95.2807 385.928 94.6788C382.571 93.9263 379.234 94.0899 376.028 95.4181C371.048 97.479 369.091 102.471 373.109 106.534C370.276 109.544 367.645 112.717 365.407 116.198C363.83 118.644 362.842 121.288 364.046 124.18C364.537 125.357 364.183 125.998 363.274 126.627C361.932 127.556 360.617 128.53 358.935 128.74C358.458 126.882 357.371 126.227 355.389 126.47C352.156 126.875 348.917 126.456 345.691 126.051C345.874 124.912 346.057 123.774 346.241 122.636C348.243 118.291 350.245 113.947 352.241 109.603V109.609Z" fill="#3880F1"/>
<path d="M257.927 390.695C258.005 389.635 257.94 388.536 258.182 387.515C260.937 375.849 260.426 364.295 257.757 352.636C256.278 346.172 257.377 339.655 259.994 333.492C260.767 331.673 261.801 330.025 263.207 328.624C266.237 325.608 269.529 325.51 272.755 328.271C276.936 331.843 277.519 336.639 277.185 341.651C276.714 348.756 274.77 355.534 272.369 362.208C269.156 371.119 265.269 379.716 260.518 387.914C259.929 388.928 259.248 389.896 258.614 390.884C258.385 390.825 258.156 390.76 257.927 390.701V390.695Z" fill="#65CF0F"/>
<path d="M90.3882 388.908C88.2157 386.246 89.6291 384.015 91.3632 381.96C95.5839 376.955 101.107 373.605 106.754 370.55C120.326 363.202 134.617 357.785 149.903 355.207C153.574 354.586 157.278 354.376 160.962 354.919C165.039 355.521 166.57 358.165 165.143 361.743L165.183 361.691C164.914 361.985 164.646 362.273 164.384 362.568C162.048 364.485 159.83 366.565 157.363 368.293C141.972 379.062 124.808 385.67 106.492 389.321C101.185 390.381 95.7082 390.943 90.3947 388.908H90.3882ZM144.151 359.99C143.255 360.075 141.737 360.167 140.238 360.363C132.844 361.344 125.947 363.935 119.213 366.977C113.952 369.359 108.985 372.277 104.725 376.248C103.299 377.577 102.278 379.271 103.161 381.195C103.934 382.87 105.746 382.889 107.428 382.968C112.159 383.177 116.733 382.281 121.209 380.953C130.854 378.107 140.114 374.384 147.842 367.697C149.583 366.192 152.148 364.524 150.963 361.809C149.864 359.296 146.998 360.186 144.158 359.983L144.151 359.99Z" fill="#FEDF02"/>
<path d="M313.862 484.065C320.871 484.516 328.54 486.76 335.673 490.719C337.832 491.916 340.351 493.375 339.854 496.332C339.357 499.27 336.543 499.695 334.102 500.376C331.236 501.174 328.488 500.062 325.68 499.996C318.397 499.826 311.101 499.813 303.942 498.079C301.482 497.484 299.152 496.62 296.921 495.495C293.688 493.866 293.597 493.29 295.972 490.666C300.454 485.701 306.213 483.947 313.869 484.071L313.862 484.065Z" fill="#65CF0F"/>
<path d="M345.685 126.057C348.904 126.463 352.15 126.882 355.382 126.476C357.365 126.227 358.451 126.888 358.929 128.74C362.037 134.34 366.585 137.422 373.201 136.879C374.634 136.774 375.491 137.199 376.06 138.757C377.395 142.434 379.529 145.718 381.675 148.976C378.9 152.326 375.4 152.797 371.434 151.626C367.887 150.579 364.609 148.97 361.383 147.216C356.861 144.547 352.85 141.236 349.133 137.546C348.453 136.591 347.746 135.662 347.105 134.687C345.351 132.024 344.094 129.27 345.691 126.057H345.685Z" fill="#EA3B48"/>
<path d="M358.431 376.203C356.9 376.34 356.429 375.633 356.9 374.233C361.219 361.455 366.925 351.066 383.775 348.115C385.012 347.899 386.281 347.579 387.086 348.671C388.068 349.999 386.994 351.197 386.242 352.191C382.427 357.268 377.735 361.527 373.122 365.846C370.262 368.522 367.442 371.256 364.412 373.729C362.737 375.097 360.636 375.889 358.425 376.203H358.431Z" fill="#B0EC7F"/>
<path d="M73.4137 316.22C73.5184 316.213 73.6297 316.174 73.7344 316.193C74.9384 316.396 76.5351 314.152 77.2025 316.148C77.8045 317.947 77.7784 320.348 74.9777 321.042C74.6701 321.12 74.3887 321.31 74.1008 321.447C73.453 321.369 72.8117 321.271 72.1639 321.225C63.2121 320.616 58.854 313.714 62.152 305.352C64.0104 300.642 69.193 298.319 74.2775 299.896C75.259 300.197 76.1097 301.217 77.2941 300.471C77.3988 301.976 78.8384 302.82 79.1525 304.22C79.3685 305.182 79.6106 306.255 78.8515 307.008C77.9092 307.937 77.4054 306.53 76.6332 306.366C76.005 306.229 75.4095 305.961 74.801 305.751C72.2816 304.763 70.0437 305.287 68.3554 307.328C66.9158 309.068 66.9158 311.195 67.8319 313.184C68.9051 315.5 70.8159 316.547 73.4072 316.22H73.4137Z" fill="#E0C600"/>
<path d="M287.969 480.983C291.712 477.666 294.486 473.492 297.719 469.73C314.765 449.906 333.977 432.456 354.983 416.924C365.4 409.217 376.132 401.987 387.034 394.987C387.466 394.712 387.819 394.215 388.696 394.548C387.924 396.4 386.092 396.962 384.678 397.865C356.213 416.047 329.646 436.559 306.658 461.447C300.31 468.317 294.087 475.304 288.636 482.939C287.844 483.712 287.046 484.484 286.254 485.256C286.11 485.085 285.94 484.961 285.737 484.883C286.483 483.581 287.229 482.285 287.969 480.983Z" fill="#50AB05"/>
<path d="M90.3882 388.908C95.7017 390.943 101.185 390.381 106.486 389.321C124.802 385.663 141.966 379.055 157.356 368.293C159.823 366.565 162.042 364.485 164.378 362.568C164.312 365.342 162.068 366.611 160.34 368.122C152.717 374.796 143.778 379.284 134.506 383.099C123.715 387.534 112.676 391.179 100.897 391.715C97.2067 391.885 93.202 392.415 90.3882 388.915V388.908Z" fill="#743A01"/>
<path d="M282.047 491.406L281.772 491.425L281.497 491.399C281.327 491.255 281.157 491.111 280.987 490.967C280.888 490.823 280.869 490.666 280.915 490.496C282.518 488.625 284.128 486.754 285.731 484.883C285.934 484.961 286.11 485.085 286.254 485.256C284.854 487.303 283.454 489.358 282.053 491.406H282.047Z" fill="#65CF0F"/>
<path d="M165.176 361.691L165.137 361.743L165.176 361.9V361.691Z" fill="#743A01"/>
<path d="M345.684 126.057C344.088 129.27 345.344 132.024 347.098 134.687C347.739 135.662 348.446 136.591 349.126 137.546C346.09 145.94 342.138 153.949 338.552 162.107C329.502 182.723 320.354 203.287 311.238 223.87C310.754 224.963 310.178 226.023 309.674 227.109C308.073 230.572 305.55 231.536 302.103 230C273.592 217.295 245.088 204.569 216.564 191.89C199.969 184.509 183.342 177.201 166.734 169.847C165.935 169.494 165.189 169.016 164.378 168.722C162.31 167.976 162.245 166.805 163.095 164.921C168.278 153.432 173.362 141.897 178.46 130.375C187.392 110.185 196.239 89.955 205.283 69.8167C207.854 64.0853 207.599 60.9448 216.525 65.034C230.96 71.6486 245.526 77.9884 260.04 84.4264C277.139 92.0159 294.244 99.5923 311.35 107.175C322.978 112.331 334.612 117.486 346.241 122.642C346.057 123.78 345.874 124.919 345.691 126.057H345.684ZM286.752 141.576C286.752 132.436 280.228 124.912 272.271 124.88C264.13 124.847 256.023 133.928 256.003 143.101C255.983 151.397 262.71 157.325 272.199 157.37C280.784 157.41 286.752 150.932 286.758 141.576H286.752ZM255.78 127.268C255.741 126.947 255.689 126.299 255.591 125.658C254.524 118.978 245.742 109.799 239.258 108.405C237.517 108.032 237.484 109.367 237.105 110.191C234.291 116.296 231.392 122.38 228.879 128.609C227.754 131.409 224.358 134.209 226.334 137.193C228.035 139.764 231.654 140.804 234.703 141.976C245.873 146.254 255.741 139.509 255.787 127.268H255.78ZM258.13 174.198C260.858 173.956 262.821 173.864 264.758 173.59C271.413 172.648 271.413 172.432 269.895 165.928C269.3 163.39 268.194 162.991 265.851 163.278C251.056 165.11 238.701 158.797 231.222 145.711C230.908 145.162 230.692 144.063 230.103 144.331C227.636 145.437 225.038 146.49 222.97 148.158C221.707 149.173 222.944 151.063 223.638 152.346C231.209 166.354 243.629 172.523 258.143 174.198H258.13Z" fill="#FEFEFE"/>
<path d="M54.2475 52.4263C57.7287 46.9632 60.7323 42.1085 63.8929 37.352C65.8167 34.4536 67.8649 31.6206 70.0571 28.9251C71.3004 27.3941 73.0279 25.9613 75.1415 27.3221C77.2617 28.6895 77.7001 30.9206 76.5157 33.0862C72.8185 39.8579 68.997 46.5706 65.1689 53.2703C63.2778 56.5743 61.3278 59.8457 59.2861 63.0581C57.9774 65.119 56.3022 67.0818 53.6127 66.8659C50.7858 66.6369 49.3593 64.3666 48.3974 61.9982C45.6883 55.3116 44.0393 48.324 42.9334 41.2187C42.5866 38.9877 42.9661 36.5146 45.6032 35.9388C48.1487 35.3827 49.1826 37.6333 49.8959 39.57C51.3813 43.5937 52.6704 47.6894 54.2606 52.4263H54.2475Z" fill="#65CF0F"/>
<path d="M269.712 478.484C269.712 477.817 269.856 477.221 270.393 476.75C274.077 473.505 275.968 469.187 277.604 464.712C280.797 458.058 284.141 451.476 287.145 444.743C293.832 429.728 301.043 414.974 309.302 400.764C318.031 385.742 327.486 371.184 337.61 357.059C338.643 355.619 339.494 353.997 341.614 352.61C340.875 355.318 339.409 356.882 338.212 358.564C324.784 377.426 312.384 396.917 301.678 417.474C293.858 432.502 287.079 448.008 280.051 463.403C277.977 467.944 275.654 472.373 273.442 476.861C272.919 477.928 272.205 478.935 272.264 480.205C270.681 480.479 270.524 481.853 270.092 483.018C267.154 487.716 264.83 492.819 261.101 497.006C263.319 491.962 266.709 487.572 268.685 482.423C269.823 481.317 271.152 480.257 269.712 478.477V478.484Z" fill="#50AB05"/>
<path d="M270.098 483.018C270.523 481.853 270.687 480.479 272.271 480.205C275.68 480.754 278.304 478.791 281.02 477.319C283.67 475.88 286.13 474.081 288.676 472.439C288.663 475.304 287.661 478.091 287.969 480.983C287.223 482.285 286.484 483.581 285.738 484.883C284.128 486.754 282.525 488.625 280.921 490.496C277.499 487.735 273.848 485.314 270.105 483.018H270.098Z" fill="#F5F5F5"/>
<path d="M341.673 351.596C345.324 345.832 349.558 340.499 353.838 335.2C354.132 335.416 354.427 335.638 354.721 335.854L342.563 352.257C342.268 352.041 341.974 351.818 341.673 351.602V351.596Z" fill="#50AB05"/>
<path d="M338.846 92.9842C340.109 89.6409 341.235 86.2649 342.661 83.0263C343.342 81.4822 343.878 78.9109 346.234 79.6176C348.321 80.2457 347.589 82.6075 347.379 84.2236C346.699 89.5428 345.122 94.6199 342.504 99.3306C340.973 102.085 339.468 102.412 337.04 100.449C334.632 98.4997 332.872 96.0265 331.615 93.2001C330.941 91.6822 330.843 90.1643 332.355 89.1044C334.063 87.9006 335.175 89.3269 336.288 90.2886C337.171 91.0476 337.38 92.4346 338.84 92.9842H338.846Z" fill="#FEFEFE"/>
<path d="M327.702 72.6104C327.781 69.3063 330.025 66.8005 333.794 66.5453C336.981 66.3294 339.939 65.734 342.55 63.8236C343.322 65.0536 342.589 65.6752 341.863 66.0874C340.835 66.6762 339.729 67.1603 338.604 67.5333C336.824 68.1156 328.618 71.858 327.702 72.6104Z" fill="#F5F5F5"/>
<path d="M329.75 78.5904C329.75 76.0256 331.465 74.6582 333.382 73.5525C334.894 72.6823 336.621 72.2309 338.382 72.316C340.986 72.4468 343.067 71.2037 345.377 69.5288C345.351 71.6944 344.107 72.329 342.858 72.9048C341.156 73.6768 339.33 74.0825 337.485 74.0498C334.554 74.004 332.46 75.1424 331.216 77.8118C330.987 78.3025 330.712 78.7932 329.75 78.5838V78.5904Z" fill="#F5F5F5"/>
<path d="M263.797 246.508C260.315 247.253 256.082 244.303 251.678 242.366C228.991 232.382 206.395 222.189 183.747 212.126C162.114 202.515 140.435 192.989 118.808 183.358C117.578 182.808 115.274 182.54 115.673 180.865C115.987 179.544 118.166 179.622 119.685 179.504C127.347 178.902 135.023 178.346 142.666 177.548C146.867 177.11 150.551 178.353 154.268 180.015C176.883 190.149 199.511 200.271 222.166 210.327C245.304 220.599 268.482 230.779 291.64 241.012C292.7 241.483 294.297 241.895 294.166 243.138C294.002 244.728 292.301 244.165 291.189 244.257C282.662 244.964 274.129 245.657 263.797 246.494V246.508Z" fill="#B8C3D8"/>
<path d="M96.9187 303.789C93.8955 303.298 91.0293 302.401 88.5296 300.556C87.4957 299.797 85.9841 299.163 86.1804 297.73C86.4095 296.088 88.1828 295.944 89.485 295.512C93.3916 294.217 97.4683 294.347 101.421 294.76C109.358 295.591 117.263 296.801 124.743 299.856C126.457 300.556 128.106 301.289 129.5 302.585C131.456 304.397 131.456 305.83 128.957 307.027C128.885 304.58 126.823 303.913 125.168 303.2C115.686 299.104 106.217 298.404 96.9121 303.795L96.9187 303.789Z" fill="#E0C600"/>
<path d="M96.9189 303.789C106.224 298.397 115.693 299.097 125.175 303.193C126.83 303.906 128.891 304.58 128.963 307.021C119.397 308.558 109.921 308.257 100.57 305.594C99.2747 305.228 97.7042 305.254 96.9189 303.795V303.789Z" fill="#743A01"/>
<path d="M73.4139 316.22C70.8226 316.553 68.9119 315.506 67.8387 313.184C66.9226 311.201 66.9226 309.068 68.3622 307.328C70.0439 305.287 72.2884 304.763 74.8078 305.751C73.8393 309.173 73.499 312.673 73.4205 316.213L73.4139 316.22Z" fill="#F5F5F5"/>
<path d="M111.38 309.042H128.302C122.662 309.311 117.008 310.429 111.393 309.023L111.38 309.042Z" fill="#FCD974"/>
<path d="M111.394 309.023L110.576 308.833C111.014 308.251 111.152 308.833 111.381 309.042L111.394 309.023Z" fill="#FCD974"/>
<path d="M270.098 483.018C273.841 485.314 277.492 487.735 280.915 490.496C280.869 490.666 280.895 490.823 280.987 490.967C280.934 491.386 280.882 491.798 280.83 492.217L280.849 492.197C277.296 494.088 275.968 497.667 274.07 500.821C276.818 498.504 278.775 495.56 280.843 492.708C283.892 495.495 287.099 498.145 289.33 501.678C290.508 503.542 291.424 505.695 290.226 507.808C289.075 509.843 286.883 509.993 284.73 509.882C278.533 509.562 272.918 507.226 267.356 504.772C258.13 500.696 249.943 494.991 242.575 488.18C240.39 486.165 238.525 483.666 237.419 480.735C236.234 477.581 237.622 475.383 241.018 475.121C244.08 474.892 247.071 475.428 250.081 475.801C249.943 479.374 247.967 482.756 248.582 487.356C250.375 483.384 249.878 479.858 251.37 476.822C253.019 478.582 254.72 480.244 257.344 480.349C256.592 484.091 254.007 487.225 253.49 491.177C254.786 491.02 254.557 490.012 254.923 489.43C256.631 486.715 256.821 483.26 259.118 480.826C261.199 481.238 263.149 480.349 265.177 480.224C266.342 480.957 267.5 481.683 268.665 482.416C266.689 487.565 263.299 491.955 261.081 497C264.811 492.812 267.134 487.709 270.072 483.011L270.098 483.018Z" fill="#743A01"/>
<path d="M251.389 476.829C249.897 479.864 250.395 483.391 248.602 487.362C247.987 482.763 249.963 479.38 250.1 475.808C250.192 475.572 250.277 475.337 250.369 475.108C250.709 475.684 251.056 476.259 251.396 476.829H251.389Z" fill="#50AB05"/>
<path d="M280.849 492.701C278.782 495.554 276.825 498.498 274.077 500.814C275.974 497.66 277.303 494.088 280.856 492.191C280.843 492.361 280.843 492.531 280.856 492.701H280.849Z" fill="#50AB05"/>
<path d="M280.836 492.217C280.889 491.798 280.941 491.386 280.993 490.967C281.164 491.111 281.334 491.255 281.504 491.399C281.281 491.667 281.059 491.942 280.836 492.21V492.217Z" fill="#50AB05"/>
<path d="M259.144 480.833C256.847 483.267 256.657 486.721 254.949 489.436C254.583 490.019 254.812 491.026 253.516 491.183C254.033 487.231 256.618 484.098 257.37 480.355C266.309 457.77 274.77 435.054 277.276 410.571C278.022 413.306 277.63 416.047 277.237 418.704C274.698 435.675 269.188 451.829 263.502 467.937C261.99 472.21 259.772 476.259 259.144 480.833Z" fill="#50AB05"/>
<path d="M268.691 482.423C267.526 481.69 266.368 480.964 265.203 480.231C266.46 479.014 267.821 478.052 269.712 478.477C271.151 480.257 269.83 481.31 268.691 482.423Z" fill="#F5F5F5"/>
<path d="M373.194 136.872C366.578 137.415 362.031 134.34 358.922 128.733C360.611 128.524 361.919 127.549 363.261 126.62C364.17 125.992 364.524 125.351 364.033 124.173C362.835 121.275 363.817 118.638 365.394 116.191C367.632 112.717 370.263 109.537 373.096 106.528C377.807 109.105 382.552 108.314 387.204 106.318C388.395 110.551 385.549 113.28 384.057 116.741C385.581 116.577 386.753 116.453 387.918 116.335C389.468 117.565 388.768 118.487 387.545 119.41C385.961 120.614 384.155 121.491 382.283 121.922C375.262 123.532 373.901 128.995 373.129 134.916C373.044 135.551 373.168 136.218 373.194 136.866V136.872Z" fill="#D4DEF2"/>
<path d="M387.918 116.341C386.746 116.466 385.581 116.59 384.057 116.747C385.555 113.286 388.402 110.558 387.204 106.325C382.558 108.32 377.807 109.105 373.096 106.534C369.078 102.465 371.035 97.479 376.015 95.4181C379.221 94.0899 382.558 93.9263 385.915 94.6788C388.592 95.2807 390.358 96.8509 390.679 99.7297C390.771 100.548 390.561 101.424 391.824 101.699C394.573 102.301 394.586 104.29 394.049 106.508C393.094 110.473 390.018 113.103 387.911 116.341H387.918Z" fill="#352952"/>
<path d="M144.151 359.99C146.991 360.193 149.857 359.303 150.957 361.815C152.141 364.524 149.576 366.199 147.835 367.704C140.107 374.384 130.848 378.113 121.202 380.959C116.727 382.281 112.146 383.177 107.421 382.974C105.74 382.902 103.927 382.883 103.155 381.201C102.272 379.278 103.292 377.577 104.719 376.255C108.979 372.284 113.945 369.366 119.207 366.984C125.94 363.942 132.844 361.351 140.232 360.369C141.737 360.173 143.248 360.082 144.145 359.996L144.151 359.99Z" fill="#E0C600"/>
<path d="M286.752 141.57C286.752 150.926 280.784 157.403 272.192 157.364C262.703 157.318 255.977 151.397 255.996 143.094C256.016 133.922 264.123 124.84 272.264 124.873C280.221 124.906 286.752 132.43 286.745 141.57H286.752ZM278.408 140.68C278.454 136.709 276.465 134.484 272.892 134.51C268.671 134.537 265.131 138.214 265.125 142.571C265.118 146.196 267.69 148.8 271.243 148.767C275.366 148.734 278.356 145.358 278.415 140.68H278.408Z" fill="#352952"/>
<path d="M255.781 127.261C255.735 139.502 245.867 146.248 234.697 141.969C231.647 140.798 228.029 139.764 226.327 137.186C224.351 134.203 227.747 131.396 228.873 128.602C231.386 122.367 234.278 116.289 237.098 110.185C237.478 109.36 237.511 108.026 239.251 108.399C245.736 109.792 254.524 118.972 255.584 125.652C255.689 126.293 255.741 126.941 255.774 127.261H255.781ZM247.051 126.725C246.973 125.488 246.652 124.062 245.585 122.825C242.831 119.639 241.627 119.744 239.892 123.427C239.061 125.194 238.243 126.96 237.367 128.707C236.889 129.656 236.588 130.434 237.733 131.2C239.644 132.482 241.692 133.287 243.851 132.292C245.972 131.318 247.045 129.42 247.051 126.725Z" fill="#352952"/>
<path d="M258.13 174.198C243.616 172.523 231.196 166.354 223.625 152.346C222.938 151.07 221.694 149.173 222.957 148.158C225.032 146.49 227.623 145.443 230.09 144.331C230.685 144.063 230.895 145.162 231.209 145.711C238.695 158.797 251.043 165.11 265.838 163.278C268.174 162.991 269.287 163.383 269.882 165.928C271.4 172.432 271.407 172.641 264.745 173.59C262.808 173.864 260.852 173.956 258.117 174.198H258.13Z" fill="#EA3B48"/>
<path d="M278.408 140.687C278.356 145.365 275.359 148.741 271.237 148.773C267.683 148.8 265.112 146.196 265.118 142.578C265.125 138.22 268.665 134.543 272.886 134.517C276.458 134.491 278.448 136.722 278.402 140.687H278.408Z" fill="#F5F5F5"/>
<path d="M247.051 126.731C247.038 129.427 245.965 131.324 243.851 132.299C241.692 133.293 239.644 132.489 237.733 131.206C236.588 130.441 236.895 129.662 237.366 128.714C238.237 126.967 239.061 125.2 239.892 123.434C241.626 119.75 242.837 119.639 245.585 122.832C246.652 124.068 246.973 125.495 247.051 126.731Z" fill="#F5F5F5"/>
</g>
<defs>
<clipPath id="clip0_39_248">
<rect width="419" height="542" fill="white"/>
</clipPath>
</defs>
</svg>
