<svg width="454" height="571" viewBox="0 0 454 571" fill="none" xmlns="http://www.w3.org/2000/svg">
<g clip-path="url(#clip0_787_18)">
<path d="M286.281 506.258C267.838 498.738 251.051 497.159 248.793 502.724L248.68 503.024C248.68 503.3 248.58 503.576 248.542 503.839C245.631 520.695 242.871 536.549 240.274 551.55C246.027 558.292 253.317 563.556 261.531 566.899C269.744 570.242 278.641 571.567 287.473 570.762L314.912 530.909L315.464 530.119C315.507 530.054 315.541 529.982 315.564 529.906C317.835 524.367 304.724 513.777 286.281 506.258ZM311.825 528.39C309.805 533.315 294.9 531.912 278.528 525.244C262.155 518.577 250.524 509.178 252.594 504.253C254.665 499.327 269.507 500.719 285.867 507.386C302.227 514.053 313.833 523.515 311.825 528.39Z" fill="#B05E0F"/>
<path d="M311.826 528.39C309.806 533.315 294.901 531.912 278.528 525.244C262.155 518.577 250.524 509.178 252.595 504.253C254.665 499.327 269.507 500.718 285.867 507.386C302.228 514.053 313.833 523.515 311.826 528.39Z" fill="#743A01"/>
<path d="M277.875 508.827C289.756 515.519 324.836 488.011 336.491 454.574C338.146 450.033 339.405 445.358 340.255 440.601C342.187 427.329 338.888 417.353 341.51 392.978C347.996 331.769 378.71 302.343 369.112 293.897C360.58 286.377 326.73 301.579 308.45 328.11C292.466 351.307 304.247 360.13 287.498 407.565C275.491 441.578 268.603 450.852 268.089 470.641C267.958 478.699 269.067 486.73 271.376 494.452C273.923 503.037 275.178 507.285 277.875 508.827Z" fill="#50AB05"/>
<path d="M308.2 514.868C336.843 510.607 363.617 506.772 373.804 488.55C385.096 468.347 364.646 454.712 375.147 429.56C383.076 410.598 396.777 412.979 409.423 390.459C420.828 370.106 423.864 342.773 414.78 337.083C408.846 333.324 396.689 341.131 372.387 356.646C355.838 367.211 347.558 372.487 339.766 380.984C328.713 393.015 325.489 403.129 315.84 428.432C292.492 489.665 282.141 507.123 289.807 514.166C291.262 515.544 293.997 516.986 308.2 514.868Z" fill="#65CF0F"/>
<path d="M284.5 519.755C298.426 498.738 313.983 477.258 327.508 455.978C330.883 450.589 333.581 444.699 336.818 439.184C346.288 422.365 357.301 406.46 369.714 391.674C358.426 407.234 348.114 423.478 338.837 440.312C335.638 445.914 332.991 451.729 329.591 457.256C315.702 478.975 300.27 499.478 284.5 519.755Z" fill="#50AB05"/>
<path d="M319.178 520.043C327.96 519.68 336.203 519.342 343.706 515.294C353.743 509.867 353.831 502.473 363.454 488.362C379.513 464.813 394.819 462.67 393.163 453.96C391.357 444.674 371.998 437.079 358.372 442.092C348.925 445.576 350.054 452.231 338.298 461.743C321.411 475.391 310.17 468.849 300.659 480.742C291.789 491.808 291.049 510.607 298.978 517.412C302.78 520.708 308.275 520.495 319.178 520.043Z" fill="#B0EC7F"/>
<path d="M255.957 481.87C252.933 470.967 250.8 465.64 249.295 456.943C243.022 420.474 231.969 418.719 233.261 403.116C234.214 391.674 239.007 391.774 251.553 367.825C270.31 332.02 268.566 314.713 276.571 313.936C287.536 312.896 304.674 344.177 302.441 374.643C301.4 388.679 297.423 387.426 292.78 407.077C283.822 445.388 296.544 461.492 282.58 488.311C281.702 490.016 272.757 506.947 265.944 505.493C262.757 504.842 261.201 500.756 255.957 481.87Z" fill="#B0EC7F"/>
<path d="M264.777 512.825C271.163 491.783 277.148 469.864 275.918 447.656C275.642 442.092 274.337 436.741 273.597 431.214C272.878 425.667 272.568 420.075 272.668 414.483C272.828 403.276 274.655 392.156 278.088 381.485C274.291 397.7 273.559 414.48 275.931 430.963C276.746 436.465 278.088 441.979 278.44 447.569C279.594 470.127 273.145 492.171 264.852 512.85L264.777 512.825Z" fill="#50AB05"/>
<path d="M293.721 526.648C303.445 503.075 324.635 484.113 349.489 477.922C326.009 487.544 306.393 504.683 293.721 526.648Z" fill="#50AB05"/>
<path d="M236.937 461.216C228.481 451.391 212.936 445.388 210.213 448.233C207.704 450.739 215.307 460.828 215.897 461.605C219.811 466.756 222.17 467.558 227.439 473.222C236.096 482.584 236.824 488.261 239.082 488.813C243.022 489.765 248.216 474.338 236.937 461.216Z" fill="#65CF0F"/>
<path d="M396.162 430.775C395.823 425.524 410.439 419.559 422.772 418.243C437.828 416.676 453.875 421.602 453.987 426.038C454.088 429.798 442.62 433.557 432.42 436.741C427.138 438.433 424.491 439.247 420.828 439.548C409.674 440.438 396.488 435.788 396.162 430.775Z" fill="#50AB05"/>
<path d="M371.119 332.296C372.374 335.066 385.761 335.705 390.603 327.96C395.195 320.616 389.738 309.399 386.702 309.349C384.807 309.349 384.744 313.685 379.726 321.155C374.582 328.812 370.379 330.591 371.119 332.296Z" fill="#B0EC7F"/>
<path d="M276.859 516.121C288.239 489.741 296.517 462.132 301.525 433.846C299.811 462.81 291.37 490.979 276.871 516.121H276.859Z" fill="#50AB05"/>
<path d="M57.5247 98.2287C89.2948 98.2287 115.049 76.2395 115.049 49.1144C115.049 21.9893 89.2948 0 57.5247 0C25.7547 0 0 21.9893 0 49.1144C0 76.2395 25.7547 98.2287 57.5247 98.2287Z" fill="white"/>
<path d="M99.0154 64.1031L118.249 98.2162L85.3525 80.1571L99.0154 64.1031Z" fill="white"/>
<path d="M43.0713 40.3292C42.6968 40.4527 42.3518 40.6523 42.0582 40.9155C41.7645 41.1786 41.5285 41.4995 41.365 41.8581C39.4078 45.3547 41.0639 61.559 48.0773 69.2163C48.5058 69.9324 49.1106 70.5271 49.8342 70.9436C50.5578 71.3602 51.376 71.5848 52.2111 71.5961C53.0462 71.6075 53.8703 71.4051 54.605 71.0082C55.3396 70.6114 55.9603 70.0333 56.4081 69.3291C63.8229 61.3209 77.0216 38.4243 75.4659 31.0552C75.3404 30.4411 74.9766 28.7367 73.7847 28.2605C73.2585 28.1562 72.7156 28.1719 72.1964 28.3065C71.6772 28.441 71.1951 28.6909 70.7861 29.0375C64.8266 33.0228 55.3793 51.4329 54.1372 53.814C53.8361 54.378 53.146 55.6563 52.2803 55.6312C51.4146 55.6061 50.963 54.5409 50.6744 53.9519C48.1024 48.6883 48.3784 43.2993 45.405 41.0686C45.0895 40.789 44.7188 40.5787 44.3168 40.4513C43.9148 40.3239 43.4905 40.2823 43.0713 40.3292Z" fill="#65CF0F"/>
<path d="M352.814 95.6471L306.606 109.671C305.973 109.883 305.3 109.954 304.636 109.878C303.973 109.802 303.334 109.581 302.765 109.23C302.196 108.88 301.711 108.409 301.345 107.85C300.979 107.292 300.741 106.66 300.647 105.999L288.728 36.5068C288.507 35.0687 288.805 33.599 289.567 32.3596C290.33 31.1202 291.509 30.1916 292.893 29.7393L339.064 15.678C339.694 15.463 340.365 15.3897 341.027 15.4634C341.69 15.5371 342.328 15.7559 342.896 16.1042C343.464 16.4526 343.948 16.9218 344.313 17.4786C344.679 18.0353 344.917 18.6657 345.01 19.3249L356.992 88.8671C357.21 90.3081 356.91 91.7797 356.146 93.0209C355.381 94.262 354.201 95.1925 352.814 95.6471Z" fill="#BF7A00"/>
<path d="M346.315 104.194L300.082 118.23C299.451 118.443 298.781 118.514 298.119 118.439C297.458 118.363 296.821 118.143 296.254 117.794C295.687 117.444 295.205 116.974 294.841 116.417C294.477 115.86 294.24 115.23 294.148 114.571L282.229 45.0413C282.019 43.6143 282.319 42.159 283.076 40.9308C283.833 39.7026 284.999 38.7797 286.369 38.324L332.564 24.2627C333.194 24.0499 333.864 23.9783 334.525 24.0531C335.185 24.1279 335.822 24.3471 336.388 24.6952C336.955 25.0433 337.437 25.5118 337.802 26.0674C338.167 26.6229 338.405 27.2519 338.499 27.9096L350.455 97.4768C350.67 98.9045 350.372 100.362 349.614 101.591C348.857 102.821 347.688 103.743 346.315 104.194Z" fill="#FFB533"/>
<path d="M307.622 76.8986C306.869 77.4751 308.149 81.473 310.131 84.6687C311.574 87.0624 314.974 92.6518 318.726 91.8623C323.556 90.8472 325.977 79.8438 326.58 75.0439C327.119 70.7327 326.931 65.6446 325.852 65.5568C324.974 65.4817 323.682 68.6774 321.875 73.0763C318.952 80.2824 318.475 83.5659 316.856 83.8917C315.966 84.0797 315.602 83.1648 312.641 80.4077C310.069 78.1519 308.212 76.4475 307.622 76.8986Z" fill="white"/>
<path d="M293.031 49.5781C292.868 49.1896 297.134 45.3171 302.892 43.4873C309.68 41.3443 311.675 44.2518 318.349 42.1338C324.622 40.1663 328.273 35.9679 328.575 36.394C328.876 36.8201 325.062 42.5349 319.052 44.9035C313.042 47.2721 310.445 43.9636 302.152 45.9938C296.694 47.2846 293.169 49.929 293.031 49.5781Z" fill="white"/>
<path d="M294.562 58.4009C294.349 57.887 301.437 51.6083 309.09 50.1796C313.607 49.3274 314.109 50.9692 318.626 50.0543C326.028 48.5629 331.611 42.9234 331.849 43.2367C332.088 43.55 324.196 52.3352 315.828 53.9017C312.064 54.6035 311.675 53.2626 306.907 53.9017C299.856 55.0046 294.737 58.827 294.562 58.4009Z" fill="white"/>
<path d="M296.331 63.7647C296.18 63.2885 300.998 59.5914 307.196 58.2003C313.394 56.8093 314.874 58.8646 320.47 57.0348C325.488 55.4056 328.361 52.5357 328.612 52.9117C328.863 53.2877 325.701 57.486 320.972 59.5538C316.242 61.6217 314.422 59.6666 307.171 60.8071C300.559 61.7595 296.506 64.1908 296.331 63.7647Z" fill="white"/>
<path d="M235.586 246.304L288.697 241.167C290.25 241.017 291.8 241.489 293.004 242.48C294.209 243.471 294.97 244.9 295.121 246.451L295.571 251.092C295.735 252.789 295.218 254.482 294.133 255.798C293.048 257.114 291.484 257.946 289.785 258.11L237.223 263.194C235.289 263.381 233.359 262.793 231.859 261.559C230.359 260.325 229.411 258.546 229.224 256.614L228.999 254.294C228.812 252.362 229.401 250.435 230.636 248.936C231.871 247.438 233.652 246.491 235.586 246.304Z" fill="#B8C3D8"/>
<path d="M189.481 38.1879L353.702 112.841C354.329 113.124 354.893 113.528 355.361 114.031C355.83 114.533 356.195 115.123 356.433 115.767C356.672 116.411 356.78 117.096 356.752 117.782C356.724 118.468 356.56 119.141 356.269 119.764L295.315 253.553C294.562 255.205 293.184 256.49 291.482 257.127C289.781 257.763 287.896 257.698 286.242 256.947L123.517 182.973C122.263 182.403 121.287 181.359 120.804 180.07C120.321 178.782 120.37 177.354 120.94 176.102L182.581 40.8067C183.151 39.5543 184.197 38.5796 185.487 38.097C186.777 37.6144 188.206 37.6635 189.46 38.2335L189.481 38.1879Z" fill="#B8C3D8"/>
<path d="M65.7092 170.18L248.522 253.284L247.675 255.144C246.27 258.226 243.697 260.625 240.522 261.813C237.346 263.001 233.829 262.88 230.743 261.477L63.3805 185.396C62.2932 184.902 61.4471 183.997 61.0281 182.879C60.6092 181.762 60.6518 180.524 61.1467 179.438L65.3042 170.312C65.3386 170.237 65.4017 170.178 65.4796 170.149C65.5576 170.119 65.6439 170.122 65.7196 170.157L65.7092 170.18Z" fill="#B8C3D8"/>
<path d="M238.492 248.968L65.5795 170.904C65.5042 170.863 65.4427 170.801 65.4024 170.725C65.3622 170.649 65.345 170.564 65.353 170.478C65.361 170.393 65.3938 170.312 65.4475 170.245C65.5011 170.178 65.5731 170.128 65.6547 170.102L126.053 164.625C126.126 164.601 126.205 164.601 126.278 164.625L298.413 242.877C298.815 243.053 298.664 243.629 298.2 243.679L238.718 249.056C238.635 249.053 238.555 249.022 238.492 248.968Z" fill="#D4DEF2"/>
<path d="M236.46 241.348L92.3281 175.829L126.09 171.756L271.652 237.915L236.46 241.348Z" fill="#B8C3D8"/>
<path d="M333.421 119.14L198.056 57.6042C194.877 56.1592 191.128 57.5617 189.681 60.7368L146.401 155.732C144.955 158.907 146.359 162.652 149.538 164.097L284.903 225.633C288.081 227.078 291.831 225.675 293.277 222.5L336.557 127.505C338.003 124.33 336.599 120.585 333.421 119.14Z" fill="#FEFEFE"/>
<path d="M243.812 147.017L244.753 147.456L249.659 149.699C250.236 149.962 250.249 149.975 250.173 150.489L248.743 160.69C248.517 162.207 248.304 163.723 248.091 165.239C248.041 165.386 248.041 165.544 248.091 165.691C248.266 165.691 248.329 165.59 248.404 165.503L257.739 155.063C257.99 154.775 258.253 154.512 258.491 154.211C258.73 153.91 258.868 153.998 259.169 154.148L264.125 156.417C264.401 156.542 264.489 156.667 264.463 156.93C264.313 158.184 264.2 159.5 264.062 160.79C263.661 164.663 263.246 168.535 262.807 172.408C262.794 172.46 262.796 172.516 262.814 172.567C262.832 172.618 262.864 172.663 262.908 172.696C263.272 172.496 263.435 172.145 263.686 171.856C266.195 168.936 268.579 165.979 271.038 163.084L272.857 160.916C273.02 160.715 273.158 160.615 273.509 160.778C275.642 161.78 277.788 162.758 279.92 163.735C279.993 163.777 280.061 163.828 280.121 163.886C279.803 164.382 279.414 164.829 278.967 165.214C275.002 169.392 271.029 173.54 267.048 177.659C265.793 178.912 264.539 180.165 263.384 181.481C263.159 181.732 262.958 181.744 262.594 181.569C260.875 180.754 259.156 179.94 257.425 179.163C257.024 178.975 256.911 178.799 256.936 178.436C257.149 175.453 257.337 172.458 257.538 169.475C257.651 167.758 257.776 166.041 257.877 164.324C257.906 164.24 257.913 164.148 257.895 164.06C257.878 163.972 257.837 163.89 257.776 163.823C257.61 163.928 257.462 164.06 257.337 164.212L247.815 174.05C247.388 174.501 247.375 174.488 246.71 174.175L241.88 171.919C241.228 171.618 241.328 171.606 241.366 171.167C241.504 169.5 241.617 167.846 241.717 166.154C241.729 166.01 241.772 165.871 241.843 165.745C241.915 165.619 242.013 165.511 242.131 165.427C243.29 164.441 244.259 163.252 244.992 161.918C246.174 159.767 246.767 157.341 246.71 154.888C246.598 152.598 245.87 150.382 244.603 148.471L243.712 147.105L243.812 147.017Z" fill="#FD7A0F"/>
<path d="M259.169 138.771C259.759 142.23 260.361 145.701 260.976 149.286L259.972 148.822C258.178 148.007 256.409 147.18 254.615 146.403C254.424 146.344 254.255 146.23 254.129 146.077C254.002 145.923 253.922 145.736 253.899 145.538C253.598 143.583 253.272 141.641 252.971 139.698C252.833 138.859 252.695 138.019 252.57 137.192C252.559 137.026 252.498 136.868 252.395 136.738C252.292 136.608 252.151 136.513 251.992 136.465C251.302 136.177 250.612 135.851 249.922 135.538C249.232 135.224 249.308 135.262 249.069 135.801L247.099 140.287L246.309 142.092C246.121 142.506 246.108 142.506 245.644 142.293L240.349 139.886C239.986 139.736 239.885 139.573 240.048 139.297C240.106 139.188 240.156 139.075 240.199 138.959L248.906 119.133L248.981 118.97C249.257 118.343 249.207 118.406 249.885 118.707C253.385 120.273 256.911 121.802 260.411 123.419C262.651 124.349 264.564 125.924 265.906 127.943C266.411 128.711 266.754 129.574 266.914 130.479C267.073 131.384 267.047 132.312 266.835 133.207C266.568 134.453 265.984 135.609 265.141 136.565C264.447 137.317 263.593 137.903 262.642 138.281C261.691 138.658 260.667 138.817 259.646 138.746H259.282H259.169V138.771ZM252.369 128.306L251.265 130.813C251.177 131.013 251.114 131.189 251.453 131.327C252.846 131.916 254.188 132.58 255.631 133.094C256.23 133.365 256.898 133.447 257.545 133.331C258.193 133.214 258.789 132.905 259.257 132.442C259.659 131.931 259.915 131.32 259.997 130.675C260.055 130.149 259.945 129.618 259.683 129.159C259.258 128.435 258.641 127.841 257.902 127.442C256.685 126.769 255.428 126.17 254.138 125.65C253.636 125.424 253.623 125.437 253.423 125.875C253.059 126.69 252.708 127.504 252.356 128.319L252.369 128.306Z" fill="#292B42"/>
<path d="M230.588 122.755L226.247 132.605C226.247 132.743 226.122 132.868 226.072 132.994C226.022 133.119 225.846 133.244 225.582 133.131L220.112 130.625C219.836 130.512 219.799 130.374 219.899 130.161C219.999 129.948 220.25 129.347 220.439 128.908L223.261 122.441C223.45 122.015 223.475 122.028 222.935 121.777L214.153 117.792C213.626 117.554 213.613 117.554 213.413 118.005L210.263 125.223C210.207 125.332 210.161 125.445 210.125 125.562C210.038 125.875 209.849 125.913 209.498 125.75C208.77 125.399 208.03 125.073 207.29 124.735C206.299 124.284 205.295 123.807 204.291 123.369C203.94 123.218 203.84 123.055 204.003 122.78C204.061 122.67 204.111 122.557 204.153 122.441L212.685 102.878L212.785 102.653C213.011 102.176 213.011 102.176 213.588 102.427L218.607 104.658C219.184 104.908 219.184 104.921 218.971 105.41L215.784 112.704C215.784 112.829 215.683 112.967 215.621 113.092C215.558 113.217 215.621 113.368 215.796 113.443L216.123 113.593L224.83 117.516C225.457 117.804 225.394 117.817 225.62 117.29L228.769 110.084L228.92 109.746C229.108 109.357 229.108 109.345 229.585 109.558L234.076 111.551L234.955 111.952C235.231 112.052 235.293 112.19 235.18 112.403C235.067 112.616 235.067 112.666 235.005 112.804L230.664 122.717L230.588 122.755Z" fill="#292B42"/>
<path d="M239.459 145.263C240.753 146.191 241.864 147.351 242.733 148.684C244.396 151.01 245.081 153.894 244.64 156.717C244.314 158.857 243.427 160.872 242.068 162.557C239.659 165.528 236.197 166.818 231.73 166.317C227.577 165.811 223.697 163.983 220.664 161.104C217.051 157.707 215.809 153.91 216.687 149.825C217.086 147.997 217.892 146.284 219.046 144.812C219.128 144.718 219.221 144.634 219.322 144.561C219.627 144.623 219.939 144.648 220.25 144.636L233.198 145.137L239.471 145.363L239.459 145.263ZM224.14 150.802C223.871 151.4 223.673 152.026 223.55 152.669C223.264 154.006 223.429 155.4 224.019 156.633C224.609 157.866 225.591 158.87 226.812 159.487C229.635 161.166 232.96 161.63 235.369 158.973C235.826 158.47 236.211 157.905 236.51 157.294C237.304 155.89 237.69 154.293 237.627 152.682C237.547 151.707 237.235 150.766 236.718 149.935C236.201 149.105 235.493 148.41 234.653 147.907C234.022 147.5 233.349 147.159 232.646 146.892C231.611 146.377 230.448 146.178 229.3 146.321C228.153 146.463 227.074 146.941 226.197 147.694C225.277 148.555 224.572 149.619 224.14 150.802Z" fill="#FD7A0F"/>
<path d="M278.327 146.817C277.072 146.315 275.817 145.689 274.563 145.137C274.374 145.064 274.19 144.981 274.011 144.887C273.735 144.736 273.622 144.812 273.521 145.025C273.296 145.551 273.032 146.077 272.794 146.604L271.903 146.541L265.341 146.265C265.417 146.077 265.479 145.877 265.555 145.689C267.922 140.325 270.289 134.957 272.656 129.585C272.957 128.908 272.857 128.921 273.672 129.284L290.697 136.879L291.187 137.104C291.362 137.179 291.413 137.305 291.35 137.43C291.287 137.555 291.237 137.706 291.174 137.844L289.857 140.826C289.518 141.566 289.681 141.528 288.79 141.127C286.218 139.987 283.646 138.821 281.074 137.668L278.026 136.265C277.474 136.026 277.474 136.026 277.285 136.452C276.758 137.605 276.244 138.771 275.742 139.936C275.554 140.363 275.554 140.375 276.093 140.613L284.499 144.373C285.089 144.636 285.666 144.912 286.269 145.162C286.607 145.3 286.708 145.463 286.557 145.726C286.374 146.157 286.165 146.575 285.93 146.98L278.339 146.704L278.327 146.817Z" fill="#292B42"/>
<path d="M234.49 124.409L238.743 114.696L238.869 114.421C239.12 113.832 239.057 113.844 239.772 114.157L244.791 116.388C245.38 116.651 245.38 116.664 245.167 117.153L240.148 128.632L236.385 137.167C236.322 137.305 236.259 137.43 236.209 137.568C236.159 137.706 235.971 137.856 235.669 137.718L233.286 136.615L230.425 135.362C229.848 135.099 229.835 135.086 230.049 134.598C231.303 131.841 232.47 129.083 233.687 126.314L234.503 124.459L234.49 124.409Z" fill="#292B42"/>
<path d="M195.396 143.558C195.471 143.37 195.534 143.17 195.609 142.994C197.709 138.182 199.8 133.37 201.882 128.557V128.444C202.096 127.968 202.096 127.968 202.673 128.231C204.003 128.833 205.333 129.484 206.675 130.061C206.883 130.127 207.069 130.247 207.217 130.407C207.364 130.568 207.467 130.764 207.516 130.976C208.043 132.981 208.62 134.986 209.172 137.004C209.724 139.022 210.351 141.24 210.928 143.358C211.033 143.622 211.093 143.901 211.104 144.185L205.609 143.972L204.555 140.363C204.517 140.111 204.423 139.871 204.279 139.661L202.409 143.872H201.632L195.358 143.608L195.396 143.558Z" fill="#292B42"/>
<path d="M205.684 143.972L211.192 144.185C211.581 145.1 211.669 146.052 212.108 147.105L213.438 144.223C213.809 144.295 214.188 144.325 214.567 144.31C215.3 144.319 216.033 144.365 216.762 144.448L216.198 145.463C215.362 146.928 214.837 148.549 214.655 150.226C214.539 151.031 214.493 151.844 214.517 152.657C214.6 153.837 214.858 154.998 215.282 156.103C215.346 156.238 215.38 156.386 215.38 156.536C215.38 156.685 215.346 156.833 215.282 156.968C215.023 157.494 214.784 158.033 214.567 158.585C214.454 158.873 214.291 158.885 213.977 158.735C212.509 158.033 211.029 157.344 209.548 156.667C209.417 156.615 209.301 156.531 209.21 156.424C209.118 156.318 209.053 156.19 209.021 156.053C208.394 153.76 207.767 151.466 207.102 149.173L205.671 143.972H205.684Z" fill="#FD7A0F"/>
<path d="M265.317 146.29L271.878 146.566L272.769 146.629C272.481 147.293 272.205 147.97 271.916 148.634C271.728 149.098 271.728 149.11 272.305 149.373L282.881 154.173L283.371 154.399C283.634 154.499 283.722 154.637 283.622 154.863C283.07 156.116 282.53 157.369 282.003 158.535C281.903 158.76 281.74 158.773 281.489 158.647L281.062 158.447L264.275 150.79L264.062 150.702C263.46 150.414 263.447 150.414 263.673 149.912C264.225 148.659 264.702 147.406 265.317 146.29Z" fill="#FD7A0F"/>
<path d="M239.458 145.263L233.185 145.037L220.237 144.536C219.926 144.548 219.614 144.523 219.309 144.461C219.469 144.102 219.725 143.794 220.049 143.571C223.086 140.864 226.975 140.187 231.592 141.315C234.233 141.98 236.717 143.155 238.906 144.774C239.117 144.899 239.3 145.066 239.446 145.263H239.458Z" fill="#292B42"/>
<path d="M195.396 143.558L201.669 143.822H202.434C202.412 143.92 202.383 144.016 202.346 144.11C201.305 146.491 200.276 148.86 199.235 151.228C199.047 151.679 199.034 151.679 198.557 151.454L193.451 149.073C193.162 148.947 193.012 148.834 193.15 148.546C193.903 146.867 194.643 145.188 195.383 143.533L195.396 143.558Z" fill="#FD7A0F"/>
<path d="M216.75 144.448C216.025 144.365 215.296 144.319 214.567 144.31C214.184 144.325 213.801 144.295 213.425 144.223L214.24 142.305C215.219 140.049 216.206 137.789 217.201 135.525C217.477 134.873 217.427 134.961 218.142 135.287L223.161 137.58C223.663 137.806 223.663 137.819 223.487 138.257C223.173 139.185 222.772 140.049 221.555 140.237C219.748 141.097 218.202 142.42 217.076 144.072C216.988 144.197 216.938 144.335 216.787 144.398L216.75 144.448Z" fill="#292B42"/>
<path d="M278.327 146.817L285.918 147.092C285.667 147.92 285.24 148.672 284.926 149.461C284.839 149.674 284.713 149.749 284.425 149.611C282.392 148.672 280.335 147.807 278.327 146.817Z" fill="#FD7A0F"/>
<path d="M398.57 91.5615L368.284 140.287C364.796 135.049 361.304 129.823 357.807 124.609H357.092C352.989 124.719 348.939 123.66 345.415 121.557C341.892 119.453 339.04 116.391 337.194 112.729C337.068 112.466 336.956 112.24 336.868 112.039L318.048 108.969L348.272 60.3559C349.394 58.5745 351.177 57.3102 353.23 56.8403C355.283 56.3704 357.439 56.7333 359.225 57.8494L395.998 80.6584C397.779 81.7703 399.049 83.5395 399.53 85.5814C400.012 87.6232 399.667 89.7724 398.57 91.5615Z" fill="#5761B7"/>
<path d="M357.092 124.634C352.989 124.744 348.939 123.686 345.415 121.582C341.892 119.478 339.04 116.416 337.194 112.754C337.796 112.641 338.448 112.503 339.076 112.315C341.272 111.631 343.289 110.471 344.985 108.919C346.217 107.788 347.323 106.527 348.285 105.159L360.003 112.967C359.79 113.255 359.551 113.568 359.326 113.894L358.811 114.721C357.629 116.611 356.935 118.764 356.791 120.988C356.7 122.211 356.802 123.442 357.092 124.634Z" fill="#FF8776"/>
<path d="M369.94 82.2124C366.339 79.7059 360.944 79.7059 356.892 81.4855C353.128 83.0771 351.233 85.8342 349.238 88.8044C346.315 93.1281 340.958 101.049 343.756 107.014C347.043 113.994 360.906 116.827 369.011 110.648C378.12 103.68 377.417 87.3883 369.94 82.2124Z" fill="#FF8776"/>
<path d="M368.284 140.287L365.85 144.197C364.728 145.979 362.946 147.243 360.892 147.713C358.839 148.183 356.683 147.82 354.897 146.704L318.124 123.92C316.339 122.798 315.073 121.015 314.603 118.961C314.133 116.908 314.496 114.753 315.614 112.967L318.124 108.944L336.943 112.014C337.031 112.215 337.144 112.44 337.269 112.704C339.116 116.366 341.967 119.428 345.49 121.532C349.014 123.635 353.064 124.694 357.168 124.584H357.883C361.295 129.865 364.762 135.099 368.284 140.287Z" fill="#FFA200"/>
<path d="M377.706 89.5313C380.479 94.5442 377.706 101.161 376.84 103.317C374.745 108.543 369.538 115.849 363.102 115.924C360.593 115.924 358.159 114.809 358.171 114.02C358.171 112.929 362.675 113.142 366.954 109.796C369.375 107.916 371.081 105.422 370.617 104.783C370.153 104.144 368.108 106.036 366.05 105.385C363.014 104.37 362.287 98.6047 361.948 95.8476C361.71 93.795 361.71 91.7218 361.948 89.6691C359.21 89.2815 356.429 89.3238 353.705 89.7945C349.389 90.5464 347.645 92.0002 346.604 91.0477C344.948 89.6566 346.516 83.7664 349.991 80.2699C353.968 76.2971 360.028 75.8961 360.869 75.8334H361.584C364.547 75.6965 367.461 76.6209 369.802 78.4401C371.157 79.6182 371.056 80.1821 374.017 84.4682C376.614 88.2906 377.003 88.2404 377.706 89.5313Z" fill="black"/>
<path d="M370.53 104.232C371.922 103.969 374.118 104.094 374.77 105.322C375.636 106.939 373.616 110.009 371.006 111.137C368.936 112.039 365.988 111.939 365.248 110.586C364.344 108.881 367.067 104.934 370.53 104.232Z" fill="#FF8776"/>
<path d="M376.209 136.803L361.615 133.37C358.836 132.717 356.053 134.437 355.399 137.213L350.085 159.756C349.43 162.532 351.153 165.312 353.931 165.966L368.525 169.398C371.304 170.052 374.087 168.331 374.741 165.556L380.055 143.012C380.71 140.237 378.987 137.457 376.209 136.803Z" fill="#97B8FF"/>
<path d="M357.632 145.664C359.282 145.076 361.072 145.006 362.763 145.463C365.925 146.178 366.201 147.819 369.338 148.534C372.261 149.185 374.494 148.321 374.544 148.534C374.594 148.747 372.035 150.226 369.137 149.787C366.239 149.348 365.774 147.381 362.01 146.278C360.568 145.968 359.104 145.763 357.632 145.664Z" fill="white"/>
<path d="M355.474 153.033C355.474 152.77 359.489 151.855 362.889 153.033C364.884 153.735 364.783 154.512 366.816 155.213C370.116 156.329 373.403 155.326 373.44 155.502C370.787 156.711 367.789 156.937 364.984 156.141C363.341 155.552 363.403 154.888 361.321 154.073C359.428 153.465 357.461 153.115 355.474 153.033Z" fill="white"/>
<path d="M71.7023 310.627C68.2596 314.411 65.7996 318.981 64.5383 323.937C64.3376 324.726 60.5611 341.006 71.3259 351.709C76.7835 357.148 83.2699 358.451 88.5268 359.504C94.1601 360.632 101.976 362.186 110.132 358.025C119.78 353.1 123.042 343.663 123.794 341.394C126.027 334.364 125.653 326.766 122.741 319.989C115.612 314.448 107.252 310.704 98.3674 309.074C89.4832 307.445 80.3367 307.977 71.7023 310.627Z" fill="#FFB533"/>
<path d="M123.125 322.036C123.962 317.623 112.941 311.83 98.5078 309.098C84.0749 306.366 71.696 307.73 70.8588 312.143C70.0215 316.556 81.043 322.349 95.4759 325.081C109.909 327.813 122.288 326.45 123.125 322.036Z" fill="#FFB533"/>
<path d="M118.274 321.079C118.877 317.896 109.941 313.532 98.3125 311.331C86.6845 309.13 76.7687 309.925 76.165 313.108C75.5612 316.291 84.4981 320.655 96.1262 322.856C107.754 325.057 117.67 324.261 118.274 321.079Z" fill="#BF8826"/>
<path d="M96.6566 319.162C95.0934 319.929 93.6381 320.898 92.3281 322.044C94.1222 322.458 95.7784 322.796 97.2714 323.06C98.1747 323.21 99.5422 323.448 101.286 323.661C104.129 323.999 106.993 324.137 109.855 324.075C111.248 324.021 112.636 323.87 114.008 323.623C114.948 323.485 115.857 323.184 116.693 322.734C117.049 322.535 117.389 322.309 117.709 322.057C116.39 320.735 114.859 319.643 113.18 318.824C105.452 315.064 97.585 318.723 96.6566 319.162Z" fill="#603813"/>
<path d="M69.1299 323.26C67.8753 319.751 61.0752 317.733 56.408 320.19C51.7408 322.646 50.1348 329.413 52.067 334.126C54.9902 341.056 65.2531 343.024 67.8878 340.392C69.6067 338.65 68.7786 334.126 66.972 333.361C65.4539 332.709 64.0988 335.028 61.7652 334.539C60.6452 334.275 59.6581 333.617 58.9852 332.684C58.3122 331.752 57.9985 330.608 58.1017 329.464C58.3055 328.588 58.7776 327.797 59.4522 327.202C60.1268 326.607 60.9704 326.236 61.8656 326.143C64.4752 325.967 65.7048 329.063 67.3985 328.561C68.8288 328.123 69.8451 325.278 69.1299 323.26Z" fill="#BF8826"/>
<path d="M140.662 392.473C160.303 383.926 174.245 372.455 171.802 366.851C169.358 361.248 151.454 363.635 131.812 372.183C112.17 380.73 98.2285 392.201 100.672 397.804C103.116 403.407 121.02 401.02 140.662 392.473Z" fill="#603813"/>
<path d="M140.032 390.99C160.392 382.131 174.891 370.35 172.417 364.677C169.943 359.004 151.433 361.588 131.073 370.447C110.713 379.307 96.2141 391.088 98.6882 396.761C101.162 402.434 119.673 399.85 140.032 390.99Z" fill="#FFB533"/>
<path d="M137.9 386.131C151.501 380.213 161.164 372.292 159.484 368.441C157.805 364.589 145.417 366.264 131.817 372.183C118.216 378.101 108.552 386.022 110.232 389.873C111.912 393.725 124.299 392.049 137.9 386.131Z" fill="#BF8826"/>
<path d="M129.064 314.425C129.653 313.898 132.05 317.633 135.826 317.32C139.364 317.031 140.381 313.56 142.965 313.911C145.249 314.249 147.181 317.382 147.068 320.177C146.93 323.937 143.166 326.794 140.017 327.045C133.028 327.609 128.048 315.302 129.064 314.425Z" fill="#603813"/>
<path d="M147.896 330.328C149.401 329.94 154.257 335.617 152.149 339.427C151.133 341.282 148.385 342.923 146.076 341.858C145.229 341.435 144.544 340.747 144.125 339.898C143.706 339.05 143.576 338.087 143.755 337.158C144.107 335.905 145.01 335.993 146.265 334.276C147.682 332.12 147.206 330.516 147.896 330.328Z" fill="#603813"/>
</g>
<defs>
<clipPath id="clip0_787_18">
<rect width="454" height="571" fill="white"/>
</clipPath>
</defs>
</svg>
